<?xml version="1.0" encoding="UTF-8" standalone="no"?>
<svg
   xmlns:dc="http://purl.org/dc/elements/1.1/"
   xmlns:cc="http://creativecommons.org/ns#"
   xmlns:rdf="http://www.w3.org/1999/02/22-rdf-syntax-ns#"
   xmlns:svg="http://www.w3.org/2000/svg"
   xmlns="http://www.w3.org/2000/svg"
   version="1.1"
   id="svg834"
   width="512"
   height="512"
   viewBox="0 0 512 512">
  <metadata
     id="metadata840">
    <rdf:RDF>
      <cc:Work
         rdf:about="">
        <dc:format>image/svg+xml</dc:format>
        <dc:type
           rdf:resource="http://purl.org/dc/dcmitype/StillImage" />
        <dc:title></dc:title>
      </cc:Work>
    </rdf:RDF>
  </metadata>
  <defs
     id="defs838" />
  <path
     id="path844"
     style="fill:#000000;stroke-width:0.54788"
     d="m 354.58773,14.386954 c -0.27841,-0.231973 -14.80168,3.275819 -21.4707,5.185547 -26.60068,7.617308 -51.51077,20.056996 -72.25586,36.083984 -4.88981,3.777697 -4.30345,3.61187 -15.97461,4.541016 -13.00169,1.035074 -24.51064,3.431774 -39.0957,8.144531 l -3.98243,1.287109 -0.34375,-1.427734 c -0.76247,-3.176537 3.23234,-9.675333 11.48438,-18.6875 l 2.66601,-2.914063 -3.16015,1.335938 c -12.80002,5.404452 -27.92571,16.908703 -33.7461,25.666015 l -2.10742,3.167969 -0.74804,-4.1875 c -1.13655,-6.365207 0.0122,-9.773054 5.10351,-15.154297 2.97965,-3.149341 3.10599,-3.447371 1.09766,-2.582031 -3.39198,1.461499 -8.93692,5.280541 -12.21485,8.412109 -9.60902,9.180005 -14.66402,17.862178 -14.29296,24.554688 l 0.18945,3.41992 -6.59375,7.07813 c -9.17194,9.846655 -18.04577,20.217735 -19.52931,22.822265 -1.63158,2.8644 -14.75043,14.94812 -21.09766,19.4336 -5.33592,3.77081 -11.533485,7.326 -18.003895,10.32617 -3.74941,1.73851 -4.11382,1.81188 -5.40234,1.10937 -0.7599,-0.41429 -2.93305,-1.08872 -4.83008,-1.5 -6.07303,-1.31665 -8.31839,-0.44313 -19.95898,7.77149 -4.58157,3.23316 -8.99999,4.95389 -13.61719,5.30273 -3.45992,0.26141 -3.91916,0.1567 -9.125,-2.08398 -8.92141,-3.83993 -13.23833,-3.17185 -20.84375,3.22656 -4.70996,3.96247 -7.6367001,8.50526 -8.1503901,12.65234 -0.39417,3.18218 0.21143,3.60561 1.8496101,1.29493 2.10857,-2.97417 6.90046,-4.44012 8.15039,-2.49414 0.96509,1.50252 0.76689,2.74122 -1.3086,8.20507 -1.59615,4.20201 -1.93157,5.90156 -1.94921,9.83203 -0.0247,5.49755 0.97879,8.23185 4.36914,11.90821 1.96927,2.1354 2.14685,2.59531 2.00195,5.16992 -0.14074,2.5008 0.042,3.01747 1.58594,4.5 1.16887,1.12238 1.86902,2.46006 2.12304,4.05273 0.45934,2.87993 1.96475,5.41749 4.89649,8.25 3.56418,3.44351 4.06094,3.02484 3.57422,-3.02929 -0.69617,-8.65936 -0.002,-9.1027 17.26757,-10.98828 l 10.63282,-1.16016 0.39648,1.52539 c 0.69812,2.69322 3.07005,5.96326 6.04883,8.33789 2.67207,2.13013 9.23195,6.08466 9.59375,5.7832 0.0856,-0.0713 -0.0979,-1.5857 -0.40625,-3.36328 -0.94729,-5.4614 -0.72872,-10.28735 0.55859,-12.3789 2.00744,-3.26156 4.23762,-4.51773 12.55274,-7.07227 12.850905,-3.94801 17.704955,-6.54698 29.562485,-15.82617 13.6802,-10.70553 23.93241,-16.07184 42.07619,-22.02539 23.68599,-7.77211 38.1796,-9.79423 48.05468,-6.70313 3.73533,1.16924 8.8385,3.84771 12.98633,6.81641 l 2.6211,1.87695 -5.92383,2.48438 c -3.2582,1.36645 -10.24545,4.10684 -15.52735,6.08984 -26.63628,10.00014 -35.37749,14.94851 -63.62304,36.01563 -6.93249,5.17064 -15.44002,11.29726 -18.90626,13.61328 -21.83992,14.59266 -40.667105,20.7718 -66.310545,21.76758 l -2.98632,0.11718 4.57031,2.86133 c 5.25072,3.28725 11.27831,5.92728 16.28515,7.13477 4.3242,1.04285 3.3098,1.09386 39.738275,-1.98828 9.83273,-0.83192 14.90547,-2.00803 21.88281,-5.07618 6.24112,-2.74438 11.65387,-5.96367 24.69533,-14.68554 29.77838,-19.91516 59.91188,-30.59602 80.58593,-28.56446 6.09499,0.59894 10.78286,1.67485 23.01172,5.2793 14.67855,4.32647 22.72347,3.55865 35.34766,-3.37109 8.38715,-4.6039 22.00693,-15.18451 24.24023,-18.83203 0.6808,-1.1119 2.56133,-3.71174 4.17969,-5.77735 1.61835,-2.06559 3.38465,-4.86717 3.92578,-6.22461 1.31446,-3.29745 2.05518,-9.81504 1.66016,-14.61718 -0.17687,-2.14985 -0.15279,-3.90821 0.0527,-3.90821 0.84596,0 2.77875,4.07827 3.44532,7.26758 1.87418,8.96737 -1.92374,20.72687 -9.84766,30.49023 -3.15552,3.88802 -10.66759,10.02869 -14.99219,12.25391 -1.87098,0.96271 -3.40615,1.92258 -3.41015,2.13477 -0.004,0.21221 1.45888,1.62616 3.25,3.14257 14.47527,12.25527 14.77046,26.55011 0.90625,43.79883 -12.93645,16.09446 -30.79591,30.07178 -84.89454,66.44727 -40.50005,27.23192 -60.73345,41.81248 -78.05078,56.24219 -36.01185,30.00695 -54.268695,54.14201 -60.374995,79.81054 -1.76206,7.407 -1.95576,18.76251 -0.39063,22.98242 2.17555,5.86578 6.44572,9.43152 12.560545,10.48829 10.03873,1.73493 28.16115,-2.61988 64.43555,-15.48243 44.85537,-15.90529 72.43036,-23.66489 100.23633,-28.20703 60.27825,-9.84648 109.42089,0.57067 151.25391,32.06055 3.6313,2.73343 8.19944,6.41109 10.15039,8.17187 1.95097,1.76084 3.43217,2.9804 3.29297,2.71094 -0.13919,-0.26951 -1.65902,-2.88688 -3.37696,-5.8164 -5.38756,-9.1872 -9.94033,-19.93142 -13.35742,-31.51758 -2.9154,-9.88505 -3.86957,-15.9414 -3.88476,-24.66992 -0.0224,-12.7596 1.1047,-15.42176 14.71093,-34.75782 17.54811,-24.93798 25.95804,-40.83903 31.4336,-59.43359 2.30329,-7.82181 4.91709,-20.02049 5.51171,-25.72656 0.26037,-2.49855 0.64329,-3.83061 1.07032,-3.71485 1.28522,0.34843 6.45493,6.1407 8.2207,9.21094 3.5524,6.17677 5.33044,15.0679 5.36914,26.83203 l 0.0215,6.07227 1.27148,-1.25 c 3.5257,-3.46527 7.37848,-12.71216 9.16797,-22.00391 4.98338,-25.87564 -0.0647,-73.87882 -11.72266,-111.4707 -1.31302,-4.23395 -2.26269,-7.80389 -2.10937,-7.93164 0.37601,-0.31329 6.48221,2.602 10.55469,5.03906 7.03008,4.20697 10.80366,7.9762 16.86132,16.8418 2.85009,4.17122 3.27017,4.57913 3.43946,3.34961 0.59409,-4.31454 -3.30052,-19.08314 -8.26758,-31.35547 -11.4303,-28.24135 -34.39252,-60.96853 -62.63281,-89.26953 l -5.98829,-6.00196 2.60547,-0.1582 c 1.43328,-0.0873 4.37567,0.0973 6.53711,0.41016 6.4538,0.93416 10.55591,2.58415 22.16406,8.91992 l 1.42774,0.77929 -0.92188,-1.4746 C 455.53309,112.82895 445.24847,104.53815 434.55451,98.197505 414.37472,86.232515 384.24907,75.058133 352.16,67.635001 c -3.88661,-0.899084 -6.99255,-1.804451 -6.90235,-2.011719 0.38548,-0.885389 11.02636,-11.702568 16.29102,-16.560547 11.80758,-10.895489 26.80722,-20.536909 44.49609,-28.605469 3.96141,-1.806959 6.74309,-3.286678 6.18164,-3.287109 -5.36427,-0.0041 -29.17867,6.238651 -40.99414,10.746094 -21.69335,8.275705 -36.93754,16.676724 -49.58008,27.324218 l -6.96679,5.867188 -2.33789,-0.466797 c -1.28614,-0.256364 -5.91695,-0.612289 -10.29102,-0.791016 -4.37406,-0.178738 -7.95312,-0.418307 -7.95312,-0.533203 0,-0.603954 3.79553,-5.452932 7.54492,-9.638672 9.96379,-11.123405 27.55451,-23.142094 47.56445,-32.496093 3.07534,-1.437621 5.49458,-2.695282 5.375,-2.794922 z M 204.55062,106.31859 c 1.76198,0.038 3.54203,0.29218 5.32813,0.76367 4.02513,1.06255 11.59961,4.38894 11.59961,5.09376 0,0.24022 -0.88803,1.41118 -1.97266,2.60156 -3.1744,3.48394 -7.04669,4.89455 -16.53516,6.02735 -8.67348,1.03549 -13.51758,2.26747 -16.16406,4.10742 -2.42935,1.689 -4.59338,2.50301 -11.2207,4.22656 -3.28807,0.85512 -6.32095,1.55469 -6.73828,1.55469 -0.41732,0 1.73414,-2.08265 4.77929,-4.62891 3.04514,-2.54626 8.57613,-7.36826 12.29297,-10.71679 5.08926,-4.58491 7.56314,-6.41661 10.01953,-7.41797 2.78608,-1.13577 5.6747,-1.67466 8.61133,-1.61134 z M 74.822105,160.28735 c 2.06817,-0.0919 4.00451,0.76983 6.08203,2.57227 1.66401,1.44368 5.08986,6.37244 4.67188,6.7207 -0.0949,0.0791 -1.60314,-0.11139 -3.35157,-0.42383 -5.10716,-0.9126 -12.82799,-0.36323 -17.40234,1.23828 -2.14577,0.75125 -4.29023,1.50626 -4.76563,1.67774 -1.56664,0.56508 4.33147,-5.89116 7.89063,-8.63672 2.60633,-2.01056 4.80683,-3.05655 6.875,-3.14844 z M 391.89632,264.67993 c 0.83301,-0.0343 1.54278,0.12351 1.99414,0.48047 0.46673,0.36912 0.92052,0.42807 1.4961,0.1914 1.27723,-0.52522 3.51625,-0.40358 4.69531,0.25586 0.58648,0.32803 1.79309,0.65996 2.68164,0.73828 0.89797,0.0792 2.04987,0.49087 2.59375,0.92578 0.62357,0.49862 1.52686,0.78569 2.48828,0.79102 1.63945,0.009 4.03564,1.01636 4.80469,2.02148 0.27701,0.36205 0.99341,0.63086 1.68164,0.63086 1.59939,0 3.41414,0.85864 4.11914,1.94727 0.63929,0.98713 0.75009,3.2029 0.23438,4.66992 -0.20602,0.58607 -0.21178,1.04728 -0.0137,1.17969 0.17885,0.11957 0.48524,0.84188 0.67968,1.60351 0.29213,1.14433 0.22508,1.68597 -0.38476,3.12305 -0.40589,0.95646 -0.70662,2.36469 -0.66797,3.12891 0.068,1.34318 -0.98415,4.19122 -1.73242,4.6914 -0.19617,0.13113 -0.35547,0.93518 -0.35547,1.78711 0,1.59396 -1.02451,3.87038 -1.90625,4.23633 -0.2669,0.11071 -0.59804,0.92716 -0.73633,1.8125 -0.19487,1.2474 -0.65756,2.04412 -2.05664,3.54102 -0.993,1.06242 -2.12298,2.61678 -2.50977,3.45507 -0.52457,1.13689 -1.17761,1.78546 -2.57031,2.54883 -1.0504,0.57575 -2.20345,1.57325 -2.63672,2.28125 -0.44797,0.73204 -1.5484,1.66937 -2.63086,2.24024 l -1.86133,0.98047 2.03711,1.45898 c 7.6743,5.49987 11.0023,11.77645 11.90039,22.43945 0.29824,3.54091 0.61815,4.17721 3.12305,6.22266 3.51306,2.86872 7.01732,8.94911 8.31055,14.41797 0.83615,3.53597 0.90106,9.26035 0.14062,12.46094 -0.70283,2.95803 -2.54547,7.13321 -4.14062,9.38086 -0.73729,1.03886 -1.495,2.71646 -1.80274,3.99414 -0.29176,1.21133 -1.01524,3.7425 -1.60742,5.625 -0.59218,1.88252 -1.40688,4.87832 -1.8125,6.65625 -0.40563,1.77793 -1.1123,4.14702 -1.56836,5.26562 -2.37955,5.83632 -7.24773,11.44353 -12.36914,14.24414 -1.68258,0.92013 -4.32302,2.65637 -5.86719,3.85742 -3.73148,2.90235 -6.95428,4.90995 -10.01562,6.24024 -1.38401,0.60141 -3.02228,1.6065 -3.63867,2.23242 -3.22415,3.27402 -8.8246,6.6756 -12.61524,7.66211 -2.59747,0.67599 -10.6122,0.50092 -13.11914,-0.28711 -4.24847,-1.33543 -7.75158,-3.4852 -11.125,-6.82617 -1.09079,-1.08031 -2.08812,-1.96485 -2.21679,-1.96485 -0.12867,0 -1.93325,-0.92158 -4.00977,-2.04687 -3.93702,-2.13353 -7.08391,-4.17302 -9.22266,-5.97852 -0.69177,-0.58398 -2.70239,-1.85007 -4.46679,-2.8125 -7.00137,-3.81898 -12.23394,-11.05196 -14.10547,-19.5 -0.358,-1.616 -1.29579,-5.07875 -2.08399,-7.69336 -0.7882,-2.61462 -1.51501,-5.1802 -1.61523,-5.70312 -0.10017,-0.52293 -0.83708,-1.89306 -1.63867,-3.04297 -7.79954,-11.18897 -6.04379,-27.10978 4.04687,-36.69141 1.25448,-1.19122 2.35768,-2.45104 2.45313,-2.79882 0.0955,-0.34781 0.35087,-2.41535 0.5664,-4.59375 0.92559,-9.35459 4.36468,-15.67937 11.33594,-20.84766 l 2.37695,-1.76172 -1.84961,-0.97656 c -1.0726,-0.56577 -2.17263,-1.50474 -2.61914,-2.23438 -0.42863,-0.70042 -1.59302,-1.71166 -2.625,-2.28125 -1.36457,-0.75319 -2.04321,-1.42636 -2.57031,-2.54687 -0.39392,-0.83739 -1.52848,-2.39176 -2.52148,-3.45508 -1.38942,-1.4878 -1.86181,-2.29925 -2.05274,-3.52148 -0.15204,-0.97334 -0.50666,-1.73765 -0.91601,-1.97461 -0.91031,-0.52692 -1.73047,-2.34885 -1.73047,-3.84375 0,-0.72572 -0.39734,-1.85175 -0.96289,-2.73438 -0.6778,-1.05784 -0.97881,-2.03037 -1.01758,-3.28906 -0.0303,-0.98255 -0.3082,-2.31847 -0.61914,-2.96875 -0.69153,-1.44636 -0.71566,-3.82533 -0.0488,-4.77734 0.355,-0.50684 0.40068,-0.96749 0.16406,-1.64063 -0.50746,-1.44356 -0.3908,-3.66411 0.24414,-4.64453 0.70215,-1.08423 2.51881,-1.94727 4.10157,-1.94727 0.80495,0 1.44247,-0.30257 2.00586,-0.95117 0.95094,-1.09481 2.68496,-1.70594 4.84961,-1.70898 1.01093,-0.001 1.75428,-0.24659 2.25,-0.7461 0.40702,-0.41012 1.46711,-0.84739 2.35742,-0.9707 0.89034,-0.12323 2.46197,-0.49252 3.49219,-0.82031 1.46345,-0.46565 2.26159,-0.51297 3.64648,-0.2168 1.367,0.29233 1.98354,0.26018 2.69726,-0.14258 1.21815,-0.68745 2.34255,-0.63523 4.25,0.20118 1.22339,0.53645 1.83609,0.60665 2.79493,0.32031 0.97797,-0.29205 1.59126,-0.21044 3.00586,0.40039 0.97695,0.42187 2.6091,0.84363 3.62695,0.93554 1.54087,0.13914 2.13874,0.42952 3.57812,1.74219 1.16437,1.06189 2.06418,1.57813 2.75586,1.57813 2.77127,0 7.50434,6.04993 9.44532,12.07422 0.35382,1.09814 0.74005,1.99609 0.85742,1.99609 0.1174,0 0.39604,-0.65943 0.61914,-1.46484 1.56162,-5.63729 6.92982,-12.60547 9.71094,-12.60547 0.78802,0 1.41614,-0.34495 2.14648,-1.17578 1.43118,-1.62812 2.66964,-2.24805 4.48828,-2.24805 0.85528,0 2.3031,-0.35881 3.21875,-0.79688 1.35026,-0.64601 1.91197,-0.72868 2.97266,-0.4375 1.02097,0.2803 1.64905,0.21033 2.86328,-0.32226 0.94491,-0.41446 1.90137,-0.64148 2.73437,-0.67578 z m -0.57421,4.13476 c -0.41071,0 -3.61672,2.20759 -4.54297,3.12891 -1.06821,1.0625 -1.98978,0.63664 -1.79102,-0.82813 0.13752,-1.01337 0.0876,-1.07682 -0.55469,-0.70507 -0.38789,0.22453 -1.4415,1.15368 -2.34179,2.06445 -1.74845,1.76887 -2.09961,1.7832 -2.09961,0.0801 0,-0.59266 -0.14215,-1.07813 -0.31641,-1.07813 -0.17426,0 -1.34655,1.23886 -2.60547,2.75391 l -2.28906,2.75586 -0.43945,-1.04492 c -0.24173,-0.5738 -0.56009,-1.04297 -0.70703,-1.04297 -0.14695,0 -1.06019,1.14532 -2.0293,2.54492 -5.65244,8.1633 -6.10552,15.6602 -1.19336,19.7168 0.8773,0.72449 1.77575,1.31836 1.99609,1.31836 0.22034,0 1.81859,-1.13133 3.55274,-2.51368 5.73578,-4.57212 13.26207,-8.95804 21.55468,-12.5625 2.57815,-1.12061 4.79248,-2.03473 4.92188,-2.03125 0.1294,0.002 -1.08341,0.77106 -2.69531,1.70703 -8.36362,4.85657 -16.16309,10.38116 -20.77344,14.7129 -1.62684,1.52852 -3.1203,3.06162 -3.31836,3.4082 -0.94633,1.65587 1.95728,6.40845 5.15234,8.43359 3.04173,1.92797 7.65806,3.14399 12.33985,3.25 l 2.07226,0.0469 -0.96875,-0.97266 c -0.53326,-0.5345 -0.88058,-1.06755 -0.77148,-1.18555 0.10912,-0.11805 1.52831,-0.36081 3.1543,-0.53906 1.626,-0.17825 3.41382,-0.51282 3.97265,-0.74414 l 1.01563,-0.41992 -1.14258,-0.52344 c -0.62853,-0.28742 -1.14258,-0.59815 -1.14258,-0.68945 0,-0.0913 1.23742,-0.63167 2.75,-1.20117 1.5126,-0.56948 3.13575,-1.35364 3.60547,-1.74414 l 0.85352,-0.71094 -1.05469,-0.0137 c -1.83824,-0.0249 -2.19651,-0.59857 -0.8418,-1.34571 1.75005,-0.96518 5.58789,-3.72205 5.58789,-4.01367 0,-0.13808 -0.67221,-0.3691 -1.49414,-0.51367 -1.41199,-0.24834 -1.45549,-0.2928 -0.79101,-0.8125 1.51417,-1.18432 4.70785,-4.16971 4.72656,-4.41797 0.0112,-0.14426 -0.57361,-0.31594 -1.29883,-0.38086 l -1.31836,-0.11719 2.37305,-2.58007 c 1.30542,-1.41912 2.375,-2.70812 2.375,-2.86329 0,-0.15516 -0.61429,-0.21807 -1.36524,-0.14062 -0.75095,0.0774 -1.45965,-0.0242 -1.57422,-0.22461 -0.11456,-0.2005 0.73698,-1.38687 1.89258,-2.63672 1.15561,-1.24986 2.10156,-2.4684 2.10157,-2.70703 0,-0.29705 -0.51192,-0.35808 -1.62305,-0.19336 -1.5871,0.23528 -1.61729,0.22133 -1.3711,-0.67187 0.13847,-0.50239 0.78567,-1.98373 1.43946,-3.29102 l 1.18945,-2.37695 h -3.45117 c -1.89806,0 -3.55875,-0.11449 -3.68945,-0.25586 -0.13071,-0.14136 0.10395,-0.65017 0.52148,-1.13086 0.71634,-0.82472 0.72424,-0.8895 0.11914,-1.14063 -0.3527,-0.1464 -1.76042,-0.0414 -3.12891,0.23243 -3.26085,0.65274 -4.14763,0.67968 -4.32226,0.13281 -0.0793,-0.24837 0.1812,-0.80494 0.58008,-1.23633 l 0.72656,-0.78516 h -0.79883 c -0.43932,0 -1.86667,0.32145 -3.17187,0.71289 -2.74622,0.8236 -3.24382,0.50244 -1.78321,-1.15234 l 1.00586,-1.13867 -1.05468,0.25586 c -0.58018,0.14047 -2.19449,0.82605 -3.5879,1.52344 -2.42862,1.2155 -2.54226,1.23684 -2.7539,0.51562 -0.12561,-0.42805 0.0225,-1.15522 0.34375,-1.68555 0.3106,-0.51269 0.43343,-0.93164 0.27344,-0.93164 z m -56.44336,0.15821 c -0.16456,-0.004 -0.0378,0.21265 0.30664,0.78125 0.33109,0.54652 0.4664,1.24442 0.33007,1.70898 l -0.23046,0.78711 -1.01563,-0.7832 c -1.05764,-0.81453 -4.62381,-2.27149 -5.55859,-2.27149 -0.38149,0 -0.25168,0.32253 0.44531,1.10938 1.43978,1.62536 0.92904,1.94292 -1.80469,1.12304 -1.30519,-0.39143 -2.73651,-0.71289 -3.18164,-0.71289 h -0.81054 l 0.77734,1.13672 c 0.42718,0.62493 0.6729,1.24845 0.54687,1.38477 -0.12603,0.13632 -1.15322,-0.034 -2.2832,-0.37695 -2.21027,-0.67076 -5.18973,-0.82908 -5.49609,-0.29297 -0.10353,0.18123 0.12558,0.63564 0.50781,1.00976 0.38224,0.37413 0.69531,0.82522 0.69531,1.00195 0,0.17676 -1.5787,0.32032 -3.50781,0.32032 h -3.50781 l 1.40234,2.88086 c 0.77138,1.58411 1.30135,3.05709 1.17774,3.27343 -0.13199,0.23097 -0.78796,0.29656 -1.5879,0.15821 -0.84425,-0.14602 -1.36132,-0.0875 -1.36132,0.15625 0,0.68524 2.78651,3.69575 3.87109,4.18164 1.40439,0.62916 0.93409,1.2739 -0.75195,1.02929 -0.78775,-0.11426 -1.36133,-0.0386 -1.36133,0.17969 0,0.20738 0.9742,1.476 2.16601,2.81836 1.19179,1.34237 2.06486,2.54991 1.93946,2.68555 -0.12541,0.13562 -0.72759,0.23166 -1.33789,0.21289 l -1.10938,-0.0332 1.35742,1.50195 c 0.74622,0.82653 1.95589,1.95163 2.6875,2.5 1.51542,1.13582 1.68291,1.65174 0.53907,1.66016 -0.43515,0.002 -1.00061,0.14915 -1.25586,0.32421 -0.62352,0.42759 1.11812,2.00672 3.87109,3.50977 2.25707,1.23229 2.37441,1.86111 0.35156,1.87109 l -1.29687,0.008 1.14062,0.78906 c 0.62744,0.43462 2.13004,1.16387 3.33985,1.62109 2.48559,0.93937 2.83596,1.36865 1.64843,2.02344 l -0.82617,0.45508 1,0.41211 c 0.54941,0.22592 2.15946,0.59602 3.57813,0.82422 1.41867,0.22823 2.8463,0.62534 3.17187,0.88281 0.54688,0.4325 0.53317,0.53091 -0.16601,1.28711 -0.41622,0.45019 -0.75586,0.8653 -0.75586,0.92187 0,0.0566 1.6212,-0.017 3.60351,-0.16406 2.23466,-0.16564 4.63983,-0.6231 6.32813,-1.20312 4.62958,-1.59051 7.99879,-4.59136 9.05859,-8.06446 0.54243,-1.77766 0.23321,-2.25782 -3.7832,-5.89648 -4.39879,-3.98508 -10.7887,-8.5832 -17.65235,-12.70117 -2.98826,-1.79285 -5.32331,-3.25977 -5.18945,-3.25977 0.13386,0 1.94653,0.69973 4.02735,1.55469 8.1352,3.3425 16.23885,8.06096 22.30078,12.98437 3.02921,2.46028 3.28072,2.59056 4.21093,2.17383 2.36822,-1.06095 4.51441,-4.76257 4.51954,-7.79101 0.007,-3.39175 -2.27708,-9.06395 -5.32618,-13.23047 l -1.8789,-2.56836 -0.46289,1.21679 -0.46485,1.2168 -2.5957,-3.00781 -2.5957,-3.00781 -0.0176,1.36328 c -0.009,0.74952 -0.11713,1.47233 -0.24024,1.60547 -0.1231,0.13316 -1.02059,-0.53183 -1.99414,-1.47852 -2.38676,-2.32091 -2.99443,-2.65907 -2.82226,-1.56836 0.0729,0.46153 -0.0183,1.09018 -0.20508,1.39649 -0.28406,0.46613 -0.55876,0.37091 -1.67969,-0.58204 -1.73792,-1.47752 -3.06475,-2.38041 -4.1582,-2.83007 -0.32494,-0.13362 -0.52822,-0.21606 -0.62695,-0.21875 z m 28.55468,43.9414 c -2.23176,-0.0367 -4.47985,0.33508 -6.625,1.14258 -4.89091,1.8411 -9.41734,5.72924 -10.10156,8.67774 -0.77919,3.35773 3.5796,7.98844 9.0332,9.5996 4.15628,1.2279 10.7126,1.30825 15.04883,0.1836 4.78295,-1.24051 8.19267,-3.9298 8.70117,-6.86133 0.40976,-2.36233 -0.37741,-4.29672 -2.79882,-6.87109 -3.5127,-3.73459 -8.34794,-5.79036 -13.25782,-5.8711 z m -25.28515,3.46094 c -11.42967,-0.0498 -20.04297,8.93606 -20.04297,20.91016 0,4.02541 0.0872,4.07376 3.73437,2.08984 4.57515,-2.48879 14.38215,-11.22706 18.79297,-16.74414 2.00346,-2.50596 3.38935,-4.99572 3.00977,-5.40625 -0.36747,-0.39745 -3.22373,-0.83972 -5.49414,-0.84961 z m 47.24218,0.45312 c -0.46408,0.0104 -0.92229,0.0395 -1.38085,0.0859 -4.22801,0.42852 -4.04915,1.21184 1.75195,7.70899 7.56533,8.47308 17.26578,16.26059 19.90039,15.97461 0.86468,-0.094 0.87725,-0.14681 0.80469,-3.16602 -0.25026,-10.41322 -6.81538,-18.42009 -16.56055,-20.19726 -1.67686,-0.30581 -3.12338,-0.43757 -4.51563,-0.40626 z m -4.56445,17.74219 c -6.21252,-0.002 -11.02399,3.50754 -13.22461,9.65039 -0.9965,2.78168 -1.21973,8.38838 -0.47265,11.82618 1.67107,7.68979 7.07163,14.17734 13.97656,16.7871 3.47788,1.31449 7.93791,1.18729 10.96289,-0.31054 7.42224,-3.67515 10.44735,-13.09099 7.33984,-22.8418 -2.89266,-9.0766 -10.31003,-15.10854 -18.58203,-15.11133 z m -36.35547,0.77149 c -4.29927,0.17728 -8.72179,2.23283 -12.29882,6.12695 -7.83803,8.53285 -9.13712,20.97805 -2.9375,28.14648 3.01672,3.48814 5.96106,4.85975 10.49804,4.89258 2.21781,0.0161 3.42087,-0.20717 5.6875,-1.06054 13.14622,-4.94943 18.99687,-23.1237 10.61133,-32.96289 -3.0847,-3.61943 -7.26128,-5.31986 -11.56055,-5.14258 z m 63.8711,10.4082 c -0.13713,-0.005 -0.26519,0.007 -0.38282,0.0391 -2.95021,0.80084 -3.79554,9.35425 -1.94726,19.71289 1.3366,7.49102 3.43293,12.4595 5.62695,13.33203 0.95646,0.38037 1.15275,0.28185 2.48633,-1.23437 4.8517,-5.51615 5.96877,-16.38092 2.42383,-23.5625 -2.03891,-4.13057 -6.15015,-8.2136 -8.20703,-8.28711 z m -91.88868,0.70312 c -0.52148,-0.0386 -1.11917,0.14972 -1.82421,0.55274 -1.95199,1.11582 -5.3672,5.03738 -6.62305,7.60352 -3.56312,7.28077 -2.67512,17.31325 2.04687,23.11523 1.71852,2.11158 2.87818,2.30517 4.25782,0.71289 1.69678,-1.95832 3.22828,-6.23982 4.38867,-12.26562 0.44685,-2.32052 0.62521,-5.00329 0.63086,-9.50782 0.007,-5.65357 -0.0681,-6.45164 -0.75781,-8.0664 -0.59146,-1.38462 -1.25001,-2.08026 -2.11915,-2.14454 z m 46.48633,24.53321 c -8.84346,0.069 -16.12416,6.62178 -17.42383,15.68164 -1.83787,12.81139 9.83493,23.21954 22.4375,20.00586 6.03236,-1.53827 10.78213,-6.07805 12.76563,-12.19922 0.59831,-1.8464 0.70676,-2.93541 0.60156,-6.05469 -0.11216,-3.32586 -0.2676,-4.11422 -1.23633,-6.28515 -3.04979,-6.83457 -9.77168,-11.20592 -17.14453,-11.14844 z m 40.94336,7.04297 c -1.92778,-3.6e-4 -4.22456,0.8962 -6.67773,2.66797 -2.97353,2.14758 -7.81683,7.47175 -9.82617,10.80078 -5.0091,8.29896 -6.0093,19.08154 -1.97852,21.33593 0.60121,0.33625 1.48987,0.74287 1.97461,0.90235 1.29246,0.4252 4.86446,0.39441 6.68359,-0.0566 6.05526,-1.50166 12.82306,-8.05719 15.09375,-14.6211 2.09944,-6.06891 1.30017,-16.13661 -1.53906,-19.39257 -0.95463,-1.09476 -2.23108,-1.63645 -3.73047,-1.63672 z m -82.19726,2.71484 c -1.18317,0.0206 -2.28043,0.30164 -3.26367,0.85156 -1.81165,1.01322 -2.80994,3.94336 -2.80274,8.22852 0.007,3.92967 0.53942,6.56155 2.20898,10.90039 0.94115,2.44583 1.59709,3.42897 4.12696,6.18945 3.09487,3.37696 5.83733,5.2487 9.16211,6.25196 2.02826,0.61203 5.53338,0.66808 7.06836,0.11328 2.74299,-0.99153 3.97829,-3.36879 3.92773,-7.55469 -0.0786,-6.50697 -3.12028,-13.31229 -8.24414,-18.44531 -4.31457,-4.32231 -8.63408,-6.5968 -12.18359,-6.53516 z m 40.96875,32.25977 c -5.10816,-0.028 -7.89921,0.50686 -11.92578,2.12109 -2.56229,1.02723 -5.54688,3.57298 -5.54688,4.73047 0,1.13985 2.21327,4.14265 4.33398,5.88086 5.93784,4.86692 12.98159,6.45836 19.25196,4.34765 4.5607,-1.53522 9.909,-5.90905 11.37109,-9.29882 0.9573,-2.21943 0.23918,-3.59575 -2.67383,-5.12891 -3.71196,-1.95362 -5.87108,-2.40614 -12.46875,-2.60742 -0.83466,-0.0255 -1.61206,-0.0409 -2.34179,-0.0449 z" />
</svg>
