<?xml version="1.0" encoding="UTF-8" standalone="no"?>
<!-- Created with Inkscape (http://www.inkscape.org/) -->

<svg
   xmlns:dc="http://purl.org/dc/elements/1.1/"
   xmlns:cc="http://creativecommons.org/ns#"
   xmlns:rdf="http://www.w3.org/1999/02/22-rdf-syntax-ns#"
   xmlns:svg="http://www.w3.org/2000/svg"
   xmlns="http://www.w3.org/2000/svg"
   xmlns:sodipodi="http://sodipodi.sourceforge.net/DTD/sodipodi-0.dtd"
   xmlns:inkscape="http://www.inkscape.org/namespaces/inkscape"
   version="1.1"
   id="svg834"
   width="512"
   height="512"
   viewBox="0 0 512 512"
   sodipodi:docname="andrax-dragon.svg"
   inkscape:version="0.92.4 (5da689c313, 2019-01-14)">
  <metadata
     id="metadata840">
    <rdf:RDF>
      <cc:Work
         rdf:about="">
        <dc:format>image/svg+xml</dc:format>
        <dc:type
           rdf:resource="http://purl.org/dc/dcmitype/StillImage" />
        <dc:title></dc:title>
      </cc:Work>
    </rdf:RDF>
  </metadata>
  <defs
     id="defs838" />
  <sodipodi:namedview
     pagecolor="#ffffff"
     bordercolor="#666666"
     borderopacity="1"
     objecttolerance="10"
     gridtolerance="10"
     guidetolerance="10"
     inkscape:pageopacity="0"
     inkscape:pageshadow="2"
     inkscape:window-width="1366"
     inkscape:window-height="686"
     id="namedview836"
     showgrid="false"
     inkscape:zoom="0.73264728"
     inkscape:cx="235.10559"
     inkscape:cy="208.68921"
     inkscape:window-x="0"
     inkscape:window-y="26"
     inkscape:window-maximized="1"
     inkscape:current-layer="svg834" />
  <path
     style="fill:#000000;stroke-width:0.54788011"
     d="m 100.92265,497.25975 c -6.114827,-1.05677 -10.385088,-4.62249 -12.560637,-10.48827 -1.56513,-4.21991 -1.372791,-15.57583 0.389267,-22.98283 6.106304,-25.66853 24.36416,-49.8034 60.376,-79.81035 17.31733,-14.42971 37.55073,-29.00935 78.05078,-56.24127 54.09863,-36.37549 71.95796,-50.35443 84.89441,-66.44889 13.86421,-17.24872 13.56817,-31.54177 -0.9071,-43.79704 -1.79112,-1.51641 -3.25313,-2.93072 -3.24894,-3.14293 0.004,-0.21219 1.53843,-1.17347 3.40941,-2.13618 4.3246,-2.22522 11.83673,-8.36463 14.99225,-12.25265 7.92392,-9.76336 11.72231,-21.52366 9.84813,-30.49103 -0.66657,-3.18931 -2.6005,-7.26716 -3.44646,-7.26716 -0.20552,0 -0.22897,1.75898 -0.0521,3.90883 0.39502,4.80214 -0.34482,11.31963 -1.65928,14.61708 -0.54113,1.35744 -2.30796,4.1581 -3.92631,6.22369 -1.61836,2.06561 -3.49949,4.66539 -4.18029,5.77729 -2.2333,3.64752 -15.85319,14.22933 -24.24034,18.83323 -12.62419,6.92974 -20.66774,7.69668 -35.34629,3.37021 -12.22886,-3.60445 -16.91746,-4.67997 -23.01245,-5.27891 -20.67405,-2.03156 -50.80806,8.64989 -80.58644,28.56505 -13.04146,8.72187 -18.45306,11.93984 -24.69417,14.68422 -6.97734,3.06815 -12.05038,4.24512 -21.88311,5.07704 -36.428483,3.08214 -35.414315,3.03139 -39.738512,1.98854 -5.006846,-1.20749 -11.035305,-3.84909 -16.286023,-7.13634 l -4.569679,-2.8609 2.987331,-0.11601 c 25.64344,-0.99578 44.470123,-7.17644 66.310043,-21.7691 3.46624,-2.31602 11.97429,-8.44147 18.90677,-13.61211 28.24555,-21.06712 36.98653,-26.01516 63.62281,-36.0153 5.2819,-1.983 12.26925,-4.72346 15.52745,-6.08991 l 5.924,-2.48447 -2.62282,-1.87722 c -4.14783,-2.9687 -9.24987,-5.64681 -12.9852,-6.81605 -9.87508,-3.0911 -24.36909,-1.06951 -48.05508,6.7026 -18.14378,5.95355 -28.39572,11.32018 -42.07592,22.02571 -11.85753,9.27919 -16.7121,11.87799 -29.563014,15.826 -8.315115,2.55454 -10.545684,3.81132 -12.553123,7.07288 -1.287316,2.09155 -1.504577,6.9175 -0.557287,12.3789 0.308321,1.77758 0.490566,3.29033 0.404974,3.36164 -0.3618,0.30146 -6.920183,-3.6516 -9.592252,-5.78173 -2.978777,-2.37463 -5.3521,-5.64577 -6.050222,-8.33899 l -0.395506,-1.5258 -10.632374,1.1609 c -17.269494,1.88558 -17.965047,2.32813 -17.268882,10.98749 0.486722,6.05413 -0.0086,6.47434 -3.57278,3.03083 -2.931734,-2.83251 -4.438226,-5.37027 -4.897564,-8.2502 -0.254023,-1.59267 -0.954847,-2.92993 -2.123717,-4.05231 -1.543946,-1.48253 -1.726291,-2.00017 -1.585547,-4.50097 0.144897,-2.57461 -0.03308,-3.03411 -2.002354,-5.16951 -3.390346,-3.67636 -4.393917,-6.41182 -4.369254,-11.90937 0.01764,-3.93047 0.354541,-5.62827 1.950699,-9.83028 2.075484,-5.46385 2.273146,-6.70397 1.308055,-8.20649 -1.24993,-1.94598 -6.041545,-0.47906 -8.150113,2.49511 -1.6381729,2.31068 -2.243478,1.88664 -1.8493106,-1.29554 0.5136941,-4.14708 3.4391546,-8.68877 8.1491156,-12.65124 7.605417,-6.39841 11.923329,-7.06686 20.844742,-3.22693 5.20584,2.24068 5.664687,2.34548 9.124604,2.08407 4.617197,-0.34884 9.035465,-2.06931 13.617034,-5.30247 11.640597,-8.21462 13.886208,-9.0891 19.959242,-7.77245 1.897034,0.41128 4.070885,1.08674 4.830786,1.50103 1.288526,0.70251 1.652518,0.62766 5.401934,-1.11085 6.470404,-3.00017 12.667004,-6.55393 18.002934,-10.32474 6.34723,-4.48548 19.46579,-16.57 21.09737,-19.4344 1.48354,-2.60453 10.35909,-12.9758 19.53103,-22.822451 l 6.5938,-7.078856 -0.18954,-3.418492 c -0.37106,-6.69251 4.68263,-15.375666 14.29165,-24.55567 3.27793,-3.131569 8.82333,-6.950294 12.21531,-8.411793 2.00833,-0.86534 1.88126,-0.566533 -1.09839,2.582808 -5.09129,5.381243 -6.23871,8.789314 -5.10216,15.154521 l 0.74761,4.186998 2.10645,-3.169351 c 5.82039,-8.757313 20.94605,-20.261134 33.74607,-25.665586 l 3.16204,-1.33509 -2.66795,2.913711 c -8.25204,9.012167 -12.2452,15.510733 -11.48273,18.68727 l 0.34287,1.428419 3.98264,-1.286874 c 14.58506,-4.712757 26.09353,-7.110601 39.09522,-8.145675 11.67116,-0.929146 11.08555,-0.762708 15.97536,-4.540405 20.74509,-16.026988 45.65559,-28.467198 72.25627,-36.084506 6.66902,-1.909728 21.19097,-5.416671 21.46938,-5.184698 0.11958,0.09964 -2.29876,1.357386 -5.3741,2.795007 -20.00994,9.353999 -37.60004,21.371173 -47.56383,32.494578 -3.74939,4.18574 -7.54543,9.035057 -7.54543,9.639011 0,0.114896 3.57879,0.355132 7.95285,0.53387 4.37407,0.178727 9.00514,0.534721 10.29128,0.791085 l 2.33842,0.466118 6.96491,-5.865812 c 12.64254,-10.647494 27.88685,-19.048941 49.5802,-27.324646 11.81547,-4.507443 35.62996,-10.749984 40.99423,-10.745896 0.56145,4.31e-4 -2.22034,1.479195 -6.18175,3.286154 -17.68887,8.06856 -32.68683,17.711147 -44.49441,28.606636 -5.26466,4.857979 -15.90591,15.674838 -16.29139,16.560227 -0.0902,0.207268 3.01586,1.112465 6.90247,2.011549 32.08907,7.423132 62.21373,18.597282 82.39354,30.562268 10.69396,6.340651 20.97957,14.631511 23.84278,19.218821 l 0.92066,1.47501 -1.42779,-0.77929 c -11.60816,-6.33577 -15.70993,-7.98673 -22.16373,-8.92089 -2.16144,-0.31286 -5.10261,-0.4974 -6.53589,-0.4101 l -2.60598,0.15873 5.98843,6.00129 c 28.24029,28.301 51.20182,61.02801 62.63212,89.26936 4.96706,12.27233 8.86097,27.04214 8.26688,31.35668 -0.16929,1.22952 -0.589,0.82061 -3.43909,-3.35061 -6.05766,-8.8656 -9.83086,-12.63442 -16.86095,-16.84139 -4.07247,-2.43706 -10.17765,-5.35176 -10.55366,-5.03847 -0.15332,0.12775 0.79553,3.69644 2.10855,7.93039 11.65793,37.59188 16.70616,85.59496 11.72278,111.4706 -1.78949,9.29175 -5.64255,18.5395 -9.16825,22.00477 l -1.27207,1.25027 -0.02,-6.07334 c -0.0387,-11.76413 -1.81828,-20.65497 -5.37068,-26.83174 -1.76577,-3.07024 -6.93419,-8.8615 -8.21941,-9.20993 -0.42703,-0.11576 -0.81094,1.21501 -1.07131,3.71356 -0.59463,5.70607 -3.20806,17.90589 -5.51135,25.7277 -5.47556,18.59456 -13.88553,34.49591 -31.43364,59.43389 -13.60623,19.33606 -14.73281,21.99793 -14.71043,34.75753 0.0152,8.72852 0.96871,14.78398 3.88411,24.66903 3.41709,11.58616 7.97109,22.33069 13.35865,31.51789 1.71794,2.92952 3.23742,5.54689 3.37661,5.8164 0.1392,0.26946 -1.34316,-0.9507 -3.29413,-2.71154 -1.95095,-1.76078 -6.51826,-5.43793 -10.14956,-8.17136 -41.83302,-31.48988 -90.97598,-41.90619 -151.25423,-32.05971 -27.80597,4.54214 -55.38057,12.30182 -100.23594,28.20711 -36.27439,12.86255 -54.3963,17.21669 -64.43504,15.48176 z M 64.821641,170.39384 c 4.574353,-1.60151 12.296381,-2.15098 17.403539,-1.23838 1.748424,0.31244 3.256616,0.50336 3.351528,0.42427 0.417983,-0.34826 -3.008673,-5.27628 -4.672684,-6.71997 -4.155034,-3.60487 -7.743876,-3.44543 -12.956532,0.57568 -3.559158,2.74556 -9.458248,9.20116 -7.891608,8.63608 0.475394,-0.17148 2.619987,-0.92643 4.765757,-1.67768 z M 175.58521,129.13956 c 6.62732,-1.72355 8.79146,-2.539 11.22081,-4.228 2.64648,-1.83995 7.49148,-3.07066 16.16496,-4.10615 9.48847,-1.1328 13.36039,-2.54447 16.53479,-6.02841 1.08463,-1.19038 1.97204,-2.36087 1.97204,-2.60109 0,-0.70482 -7.57451,-4.03066 -11.59964,-5.0932 -4.76292,-1.2573 -9.4802,-0.97085 -13.93793,0.84636 -2.45639,1.00136 -4.93044,2.83298 -10.0197,7.41789 -3.71684,3.34853 -9.24938,8.17153 -12.29452,10.71779 -3.04515,2.54626 -5.19519,4.62957 -4.77787,4.62957 0.41733,0 3.44899,-0.69964 6.73706,-1.55476 z"
     id="path844"
     inkscape:connector-curvature="0" />
</svg>
