<?xml version="1.0" encoding="UTF-8" standalone="no"?>
<!-- Created with Inkscape (http://www.inkscape.org/) -->

<svg
   xmlns:dc="http://purl.org/dc/elements/1.1/"
   xmlns:cc="http://creativecommons.org/ns#"
   xmlns:rdf="http://www.w3.org/1999/02/22-rdf-syntax-ns#"
   xmlns:svg="http://www.w3.org/2000/svg"
   xmlns="http://www.w3.org/2000/svg"
   xmlns:sodipodi="http://sodipodi.sourceforge.net/DTD/sodipodi-0.dtd"
   xmlns:inkscape="http://www.inkscape.org/namespaces/inkscape"
   version="1.1"
   id="svg64"
   width="100"
   height="100"
   viewBox="0 0 512 512"
   sodipodi:docname="4glte.svg"
   inkscape:version="0.92.5 (2060ec1f9f, 2020-04-08)">
  <metadata
     id="metadata70">
    <rdf:RDF>
      <cc:Work
         rdf:about="">
        <dc:format>image/svg+xml</dc:format>
        <dc:type
           rdf:resource="http://purl.org/dc/dcmitype/StillImage" />
        <dc:title></dc:title>
      </cc:Work>
    </rdf:RDF>
  </metadata>
  <defs
     id="defs68" />
  <sodipodi:namedview
     pagecolor="#ffffff"
     bordercolor="#666666"
     borderopacity="1"
     objecttolerance="10"
     gridtolerance="10"
     guidetolerance="10"
     inkscape:pageopacity="0"
     inkscape:pageshadow="2"
     inkscape:window-width="1366"
     inkscape:window-height="692"
     id="namedview66"
     showgrid="false"
     inkscape:zoom="0.8396893"
     inkscape:cx="208"
     inkscape:cy="256"
     inkscape:window-x="0"
     inkscape:window-y="24"
     inkscape:window-maximized="1"
     inkscape:current-layer="svg64" />
  <path
     style="fill:#000000;stroke-width:0.54305732"
     d="m 80.518937,502.96343 c -9.189765,-1.32705 -17.20061,-4.19081 -23.584902,-8.4313 -1.357503,-0.90164 -4.415724,-3.47052 -6.796027,-5.70857 -8.035087,-7.55498 -13.121158,-16.87839 -15.106217,-27.6916 -0.408447,-2.22493 -0.58569,-64.32319 -0.58569,-205.20083 0,-223.377593 -0.285515,-205.91283 3.517046,-215.137443 C 44.623068,24.63739 57.272622,14.147863 75.308319,9.8255524 78.89139,8.9668569 90.957004,8.9054267 256.03449,8.9054267 c 168.30453,0 177.08634,0.046879 181.00041,0.9657947 7.6028,1.7849536 12.90637,4.0937286 18.92277,8.2375456 3.99418,2.751035 10.40852,9.127494 13.06449,12.987499 3.8568,5.60507 6.9727,13.405111 8.03429,20.112244 0.45929,2.902107 0.57968,57.3863 0.45772,207.18154 -0.15718,192.87366 -0.21523,203.40573 -1.13955,206.41514 -5.93572,19.32553 -18.92243,31.9202 -38.24275,37.08825 -4.10184,1.09719 -4.61906,1.10059 -180.17768,1.18413 -96.83522,0.0462 -176.681085,-0.005 -177.435253,-0.11409 z M 430.17882,486.45766 c 11.31817,-0.77062 22.16223,-8.29495 27.43298,-19.03482 3.85015,-7.84517 3.55649,9.59199 3.55649,-211.17137 0,-218.389547 0.22093,-203.82405 -3.20097,-211.052484 -5.30491,-11.206175 -15.45253,-18.41631 -27.94245,-19.853787 -2.465,-0.283695 -76.30403,-0.441236 -176.73281,-0.377067 -162.118558,0.103504 -172.711487,0.166682 -176.031816,1.047674 -10.433217,2.768493 -18.995256,9.91987 -23.357195,19.508931 -3.193663,7.020821 -3.002361,-6.406468 -3.002361,210.735423 0,138.94715 0.177435,200.54178 0.583435,202.52455 0.939162,4.58653 4.004651,11.65001 5.939624,13.68605 0.55404,0.58301 1.276345,1.55272 1.605128,2.15493 0.931569,1.70633 7.698962,6.88663 11.343069,8.68281 4.143864,2.04256 7.138272,2.83342 12.340937,3.2596 4.755374,0.38955 341.695949,0.28243 347.465939,-0.11039 z M 157.12416,456.16754 c -0.20111,-0.19713 -0.36565,-19.31175 -0.36565,-42.47689 v -42.11846 h 11.23971 11.23971 l 0.14141,32.6642 0.14141,32.66421 17.00307,0.1114 17.00307,0.1114 0.14946,9.70135 0.14946,9.70136 h -28.168 c -15.4924,0 -28.33253,-0.16131 -28.53365,-0.35847 z m 76.41614,-0.0183 c -0.003,-0.23631 -0.0651,-14.9471 -0.13712,-32.69061 l -0.13095,-32.26101 -12.20381,-0.14467 -12.20382,-0.14467 v -9.66807 -9.668 h 35.37735 35.37736 v 9.67828 9.67829 h -12.0667 -12.06669 v 32.73112 32.73112 l -10.96972,0.0939 c -6.03335,0.0516 -10.97254,-0.0995 -10.97598,-0.33573 z m 58.69427,-42.10014 v -42.47691 h 31.53795 31.53795 v 9.67828 9.67829 h -20.56823 -20.56823 v 6.45218 6.45219 l 20.15687,-5.4e-4 20.15686,-5.3e-4 -0.16112,9.67892 -0.16111,9.67872 h -19.99568 -19.99582 v 6.6635 c 0,5.62877 0.13713,6.71508 0.88284,6.99561 0.48557,0.18266 9.67957,0.30092 20.43111,0.26281 l 19.54827,-0.0692 0.14946,9.74185 0.14946,9.74183 H 323.7849 292.23457 Z m 33.45765,-62.89417 c -21.07537,-2.7017 -36.50492,-9.8635 -49.43872,-22.94753 -9.96436,-10.08008 -16.24845,-23.3811 -18.30207,-38.73835 -1.0264,-7.67562 -1.03299,-12.25466 -0.0288,-20.07694 2.05601,-16.01654 8.58447,-29.27313 19.71687,-40.03691 3.05853,-2.95725 6.05104,-5.74088 6.65,-6.18586 6.84656,-5.08631 16.17868,-9.62652 25.78668,-12.54558 10.57354,-3.21242 29.59677,-4.17134 40.57218,-2.04518 16.31813,3.16116 29.51798,10.80882 39.57262,22.92735 2.34021,2.82057 7.87143,11.23884 7.87143,11.97995 0,0.23734 -0.80216,0.79421 -1.78258,1.23744 -0.98042,0.44326 -6.59554,3.24658 -12.47806,6.22959 -22.6576,11.48969 -22.02204,11.20873 -22.84856,10.10065 -0.40499,-0.54294 -0.73709,-1.24336 -0.73804,-1.55649 -10e-4,-0.31313 -1.54356,-2.3579 -3.42803,-4.54392 -5.62934,-6.5301 -13.44588,-10.274 -21.45015,-10.274 -4.93545,0 -11.52098,1.57961 -16.25656,3.89931 -4.32359,2.11788 -10.60722,8.0199 -13.02198,12.23116 -6.42235,11.20036 -6.35519,26.47163 0.16488,37.49975 4.05136,6.85246 13.18798,13.21775 21.42941,14.92942 8.24537,1.71251 18.77745,0.33669 26.43641,-3.45338 l 3.38527,-1.67521 v -2.41185 -2.41182 h -13.16366 -13.16367 v -18.55004 -18.55004 h 34.82887 34.82886 v 28.5882 28.5882 l -3.97652,3.73561 c -13.43877,12.62465 -25.86578,19.12577 -43.46752,22.73977 -7.28798,1.49639 -21.15479,2.15555 -27.69855,1.3167 z m -145.8973,-13.18382 v -11.01842 l -34.14326,-0.13846 -34.14326,-0.13845 -0.14518,-16.30515 c -0.13506,-15.16058 -0.0735,-16.40614 0.87577,-17.74352 0.83935,-1.1825 15.73348,-25.46438 34.52243,-56.28197 1.98328,-3.25298 4.38052,-7.12429 5.32717,-8.60292 0.94666,-1.47862 3.90046,-6.26065 6.56401,-10.62672 l 4.84282,-7.93831 29.67787,0.14199 29.67784,0.14198 0.14055,40.19175 0.14055,40.19176 h 8.22381 8.2238 v 18.55004 18.55004 h -8.22729 -8.22729 v 11.02249 11.02249 h -21.66514 -21.6652 z m -0.0322,-69.49951 c -0.0216,-14.32897 -0.2116,-21.10706 -0.57641,-20.56636 -2.10888,3.12575 -12.15634,19.44344 -24.74766,40.19176 l -1.06048,1.74747 h 13.2084 13.20841 l -0.0322,-21.37287 z m 28.46758,-83.89546 c -4.44161,-4.62467 -14.23728,-16.33267 -14.07189,-16.81904 0.43164,-1.26943 11.59676,-8.78629 17.47379,-11.76414 23.9082,-12.11413 49.8878,-14.04242 75.66605,-5.61611 8.63538,2.8227 21.24115,9.59241 28.47831,15.29379 2.5857,2.03699 2.72496,2.69036 0.93429,4.38332 -0.71644,0.67735 -4.31105,4.6912 -7.98801,8.91965 l -6.6854,7.6881 -2.57034,-1.92932 c -6.31373,-4.73912 -14.89995,-9.22194 -21.6959,-11.32734 -22.59644,-7.00042 -46.21883,-2.90641 -65.1098,11.28421 l -2.51094,1.88617 z m -46.58857,-19.53627 c -0.72491,-0.62571 -4.82803,-3.90391 -9.11806,-7.28487 -4.29004,-3.38098 -7.95165,-6.38769 -8.13693,-6.68156 -0.77901,-1.23563 14.10696,-16.26501 22.1363,-22.34956 13.65627,-10.34861 26.27414,-17.06903 43.71292,-23.28204 21.07184,-7.507354 48.88965,-9.340027 72.87561,-4.80111 18.06909,3.41925 33.53022,9.41344 49.43678,19.16636 6.19877,3.80071 10.1363,6.60793 16.37754,11.67619 3.51969,2.85819 13.24805,12.34863 16.5952,16.18936 l 2.6594,3.05155 -2.1842,1.87161 c -1.20133,1.02939 -4.03537,3.26156 -6.29788,4.96039 -2.2625,1.69882 -5.59455,4.33144 -7.40456,5.85027 -1.81,1.51884 -3.42696,2.76365 -3.59322,2.76629 -0.16626,0.003 -2.01916,-1.87039 -4.11757,-4.16226 -10.44403,-11.40696 -21.44467,-19.71067 -35.08494,-26.48352 -31.5448,-15.66304 -67.67012,-16.78177 -100.33041,-3.10706 -14.81193,6.20169 -26.88496,14.5357 -39.07845,26.97591 -3.65599,3.72994 -6.75574,6.7817 -6.88837,6.7817 -0.13267,0 -0.83425,-0.51194 -1.55916,-1.13765 z m -54.0885,-24.27831 c -5.4937,-3.61687 -9.998144,-6.77088 -10.009868,-7.00891 -0.03205,-0.65242 3.767998,-5.99213 7.919128,-11.1274 14.12578,-17.47473 32.06549,-33.064427 51.02181,-44.338232 24.41651,-14.521137 51.9085,-23.541028 80.35321,-26.363205 15.72969,-1.56064 36.71436,-0.825343 52.48837,1.839176 11.23406,1.897632 26.65951,6.135947 35.81789,9.841368 2.86584,1.159496 6.10095,2.429821 7.18913,2.82295 2.35679,0.851454 11.93883,5.511043 16.94426,8.239731 23.97165,13.068034 45.22,31.563532 61.8418,53.829872 1.88543,2.52568 3.42804,4.75773 3.42804,4.96012 0,0.46556 -3.22336,2.74897 -12.84343,9.09816 l -7.6328,5.03763 -1.14298,-1.56237 c -2.48944,-3.40293 -8.20244,-10.78504 -8.54267,-11.03851 -0.19848,-0.14786 -2.09842,-2.20449 -4.22208,-4.5703 -30.91406,-34.438924 -76.3857,-54.515144 -123.58003,-54.561939 -14.62499,-0.01512 -33.50054,2.398131 -44.97586,5.748715 -24.05406,7.023359 -40.85358,15.500224 -59.62292,30.085094 -9.08408,7.05886 -20.99058,18.72886 -26.23924,25.718 -0.88832,1.18291 -1.75484,2.27171 -1.9256,2.41957 -0.17071,0.14787 -1.48963,1.90206 -2.93081,3.8982 -1.4412,1.99615 -2.78381,3.62465 -2.98358,3.61889 -0.19977,-0.005 -4.85806,-2.96974 -10.35177,-6.58661 z"
     id="path76"
     inkscape:connector-curvature="0" />
</svg>
