<?xml version="1.0" encoding="UTF-8" standalone="no"?>
<svg
   xmlns:dc="http://purl.org/dc/elements/1.1/"
   xmlns:cc="http://creativecommons.org/ns#"
   xmlns:rdf="http://www.w3.org/1999/02/22-rdf-syntax-ns#"
   xmlns:svg="http://www.w3.org/2000/svg"
   xmlns="http://www.w3.org/2000/svg"
   xmlns:sodipodi="http://sodipodi.sourceforge.net/DTD/sodipodi-0.dtd"
   xmlns:inkscape="http://www.inkscape.org/namespaces/inkscape"
   version="1.1"
   id="svg890"
   width="100"
   height="100"
   viewBox="0 0 511.99999 511.99999"
   sodipodi:docname="ai.png"
   inkscape:version="1.0.2 (e86c870879, 2021-01-15)">
  <metadata
     id="metadata896">
    <rdf:RDF>
      <cc:Work
         rdf:about="">
        <dc:format>image/svg+xml</dc:format>
        <dc:type
           rdf:resource="http://purl.org/dc/dcmitype/StillImage" />
        <dc:title></dc:title>
      </cc:Work>
    </rdf:RDF>
  </metadata>
  <defs
     id="defs894" />
  <sodipodi:namedview
     pagecolor="#ffffff"
     bordercolor="#666666"
     borderopacity="1"
     objecttolerance="10"
     gridtolerance="10"
     guidetolerance="10"
     inkscape:pageopacity="0"
     inkscape:pageshadow="2"
     inkscape:window-width="1366"
     inkscape:window-height="694"
     id="namedview892"
     showgrid="false"
     inkscape:zoom="0.73242185"
     inkscape:cx="170.66667"
     inkscape:cy="286.56953"
     inkscape:window-x="0"
     inkscape:window-y="24"
     inkscape:window-maximized="1"
     inkscape:current-layer="g898" />
  <g
     inkscape:groupmode="layer"
     inkscape:label="Image"
     id="g898">
    <path
       style="fill:#000000;stroke-width:1.95766"
       d="M 380.31998,495.14115 C 331.07822,485.39011 277.75215,460.32091 251.54279,434.60147 231.04732,414.48913 222.68426,395.47733 223.73818,371.393 c 0.46242,-10.56753 1.40593,-14.15672 4.14383,-15.76343 2.57594,-1.51168 4.51419,-1.51219 7.09013,-10e-4 2.78695,1.634 3.78046,5.67775 4.64582,18.90901 1.25884,19.24798 5.13667,28.80904 17.64338,43.50108 22.08003,25.93813 82.20784,55.16894 130.31986,63.3543 17.87924,3.04183 26.37597,1.32137 34.11199,-6.90716 5.85907,-6.23208 6.23202,-7.5436 6.23202,-21.9157 0,-15.01755 0.12337,-15.39243 7.00193,-21.27654 l 7.00192,-5.98963 -7.20151,-9.64953 c -8.83446,-11.83756 -7.48084,-15.93626 6.46757,-19.58346 5.1602,-1.34929 9.77205,-3.40202 10.24854,-4.56164 0.47647,-1.1596 -1.32347,-8.12109 -3.99987,-15.46996 -6.87113,-18.86678 -6.09159,-19.67081 19.07139,-19.67081 11.08629,0 20.15424,-0.6385 20.15097,-1.4189 -0.005,-0.78039 -8.27529,-21.8444 -18.38227,-46.80888 l -18.37641,-45.38996 6.23278,-13.25792 c 5.20523,-11.07217 6.23197,-15.6751 6.22778,-27.91987 l -0.005,-14.66246 h -18.23179 -18.23178 l -0.0849,14.66198 c -0.0828,14.32402 -0.39811,15.22883 -13.67384,39.25623 l -13.58894,24.59428 -75.96578,0.49625 -75.96577,0.49626 -29.87986,27.85811 -29.87988,27.85807 0.0122,29.34762 0.0122,29.34758 6.02217,3.20012 c 7.58012,4.02799 14.19326,13.99223 14.19904,21.39416 0.0106,13.18705 -14.08258,27.43524 -27.1301,27.42913 -8.14854,-0.004 -19.14222,-5.30028 -24.08823,-11.6051 -2.1515,-2.74259 -4.31735,-8.70197 -4.81298,-13.24308 -1.06773,-9.78294 4.11938,-18.97407 13.53066,-23.97511 l 6.02225,-3.20012 0.0121,-32.18202 0.0122,-32.18201 34.96536,-32.61444 34.96538,-32.61442 h 17.7068 17.70424 l -0.0383,-21.28351 -0.0383,-21.2835 -14.14204,-11.05158 -14.14193,-11.05158 v -33.5019 c 0,-23.53455 0.72323,-34.17732 2.43091,-35.77213 1.6334,-1.52545 10.80269,-2.27025 27.94941,-2.27025 h 25.51853 l 7.73121,7.39419 c 7.05719,6.74954 8.24544,7.22679 13.62941,5.47397 11.90077,-3.87444 26.88034,2.30573 33.18458,13.69109 11.77175,21.25948 -14.67464,45.95795 -37.43863,34.96424 -12.2005,-5.89214 -18.80844,-19.87761 -14.65251,-31.01144 1.8132,-4.85755 1.39572,-6.12606 -3.44002,-10.45278 -5.01353,-4.48583 -6.98198,-4.92433 -22.10525,-4.92433 h -16.60162 l 0.13553,25.06725 0.13552,25.06724 14.04479,11.03895 14.0448,11.03894 v 24.43357 24.43356 h 8.10302 8.10302 v -22.32404 c 0,-14.84064 0.81488,-23.08506 2.4309,-24.59427 1.68557,-1.57417 12.24454,-2.27024 34.43782,-2.27024 h 32.0069 l -0.0121,-34.52657 -0.0122,-34.52659 -6.02215,-3.20011 c -7.58152,-4.02799 -14.19466,-13.99223 -14.20044,-21.39417 -0.006,-8.2494 6.03529,-18.18621 14.16956,-23.30471 12.22048,-7.68974 30.55974,-3.23855 38.17686,9.26606 3.17848,5.21795 4.05451,5.50195 17.00623,5.51329 l 13.65509,0.0114 -6.54115,-9.92813 C 424.82333,96.785012 401.55153,74.102826 386.26099,63.912874 368.57932,52.129413 342.89595,41.184207 319.54736,35.482267 302.97463,31.43505 293.11778,30.358334 265.35844,29.562927 l -33.93137,-0.97226 v 25.35995 25.35995 l 13.72469,12.719365 13.72466,12.719368 h 21.34701 c 20.66226,0 21.51885,-0.16752 26.70385,-5.221781 3.89194,-3.793819 4.83501,-5.992582 3.44865,-8.04044 -5.51726,-8.149824 0.72276,-24.594161 12.0032,-31.631918 23.3554,-14.571214 53.41748,12.447658 38.78532,34.85904 -2.17096,3.325176 -6.23498,7.445709 -9.03113,9.156729 -6.57022,4.02044 -19.73998,5.64706 -24.88807,3.07399 -3.40989,-1.7043 -5.22704,-0.8662 -11.84478,5.46307 l -7.817,7.47623 h -27.483 -27.48301 L 233.91925,102.34892 215.22103,84.813598 V 51.500152 c 0,-27.363928 0.54489,-33.735771 3.051,-35.678189 2.31076,-1.791019 12.75473,-2.129528 43.04727,-1.395248 44.10091,1.068991 63.14431,4.396371 94.14766,16.450063 30.99791,12.051579 66.14654,38.027156 85.88015,63.467249 10.42255,13.436483 24.4544,41.615203 29.01464,58.267073 4.9728,18.15842 8.20774,45.3155 8.2057,68.88643 -0.001,16.4269 -0.65333,19.80684 -5.76759,29.90276 l -5.76599,11.38249 17.90354,44.42759 c 9.84693,24.43516 17.91188,46.38179 17.92209,48.77027 0.0418,9.7643 -11.24781,15.13603 -29.25088,13.91788 -10.8411,-0.73355 -11.48274,0.368 -7.11703,12.2185 6.83909,18.56434 6.29405,19.66758 -12.83021,25.9713 -3.35809,1.10688 -3.24146,1.74291 1.51931,8.28595 7.1176,9.78224 6.57197,13.97251 -2.72832,20.95246 -7.79832,5.8527 -7.89285,6.08125 -8.60946,20.81597 -0.90643,18.63802 -6.90851,28.00994 -22.62174,35.32265 -11.75021,5.46839 -20.03493,5.80783 -40.90119,1.6758 z M 186.86049,433.93418 c 2.22832,-2.08105 4.0515,-5.48641 4.0515,-7.56747 0,-2.08105 -1.82318,-5.48641 -4.0515,-7.56747 -2.22833,-2.08106 -5.87469,-3.78374 -8.10302,-3.78374 -2.22832,0 -5.87468,1.70268 -8.10302,3.78374 -2.22833,2.08106 -4.05151,5.48642 -4.05151,7.56747 0,2.08106 1.82318,5.48642 4.05151,7.56747 2.22834,2.08105 5.8747,3.78373 8.10302,3.78373 2.22833,0 5.87469,-1.70268 8.10302,-3.78373 z M 399.10282,251.34626 c 10.48165,-19.68276 10.5906,-20.06812 10.5906,-37.45897 0,-11.14433 0.88917,-18.40203 2.43091,-19.84186 1.60386,-1.49788 10.21879,-2.27024 25.32191,-2.27024 h 22.89102 l -0.0352,-6.14858 c -0.0432,-7.53344 -4.89439,-29.37722 -9.23475,-41.58118 l -3.21013,-9.02627 -17.56256,0.0114 c -17.41956,0.0113 -17.59091,0.0584 -21.04775,5.7315 -1.91685,3.14576 -6.24113,7.18423 -9.60951,8.9744 l -6.1243,3.25492 -0.0122,39.8238 c -0.0106,28.43753 -0.70785,40.4729 -2.44371,42.09405 -1.68557,1.57416 -12.24456,2.27024 -34.43782,2.27024 h -32.00692 v 17.02681 17.0268 h 31.95023 31.95025 l 10.5906,-19.88735 z m -58.28504,-70.92227 c 2.22833,-2.08106 4.05151,-5.48642 4.05151,-7.56748 0,-2.08105 -1.82318,-5.48641 -4.05151,-7.56747 -2.22833,-2.08105 -5.87469,-3.78373 -8.10301,-3.78373 -2.22833,0 -5.87469,1.70268 -8.10303,3.78373 -2.22831,2.08106 -4.05149,5.48642 -4.05149,7.56747 0,2.08106 1.82318,5.48642 4.05149,7.56748 2.22834,2.08104 5.8747,3.78372 8.10303,3.78372 2.22832,0 5.87468,-1.70268 8.10301,-3.78372 z m 52.66961,-45.40483 c 2.22833,-2.08105 4.05151,-5.48641 4.05151,-7.56746 0,-4.87263 -6.93707,-11.3512 -12.15454,-11.3512 -2.22832,0 -5.87468,1.70268 -8.10301,3.78372 -2.22833,2.08106 -4.05151,5.48642 -4.05151,7.56748 0,2.08105 1.82318,5.48641 4.05151,7.56746 2.22833,2.08106 5.87469,3.78374 8.10301,3.78374 2.22833,0 5.87469,-1.70268 8.10303,-3.78374 z m -48.6181,-45.404802 c 2.22832,-2.081053 4.0515,-5.486414 4.0515,-7.567468 0,-4.872625 -6.93707,-11.351203 -12.15452,-11.351203 -2.22832,0 -5.87468,1.702681 -8.10301,3.783735 -2.22834,2.081053 -4.05152,5.486414 -4.05152,7.567468 0,2.081054 1.82318,5.486415 4.05152,7.567468 2.22833,2.081054 5.87469,3.783734 8.10301,3.783734 2.22833,0 5.87469,-1.70268 8.10302,-3.783734 z M 99.546209,391.80244 c -7.939531,-4.95341 -13.96908,-14.94503 -13.962693,-23.13768 0.0056,-7.40193 6.618903,-17.36617 14.199028,-21.39416 l 6.022176,-3.20011 0.0128,-31.3312 0.0128,-31.33117 L 93.743068,268.28042 81.6559,255.15273 81.58864,213.27814 81.52137,171.40357 57.212238,152.9919 32.903193,134.58024 32.890431,100.27314 32.877669,65.966018 26.987002,62.83639 C 8.8932233,53.223469 8.6968776,29.415576 26.619068,18.234085 c 8.92731,-5.569667 19.846974,-5.569667 28.774282,0 17.922193,11.181491 17.725846,34.989384 -0.367841,44.602305 l -5.890668,3.129628 0.09915,31.215809 0.09915,31.215793 16.094067,11.8888 16.094067,11.88878 v -42.25325 c 0,-43.234263 0.630432,-46.913981 8.001728,-46.7045 1.726956,0.04908 16.813757,7.501964 33.526227,16.56197 l 30.38631,16.472739 0.58765,12.297971 c 0.54007,11.3018 1.0593,12.55074 6.40992,15.41862 24.9156,13.35451 12.5038,51.21805 -15.83843,48.31692 -27.49596,-2.81452 -35.86708,-35.78832 -12.26858,-48.32588 5.01621,-2.66504 5.89257,-4.2964 5.90347,-10.98947 0.0123,-7.60421 -0.36602,-8.05813 -11.63527,-13.956698 -6.40643,-3.353273 -15.52233,-8.197808 -20.25753,-10.765631 l -8.609452,-4.668773 0.02663,82.948952 0.02663,82.94896 12.101252,13.24308 12.10125,13.24306 0.0394,34.05361 0.0394,34.05361 6.02217,3.20011 c 7.58014,4.02799 14.19328,13.99223 14.19905,21.39416 0.0106,13.78292 -14.09506,27.43208 -28.34985,27.43208 -4.42923,0 -10.32422,-1.75959 -14.387136,-4.2944 z m 22.490151,-14.62428 c 2.22833,-2.08105 4.05151,-5.48641 4.05151,-7.56747 0,-4.87261 -6.93706,-11.3512 -12.15452,-11.3512 -5.21746,0 -12.15452,6.47859 -12.15452,11.3512 0,2.08106 1.82318,5.48642 4.0515,7.56747 2.22833,2.08106 5.87469,3.78374 8.10302,3.78374 2.22833,0 5.87469,-1.70268 8.10301,-3.78374 z m 32.41206,-223.24033 c 2.22833,-2.08105 4.05151,-5.48641 4.05151,-7.56747 0,-2.08105 -1.82318,-5.48641 -4.05151,-7.56746 -2.22832,-2.08106 -5.87467,-3.78374 -8.10301,-3.78374 -2.22833,0 -5.87469,1.70268 -8.10301,3.78374 -2.22833,2.08105 -4.05151,5.48641 -4.05151,7.56746 0,2.08106 1.82318,5.48642 4.05151,7.56747 2.22832,2.08107 5.87468,3.78375 8.10301,3.78375 2.22834,0 5.87469,-1.70268 8.10301,-3.78375 z M 49.109225,47.99328 c 5.158086,-4.817175 5.158086,-10.31776 0,-15.134936 C 46.880897,30.77729 43.23454,29.07461 41.00621,29.07461 c -5.217458,0 -12.154523,6.478578 -12.154523,11.351202 0,2.081055 1.823178,5.486415 4.051506,7.567468 2.22833,2.081055 5.874687,3.783735 8.103017,3.783735 2.22833,0 5.874687,-1.70268 8.103015,-3.783735 z M 24.944179,339.81085 C 5.0345846,330.32969 3.8895495,304.34663 22.935403,294.22782 l 5.890668,-3.12961 v -25.5402 -25.54021 l -5.890668,-3.12963 C -0.66309741,224.35062 7.7080191,191.3768 35.203972,188.56229 c 21.332121,-2.18358 37.256386,21.56884 26.009927,38.79605 -2.247418,3.44258 -6.796194,7.69928 -10.108391,9.45934 l -6.022174,3.20012 v 25.54021 25.5402 l 5.890667,3.12961 c 18.093688,9.61294 18.290034,33.42083 0.367843,44.60233 -8.242168,5.14221 -16.977405,5.46674 -26.397665,0.9807 z m 20.113539,-15.60497 c 2.228328,-2.08106 4.051507,-5.48642 4.051507,-7.56746 0,-4.87262 -6.937064,-11.3512 -12.154523,-11.3512 -5.217459,0 -12.154524,6.47858 -12.154524,11.3512 0,2.08104 1.823179,5.4864 4.051509,7.56746 2.228328,2.08106 5.874685,3.78374 8.103015,3.78374 2.228329,0 5.874686,-1.70268 8.103016,-3.78374 z m 0,-102.16082 c 2.228328,-2.08106 4.051507,-5.48642 4.051507,-7.56747 0,-4.87261 -6.937064,-11.3512 -12.154523,-11.3512 -5.217459,0 -12.154524,6.47859 -12.154524,11.3512 0,2.08105 1.823179,5.48641 4.051509,7.56747 2.228328,2.08106 5.874685,3.78374 8.103015,3.78374 2.228329,0 5.874686,-1.70268 8.103016,-3.78374 z m 95.615592,103.67432 c -1.72815,-1.61394 -2.43462,-13.23615 -2.44372,-40.20218 l -0.0128,-37.93194 -6.02217,-3.20011 c -7.58017,-4.02799 -14.1933,-13.99223 -14.19907,-21.39415 -0.0108,-13.78292 14.09505,-27.43209 28.34983,-27.43209 14.25478,0 28.36057,13.64917 28.34983,27.43209 -0.006,7.40192 -6.6189,17.36616 -14.19903,21.39415 l -6.02218,3.20011 -0.0122,27.40843 -0.0121,27.40841 30.3863,-28.33069 30.38631,-28.3307 v -55.87813 -55.87812 l -16.25105,-15.08678 -16.24979,-15.0868 0.55019,-33.853248 c 0.48502,-29.843131 0.97012,-34.100388 4.09526,-35.939561 2.58339,-1.520344 4.50676,-1.52043 7.09015,-3.12e-4 3.10244,1.825546 3.61418,5.969047 4.09861,33.186124 l 0.55355,31.100118 16.15893,15.002429 16.15891,15.00243 v 61.54738 61.54738 l -41.03961,38.293 c -22.57179,21.06115 -42.44443,38.293 -44.16143,38.293 -1.717,0 -4.21573,-1.02161 -5.55272,-2.27024 z m 13.77511,-96.10686 c 2.22833,-2.08104 4.05151,-5.4864 4.05151,-7.56746 0,-2.08106 -1.82318,-5.48642 -4.05151,-7.56747 -2.22832,-2.08105 -5.87467,-3.78373 -8.10301,-3.78373 -2.22833,0 -5.87469,1.70268 -8.10301,3.78373 -2.22833,2.08105 -4.05151,5.48641 -4.05151,7.56747 0,2.08106 1.82318,5.48642 4.05151,7.56746 2.22832,2.08106 5.87468,3.78374 8.10301,3.78374 2.22834,0 5.87469,-1.70268 8.10301,-3.78374 z"
       id="path902" />
  </g>
</svg>
