<?xml version="1.0" encoding="UTF-8" standalone="no"?>
<svg
   xmlns:dc="http://purl.org/dc/elements/1.1/"
   xmlns:cc="http://creativecommons.org/ns#"
   xmlns:rdf="http://www.w3.org/1999/02/22-rdf-syntax-ns#"
   xmlns:svg="http://www.w3.org/2000/svg"
   xmlns="http://www.w3.org/2000/svg"
   version="1.1"
   id="svg62"
   width="100"
   height="100"
   viewBox="0 0 512 512">
  <metadata
     id="metadata68">
    <rdf:RDF>
      <cc:Work
         rdf:about="">
        <dc:format>image/svg+xml</dc:format>
        <dc:type
           rdf:resource="http://purl.org/dc/dcmitype/StillImage" />
        <dc:title></dc:title>
      </cc:Work>
    </rdf:RDF>
  </metadata>
  <defs
     id="defs66" />
  <g
     id="g70">
    <path
       style="fill:#000000;stroke-width:2.61601"
       d="M 92.443295,410.90681 C 79.393551,402.62497 50.15699,364.07681 40.151612,341.96065 29.869814,319.23347 16.10792,276.81801 11.289149,253.00379 5.424056,224.01867 3.9312591,165.67834 8.5265847,145.03949 21.244938,87.917941 54.782399,79.024257 91.970597,122.91126 c 21.583333,25.47121 45.464983,76.96088 54.585223,117.68758 l 3.58129,15.9923 4.34455,-9.32761 c 5.88528,-12.63547 13.6768,-16.92436 24.4394,-13.4528 6.30452,2.03354 8.53353,4.31411 8.53353,8.7309 0,5.30306 -1.26251,5.86168 -11.17669,4.94516 -12.59997,-1.16482 -15.06168,1.54192 -15.11669,16.62129 -0.044,12.05877 5.01799,15.94833 17.83454,13.70384 7.80605,-1.36702 9.60355,-0.78858 9.60355,3.0904 0,11.2655 -21.92792,15.21182 -29.51099,5.31104 -4.24338,-5.54037 -4.30382,-5.41004 -3.11914,6.72567 0.66446,6.80653 1.32393,12.5255 1.46547,12.70877 0.14148,0.18323 13.65053,-1.01483 30.01995,-2.66253 67.71657,-6.81607 292.07996,-2.64743 313.52298,5.82524 3.79022,1.49761 3.19849,2.5967 -3.9905,7.41216 -7.29515,4.88655 -10.38457,5.25778 -22.76551,2.73538 -69.86691,-14.23418 -218.27348,-16.47069 -301.76303,-4.54763 l -12.70662,1.81462 -2.33994,26.30912 c -2.74676,30.88325 -11.19508,56.35513 -22.03353,66.43168 -10.35614,9.62815 -29.46147,10.49184 -42.935145,1.94097 z M 39.617705,273.1808 42.883129,258.98216 h 10.641559 10.641558 l 3.363915,14.19864 c 2.814775,11.88076 4.37747,14.3533 9.572683,15.14612 3.83551,0.58532 6.693929,-0.70326 7.478021,-3.37111 0.698093,-2.37524 -3.790474,-21.40465 -9.974595,-42.28759 -9.738474,-32.88549 -11.011701,-39.6265 -9.509893,-50.34946 2.469268,-17.63066 12.697772,-28.99057 26.103209,-28.99057 5.572149,0 10.767914,1.34513 11.546134,2.98918 0.77822,1.64406 2.64193,2.94641 4.1416,2.89412 7.24666,-0.25264 -7.321635,-8.87249 -14.995296,-8.87249 -15.731765,0 -29.211308,14.82747 -29.211308,32.13238 0,4.49405 -1.413929,5.31107 -7.567918,4.37304 -4.595642,-0.7005 -8.596096,0.46398 -10.185829,2.96496 -4.22635,6.64893 -23.703412,80.92202 -22.391342,85.38628 0.71761,2.44163 3.731027,3.69846 7.50771,3.13126 5.333703,-0.80101 6.81372,-3.14232 9.574368,-15.14612 z m 5.767916,-28.06718 c 0.834197,-4.33958 2.887588,-12.07411 4.563095,-17.18781 l 3.046374,-9.29766 3.42385,10.46216 c 7.66428,23.41948 7.602518,23.91348 -2.989852,23.91348 -9.18912,0 -9.501318,-0.30624 -8.043467,-7.89017 z m 55.732159,16.0768 c 0.62238,-24.57763 0.38556,-26.12176 -4.0065,-26.12176 -4.354722,0 -4.667985,1.82018 -4.667985,27.12186 0,24.21857 0.428879,27.01481 4.006501,26.12176 3.388812,-0.84591 4.108464,-5.02731 4.667984,-27.12186 z m 18.37232,14.78357 0.71836,-11.35572 6.92696,11.38059 c 6.66352,10.94778 13.30788,14.67526 14.9179,8.36891 0.42288,-1.65639 -1.81472,-6.64953 -4.97244,-11.09589 -5.63614,-7.93614 -5.65722,-8.14299 -1.15046,-11.29213 5.66212,-3.95649 6.16472,-18.45079 0.8791,-25.35195 -2.6043,-3.4003 -6.87363,-4.57887 -14.30893,-3.95001 l -10.59715,0.89628 -0.66073,27.89139 c -0.6024,25.43006 -0.29937,27.80192 3.43414,26.87781 2.91275,-0.72096 4.30225,-4.29172 4.81325,-12.36928 z m 0.42634,-27.7738 c 0,-5.8779 0.88985,-7.34694 3.62137,-5.97837 1.99178,0.99794 5.08251,1.81441 6.86829,1.81441 1.7858,0 3.24691,2.69026 3.24691,5.97837 0,4.64986 -1.52629,5.97837 -6.86829,5.97837 -5.87506,0 -6.86828,-1.12692 -6.86828,-7.79278 z M 100.78428,218.5901 c 0.73094,-2.48703 0.0137,-6.58995 -1.592252,-9.1176 -2.572563,-4.04716 -3.323701,-4.07028 -6.29277,-0.19373 -3.9834,5.20091 -2.124933,13.83316 2.978181,13.83316 1.967809,0 4.175891,-2.03483 4.906841,-4.52183 z M 92.350757,194.753 c 2.751023,-1.14001 6.345655,-0.45075 8.215403,1.57529 1.96493,2.12918 3.32428,2.36095 3.32428,0.56678 0,-3.29507 -5.303119,-6.6642 -10.489683,-6.6642 -5.029188,0 -12.414638,11.20409 -12.314998,18.68242 0.0764,5.73383 0.552984,5.33509 3.231744,-2.70388 1.728171,-5.18625 5.343129,-10.34164 8.033254,-11.45641 z m -16.505825,5.94923 c 0,-15.60994 12.747063,-25.37449 23.760406,-18.20102 3.658392,2.38287 6.019092,2.99618 5.245972,1.36291 -3.09414,-6.53662 -12.535605,-8.58982 -20.220714,-4.39732 -7.52018,4.10251 -13.225597,16.92597 -11.106422,24.96271 1.51801,5.7569 2.320758,4.46763 2.320758,-3.72728 z M 196.50662,288.0978 c -0.68009,-2.31402 -0.93454,-15.52847 -0.56542,-29.3655 l 0.6711,-25.15823 h 13.70572 c 12.82117,0 13.90824,0.55166 16.84349,8.5477 2.81822,7.67722 2.65833,9.39445 -1.57009,16.86174 -4.66353,8.23569 -4.66584,8.36371 -0.24513,13.5872 5.45725,6.44824 5.80004,15.82093 0.67259,18.3899 -2.64294,1.32418 -5.93453,-1.5979 -10.87479,-9.65415 l -7.08464,-11.55309 -1.14472,10.27369 c -1.19714,10.74427 -8.0586,16.06484 -10.40811,8.07074 z m 21.42739,-38.8305 c 0.56713,-3.88507 -0.75233,-5.23107 -5.12784,-5.23107 -4.43115,0 -5.89144,1.53336 -5.89144,6.18627 0,4.69855 1.23318,5.95655 5.12782,5.23108 2.8203,-0.52535 5.47146,-3.30918 5.89146,-6.18628 z m 20.07759,40.00722 c -1.93148,-4.08044 11.17639,-51.99284 15.11069,-55.23306 1.94562,-1.60238 5.00125,-2.18004 6.79026,-1.28371 3.88976,1.94886 18.85042,51.84749 16.82675,56.12268 -2.79031,5.89474 -8.45719,2.8116 -11.0002,-5.98477 -2.02443,-7.00256 -3.98752,-8.96756 -8.95886,-8.96756 -4.60427,0 -6.36635,1.48921 -6.36635,5.38053 0,9.43768 -9.16593,16.80297 -12.40229,9.96589 z m 21.56001,-30.29236 c -1.34779,-3.2881 -2.80925,-5.97837 -3.24767,-5.97837 -0.43843,0 -1.33598,2.69027 -1.99455,5.97837 -0.89377,4.46241 -0.0703,5.97838 3.24767,5.97838 3.73564,0 4.05396,-0.95415 1.99455,-5.97838 z m 31.8759,24.14343 c -18.0636,-23.58466 3.19517,-63.54473 25.51033,-47.95177 2.43558,1.7019 4.42835,5.81974 4.42835,9.15074 0,5.48576 -0.9726,5.86592 -10.32322,4.03514 -12.25037,-2.39856 -17.14993,1.53372 -17.14993,13.76416 0,13.10627 5.29424,17.94995 17.27601,15.80568 9.16476,-1.6401 10.19714,-1.21376 10.19714,4.21117 0,6.42529 -5.51908,9.61072 -16.77447,9.68171 -4.1296,0.0269 -8.89415,-3.12164 -13.16421,-8.69683 z m 39.28055,4.54356 c -1.69076,-2.65993 -2.42139,-13.32071 -1.99741,-29.14457 0.62405,-23.29058 1.01124,-25.01406 5.81975,-25.9057 4.56098,-0.84576 5.15122,0.33691 5.15122,10.32151 v 11.27671 l 8.99619,-11.46954 c 5.7546,-7.33672 10.29183,-10.82041 12.59186,-9.66805 5.2109,2.61079 4.42025,8.90317 -2.12791,16.93509 -7.3691,9.03888 -7.22134,11.14913 1.61423,23.05139 6.90959,9.30782 7.11042,10.18159 3.44117,14.97233 -3.66924,4.79074 -4.50287,4.31082 -14.28466,-8.22353 l -10.38801,-13.31115 0.52692,9.02884 c 0.8493,14.55268 -3.89247,20.71205 -9.34335,12.13667 z m 83.50429,1.46745 c -1.13657,-2.40106 3.59344,-37.63592 6.95723,-51.82604 2.21594,-9.34793 7.28553,-5.56778 15.48423,11.54579 l 8.03741,16.77687 1.47514,-11.54579 c 2.12681,-16.64607 2.8881,-18.94601 6.94396,-20.97806 6.98681,-3.50057 8.13186,3.18101 4.4715,26.0922 -6.35719,39.79122 -8.322,41.41022 -19.81326,16.32595 -7.8497,-17.13503 -10.98757,-17.12236 -11.0536,0.0445 -0.0492,12.77937 -8.52262,21.97253 -12.50261,13.56445 z m 55.39435,-3.18408 c -16.56392,-17.04805 2.78661,-57.92143 24.86167,-52.51437 8.45779,2.07166 14.43851,12.04505 10.3916,17.32889 -1.63925,2.14029 -4.48737,1.95696 -9.20105,-0.59228 -8.38327,-4.53382 -15.30536,-1.97594 -20.00714,7.39316 -6.95526,13.85954 3.47673,27.4937 14.9189,19.49838 6.57318,-4.5931 6.02953,-8.5964 -0.93147,-6.85899 -4.56936,1.14046 -5.72358,0.21701 -5.72358,-4.57848 0,-7.33738 3.27599,-8.94915 13.73658,-6.75831 6.90544,1.44625 7.92465,2.70617 7.37384,9.11519 -1.64695,19.16305 -23.49108,30.2437 -35.41935,17.96681 z m -92.48315,-31.51141 c -2.34668,-7.98457 2.37522,-10.77808 16.59832,-9.81975 11.73943,0.79097 13.4979,1.68832 13.4979,6.88783 0,5.24716 -1.75375,6.08733 -14.33856,6.86931 -11.5088,0.7151 -14.61864,-0.0619 -15.75766,-3.93739 z"
       id="path74" />
  </g>
</svg>
