<?xml version="1.0" encoding="UTF-8" standalone="no"?>
<svg
   xmlns:dc="http://purl.org/dc/elements/1.1/"
   xmlns:cc="http://creativecommons.org/ns#"
   xmlns:rdf="http://www.w3.org/1999/02/22-rdf-syntax-ns#"
   xmlns:svg="http://www.w3.org/2000/svg"
   xmlns="http://www.w3.org/2000/svg"
   version="1.1"
   id="svg62"
   width="100"
   height="100"
   viewBox="0 0 512 512">
  <metadata
     id="metadata68">
    <rdf:RDF>
      <cc:Work
         rdf:about="">
        <dc:format>image/svg+xml</dc:format>
        <dc:type
           rdf:resource="http://purl.org/dc/dcmitype/StillImage" />
        <dc:title></dc:title>
      </cc:Work>
    </rdf:RDF>
  </metadata>
  <defs
     id="defs66" />
  <g
     id="g70">
    <path
       style="fill:#000000;stroke-width:1.06256"
       d="m 193.72976,507.86679 c -2.7769,-1.02358 -7.01737,-4.03857 -10.24233,-7.28234 -8.66236,-8.7129 -8.85704,-9.92188 -8.85704,-55.00458 v -38.11043 l -22.06535,-0.32623 c -21.9201,-0.32408 -22.09361,-0.34506 -26.35857,-3.18648 -2.58294,-1.72081 -5.18847,-4.72037 -6.54053,-7.52964 -2.24514,-4.6649 -2.2473,-4.77427 -2.2473,-113.56282 V 173.97084 h 138.79147 138.79147 v 109.27234 c 0,105.12307 -0.0762,109.42246 -2.00622,113.22609 -2.29491,4.52271 -4.51529,6.70096 -9.33055,9.15354 -2.78994,1.42101 -7.14589,1.72699 -24.58569,1.72699 h -21.195 l -0.31202,40.7614 c -0.34796,45.458 -0.0927,43.81165 -8.10995,52.3075 -5.27349,5.58831 -11.05828,8.35391 -18.77743,8.97713 -11.90166,0.96093 -22.47856,-4.7522 -28.78977,-15.55084 l -2.90609,-4.9724 -0.31209,-40.78286 -0.3121,-40.78288 -21.93691,0.2879 -21.93693,0.28788 -0.52974,40.49498 c -0.48163,36.81708 -0.70873,40.83374 -2.50055,44.22479 -2.78494,5.2705 -8.95061,11.52075 -13.92134,14.1123 -5.68478,2.96383 -17.36148,3.52884 -23.80944,1.15209 z M 65.687896,357.87758 C 55.37126,354.49559 47.596187,345.97006 45.35549,335.58267 44.528914,331.75084 44.272471,308.81944 44.507522,259.75626 l 0.336951,-70.33339 2.8712,-5.47519 c 9.583788,-18.27566 33.667102,-21.92371 47.838802,-7.24646 8.003465,8.28899 7.526835,3.12158 7.857535,85.18635 0.33052,82.01729 0.60256,78.63268 -7.000587,87.09754 -7.498109,8.34794 -20.715145,12.17341 -30.723527,8.89247 z m 364.070664,0.0891 c -2.73535,-0.77479 -5.83432,-2.06405 -6.8866,-2.86503 -5.64901,-4.3 -9.32226,-8.52 -11.56788,-13.28973 l -2.5086,-5.32829 -0.0106,-73.46032 c -0.0106,-71.65293 0.0426,-73.57025 2.14018,-77.92863 10.91809,-22.68533 42.67527,-23.19611 54.01174,-0.86873 l 2.63894,5.19693 v 73.53036 c 0,72.70098 -0.0253,73.58553 -2.24897,78.42108 -6.1619,13.39989 -21.52947,20.56876 -35.56821,16.59232 z M 116.57031,153.98976 c 6.22985,-40.18926 30.93221,-78.137374 64.38164,-98.903978 3.51569,-2.182658 6.39216,-4.219843 6.39216,-4.527072 0,-0.307219 -4.76765,-9.820512 -10.59477,-21.140639 -5.82712,-11.320127 -10.59477,-21.2365058 -10.59477,-22.0364095 0,-0.7998931 0.91388,-2.2862187 2.03082,-3.3029464 1.57941,-1.4376816 2.49923,-1.5964411 4.13809,-0.7142313 1.17095,0.6303299 6.66824,10.0197172 12.37215,21.1316672 5.64569,10.998522 10.63378,20.38967 11.08465,20.869205 0.45088,0.479536 3.62402,-0.309243 7.05144,-1.752857 18.33065,-7.720762 36.16811,-10.741315 58.67577,-9.936008 18.41051,0.658715 29.08706,2.694152 44.32092,8.449608 l 9.681,3.657539 11.93482,-20.792404 c 6.56414,-11.435825 12.76915,-21.3145755 13.7889,-21.9527817 2.40202,-1.5033037 5.43149,0.2921393 5.90513,3.4997307 0.21355,1.4462143 -3.62683,9.243065 -10.18184,20.671483 -5.78859,10.092202 -11.06107,19.38369 -11.71662,20.647752 -1.10619,2.133009 -0.41202,2.819899 9.65209,9.550911 30.37603,20.315895 54.15199,56.360861 60.04769,91.033811 0.64339,3.78383 1.40639,7.95867 1.69556,9.27742 l 0.52576,2.39773 H 256.39068 115.62046 Z m 84.81187,-48.17201 c 8.06757,-9.081069 -1.87002,-22.793319 -13.12156,-18.105599 -3.67484,1.531051 -7.26339,6.656874 -7.26941,10.38352 -0.0171,10.544179 13.37745,15.616689 20.39097,7.722079 z m 126.44856,0.59041 c 2.90285,-2.91978 3.60223,-4.45564 3.60223,-7.910661 0,-11.695078 -15.2741,-16.091746 -21.31088,-6.134372 -2.41066,3.976256 -2.52208,7.163083 -0.39508,11.300233 1.95858,3.80957 6.21605,6.26844 10.95226,6.32537 2.65689,0.032 4.45494,-0.8683 7.15147,-3.58057 z"
       id="path74" />
  </g>
</svg>
