<?xml version="1.0" encoding="UTF-8" standalone="no"?>
<svg
   xmlns:dc="http://purl.org/dc/elements/1.1/"
   xmlns:cc="http://creativecommons.org/ns#"
   xmlns:rdf="http://www.w3.org/1999/02/22-rdf-syntax-ns#"
   xmlns:svg="http://www.w3.org/2000/svg"
   xmlns="http://www.w3.org/2000/svg"
   viewBox="0 0 512 512"
   height="100"
   width="100"
   id="svg2"
   version="1.1">
  <metadata
     id="metadata8">
    <rdf:RDF>
      <cc:Work
         rdf:about="">
        <dc:format>image/svg+xml</dc:format>
        <dc:type
           rdf:resource="http://purl.org/dc/dcmitype/StillImage" />
        <dc:title></dc:title>
      </cc:Work>
    </rdf:RDF>
  </metadata>
  <defs
     id="defs6" />
  <path
     id="path817"
     d="M 232.53571,459.80691 C 138.22654,453.11503 85.539065,448.76856 74.858307,446.79926 57.873666,443.66766 47.166669,438.14295 36.285461,426.896 l -9.080003,-9.38521 0.954944,-46.70153 c 0.607401,-29.70542 1.957331,-53.39106 3.70929,-65.08283 3.161565,-21.09876 9.612391,-48.80182 14.17367,-60.86869 1.721405,-4.55398 3.653,-13.79435 4.292439,-20.53416 l 1.162625,-12.25419 -6.183958,-6.1271 C 29.55179,190.32452 14.969248,165.38195 10.045325,145.61646 2.7118209,116.17855 10.922257,83.884383 30.227783,66.232603 42.254021,55.236563 51.655934,51.321231 66.431781,51.1558 c 11.2,-0.125343 14.07958,0.576314 25.279579,6.160253 6.951884,3.46597 16.51336,9.50085 21.24774,13.41086 10.29431,8.50184 21.41227,25.18074 25.27917,37.923237 l 2.8059,9.24619 15.3596,-8.38992 c 32.47439,-17.738587 62.31051,-25.143387 101.31016,-25.143387 38.3562,0 68.30879,7.2925 99.88092,24.317787 12.02716,6.48568 14.25026,7.18691 15.0069,4.73368 0.48852,-1.58393 3.18214,-7.90065 5.98582,-14.037157 7.31375,-16.00781 20.98677,-29.54866 39.38511,-39.00433 13.6796,-7.030523 15.77103,-7.597384 27.54803,-7.466615 14.88956,0.165257 24.25225,4.053095 36.30876,15.076805 14.24696,13.02656 22.78169,34.134867 22.78169,56.344407 0,28.21485 -11.95955,55.15837 -36.02635,81.16329 l -8.49295,9.17688 2.00985,9.20441 c 1.1054,5.06242 3.95209,15.90043 6.32592,24.08447 9.98893,34.43773 15.92198,84.70859 15.94545,135.10632 l 0.0152,30.94567 -6.31989,5.41159 c -19.91802,17.05535 -58.30356,30.23424 -110.04356,37.7812 -22.48683,3.28001 -103.91424,4.84586 -135.48834,2.60547 z M 144.22889,347.02482 c 14.15909,-2.82405 29.49699,-8.52811 45.25224,-16.82901 6.01283,-3.16796 15.10276,-7.53379 20.19985,-9.70187 8.59436,-3.65568 9.22912,-4.32138 8.73989,-9.16609 -1.19792,-11.86277 16.22816,-23.10741 35.81009,-23.10741 19.55667,0 36.34642,10.43971 36.34642,22.59988 0,4.15797 0.85405,5.14947 5.21614,6.05569 2.86888,0.59601 15.57187,6.11626 28.22887,12.26723 12.65699,6.15098 26.80466,12.4271 31.43925,13.94692 34.20468,11.21678 75.05129,6.82441 101.46835,-10.91126 5.60867,-3.7655 10.71044,-7.70834 11.33727,-8.76188 2.5391,-4.26753 -5.76098,-58.02385 -8.9429,-57.91971 -0.58251,0.0191 -3.63312,5.73042 -6.77913,12.69185 -7.9152,17.51467 -25.02552,35.21611 -42.31117,43.77297 -36.95345,18.29293 -76.88105,11.213 -105.38281,-18.68642 -20.32138,-21.31788 -28.93742,-44.39898 -27.18518,-72.82503 0.5045,-8.18405 1.42921,-16.65258 2.05493,-18.81894 l 1.13767,-3.93885 h -24.83004 -24.83005 l 1.13767,3.93885 c 0.62572,2.16636 1.55043,10.63489 2.05493,18.81894 1.75224,28.42605 -6.8638,51.50715 -27.18517,72.82503 -28.50177,29.89942 -68.42937,36.97935 -105.38282,18.68642 -16.089624,-7.96479 -34.104358,-26.14157 -41.714405,-42.08962 -2.880052,-6.03559 -5.632897,-10.30752 -6.117422,-9.49316 -2.097093,3.52466 -6.459388,31.86226 -5.509819,35.79218 1.91936,7.94366 22.327716,28.79989 33.696365,34.43586 17.730225,8.78968 39.084361,10.99819 62.050981,6.41743 z m 17.09687,-29.90492 c 30.30374,-8.19891 53.95651,-33.80037 60.23943,-65.20237 2.18785,-10.93487 1.3058,-31.22621 -1.74066,-40.04286 l -1.88195,-5.44652 -20.56165,-1.21871 c -44.49006,-2.637 -75.61011,-9.47916 -99.338906,-21.84098 l -13.050347,-6.79875 -5.069819,5.99792 C 73.275772,190.43038 67.012335,203.4562 63.889785,215.90898 48.972406,275.39952 104.05408,332.61522 161.32576,317.1199 Z M 95.185887,250.00964 c -6.3294,-3.526 -11.901053,-12.6828 -11.901053,-19.55896 0,-11.2215 11.533151,-22.75779 22.751616,-22.75779 11.21847,0 22.75162,11.53629 22.75162,22.75779 0,11.22149 -11.53315,22.75778 -22.75162,22.75778 -2.80967,0 -7.692416,-1.43946 -10.850563,-3.19882 z m 293.911833,67.04108 c 43.28691,-11.71163 69.98758,-57.60146 59.00314,-101.4074 -3.00646,-11.98974 -11.23611,-28.77942 -16.73846,-34.14889 l -3.8379,-3.7452 -10.75186,6.066 c -22.05645,12.44389 -50.87623,19.22366 -96.42422,22.68354 l -27.24308,2.06942 -1.971,7.8777 c -14.74047,58.91461 40.89107,116.04619 97.96338,100.60483 z m 4.3872,-67.04108 c -6.3294,-3.526 -11.90105,-12.6828 -11.90105,-19.55896 0,-11.2215 11.53315,-22.75779 22.75162,-22.75779 11.21847,0 22.75162,11.53629 22.75162,22.75779 0,11.22149 -11.53315,22.75778 -22.75162,22.75778 -2.80967,0 -7.69242,-1.43946 -10.85057,-3.19882 z m 75.54091,-71.99199 c 3.86963,-5.73025 9.47782,-15.77431 12.46265,-22.32013 5.0404,-11.05371 5.42697,-13.21088 5.42697,-30.28279 0,-16.88391 -0.40498,-19.21153 -4.97152,-28.573167 -8.02171,-16.44497 -22.85395,-27.32716 -37.356,-27.40755 -9.17957,-0.0509 -28.48547,10.00642 -38.37686,19.99221 -4.1452,4.18473 -9.56928,11.775117 -12.05354,16.867507 -5.00386,10.25716 -4.9198,10.48109 6.22725,16.58818 4.47511,2.45177 4.47612,2.4508 6.45233,-6.10612 2.55956,-11.08278 11.30637,-21.708567 21.05238,-25.574797 9.59597,-3.80673 25.44728,-2.87182 32.27659,1.90364 l 4.8404,3.38467 -10.33837,1.0483 c -18.15613,1.84101 -30.49701,12.885467 -34.37979,30.768187 -1.25634,5.78624 -0.81117,6.46465 15.07949,22.98043 10.59088,11.00753 18.12128,20.57193 21.32105,27.07997 2.72086,5.534 5.02673,10.06367 5.12415,10.06595 0.0974,0.002 3.34319,-4.68422 7.21282,-10.41449 z M 71.160984,152.92378 c 6.204653,-6.53367 13.740782,-13.6236 16.746929,-15.75539 6.794982,-4.81859 6.995955,-9.27863 0.938968,-20.83845 C 82.971401,105.11648 73.239858,98.973953 59.074446,97.537603 l -10.338371,-1.0483 4.8404,-3.38467 c 6.829312,-4.77546 22.680619,-5.71037 32.276596,-1.90364 8.945937,3.54885 18.844149,14.803937 20.349519,23.139047 0.58224,3.22387 1.67282,6.25587 2.42348,6.73779 1.31365,0.84332 13.42078,-5.71788 13.42078,-7.27311 0,-3.64168 -10.16439,-20.035227 -16.20067,-26.129097 -9.891389,-9.98579 -29.197286,-20.04308 -38.376858,-19.99221 -14.502052,0.0803 -29.334289,10.96258 -37.356005,27.40755 -4.566537,9.361637 -4.971516,11.689257 -4.971516,28.573167 0,16.42454 0.499474,19.49943 4.691958,28.88488 2.580573,5.77699 7.832271,15.34906 11.670436,21.27128 l 6.978478,10.76769 5.698556,-9.89239 c 3.134213,-5.44081 10.775101,-15.2381 16.979755,-21.77181 z m 182.751306,9.03542 c 5.95452,-3.15547 8.76529,-3.55071 18.54024,-2.60701 10.85807,1.04824 11.42538,0.92536 9.84945,-2.13335 -1.40678,-2.73043 -0.6151,-3.86284 4.98688,-7.13331 3.66253,-2.1382 6.65913,-4.5029 6.65913,-5.25491 0,-2.22284 -5.52803,-6.76286 -10.95756,-8.99911 -5.41781,-2.23144 -5.08256,-2.5369 4.63767,-4.22565 3.86147,-0.67086 6.31989,-2.07111 6.31989,-3.5996 0,-3.27479 -8.63395,-7.84333 -14.82285,-7.84333 -2.68312,0 -6.17229,-1.48512 -7.75371,-3.30026 -2.92539,-3.35776 -12.00519,-6.17914 -14.57547,-4.52908 -0.77795,0.49943 -0.38996,3.439 0.8622,6.53238 2.73657,6.76051 0.82552,11.70639 -4.63811,12.00362 -2.85221,0.15511 -3.03699,0.39191 -0.78336,1.00368 4.75576,1.29096 3.42144,3.34392 -3.59201,5.5266 -6.6923,2.08274 -11.66536,6.44894 -9.68651,8.50445 0.60806,0.63161 5.90067,-0.61002 11.76137,-2.75918 7.68897,-2.8196 13.56577,-3.76039 21.10719,-3.37895 l 10.45133,0.52863 -4.69819,5.54562 c -3.72201,4.39335 -6.44902,5.75747 -13.12472,6.56532 l -8.42652,1.01971 6.74122,-2.90906 c 8.51889,-3.67617 8.5917,-3.74786 6.26229,-6.16752 -2.25885,-2.34636 -18.74409,1.10353 -23.60513,4.93991 -2.63376,2.07857 -2.55563,2.27833 0.91111,2.32924 5.01931,0.0737 4.79036,1.15965 -1.38187,6.55445 -3.91584,3.42263 -4.63293,4.87838 -2.94928,5.98728 3.19261,2.10275 4.10185,1.93469 11.90532,-2.20057 z m 14.78193,-32.60562 c 0.0718,-3.65371 3.32954,-5.91279 7.74094,-5.36799 l 4.87304,0.60184 -5.39354,3.03955 c -5.96705,3.36274 -7.25867,3.6716 -7.22044,1.7266 z m -20.69168,2.0487 7.71821,-8.01723 -6.20725,2.69403 c -3.414,1.48173 -7.33591,2.24415 -8.71538,1.6943 -2.53384,-1.01001 -7.52112,2.1285 -7.52112,4.73306 0,1.54434 4.77768,6.91308 6.15201,6.91308 0.47042,0 4.32852,-3.60776 8.57353,-8.01724 z"
     style="fill:#000000;stroke-width:1.71764183" />
</svg>
