<?xml version="1.0" encoding="UTF-8" standalone="no"?>
<svg
   xmlns:dc="http://purl.org/dc/elements/1.1/"
   xmlns:cc="http://creativecommons.org/ns#"
   xmlns:rdf="http://www.w3.org/1999/02/22-rdf-syntax-ns#"
   xmlns:svg="http://www.w3.org/2000/svg"
   xmlns="http://www.w3.org/2000/svg"
   version="1.1"
   id="svg62"
   width="100"
   height="100"
   viewBox="0 0 512 512">
  <metadata
     id="metadata68">
    <rdf:RDF>
      <cc:Work
         rdf:about="">
        <dc:format>image/svg+xml</dc:format>
        <dc:type
           rdf:resource="http://purl.org/dc/dcmitype/StillImage" />
        <dc:title></dc:title>
      </cc:Work>
    </rdf:RDF>
  </metadata>
  <defs
     id="defs66" />
  <g
     id="g70">
    <path
       style="fill:#000000;stroke-width:1.90113"
       d="M 213.57335,450.57784 C 144.21669,443.87664 85.393564,425.57007 48.457848,399.19158 27.138327,383.96575 10.386621,359.8221 9.2745773,342.7181 9.0307493,338.96787 8.9819333,303.90086 9.1661013,264.7914 l 0.334839,-71.1081 3.7019767,7.79265 c 18.676044,39.31313 80.741783,71.19407 165.679213,85.10352 35.58817,5.82794 114.4677,6.33202 148.7879,0.95081 81.07206,-12.71162 138.71699,-38.90986 164.47814,-74.75135 l 8.67898,-12.07504 0.72624,74.4164 0.72623,74.41639 -4.37315,10.71494 c -15.94029,39.05632 -79.40645,72.26586 -164.346,85.99629 -23.70218,3.83144 -97.56077,6.49675 -119.98711,4.32993 z M 197.8039,285.30934 C 51.846834,267.69763 -27.77543,196.532 27.158041,132.78763 90.679392,59.077947 292.22765,36.894063 420.33858,89.51128 c 39.27607,16.13131 70.52467,41.87423 78.65248,64.79469 4.07962,11.50452 5.09954,18.91228 2.60682,18.93328 -0.76528,0.006 -1.46197,4.60901 -1.54818,10.22788 -0.20337,13.25554 -5.14816,23.17041 -18.19826,36.48968 -13.65726,13.93897 -22.44215,20.08367 -44.72283,31.28191 -30.49677,15.32765 -58.27003,23.79978 -102.49007,31.26419 -31.10543,5.25065 -104.16073,6.74898 -136.83464,2.80643 z m 205.9916,-31.4275 c 15.31151,-6.90726 18.51217,-9.58002 13.0104,-10.86449 -1.48392,-0.34641 -19.37142,-9.82848 -39.74994,-21.07122 l -37.05187,-20.44135 21.66142,-6.17887 21.66143,-6.17891 -52.22549,-0.16716 -52.22546,-0.16714 -10.38562,19.80945 c -5.71208,10.8952 -10.10843,20.10053 -9.76965,20.45626 0.33879,0.35576 9.73201,-2.91938 20.87386,-7.27808 l 20.25791,-7.9249 41.73723,24.33615 c 22.95548,13.38489 42.80824,23.9807 44.11727,23.54629 1.30905,-0.43444 9.44887,-3.97872 18.08851,-7.8762 z m -192.07738,4.22233 c 0,-0.46348 -9.60081,-4.16085 -21.33516,-8.21638 -11.73433,-4.05551 -21.33514,-8.05968 -21.33514,-8.8981 0,-0.83845 0.86797,-1.52447 1.9288,-1.52447 3.40242,0 77.65969,-41.84209 76.33692,-43.01392 -0.7005,-0.62056 -8.88398,-4.41721 -18.18549,-8.437 l -16.91186,-7.30872 -41.9959,24.46011 -41.99587,24.4601 -19.85874,-7.6659 c -10.922308,-4.21624 -20.13097,-7.38002 -20.463707,-7.03061 -0.332738,0.3494 3.805152,10.34749 9.195329,22.218 l 9.800298,21.58269 52.41025,0.10856 c 28.82565,0.0596 52.41027,-0.2708 52.41027,-0.7343 z M 359.68899,135.50694 c 14.5493,-8.18396 27.14277,-14.87993 27.98546,-14.87993 0.84268,0 9.74019,3.50704 19.77219,7.7934 10.03201,4.28636 18.47122,7.55059 18.75385,7.25382 0.28261,-0.29677 -3.97331,-9.28302 -9.45758,-19.96945 l -9.97144,-19.429863 -50.39774,-0.97407 c -27.71876,-0.535754 -50.68397,-0.486002 -51.03383,0.1106 -0.34985,0.59655 7.4533,3.17839 17.34032,5.737393 9.88704,2.559 18.60144,5.18194 19.36538,5.82876 0.76393,0.64679 -16.64632,11.11974 -38.68942,23.27319 l -40.07838,22.09719 18.28187,8.39664 18.2819,8.39662 16.69707,-9.37717 c 9.18339,-5.15745 28.60105,-16.07313 43.15035,-24.2571 z M 246.9675,145.67877 c 5.61207,-10.82661 10.45499,-20.36877 10.76208,-21.20483 0.30708,-0.83605 -8.26496,1.38859 -19.04895,4.94364 l -19.60726,6.46372 -43.85544,-22.38051 -43.85544,-22.380519 -14.08768,6.214926 c -7.74822,3.418223 -16.17034,7.048723 -18.715808,8.067783 -4.221684,1.69011 -2.02212,3.29096 25.045618,18.22814 16.32055,9.00643 34.46318,18.80917 40.31693,21.7839 5.85376,2.97473 10.65417,5.88322 10.66758,6.4633 0.0126,0.5801 -8.11545,3.16192 -18.06412,5.73738 -9.94867,2.57549 -18.8816,5.3884 -19.85096,6.25093 -0.96936,0.86253 21.15427,1.55217 49.16361,1.53255 l 50.92608,-0.0356 z"
       id="path74" />
  </g>
</svg>
