<?xml version="1.0" encoding="UTF-8" standalone="no"?>
<!-- Created with Inkscape (http://www.inkscape.org/) -->

<svg
   xmlns:dc="http://purl.org/dc/elements/1.1/"
   xmlns:cc="http://creativecommons.org/ns#"
   xmlns:rdf="http://www.w3.org/1999/02/22-rdf-syntax-ns#"
   xmlns:svg="http://www.w3.org/2000/svg"
   xmlns="http://www.w3.org/2000/svg"
   xmlns:sodipodi="http://sodipodi.sourceforge.net/DTD/sodipodi-0.dtd"
   xmlns:inkscape="http://www.inkscape.org/namespaces/inkscape"
   version="1.1"
   id="svg64"
   width="100"
   height="100"
   viewBox="0 0 512 512"
   sodipodi:docname="binwalk.svg"
   inkscape:version="0.92.5 (2060ec1f9f, 2020-04-08)">
  <metadata
     id="metadata70">
    <rdf:RDF>
      <cc:Work
         rdf:about="">
        <dc:format>image/svg+xml</dc:format>
        <dc:type
           rdf:resource="http://purl.org/dc/dcmitype/StillImage" />
        <dc:title></dc:title>
      </cc:Work>
    </rdf:RDF>
  </metadata>
  <defs
     id="defs68" />
  <sodipodi:namedview
     pagecolor="#ffffff"
     bordercolor="#666666"
     borderopacity="1"
     objecttolerance="10"
     gridtolerance="10"
     guidetolerance="10"
     inkscape:pageopacity="0"
     inkscape:pageshadow="2"
     inkscape:window-width="1366"
     inkscape:window-height="692"
     id="namedview66"
     showgrid="false"
     inkscape:zoom="0.96484375"
     inkscape:cx="246.90353"
     inkscape:cy="249.47164"
     inkscape:window-x="0"
     inkscape:window-y="24"
     inkscape:window-maximized="1"
     inkscape:current-layer="svg64" />
  <path
     style="fill:#000000;stroke-width:2.12837577"
     d="M 48.578104,490.62286 C 39.016285,487.783 25.29748,473.23124 22.635933,463.10558 21.099911,457.26188 20.566986,389.94648 20.94822,249.92542 l 0.55717,-204.639631 6.508447,-8.277697 c 9.826039,-12.497135 20.535664,-17.89663 35.548498,-17.922588 11.822985,-0.02154 12.84254,0.384075 16.199263,6.427205 3.045625,5.483057 4.84729,6.449007 12.028417,6.449007 6.946343,0 9.274495,-1.147636 13.110345,-6.462643 l 4.66411,-6.462642 h 155.21526 c 102.07492,0 155.21523,0.737538 155.21523,2.154214 0,4.809972 8.64409,10.771071 15.61894,10.771071 5.57774,0 8.37379,-1.526541 12.36491,-6.750834 4.54647,-5.951188 6.01467,-6.5861 12.39484,-5.359921 8.2857,1.592352 18.37874,8.632087 25.30188,17.647581 l 4.76482,6.20489 0.58831,207.934918 c 0.32357,114.36419 0.0734,210.09827 -0.5561,212.74237 -0.62942,2.6441 -4.19804,8.37031 -7.93023,12.7249 -9.99233,11.65863 -31.00466,20.44216 -31.00466,12.96051 0,-5.26363 -8.36649,-10.88954 -16.19421,-10.88954 -5.94807,0 -8.77937,1.47956 -13.19133,6.89349 l -5.61772,6.89349 H 262.60892 108.68339 l -2.33055,-5.23994 c -3.40333,-7.65196 -12.524859,-10.99123 -20.027791,-7.33193 -3.266965,1.59334 -6.874037,5.07384 -8.015715,7.73443 -1.772989,4.1318 -3.613434,4.80909 -12.617084,4.64315 -5.797718,-0.10685 -13.499083,-1.07274 -17.114146,-2.14642 z M 406.7795,475.11474 c 3.11597,-3.19384 3.75265,-7.61287 3.75265,-26.04574 0,-28.49662 -0.62562,-29.33928 -21.81165,-29.37812 -23.02124,-0.0422 -25.50241,-1.03439 -25.50241,-10.19766 0,-7.54923 -0.0221,-7.56664 -7.88568,-6.23512 -4.33712,0.7344 -12.38051,1.34593 -17.8742,1.35897 -9.69133,0.0231 -9.98852,0.216 -9.98852,6.48636 v 6.46264 h -15.77136 -15.77135 v -6.46264 -6.46265 h -17.74097 -17.74096 l -0.65895,7.0012 -0.65895,7.0012 -16.77094,1.0771 c -15.27639,0.98112 -17.00705,1.55705 -19.42034,6.46265 -3.19913,6.50299 -3.51779,32.48367 -0.53345,43.49119 1.82293,6.72375 3.19643,8.08832 8.92536,8.86722 3.724,0.5063 43.87974,0.80789 89.23498,0.6702 76.16822,-0.23126 82.75059,-0.54403 86.21674,-4.0968 z M 232.84156,448.80217 v -18.31082 h 83.06247 83.06246 v 18.31082 18.31083 h -83.06246 -83.06247 z m 33.22499,7.10891 c 1.38787,-1.42178 2.52341,-4.62079 2.52341,-7.10891 0,-2.48811 -1.13554,-5.68712 -2.52341,-7.1089 -5.89849,-6.04257 -16.40221,-1.49014 -16.40221,7.1089 0,2.48812 1.13553,5.68713 2.52341,7.10891 1.38788,1.42178 4.51061,2.58506 6.9394,2.58506 2.42879,0 5.55152,-1.16328 6.9394,-2.58506 z m 54.67402,0 c 1.38788,-1.42178 2.52342,-4.62079 2.52342,-7.10891 0,-2.48811 -1.13554,-5.68712 -2.52342,-7.1089 -1.38787,-1.42178 -4.5106,-2.58506 -6.93939,-2.58506 -2.42879,0 -5.55152,1.16328 -6.9394,2.58506 -1.38788,1.42178 -2.52341,4.62079 -2.52341,7.1089 0,2.48812 1.13553,5.68713 2.52341,7.10891 1.38788,1.42178 4.51061,2.58506 6.9394,2.58506 2.42879,0 5.55152,-1.16328 6.93939,-2.58506 z m 55.99582,-0.80014 c 3.87498,-3.96963 4.08507,-6.1749 1.12765,-11.83592 -4.39213,-8.40723 -18.85165,-3.5683 -18.85165,6.30877 0,3.53888 6.33929,8.91235 10.51424,8.91235 2.14791,0 5.39231,-1.52333 7.20976,-3.3852 z m -68.19233,-58.14295 c 41.05809,-0.7096 81.74819,-2.07408 90.42243,-3.03221 54.42007,-6.01107 82.13324,-43.00974 75.36361,-100.61483 -2.79681,-23.79901 -13.11588,-36.83965 -38.06499,-48.10438 l -10.01544,-4.52206 10.2243,-10.20206 c 13.3503,-13.32122 17.88381,-26.63696 16.8519,-49.49698 -1.04129,-23.06795 -8.63633,-38.81776 -23.55588,-48.84782 -13.85154,-9.31207 -34.02622,-16.15723 -52.22718,-17.7204 l -14.32472,-1.23027 V 101.66125 90.125498 h -17.8742 -17.8742 v 10.643952 c 0,5.85416 -0.90534,11.21712 -2.01188,11.91772 -1.10654,0.70057 -8.20365,0.62392 -15.77136,-0.1704 l -13.75947,-1.44415 V 100.59905 90.125455 h -17.8742 -17.87421 V 102.112 114.09852 l -37.85125,-1.53059 -37.85126,-1.53059 v 21.85728 21.85728 h 18.64204 c 15.67554,0 19.52375,0.71048 24.18275,4.46478 l 5.54071,4.46479 v 64.47006 64.47007 h -8.04484 c -11.33378,0 -15.2708,-5.24781 -26.67232,-35.55274 -11.84838,-31.49273 -17.12014,-41.0264 -28.52023,-51.57729 -10.57837,-9.79036 -23.30135,-15.85057 -38.64955,-18.40959 -7.42434,-1.23787 -15.16625,-4.56562 -22.2735,-9.57397 -8.01699,-5.64943 -13.107545,-7.67661 -19.27707,-7.67661 -24.04794,0 -38.636783,21.42084 -30.129921,44.23987 8.349237,22.3962 36.671787,27.70668 52.458861,9.83603 8.26339,-9.35398 30.13342,-2.60404 40.90135,12.62376 5.54412,7.84037 16.78708,35.69729 20.4633,50.70232 l 1.3201,5.38822 h -39.8155 c -39.513081,0 -39.852199,-0.0401 -44.646087,-5.26752 -5.683916,-6.19804 -20.51742,-9.98718 -30.273228,-7.73314 -25.438596,5.87748 -32.989992,37.2491 -13.414486,55.72933 11.589162,10.94072 29.284794,10.22858 43.853124,-1.76484 l 7.891136,-6.4964 60.580171,0.25487 c 33.31909,0.14024 63.41903,0.87159 66.88872,1.62535 5.47859,1.19016 6.39432,2.4303 6.96045,9.42637 0.80726,9.97545 -2.45768,11.82765 -24.77319,14.05385 l -15.70989,1.56724 -2.59636,16.1566 c -1.42798,8.88614 -3.17808,19.43578 -3.88907,23.44363 l -1.29273,7.28702 24.8561,-1.32293 c 13.67085,-0.72761 58.44907,-1.90348 99.50716,-2.61308 z m -3.38047,-43.59942 c -3.92051,-0.57337 -4.58776,-2.53723 -5.78283,-17.02017 -0.743,-9.00461 -1.35094,-27.50552 -1.35094,-41.11315 V 270.4941 l 31.017,1.16657 c 35.21741,1.32454 49.32662,4.77611 60.46052,14.7906 4.01738,3.61348 8.38474,10.26414 9.70525,14.77922 6.43048,21.98735 -8.38489,40.80385 -37.39109,47.48909 -11.03547,2.54342 -49.48369,5.69824 -56.65791,4.64899 z M 56.040612,322.94635 c -9.490336,-9.72216 -7.609893,-20.74836 4.645735,-27.24079 17.771012,-9.41424 32.899873,16.51228 17.076019,29.26338 -7.448362,6.00199 -14.532411,5.34237 -21.721754,-2.02259 z M 301.28882,230.32302 c -2.26998,-3.76261 -4.12583,-72.61536 -1.99329,-73.95169 3.67319,-2.30175 53.05921,2.48179 61.08386,5.9166 35.13072,15.0371 30.41468,54.11127 -7.75755,64.27422 -16.40242,4.36698 -49.50426,6.79215 -51.33302,3.76087 z M 77.367584,213.45428 c -8.946174,-8.49577 -9.338141,-16.09967 -1.288574,-24.99746 6.736013,-7.44582 14.947126,-7.41366 22.590951,0.0885 7.886159,7.73999 7.799409,16.29125 -0.248889,24.53613 -7.669784,7.85715 -13.071683,7.9528 -21.053488,0.37286 z M 400.83376,80.156678 c 8.33928,-1.708593 9.69839,-6.298405 9.69839,-32.751961 0,-17.412535 -0.54604,-20.510381 -4.0819,-23.157802 -5.92637,-4.437272 -175.02418,-4.544207 -180.93783,-0.114389 -4.64563,3.479939 -6.62334,22.395512 -4.3179,41.298203 1.16422,9.545732 2.41192,12.425205 6.03172,13.920101 5.18783,2.14243 163.49739,2.877298 173.60752,0.80587 z M 232.84156,51.349643 V 34.11593 h 83.06247 83.06246 v 17.233713 17.233714 h -83.06246 -83.06247 z m 33.22499,6.0318 c 5.89848,-6.042549 1.4546,-16.802871 -6.9394,-16.802871 -5.6366,0 -9.46281,3.919701 -9.46281,9.693964 0,5.774285 3.82621,9.693964 9.46281,9.693964 2.42879,0 5.55152,-1.163276 6.9394,-2.585057 z m 54.67402,0 c 5.89849,-6.042549 1.45461,-16.802871 -6.93939,-16.802871 -5.6366,0 -9.46281,3.919701 -9.46281,9.693964 0,5.774285 3.82621,9.693964 9.46281,9.693964 2.42879,0 5.55152,-1.163276 6.93939,-2.585057 z m 57.62069,-2.891796 c 2.07953,-4.675549 1.79327,-6.135202 -1.95662,-9.976682 -8.47556,-8.682625 -20.94648,0.316583 -15.33192,11.063742 3.46537,6.633235 14.15372,5.961163 17.28854,-1.08706 z"
     id="path76"
     inkscape:connector-curvature="0" />
</svg>
