<?xml version="1.0" encoding="UTF-8" standalone="no"?>
<svg
   xmlns:dc="http://purl.org/dc/elements/1.1/"
   xmlns:cc="http://creativecommons.org/ns#"
   xmlns:rdf="http://www.w3.org/1999/02/22-rdf-syntax-ns#"
   xmlns:svg="http://www.w3.org/2000/svg"
   xmlns="http://www.w3.org/2000/svg"
   version="1.1"
   id="svg62"
   width="100"
   height="100"
   viewBox="0 0 512 512">
  <metadata
     id="metadata68">
    <rdf:RDF>
      <cc:Work
         rdf:about="">
        <dc:format>image/svg+xml</dc:format>
        <dc:type
           rdf:resource="http://purl.org/dc/dcmitype/StillImage" />
        <dc:title></dc:title>
      </cc:Work>
    </rdf:RDF>
  </metadata>
  <defs
     id="defs66" />
  <g
     id="g70">
    <path
       style="fill:#000000;stroke-width:1.03565"
       d="m 407.67726,415.56147 -2.77999,-7.73313 7.63517,-4.342 c 24.02028,-13.65998 47.41931,-41.31897 59.88558,-70.78818 8.92723,-21.10321 13.28591,-39.611 14.95327,-63.49456 4.61292,-66.07616 -25.08864,-130.24803 -73.6946,-159.22131 -4.4745,-2.66718 -8.14251,-5.30276 -8.15113,-5.85682 -0.0217,-1.39759 4.79649,-14.536149 5.33074,-14.536149 1.8203,0 17.86208,10.493179 25.21131,16.491129 51.90579,42.36191 76.42982,120.65443 61.01394,194.78592 -6.86932,33.03301 -19.97794,60.78781 -40.00071,84.69328 -12.26725,14.64603 -25.06528,25.82802 -38.03396,33.23133 -9.05652,5.17002 -8.26972,5.39351 -11.36962,-3.22951 z m -18.11739,-49.19185 c -1.53491,-4.18394 -2.66128,-7.72015 -2.50303,-7.85824 0.15823,-0.13809 3.4317,-2.07355 7.27438,-4.30104 13.01991,-7.54727 26.61229,-22.2304 35.33913,-38.17503 10.42726,-19.05142 15.7343,-45.69623 13.91435,-69.85919 -1.97046,-26.16123 -11.79303,-50.91049 -27.33924,-68.8848 -7.44126,-8.60349 -12.03927,-12.53459 -21.71189,-18.56275 l -7.60392,-4.73891 2.35326,-6.58211 c 1.29428,-3.62015 2.71983,-7.03699 3.16789,-7.59298 1.09096,-1.35371 11.51036,4.7644 19.80551,11.62951 38.25344,31.65874 54.59474,90.571 40.22001,144.99776 -7.90768,29.94069 -26.82792,57.41822 -49.15437,71.38601 -11.43708,7.15521 -10.56843,7.24725 -13.76208,-1.45823 z M 61.444299,294.71274 10.361182,231.56788 l 8.61138,-0.7555 c 4.73626,-0.41552 35.585425,-0.75549 68.553696,-0.75549 32.968282,0 59.929892,-0.38858 59.914702,-0.86353 -0.0152,-0.47494 -13.63008,-17.70236 -30.25529,-38.28317 l -30.227662,-37.41964 9.983836,-12.38446 9.983846,-12.38446 37.50526,46.34465 37.50525,46.34465 37.50525,-46.34465 37.50527,-46.34465 10.22644,12.67887 10.22645,12.67886 -30.72549,37.98877 -30.7255,37.98876 h 69.39256 69.39256 l -51.69439,63.90034 -51.6944,63.90033 -34.70437,-42.88201 -34.70438,-42.88201 -34.70438,42.88204 -34.70439,42.88202 z M 121.63729,275.84676 113.5056,265.74948 H 96.262074 79.018552 l 16.744729,20.71991 16.744729,20.71991 8.63048,-10.62263 8.63049,-10.62264 z m 138.55079,21.56414 7.87819,-9.78802 -8.81191,-10.9367 -8.81192,-10.9367 h -15.62197 c -8.59209,0 -15.62198,0.38318 -15.62198,0.85153 0,0.96026 31.84364,40.59791 32.61508,40.59791 0.27298,0 4.04151,-4.40461 8.37451,-9.78802 z m 111.09178,19.31209 -2.82403,-7.79701 3.38924,-1.73953 c 9.09338,-4.66717 16.56583,-12.22508 21.44382,-21.68906 5.11425,-9.92235 6.88697,-18.78369 6.42053,-32.0944 -0.37508,-10.70379 -0.72214,-12.54522 -3.82856,-20.3138 -4.43785,-11.09822 -11.72453,-20.17392 -20.21376,-25.17665 -3.51069,-2.06885 -6.40666,-4.21488 -6.4355,-4.76894 -0.10416,-2.00158 4.88229,-14.53615 5.78271,-14.53615 2.26647,0 12.96233,7.52901 17.67712,12.44325 10.07884,10.50522 16.18135,22.3801 19.33626,37.62644 6.39176,30.88871 -4.9583,64.21608 -27.12224,79.63955 -10.68595,7.43616 -10.34039,7.47657 -13.62559,-1.5937 z"
       id="path74" />
  </g>
</svg>
