<?xml version="1.0" encoding="UTF-8" standalone="no"?>
<svg
   xmlns:dc="http://purl.org/dc/elements/1.1/"
   xmlns:cc="http://creativecommons.org/ns#"
   xmlns:rdf="http://www.w3.org/1999/02/22-rdf-syntax-ns#"
   xmlns:svg="http://www.w3.org/2000/svg"
   xmlns="http://www.w3.org/2000/svg"
   version="1.1"
   id="svg62"
   width="100"
   height="100"
   viewBox="0 0 512 512">
  <metadata
     id="metadata68">
    <rdf:RDF>
      <cc:Work
         rdf:about="">
        <dc:format>image/svg+xml</dc:format>
        <dc:type
           rdf:resource="http://purl.org/dc/dcmitype/StillImage" />
        <dc:title></dc:title>
      </cc:Work>
    </rdf:RDF>
  </metadata>
  <defs
     id="defs66" />
  <g
     id="g70">
    <path
       style="fill:#000000;stroke-width:1.12603"
       d="m 108.43018,472.40313 c -0.0552,-0.4749 -0.0159,-5.91055 0.0873,-12.07922 0.15596,-9.31765 -0.13826,-11.55656 -1.73851,-13.22936 -1.38335,-1.44606 -2.05465,-1.61087 -2.38185,-0.58475 -0.33459,1.04946 -4.670969,1.42881 -16.333205,1.42881 -9.29249,0 -15.877655,0.45355 -15.877655,1.09358 0,0.61295 -7.139689,1.36803 -16.244763,1.71802 -8.934621,0.34345 -23.099493,0.91604 -31.477496,1.27245 -10.881,0.46288 -15.6791201,0.26071 -16.7953942,-0.70772 C 6.3511069,450.17195 6.1059046,439.15651 6.1059046,381.11317 V 312.2671 l 3.5793543,-1.17866 c 6.9148191,-2.27701 33.2893661,-4.62645 61.9218691,-5.51599 10.797217,-0.33545 15.931014,-0.88294 14.868089,-1.58559 -1.044698,-0.6906 4.482134,-1.07952 15.502323,-1.09087 9.41921,-0.009 17.59666,-0.50727 18.17211,-1.10574 0.57545,-0.59845 7.73691,-1.35397 15.91436,-1.67892 20.03441,-0.79611 46.71035,-2.61564 53.20582,-3.62909 3.61737,-0.5644 6.14981,-0.34975 7.98472,0.67679 2.66324,1.48994 2.68718,1.65543 2.68718,18.57787 v 17.07453 h 3.85469 c 2.12008,0 3.85469,-0.51807 3.85469,-1.15127 0,-0.6332 0.9912,-1.15127 2.20268,-1.15127 1.21147,0 2.20268,-0.51807 2.20268,-1.15127 0,-0.6332 0.70743,-1.15127 1.57207,-1.15127 0.86464,0 2.59385,-1.4247 3.84271,-3.166 1.24884,-1.7413 2.77162,-3.79173 3.38395,-4.55649 1.44317,-1.80247 1.45355,-19.55234 0.012,-20.48367 -0.60574,-0.39134 -1.10134,-1.59287 -1.10134,-2.67008 0,-1.0772 -1.20967,-3.32226 -2.68816,-4.98903 -1.4785,-1.66678 -2.3871,-3.34522 -2.01912,-3.72987 0.36794,-0.38466 -0.53162,-0.69938 -1.99905,-0.69938 -2.56471,0 -3.6044,-1.49722 -5.796,-8.34672 -0.60514,-1.89125 -5.0381,-2.01472 -72.3313,-2.01472 -47.510653,0 -71.457098,-0.38827 -71.005989,-1.15127 0.374368,-0.6332 -0.09196,-1.15127 -1.036339,-1.15127 -1.543902,0 -1.717011,-11.83956 -1.717011,-117.42972 V 40.388413 h 2.688349 c 1.478593,0 2.924575,-0.399537 3.213291,-0.887861 0.725277,-1.226738 378.486499,-0.886456 381.219339,0.343401 5.16505,2.324407 4.95603,-2.650077 4.95603,117.944277 v 114.11046 l -2.70329,2.82584 -2.70329,2.82586 h -70.94881 -70.94882 l -0.67359,3.52063 c -0.71598,3.74224 -3.02987,6.84081 -5.10844,6.84081 -1.82151,0 -4.40536,2.9904 -4.40536,5.09849 0,0.99503 -0.42341,1.80914 -0.9409,1.80914 -3.10796,0 -5.66786,22.98739 -2.80116,25.1538 0.54573,0.41239 1.69029,2.16593 2.54348,3.89674 0.85319,1.73081 2.46311,3.44945 3.5776,3.81922 1.11449,0.36975 2.02634,1.15545 2.02634,1.74598 0,0.59052 1.23901,1.07369 2.75335,1.07369 1.51434,0 2.75335,0.51807 2.75335,1.15127 0,0.6332 1.48681,1.15127 3.30402,1.15127 h 3.30402 v -16.98804 -16.98804 l 3.3957,-1.57123 c 2.2847,-1.05715 5.07733,-1.3107 8.53539,-0.77495 6.89036,1.06749 34.63193,2.96683 53.35221,3.6528 9.13402,0.33468 14.9158,0.98984 14.52775,1.64618 -0.3951,0.66826 5.98747,1.09022 16.49119,1.09022 9.80269,0 17.13577,0.45718 17.13577,1.06832 0,0.58759 7.31014,1.34958 16.24476,1.69331 8.93462,0.34374 19.71399,0.89755 23.95415,1.23069 14.44572,1.13498 34.13598,3.00247 36.34422,3.447 1.21147,0.24387 2.57819,0.48305 3.03715,0.5315 0.45895,0.0485 0.70675,31.82001 0.55067,70.60347 l -0.2838,70.5154 -15.41876,-0.24021 c -26.75862,-0.41689 -48.42105,-1.60575 -49.50523,-2.71692 -0.57545,-0.58978 -8.0921,-1.07232 -16.70366,-1.07232 -8.6566,0 -15.82152,-0.47879 -16.0245,-1.07081 -0.20191,-0.58896 -1.31775,-0.33861 -2.47967,0.55629 -1.80322,1.38889 -1.92417,2.05932 -0.826,4.57881 0.70761,1.62343 1.28655,7.07188 1.28655,12.10768 v 9.15601 H 257.2114 c -81.77449,0 -148.72604,-0.38856 -148.78122,-0.86346 z M 62.824911,436.45857 c 10.297528,-0.76709 19.583355,-1.86537 20.635179,-2.4406 1.051823,-0.57524 7.289427,-1.0459 13.861354,-1.0459 h 11.948946 l 0.24544,-7.1097 c 0.13499,-3.91034 0.71192,-8.02085 1.28207,-9.13449 0.57015,-1.11363 1.03663,-5.68534 1.03663,-10.15937 0,-4.65555 0.47103,-8.13459 1.10134,-8.13459 0.60574,0 1.10134,-2.8494 1.10134,-6.33199 0,-3.4826 0.49561,-6.332 1.10134,-6.332 0.60574,0 1.10134,-1.84383 1.10134,-4.0974 0,-2.43842 0.44591,-3.8093 1.10134,-3.38586 0.60574,0.39134 1.10134,0.12587 1.10134,-0.58993 0,-1.43443 2.69665,-4.5908 3.92218,-4.5908 0.42652,0 1.57702,-0.93626 2.55667,-2.08057 2.15416,-2.51624 11.92423,-8.28087 14.03465,-8.28087 0.83232,0 1.5133,-0.51807 1.5133,-1.15127 0,-0.6332 0.99121,-1.15128 2.20268,-1.15128 1.21147,0 2.20268,-0.51807 2.20268,-1.15127 0,-0.6332 1.23901,-1.15127 2.75335,-1.15127 1.51434,0 2.75335,-0.51807 2.75335,-1.15127 0,-0.6332 0.99121,-1.15127 2.20268,-1.15127 1.21147,0 2.20268,-0.51807 2.20268,-1.15127 0,-0.6332 0.72659,-1.15128 1.61464,-1.15128 1.99128,0 9.81359,-3.70993 10.31654,-4.8929 0.20192,-0.4749 1.31702,-0.86345 2.47801,-0.86345 1.161,0 2.11091,-0.51808 2.11091,-1.15128 0,-0.6332 1.23901,-1.15127 2.75335,-1.15127 1.51434,0 2.75335,-0.51807 2.75335,-1.15127 0,-0.6332 1.2744,-1.15127 2.83202,-1.15127 1.5576,0 3.57997,-0.78188 4.49415,-1.73749 0.91416,-0.95562 2.11777,-1.44312 2.67468,-1.08332 0.59693,0.38565 1.01255,-5.79196 1.01255,-15.05043 v -15.70459 l -7.43405,0.60352 c -4.08872,0.33194 -14.37248,1.11972 -22.8528,1.75062 -8.48032,0.6309 -20.37479,1.68365 -26.43216,2.33942 -6.05737,0.65579 -14.60652,1.20571 -18.99811,1.22204 -4.56998,0.017 -7.98471,0.52206 -7.98471,1.18098 0,0.71458 -6.057371,1.15127 -15.969431,1.15127 -9.912059,0 -15.969429,0.43669 -15.969429,1.15127 0,0.71635 -6.240929,1.15127 -16.520098,1.15127 -10.279169,0 -16.520099,0.43493 -16.520099,1.15128 0,0.68672 -4.2218,1.15127 -10.46273,1.15127 H 18.220644 v 58.26048 58.26048 l 12.940744,-0.55883 c 7.11741,-0.30736 21.365995,-1.18646 31.663523,-1.95355 z M 494.55016,380.58921 v -57.56359 l -9.90377,-0.33671 c -5.44707,-0.18519 -10.37832,-0.83278 -10.95833,-1.43909 -0.58001,-0.60631 -8.14169,-1.10238 -16.80373,-1.10238 -9.76522,0 -15.74916,-0.43742 -15.74916,-1.15127 0,-0.71634 -6.24093,-1.15127 -16.5201,-1.15127 -10.27917,0 -16.5201,-0.43493 -16.5201,-1.15127 0,-0.65878 -3.41569,-1.16462 -7.98471,-1.18247 -4.3916,-0.0172 -12.69295,-0.55102 -18.44745,-1.18637 -13.73522,-1.51649 -40.53779,-3.56438 -49.56029,-3.78674 l -7.15871,-0.17642 -0.3113,13.64902 -0.31129,13.64901 3.06464,2.75521 c 1.68556,1.51536 4.42756,2.75583 6.09333,2.7566 1.66578,7.8e-4 3.02869,0.51948 3.02869,1.15268 0,0.6332 0.9912,1.15127 2.20268,1.15127 1.21147,0 2.20268,0.51807 2.20268,1.15127 0,0.6332 0.8673,1.16775 1.92734,1.18789 1.06004,0.0201 2.88938,0.79725 4.06519,1.7269 1.17581,0.92967 3.03432,1.6903 4.13003,1.6903 1.0957,0 1.99218,0.51807 1.99218,1.15127 0,0.6332 0.9912,1.15127 2.20268,1.15127 1.21147,0 2.20268,0.51808 2.20268,1.15128 0,0.6332 1.239,1.15127 2.75335,1.15127 1.51434,0 2.75335,0.51807 2.75335,1.15127 0,0.6332 0.9912,1.15127 2.20267,1.15127 1.21148,0 2.20268,0.51807 2.20268,1.15127 0,0.6332 1.26826,1.15127 2.81836,1.15127 1.59844,0 2.52372,0.49832 2.13767,1.15128 -0.37436,0.6332 0.38722,1.15127 1.69242,1.15127 3.33652,0 8.32316,3.0284 15.63961,9.49799 1.25315,1.1081 2.69823,2.01473 3.21128,2.01473 0.51305,0 0.93282,0.7771 0.93282,1.7269 0,0.9498 0.49561,1.72691 1.10134,1.72691 0.60574,0 1.10134,1.29518 1.10134,2.87818 0,1.583 0.44777,2.87818 0.99505,2.87818 0.54727,0 1.26888,2.46084 1.60358,5.46854 0.33469,3.0077 1.06509,8.57698 1.62311,12.37617 0.55802,3.7992 1.65313,12.47691 2.43358,19.2838 l 1.419,12.37617 h 12.48294 c 7.58774,0 12.48294,0.45148 12.48294,1.15128 0,0.66512 3.83679,1.20019 9.08605,1.26712 4.99733,0.0637 15.03329,0.77142 22.30214,1.5727 7.26884,0.80126 17.92431,1.39672 23.67881,1.32323 l 10.46273,-0.1336 z M 202.49351,263.08104 c 1.18629,-0.47586 1.4727,-1.83204 1.06234,-5.03018 -0.309,-2.40826 -0.0718,-4.69522 0.52701,-5.08211 0.69689,-0.45022 0.73363,-2.67977 0.1021,-6.19344 -0.96045,-5.34351 0.92976,-26.78851 2.36117,-26.78851 0.34351,0 0.73692,-1.4247 0.87426,-3.166 0.13733,-1.74129 0.74103,-3.33868 1.34155,-3.54975 0.60052,-0.21107 1.09185,-1.34616 1.09185,-2.52242 0,-1.17626 0.4956,-2.45884 1.10134,-2.85018 0.60573,-0.39134 1.10134,-1.5177 1.10134,-2.50304 0,-1.67343 7.29655,-9.58532 8.83983,-9.58532 0.38501,0 1.36311,-1.29518 2.17356,-2.87817 0.81046,-1.583 2.38101,-2.87818 3.49013,-2.87818 1.10911,0 2.01657,-0.51808 2.01657,-1.15128 0,-0.6332 0.74341,-1.15127 1.65201,-1.15127 0.90861,0 1.65201,-0.51807 1.65201,-1.15127 0,-0.6332 1.48681,-1.15127 3.30402,-1.15127 1.81721,0 3.30402,-0.46807 3.30402,-1.04016 0,-1.96285 25.05061,-4.31836 26.77337,-2.51749 0.66037,0.69031 3.33176,1.25511 5.93643,1.25511 2.60467,0 4.73576,0.51807 4.73576,1.15127 0,0.6332 1.23901,1.15127 2.75335,1.15127 1.51434,0 2.75335,0.51807 2.75335,1.15127 0,0.6332 0.99121,1.15127 2.20268,1.15127 1.21147,0 2.20268,0.51807 2.20268,1.15127 0,0.6332 0.72369,1.15128 1.60819,1.15128 1.82546,0 12.70923,10.79515 12.70923,12.60574 0,0.65076 0.81768,2.18147 1.81706,3.40157 2.18315,2.66535 4.8149,9.64263 5.5783,14.78921 0.30525,2.05789 0.99639,3.74163 1.53586,3.74163 0.53945,0 0.98084,8.69339 0.98084,19.31866 v 19.31865 l 62.50104,0.24476 c 34.37557,0.13461 63.61875,-0.0717 64.98483,-0.45853 l 2.48378,-0.70327 -0.2811,-104.9177 -0.28111,-104.917693 H 256.66073 73.83831 L 73.557116,157.17076 c -0.21877,81.44914 0.0174,104.88688 1.063553,105.56277 1.544828,0.99805 125.411921,1.33467 127.872841,0.34751 z"
       id="path74" />
  </g>
</svg>
