<?xml version="1.0" encoding="UTF-8" standalone="no"?>
<svg
   xmlns:dc="http://purl.org/dc/elements/1.1/"
   xmlns:cc="http://creativecommons.org/ns#"
   xmlns:rdf="http://www.w3.org/1999/02/22-rdf-syntax-ns#"
   xmlns:svg="http://www.w3.org/2000/svg"
   xmlns="http://www.w3.org/2000/svg"
   version="1.1"
   id="svg62"
   width="100"
   height="100"
   viewBox="0 0 512 512">
  <metadata
     id="metadata68">
    <rdf:RDF>
      <cc:Work
         rdf:about="">
        <dc:format>image/svg+xml</dc:format>
        <dc:type
           rdf:resource="http://purl.org/dc/dcmitype/StillImage" />
        <dc:title></dc:title>
      </cc:Work>
    </rdf:RDF>
  </metadata>
  <defs
     id="defs66" />
  <g
     id="g70">
    <path
       style="fill:#000000;stroke-width:0.720736"
       d="m 146.05509,468.52656 c -5.56068,-2.01596 -9.39084,-4.66092 -13.19337,-9.11088 -2.90865,-3.40387 -4.29244,-6.04955 -7.17653,-13.72078 -0.69216,-1.84105 -3.62348,-3.04196 -38.384402,-15.7255 -20.699261,-7.55272 -37.743023,-13.61206 -37.875018,-13.46517 -0.132003,0.14687 -0.760436,2.46959 -1.39653,5.16159 -4.735592,20.04141 -17.201529,34.72504 -31.268212,36.83084 l -4.208396,0.63 v -54.6387 -54.6387 l 3.689163,0.33489 c 2.316963,0.21033 5.681541,1.37061 9.045671,3.11943 8.956406,4.65592 16.148843,13.94023 20.71677,26.74211 l 1.87319,5.24971 24.186779,8.78523 c 13.302738,4.83186 24.547877,8.77512 24.989212,8.76278 1.030447,-0.0288 5.068943,-6.09042 7.312333,-10.97548 3.94709,-8.59495 4.97387,-14.11716 4.97387,-26.7505 0,-13.55533 -0.92232,-19.33995 -5.47541,-34.34096 -7.98288,-26.30102 -22.172176,-53.24921 -48.128239,-91.40475 -18.793382,-27.62637 -26.29613,-42.58655 -30.157442,-60.13273 -1.426661,-6.48288 -1.655684,-9.33902 -1.632607,-20.35991 0.0257,-12.27749 0.116468,-13.11132 2.147659,-19.73193 3.134975,-10.21835 6.522809,-16.32031 12.920181,-23.27106 6.071038,-6.59619 10.485276,-9.40044 17.747483,-11.27453 13.540431,-3.49424 30.925451,1.26444 50.569565,13.84205 l 3.50219,2.24235 13.71355,-15.02549 c 7.54245,-8.264014 14.69315,-15.534329 15.89043,-16.156249 1.19728,-0.621919 3.4475,-1.130758 5.00049,-1.130758 h 2.82361 l -0.004,6.221079 c -0.008,11.575378 -2.96219,27.896738 -6.9278,38.269088 l -1.87395,4.90147 117.0354,128.19428 117.03533,128.19427 -26.52382,29.02671 -26.52381,29.02669 -51.49262,-56.31916 -51.49262,-56.31915 -2.7555,2.18567 c -2.82043,2.23719 -7.07934,4.04455 -11.36993,4.8251 l -2.41455,0.43925 -5.77556,20.17188 c -3.17657,11.09453 -7.92756,27.61523 -10.55777,36.71267 -2.63021,9.09743 -4.62169,17.2414 -4.4255,18.09769 0.19618,0.85631 0.98621,3.42324 1.7556,5.7043 1.7055,5.05635 1.89731,13.89037 0.41987,19.33632 -2.40046,8.84823 -9.6943,17.40386 -17.70363,20.76625 -5.27854,2.21597 -13.59511,2.53712 -18.61099,0.71869 z m 13.61962,-11.76787 c 12.52772,-4.09127 16.81981,-21.53228 7.94971,-32.30382 -6.30233,-7.65333 -17.07919,-8.677 -24.66561,-2.34293 -3.02941,2.52933 -6.1988,8.72284 -6.76345,13.21687 -1.09063,8.6803 4.33271,18.13665 12.08057,21.06413 4.59379,1.73572 6.97032,1.81198 11.39878,0.36575 z m -30.93529,-34.56822 c 5.9124,-12.51925 21.09366,-19.39427 33.6742,-15.24976 1.84222,0.60689 3.4094,1.03105 3.48262,0.94258 0.0732,-0.0885 4.46596,-15.26112 9.76164,-33.71701 l 9.62852,-33.55615 -2.08222,-2.60483 c -7.0559,-8.8269 -7.79944,-22.05855 -1.79698,-31.97824 l 2.20051,-3.63659 -52.11902,-57.05528 -52.119007,-57.05528 5.292333,-5.7932 5.292341,-5.79322 -4.569235,-5.30203 c -5.359719,-6.21929 -6.653193,-9.80229 -5.322919,-14.7448 0.65408,-2.43019 3.487858,-5.99026 14.015321,-17.60747 15.268386,-16.8489 14.917236,-14.38591 2.990256,-20.97375 -25.206938,-13.92296 -43.457106,-12.98537 -56.595931,2.90757 -12.13963,14.6843 -15.717635,37.27278 -9.621177,60.73993 2.081512,8.01237 1.983175,7.74092 6.343116,17.50893 4.457395,9.98634 11.728868,22.09039 24.235793,40.34277 32.211692,47.00918 49.192999,84.92292 52.398859,116.98959 1.46784,14.68209 -1.08368,29.91893 -6.70782,40.05682 -2.67619,4.82402 -7.800031,12.24249 -8.455737,12.24249 -0.202833,0 -11.44623,-4.04545 -24.98532,-8.9899 l -24.616535,-8.98988 0.01054,2.01473 c 0.0055,1.10811 0.29499,2.5069 0.642631,3.10844 0.641185,1.10944 76.407611,29.38704 77.366851,28.87491 0.28685,-0.15315 1.03222,-1.35977 1.65637,-2.68137 z m 79.71628,-90.50963 c 3.42643,-2.86079 4.82882,-6.07353 4.85733,-11.12764 0.0432,-7.65363 -5.30607,-13.49922 -12.35299,-13.49922 -5.33835,0 -9.63694,3.12212 -11.6846,8.48667 -1.39222,3.64739 -1.31772,7.03841 0.236,10.74213 2.38481,5.6849 6.20508,8.10227 12.227,7.73695 3.32579,-0.20178 4.75265,-0.69858 6.71726,-2.33889 z M 131.59198,195.67635 c 4.71636,-3.85452 6.07822,-9.3279 3.65481,-14.68891 -2.00488,-4.43515 -4.36358,-6.13664 -8.99842,-6.49117 -4.51129,-0.34508 -7.65316,1.5342 -9.82017,5.87383 -1.65683,3.31796 -1.39237,9.38761 0.53542,12.28848 3.21605,4.8394 10.54855,6.35207 14.62836,3.01777 z m 229.87603,262.8993 c -1.27145,-0.40888 -5.6248,-4.57177 -11.31402,-10.81901 l -9.2474,-10.15441 17.86372,-19.53003 c 10.39562,-11.36531 18.58145,-19.72218 19.58053,-19.98969 0.94424,-0.25281 3.88676,-1.31731 6.53893,-2.36556 3.95748,-1.56415 6.09097,-1.90939 11.89847,-1.92536 l 7.0764,-0.0195 3.019,3.04622 c 4.94805,4.9926 6.33586,9.944 4.27826,15.26422 -1.34297,3.47244 -39.6853,45.16647 -42.58594,46.30857 -2.6772,1.05412 -4.27492,1.09561 -7.10795,0.18452 z M 472.4831,430.76839 c -6.47288,-1.54677 -14.17333,-5.17177 -19.56282,-9.20919 -1.80196,-1.34986 -6.85458,-6.20302 -11.22818,-10.78477 -9.54961,-10.00428 -13.79811,-13.63556 -20.63637,-17.63853 -12.58058,-7.36438 -26.43673,-9.12749 -38.03828,-4.84016 l -3.88662,1.43629 L 263.35226,262.99448 147.5737,136.25692 l 1.33805,-3.85471 c 3.70358,-10.6695 6.20253,-26.991 6.22463,-40.655204 0.0231,-14.263021 -1.8663,-26.934328 -6.10272,-40.928727 l -2.58024,-8.523458 52.92668,57.915099 c 203.01751,222.15215 299.88765,328.33045 300.05815,328.89036 0.304,0.9982 -7.04699,2.43456 -14.31711,2.79754 -4.82213,0.24074 -8.14795,-0.0565 -12.63804,-1.12943 z"
       id="path74" />
  </g>
</svg>
