<?xml version="1.0" encoding="UTF-8" standalone="no"?>
<!-- Created with Inkscape (http://www.inkscape.org/) -->

<svg
   xmlns:dc="http://purl.org/dc/elements/1.1/"
   xmlns:cc="http://creativecommons.org/ns#"
   xmlns:rdf="http://www.w3.org/1999/02/22-rdf-syntax-ns#"
   xmlns:svg="http://www.w3.org/2000/svg"
   xmlns="http://www.w3.org/2000/svg"
   xmlns:sodipodi="http://sodipodi.sourceforge.net/DTD/sodipodi-0.dtd"
   xmlns:inkscape="http://www.inkscape.org/namespaces/inkscape"
   version="1.1"
   id="svg834"
   width="100"
   height="100"
   viewBox="0 0 400 400"
   sodipodi:docname="cantoolz.svg"
   inkscape:version="0.92.4 (5da689c313, 2019-01-14)">
  <metadata
     id="metadata840">
    <rdf:RDF>
      <cc:Work
         rdf:about="">
        <dc:format>image/svg+xml</dc:format>
        <dc:type
           rdf:resource="http://purl.org/dc/dcmitype/StillImage" />
        <dc:title></dc:title>
      </cc:Work>
    </rdf:RDF>
  </metadata>
  <defs
     id="defs838" />
  <sodipodi:namedview
     pagecolor="#ffffff"
     bordercolor="#666666"
     borderopacity="1"
     objecttolerance="10"
     gridtolerance="10"
     guidetolerance="10"
     inkscape:pageopacity="0"
     inkscape:pageshadow="2"
     inkscape:window-width="1366"
     inkscape:window-height="686"
     id="namedview836"
     showgrid="false"
     inkscape:zoom="1.255"
     inkscape:cx="200"
     inkscape:cy="200"
     inkscape:window-x="0"
     inkscape:window-y="26"
     inkscape:window-maximized="1"
     inkscape:current-layer="svg834" />
  <path
     style="fill:#000000;stroke-width:1.1315639"
     d="m 0.44690606,273.60935 c 0.293843,-4.44414 0.503635,-4.67294 5.80486104,-6.33096 3.0249997,-0.94612 6.0685389,-1.97203 6.7634199,-2.27982 0.851817,-0.37731 0.148802,-2.42936 -2.157911,-6.29879 -4.6885959,-7.86494 -6.0699849,-13.69498 -6.0891529,-25.69872 -0.01381,-8.64797 0.418873,-11.37832 2.77788,-17.5293 3.3198369,-8.65626 10.9318799,-18.00157 19.2833709,-23.67419 9.110198,-6.18795 32.77707,-14.29068 62.922396,-21.5425 26.02993,-6.26181 28.4028,-7.09226 36.81604,-12.88482 27.42384,-18.88142 40.4063,-25.58145 62.18396,-32.09204 11.35226,-3.39384 13.21452,-3.58162 34.5,-3.47866 16.02905,0.0776 24.94458,0.69487 31,2.14649 4.675,1.1207 11.2,2.67805 14.5,3.46076 5.97389,1.41692 17.57708,5.61163 29,10.48389 3.3,1.40756 16.63482,7.95177 29.63294,14.54269 23.624,11.97893 39.37745,17.90646 51.41482,19.34576 3.51717,0.42054 6.16412,1.24263 5.88212,1.82687 -0.282,0.58424 -2.57628,2.23106 -5.09842,3.65959 -5.6967,3.2266 -18.57477,3.47248 -31.83146,0.60775 -4.95,-1.06969 -13.95,-2.79169 -20,-3.82666 -6.05,-1.03499 -14.825,-2.551 -19.5,-3.36892 -11.40079,-1.99464 -71.32832,-1.92762 -85,0.095 -5.775,0.85439 -14.72103,2.08907 -19.88006,2.74372 -5.15904,0.65465 -14.15904,2.30448 -20,3.66628 -17.91669,4.17724 -39.14112,8.95144 -49.11994,11.04897 -5.225,1.09829 -20.975,2.54876 -35.000001,3.22326 -52.242848,2.51247 -69.488779,7.70735 -84.37239,25.41495 -5.6169862,6.68274 -2.832346,0.24885 3.072874,-7.09986 13.201103,-16.428 39.736591,-24.21039 101.799517,-29.856 6.6,-0.60037 16.725,-2.28119 22.5,-3.73515 13.46998,-3.39132 38.15873,-8.4232 53.5,-10.90401 6.6,-1.06727 16.05,-2.66778 21,-3.55668 6.08022,-1.09187 23.00813,-1.63014 52.17901,-1.65917 23.74846,-0.0237 42.52261,-0.51331 41.72035,-1.08816 -3.26477,-2.33936 -33.61815,-16.09033 -43.89936,-19.88768 -8.70803,-3.21631 -25.93636,-7.45517 -38.04439,-9.36044 -15.74713,-2.4779 -41.13768,1.93667 -59.02635,10.26275 -14.29876,6.6552 -33.56386,18.3432 -40.42926,24.52816 -3.60972,3.25195 -14.52984,7.29227 -24.16194,8.93961 -6.966151,1.19141 -15.63881,3.19649 -34.838063,8.05436 -32.650598,8.2614 -44.544906,14.14456 -54.205514,26.81109 -6.5602782,8.60151 -8.6692429,17.21742 -6.9140092,28.24627 1.5629222,9.82049 4.6291062,16.75837 10.4345162,23.61029 5.650377,6.66895 8.769979,8.71126 16.380941,10.72413 4.878197,1.29013 7.228907,1.29737 11.631638,0.0357 3.034829,-0.86962 6.011225,-2.3423 6.614212,-3.27261 0.898372,-1.38604 20.661218,-1.6372 109.445089,-1.39093 59.59181,0.16529 108.92962,0.76022 109.63958,1.32205 0.70996,0.56183 4.00597,1.74699 7.32446,2.6337 14.9671,3.99924 29.91622,-5.43156 36.68264,-23.14163 1.83073,-4.79163 2.53672,-9.04065 2.80646,-16.89056 0.31297,-9.10826 0.0255,-11.42495 -2.18448,-17.606 -2.80728,-7.85151 -2.3187,-9.40167 0.92674,-2.94036 6.51135,12.96337 7.59809,27.26734 3.04013,40.01521 -1.50588,4.21172 -3.68874,8.95353 -4.85079,10.53737 -1.16206,1.58383 -1.91804,3.12913 -1.67996,3.43396 0.23808,0.30485 11.00235,1.74209 23.92061,3.19386 33.18196,3.72903 59.32427,7.79 60.59127,9.41231 0.28884,0.36984 -23.01629,0.58735 -51.78918,0.48335 -28.77289,-0.10397 -118.82654,0.18985 -200.11921,0.65301 L 0.14204506,278.22 l 0.304861,-4.61076 z M 33.251767,260.0105 c -7.198822,-3.47187 -8.553834,-4.40427 -10.702272,-7.36441 -2.643393,-3.64208 -5.301459,-11.40446 -5.287959,-15.44249 0.01539,-4.60476 4.419781,-15.33542 8.117771,-19.77779 4.27594,-5.13666 14.100709,-11.43485 19.62246,-12.57902 4.065983,-0.84253 4.25,-0.7397 4.25,2.37496 0,2.75306 -0.578879,3.39054 -3.75,4.12957 -4.89189,1.14006 -14.163122,7.13958 -16.933388,10.95779 -2.971878,4.09608 -4.316612,9.10104 -4.316612,16.06596 0,5.03373 0.491301,6.44083 3.530207,10.11064 4.263248,5.14833 8.767721,6.90638 17.719793,6.91584 6.531846,0.006 6.75,0.11063 6.75,3.20824 0,3.14397 -0.138295,3.20009 -7.75,3.14489 -4.2625,-0.0308 -9.325,-0.8158 -11.25,-1.74418 z m 27.135412,-0.44038 -2.086157,-2.24077 6.442476,-16.00546 c 3.543362,-8.803 8.578459,-21.32736 11.189104,-27.83191 2.610648,-6.50456 5.059488,-11.40223 5.441868,-10.88372 0.38238,0.51852 5.95109,13.02502 12.37492,27.79224 l 11.67968,26.84949 -2.19944,2.28045 c -1.20968,1.25424 -2.48708,2.27189 -2.83864,2.26144 -0.35158,-0.0102 -2.461391,-4.47597 -4.68848,-9.92338 l -4.04926,-9.90439 -10.43638,0.488 c -11.753292,0.54958 -11.326804,0.21244 -14.919451,11.79393 -1.290662,4.16066 -2.679079,7.56484 -3.085371,7.56484 -0.406292,0 -1.677483,-1.00834 -2.824869,-2.24076 z m 28.614501,-23.9343 c 0.13745,-0.15789 -1.64155,-4.74364 -3.95333,-10.19057 l -4.20324,-9.90349 -3.747183,9.36987 c -2.060949,5.15342 -3.769451,9.95725 -3.79667,10.67518 -0.04106,1.08306 14.760053,1.12925 15.700423,0.049 z m 29.38916,25.2528 -2.36093,-0.57351 0.63954,-21.97987 c 0.35174,-12.08892 0.90488,-25.39269 1.22919,-29.56393 l 0.58967,-7.58408 6.03887,8.2243 c 3.32138,4.52336 10.80566,14.4723 16.63173,22.10876 l 10.59286,13.8845 0.27477,-20.60679 0.27477,-20.60677 h 3.05172 3.05171 l -0.7056,28.48972 c -0.38807,15.66934 -0.88535,28.74626 -1.10507,29.05983 -0.21971,0.31356 -8.01848,-9.48178 -17.3306,-21.76743 l -16.93113,-22.33754 -0.0403,22.08754 c -0.0222,12.14814 -0.37779,22.00907 -0.79029,21.91316 -0.4125,-0.0959 -1.81242,-0.43245 -3.11093,-0.74789 z m 105.25591,-1.52102 c -7.79455,-4.53246 -11.39498,-12.25453 -11.39498,-24.4395 0,-4.59845 0.75667,-9.55376 2.01507,-13.19637 2.39123,-6.92175 9.71844,-15.61562 14.10835,-16.73982 5.52,-1.4136 13.83383,-0.8577 17.6587,1.18076 13.62115,7.25933 15.07415,35.85415 2.4969,49.1385 -6.479,6.84325 -17.11097,8.57641 -24.88404,4.05643 z m 17.40468,-5.7579 c 6.38511,-4.25383 9.45034,-11.34351 9.45034,-21.85804 0,-16.34972 -7.66817,-24.38427 -19.5771,-20.51248 -5.9304,1.92805 -9.13741,5.73106 -11.122,13.18888 -3.58069,13.45579 -0.37544,24.81012 8.4491,29.93031 2.64886,1.53693 10.01571,1.10603 12.79966,-0.74867 z m 36.54796,4.98209 c -13.14475,-8.38726 -14.19435,-33.81506 -1.96477,-47.59884 4.96664,-5.59782 7.84717,-6.80172 16.27427,-6.80172 16.21603,0 24.50469,17.672 18.28007,38.97436 -4.80779,16.45356 -19.83305,23.56573 -32.58957,15.4262 z m 19.36236,-5.69877 c 5.59035,-4.3645 8.35448,-11.23165 8.41243,-20.89966 0.0757,-12.62908 -3.28549,-18.99237 -11.24643,-21.29137 -4.50427,-1.30077 -12.20667,1.20078 -15.35385,4.98655 -2.86004,3.44035 -5.52213,12.69141 -5.52213,19.18996 0,6.69234 3.8238,15.40594 7.9844,18.1947 4.6025,3.08494 11.64679,3.00423 15.72558,-0.18018 z m -8.31972,-9.95973 c -0.92917,-1.88612 -1.34765,-1.96824 -2.70108,-0.52999 -2.18208,2.31882 -3.98376,0.59777 -3.25678,-3.11104 0.48458,-2.4722 0.12993,-3.18198 -1.91898,-3.84044 -2.75908,-0.88667 -3.37906,-4.02646 -1.02359,-5.18382 0.96375,-0.47354 1.40514,-2.15486 1.25,-4.76144 -0.21978,-3.69251 -0.01,-3.99861 2.51017,-3.66086 2.1499,0.28814 2.75,-0.17094 2.75,-2.10377 0,-1.3598 0.7118,-2.8221 1.58179,-3.24956 2.22596,-1.09372 2.41821,-1.00883 2.41821,1.06787 0,2.69371 1.8669,3.73167 3.53107,1.96321 2.3183,-2.46358 4.62353,-0.56129 3.88509,3.20599 -0.48389,2.46865 -0.24676,3.22921 1.00682,3.22921 2.52778,0 3.19571,3.93662 1.01445,5.97889 -1.55354,1.45455 -1.67869,2.19547 -0.70727,4.18718 1.51392,3.104 -0.36206,5.41753 -3.5322,4.35603 -1.7527,-0.58687 -2.19796,-0.18694 -2.19796,1.97424 0,3.34859 -3.04034,3.66405 -4.60974,0.4783 z m 4.40974,-8.26767 c 1.9367,-2.47982 1.3868,-5.93034 -1.30501,-8.1887 -2.79354,-2.34371 -4.8918,-1.12758 -6.03888,3.50012 -1.224,4.93799 4.36327,8.50508 7.34389,4.68858 z m 45.2,26.20915 -5.5,-0.45191 0.19337,-27.7957 0.19337,-27.79571 3.05663,-0.20871 3.05663,-0.20872 v 24.85712 24.85712 h 7 7 v 3.84131 c 0,4.24916 0.4043,4.17086 -15,2.9052 z m 33.13235,-0.26932 -9.36765,-0.71522 4.07029,-7.0424 c 2.23866,-3.87333 4.45517,-7.61986 4.92557,-8.32562 0.4704,-0.70578 3.30422,-5.81411 6.29736,-11.35184 2.99314,-5.53775 6.88865,-12.73895 8.65669,-16.00268 l 3.21461,-5.93406 -11.96461,-0.35952 -11.96461,-0.35952 v -3.16168 -3.16168 l 11.75,0.12663 c 6.4625,0.0697 14.12623,0.50179 17.03052,0.96033 l 5.28052,0.83369 -6.83835,12.16415 c -3.76109,6.69029 -9.91685,17.86317 -13.67948,24.82863 l -6.84113,12.66447 12.68396,-0.62565 c 6.97618,-0.3441 12.92226,-0.13195 13.21351,0.47146 0.29125,0.60342 0.24517,2.24435 -0.10239,3.64653 -0.57013,2.30009 -1.43217,2.52544 -8.81455,2.30431 -4.50043,-0.13479 -12.39805,-0.56694 -17.55026,-0.96033 z m -186.34053,-24.40188 0.29181,-24.32972 h -9.10824 -9.10823 l 0.31642,-3.24428 0.31642,-3.24428 20.25049,-0.27692 20.25048,-0.27692 -4.8e-4,3.5212 -4.9e-4,3.5212 h -8.5 -8.5 v 24.3283 24.3283 l -3.25,0.001 -3.25,10e-4 0.29182,-24.32972 z m 191.20818,-42.19119 c -13.60617,-2.38167 -16,-3.27027 -16,-5.93921 0,-1.84237 0.92454,-2.23091 10.16187,-4.27054 3.11403,-0.68758 7.33148,-2.1434 9.37212,-3.23515 4.84857,-2.59399 4.98176,-2.54336 3.08102,1.17106 -2.52875,4.94165 -2.02012,7.82995 1.78612,10.14265 1.87062,1.1366 3.89562,2.06654 4.5,2.06654 0.60438,0 1.09887,0.5762 1.09887,1.28044 0,0.70424 -0.3375,1.2111 -0.75,1.12635 -0.4125,-0.0848 -6.375,-1.1387 -13.25,-2.34214 z"
     id="path844"
     inkscape:connector-curvature="0" />
</svg>
