<?xml version="1.0" encoding="UTF-8" standalone="no"?>
<!-- Created with Inkscape (http://www.inkscape.org/) -->

<svg
   xmlns:dc="http://purl.org/dc/elements/1.1/"
   xmlns:cc="http://creativecommons.org/ns#"
   xmlns:rdf="http://www.w3.org/1999/02/22-rdf-syntax-ns#"
   xmlns:svg="http://www.w3.org/2000/svg"
   xmlns="http://www.w3.org/2000/svg"
   xmlns:sodipodi="http://sodipodi.sourceforge.net/DTD/sodipodi-0.dtd"
   xmlns:inkscape="http://www.inkscape.org/namespaces/inkscape"
   version="1.1"
   id="svg64"
   width="100"
   height="100"
   viewBox="0 0 512 512"
   sodipodi:docname="crackmapexec.svg"
   inkscape:version="0.92.5 (2060ec1f9f, 2020-04-08)">
  <metadata
     id="metadata70">
    <rdf:RDF>
      <cc:Work
         rdf:about="">
        <dc:format>image/svg+xml</dc:format>
        <dc:type
           rdf:resource="http://purl.org/dc/dcmitype/StillImage" />
        <dc:title></dc:title>
      </cc:Work>
    </rdf:RDF>
  </metadata>
  <defs
     id="defs68" />
  <sodipodi:namedview
     pagecolor="#ffffff"
     bordercolor="#666666"
     borderopacity="1"
     objecttolerance="10"
     gridtolerance="10"
     guidetolerance="10"
     inkscape:pageopacity="0"
     inkscape:pageshadow="2"
     inkscape:window-width="1366"
     inkscape:window-height="692"
     id="namedview66"
     showgrid="false"
     inkscape:zoom="0.65459362"
     inkscape:cx="226.66667"
     inkscape:cy="216.99393"
     inkscape:window-x="0"
     inkscape:window-y="24"
     inkscape:window-maximized="1"
     inkscape:current-layer="svg64" />
  <path
     id="path74"
     style="fill:#000000;stroke-width:1.15249133"
     d="m 256.68753,10.870764 c -0.21662,0.03746 -0.45889,0.360761 -0.76955,0.936879 -1.01544,1.883122 -5.37986,29.617715 -11.84543,75.261463 -1.93076,13.630274 -4.49209,28.643554 -5.69103,33.361724 -1.19893,4.71817 -2.25081,12.00943 -2.33928,16.20335 -0.14006,6.63599 0.40865,8.49783 4.23561,14.35614 2.41865,3.70243 6.06976,9.9223 8.114,13.82136 2.04426,3.89906 4.5982,8.26918 5.67471,9.71085 1.07649,1.44167 2.43011,2.62073 3.00882,2.62073 0.57873,0 1.7514,-1.17906 2.60669,-2.62073 0.85526,-1.44167 5.20246,-8.62663 9.65923,-15.966 7.14033,-11.75866 8.09341,-14.07959 8.01398,-19.53896 -0.12644,-8.6873 -16.51821,-114.031905 -19.57159,-125.780178 -0.44061,-1.695347 -0.73512,-2.429022 -1.09616,-2.366628 z M 392.65582,71.35025 c -3.39105,0.0341 -61.97164,74.30293 -59.78645,75.79761 0.52422,0.35857 4.54714,-0.67963 8.93867,-2.30657 4.39153,-1.62695 8.27563,-2.75733 8.63249,-2.51324 1.15967,0.79324 -2.47884,11.48813 -10.25325,30.13642 -4.18962,10.04956 -8.00511,19.93131 -8.47939,21.96005 l -0.86345,3.68886 h 15.88916 15.88917 l 4.52342,-17.39574 c 13.6828,-52.61973 26.92166,-109.381616 25.50963,-109.36739 z m -275.4455,0.276455 c -0.0469,-0.01063 -0.0836,-0.0084 -0.10818,0.0084 -1.08436,0.741656 24.11742,106.325485 29.56356,123.857505 l 0.81446,2.62075 h 16.02593 16.02388 l -0.90632,-3.09826 c -0.49952,-1.70378 -4.09219,-10.8175 -7.98336,-20.25384 -7.69225,-18.65425 -12.41279,-32.12615 -11.48004,-32.76415 0.32487,-0.22225 4.40923,0.98799 9.07544,2.68916 4.66623,1.70118 8.79794,2.87618 9.18362,2.61237 C 178.26834,146.7179 155.1839,115.33738 142.228,99.460717 130.66172,85.286913 118.66371,71.957063 117.21032,71.626691 Z m 121.14262,100.304405 -9.59187,0.0754 c -9.93162,0.0777 -14.38384,1.89906 -5.98906,2.4504 l 4.61324,0.30438 -0.37763,16.12935 c -0.23321,9.96459 -0.96439,16.61421 -1.91265,17.39575 -0.84424,0.6958 -3.0258,1.26499 -4.848,1.26499 -2.01601,0 -3.31296,0.55977 -3.31296,1.42975 0,1.15174 2.167,1.42974 11.14732,1.42974 8.98033,0 11.14936,-0.278 11.14936,-1.42974 0,-0.86955 -1.2981,-1.42975 -3.31093,-1.42975 -2.59191,0 -3.49842,-0.64543 -4.1805,-2.97818 -1.28651,-4.39995 -1.0165,-24.93726 0.34702,-26.40846 0.79191,-0.85444 3.55405,2.71773 8.47735,10.96187 11.43643,19.1505 12.55744,20.74428 13.90914,19.7847 0.68504,-0.48631 5.27092,-7.10229 10.18996,-14.70379 14.47346,-22.366 13.46436,-22.02346 13.52947,-4.60619 0.0307,8.21393 -0.32474,15.61288 -0.78997,16.44211 -0.50912,0.90754 -2.49641,1.50794 -4.99292,1.50794 -2.69869,0 -3.94591,0.41575 -3.56812,1.19099 0.40608,0.83326 4.28182,1.19238 12.89055,1.19238 8.60874,0 12.4845,-0.35912 12.89056,-1.19238 0.38142,-0.78267 -0.90464,-1.19099 -3.74775,-1.19099 h -4.32748 l 0.37968,-17.39575 c 0.37894,-17.35533 0.38637,-17.39603 3.59466,-17.7071 3.60671,-0.34969 3.42872,-2.5925 -0.19596,-2.46854 -1.27737,0.0437 -5.02633,0.15135 -8.33039,0.23875 l -6.00742,0.15918 -9.60004,14.90205 c -7.4803,11.61133 -9.85398,14.50609 -10.74519,13.1065 -0.62912,-0.98796 -4.77586,-7.79445 -9.21629,-15.12546 z m 103.81233,31.90127 c -22.44243,0 -26.29346,0.20939 -26.29346,1.42975 0,0.94537 1.38259,1.42978 4.08047,1.42974 3.88234,0 4.12361,0.2427 4.95414,5.00412 0.48009,2.75227 0.68037,12.29537 0.44703,21.20747 l -0.42253,16.20336 -4.1805,0.31276 c -4.57255,0.34086 -6.99256,1.45605 -5.86454,2.70311 0.94562,1.04543 55.2818,0.76168 56.67761,-0.29599 1.12599,-0.85322 5.62367,-9.64356 5.62367,-10.99119 0,-1.98041 -4.02696,-0.4354 -7.74658,2.97259 -5.31512,4.86975 -8.46579,5.77624 -20.09008,5.77624 -13.2041,0 -13.96833,-0.656 -13.96833,-11.98252 v -8.9876 h 6.17072 c 6.68203,0 10.55127,1.77235 10.55127,4.83377 0,1.15143 0.95931,1.83886 2.56994,1.83886 2.30819,0 2.55845,-0.82901 2.4393,-8.09819 -0.11541,-7.041 -0.45169,-8.09951 -2.57197,-8.10238 -1.48141,-0.002 -2.43727,0.71798 -2.43727,1.83466 0,3.06145 -3.86924,4.83379 -10.55127,4.83379 h -6.17072 v -9.63266 -9.63265 l 11.31877,0.35185 11.32083,0.35185 5.97681,4.51545 c 5.39162,4.07342 9.00808,5.62325 9.00808,3.86199 0,-0.35879 -1.02338,-3.14633 -2.27396,-6.19511 l -2.27397,-5.54307 z m -179.21237,0.053 c -4.66778,0.0484 -7.2217,0.61794 -12.09241,2.24794 -12.77561,4.27542 -19.33277,12.0628 -19.33277,22.95835 0,10.90228 6.70196,18.99982 19.05107,23.0184 5.97068,1.94294 8.84885,2.27438 17.69159,2.04131 8.89923,-0.23456 11.61921,-0.72771 17.28538,-3.13735 8.3575,-3.55419 13.12477,-7.62523 10.79623,-9.21798 -1.23463,-0.84449 -1.82591,-0.74864 -2.46993,0.39933 -1.37755,2.4555 -10.58722,6.26312 -17.80385,7.35957 -18.38593,2.79345 -33.41738,-7.49777 -33.52769,-22.95416 -0.15067,-21.11148 32.82199,-27.60139 46.66931,-9.18586 4.35714,5.79457 5.88132,4.56891 4.74184,-3.81313 -0.5523,-4.06287 -1.28976,-7.70779 -1.63913,-8.10097 -1.10607,-1.24471 -3.25784,-0.77255 -3.25784,0.71487 0,1.77737 0.0421,1.77795 -5.7094,-0.21363 -2.71651,-0.94065 -9.06824,-1.79931 -14.8665,-2.01058 -2.19026,-0.0798 -3.97997,-0.12221 -5.5359,-0.10615 z m 93.69585,10.90881 c -10.65796,0 -13.72559,0.37817 -20.4228,2.5258 -8.24369,2.64357 -17.90177,8.68424 -21.79861,13.63148 -3.30984,4.20203 -2.85684,14.12514 0.89407,19.58644 3.76218,5.47766 3.74158,7.80365 -0.10818,12.37906 l -3.11496,3.70142 3.14762,2.91256 c 1.73102,1.60149 3.5206,4.19232 3.97841,5.75809 1.14596,3.91919 3.66726,5.06186 10.22467,4.63411 6.17453,-0.40276 6.30595,-0.23842 3.99678,5.03345 l -1.60443,3.66373 -23.82761,0.2597 -23.82762,0.26109 -0.39192,11.19924 -0.39193,11.19923 h 26.54046 26.54045 l -4.36217,5.95775 c -22.01573,30.05853 -56.87595,43.85118 -87.98645,34.81382 -16.14383,-4.68966 -26.60954,-19.05599 -26.57923,-36.48233 0.0431,-24.81383 19.17298,-42.87202 43.58701,-41.14436 4.24349,0.30029 9.19883,0.84297 11.01056,1.20634 2.96748,0.59519 3.1955,0.4339 2.30049,-1.62382 -3.2419,-7.45354 -17.42894,-13.82389 -32.99696,-14.81828 l -9.20607,-0.58783 -0.64913,-4.61456 c -1.40893,-10.02965 -14.32423,-17.11866 -30.94957,-16.98663 -4.639675,0.0369 -9.689996,0.41381 -11.222846,0.83775 -2.424169,0.67045 -2.011008,0.98649 3.168035,2.42805 13.059101,3.63495 20.493881,13.90122 19.618541,27.08564 -0.47207,7.11038 -0.81426,7.79255 -7.06684,14.02523 -19.728194,19.66544 -30.594257,51.47995 -24.246075,70.99736 8.884923,27.31658 41.274255,45.67795 80.492985,45.63048 25.26737,-0.0306 41.32151,-4.9367 63.45458,-19.39097 l 14.60113,-9.53631 -0.9941,3.74751 c -2.84977,10.73299 -9.654,21.60137 -21.56998,34.45358 l -4.08864,4.40933 7.01989,5.07672 c 3.8609,2.79235 8.47223,7.32973 10.24711,10.08364 7.10153,11.01859 10.55636,29.06733 10.5574,55.1682 v 15.84591 l 4.52955,1.52749 c 5.98029,2.0165 15.8987,1.97154 21.90068,-0.0992 l 4.83166,-1.66711 0.13881,-20.4926 c 0.10336,-15.16409 0.78993,-22.97165 2.6373,-30.02472 4.01852,-15.3422 11.18385,-27.078 20.83513,-34.12547 l 3.65794,-2.67241 -5.68287,-5.72458 C 283.07199,394.3688 276.6104,383.29726 273.50547,370.63536 l -0.81854,-3.33561 5.09498,4.28924 c 9.84421,8.28558 24.11126,16.90458 33.66241,20.33762 12.9298,4.64744 23.39207,6.35148 39.00846,6.35148 24.70302,0 40.46675,-4.51424 58.09016,-16.63618 17.8459,-12.27497 24.33725,-23.02708 24.36651,-40.35549 0.0292,-17.27629 -5.38729,-30.85771 -20.50036,-51.39975 -10.49382,-14.26345 -10.67938,-14.64249 -11.2351,-22.87598 -0.46856,-6.94214 -0.041,-9.32244 2.50462,-13.94144 2.9624,-5.37542 10.19277,-11.46657 18.09985,-15.24693 3.42215,-1.63614 3.29535,-1.65828 -7.12195,-1.23149 -19.27646,0.78976 -30.53257,6.87874 -34.70345,18.77103 l -1.65138,4.70672 h -8.26709 c -9.81314,0 -16.93652,1.84005 -23.24791,6.00523 -5.04127,3.32698 -10.71976,9.07897 -9.67149,9.79602 0.36157,0.24732 4.33498,-0.20577 8.83049,-1.00668 13.14334,-2.34165 23.65669,-0.0714 33.2317,7.17806 21.93176,16.60487 20.52785,53.02205 -2.58015,66.94825 -12.42684,7.48912 -36.45918,8.15182 -55.43448,1.53029 -7.63385,-2.66388 -20.98002,-11.3889 -27.54679,-18.01009 -5.40095,-5.4457 -16.76078,-19.22922 -16.76078,-20.33623 0,-0.34846 11.93364,-0.6339 26.52004,-0.63389 h 26.52004 l -0.39192,-11.19923 -0.39192,-11.20063 -23.87049,-0.2597 -23.87049,-0.25969 -0.83079,-2.5998 c -0.45701,-1.42955 -1.19915,-3.4763 -1.64934,-4.54895 -0.75292,-1.79398 -0.22561,-1.94766 6.5851,-1.90726 l 7.40365,0.0447 1.39418,-3.95136 c 0.76688,-2.17333 2.4927,-4.78098 3.83349,-5.79438 3.18375,-2.40636 3.08142,-4.6446 -0.34906,-7.62766 -3.65357,-3.17706 -3.51638,-5.5678 0.69607,-12.08305 4.59748,-7.11082 4.56842,-13.00189 -0.0939,-19.40214 -4.30178,-5.90473 -11.04018,-10.1409 -21.4414,-13.4779 -6.53026,-2.09507 -9.67175,-2.47832 -20.2697,-2.47832 z m -25.91787,47.41907 c 3.52492,0.0703 8.39686,1.13356 12.80277,2.9307 l 5.73594,2.3401 -7.85885,2.01198 c -11.42488,2.92386 -12.94101,2.725 -14.77667,-1.93797 -1.2355,-3.13844 -1.17367,-4.12389 0.29598,-4.80028 0.87589,-0.40309 2.1986,-0.57649 3.80083,-0.54453 z m 51.89902,0.014 c 1.59927,-0.0183 2.93604,0.15884 3.80694,0.55849 1.46534,0.67243 1.6182,1.74915 0.65117,4.56291 -1.01487,2.95297 -1.94705,3.7206 -4.7051,3.88014 -1.8915,0.10936 -5.00586,-0.27537 -6.92192,-0.85589 -1.91607,-0.58051 -4.34908,-1.17715 -5.40729,-1.32503 -4.5287,-0.63282 -4.3943,-2.13073 0.37151,-4.14543 3.89708,-1.64746 8.68629,-2.63491 12.20469,-2.67519 z"
     inkscape:connector-curvature="0" />
</svg>
