<?xml version="1.0" encoding="UTF-8" standalone="no"?>
<svg
   xmlns:dc="http://purl.org/dc/elements/1.1/"
   xmlns:cc="http://creativecommons.org/ns#"
   xmlns:rdf="http://www.w3.org/1999/02/22-rdf-syntax-ns#"
   xmlns:svg="http://www.w3.org/2000/svg"
   xmlns="http://www.w3.org/2000/svg"
   version="1.1"
   id="svg885"
   width="100"
   height="100"
   viewBox="0 0 512 512">
  <metadata
     id="metadata891">
    <rdf:RDF>
      <cc:Work
         rdf:about="">
        <dc:format>image/svg+xml</dc:format>
        <dc:type
           rdf:resource="http://purl.org/dc/dcmitype/StillImage" />
        <dc:title></dc:title>
      </cc:Work>
    </rdf:RDF>
  </metadata>
  <defs
     id="defs889" />
  <g
     id="g893">
    <path
       style="fill:#000000;stroke-width:1.8004"
       d="m 18.515195,497.35978 -5.176578,-5.64209 V 390.26618 c 0,-67.04705 0.668676,-104.71622 1.971781,-111.07842 5.309306,-25.92178 24.264585,-50.99846 47.318047,-62.59885 L 75.8108,209.95559 67.272128,204.10097 C 47.662393,190.65536 29.067749,163.42392 23.896214,140.57789 20.860444,127.16692 21.384151,100.06707 24.91829,87.689442 31.049048,66.217682 43.329302,47.177748 60.136752,33.084944 72.866317,22.411386 84.072681,16.618474 100.02877,12.463539 c 40.18786,-10.4648453 81.18861,3.139634 107.98112,35.829267 7.95639,9.707602 19.44261,32.411151 19.44261,38.430013 0,3.822858 0.55073,3.897795 28.99459,3.945448 208.75703,0.349719 225.66768,0.688197 230.93438,4.622218 11.63312,8.689545 11.27614,4.652704 11.2792,127.549695 0.003,121.227 0.0826,120.21848 -10.02598,126.96667 -4.51975,3.01721 -10.92896,3.4034 -70.18213,4.22878 l -65.20814,0.90834 -0.5045,20.43745 -0.50451,20.43744 h 49.6945 c 56.35615,0 62.2946,0.96501 76.54378,12.43845 4.85477,3.90909 10.90278,11.20292 13.90473,16.76899 4.66255,8.64508 5.30741,11.62961 5.26867,24.38407 -0.0368,12.08783 -0.8288,16.0617 -4.70743,23.61661 -5.53718,10.78557 -13.61031,18.91586 -24.60903,24.78326 -7.99131,4.26308 -8.36762,4.28592 -79.61616,4.83159 -79.41738,0.60823 -86.44985,-0.10475 -106.07677,-10.7557 -14.36893,-7.79754 -24.44082,-18.26021 -38.56942,-40.06591 l -12.15507,-18.7598 -0.48866,30.30408 -0.48865,30.30408 -5.44716,4.66665 -5.44717,4.66667 H 121.86668 23.691774 Z M 215.54218,450.62127 c -0.35964,-41.47011 0.34606,-44.50335 10.55583,-45.37112 7.50714,-0.63808 5.81333,-2.63618 30.13043,35.54313 15.69537,24.64265 25.12782,33.75242 42.14556,40.70385 9.64771,3.94088 13.07286,4.22782 57.10077,4.78355 l 46.83742,0.59122 v -37.35154 -37.35154 l -31.67101,-0.0182 c -29.49568,-0.017 -32.2838,-0.3108 -40.59244,-4.28416 -9.65939,-4.61936 -12.89201,-7.70316 -18.34233,-17.49803 -1.94595,-3.49707 -11.73185,-21.07327 -21.74648,-39.05822 -10.01463,-17.98455 -24.28043,-43.73573 -31.70181,-57.22444 -26.47956,-48.12785 -33.59756,-56.52721 -55.78557,-65.82783 -9.46046,-3.96557 -11.77305,-4.11358 -64.27168,-4.11358 H 83.742738 l -11.907669,5.96851 C 51.2933,240.40905 37.670604,257.0504 32.166367,278.57172 c -2.33816,9.14211 -2.769208,26.17936 -2.769208,109.45386 v 98.62639 l 93.228761,4.3e-4 93.22875,4.3e-4 z m 247.56175,31.03484 c 8.09571,-4.17498 10.49362,-6.6164 14.59419,-14.85902 7.68202,-15.44182 5.76657,-30.41889 -5.4475,-42.59489 -8.36375,-9.08119 -17.05778,-11.94891 -36.36035,-11.9935 l -17.27399,-0.04 -0.56884,29.52077 c -0.31286,16.2364 -0.28727,32.99511 0.0569,37.24155 l 0.62575,7.72081 h 17.34321 c 15.38186,0 18.43875,-0.56498 27.03064,-4.99582 z M 336.77717,357.21479 c -0.38174,-0.74937 -6.19431,-1.36249 -12.91687,-1.36249 h -12.22281 l 7.35135,13.77284 c 4.04322,7.57506 9.39015,15.95441 11.88205,18.62078 l 4.5307,4.84795 1.03481,-17.2583 c 0.56914,-9.49205 0.72248,-17.8714 0.34077,-18.62078 z m 143.4648,-21.61065 c 1.95824,-1.65472 2.30996,-19.58732 1.93238,-98.52456 l -0.4616,-96.50169 -126.20099,-0.46635 -126.20098,-0.46633 -1.17981,5.00799 c -0.64889,2.7544 -3.99605,11.13924 -7.4381,18.63297 -4.83019,10.51581 -9.55715,16.98731 -20.71466,28.35957 l -14.45636,14.7346 10.01246,2.08875 c 15.45482,3.22411 31.29805,12.23795 43.41435,24.70014 9.96235,10.24675 14.87013,18.04056 37.21519,59.09991 2.44692,4.49624 8.38831,15.12371 13.20312,23.61659 4.81477,8.4929 9.28061,16.85132 9.92409,18.57428 1.02803,2.75262 4.58801,3.19339 29.34594,3.63332 59.15311,1.05113 149.16416,-0.42677 151.60497,-2.48919 z m -174.6024,-35.15265 c -1.67661,-3.74655 -1.46694,-5.16675 1.20694,-8.17497 3.08344,-3.46897 5.4322,-3.63799 49.79695,-3.58294 49.10106,0.061 52.80586,0.65086 52.80586,8.40832 0,7.56468 -2.14711,7.88386 -53.03144,7.88386 h -48.74917 z m -22.51745,-30.34563 c -1.17763,-1.199 -2.14114,-3.89674 -2.14114,-5.99499 0,-7.74112 2.31991,-8.17498 43.71492,-8.17498 28.2908,0 40.03762,0.61597 41.57377,2.18 3.27796,3.33743 2.54771,10.18728 -1.31012,12.28939 -5.11272,2.7859 -79.07289,2.51531 -81.83743,-0.29942 z m 105.27266,0 c -1.17762,-1.199 -2.14113,-3.89674 -2.14113,-5.99499 0,-7.64895 2.54057,-8.17498 39.48362,-8.17498 29.62218,0 35.64573,0.45247 38.00522,2.85477 1.54214,1.57011 2.80387,3.9642 2.80387,5.32021 0,1.35603 -1.26173,3.75012 -2.80387,5.32023 -2.35949,2.4023 -8.38304,2.85475 -38.00522,2.85475 -24.99979,0 -35.82188,-0.63177 -37.34249,-2.17999 z m -89.21412,-32.6999 c -1.17763,-1.199 -2.14114,-3.60802 -2.14114,-5.35337 0,-5.40684 16.20804,-69.48589 18.19094,-71.91849 2.82434,-3.46488 9.99035,-2.75766 12.06583,1.19076 1.39106,2.64641 -0.16192,11.74736 -6.43293,37.69571 -4.54671,18.81388 -9.48274,35.63768 -10.96897,37.38622 -3.13799,3.69179 -7.65531,4.11309 -10.71373,0.99917 z m -35.61233,-24.19332 c -19.50594,-13.29631 -19.57041,-15.42463 -0.87626,-28.92484 14.28165,-10.31365 19.83073,-12.05203 23.62252,-7.40028 3.54517,4.34919 0.69855,10.58481 -7.04851,15.43991 -3.96359,2.484 -7.20653,5.1016 -7.20653,5.81689 0,0.71529 3.61318,3.83158 8.02928,6.92506 4.48789,3.14377 8.02927,7.06435 8.02927,8.88901 0,3.35351 -5.22684,9.27761 -8.18564,9.27761 -0.91281,0 -8.27668,-4.51053 -16.36413,-10.02336 z m 75.40249,5.73766 c -3.67747,-5.71438 -2.36629,-8.37167 7.15791,-14.50648 4.40431,-2.83692 8.00783,-5.45247 8.00783,-5.81229 0,-0.35985 -3.51657,-3.11761 -7.81459,-6.12841 -8.85801,-6.20506 -10.82595,-9.7716 -8.17479,-14.81527 2.91716,-5.54965 8.53251,-4.17353 23.32937,5.71719 13.97461,9.34109 16.67287,12.54769 15.02002,17.84982 -0.95834,3.07426 -29.07524,21.98114 -32.68875,21.98114 -1.14343,0 -3.3201,-1.92856 -4.837,-4.2857 z M 154.9158,201.2238 c 29.16875,-10.00457 52.19744,-36.35076 58.41132,-66.82606 2.37668,-11.65621 1.36682,-37.511533 -1.58243,-40.514305 -2.73574,-2.785385 -38.41162,-2.755274 -47.88802,0.04036 -7.34893,2.168055 -20.23356,14.202395 -20.29447,18.955185 -0.20455,15.9608 -3.99493,44.24346 -7.03989,52.52955 -4.95859,13.49349 -15.62837,25.53987 -28.1428,31.77373 l -10.104872,5.03357 7.937972,2.13108 c 10.84288,2.91096 35.77109,1.31239 48.70319,-3.12316 z M 92.599719,186.12805 c 23.407231,-7.17236 31.788561,-21.63115 34.126261,-58.87192 1.73629,-27.659816 9.26659,-39.371732 30.5472,-47.510195 8.0367,-3.073504 14.73073,-4.046531 29.40154,-4.273713 l 18.99567,-0.294157 -2.68194,-5.281408 C 198.69299,61.437816 184.59319,47.01054 173.33121,39.550626 130.09668,10.912126 70.639119,28.494629 47.089475,76.882225 c -6.461849,13.277201 -7.338007,16.685792 -8.228177,32.010915 -1.645588,28.3303 5.329869,48.57977 23.689827,68.77059 11.214052,12.33232 14.450297,13.24391 30.048594,8.46432 z M 482.26369,118.43562 c 1.13588,-11.94232 5.79403,-11.54469 -129.15148,-11.02461 l -121.15934,0.46697 -0.0987,7.26665 c -0.0542,3.99664 0.1883,7.88531 0.53903,8.64144 0.35072,0.75616 56.5911,1.1649 124.97861,0.90835 l 124.34092,-0.46649 z"
       id="path897" />
  </g>
</svg>
