<?xml version="1.0" encoding="UTF-8" standalone="no"?>
<svg
   xmlns:dc="http://purl.org/dc/elements/1.1/"
   xmlns:cc="http://creativecommons.org/ns#"
   xmlns:rdf="http://www.w3.org/1999/02/22-rdf-syntax-ns#"
   xmlns:svg="http://www.w3.org/2000/svg"
   xmlns="http://www.w3.org/2000/svg"
   version="1.1"
   id="svg69"
   width="100"
   height="100"
   viewBox="0 0 546.1333 546.1333">
  <metadata
     id="metadata75">
    <rdf:RDF>
      <cc:Work
         rdf:about="">
        <dc:format>image/svg+xml</dc:format>
        <dc:type
           rdf:resource="http://purl.org/dc/dcmitype/StillImage" />
        <dc:title></dc:title>
      </cc:Work>
    </rdf:RDF>
  </metadata>
  <defs
     id="defs73" />
  <g
     id="g77">
    <path
       style="fill:#000000;stroke-width:1.06667"
       d="M 237.67561,539.08107 C 222.14553,536.91172 197.97473,530.76164 182.74228,525.10369 136.00485,507.74352 96.737279,479.53799 65.632319,440.9847 38.397559,407.22837 18.874679,363.35732 10.807569,317.78471 8.3469889,303.88443 8.0721389,299.61738 8.0936489,275.65138 c 0.0132,-14.66667 0.56842,-31.45271 1.23392,-37.30229 5.0505101,-44.39338 23.6727401,-90.00098 52.2253801,-127.90494 9.6693,-12.836086 31.24932,-35.376026 44.389341,-46.363844 25.61554,-21.419972 64.71826,-41.487386 97.90024,-50.242127 28.40222,-7.4936538 33.3106,-8.0558138 70.09975,-8.0285758 32.3819,0.02398 34.08393,0.128697 46.94892,2.888666 37.64107,8.0752658 68.28264,20.4503848 96.51773,38.9803188 17.34669,11.38417 27.67968,19.757512 41.66135,33.760306 46.26765,46.337536 74.54191,107.343316 78.39377,169.145816 1.22203,19.60741 0.44466,47.15246 -1.79007,63.42864 -5.78276,42.11746 -26.58195,89.77418 -55.09135,126.22963 -40.31723,51.55429 -101.65533,87.56849 -166.64036,97.8416 -15.49493,2.4495 -61.55628,3.05133 -76.26666,0.99649 z m 114.00974,-21.62436 c 4.52611,-4.42879 6.67593,-7.47648 7.54159,-10.69128 0.66594,-2.47314 0.92101,-4.96554 0.56679,-5.53868 -0.35422,-0.57313 -3.2557,-1.04205 -6.44775,-1.04205 -5.28911,0 -5.80922,-0.2128 -5.86596,-2.4 -0.0342,-1.32 -0.44726,-18 -0.91783,-37.06667 -0.9787,-39.65501 -1.11524,-40.33637 -9.1972,-45.89689 l -5.05681,-3.47919 -60.09139,0.54906 c -67.63905,0.61801 -63.01983,0.004 -68.35824,9.08579 l -2.98294,5.07457 -0.37907,37.06666 -0.37906,37.06667 -5.4876,0.0163 c -3.01818,0.009 -6.15257,0.43746 -6.9653,0.95218 -2.01524,1.27626 -0.8094,5.64843 3.14162,11.39105 3.84339,5.58618 8.63681,9.12242 13.70947,10.11386 2.10464,0.41135 34.65437,0.80311 72.33276,0.87057 l 68.50615,0.12267 6.33077,-6.19465 z m -151.34307,-4.36687 c -2.64,-2.28567 -4.50832,-4.45605 -4.15183,-4.82306 2.14736,-2.21077 155.61849,-1.65551 155.61849,0.56301 0,0.50855 -2.00093,2.24878 -4.44651,3.86719 l -4.44649,2.94256 -28.88684,0.70895 c -15.88775,0.38992 -46.88682,0.75129 -68.88682,0.80302 l -40,0.0941 z m 6.66568,-48.37181 c 0.34289,-22.98475 0.96306,-36.61209 1.76215,-38.72133 0.67819,-1.79007 2.73606,-4.14252 4.57308,-5.22767 3.08265,-1.82097 7.08694,-2.01058 51.96954,-2.46079 52.236,-0.52397 65.59159,0.18753 70.36191,3.7484 l 2.80097,2.09082 0.28013,38.01861 0.28014,38.01863 h -3.12515 -3.12516 l -0.35498,-35.14783 c -0.2727,-27.00117 -0.67582,-35.46897 -1.73919,-36.53333 -0.84649,-0.84729 -5.6117,-1.65238 -12.26666,-2.07247 -18.13109,-1.14455 -93.69656,-1.00833 -97.9625,0.1766 -2.59584,0.72103 -4.09392,1.86644 -4.52624,3.46071 -0.35541,1.31065 -0.96696,17.62299 -1.35901,36.24965 l -0.71281,33.86667 h -3.69266 -3.69266 z m 20.62831,13.60409 c 2.55321,-7.91775 4.3652,-15.11775 4.02665,-16 -0.47977,-1.25023 0.25837,-1.60409 3.34603,-1.60409 3.01621,0 3.82042,0.36783 3.37009,1.54139 -0.32532,0.84776 0.94332,6.00776 2.81921,11.46666 l 3.4107,9.92528 0.31989,-6.13333 c 0.20295,-3.89107 0.78789,-6.1287 1.6,-6.12067 0.70406,0.007 2.9601,3.00695 5.01344,6.66667 l 3.73333,6.654 0.31757,-6.66667 c 0.50229,-10.54476 2.3491,-7.81936 2.3491,3.46667 0,11.33897 -1.46284,13.25277 -4.68808,6.13333 -0.99664,-2.2 -2.7776,-5.2 -3.95768,-6.66666 l -2.1456,-2.66667 0.37956,7.2 0.37957,7.2 h -3.58017 c -1.96909,0 -3.30841,-0.43972 -2.97625,-0.97715 0.33215,-0.53744 0.13236,-2.21744 -0.44399,-3.73334 -0.91489,-2.40635 -1.66382,-2.75618 -5.90069,-2.75618 -4.23688,0 -4.98581,0.34983 -5.9007,2.75618 -0.57635,1.5159 -0.77614,3.1959 -0.44399,3.73334 0.33216,0.53743 -0.80775,0.97715 -2.53313,0.97715 h -3.13704 z m 9.99124,0.26258 c -0.0265,-1.32 -0.66116,-3.83796 -1.41042,-5.59548 l -1.3623,-3.19548 -1.69612,4.97784 c -1.86999,5.48815 -1.63335,6.21312 2.02806,6.21312 1.88421,0 2.47719,-0.58309 2.44078,-2.4 z m 62.83275,12.71249 c 0.8696,-1.04781 0.81536,-1.91842 -0.20656,-3.316 -1.84184,-2.51885 -5.42195,-1.73516 -5.85228,1.28107 -0.18746,1.31401 -1.02746,2.3891 -1.86666,2.3891 -1.97783,0 -1.93412,-0.64073 0.59376,-8.70497 1.16576,-3.71893 2.12576,-7.84169 2.13333,-9.16169 0.01,-1.6843 0.64994,-2.4 2.14709,-2.4 1.47674,0 2.15878,0.73866 2.216,2.4 0.0454,1.32 0.92579,4.79668 1.95628,7.72595 l 1.8736,5.32595 2.84372,-4.50476 c 1.56405,-2.47761 2.84373,-5.02882 2.84373,-5.66934 0,-1.38025 -5.01506,-10.34446 -7.27913,-13.01113 -1.47246,-1.73431 -1.25796,-1.86667 3.02493,-1.86667 2.53537,0 4.31032,0.29943 3.94435,0.66541 -0.65576,0.65575 3.09068,8.93459 4.04319,8.93459 0.95251,0 4.69894,-8.27884 4.04319,-8.93459 -0.36598,-0.36598 1.45459,-0.65806 4.04569,-0.64908 2.59112,0.009 4.20478,0.36898 3.58593,0.8 -0.61886,0.43102 -2.89179,3.63736 -5.05098,7.12521 l -3.9258,6.34155 3.33939,5.92512 c 1.83666,3.25882 4.04481,7.00512 4.90699,8.32512 1.53883,2.35594 1.48587,2.4 -2.88469,2.4 -2.70901,0 -4.19309,-0.4194 -3.79028,-1.07116 0.66055,-1.0688 -3.56625,-9.59551 -4.75663,-9.59551 -1.0634,0 -4.86524,7.76636 -4.53272,9.2594 0.22054,0.99021 -1.00358,1.40727 -4.13061,1.40727 -3.58027,0 -4.21484,-0.27616 -3.26483,-1.42084 z m -1.3372,-8.79974 c -0.3561,-0.92797 -0.64745,-2.46397 -0.64745,-3.41333 0,-2.21483 -1.64665,-0.51667 -2.61866,2.70058 -0.59681,1.97536 -0.31474,2.4 1.59423,2.4 1.67671,0 2.13994,-0.4675 1.67188,-1.68725 z m -37.98078,-0.97942 V 471.3847 h 4.73952 c 6.02343,0 8.06048,2.56089 8.06048,10.13333 0,7.57244 -2.03705,10.13333 -8.06048,10.13333 h -4.73952 z m 9.56247,4.87012 c 2.67192,-4.99252 0.51768,-11.80345 -3.73333,-11.80345 -2.52476,0 -2.62914,0.27528 -2.62914,6.93333 0,6.65805 0.10442,6.93333 2.62914,6.93333 1.50766,0 3.10014,-0.88007 3.73333,-2.06321 z m 6.43753,-4.87012 V 471.3847 h 4.76247 c 3.61682,0 5.02809,0.49632 5.86667,2.06321 1.57035,2.93424 1.36589,7.05838 -0.42357,8.5435 -1.31454,1.09097 -1.32115,1.85351 -0.0474,5.46394 2.09449,5.93641 -0.68071,5.77592 -3.01812,-0.17455 -2.0723,-5.27554 -4.33848,-5.06186 -4.80453,0.45302 -0.18208,2.15464 -0.78208,3.91754 -1.33333,3.91754 -0.55488,0 -1.00223,-4.52289 -1.00223,-10.13333 z m 9.06666,-4.26667 c 0,-1.62715 -0.82253,-2.21264 -3.46666,-2.46758 -3.1161,-0.30045 -3.46667,-0.0509 -3.46667,2.46758 0,2.5185 0.35057,2.76804 3.46667,2.46759 2.64413,-0.25495 3.46666,-0.84043 3.46666,-2.46759 z m -40,-9.06666 c -1.3589,-2.53914 -3.19999,-2.80977 -3.19999,-0.47038 0,0.95112 -0.50898,1.34838 -1.18906,0.92806 -1.25186,-0.77368 -0.80291,-8.98003 0.68831,-12.58177 0.73091,-1.76539 0.5644,-1.85171 -1.47085,-0.76247 -4.02139,2.15218 -2.68822,-0.87499 2.72481,-6.18713 2.76094,-2.70947 5.04094,-5.40631 5.06667,-5.99298 0.049,-1.11688 7.91939,-3.49986 12.04678,-3.64748 3.43146,-0.12275 2.96191,-1.72762 -0.98362,-3.3619 -5.63593,-2.33449 -1.56481,-2.30768 4.58624,0.0302 7.12648,2.70862 8.58814,2.71145 5.34588,0.0107 -3.21712,-2.68013 -1.64667,-2.65724 5.29047,0.0771 3.03486,1.19623 7.49263,2.12642 9.90615,2.06708 6.18561,-0.15208 7.71487,0.31703 11.04926,3.38942 4.85777,4.47608 8.0405,6.23118 11.44296,6.31018 2.74606,0.0638 2.91007,0.20818 1.09599,0.96519 -1.29551,0.54061 0.27541,0.66201 4,0.30913 6.60472,-0.62576 6.61427,-0.61983 5.16112,3.20227 -0.84304,2.21738 -1.58706,2.52473 -5.6,2.31339 -2.54528,-0.13405 -7.87874,-1.49349 -11.85214,-3.021 -3.97338,-1.5278 -9.21338,-2.77758 -11.64444,-2.77758 -5.26045,0 -4.79039,0.74238 2.04784,3.23421 2.79819,1.01966 8.44762,3.09896 12.55429,4.62069 l 7.46666,2.76677 -4.93966,0.0225 c -2.78664,0.0127 -8.13326,-1.18839 -12.26667,-2.75563 -6.07134,-2.30202 -8.45598,-2.67575 -13.91481,-2.18083 -5.77948,0.524 -7.05556,0.27986 -10.39999,-1.98973 -2.09671,-1.42288 -3.8122,-2.13839 -3.8122,-1.59004 0,0.54835 0.99099,1.52736 2.20221,2.17558 1.7078,0.91398 1.93124,1.50507 0.99529,2.63282 -1.79467,2.16244 1.63048,5.07273 11.14246,9.46753 4.43302,2.04818 8.06004,3.9952 8.06004,4.32671 0,0.33151 -9.10311,0.60274 -20.22914,0.60274 -19.13745,0 -20.29075,-0.11512 -21.37086,-2.13333 z m 43.2,-24.53333 c -2.91347,-1.25196 -3.73333,-1.25196 -3.73333,0 0,0.58666 1.32,1.03292 2.93333,0.99169 2.5993,-0.0665 2.6904,-0.17936 0.8,-0.99169 z m -110.07625,17.91501 c 3.17382,-1.62424 6.06799,-7.45484 6.07227,-12.23317 0.009,-9.21219 -9.25484,-14.91909 -18.88803,-11.63673 l -4.8314,1.64621 -9.47162,-8.18591 c -9.44316,-8.16132 -10.81407,-10.47739 -8.3886,-14.17208 0.87679,-1.33559 1.15853,-1.20539 1.70494,0.788 0.36001,1.31341 1.08,2.12508 1.59997,1.80372 1.34004,-0.82819 1.17379,-11.21819 -0.2446,-15.28699 -1.39408,-3.99905 -0.65394,-5.27769 1.85142,-3.19842 4.00523,3.32405 -1.0706,-7.66837 -6.2813,-13.60304 -2.41198,-2.74709 -3.02004,-4.06774 -2.02552,-4.39925 1.8115,-0.60382 -3.13582,-3.68342 -8.91352,-5.54846 -6.36576,-2.05487 -6.45195,-2.24148 -2.53562,-5.48944 4.59308,-3.80921 2.2949,-3.92516 -4.49979,-0.22701 -5.70765,3.10649 -8.07233,2.72823 -4.02344,-0.64362 3.81457,-3.1767 0.62924,-2.6286 -6.60534,1.1366 -4.8995,2.54991 -7.26336,3.19237 -10.0701,2.7369 -2.01724,-0.32735 -3.949661,-0.13896 -4.294281,0.41865 -0.34462,0.5576 -1.05622,0.7483 -1.58133,0.42377 -0.52511,-0.32455 -2.11452,1.22762 -3.53201,3.44925 -1.41749,2.22165 -3.71468,5.08652 -5.10488,6.3664 -2.90516,2.67466 -12.17444,6.09952 -13.79591,5.0974 -1.41314,-0.87336 -4.18606,1.4208 -3.69073,3.05353 0.20946,0.69044 0.6466,2.4818 0.97141,3.9808 0.51215,2.36355 1.12671,2.712 4.62827,2.62415 2.22073,-0.0557 4.75507,-0.56204 5.63185,-1.12516 8.42386,-5.41026 14.04779,-7.90858 17.860821,-7.93435 4.38224,-0.0297 4.4729,1.55044 0.17494,3.04871 -1.810451,0.63114 -5.645671,2.87546 -8.522711,4.9874 -2.87704,2.11194 -6.92805,4.30847 -9.00224,4.88119 -2.07419,0.57271 -3.47641,1.51837 -3.11605,2.10146 1.14459,1.85197 9.97694,-0.22047 17.37603,-4.07713 8.546371,-4.45468 12.586231,-4.24313 17.932891,0.93905 1.95642,1.89624 3.55714,3.81181 3.55714,4.25681 0,0.445 -4.92,4.28643 -10.93333,8.53651 -6.01334,4.25007 -13.177721,9.5667 -15.920851,11.81472 -5.32651,4.3651 -9.89241,12.19604 -8.78843,15.07296 0.97324,2.53621 4.60569,2.17861 16.809221,-1.65477 14.25549,-4.47796 23.44458,-4.68191 31.49259,-0.699 3.40512,1.68517 5.39183,2.22605 5.06695,1.37945 -1.83736,-4.78811 -1.78744,-8.69876 0.14145,-11.08085 l 2.02438,-2.49999 8.454,7.6976 c 9.07776,8.26554 10.45422,10.20126 11.54159,16.2309 1.69579,9.40352 11.26588,13.77978 20.1695,9.22323 z M 99.542289,383.91804 c 0.36258,-0.58667 1.379231,-1.06667 2.259231,-1.06667 0.88,0 1.30335,0.48 0.94077,1.06667 -0.36258,0.58666 -1.37924,1.06666 -2.25924,1.06666 -0.880001,0 -1.303341,-0.48 -0.940761,-1.06666 z m 278.824431,67.05649 c 6.59333,-4.01685 7.41617,-4.24968 12.90888,-3.65275 3.22667,0.35066 8.15741,1.76019 10.9572,3.13228 4.18778,2.05231 5.0007,2.19052 4.58399,0.77934 -1.96896,-6.66776 -1.85269,-7.54376 1.81459,-13.67063 2.03385,-3.39794 4.01491,-7.5177 4.40234,-9.15503 0.7096,-2.99883 2.77521,-3.07112 2.77521,-0.0972 0,0.88 0.48,1.30335 1.06667,0.94077 0.58667,-0.36259 1.07875,-2.91092 1.09353,-5.66296 0.0251,-4.66463 0.48574,-5.49164 6.79824,-12.20371 4.66646,-4.96186 7.55941,-7.20124 9.30646,-7.20399 3.32379,-0.005 8.88957,-3.45426 11.15593,-6.91318 4.19764,-6.40639 0.87024,-16.88435 -6.2186,-19.58239 -11.24949,-4.28159 -20.30684,5.17197 -16.95656,17.69831 1.01859,3.80841 0.94873,5.16703 -0.39976,7.77471 -1.97672,3.82258 -3.00362,3.9643 -4.52533,0.6245 -0.63536,-1.39445 -2.75238,-4.35446 -4.70449,-6.5778 -2.47421,-2.81796 -3.11883,-4.18591 -2.12815,-4.51614 1.8115,-0.60383 -3.13582,-3.68342 -8.91352,-5.54847 -6.36576,-2.05487 -6.45195,-2.24147 -2.53562,-5.48944 4.59308,-3.8092 2.2949,-3.92515 -4.49979,-0.227 -5.70765,3.10649 -8.07233,2.72823 -4.02344,-0.64362 3.81457,-3.1767 0.62924,-2.6286 -6.60534,1.1366 -4.8995,2.54991 -7.26336,3.19237 -10.07011,2.73689 -2.01722,-0.32735 -3.94965,-0.13895 -4.29428,0.41866 -0.34462,0.5576 -1.05621,0.7483 -1.58132,0.42376 -0.52512,-0.32454 -2.11452,1.22763 -3.53201,3.44926 -1.41748,2.22164 -3.71468,5.08652 -5.10488,6.3664 -2.90516,2.67466 -12.17445,6.09952 -13.79592,5.0974 -1.41314,-0.87337 -4.18605,1.4208 -3.69072,3.05352 0.20946,0.69045 0.64659,2.48181 0.9714,3.9808 0.51216,2.36356 1.12671,2.712 4.62828,2.62415 2.22074,-0.0557 4.75506,-0.56203 5.63185,-1.12515 8.42386,-5.41026 14.04779,-7.90859 17.86082,-7.93436 4.38224,-0.0297 4.4729,1.55045 0.17493,3.04872 -1.81045,0.63113 -5.64566,2.87545 -8.5227,4.9874 -2.87704,2.11194 -6.92805,4.30847 -9.00224,4.88118 -2.0742,0.57272 -3.47642,1.51837 -3.11605,2.10147 1.13803,1.84137 9.95993,-0.21161 17.25991,-4.01661 6.30659,-3.28722 7.53475,-3.56773 12.95333,-2.95852 5.20696,0.58542 6.40269,0.35411 9.18615,-1.77701 2.48378,-1.90167 2.79909,-1.98433 1.40874,-0.36937 -1.35684,1.57605 -1.5222,2.56144 -0.68184,4.0631 1.92821,3.4455 -0.63095,6.5405 -12.12704,14.66614 -16.29373,11.51673 -20.73363,15.45114 -23.21077,20.56824 -3.30354,6.82422 -2.21129,8.53687 4.91061,7.69983 3.13872,-0.36889 5.64848,-0.30636 5.57722,0.13898 -0.58394,3.64974 3.32456,2.71423 12.8142,-3.06714 z m -8.95778,-57.45649 c 0.36258,-0.58667 1.71091,-1.05932 2.99629,-1.05034 1.89997,0.0133 2.03782,0.20971 0.73704,1.05034 -2.10146,1.35807 -4.57266,1.35807 -3.73333,0 z m -152.70005,-7.66967 c 14.22917,-4.46968 23.44779,-4.68032 31.45283,-0.71866 4.45774,2.20611 5.46107,2.41193 5.05508,1.03703 -1.96164,-6.64294 -1.83582,-7.45313 2.23164,-14.37052 3.70925,-6.30817 4.34435,-6.89252 6.7605,-6.2202 1.46667,0.40811 9.14667,0.70857 17.06667,0.66767 12.61959,-0.0652 15.4654,-0.42642 23.01697,-2.92192 9.82712,-3.24749 18.52072,-8.53728 27.38303,-16.66176 3.37333,-3.09249 6.13333,-5.30298 6.13333,-4.91221 0,2.38718 -3.42272,5.65181 -13.08555,12.48114 -6.00294,4.24267 -13.15883,9.55323 -15.90197,11.80125 -5.32651,4.3651 -9.8924,12.19604 -8.78842,15.07296 0.97323,2.53621 4.60568,2.17861 16.80922,-1.65478 14.22916,-4.46968 23.44779,-4.68032 31.45283,-0.71866 4.45774,2.20611 5.46107,2.41193 5.05507,1.03703 -1.96896,-6.66776 -1.85268,-7.54376 1.81459,-13.67063 2.03386,-3.39794 4.01492,-7.5177 4.40235,-9.15503 0.7096,-2.99883 2.77521,-3.07113 2.77521,-0.0972 0,0.88 0.48,1.30335 1.06667,0.94077 1.43795,-0.8887 1.35583,-11.11883 -0.12333,-15.36194 -1.39408,-3.99905 -0.65394,-5.27768 1.85141,-3.19842 1.60315,1.33049 1.69808,1.21333 0.95732,-1.18133 -1.36874,-4.42467 -3.61671,-8.29657 -7.15959,-12.33169 -2.37513,-2.70512 -2.98906,-4.06949 -2.08312,-4.6294 0.86409,-0.53404 0.36368,-1.21343 -1.52893,-2.07575 -2.22144,-1.01216 -2.66818,-1.78054 -2.12309,-3.65168 3.04199,-10.44253 4.04306,-20.30874 3.51835,-34.67612 -0.49835,-13.64632 -0.38464,-15.097 1.08775,-13.87504 1.40493,1.16601 1.55163,1.05533 1.00774,-0.76032 -2.12117,-7.08114 -2.02535,-7.88207 1.6846,-14.08023 2.03385,-3.39794 4.01491,-7.5177 4.40234,-9.15503 0.7096,-2.99883 2.77521,-3.07113 2.77521,-0.0972 0,0.88 0.48,1.30335 1.06667,0.94076 1.43795,-0.8887 1.35583,-11.11883 -0.12333,-15.36194 -1.39408,-3.99905 -0.65394,-5.27768 1.85142,-3.19842 4.00523,3.32406 -1.0706,-7.66836 -6.2813,-13.60304 -2.41198,-2.74708 -3.02004,-4.06773 -2.02552,-4.39924 1.8115,-0.60383 -3.13582,-3.68342 -8.91352,-5.54847 -6.36576,-2.05487 -6.45195,-2.24147 -2.53562,-5.48944 4.59308,-3.8092 2.2949,-3.92515 -4.49979,-0.22701 -5.70765,3.1065 -8.07233,2.72824 -4.02344,-0.64361 3.81457,-3.17671 0.62924,-2.6286 -6.60535,1.1366 -4.89949,2.54991 -7.26335,3.19237 -10.0701,2.73689 -2.01722,-0.32735 -3.94965,-0.13895 -4.29428,0.41866 -0.34462,0.5576 -1.05621,0.7483 -1.58132,0.42376 -0.52512,-0.32454 -2.11452,1.22763 -3.53201,3.44926 -1.41748,2.22164 -3.72754,5.10236 -5.13344,6.40159 l -2.5562,2.36225 -6.90476,-2.26418 c -5.59824,-1.83574 -9.75926,-2.29051 -21.99029,-2.40331 -8.99385,-0.083 -15.67017,-0.60482 -16.53333,-1.29239 -0.7963,-0.63429 -3.36781,-1.75885 -5.71448,-2.49901 -6.38995,-2.01545 -6.48288,-2.21377 -2.5612,-5.46616 4.59307,-3.80921 2.2949,-3.92516 -4.49979,-0.22701 -5.70766,3.10649 -8.07233,2.72823 -4.02345,-0.64362 3.81457,-3.1767 0.62924,-2.6286 -6.60534,1.1366 -4.8995,2.54991 -7.26336,3.19237 -10.0701,2.7369 -2.01723,-0.32735 -3.94965,-0.13896 -4.29428,0.41865 -0.34462,0.5576 -1.05622,0.7483 -1.58132,0.42377 -0.52512,-0.32455 -2.11452,1.22762 -3.53202,3.44925 -1.41748,2.22165 -3.71467,5.08652 -5.10487,6.3664 -2.90516,2.67466 -12.17445,6.09952 -13.79592,5.0974 -1.41315,-0.87336 -4.18605,1.4208 -3.69072,3.05353 0.20946,0.69044 0.64659,2.4818 0.9714,3.9808 0.51216,2.36355 1.12671,2.712 4.62828,2.62415 2.22073,-0.0557 4.75506,-0.56204 5.63185,-1.12516 8.42386,-5.41026 14.04778,-7.90858 17.86082,-7.93435 4.38224,-0.0297 4.47289,1.55044 0.17493,3.04871 -1.81045,0.63114 -5.64566,2.87546 -8.52271,4.9874 -2.87703,2.11194 -6.92804,4.30847 -9.00224,4.88119 -2.0742,0.57271 -3.47641,1.51837 -3.11604,2.10146 1.09742,1.77566 10.20567,-0.19244 16.01897,-3.46135 8.18269,-4.60124 8.75936,-3.71267 2.19324,3.37952 -6.90438,7.45757 -13.21143,17.85126 -16.81262,27.70631 -2.33378,6.38668 -2.53004,8.48917 -2.48933,26.66666 0.0426,19.01157 0.15243,20.00643 3.00329,27.2 4.54226,11.46149 4.5197,10.9778 0.69614,14.92271 -3.47468,3.58496 -13.0006,7.61148 -15.03404,6.35475 -1.39616,-0.86288 -4.1599,1.44779 -3.66861,3.06719 0.20946,0.69044 0.64659,2.4818 0.9714,3.9808 0.51216,2.36355 1.12671,2.712 4.62828,2.62415 2.22074,-0.0557 4.75506,-0.56204 5.63185,-1.12515 11.49795,-7.38455 19.19415,-9.9338 19.19415,-6.35772 0,0.88 -0.64185,1.6 -1.42635,1.6 -0.78449,0 -4.1724,1.96639 -7.52866,4.36977 -3.35627,2.40337 -7.7667,4.82932 -9.80095,5.39101 -2.03425,0.56168 -3.4038,1.49831 -3.04343,2.08141 1.07759,1.74358 10.15027,-0.16624 15.93273,-3.35389 8.88516,-4.89805 9.41559,-4.88986 15.92144,0.24585 3.20438,2.52955 5.85295,4.88432 5.88569,5.23282 0.0327,0.34852 -4.62047,3.91979 -10.34047,7.93617 -5.72,4.0164 -12.64438,9.14614 -15.38752,11.39942 -5.32869,4.37715 -9.89155,12.20784 -8.78842,15.08255 0.97324,2.53621 4.60568,2.17861 16.80922,-1.65478 z m 47.63339,-29.5045 c 0,-2.25911 -0.5355,-5.64361 -1.19,-7.52111 -1.39408,-3.99905 -0.65394,-5.27768 1.85142,-3.19842 4.00523,3.32406 -1.0706,-7.66836 -6.28131,-13.60304 -2.41197,-2.74708 -3.02003,-4.06773 -2.02551,-4.39924 1.8115,-0.60383 -3.13582,-3.68342 -8.91352,-5.54847 -6.36576,-2.05487 -6.45195,-2.24147 -2.53562,-5.48944 4.59308,-3.8092 2.2949,-3.92515 -4.49979,-0.22701 -5.70766,3.1065 -8.07233,2.72824 -4.02344,-0.64361 3.77455,-3.14337 0.65539,-2.64221 -6.39608,1.02769 -4.93126,2.56643 -7.25873,3.15445 -11.42297,2.88594 l -5.22985,-0.33724 -2.29798,-6.3526 c -3.22774,-8.92288 -5.03509,-22.69321 -4.15317,-31.64334 0.91564,-9.29241 1.35607,-10.4426 3.99855,-10.4426 1.16553,0 6.99418,-1.53135 12.95255,-3.403 14.22916,-4.46969 23.44778,-4.68032 31.45283,-0.71867 4.45774,2.20611 5.46107,2.41194 5.05507,1.03704 -1.96896,-6.66777 -1.85268,-7.54377 1.81459,-13.67064 2.03386,-3.39794 4.01492,-7.51769 4.40235,-9.15502 0.7096,-2.99883 2.77521,-3.07113 2.77521,-0.0972 0,0.88 0.48,1.30335 1.06667,0.94077 1.43795,-0.8887 1.35583,-11.11884 -0.12333,-15.36194 -1.39408,-3.99905 -0.65394,-5.27769 1.85141,-3.19842 1.60153,1.32914 1.70185,1.21091 1.0024,-1.18134 -0.42749,-1.46206 -2.15689,-4.9383 -3.84314,-7.72497 l -3.06589,-5.06666 11.4226,0.075 c 11.42822,0.075 16.70629,0.97429 14.33173,2.44185 -0.66877,0.41332 -1.037,1.33613 -0.81829,2.05068 0.21871,0.71454 0.66341,2.52562 0.98822,4.02462 0.51216,2.36355 1.12671,2.712 4.62828,2.62414 2.22074,-0.0557 4.75506,-0.55963 5.63185,-1.11982 4.31949,-2.75978 6.89366,-3.68166 8.6891,-3.11181 1.08445,0.34419 1.97172,1.04077 1.97172,1.54794 0,1.48509 -6.14334,5.43519 -10.19125,6.55287 -2.05151,0.56645 -3.43518,1.50698 -3.07481,2.09008 0.95426,1.54403 9.99011,0.007 13.92529,-2.36787 4.51603,-2.72605 5.34839,-2.58617 10.69881,1.7981 7.86747,6.44681 7.84737,7.06583 -0.41842,12.87791 -3.96346,2.7869 -9.45067,6.90805 -12.19381,9.15811 -5.32734,4.36977 -9.89207,12.2006 -8.78842,15.07667 0.9721,2.53327 4.59729,2.17944 16.80922,-1.6406 12.17928,-3.80983 24.5579,-4.7613 26.25417,-2.01801 3.81094,6.16324 4.72282,29.17352 1.66618,42.04417 -2.00096,8.42551 -3.25301,10.06161 -6.68696,8.73815 -1.59802,-0.6159 -1.32936,-1.1655 1.86667,-3.81876 4.68402,-3.88858 2.4618,-4.04921 -4.39433,-0.31763 -5.70766,3.1065 -8.07233,2.72824 -4.02344,-0.64361 3.81457,-3.17671 0.62923,-2.6286 -6.60535,1.1366 -4.8995,2.5499 -7.26336,3.19237 -10.0701,2.73689 -2.01723,-0.32735 -3.94965,-0.13895 -4.29428,0.41866 -0.34462,0.5576 -1.05621,0.7483 -1.58132,0.42376 -0.52512,-0.32454 -2.11452,1.22763 -3.53201,3.44926 -1.41749,2.22164 -3.71468,5.08652 -5.10488,6.3664 -2.90516,2.67466 -12.17445,6.09952 -13.79592,5.0974 -1.41314,-0.87337 -4.18605,1.4208 -3.69072,3.05352 0.20946,0.69045 0.64659,2.4818 0.9714,3.9808 0.51216,2.36355 1.12671,2.712 4.62828,2.62415 2.22073,-0.0557 4.75506,-0.56204 5.63185,-1.12515 8.42386,-5.41026 14.04778,-7.90859 17.86082,-7.93436 4.38224,-0.0297 4.47289,1.55045 0.17493,3.04872 -1.81045,0.63113 -5.64566,2.87545 -8.52271,4.9874 -2.87703,2.11194 -6.92804,4.30847 -9.00224,4.88118 -2.10009,0.57986 -3.47431,1.52176 -3.10115,2.12555 1.12586,1.82167 9.04414,-0.0408 17.02567,-4.00443 6.83566,-3.39466 8.02584,-3.65976 13.29365,-2.96097 l 5.78581,0.76752 -5.29364,4.70645 c -7.16976,6.37445 -18.24562,12.86485 -26.15435,15.32632 -5.05357,1.57287 -9.76266,2.03219 -20.83433,2.03219 h -14.30497 z m 7.00939,-42.25889 c 2.14679,-3.2764 15.57214,-34.28746 19.75461,-45.63092 3.78252,-10.25876 3.87563,-11.72805 0.7146,-11.27687 -1.74592,0.2492 -3.29784,2.20522 -5.77135,7.27419 -5.91699,12.12564 -19.57392,46.68104 -19.57392,49.52685 0,3.53771 2.59085,3.59443 4.87606,0.10675 z m -11.60211,-5.52248 c 0.68311,-1.78015 -5.45914,-8.31478 -13.45705,-14.31671 -2.14846,-1.61229 -3.33819,-3.24308 -2.89231,-3.96453 0.41661,-0.67408 4.33901,-3.70151 8.71644,-6.72763 4.37743,-3.02613 7.95897,-6.17715 7.95897,-7.00229 0,-3.14006 -3.55403,-2.59034 -12.34827,1.90997 -9.84939,5.04027 -16.45173,9.8736 -16.45173,12.04371 0,1.58335 9.25351,9.04581 19.09871,15.4021 7.64199,4.93385 8.41671,5.15328 9.37524,2.65538 z m 48.70124,-3.60895 c 4.41131,-2.95046 10.33153,-7.51176 13.15603,-10.1362 l 5.13544,-4.77171 -3.54096,-3.07017 c -5.60722,-4.8617 -23.31487,-13.68109 -24.70103,-12.30246 -2.49756,2.48399 0.58488,5.2682 16.43515,14.84503 1.47557,0.89155 0.27176,2.19072 -7.33246,7.91335 -8.72334,6.56482 -11.10795,9.47828 -9.66659,11.81044 1.08334,1.75287 2.10536,1.33604 10.51442,-4.28828 z m -73.50297,41.18503 c -1.13787,-0.83203 -1.82961,-1.67715 -1.53721,-1.87803 0.29242,-0.20089 1.73166,-1.32013 3.19833,-2.48721 2.665,-2.12064 2.66554,-2.12063 0.8754,0.012 -1.30296,1.55227 -1.50659,2.64268 -0.747,4 1.26552,2.26133 0.9147,2.33058 -1.78952,0.3532 z m 78.99444,-24.08721 c 0.36259,-0.58666 1.71092,-1.05931 2.99629,-1.05033 1.89998,0.0133 2.03783,0.2097 0.73705,1.05033 -2.10146,1.35807 -4.57266,1.35807 -3.73334,0 z M 216.93229,249.5394 c 3.99104,-7.42172 16.92229,-21.18706 21.80999,-23.21679 2.05333,-0.85269 4.69333,-2.34255 5.86667,-3.31079 2.0685,-1.70695 2.0789,-1.69559 0.34206,0.37357 -1.35566,1.61506 -1.52147,2.61607 -0.68183,4.11643 2.34242,4.18568 0.1203,6.25553 -28.21639,26.28289 -2.01277,1.42255 -1.91524,0.95173 0.8795,-4.24531 z m 114.06452,-21.367 -5.26526,-5.34564 5.10215,0.69933 c 4.29156,0.58822 5.64282,0.31282 8.50536,-1.73349 2.02943,-1.45076 2.68491,-1.67104 1.6238,-0.5457 -1.4032,1.48814 -1.54035,2.41179 -0.64869,4.36877 0.87946,1.93022 0.7361,3.08391 -0.64518,5.19202 -0.97674,1.4907 -2.14288,2.71036 -2.5914,2.71036 -0.44853,0 -3.18489,-2.40554 -6.08078,-5.34565 z m -13.67675,-10.2988 c -1.59412,-1.59411 -0.50761,-2.48889 3.02221,-2.48889 3.86341,0 5.00068,1.41877 2.04609,2.55255 -2.20602,0.84653 -4.18295,0.8217 -5.0683,-0.0637 z m -94.04445,-7.82222 c 0.36258,-0.58667 1.71091,-1.05932 2.99629,-1.05034 1.89998,0.0133 2.03782,0.20971 0.73705,1.05034 -2.10147,1.35807 -4.57266,1.35807 -3.73334,0 z m 96,-2.13333 c 0.36258,-0.58667 1.71091,-1.05932 2.99628,-1.05034 1.89998,0.0133 2.03783,0.20971 0.73705,1.05034 -2.10146,1.35807 -4.57266,1.35807 -3.73333,0 z m 172.00007,156.13859 c 12.2308,-0.82945 13.15897,-1.732 14.2163,-13.82372 0.4576,-5.23319 0.86611,-38.57746 0.90781,-74.0984 l 0.0758,-64.58351 -4.1881,-4.08957 -4.18809,-4.08957 -35.54524,0.4875 c -38.33323,0.52574 -40.67987,0.8731 -43.70784,6.46972 -3.30631,6.11108 -3.93649,134.1852 -0.71191,144.68676 2.17397,7.08005 5.13599,8.71521 17.54778,9.68712 10.47761,0.82043 38.82473,0.49088 55.59348,-0.64633 z m -64.01484,-8.1386 c -2.58329,-1.96167 -3.98524,-6.58279 -3.98524,-13.13611 v -5.79722 h 39.08651 39.0865 l -0.68563,7.37715 c -0.85935,9.24627 -1.41815,10.68127 -4.63563,11.90455 -4.16182,1.58233 -66.7409,1.26576 -68.86651,-0.34837 z m 6.68143,-37.53056 c 0,-6.9873 4.83732,-12.30931 21.89529,-24.08921 12.78171,-8.82679 15.8531,-12.04794 14.94349,-15.6721 -0.36177,-1.44143 0.14028,-3.6571 1.21893,-5.37951 l 1.83406,-2.92862 -2.96647,2.66667 c -2.62093,2.35603 -3.92189,2.66667 -11.16818,2.66667 -7.43348,0 -8.7079,0.3247 -13.60613,3.46666 -4.43783,2.84665 -6.43699,3.4583 -11.17771,3.41985 l -5.77328,-0.0468 3.73333,-1.34282 c 2.05333,-0.73855 6.27167,-3.09304 9.37407,-5.2322 3.1024,-2.13916 7.3024,-4.49025 9.33333,-5.22464 2.03093,-0.73439 3.6926,-1.66285 3.6926,-2.06324 0,-1.33055 -4.31484,-1.88073 -7.5264,-0.95966 -2.97884,0.85432 -14.77786,7.11512 -15.94027,8.45824 -0.90795,1.04911 -7.95537,0.6777 -8.78367,-0.4629 -0.43101,-0.59353 -0.79101,-2.58663 -0.8,-4.4291 -0.0144,-2.95002 0.39756,-3.42154 3.45034,-3.94939 8.73805,-1.51088 10.41666,-2.22777 14.13669,-6.03742 2.18135,-2.2339 4.51296,-5.13314 5.18136,-6.44276 0.6684,-1.30961 1.69528,-2.3623 2.28195,-2.33931 0.58667,0.023 1.87754,-0.39217 2.8686,-0.92257 1.06448,-0.56968 2.04437,-0.57208 2.39432,-0.005 0.84056,1.36005 6.58077,-0.19524 13.21805,-3.5814 6.06216,-3.09275 8.51251,-3.14585 3.83829,-0.0832 -1.93038,1.26483 -2.46904,2.18874 -1.71548,2.94231 0.75358,0.75358 2.04541,0.45486 4.11404,-0.95131 3.11252,-2.11577 8.41315,-4.62146 9.73236,-4.60065 0.4124,0.006 -0.81018,1.24129 -2.71685,2.74398 -1.90667,1.50268 -3.46667,3.13922 -3.46667,3.63674 0,0.49754 1.56,1.24133 3.46667,1.65287 5.23153,1.12919 12.01519,4.82301 10.53614,5.73711 -0.88564,0.54736 -0.62369,1.34425 0.89313,2.71696 3.01176,2.72561 8.57073,11.60736 8.57073,13.69375 0,1.1831 -0.56683,1.52229 -1.77146,1.06003 -1.45627,-0.55882 -1.63718,-0.22074 -1.01681,1.90015 1.29349,4.42208 2.04229,14.61042 1.22307,16.64152 -0.70899,1.75785 -0.87036,1.70847 -1.73261,-0.53013 -1.04494,-2.71291 -3.10219,-2.23042 -3.10219,0.72756 0,1.02655 -1.68,4.65637 -3.73333,8.06627 -3.96283,6.58094 -4.35343,8.43818 -2.69307,12.80525 1.2669,3.33221 1.08484,3.34587 -4.54943,0.34127 -6.89791,-3.67847 -19.48279,-3.22562 -32.66895,1.17552 -12.46542,4.16007 -15.02188,4.28864 -15.02188,0.75491 z m 19.68777,-58.12906 c 1.14797,-1.85745 -1.75124,-2.46738 -3.48537,-0.73325 -1.59051,1.5905 -1.54548,1.72621 0.57274,1.72621 1.26443,0 2.57511,-0.44684 2.91263,-0.99296 z m -30.16601,-36.46897 c 0.6255,-11.06986 2.22829,-12.21206 18.56897,-13.23307 14.00293,-0.87494 50.07998,-0.13174 53.01539,1.09213 2.8548,1.19027 4.97426,6.11664 5.72605,13.30945 l 0.67173,6.42675 h -39.20565 -39.20566 z m 46.27436,-1.4714 c 2.04961,-1.58383 2.04961,-1.61617 0,-3.2 -2.66426,-2.0588 -13.323,-2.13529 -16.08532,-0.11543 -1.725,1.26136 -1.81621,1.74251 -0.6066,3.2 1.9129,2.30491 13.75259,2.38679 16.69192,0.11543 z M 155.36227,361.7847 c 2.93415,-2.47838 3.63728,-4.00865 4.53363,-9.86666 0.64374,-4.20699 0.94008,-32.74771 0.75365,-72.58137 -0.34139,-72.93956 0.0497,-69.12812 -7.51731,-73.26309 -3.10781,-1.69825 -7.60073,-1.91988 -44.52329,-2.19623 -22.586661,-0.16904 -46.504141,0.11768 -53.149961,0.63716 -11.3371,0.88617 -12.27538,1.13657 -15.19357,4.05478 l -3.11028,3.11027 -1.05569,27.18591 c -1.32298,34.06928 -1.34042,84.78649 -0.0353,102.62323 1.01651,13.89219 2.53216,19.01486 6.10533,20.63518 3.71522,1.68473 18.44959,2.24293 63.813071,2.4175 l 45.90696,0.17666 z m -84.619981,-4.51581 c -12.32,-0.42064 -23.1927,-1.10987 -24.16155,-1.53162 -0.96886,-0.42174 -2.0423,-1.8136 -2.38544,-3.09301 -0.34313,-1.27943 -0.63043,-31.98163 -0.63844,-68.22715 -0.0122,-55.15811 0.23738,-66.50392 1.531,-69.59999 l 1.54558,-3.69907 h 51.60182 51.601821 l 2.48928,2.6497 2.48927,2.64972 -0.63239,68.01695 c -0.34781,37.40933 -0.94143,68.81984 -1.31914,69.80114 -0.37772,0.98132 -1.48965,2.15569 -2.47096,2.60974 -2.39913,1.11008 -51.843331,1.37303 -79.650851,0.42359 z m 73.458141,-12.09316 2.80852,-1.84021 v -58.47675 c 0,-58.09428 -0.0147,-58.49004 -2.24532,-60.50873 -2.12951,-1.92718 -4.45411,-2.03199 -45.066661,-2.03199 -34.79218,0 -43.50171,0.28683 -46.44989,1.52979 l -3.62854,1.52979 0.59085,57.812 c 0.40464,39.59177 0.96768,58.5161 1.7865,60.04608 0.65761,1.22875 2.74457,2.71211 4.63769,3.29634 2.10357,0.6492 19.25235,0.94981 44.100191,0.77308 36.39786,-0.25888 40.95243,-0.482 43.46666,-2.1294 z M 70.208959,316.25415 c 0,-6.9873 4.83732,-12.30931 21.8953,-24.08922 12.781691,-8.82678 15.853091,-12.04793 14.943481,-15.67209 -0.36177,-1.44143 0.14027,-3.6571 1.21893,-5.37951 l 1.83406,-2.92862 -2.96648,2.66667 c -2.62093,2.35603 -3.92188,2.66666 -11.168171,2.66666 -7.43347,0 -8.70789,0.32471 -13.60612,3.46667 -4.43784,2.84664 -6.437,3.45829 -11.17772,3.41985 l -5.77328,-0.0468 3.73333,-1.34281 c 2.05333,-0.73855 6.27167,-3.09305 9.37407,-5.2322 3.1024,-2.13916 7.3024,-4.49026 9.33333,-5.22464 2.03093,-0.73439 3.6926,-1.66285 3.6926,-2.06325 0,-1.33055 -4.31484,-1.88072 -7.5264,-0.95966 -2.97884,0.85433 -14.77785,7.11513 -15.94027,8.45824 -0.90795,1.04911 -7.95536,0.67771 -8.78366,-0.4629 -0.43102,-0.59352 -0.79102,-2.58662 -0.8,-4.4291 -0.0144,-2.95001 0.39755,-3.42153 3.45033,-3.94938 8.73805,-1.51088 10.41667,-2.22778 14.13669,-6.03742 2.18135,-2.2339 4.51296,-5.13314 5.18136,-6.44276 0.66841,-1.30961 1.69528,-2.36231 2.28195,-2.33931 0.58667,0.023 1.87754,-0.39217 2.8686,-0.92257 1.06448,-0.56969 2.04437,-0.57209 2.39432,-0.005 0.84056,1.36005 6.58077,-0.19525 13.218051,-3.5814 6.06216,-3.09276 8.51251,-3.14586 3.83829,-0.0832 -1.93038,1.26483 -2.46905,2.18874 -1.71547,2.9423 0.75357,0.75358 2.0454,0.45486 4.11403,-0.9513 3.11252,-2.11577 8.41315,-4.62146 9.73236,-4.60065 0.4124,0.006 -0.81018,1.24129 -2.71685,2.74397 -1.90667,1.50268 -3.46667,3.13923 -3.46667,3.63675 0,0.49754 1.56,1.24132 3.46667,1.65287 5.23153,1.12919 12.01519,4.823 10.53614,5.7371 -0.88564,0.54736 -0.62369,1.34426 0.89313,2.71696 3.01176,2.72561 8.57073,11.60736 8.57073,13.69375 0,1.18311 -0.56683,1.5223 -1.77146,1.06003 -1.45627,-0.55881 -1.63718,-0.22073 -1.01681,1.90015 1.29348,4.42208 2.04228,14.61042 1.22307,16.64153 -0.70899,1.75784 -0.87036,1.70847 -1.73261,-0.53014 -1.04494,-2.7129 -3.10219,-2.23042 -3.10219,0.72757 0,1.02655 -1.68,4.65637 -3.73333,8.06627 -3.96283,6.58094 -4.35343,8.43817 -2.69307,12.80525 1.2669,3.33221 1.08484,3.34586 -4.54943,0.34127 -6.89791,-3.67847 -19.482801,-3.22563 -32.668951,1.17552 -12.46543,4.16007 -15.02188,4.28864 -15.02188,0.75491 z m 19.68778,-58.12907 c 1.14796,-1.85745 -1.75125,-2.46738 -3.48538,-0.73324 -1.59051,1.59049 -1.54548,1.7262 0.57274,1.7262 1.26443,0 2.57511,-0.44683 2.91264,-0.99296 z m 23.944441,-68.95231 c 4.33928,-3.65125 5.99324,-9.31138 4.61257,-15.78493 -0.97104,-4.55289 -0.81967,-5.34413 1.746,-9.12666 1.54506,-2.27788 5.9778,-7.50683 9.85052,-11.61989 6.08703,-6.46474 7.67724,-7.5725 11.73334,-8.17356 5.53289,-0.81992 13.92982,0.86118 18.89973,3.7838 3.25425,1.9137 3.49595,1.93052 2.98399,0.20777 -2.02841,-6.82572 -1.92011,-7.67474 1.76406,-13.82985 2.03386,-3.39794 4.01491,-7.51769 4.40235,-9.15502 0.7096,-2.99883 2.77521,-3.07113 2.77521,-0.0972 0,0.88 0.48,1.30335 1.06667,0.94077 1.43795,-0.8887 1.35583,-11.11884 -0.12333,-15.36194 -1.39408,-3.99905 -0.65394,-5.27768 1.85141,-3.19842 4.00524,3.32405 -1.07059,-7.66837 -6.2813,-13.603036 -2.41198,-2.74709 -3.02003,-4.06774 -2.02551,-4.39925 1.81149,-0.60383 -3.13582,-3.68342 -8.91353,-5.54847 -6.36576,-2.05487 -6.45195,-2.24146 -2.53561,-5.48943 4.59307,-3.80921 2.2949,-3.92515 -4.49979,-0.22702 -5.70766,3.1065 -8.07233,2.72824 -4.02345,-0.64361 3.81457,-3.1767 0.62924,-2.6286 -6.60534,1.1366 -4.8995,2.54991 -7.26336,3.19237 -10.0701,2.7369 -2.01723,-0.32735 -3.94965,-0.13896 -4.29428,0.41864 -0.34462,0.55761 -1.05622,0.74831 -1.58133,0.42377 -0.52512,-0.32454 -2.11451,1.22763 -3.53201,3.44927 -1.41748,2.22163 -3.71467,5.08651 -5.10487,6.3664 -2.90516,2.67465 -12.17445,6.09951 -13.79592,5.09739 -1.41314,-0.87337 -4.186051,1.4208 -3.690721,3.053526 0.20946,0.69044 0.64659,2.4818 0.97141,3.9808 0.51215,2.36355 1.126701,2.712 4.628261,2.62415 2.22074,-0.0557 4.75507,-0.56204 5.63186,-1.12516 8.42386,-5.41025 14.04778,-7.908586 17.86082,-7.934346 4.38224,-0.0296 4.47289,1.55044 0.17493,3.048716 -1.81045,0.63113 -5.64566,2.87545 -8.52271,4.98739 -2.87703,2.11194 -6.92804,4.30848 -9.00224,4.88119 -2.0742,0.57271 -3.47642,1.51837 -3.11604,2.10146 1.13802,1.84138 9.95992,-0.2116 17.2599,-4.01661 6.30659,-3.28722 7.53475,-3.56773 12.95333,-2.95852 5.20697,0.58542 6.40269,0.35412 9.18616,-1.777 2.48377,-1.90167 2.79908,-1.98434 1.40873,-0.36937 -1.35684,1.57604 -1.52219,2.56144 -0.68183,4.06309 1.9282,3.4455 -0.63096,6.5405 -12.12704,14.66614 -6.04992,4.27622 -13.24424,9.61421 -15.98738,11.86223 -5.32651,4.3651 -9.89241,12.19604 -8.78843,15.07296 0.76598,1.9961 5.2238,2.3109 9.53155,0.67309 3.81453,-1.45028 3.24816,-0.35146 -4.09115,7.93727 -5.07066,5.7266 -6.79271,7.00453 -9.43879,7.00453 -10.610951,0 -16.632541,10.01487 -11.952081,19.87821 3.36372,7.08852 13.398961,9.17011 19.491981,4.04318 z m 12.36777,-98.588046 c 0.36258,-0.58667 1.71091,-1.05932 2.99629,-1.05034 1.89998,0.0133 2.03782,0.20971 0.73705,1.05034 -2.10147,1.35806 -4.57267,1.35806 -3.73334,0 z m 318.0191,99.589496 c 10.26799,-4.87248 8.54768,-19.10401 -2.97628,-24.62183 -2.98171,-1.42767 -7.74707,-5.44055 -12.01859,-10.12073 l -7.0779,-7.75507 2.96016,-0.84842 c 4.42291,-1.26764 13.44933,0.11306 18.95221,2.89897 4.04526,2.04797 4.78259,2.17121 4.35605,0.72808 -1.97712,-6.68914 -1.86194,-7.56166 1.80768,-13.69243 2.03385,-3.39794 4.01491,-7.5177 4.40234,-9.15503 0.7096,-2.99883 2.77521,-3.07113 2.77521,-0.0972 0,0.88 0.48,1.30334 1.06667,0.94076 1.43795,-0.8887 1.35583,-11.11883 -0.12333,-15.36194 -1.39408,-3.99905 -0.65394,-5.27768 1.85141,-3.19842 4.00524,3.32406 -1.07059,-7.66836 -6.2813,-13.603036 -2.41198,-2.74709 -3.02003,-4.06774 -2.02551,-4.39924 1.8115,-0.60384 -3.13582,-3.68343 -8.91353,-5.54848 -6.36576,-2.05486 -6.45194,-2.24146 -2.53561,-5.48943 4.59307,-3.80921 2.2949,-3.92515 -4.49979,-0.22702 -5.70766,3.1065 -8.07233,2.72824 -4.02344,-0.6436 3.81457,-3.17671 0.62923,-2.6286 -6.60535,1.13659 -4.8995,2.54991 -7.26336,3.19237 -10.0701,2.7369 -2.01722,-0.32735 -3.94965,-0.13896 -4.29428,0.41865 -0.34462,0.55761 -1.05621,0.7483 -1.58132,0.42376 -0.52512,-0.32453 -2.11452,1.22764 -3.53201,3.44927 -1.41749,2.22163 -3.71468,5.08651 -5.10488,6.3664 -2.90516,2.67465 -12.17445,6.099516 -13.79592,5.09739 -1.41314,-0.87337 -4.18605,1.420806 -3.69072,3.053536 0.20946,0.69044 0.64659,2.48179 0.9714,3.98079 0.51216,2.36355 1.12671,2.712 4.62828,2.62415 2.22073,-0.0557 4.75506,-0.56204 5.63185,-1.12515 8.42386,-5.41026 14.04778,-7.90859 17.86082,-7.93436 4.38224,-0.0296 4.47289,1.55044 0.17493,3.04872 -1.81045,0.63113 -5.64566,2.87546 -8.52271,4.9874 -2.87703,2.11194 -6.92804,4.30847 -9.00224,4.88118 -2.07419,0.57272 -3.47641,1.51837 -3.11604,2.10146 1.13803,1.84138 9.95993,-0.2116 17.2599,-4.0166 6.3066,-3.28722 7.53476,-3.56774 12.95334,-2.95852 5.20696,0.58542 6.40268,0.35411 9.18615,-1.77701 2.48378,-1.90167 2.79908,-1.98434 1.40874,-0.36937 -1.35685,1.57604 -1.5222,2.56144 -0.68184,4.06309 1.94341,3.47269 -0.68167,6.61606 -12.54087,15.0169 -6.26259,4.43633 -11.73202,8.06603 -12.15429,8.06603 -0.42227,0 -1.68216,-1.012 -2.79975,-2.24889 -2.96936,-3.28633 -19.31541,-16.14824 -25.44082,-20.01815 -2.90152,-1.83313 -6.62152,-3.33296 -8.26666,-3.33296 -5.81894,0 -3.71565,2.6017 10.87549,13.45263 6.16,4.58097 13.22697,10.19727 15.70437,12.48069 l 4.50437,4.15163 -2.56451,3.36226 c -3.23598,4.24259 -4.96539,8.72923 -4.16685,10.81019 0.84408,2.19965 5.25865,2.02097 12.61695,-0.51065 l 6.16163,-2.11992 4.74847,5.05325 c 2.61167,2.77928 5.92581,6.7746 7.36479,8.87848 l 2.6163,3.82524 -2.136,4.7081 c -2.65746,5.85746 -2.66755,7.80368 -0.0702,13.52616 2.99703,6.60299 10.07697,8.55681 17.77307,4.90477 z M 411.00893,92.718054 c 0.36259,-0.58667 1.71092,-1.05932 2.99629,-1.05033 1.89998,0.0133 2.03783,0.2097 0.73705,1.05033 -2.10146,1.35807 -4.57266,1.35807 -3.73334,0 z M 319.42842,170.0378 c 0.97551,-2.54213 -1.53236,-4.62264 -6.46356,-5.36212 -6.5771,-0.9863 -7.30942,-1.76838 -7.85877,-8.39279 l -0.49465,-5.96484 h 22.21463 22.21464 l 3.51744,-3.40925 3.51745,-3.40923 V 89.620454 35.741338 l -3.94981,-4.044973 -3.94981,-4.044973 -71.51685,0.0444 -71.51685,0.0444 -3.83824,3.422265 -3.83824,3.422265 -0.64244,53.429582 -0.64244,53.429586 4.52105,4.43708 4.52106,4.43708 h 16.60315 c 9.13174,0 19.55357,0.30838 23.15963,0.68529 l 6.55647,0.68528 v 4.96805 c 0,5.72586 -1.33606,7.52805 -5.58093,7.52805 -4.21666,0 -10.7013,2.88268 -10.16364,4.51815 0.70288,2.13802 8.54414,2.6022 46.97804,2.78094 31.28435,0.14548 36.11509,-0.0451 36.65267,-1.44601 z m -82.92468,-27.12936 c -22.12713,-0.46045 -28.76879,-0.92026 -30.17522,-2.0891 -1.46048,-1.21375 -1.74469,-3.03902 -1.49479,-9.6 l 0.30855,-8.10129 14.93333,-0.66985 c 35.03417,-1.5715 125.52053,-0.65883 128.6867,1.29798 0.75951,0.4694 1.5236,3.76844 1.77035,7.64373 0.53496,8.40119 -0.74761,10.01479 -8.58975,10.80672 -9.01502,0.91039 -74.61422,1.35324 -105.43917,0.71181 z m 43.90514,-8.71483 c 0.95117,-1.77729 0.87097,-2.59513 -0.37687,-3.84296 -3.12135,-3.12137 -8.77591,1.26408 -5.97753,4.63594 1.80286,2.1723 4.97958,1.77588 6.3544,-0.79298 z m -71.56833,-22.21005 c 2.44306,-4.5649 11.91027,-35.674426 11.42321,-37.536976 -0.45015,-1.72139 0.10956,-1.9952 4.07852,-1.9952 3.84781,0 4.52398,0.30533 4.1338,1.86667 -0.25656,1.02667 1.69194,8.10667 4.33001,15.73333 l 4.79649,13.866666 -0.23015,-9.335816 c -0.21484,-8.71484 -0.0882,-9.33275 1.90318,-9.28961 1.47375,0.0319 2.86922,1.59921 4.51342,5.06915 1.30906,2.76262 3.59637,6.94295 5.08293,9.28961 l 2.70284,4.266666 -0.28292,-9.335816 c -0.2512,-8.28872 -0.0736,-9.33555 1.58373,-9.33334 1.68192,0.002 1.86667,1.37487 1.86667,13.86916 0,12.511896 -0.18237,13.862396 -1.86667,13.822946 -1.15556,-0.0271 -2.77335,-1.9572 -4.24675,-5.06667 -1.30906,-2.76262 -3.59285,-6.94294 -5.07511,-9.289606 l -2.69503,-4.26667 0.17195,9.599996 0.17195,9.6 -4.95228,0.32465 c -4.1273,0.27057 -4.84578,0.0472 -4.31297,-1.34136 0.35163,-0.91631 0.32482,-3.3424 -0.0595,-5.39132 l -0.69891,-3.7253 h -6.70603 -6.70603 l -1.17529,3.82942 c -0.6464,2.10619 -0.91558,4.50619 -0.59817,5.33333 0.43936,1.14494 -0.47752,1.50392 -3.84121,1.50392 -4.04113,0 -4.32385,-0.17654 -3.31166,-2.06783 z M 227.4921,93.556274 c -0.41415,-1.88564 -1.30697,-5.02855 -1.98405,-6.98423 l -1.23105,-3.55578 -2.27073,6.98423 -2.27074,6.98423 h 4.25479 c 4.23563,0 4.2514,-0.0154 3.50178,-3.42845 z m 30.98351,5.56178 v -13.86667 l 4.26667,0.0146 c 9.58391,0.0327 12.26666,3.03965 12.26666,13.74894 0,10.648116 -2.86527,13.969836 -12.05018,13.969836 h -4.48315 z m 12.22914,6.470126 c 0.60731,-1.13477 1.10419,-4.25477 1.10419,-6.933336 0,-5.62001 -2.66866,-9.13679 -6.93333,-9.13679 -2.6353,0 -2.66667,0.10667 -2.66667,9.06667 v 9.066666 h 3.69581 c 2.56224,0 4.03448,-0.63282 4.8,-2.06321 z m 8.03753,-6.470126 v -13.86667 h 5.36265 c 7.54546,0 10.10401,2.04373 10.10401,8.07093 0,3.33675 -0.59941,5.26319 -2.01471,6.47501 -1.96845,1.685436 -1.95651,1.856656 0.51989,7.456216 l 2.53459,5.73118 h -2.65322 c -1.63118,0 -2.65321,-0.60802 -2.65321,-1.57841 0,-3.68394 -3.47235,-10.15492 -5.44916,-10.15492 -1.73435,0 -2.01751,0.82337 -2.01751,5.86666 0,4.8762 -0.31515,5.86667 -1.86667,5.86667 -1.68205,0 -1.86666,-1.37142 -1.86666,-13.866666 z m 12.09332,-5.2127 c 0.41863,-2.96076 -1.30367,-4.34801 -5.42666,-4.37097 -2.6538,-0.0148 -2.93333,0.34557 -2.93333,3.78139 0,3.73623 0.0648,3.79236 4,3.46667 3.28807,-0.27214 4.06407,-0.7842 4.35999,-2.87709 z m 6.0772,16.828836 c 3.31262,-10.43714 6.72811,-23.825056 6.26809,-24.569396 -0.31049,-0.50237 0.66381,-0.91341 2.1651,-0.91341 1.85225,0 2.72962,0.57977 2.72962,1.80375 0,2.42017 4.6305,18.468516 5.32114,18.441886 0.78471,-0.0302 7.47886,-11.667016 7.47886,-13.000886 0,-1.43716 -5.95613,-12.07564 -9.28152,-16.57808 l -2.56038,-3.46667 h 6.03507 c 5.14073,0 5.93618,0.25772 5.36774,1.73904 -0.55979,1.4588 3.93936,11.06096 5.18269,11.06096 1.2064,0 5.81274,-9.71301 5.27318,-11.11911 -0.53526,-1.39485 0.28197,-1.68089 4.80243,-1.68089 4.73801,0 7.18619,1.23181 4.59327,2.31112 -0.90511,0.37675 -10.87915,16.10119 -10.87915,17.15138 0,1.21436 8.9176,16.318526 11.02339,18.670836 l 2.14848,2.4 h -6.11555 c -4.28884,0 -5.89215,-0.36147 -5.36764,-1.21015 0.68796,-1.11315 -4.74058,-12.645676 -5.95535,-12.651706 -1.22899,-0.006 -6.53615,10.901856 -5.99292,12.317446 0.47513,1.2382 -0.61677,1.54117 -5.50721,1.52808 -3.91527,-0.0107 -5.57064,-0.3515 -4.62216,-0.95218 0.97821,-0.61951 1.24175,-1.87594 0.77968,-3.717 -0.57969,-2.30964 -1.30818,-2.78116 -4.29692,-2.78116 -3.67683,0 -4.8938,1.34797 -4.8938,5.42058 0,1.35722 -0.74245,2.04609 -2.20521,2.04609 -1.75807,0 -2.06039,-0.45632 -1.49093,-2.25053 z m 10.49117,-11.349466 c -0.39175,-1.61334 -1.04567,-3.86573 -1.45315,-5.00533 -0.64056,-1.79143 -0.84258,-1.647 -1.49203,1.06667 -0.41313,1.72626 -1.00071,3.97866 -1.30572,5.005326 -0.42767,1.43957 0.0767,1.86666 2.20431,1.86666 2.47124,0 2.68462,-0.30582 2.04659,-2.933326 z m -68.83342,-18.43414 c -0.90536,-2.59709 -1.41968,-2.99157 -2.61118,-2.00272 -0.81607,0.67727 -1.48376,1.98863 -1.48376,2.91413 0,1.28583 -0.29467,1.38805 -1.24931,0.43341 -1.52911,-1.5291 -1.44003,-10.37606 0.14649,-14.548911 1.40846,-3.704547 0.92645,-4.379968 -2.00582,-2.810663 -1.22358,0.65484 -2.22469,0.788291 -2.22469,0.296558 0,-1.179565 6.38149,-9.835226 7.29228,-9.891015 0.38924,-0.02384 2.38772,-1.523301 4.44105,-3.332131 3.30676,-2.913007 3.44156,-3.219564 1.17968,-2.682996 -1.4742,0.349714 -2.15054,0.209345 -1.6,-0.33207 1.26278,-1.241848 16.17755,-5.333532 19.59888,-5.376709 2.63881,-0.0333 2.64898,-0.06471 0.55477,-1.712535 -1.17333,-0.923235 -3.57333,-2.369226 -5.33333,-3.213312 l -3.2,-1.534701 4.04325,0.637018 c 2.2238,0.350361 6.26792,1.590613 8.98693,2.756118 6.64024,2.846342 9.54818,2.187191 4.56982,-1.035854 l -3.73333,-2.417001 3.69079,0.744409 c 2.02994,0.409424 5.62994,1.568846 8,2.576495 2.37006,1.007649 6.87357,2.129998 10.0078,2.494108 5.23448,0.608103 5.58197,0.516315 4.26666,-1.127062 -1.0558,-1.319147 -0.34719,-1.158275 2.69775,0.61245 3.12862,1.819386 3.97708,2.003857 3.50015,0.760995 -0.99437,-2.591277 0.0122,-1.981237 5.24843,3.180865 6.7002,6.605347 11.48663,8.796049 21.12703,9.669639 4.50303,0.408054 8.44232,1.154501 8.75397,1.65877 0.31166,0.50427 0.10326,0.916854 -0.4631,0.916854 -0.56637,0 -0.80517,0.858875 -0.53065,1.90861 0.28264,1.080816 -0.45462,2.771722 -1.69986,3.898653 -1.22515,1.108742 -2.19898,1.444452 -2.19898,0.758057 0,-1.57451 -6.035,-1.618835 -7.00371,-0.05145 -0.51772,0.83768 -0.96905,0.793125 -1.55405,-0.153408 -1.58275,-2.560939 -19.88601,-8.4938 -26.20393,-8.4938 -5.7069,0 -6.19259,1.616835 -0.79013,2.63034 2.15316,0.403936 8.09655,2.617356 13.20755,4.91871 5.11098,2.301356 10.18931,4.218019 11.28516,4.259253 1.09584,0.04124 2.95245,0.523679 4.12578,1.072096 1.44962,0.67756 -0.60152,0.85505 -6.4,0.55382 -6.23186,-0.32375 -10.40328,-1.244087 -15.46666,-3.41239 -6.10178,-2.612976 -8.12762,-2.946614 -16.89101,-2.781788 -10.42652,0.196107 -14.97017,-1.085673 -17.15688,-4.840018 -0.98085,-1.684031 -1.09042,-1.692739 -1.11968,-0.08899 -0.0178,0.977736 1.28757,2.762529 2.9009,3.966208 1.61333,1.20368 2.33333,2.203715 1.6,2.222301 -1.98877,0.0504 -1.60982,3.7196 0.58973,5.710167 1.05768,0.95719 7.05768,4.16234 13.33333,7.12255 6.27565,2.96022 11.41027,5.61145 11.41027,5.89164 0,0.28019 -12.26497,0.50943 -27.25548,0.50943 h -27.25549 z m 83.08284,-24.076972 c -0.35444,-0.354444 -1.27445,-0.392339 -2.04445,-0.08421 -0.85091,0.340508 -0.59816,0.593262 0.64445,0.644445 1.12444,0.04631 1.75444,-0.20579 1.4,-0.560235 z m -24.24445,-6.288888 c -2.57884,-1.474194 -9.56319,-2.274297 -8.2319,-0.943018 0.72401,0.724018 6.77602,2.283485 9.29857,2.396034 0.88,0.03926 0.4,-0.614594 -1.06667,-1.453016 z"
       id="path81" />
  </g>
</svg>
