<?xml version="1.0" encoding="UTF-8" standalone="no"?>
<svg
   xmlns:dc="http://purl.org/dc/elements/1.1/"
   xmlns:cc="http://creativecommons.org/ns#"
   xmlns:rdf="http://www.w3.org/1999/02/22-rdf-syntax-ns#"
   xmlns:svg="http://www.w3.org/2000/svg"
   xmlns="http://www.w3.org/2000/svg"
   version="1.1"
   id="svg2"
   width="100"
   height="100"
   viewBox="0 0 533.33331 533.33331">
  <metadata
     id="metadata8">
    <rdf:RDF>
      <cc:Work
         rdf:about="">
        <dc:format>image/svg+xml</dc:format>
        <dc:type
           rdf:resource="http://purl.org/dc/dcmitype/StillImage" />
        <dc:title></dc:title>
      </cc:Work>
    </rdf:RDF>
  </metadata>
  <defs
     id="defs6" />
  <g
     id="g10">
    <path
       style="fill:#000000;stroke-width:1.06667"
       d="m 205.72104,503.77535 c -9.84518,-1.48226 -12.11607,-5.80584 -12.11893,-23.0734 -0.002,-10.93906 0.31332,-13.34277 2.1675,-16.53333 3.8285,-6.58783 7.10734,-7.46313 27.96371,-7.46501 l 18.4,-0.002 V 444.43529 432.16862 H 164.515 86.896683 l -5.609767,-4.90728 C 71.124765,418.37173 72.04304,429.39307 71.675417,311.90196 L 71.35084,208.16863 43.408751,208.10716 c -15.368149,-0.0338 -29.862089,-0.40219 -32.208755,-0.81863 l -4.266667,-0.75715 17.425024,-17.78581 17.425025,-17.78581 -15.798056,-19.2898 c -8.688931,-10.6094 -16.194043,-19.9974 -16.678027,-20.86223 -0.77213,-1.37972 9.646692,-1.57243 85.015631,-1.57243 h 85.895604 l 0.29073,19.46667 0.29073,19.46666 21.06667,0.28922 21.06666,0.28921 v -29.77691 -29.77691 l -16.26666,-0.6375 c -8.94667,-0.35062 -44.56824,-1.00116 -79.15905,-1.44563 L 64.615227,106.30197 81.34148,88.731348 98.067734,71.160728 96.32718,68.464678 c -1.52573,-2.36329 -5.730774,-7.65988 -26.813605,-33.773851 l -4.619751,-5.722195 h 85.816776 85.81676 l 0.65726,17.866666 c 0.36148,9.82667 0.96681,41.27477 1.34516,69.884682 l 0.68793,52.01802 26.79113,-0.28468 26.79115,-0.28469 0.64909,-58.66666 c 0.357,-32.266672 0.717,-63.586672 0.8,-69.600005 l 0.15091,-10.933333 h 85.99676 c 84.43817,0 85.97025,0.03692 84.53333,2.036811 -0.80488,1.120248 -7.63599,9.640247 -15.18021,18.933333 -7.54424,9.293082 -14.21216,17.956502 -14.81762,19.252042 -0.99343,2.12569 0.47503,4.01056 15.05011,19.3179 8.88303,9.3293 16.15095,17.208862 16.15095,17.510112 0,0.30126 -28.92,0.85589 -64.26666,1.2325 -35.34667,0.37662 -70.62666,0.97498 -78.4,1.32969 l -14.13333,0.64492 v 29.73801 29.73802 h 20.8 20.8 V 147.54553 126.3891 l 57.86666,0.45773 c 31.82667,0.25176 70.45784,0.77215 85.84706,1.15644 l 27.98039,0.6987 -15.98039,19.47824 c -8.78922,10.71303 -15.98039,19.78424 -15.98039,20.15825 0,0.374 8.03999,8.8888 17.86666,18.92176 l 17.86667,18.24174 -32.26667,0.28231 -32.26666,0.28231 -0.004,103.71768 -0.004,103.7177 -3.52495,5.86021 c -1.93872,3.22312 -5.57404,7.42312 -8.0785,9.33333 l -4.55386,3.47312 H 366.3176 286.93386 v 12.20566 12.20567 l 21.79913,0.32767 21.79912,0.32767 3.29135,3.1557 c 4.60917,4.41923 5.68692,9.08634 5.22367,22.62074 -0.43264,12.64012 -1.54219,15.68935 -7.01389,19.27536 -2.64723,1.73495 -7.48678,1.89521 -62.11847,2.0572 -32.58617,0.0966 -61.4731,-0.15942 -64.19319,-0.56894 z m 118.32208,-23.8734 -0.3098,-8.8 -57.33333,-0.27593 -57.33333,-0.27593 v 9.07593 9.07593 h 57.64313 57.64313 z m -53.1098,-35.46666 v -12.26667 h -6.4 -6.4 v 12.26667 12.26666 h 6.4 6.4 z m 168.2931,-51.46988 0.2931,-17.33655 -173.09309,0.26989 -173.093105,0.26987 -0.3314,11.2 c -0.478061,16.15655 0.401445,22.15244 3.333345,22.72451 1.282264,0.2502 78.89139,0.39955 172.46472,0.33187 l 170.13332,-0.12304 z m -179.70391,9.36433 c -2.57424,-1.08101 -5.65585,-6.21951 -5.65585,-9.43096 0,-2.86392 3.6117,-7.13338 7.34121,-8.67819 5.73385,-2.37504 12.92545,2.95597 12.92545,9.5814 0,3.06454 -5.40217,8.43219 -9.06666,9.0087 -1.76,0.2769 -4.25487,0.0605 -5.54415,-0.48095 z M 439.46665,283.36863 V 206.0353 h -4.8 -4.8 v 72.53671 72.53672 l -163.99999,-0.27006 -164,-0.27005 -0.27422,-71.19999 -0.27423,-71.2 h -4.259106 -4.259112 v 76.26666 76.26667 H 266.13332 439.46665 Z m -17.06667,-8.53334 V 206.0353 h -28.26666 -28.26667 v 17.23961 c 0,16.66849 0.0925,17.39738 2.79055,22.00134 5.00043,8.53258 3.04885,16.91941 -4.68943,20.15267 -7.47815,3.12457 -15.0063,-0.10646 -17.89955,-7.6823 -1.7708,-4.63676 -1.76674,-4.66683 1.54482,-11.46443 3.28474,-6.74252 3.32028,-6.99442 3.32028,-23.53119 v -16.7157 h -21.86667 -21.86666 v 30.68572 30.68572 l 2.78367,4.09654 c 7.25715,10.67985 2.0862,22.01322 -10.03386,21.99165 -12.15375,-0.0216 -17.17847,-13.92573 -8.4121,-23.27742 2.26485,-2.41605 2.33865,-3.33362 2.68123,-33.33333 l 0.35228,-30.84888 h -28.35228 -28.35227 v 24.3261 c 0,24.27287 0.005,24.33401 2.66666,27.94056 4.65083,6.30384 3.26883,15.43027 -2.90674,19.19552 -4.42288,2.69663 -9.99374,2.71897 -14.35852,0.0576 -6.83015,-4.16464 -7.99853,-12.04445 -2.88019,-19.42464 l 3.07879,-4.43938 0.32339,-23.82788 0.32338,-23.82788 h -21.92338 -21.92339 v 38.86245 38.86246 l 3.34368,5.37885 c 4.32041,6.9501 3.83568,11.79341 -1.69104,16.89623 -3.19296,2.94807 -4.55233,3.46667 -9.08682,3.46667 -7.39176,0 -11.73651,-3.81505 -12.54846,-11.0186 -0.50469,-4.47764 -0.17475,-5.63715 2.77154,-9.73978 l 3.34443,-4.65704 v -37.95896 -37.95895 h -29.33333 -29.33333 v 67.73333 67.73333 h 157.33333 157.33332 z m -243.63814,27.12102 c 1.59812,-1.32633 2.01479,-7.06762 0.66678,-9.18762 -1.40422,-2.20839 -6.41648,-3.56126 -9.23044,-2.49139 -8.1476,3.09772 -5.21988,14.92046 3.3504,13.52968 2.03964,-0.33098 4.38561,-1.16378 5.21326,-1.85067 z m 126.06747,-15.44816 c 3.09915,-2.17073 3.22655,-8.15032 0.23734,-11.13952 -4.74753,-4.74753 -11.73333,-1.32209 -11.73333,5.75335 0,6.19799 6.19382,9.09995 11.49599,5.38617 z m -70.86379,-13.39048 c 5.67485,-2.58564 5.74248,-8.59446 0.13804,-12.26663 -7.5437,-4.94282 -15.4384,5.67208 -8.35972,11.24017 3.20613,2.52194 4.56665,2.6918 8.22168,1.02646 z m 130.79694,-14.74559 c 1.64383,-3.07153 1.33695,-7.64494 -0.66113,-9.85279 -2.40492,-2.65741 -7.67134,-2.47597 -10.69927,0.3686 -5.12067,4.81063 -1.60448,11.54741 6.02707,11.54741 3.08953,0 4.52667,-0.55596 5.33333,-2.06322 z M 223.99999,194.30196 v -4.26666 h -21.86667 -21.86666 v 4.26666 4.26667 h 21.86666 21.86667 z m 70.4,0 v -4.26666 h -28.26667 -28.26666 v 4.26666 4.26667 h 28.26666 28.26667 z m 56.53333,0 v -4.26666 h -21.86667 -21.86666 v 4.26666 4.26667 h 21.86666 21.86667 z m 138.78159,-5.06666 c -0.56474,-1.02667 -3.97834,-4.74667 -7.58578,-8.26667 -3.60743,-3.52 -7.53439,-7.74729 -8.72656,-9.39399 l -2.16757,-2.99399 4.14423,-5.00601 c 2.27933,-2.7533 7.41287,-8.96601 11.40786,-13.80601 l 7.26364,-8.8 h -64.09204 -64.09204 v 25.06667 25.06666 h 62.43752 c 59.14436,0 62.38338,-0.0985 61.41074,-1.86666 z M 222.93332,68.435298 V 43.901964 H 159.38024 95.827156 l 4.619754,5.754794 c 2.54086,3.165136 7.42658,9.15581 10.85715,13.31261 l 6.2374,7.55781 -1.97073,2.59911 c -1.08391,1.42952 -5.50159,6.47884 -9.81708,11.22073 l -7.846336,8.62161 h 62.512996 62.51301 z"
       id="path837" />
  </g>
</svg>
