<?xml version="1.0" encoding="UTF-8" standalone="no"?>
<svg
   xmlns:dc="http://purl.org/dc/elements/1.1/"
   xmlns:cc="http://creativecommons.org/ns#"
   xmlns:rdf="http://www.w3.org/1999/02/22-rdf-syntax-ns#"
   xmlns:svg="http://www.w3.org/2000/svg"
   xmlns="http://www.w3.org/2000/svg"
   xmlns:sodipodi="http://sodipodi.sourceforge.net/DTD/sodipodi-0.dtd"
   xmlns:inkscape="http://www.inkscape.org/namespaces/inkscape"
   inkscape:version="1.0rc1 (09960d6f05, 2020-04-09)"
   sodipodi:docname="spysteal.svg"
   viewBox="0 0 512 512"
   height="100"
   width="100"
   id="svg62"
   version="1.1">
  <metadata
     id="metadata68">
    <rdf:RDF>
      <cc:Work
         rdf:about="">
        <dc:format>image/svg+xml</dc:format>
        <dc:type
           rdf:resource="http://purl.org/dc/dcmitype/StillImage" />
        <dc:title></dc:title>
      </cc:Work>
    </rdf:RDF>
  </metadata>
  <defs
     id="defs66" />
  <sodipodi:namedview
     inkscape:current-layer="g70"
     inkscape:window-maximized="1"
     inkscape:window-y="24"
     inkscape:window-x="0"
     inkscape:cy="221.5"
     inkscape:cx="256"
     inkscape:zoom="0.80128127"
     showgrid="false"
     id="namedview64"
     inkscape:window-height="692"
     inkscape:window-width="1366"
     inkscape:pageshadow="2"
     inkscape:pageopacity="0"
     guidetolerance="10"
     gridtolerance="10"
     objecttolerance="10"
     borderopacity="1"
     bordercolor="#666666"
     pagecolor="#ffffff" />
  <g
     id="g70"
     inkscape:label="Image"
     inkscape:groupmode="layer">
    <path
       inkscape:connector-curvature="0"
       id="path74"
       d="m 160.11943,500.92836 c -2.53989,-0.77973 -6.21789,-2.91367 -8.17335,-4.74209 -5.89686,-5.51373 -7.48064,-10.80062 -10.62048,-35.45255 -1.56155,-12.26037 -2.7938,-22.35495 -2.73832,-22.43239 0.0555,-0.0775 10.13427,-0.49801 22.39731,-0.9346 22.28706,-0.79346 22.29668,-0.79278 22.83975,1.60629 0.2988,1.32005 1.52323,10.5528 2.72095,20.51725 1.94191,16.15566 2.03482,18.7066 0.85819,23.56159 -3.23271,13.33874 -15.62256,21.45657 -27.28405,17.8765 z m 196.31124,-2.57757 0.29944,-4.17968 8.4419,-0.32203 8.44188,-0.32205 v 4.50172 4.50171 h -8.74133 -8.74133 z m 129.09857,-0.30835 v -4.48803 l 8.2007,0.16138 8.20068,0.16138 v 4.32665 4.32664 h -8.20068 -8.2007 z m -438.013509,1.6608 c -9.168438,-3.28886 -15.4366,-13.01947 -15.4366,-23.96357 0,-5.79683 3.819687,-45.85739 4.449445,-46.6654 0.193425,-0.24819 4.589819,0.40448 9.769764,1.45035 5.179946,1.04587 14.764144,2.57659 21.298216,3.40159 6.534074,0.82501 12.136638,1.79633 12.450142,2.15852 0.313505,0.36218 -0.391632,10.57041 -1.56697,22.68497 -2.92026,30.09997 -5.881474,36.83777 -18.049201,41.06827 -5.479452,1.90511 -7.280672,1.88632 -12.914796,-0.13473 z M 356.24772,274.04163 V 58.927763 h 72.84145 72.84145 V 274.04163 489.15551 H 429.08917 356.24772 Z M 90.448773,427.73099 C 62.09218,425.66519 37.806592,421.37858 21.225272,415.5125 l -9.406678,-3.32788 0.0033,-5.8191 c 0.0086,-15.17404 3.937991,-51.3718 8.851741,-81.54265 1.9939,-12.24273 2.718599,-19.01719 2.061435,-19.27026 -4.616399,-1.77771 -9.595717,-5.89084 -11.160893,-9.21939 -1.5967371,-3.39565 -1.7578051,-5.3894 -1.243309,-15.39006 2.615085,-50.83139 12.122919,-99.19302 25.241453,-128.39071 11.738693,-26.12661 27.486653,-41.00873 43.952523,-41.53597 3.089681,-0.099 5.617601,-0.25092 5.617601,-0.33775 0,-0.0868 -1.990023,-5.37143 -4.422275,-11.743532 -2.432251,-6.372107 -4.781822,-12.630505 -5.221269,-13.907546 -0.789962,-2.295655 -0.650016,-2.286939 12.381772,0.770431 28.040787,6.578639 41.365207,6.574671 69.217347,-0.02062 7.12014,-1.686014 12.94571,-2.98976 12.94571,-2.897216 0,0.09251 -3.25615,8.640656 -7.2359,18.995793 -3.97975,10.35513 -7.2359,18.95876 -7.2359,19.1192 0,0.16043 1.25621,1.04217 2.79157,1.95941 1.81528,1.08445 4.20678,4.6466 6.83801,10.18516 2.22551,4.6846 4.40144,8.08488 4.83536,7.55619 0.43394,-0.52869 6.32151,-16.25886 13.08353,-34.95593 6.762,-18.697069 12.37613,-34.121648 12.47583,-34.276842 0.22925,-0.356832 66.15932,31.742022 66.86017,32.551682 0.44551,0.51467 -6.14913,19.26186 -23.51426,66.84616 l -4.03759,11.06388 2.93682,2.31107 c 10.05082,7.90927 8.95082,20.32775 -2.93861,33.17559 -6.9605,7.52157 -11.89849,10.09598 -20.4788,10.67654 -13.64992,0.92356 -25.96414,-6.36812 -40.81935,-24.17058 -6.03071,-7.22719 -8.38481,-9.43308 -8.38481,-7.85689 0,3.64141 7.48109,45.93629 11.50949,65.06969 9.53111,45.26932 25.2635,104.35128 40.87447,153.50137 l 3.41172,10.74163 -8.84329,0.73046 c -34.00294,2.80869 -94.41878,3.61628 -121.723414,1.62712 z M 217.74455,189.75249 c 2.05107,-2.8347 5.55771,-6.0884 7.79253,-7.23045 l 4.0633,-2.07646 13.21242,-36.35726 c 7.26683,-19.99651 13.05123,-36.54348 12.85423,-36.77106 -0.66845,-0.77224 -55.49561,-27.212484 -56.42849,-27.212484 -0.50983,0 -6.5672,15.422996 -13.46082,34.273324 -8.81558,24.10589 -12.29604,34.82361 -11.73225,36.1283 0.44087,1.02024 4.09805,6.97209 8.12707,13.22632 12.04742,18.70119 23.82706,30.97296 29.87635,31.12449 1.18971,0.0298 3.43948,-1.98654 5.69566,-5.10472 z m -10.79769,-14.42473 c -6.81463,-3.60043 -7.85666,-4.98786 -6.12214,-8.15157 0.68596,-1.25117 2.16614,-0.8472 7.94472,2.16826 3.90594,2.03825 7.24422,3.81437 7.4184,3.94692 0.17418,0.13256 -0.25997,1.47648 -0.96479,2.98648 l -1.28148,2.74546 z m 11.33625,-18.79482 c -2.91848,-1.43849 -10.8418,-5.23425 -17.60737,-8.43502 -6.76558,-3.20077 -12.30104,-6.17063 -12.30104,-6.59969 0,-0.42905 0.55467,-1.65644 1.23261,-2.72752 1.14353,-1.80666 2.42749,-1.38689 17.76549,5.80807 20.3948,9.56707 19.5618,9.0211 18.54228,12.15334 -0.9937,3.05288 -1.03629,3.05177 -7.63197,-0.19918 z m -6.51232,-24.27858 c -15.55343,-6.74887 -17.04135,-7.90407 -14.93943,-11.59881 0.48622,-0.85467 5.84167,0.99152 17.0535,5.87892 8.98958,3.91867 16.51838,7.32553 16.73068,7.57079 0.77258,0.89253 -0.91627,5.07058 -2.02598,5.01208 -0.62753,-0.0331 -8.19597,-3.12143 -16.81877,-6.86298 z m 7.23591,-17.71782 c -9.41874,-4.32978 -17.11833,-8.45642 -17.1102,-9.17032 0.008,-0.71389 0.41435,-2.02773 0.90273,-2.91964 0.73932,-1.3502 3.75812,-0.30158 18.03326,6.26413 9.42989,4.33719 17.27844,8.34737 17.44122,8.9115 0.16276,0.56413 -0.2526,1.87191 -0.92304,2.90619 -1.11543,1.72072 -2.67391,1.21166 -18.34397,-5.99186 z m 39.79748,132.19789 v -60.74459 h 4.82394 4.82394 v 27.3072 27.3072 h 41.48586 41.48586 v 31.76552 31.76552 h -41.48586 c -36.23313,0 -41.48586,0.21168 -41.48586,1.67187 0,1.26319 -1.17918,1.67187 -4.82394,1.67187 h -4.82394 z m 17.89257,-11.98173 c -0.20782,-0.76628 -0.87414,-6.40884 -1.48072,-12.53902 -0.60658,-6.13019 -1.33723,-12.95803 -1.62365,-15.17297 -0.47021,-3.6361 -0.28249,-4.07979 1.93313,-4.56909 2.75002,-0.60733 2.59636,-1.18694 4.49524,16.95561 0.54536,5.21066 1.22427,11.104 1.50867,13.09631 0.47167,3.30414 0.29869,3.62238 -1.96887,3.62238 -1.36728,0 -2.65599,-0.62695 -2.8638,-1.39322 z m 9.72634,-1.67187 c -0.28228,-1.6858 -0.98862,-7.82993 -1.56965,-13.6536 -0.58102,-5.82368 -1.29458,-12.00577 -1.58568,-13.73797 -0.49042,-2.91819 -0.32769,-3.1228 2.21604,-2.78645 l 2.74534,0.36301 1.60766,14.48954 c 2.14691,19.34976 2.17638,18.39056 -0.56515,18.39056 -1.78,0 -2.45736,-0.72884 -2.84856,-3.06509 z m 18.82652,-6.68748 c -0.59489,-5.36392 -1.36477,-12.88733 -1.71084,-16.7187 l -0.62924,-6.96612 h 2.5494 c 1.40218,0 2.55289,0.37617 2.55712,0.83594 0.004,0.45976 0.65547,6.8356 1.44719,14.16852 1.94732,18.03644 1.92912,18.43293 -0.84628,18.43293 -2.14792,0 -2.35098,-0.58811 -3.36735,-9.75257 z m 9.6266,-2.22916 c -0.6588,-6.58995 -1.43893,-14.04369 -1.73364,-16.56386 -0.49844,-4.26247 -0.3597,-4.62102 1.98891,-5.13969 1.3886,-0.30666 2.52474,-0.23012 2.52474,0.1701 0,1.20701 2.85482,27.15479 3.35017,30.45009 0.41182,2.7396 0.17439,3.06509 -2.23582,3.06509 h -2.69654 z m 11.04021,9.47393 c -0.2528,-1.3793 -0.91783,-7.02186 -1.47785,-12.53902 -0.56,-5.51717 -1.26791,-11.91207 -1.57311,-14.2109 -0.5193,-3.9115 -0.3959,-4.17967 1.92348,-4.17967 2.84496,0 2.91165,0.22723 4.41588,15.04683 0.56001,5.51717 1.26792,11.91207 1.57312,14.21089 0.51931,3.9115 0.39589,4.17967 -1.92348,4.17967 -1.7908,0 -2.60591,-0.69575 -2.93804,-2.5078 z m 9.71084,-0.55729 c -0.28229,-1.6858 -0.97768,-7.82993 -1.54532,-13.6536 -0.56764,-5.82368 -1.22863,-11.9678 -1.46887,-13.6536 -0.38948,-2.73301 -0.14464,-3.0651 2.25975,-3.0651 h 2.69655 l 1.19781,11.98173 c 0.6588,6.58995 1.44721,14.11337 1.75201,16.7187 0.52702,4.50457 0.4332,4.73696 -1.91225,4.73696 -1.92306,0 -2.57952,-0.67528 -2.97968,-3.06509 z m 9.96965,1.67187 c -0.0209,-0.76628 -0.8104,-8.28969 -1.75426,-16.7187 l -1.71609,-15.32547 h 2.59282 c 2.80177,0 2.93656,0.6682 5.33998,26.47127 l 0.64887,6.96612 h -2.53659 c -1.39513,0 -2.55375,-0.62695 -2.57473,-1.39322 z M 161.65451,115.61588 c 0.75551,-2.06007 4.30806,-11.41625 7.89455,-20.791497 3.5865,-9.375253 6.29841,-17.302946 6.02648,-17.617101 -0.27192,-0.314145 -3.03882,0.186848 -6.14867,1.113309 -9.55846,2.847595 -31.2544,7.169266 -40.12568,7.99274 -5.1537,0.478388 -12.5291,0.235287 -19.00493,-0.626428 -10.406107,-1.384698 -10.592607,-1.459999 -11.172707,-4.511194 -1.24531,-6.550184 3.654247,-26.716943 6.486337,-26.697939 2.56601,0.01716 73.45634,13.387216 73.93917,13.945008 1.11026,1.282636 1.24914,13.883327 0.21638,19.630534 -1.95162,10.860475 -8.49357,22.266758 -16.59147,28.928228 l -2.89312,2.37993 z m 4.04768,-54.488628 C 143.41561,56.958423 115.08703,51.684945 102.74981,49.408416 L 80.318504,45.269269 v -3.201965 c 0,-3.921303 0.245022,-3.936194 15.850265,-0.963186 6.329791,1.205908 11.585591,2.073241 11.679531,1.927398 0.094,-0.145832 1.38014,-6.033108 2.8582,-13.082825 1.47806,-7.049716 3.04216,-13.623451 3.47575,-14.608294 1.56369,-3.551701 11.96706,-5.9488295 25.47068,-5.8689231 10.75028,0.063609 13.7777,0.5057795 21.18941,3.0947931 9.56767,3.34212 20.47696,9.516546 23.4528,13.273783 1.76878,2.233227 1.86431,3.274679 1.14377,12.467989 -0.43243,5.517169 -0.81708,12.057467 -0.85479,14.533985 l -0.0686,4.502768 13.20758,2.488957 c 7.26417,1.368926 13.30401,2.602822 13.42184,2.741999 0.11782,0.139178 -0.0152,1.632336 -0.29543,3.318138 -0.37578,2.259921 -1.05037,3.031991 -2.56798,2.939079 -1.13206,-0.06933 -20.29278,-3.536873 -42.57937,-7.705713 z"
       style="fill:#000000;stroke-width:1.03698" />
  </g>
</svg>
