<?xml version="1.0" encoding="UTF-8" standalone="no"?>
<!-- Created with Inkscape (http://www.inkscape.org/) -->

<svg
   xmlns:dc="http://purl.org/dc/elements/1.1/"
   xmlns:cc="http://creativecommons.org/ns#"
   xmlns:rdf="http://www.w3.org/1999/02/22-rdf-syntax-ns#"
   xmlns:svg="http://www.w3.org/2000/svg"
   xmlns="http://www.w3.org/2000/svg"
   xmlns:sodipodi="http://sodipodi.sourceforge.net/DTD/sodipodi-0.dtd"
   xmlns:inkscape="http://www.inkscape.org/namespaces/inkscape"
   version="1.1"
   id="svg64"
   width="100"
   height="100"
   viewBox="0 0 511.99999 511.99999"
   sodipodi:docname="eaphammer.svg"
   inkscape:version="0.92.4 (5da689c313, 2019-01-14)">
  <metadata
     id="metadata70">
    <rdf:RDF>
      <cc:Work
         rdf:about="">
        <dc:format>image/svg+xml</dc:format>
        <dc:type
           rdf:resource="http://purl.org/dc/dcmitype/StillImage" />
        <dc:title></dc:title>
      </cc:Work>
    </rdf:RDF>
  </metadata>
  <defs
     id="defs68" />
  <sodipodi:namedview
     pagecolor="#ffffff"
     bordercolor="#666666"
     borderopacity="1"
     objecttolerance="10"
     gridtolerance="10"
     guidetolerance="10"
     inkscape:pageopacity="0"
     inkscape:pageshadow="2"
     inkscape:window-width="1366"
     inkscape:window-height="691"
     id="namedview66"
     showgrid="false"
     inkscape:zoom="0.79705033"
     inkscape:cx="226.98293"
     inkscape:cy="222.63849"
     inkscape:window-x="0"
     inkscape:window-y="24"
     inkscape:window-maximized="1"
     inkscape:current-layer="svg64" />
  <path
     style="fill:#000000;stroke-width:1.50331593"
     d="m 245.00456,503.70451 c -7.90477,-7.67895 -6.42842,-9.00409 10.0315,-9.00409 13.58573,0 14.48995,0.18938 14.48995,3.03413 0,5.02173 -7.20956,10.30108 -14.06738,10.30108 -4.59307,0 -7.03859,-1.01315 -10.45407,-4.33112 z m -4.45845,-14.19 c 0,-1.2224 -1.02955,-2.22254 -2.28789,-2.22254 -1.84301,0 -2.28788,-2.30486 -2.28788,-11.85351 v -11.85352 h 19.06572 19.06572 v 11.85352 c 0,9.43609 -0.45681,11.85351 -2.24002,11.85351 -1.36448,0 -1.89686,0.86869 -1.36208,2.22254 0.74471,1.88526 -1.46154,2.22253 -14.5378,2.22253 -12.68606,0 -15.41577,-0.39357 -15.41577,-2.22253 z m 3.05052,-14.8169 c 0,-2.85225 -0.68637,-5.18591 -1.52526,-5.18591 -0.83889,0 -1.52526,2.33366 -1.52526,5.18591 0,2.85225 0.68637,5.18592 1.52526,5.18592 0.83889,0 1.52526,-2.33367 1.52526,-5.18592 z m 13.72732,0 c 0,-3.6219 -0.69,-5.18591 -2.28789,-5.18591 -1.59789,0 -2.28789,1.56401 -2.28789,5.18591 0,3.6219 0.69,5.18592 2.28789,5.18592 1.59789,0 2.28789,-1.56402 2.28789,-5.18592 z m 13.72732,0 c 0,-3.6219 -0.69,-5.18591 -2.28789,-5.18591 -1.59789,0 -2.28789,1.56401 -2.28789,5.18591 0,3.6219 0.69,5.18592 2.28789,5.18592 1.59789,0 2.28789,-1.56402 2.28789,-5.18592 z m -28.59859,-15.05735 c -2.2676,-0.88887 -2.58452,-11.77202 -0.38131,-13.09475 0.83889,-0.50368 1.52526,-2.54332 1.52526,-4.53254 0,-3.53387 0.28026,-3.61676 12.23111,-3.61676 h 12.23112 l -0.95346,3.69038 c -0.67878,2.62722 -0.24772,3.95352 1.4962,4.60361 3.63331,1.35441 3.2665,10.43902 -0.50058,12.39753 -2.96162,1.53971 -22.07919,1.95157 -25.64834,0.55253 z m 19.44704,-15.31729 c 0,-0.81493 -3.08865,-1.48169 -6.86366,-1.48169 -3.77501,0 -6.86366,0.66676 -6.86366,1.48169 0,0.81493 3.08865,1.48169 6.86366,1.48169 3.77501,0 6.86366,-0.66676 6.86366,-1.48169 z M 169.62163,456.7143 C 124.18084,451.44388 95.097517,438.0132 66.31219,409.00593 44.86524,387.39363 31.415908,362.63302 25.228318,333.36946 22.468688,320.31809 22.322283,313.69397 22.837686,225.20612 23.37687,132.63482 23.448485,130.73316 26.833895,119.09208 31.051633,104.58889 41.176766,83.426744 49.960764,70.755473 58.330778,58.681415 78.394104,39.171729 90.757057,31.08499 103.71084,22.611763 122.49888,14.10654 139.11647,9.1930247 l 13.72732,-4.05895 65.9674,-0.5351678 65.9674,-0.5351215 V 14.431771 24.799755 l -62.91689,0.55781 c -71.78437,0.636432 -74.81913,1.048064 -101.38597,13.752025 -35.350291,16.904043 -61.620644,48.035316 -72.495228,85.90925 -3.355953,11.68808 -3.403445,13.15606 -3.403445,105.19997 0,92.25741 0.04004,93.48471 3.426729,105.19997 14.538296,50.28984 54.197914,87.06881 104.836934,97.22213 10.90109,2.18568 20.58011,2.75697 46.97157,2.77243 l 33.24117,0.0185 -0.44814,10.74225 -0.44814,10.74225 -28.97989,0.16391 c -15.93895,0.0903 -31.039,-0.075 -33.55567,-0.36671 z m 109.05592,-10.16879 v -11.11268 l 31.6491,-0.0139 c 35.32796,-0.0139 45.77675,-1.20086 64.01859,-7.28097 20.8472,-6.94769 34.44931,-15.38902 51.51969,-31.97176 17.04051,-16.55377 25.67255,-29.66491 32.93234,-50.02078 l 4.35471,-12.21019 -18.85276,-0.41349 -18.85276,-0.41348 1.73449,-6.25417 c 1.2065,-4.35038 1.73449,-33.76747 1.73449,-96.63723 0,-83.19091 -0.22273,-91.14948 -2.79912,-100.01406 -9.38392,-32.287273 -36.04269,-57.817293 -68.82713,-65.912922 -7.5261,-1.858455 -22.29227,-2.244806 -85.79575,-2.244806 h -76.70506 v 17.780286 17.780279 h -10.67681 -10.6768 V 79.614264 61.622939 l -9.27217,0.941429 C 144.4143,64.569511 120.11199,76.385986 107.21456,90.254092 98.432345,99.697317 91.165297,111.3396 86.792951,122.97092 l -4.111018,10.93612 -0.442611,81.12251 -0.442611,81.12251 H 70.41857 59.040438 v -73.2346 c 0,-43.00725 0.660303,-77.84821 1.599723,-84.40945 7.202992,-50.308327 48.084819,-90.119477 99.705389,-97.094161 6.88561,-0.930362 38.68696,-1.59226 76.49778,-1.59226 h 64.71309 V 22.041312 4.2610354 h 11.43943 11.43944 V 21.822578 39.384166 l 14.10863,0.983471 c 19.88666,1.38626 31.75163,4.418121 48.42694,12.374564 12.37347,5.903885 16.61603,8.982049 29.04563,21.074026 15.71365,15.286778 23.61232,27.724413 30.63482,48.239143 3.53646,10.33099 3.55238,10.72614 4.04179,100.38448 l 0.49137,90.01265 h 18.44723 18.44728 l -0.9234,9.26056 c -1.53298,15.37429 -6.79593,32.07501 -15.5419,49.31859 -15.75586,31.06423 -39.98068,54.60754 -71.67813,69.6616 -28.35929,13.4687 -47.55252,16.89288 -94.9473,16.93914 l -26.3107,0.0278 z m -24.02281,-21.8321 c -8.73891,-8.56241 -11.05811,-11.75721 -11.05811,-15.23307 0,-4.2755 0.32273,-4.08474 11.5643,6.83573 9.53759,9.26515 11.47558,11.93483 11.05812,15.23307 -0.48781,3.85388 -0.90772,3.60565 -11.56431,-6.83573 z m -11.05811,3.76113 v -5.47655 l 5.3384,5.0264 c 2.93612,2.7645 5.3384,5.22893 5.3384,5.47655 0,0.24772 -2.40228,0.45007 -5.3384,0.45007 -5.13817,0 -5.3384,-0.20559 -5.3384,-5.47656 z m -88.35027,-9.46962 c -50.57263,-9.63871 -89.053998,-49.83561 -95.267317,-99.5143 l -0.88025,-7.03803 11.028944,0.004 11.028938,0.004 2.578305,12.91112 c 6.779323,33.94917 33.00981,61.188 68.34618,70.97442 6.07773,1.68324 18.36903,2.53966 44.61379,3.10858 l 36.22487,0.78525 v 10.18754 10.18755 l -35.46224,-0.16253 c -19.50423,-0.0894 -38.49928,-0.74121 -42.21122,-1.44867 z m 123.43119,-8.4435 V 400.2453 l 35.46225,-0.76631 c 39.2741,-0.84869 45.71888,-1.93291 63.66093,-10.71031 12.60395,-6.16595 29.33496,-20.94924 35.86214,-31.68732 l 4.57577,-7.52772 11.82075,-0.0278 c 8.02101,-0.0185 11.82074,0.52744 11.82074,1.70288 0,3.01144 -9.2677,17.91484 -17.14529,27.57133 -13.89623,17.03425 -37.1928,31.90175 -59.88022,38.21463 -7.19658,2.0025 -17.37874,2.68723 -47.66431,3.20545 l -38.51276,0.65917 v -10.31613 z m -24.06098,-6.64936 c -7.05495,-6.89944 -11.01994,-11.96409 -11.01994,-14.07605 0,-1.81442 0.57375,-3.29894 1.27502,-3.29894 0.70125,0 5.849,4.6025 11.43943,10.22774 7.22417,7.26921 10.16441,11.34094 10.16441,14.07605 0,2.11659 -0.18875,3.84832 -0.41949,3.84832 -0.2307,0 -5.37846,-4.84971 -11.43943,-10.77712 z m 0.0381,-19.20427 c -8.73892,-8.56241 -11.05812,-11.75721 -11.05812,-15.23307 0,-4.27551 0.32278,-4.08474 11.56431,6.83573 9.53759,9.26515 11.47558,11.93483 11.05812,15.23307 -0.48781,3.85387 -0.90773,3.60564 -11.56431,-6.83573 z M 153.60639,380.2016 c -27.3684,-9.09744 -47.10725,-29.32972 -54.018235,-55.36852 -1.86478,-7.02603 -2.416303,-16.9183 -2.416303,-43.33942 v -34.23542 l 25.548068,0.0472 c 20.35433,0.037 26.16821,0.50155 28.59858,2.28259 2.83826,2.07992 3.10358,4.44053 3.81315,33.92704 1.08506,45.09082 -0.3817,43.70054 46.13904,43.73262 l 31.6491,0.0232 v 10.37182 10.37183 h -34.78146 c -34.32554,0 -34.8849,-0.05 -42.67398,-3.82067 -4.3409,-2.10136 -9.97517,-6.37507 -12.5206,-9.49713 -7.84712,-9.62482 -9.16571,-15.62252 -9.16571,-41.69099 v -23.52076 h -7.80537 -7.80537 l 0.70216,24.07745 c 0.59328,20.3443 1.23232,25.4064 4.12154,32.64844 4.76563,11.94538 17.35517,24.82672 30.33493,31.03801 l 10.11776,4.8417 34.73805,0.49169 34.73805,0.49169 v 10.25056 10.25056 l -34.69961,-0.037 c -31.81726,-0.037 -35.52315,-0.31208 -44.61379,-3.3338 z m 125.07113,-6.87652 v -10.24862 l 33.93699,-0.49363 33.93698,-0.49364 10.22031,-4.70348 c 13.01125,-5.98788 23.01305,-15.70665 29.16241,-28.33718 4.73035,-9.7159 4.8454,-10.45943 5.37687,-34.74664 l 0.5431,-24.8183 h -7.78008 -7.78008 l -0.0334,24.8183 c -0.0281,20.81524 -0.48209,25.77422 -2.81469,30.74506 -4.18372,8.91561 -10.07652,14.90413 -18.84069,19.14677 -7.77047,3.7615 -8.40592,3.81942 -41.90893,3.81942 h -34.01883 v -10.37183 -10.37182 h 30.65596 c 46.4205,0 45.60693,0.78839 45.60693,-44.19668 v -29.67273 l 4.01884,-3.07094 c 3.41995,-2.61329 6.16061,-3.0709 18.3911,-3.0709 h 14.37228 l -0.46935,-53.00647 -0.46931,-53.00643 -4.97134,-9.8049 c -8.32867,-16.42652 -21.56181,-27.07144 -39.20027,-31.533283 -7.50554,-1.89864 -20.07215,-2.29958 -72.06843,-2.29958 H 211.56621 V 87.235752 76.863924 h 65.74724 c 55.03428,0 67.27428,0.382461 75.11895,2.347274 27.46253,6.878374 49.83151,28.207712 58.03447,55.337132 2.10766,6.97061 2.43094,19.76227 2.41526,95.56899 -0.0195,95.00983 -0.0138,94.93352 -8.66178,111.77431 -5.56951,10.84583 -23.06306,27.83966 -34.22778,33.25009 -15.29455,7.41174 -22.09035,8.39526 -58.14066,8.41438 l -33.17436,0.0185 z m -26.38563,-7.06822 c -11.38771,-10.85861 -11.87616,-11.60098 -11.4394,-17.38628 l 0.45624,-6.04335 h 13.72732 13.72732 l 0.46487,7.03802 0.46487,7.03803 h -6.34259 -6.34261 l 4.73378,5.23745 c 3.34687,3.70302 4.73377,6.74173 4.73377,10.37183 0,2.82391 -0.51477,5.12377 -1.14394,5.11081 -0.62917,-0.0139 -6.497,-5.12785 -13.03963,-11.36651 z m -8.69529,-28.61555 c 0,-0.86526 5.1142,-1.48169 12.29208,-1.48169 7.80631,0 11.94806,0.54068 11.34941,1.48169 -0.51846,0.81493 -6.0499,1.48169 -12.29208,1.48169 -6.54944,0 -11.34941,-0.62666 -11.34941,-1.48169 z m -4.57578,-16.29858 c 0,-9.54871 0.44485,-11.85352 2.28789,-11.85352 1.88842,0 2.28789,-2.71645 2.28789,-15.55774 0,-9.38405 -0.60527,-15.55774 -1.52526,-15.55774 -0.83889,0 -1.52526,-2.66705 -1.52526,-5.92676 0,-3.25972 0.68637,-5.92676 1.52526,-5.92676 0.83889,0 1.52526,-1.00014 1.52526,-2.22254 0,-1.22239 -1.10464,-2.22253 -2.45477,-2.22253 -1.9073,0 -2.31577,-1.15655 -1.83153,-5.18591 0.58434,-4.86231 0.35019,-5.18592 -3.75235,-5.18592 -3.66522,0 -4.29645,-0.54123 -3.88818,-3.3338 0.34899,-2.38705 1.67861,-3.46697 4.68185,-3.80266 l 4.19446,-0.46882 v -12.49597 -12.49592 h 14.48995 14.48995 v 12.59436 12.59436 h 4.57577 c 3.86398,0 4.57577,0.5762 4.57577,3.70423 0,3.0125 -0.74933,3.70422 -4.01271,3.70422 -3.73413,0 -3.95256,0.36024 -3.1464,5.18592 0.6534,3.91142 0.32759,5.18591 -1.32569,5.18591 -2.49058,0 -2.97885,3.79776 -0.66674,5.18591 0.83889,0.50364 1.52526,3.21004 1.52526,6.01418 0,2.80415 -0.68637,5.0985 -1.52526,5.0985 -0.919,0 -1.52526,6.12086 -1.52526,15.3992 0,12.32136 0.45729,15.56969 2.28789,16.2521 1.75343,0.65361 2.28788,3.4596 2.28788,12.01201 v 11.15921 h -16.7778 -16.77784 z M 465.9136,215.03149 c -0.52268,-78.86326 -0.63227,-81.42487 -3.93426,-91.97792 C 451.39472,89.225615 430.39858,62.288357 400.84495,44.620411 387.44777,36.61123 364.51984,28.466058 350.65663,26.791007 l -8.68088,-1.048943 -0.45124,-10.888845 -0.45123,-10.8888457 8.0775,0.9849069 c 36.0018,4.3899685 65.12016,18.4842178 91.94269,44.5033838 18.87235,18.307064 28.49091,32.38006 36.71858,53.723206 10.14076,26.30582 10.2195,27.12691 10.93528,114.07816 l 0.64947,78.89997 h -11.47279 -11.4728 z m -232.97131,26.67042 c 0.0124,-0.6112 1.34818,-5.11183 2.96849,-10.00141 l 2.94603,-8.89014 0.0821,10.00141 c 0.0741,9.04016 -0.21115,10.0014 -2.96849,10.0014 -1.67778,0 -3.0404,-0.50007 -3.02805,-1.11126 z m 38.22718,-8.89014 0.11821,-10.00141 2.81409,7.40845 c 3.75873,9.89533 3.75873,12.59436 0,12.59436 -2.76091,0 -3.03929,-0.94953 -2.93231,-10.0014 z M 97.171882,188.30195 c 0,-44.57705 0.806327,-51.72463 7.462878,-66.15379 8.24052,-17.8626 29.80955,-36.311494 48.59034,-41.561259 3.34159,-0.934067 3.43183,-0.667178 3.43183,10.14925 v 11.108599 l -6.75012,3.27486 c -14.12333,6.85207 -26.68639,23.66578 -29.8708,39.97752 -0.83079,4.25559 -1.51052,25.31554 -1.51052,46.79995 v 39.06258 h -10.6768 -10.676808 z m 70.161858,-11.25871 v -48.32017 h 19.82835 c 27.23585,0 25.92938,-1.58013 25.92938,31.36005 v 25.4333 l 9.53286,9.75683 9.53286,9.75684 -9.53286,0.44126 -9.53286,0.44127 v 6.36723 c 0,9.8199 -2.04875,10.78383 -25.54807,12.0204 l -20.20966,1.06343 z m 145.7257,46.88385 c -5.83727,-0.28893 -11.49979,-1.24012 -12.58337,-2.11377 -1.11729,-0.90077 -1.97016,-4.71696 -1.97016,-8.8154 v -7.22699 h -9.15155 c -5.03335,0 -9.15155,-0.44358 -9.15155,-0.98546 0,-0.54198 4.1182,-5.15161 9.15155,-10.24357 l 9.15155,-9.25815 v -25.82817 c 0,-32.59004 -1.50531,-30.73251 24.90553,-30.73251 h 19.32694 v 48.15491 48.15492 l -9.53286,-0.29032 c -5.24307,-0.15975 -14.30881,-0.52665 -20.14608,-0.81563 z m -152.97068,-2.65324 c -3.42139,-2.32866 -3.43183,-2.46326 -3.43183,-44.25025 0,-40.07549 0.13427,-42.03252 3.05987,-44.60455 1.68293,-1.47951 3.40877,-2.35112 3.8352,-1.93685 0.42645,0.41441 0.59382,21.53738 0.37197,46.9403 l -0.40338,46.18714 z M 345.7889,176.87798 c 0,-25.67027 0.57999,-46.67322 1.28885,-46.67322 0.70888,0 2.4248,1.21929 3.81315,2.70959 2.22244,2.38561 2.52428,7.67353 2.52428,44.22108 0,38.33385 -0.21348,41.6991 -2.7893,43.96358 -1.53411,1.34871 -3.25003,2.4522 -3.81314,2.4522 -0.56311,0 -1.02384,-21.00295 -1.02384,-46.67323 z m -111.34382,36.42484 c 0,-2.37686 0.85796,-4.61995 1.90657,-4.98468 1.13221,-0.39404 -2.89442,-5.49003 -9.91417,-12.54769 l -11.82075,-11.88459 0.008,-8.68987 c 0.005,-4.77943 0.45104,-15.19075 0.99268,-23.13631 l 0.98478,-14.44648 h 5.01834 c 2.76008,0 5.44253,-0.66676 5.961,-1.48169 0.57176,-0.89873 11.70948,-1.48168 28.30729,-1.48168 17.2265,0 27.36488,0.54891 27.36488,1.48168 0,0.81493 2.74546,1.48169 6.10103,1.48169 h 6.10103 v 23.37371 23.37365 l -11.43943,11.03854 c -11.74366,11.33206 -13.11835,13.33521 -9.15155,13.33521 2.67712,0 3.17905,6.69849 0.6172,8.23657 -1.71221,1.02797 -8.77169,-1.87165 -11.02881,-4.53003 -0.81766,-0.96296 -1.53168,-0.83373 -2.03367,0.36811 -1.00106,2.39663 -11.54124,2.40598 -14.00519,0.0139 -1.20919,-1.17466 -2.28441,-1.30852 -2.97425,-0.37042 -1.37086,1.86461 -7.41474,5.17392 -9.44866,5.17392 -0.85027,0 -1.54595,-1.94472 -1.54595,-4.32163 z m 19.36519,-33.09104 11.41378,-10.74225 -4.33137,-0.91406 -4.33136,-0.91402 4.98882,-1.12946 c 6.29005,-1.42404 7.91516,-3.71006 2.63747,-3.71006 -5.79353,0 -3.28204,-2.53976 3.63391,-3.67482 3.62656,-0.59523 7.55983,-2.64639 10.19154,-5.31487 l 4.28573,-4.34552 h -10.23224 c -9.50469,0 -10.35904,0.27041 -12.01566,3.80239 -0.98089,2.09131 -4.10422,4.74442 -6.94073,5.89569 -5.79,2.35014 -5.34376,5.04409 0.87197,5.26407 3.12573,0.11066 2.21677,0.7289 -3.81184,2.59296 -10.17311,3.14549 -11.60204,4.67024 -4.37681,4.67024 4.8835,0 5.58927,0.39311 4.65695,2.59295 -0.60438,1.42613 -1.47364,3.92648 -1.93169,5.55634 -0.45806,1.62986 -1.74448,3.49197 -2.85876,4.13808 -2.30282,1.33528 -5.73297,6.97459 -4.24234,6.97459 0.53837,0 6.11505,-4.83401 12.39263,-10.74225 z m -103.85381,29.14215 c -0.5092,-1.28902 -0.92581,-16.88658 -0.92581,-34.66116 0,-28.10247 0.31468,-32.43475 2.41263,-33.21685 1.32695,-0.49465 2.69968,-0.89934 3.05051,-0.89934 0.35086,0 0.63789,16.00225 0.63789,35.56056 0,29.40769 -0.36764,35.56055 -2.12471,35.56055 -1.16858,0 -2.54131,-1.05469 -3.05051,-2.34376 z m 205.98287,-7.60718 c -0.53747,-5.52855 -0.98208,-21.60238 -0.98804,-35.71969 -0.0105,-23.6511 0.19885,-25.62856 2.65835,-25.16845 2.45141,0.4584 2.6692,3.32862 2.6692,35.17532 0,23.94401 -0.52031,34.84443 -1.68115,35.22032 -1.05587,0.34171 -2.04462,-3.19434 -2.65836,-9.5075 z M 232.19934,130.33371 c -1.51806,-4.64635 0.47092,-8.90181 4.63528,-9.91714 2.04132,-0.4977 3.71149,-1.49937 3.71149,-2.226 0,-0.72659 6.86366,-1.32102 15.25258,-1.32102 8.38892,0 15.25258,0.55971 15.25258,1.24383 0,0.68412 1.75903,2.02241 3.90895,2.97403 3.21138,1.4214 3.82383,2.58763 3.43183,6.53499 -0.45128,4.54453 -0.84415,4.83031 -7.25061,5.27431 -3.72541,0.25837 -8.30887,-0.32875 -10.18545,-1.30444 -2.04434,-1.06284 -5.13734,-1.33908 -7.71646,-0.68913 -2.36747,0.59661 -7.8427,1.40835 -12.16719,1.80382 -6.97374,0.63777 -7.9769,0.3695 -8.873,-2.37325 z"
     id="path76"
     inkscape:connector-curvature="0" />
</svg>
