<?xml version="1.0" encoding="UTF-8" standalone="no"?>
<svg
   xmlns:dc="http://purl.org/dc/elements/1.1/"
   xmlns:cc="http://creativecommons.org/ns#"
   xmlns:rdf="http://www.w3.org/1999/02/22-rdf-syntax-ns#"
   xmlns:svg="http://www.w3.org/2000/svg"
   xmlns="http://www.w3.org/2000/svg"
   xmlns:sodipodi="http://sodipodi.sourceforge.net/DTD/sodipodi-0.dtd"
   xmlns:inkscape="http://www.inkscape.org/namespaces/inkscape"
   inkscape:version="1.0 (4035a4fb49, 2020-05-01)"
   sodipodi:docname="empire.svg"
   viewBox="0 0 512 512"
   height="100"
   width="100"
   id="svg885"
   version="1.1">
  <metadata
     id="metadata891">
    <rdf:RDF>
      <cc:Work
         rdf:about="">
        <dc:format>image/svg+xml</dc:format>
        <dc:type
           rdf:resource="http://purl.org/dc/dcmitype/StillImage" />
        <dc:title></dc:title>
      </cc:Work>
    </rdf:RDF>
  </metadata>
  <defs
     id="defs889" />
  <sodipodi:namedview
     inkscape:current-layer="g893"
     inkscape:window-maximized="1"
     inkscape:window-y="24"
     inkscape:window-x="0"
     inkscape:cy="300"
     inkscape:cx="300"
     inkscape:zoom="0.59161267"
     showgrid="false"
     id="namedview887"
     inkscape:window-height="692"
     inkscape:window-width="1366"
     inkscape:pageshadow="2"
     inkscape:pageopacity="0"
     guidetolerance="10"
     gridtolerance="10"
     objecttolerance="10"
     borderopacity="1"
     bordercolor="#666666"
     pagecolor="#ffffff" />
  <g
     id="g893"
     inkscape:label="Image"
     inkscape:groupmode="layer">
    <path
       id="path897"
       d="m 163.12064,504.66103 c -32.98922,-2.57489 -51.134,-9.7658 -69.21235,-27.42939 -20.031079,-19.57152 -31.141695,-41.16669 -33.967726,-66.02143 -0.722171,-6.35143 -1.525475,-9.13613 -3.996132,-13.85288 -1.700753,-3.2469 -3.50655,-8.20522 -4.012889,-11.01849 -0.884247,-4.91291 -1.064238,-5.17533 -4.555051,-6.64113 C 41.977549,377.43068 33.0078,368.20765 29.007102,360.80963 27.134261,357.34641 23.405153,352.2342 20.720199,349.44915 15.077261,343.59586 10.142987,335.03511 7.9116797,327.22691 5.4556354,318.63225 5.8110176,302.26372 8.6794233,291.86524 13.127138,275.74152 20.630656,263.39665 32.642423,252.44106 l 7.61414,-6.94465 -0.278344,-15.5957 c -0.519349,-29.09999 4.616578,-57.51904 12.394275,-68.58224 1.659389,-2.36036 4.888021,-5.4856 7.174731,-6.94496 3.805179,-2.42844 11.173712,-5.13504 13.979797,-5.13504 0.631896,0 1.14891,-0.71582 1.14891,-1.5907 0,-0.87489 0.784517,-4.03797 1.74338,-7.02906 1.608509,-5.01766 1.642213,-5.71463 0.435688,-9.00946 -0.883349,-2.41228 -1.307692,-6.83143 -1.307692,-13.61836 0,-38.707111 22.738089,-72.503499 60.926222,-90.556693 18.90732,-8.938313 46.65842,-15.382338 81.58271,-18.9441471 20.2083,-2.0609761 65.98791,-2.0694624 83.61326,-0.015498 41.68329,4.8575441 71.24825,13.6502161 90.57269,26.9364811 27.2159,18.711933 44.60391,56.423059 46.39422,100.619847 l 0.53627,13.23881 2.26559,0.4624 c 5.55213,1.13318 9.94151,3.26115 14.02707,6.80033 7.1924,6.23053 8.47553,9.13694 11.7665,26.65206 4.04301,21.51766 5.10222,32.79076 4.59496,48.90384 l -0.4306,13.67765 4.77283,3.5478 c 19.32975,14.36842 32.43963,45.1 29.00829,67.99992 -2.24205,14.96283 -8.91771,28.08573 -18.36181,36.09532 -2.96929,2.51826 -6.65785,6.83259 -8.78731,10.27807 -5.46624,8.84441 -12.24125,17.93119 -18.92901,25.38795 l -5.96046,6.64584 -0.53646,8.36109 c -2.65632,41.40036 -30.32028,79.79419 -67.09815,93.12314 -32.31093,11.71007 -87.89418,8.32245 -113.76357,-6.9335 -5.39081,-3.17913 -10.69014,-7.54658 -13.84366,-11.40927 l -1.77253,-2.17116 -7.28992,6.95523 c -12.78431,12.19737 -28.00519,18.02218 -54.09206,20.70028 -7.82811,0.80364 -23.37315,0.95817 -31.62174,0.31435 z m 29.66269,-28.91106 c 23.35191,-2.26443 36.52683,-8.90867 39.99825,-20.17149 1.62724,-5.27951 1.65586,-6.37483 0.32829,-12.56765 -0.89401,-4.17036 -0.83724,-5.07562 0.43569,-6.94744 0.805,-1.18374 1.46364,-2.33272 1.46364,-2.5533 0,-0.22058 -1.66651,-0.51723 -3.70335,-0.65922 l -3.70335,-0.25816 -2.33457,-6.29676 c -1.28401,-3.46322 -2.99842,-9.07284 -3.80979,-12.46583 -1.45534,-6.08588 -1.45038,-6.19907 0.36819,-8.39568 3.78846,-4.57596 4.70755,-7.17619 5.14411,-14.55324 l 0.43462,-7.34453 4.33516,-1.38734 c 4.32334,-1.38357 4.33366,-1.39566 3.7884,-4.43708 -0.30072,-1.67736 -0.78579,-4.62608 -1.07795,-6.55272 l -0.53119,-3.50298 5.31258,-2.58389 c 7.18645,-3.49528 8.67242,-3.34932 13.45167,1.32129 l 3.99601,3.90518 4.60687,-3.99078 c 4.06047,-3.51745 4.97153,-3.94301 7.68148,-3.58805 1.69104,0.2215 4.58263,1.26321 6.42576,2.31491 l 3.35116,1.91219 -0.65025,4.69712 c -1.11678,8.06699 -1.16198,7.91782 2.80359,9.25174 4.20706,1.41514 4.65068,2.58957 4.65068,12.31216 0,5.54219 0.19729,6.26028 1.9606,7.13629 1.07833,0.53571 2.80369,1.71281 3.83412,2.61578 2.19837,1.92641 2.10492,3.19862 -1.09745,14.93977 -3.58387,13.13988 -3.5411,13.05434 -7.3541,14.711 -2.93526,1.2753 -3.36875,1.77988 -2.80389,3.26369 0.78552,2.06347 0.734,6.89598 -0.16639,15.60804 -0.59984,5.8039 -0.48872,6.5252 1.41968,9.21527 3.8681,5.45245 11.41285,8.94594 25.55615,11.83341 24.19062,4.93871 53.10972,3.77303 69.87177,-2.81639 19.79521,-7.78182 36.2378,-27.22171 43.38017,-51.28792 3.14314,-10.59082 3.66576,-21.04399 1.78385,-35.67932 -0.84425,-6.56558 -1.34803,-12.11756 -1.11952,-12.33773 0.22852,-0.22017 1.47874,1.88243 2.77827,4.67246 l 2.36277,5.07277 2.6203,-1.79771 c 3.8522,-2.64288 13.20514,-13.4694 19.51152,-22.58561 10.45387,-15.11164 16.0996,-29.52055 16.08946,-41.06324 -0.007,-7.75043 -1.35777,-11.66085 -5.36119,-15.51812 -2.92903,-2.82212 -3.60219,-3.13245 -4.59389,-2.11785 -0.63907,0.65384 -9.30535,15.16761 -19.25837,32.25282 -9.95302,17.08521 -18.26329,31.24977 -18.46725,31.47681 -0.20397,0.22704 -0.80547,-0.33547 -1.33667,-1.25002 -2.13762,-3.68029 -8.79359,-9.57833 -13.51036,-11.9719 -2.74949,-1.39526 -11.61183,-4.67617 -19.69408,-7.29091 -32.65825,-10.56548 -47.82611,-19.09346 -73.31402,-41.22008 -12.52223,-10.87082 -18.53516,-15.47033 -25.68493,-19.64734 -17.98628,-10.50789 -38.06082,-9.93703 -54.04602,1.53691 -6.03584,4.33244 -21.46502,16.37409 -27.12091,21.16641 -20.13813,17.06336 -39.16082,27.81774 -64.37361,36.39328 -23.95397,8.14739 -30.53347,12.03734 -41.215875,24.3678 l -2.16321,2.49695 -0.870836,-3.0388 c -0.478969,-1.67134 -4.78085,-9.40656 -9.55974,-17.18939 -4.778898,-7.78282 -12.717582,-20.76218 -17.641521,-28.84303 -4.923939,-8.08084 -9.46849,-15.22739 -10.099,-15.88124 -0.976038,-1.01216 -1.658099,-0.69575 -4.590246,2.12936 -4.609668,4.44139 -5.716778,8.60582 -4.995122,18.78929 0.500545,7.06335 0.422418,7.78098 -0.682845,6.27234 -2.09715,-2.86255 -3.216277,-8.40934 -2.734632,-13.55386 0.384303,-4.10475 0.304982,-4.52058 -0.492798,-2.5834 -1.295319,3.14532 -2.354538,2.89857 -3.057608,-0.71228 -1.881084,-9.66102 3.67476,-22.70407 13.900171,-32.63244 3.436569,-3.33674 8.09967,-6.89954 10.430646,-7.96944 4.204426,-1.92978 4.229286,-1.93091 9.391486,-0.42497 2.846743,0.83046 5.035449,1.91919 4.863788,2.41941 -0.321355,0.9364 -3.686768,3.63915 -16.290984,13.08321 -6.6394,4.97476 -14.814828,13.93102 -14.814828,16.2298 0,0.51306 2.450746,-1.37139 5.446103,-4.18767 2.995356,-2.81627 9.759416,-8.32988 15.031243,-12.25245 13.256546,-9.8637 17.618935,-13.74426 16.556152,-14.7275 -1.937523,-1.79251 -12.873985,-4.56466 -16.468221,-4.17432 -9.218832,1.00116 -18.787608,9.16501 -25.193689,21.49465 -9.606045,18.48854 -8.603317,35.52632 2.615445,44.44005 2.748644,2.1839 4.944547,5.09309 7.255438,9.61216 3.60925,7.0581 6.889956,11.91456 7.591849,11.23828 0.244718,-0.23578 -1.510992,-4.69675 -3.901579,-9.91326 -6.130821,-13.37813 -7.493968,-17.83623 -7.564323,-24.73891 -0.06457,-6.33682 1.194736,-9.14123 5.27791,-11.75338 1.71757,-1.0988 2.277098,-0.35523 12.888337,17.12737 13.700251,22.5719 20.45733,35.73222 21.106724,41.10819 0.433309,3.58709 0.08557,4.76245 -3.139021,10.60891 -3.455478,6.26514 -3.561254,6.67056 -2.245345,8.60558 0.759527,1.11687 1.703506,2.03068 2.097726,2.03068 0.394219,0 1.659571,-2.12822 2.811888,-4.72937 l 2.09512,-4.72937 0.06431,16.69321 c 0.07137,18.52412 0.960214,24.13374 5.58866,35.27079 7.391487,17.78552 25.329997,36.36589 40.744557,42.20244 12.96472,4.90894 36.9622,7.02087 57.33216,5.04559 z m -29.227,-14.77366 c -22.47589,-3.64027 -36.96362,-15.03104 -40.12229,-31.54558 -1.09305,-5.7148 0.41572,-12.84124 3.81487,-18.01888 3.09599,-4.71587 9.65448,-10.16415 15.23912,-12.65945 4.33538,-1.93712 6.08037,-2.2139 14.09729,-2.23595 8.23055,-0.0227 9.63078,0.20418 13.94202,2.25849 2.63592,1.25601 7.84204,4.75071 11.56916,7.766 6.14809,4.97387 7.14096,5.48235 10.70503,5.48235 7.64227,0 8.9211,-1.68653 21.98989,-29.00055 5.29316,-11.0628 10.61805,-21.82154 11.8331,-23.90831 3.82493,-6.56909 8.12944,-10.67204 14.23432,-13.56775 5.07195,-2.40577 6.82078,-2.78036 14.33829,-3.07128 18.02706,-0.69763 26.7112,5.59055 36.30685,26.2898 2.35987,5.09057 6.32673,13.65398 8.81526,19.02981 8.36651,18.07372 14.1143,24.33977 21.15865,23.06648 2.85715,-0.51644 5.71494,-2.34217 17.53345,-11.20147 5.50079,-4.12346 10.82111,-5.5356 19.18181,-5.09132 5.49692,0.2921 8.1387,0.89527 11.77543,2.68857 6.54347,3.22663 12.7372,9.49245 16.05614,16.24303 2.45378,4.99087 2.78142,6.50222 2.77391,12.79565 -0.0105,8.79167 -1.94287,13.37296 -8.06272,19.11515 -12.77704,11.98855 -45.73519,18.59402 -66.249,13.27763 -9.26944,-2.40229 -16.03386,-7.05266 -19.64069,-13.5025 -2.68734,-4.80558 -2.64581,-16.14875 0.0898,-24.53754 2.12049,-6.5024 2.92707,-7.26147 8.69402,-8.18192 2.03685,-0.32509 3.70335,-0.94322 3.70335,-1.37362 0,-0.43041 -1.8202,-4.2697 -4.04488,-8.53178 -2.22469,-4.26207 -6.15479,-13.15941 -8.73355,-19.77187 -8.73079,-22.38749 -13.90663,-29.72749 -24.50861,-34.7563 -5.18348,-2.45866 -6.59791,-2.75284 -13.23169,-2.75193 -8.63041,8.4e-4 -13.2411,1.63328 -19.15393,6.78017 -6.69355,5.82649 -11.76218,14.51142 -20.04997,34.35502 -4.53338,10.85435 -7.90081,17.14973 -11.59908,21.68439 -1.9056,2.33656 -1.90949,2.39331 -0.24494,3.56817 0.9303,0.6566 2.61464,1.19384 3.74295,1.19384 4.34109,0 8.52324,7.22151 11.16463,19.27848 3.2041,14.62554 -5.60066,23.89699 -26.76842,28.18722 -5.63347,1.14178 -24.77674,1.55036 -30.34962,0.64775 z m -37.15288,-4.39083 c -8.01546,-3.50685 -15.86937,-12.76973 -22.93314,-27.04726 -6.31298,-12.76002 -8.920608,-23.06221 -9.002161,-35.56565 -0.07354,-11.27484 1.610016,-17.71092 6.380231,-24.3911 5.28302,-7.39831 10.68519,-10.35557 28.11224,-15.38924 22.78475,-6.58119 43.14658,-17.00395 63.35113,-32.42799 8.29254,-6.33048 20.43231,-13.9776 20.7467,-13.06883 0.40154,1.16064 -1.54019,4.45666 -8.71951,14.80106 -8.8851,12.80217 -11.60798,20.40456 -12.61889,35.23244 -0.61168,8.9722 0.71626,22.12707 3.53655,35.03377 1.08469,4.96395 1.63748,9.02536 1.22842,9.02536 -1.52967,0 -7.37373,-2.70936 -17.16823,-7.95936 -13.86724,-7.43304 -25.16545,-9.63755 -36.49173,-7.1203 -17.72759,3.93993 -29.13193,20.48275 -26.40529,38.30277 1.6555,10.8195 3.84662,14.86085 16.8827,31.13892 1.2958,1.61805 -2.64791,1.29531 -6.89902,-0.56459 z M 421.34388,345.23812 c 0.55619,-1.17613 1.01125,-2.47766 1.01125,-2.89229 0,-1.16086 -9.38858,-7.37009 -12.76931,-8.44509 -6.68994,-2.12729 -9.71976,1.67945 -4.87606,6.12642 2.31686,2.12709 12.74043,7.34737 14.67352,7.34872 0.52215,3.6e-4 1.40442,-0.96162 1.9606,-2.13776 z m -14.56485,-24.09808 c 11.18625,-17.2124 22.03629,-36.51265 23.04423,-40.99151 0.41347,-1.83728 -0.0712,-2.51706 -3.23154,-4.53211 l -3.71796,-2.37062 -2.94047,3.27276 c -6.93474,7.71838 -29.90935,42.72108 -33.99551,51.79343 -3.27597,7.27353 -3.06294,8.37343 1.88972,9.75694 6.95265,1.94221 6.32007,2.50729 18.95153,-16.92889 z m 21.21767,13.68467 c 0.73119,-1.36235 1.32944,-3.04433 1.32944,-3.73772 0,-1.35332 -4.58397,-4.61149 -12.02997,-8.55059 l -4.62326,-2.44582 -2.56559,2.74184 c -1.41108,1.50801 -2.56559,3.44548 -2.56559,4.30549 0,2.76817 12.59105,10.00355 17.623,10.12697 0.82639,0.0202 2.10078,-1.07781 2.83197,-2.44017 z m -284.38101,-1.60988 c 16.40154,-5.43697 24.79135,-12.19805 64.829,-52.24359 7.66125,-7.66276 16.87045,-16.02819 20.46487,-18.58983 17.51918,-12.48542 30.75356,-14.60897 45.92342,-7.36874 8.28806,3.95571 12.91616,8.13069 37.24411,33.59772 22.68029,23.74223 31.55659,31.24061 45.3511,38.31101 7.20495,3.69291 16.06555,7.02205 18.68936,7.02205 0.77842,0 1.82778,-1.05287 2.33191,-2.33971 0.50413,-1.28684 4.66517,-7.8308 9.24674,-14.54211 14.21834,-20.8277 17.23416,-28.66235 14.57892,-37.87393 -2.04898,-7.10838 -5.6161,-9.31429 -30.89551,-19.10586 -19.10892,-7.40154 -27.14018,-11.10487 -31.02601,-14.30656 -5.33931,-4.39926 -0.43168,-2.9076 16.70562,5.07764 22.18028,10.33505 27.21464,10.74093 34.80583,2.80608 4.32388,-4.51963 7.32591,-10.51935 9.22706,-18.44082 2.44146,-10.17276 4.29805,-15.87577 5.16828,-15.87577 1.09124,0 4.34168,15.77957 5.75325,27.92979 1.26162,10.85929 0.69015,14.94028 -3.59121,25.64615 -3.01584,7.54132 -3.49065,12.61419 -1.13984,12.17799 2.26442,-0.42017 7.01468,-6.95507 8.6129,-11.84873 1.98765,-6.08607 2.53833,-24.62497 1.2916,-43.48286 -0.56214,-8.50286 -1.37599,-24.66732 -1.80856,-35.92101 -0.43257,-11.25369 -0.96532,-20.63356 -1.1839,-20.84416 -0.69931,-0.67379 -18.05556,-4.23496 -29.30869,-6.0136 -21.71362,-3.43198 -39.86914,-5.35679 -74.06699,-7.85244 -8.95365,-0.65341 -31.80047,-1.04669 -60.56066,-1.04246 -48.32498,0.007 -63.44151,0.73239 -95.41572,4.57819 -23.73377,2.85465 -54.30884,9.15638 -56.959496,11.73973 -0.67008,0.65306 -0.918353,5.19128 -0.773129,14.13223 0.117653,7.24363 -0.42917,20.34855 -1.215152,29.12204 -1.726676,19.27392 -1.918867,44.88834 -0.393304,52.42011 1.2741,6.29034 4.583871,13.04952 7.000031,14.29541 0.92765,0.47834 2.48686,0.86971 3.4649,0.86971 1.53471,0 1.70521,-0.37369 1.24494,-2.72859 -0.29331,-1.50073 -1.86836,-5.40156 -3.50009,-8.66851 -4.500754,-9.01114 -5.142388,-14.53271 -3.40529,-29.30437 1.53885,-13.08589 4.58966,-27.56847 5.67166,-26.92416 0.35537,0.21161 1.15146,3.14082 1.76911,6.50934 2.50733,13.67477 6.92723,25.15335 11.8606,30.80231 4.94053,5.65717 10.74081,6.46902 21.87615,3.06197 11.61306,-3.55321 9.22646,-1.44034 -5.00469,4.43069 -18.26465,7.53504 -22.44539,10.05326 -25.14036,15.143 -4.16031,7.85722 -2.56643,15.74685 5.71401,28.28402 5.81755,8.80817 11.97751,18.71397 15.35191,24.68736 2.75596,4.87863 3.80437,5.12861 11.21132,2.67327 z m -3.8013,-9.46613 c -1.24949,-1.08844 -3.69023,-5.19033 -5.42388,-9.11531 -1.73365,-3.92498 -4.88489,-9.40317 -7.00278,-12.17374 -6.52665,-8.53803 -7.6508,-10.99718 -6.52698,-14.27811 2.1822,-6.37074 8.66764,-10.77152 26.58699,-18.04093 24.19283,-9.8144 42.94942,-20.24054 63.46162,-35.27613 11.29013,-8.27574 13.84932,-9.95846 15.23367,-10.01648 0.63506,-0.0266 -1.89983,4.20191 -5.63308,9.39674 -3.73326,5.19483 -10.13465,14.18052 -14.22531,19.96819 -52.0139,73.59192 -49.42989,70.48549 -59.19778,71.16625 -4.31991,0.30106 -5.30994,0.0791 -7.27247,-1.63048 z m -12.94485,-68.12311 c -6.27729,-4.06461 -12.52017,-18.647 -16.84608,-39.34982 -2.98527,-14.2868 -3.7588,-22.04313 -2.14967,-21.55492 1.23247,0.37393 6.55428,10.0901 15.92871,29.08149 7.78347,15.76828 10.71073,18.31033 20.2367,17.57359 4.43852,-0.34327 7.83056,-1.53019 18.60314,-6.50942 7.24616,-3.34928 13.44588,-5.82844 13.77717,-5.50926 0.81495,0.7852 -4.69793,5.27743 -14.17024,11.54678 -4.31332,2.85481 -10.39117,7.0691 -13.50634,9.3651 -10.15138,7.48194 -16.27494,8.98151 -21.87339,5.35646 z m 235.79631,-19.86108 c -6.751,-2.33344 -15.06336,-7.03123 -33.5342,-18.95211 -22.48848,-14.51381 -30.20836,-18.99555 -40.15428,-23.31136 -10.56123,-4.58281 -16.23034,-7.78789 -17.35434,-9.81142 -0.48806,-0.87869 -0.8874,-3.11774 -0.8874,-4.97568 0,-3.14127 0.29016,-3.54241 4.13904,-5.72228 3.90973,-2.21433 4.69422,-2.34027 14.15987,-2.2732 5.51145,0.039 14.1563,0.69561 19.21077,1.45903 8.09226,1.22225 30.65919,3.02605 69.86633,5.58452 6.57816,0.42925 12.77281,1.19944 13.76589,1.71152 0.99308,0.51208 2.20822,1.94705 2.70029,3.18882 1.37248,3.46344 -0.58164,14.07305 -4.64592,25.22438 -6.57755,18.04713 -11.00801,25.53826 -16.62211,28.10508 -3.75662,1.71755 -5.10018,1.68886 -10.64394,-0.2273 z m -224.83132,-0.38095 c -8.32866,-3.49655 -14.54034,-16.8202 -18.35313,-39.36625 -1.59602,-9.43771 -1.21534,-14.39601 1.19714,-15.5926 4.11566,-2.04136 30.65955,-4.52548 73.37597,-6.86692 8.86625,-0.48599 18.9917,-1.24518 22.50099,-1.68708 13.72425,-1.72823 22.12402,-0.53582 24.45079,3.47096 1.1455,1.97259 1.08105,2.53832 -0.69098,6.06521 -2.17875,4.33642 -8.43023,8.82077 -20.11951,14.43224 -6.38203,3.06372 -10.98122,5.70239 -48.13164,27.61433 -9.93804,5.86162 -19.43433,11.20708 -21.10289,11.8788 -3.73139,1.50216 -9.61609,1.52516 -13.12674,0.0513 z m 332.43972,93.11192 c 4.17278,-5.84355 5.42743,-10.05935 5.49961,-18.47972 0.0754,-8.78789 -1.50255,-14.77793 -6.19239,-23.5079 -3.8836,-7.22921 -13.13275,-16.49611 -19.05067,-19.08725 -6.0949,-2.66864 -14.26114,-2.58296 -19.39789,0.20352 -2.12146,1.1508 -4.01878,2.57066 -4.2163,3.15523 -0.58857,1.74202 4.29202,5.46302 16.17597,12.33269 13.57028,7.84448 20.98612,13.98796 24.06065,19.93254 3.1006,5.99496 2.95599,10.75111 -0.83101,27.3307 -0.68963,3.01925 1.04178,2.19569 3.95203,-1.87981 z m -35.80018,-5.08778 c 1.2196,-1.72537 1.76689,-3.258 1.30706,-3.66035 -1.67574,-1.46631 -17.07161,-11.1148 -17.31348,-10.85025 -0.9489,1.03784 -3.99948,7.65234 -3.6739,7.96603 1.46761,1.41403 15.2158,9.39472 16.27515,9.44755 0.71888,0.0358 2.25121,-1.27049 3.40517,-2.90298 z m 6.66012,-10.84627 c 0.69443,-1.60134 1.2626,-3.24776 1.2626,-3.65872 0,-1.3163 -14.44397,-9.38155 -16.80132,-9.38155 -1.7815,0 -3.5459,3.75008 -2.91106,6.18717 0.42777,1.64217 2.33462,2.97856 8.47797,5.94167 4.35933,2.10262 8.10226,3.82296 8.31763,3.82296 0.21536,0 0.95975,-1.31019 1.65418,-2.91153 z M 89.216773,257.54276 c 4.722494,-36.40973 5.726651,-74.8398 2.048127,-78.38405 -0.54007,-0.52035 -4.074251,-1.08139 -7.853733,-1.24676 l -6.871797,-0.30068 -1.287206,4.17626 c -3.590053,11.64773 -5.808944,28.7067 -5.797346,44.57027 0.01046,14.25208 2.509181,33.78481 4.689496,36.65773 1.283215,1.69084 5.861897,2.83908 10.552447,2.64634 l 3.485505,-0.14322 z m -9.897512,-1.22389 c -1.519846,-0.63699 -3.236745,-2.01042 -3.81533,-3.05204 -2.010431,-3.6194 -2.028721,-25.68407 -0.0366,-44.1986 1.856912,-17.25823 3.336614,-23.1019 6.227144,-24.59239 2.483074,-1.28039 6.669437,-0.98486 7.265972,0.51294 0.824958,2.07133 0.622529,22.43796 -0.38141,38.37402 -1.25283,19.88683 -3.701459,34.25028 -5.821274,34.1471 -0.371302,-0.0181 -1.918614,-0.55404 -3.438469,-1.19103 z M 436.374,263.3801 c 2.53917,-1.30931 3.13693,-3.46134 4.65681,-16.76524 2.38722,-20.89588 1.79925,-33.45094 -2.66315,-56.86723 l -2.27994,-11.96384 h -8.08162 -8.08161 l -0.58433,12.80341 c -0.65295,14.30701 1.52475,63.68679 3.03502,68.81983 1.27061,4.31847 3.829,5.92388 8.51101,5.34074 2.05617,-0.25609 4.52568,-0.87155 5.48781,-1.36767 z M 129.57265,147.95899 c 7.90774,-1.10321 19.67132,-2.77058 26.14129,-3.70527 27.70752,-4.00279 60.41584,-5.92847 100.7081,-5.92915 41.95212,-7e-4 71.7782,1.83868 108.70154,6.70368 17.85129,2.35208 40.8393,5.04668 43.07168,5.04877 0.79317,7.4e-4 1.08923,-2.11576 1.08923,-7.78701 0,-24.69263 -7.60073,-51.557288 -19.45305,-68.756534 -13.95815,-20.255073 -43.77797,-31.877004 -94.69727,-36.907174 -15.71133,-1.552078 -57.20867,-1.315536 -74.06699,0.422192 -33.61314,3.464789 -56.05944,8.651533 -73.19562,16.913566 -25.33136,12.213248 -40.99978,34.252142 -42.36858,59.59476 -0.39959,7.39811 -0.37764,7.50463 1.04989,5.09377 0.80191,-1.3543 2.73634,-6.07687 4.29875,-10.49461 4.02851,-11.390751 6.07136,-15.607222 10.37266,-21.40936 7.70337,-10.391288 19.51537,-19.761834 32.38657,-25.692484 13.5131,-6.226423 35.1302,-11.313443 45.57295,-10.724402 l 4.6003,0.259488 -5.95402,4.305664 c -3.27471,2.368113 -9.87521,6.872329 -14.66778,10.009358 -4.79257,3.13703 -12.04678,8.176856 -16.12046,11.199621 -19.04136,14.129087 -50.8146,49.751545 -59.67149,66.900465 -1.68719,3.26679 -3.06762,6.42078 -3.06762,7.00888 0,1.26006 3.62646,0.96526 25.26992,-2.05422 z"
       style="fill:#000000;stroke-width:0.855324" />
  </g>
</svg>
