<?xml version="1.0" encoding="UTF-8" standalone="no"?>
<svg
   xmlns:dc="http://purl.org/dc/elements/1.1/"
   xmlns:cc="http://creativecommons.org/ns#"
   xmlns:rdf="http://www.w3.org/1999/02/22-rdf-syntax-ns#"
   xmlns:svg="http://www.w3.org/2000/svg"
   xmlns="http://www.w3.org/2000/svg"
   viewBox="0 0 512 512"
   height="100"
   width="100"
   id="svg2"
   version="1.1">
  <metadata
     id="metadata8">
    <rdf:RDF>
      <cc:Work
         rdf:about="">
        <dc:format>image/svg+xml</dc:format>
        <dc:type
           rdf:resource="http://purl.org/dc/dcmitype/StillImage" />
        <dc:title></dc:title>
      </cc:Work>
    </rdf:RDF>
  </metadata>
  <defs
     id="defs6" />
  <path
     id="path817"
     d="m 57.384363,404.78232 c -1.311802,-1.57532 -2.67315,-4.57309 -3.02522,-6.66169 -0.469693,-2.78644 2.803113,-21.56657 12.292579,-70.53765 7.112985,-36.70711 13.108653,-67.47688 13.323712,-68.37731 0.267022,-1.11797 -2.377499,-3.35085 -8.338999,-7.04103 C 40.58343,232.94289 16.859965,202.46994 7.9908721,170.41142 6.1425916,163.73056 5.9290472,160.39926 5.9969138,139.30546 c 0.062948,-19.56128 0.3717504,-24.56224 1.7957763,-29.08097 1.714702,-5.44108 1.733724,-5.45821 6.4487459,-5.79669 5.756709,-0.41328 6.633558,0.73399 5.834735,7.63416 -0.325481,2.81147 -0.06859,7.96851 0.5709,11.46009 4.556196,24.87706 26.311265,38.32397 66.814857,41.29862 9.662223,0.7096 10.483273,0.61513 11.003943,-1.26593 0.30945,-1.11797 1.901869,-9.06101 3.538709,-17.65117 3.37607,-17.71764 4.70877,-21.25447 9.1425,-24.26319 3.07513,-2.08677 6.01017,-2.13052 142.88735,-2.13052 136.791,0 139.81406,0.0451 142.88168,2.12669 1.72367,1.16969 3.82951,3.30812 4.67961,4.7521 0.85014,1.44397 3.18254,10.86797 5.18311,20.94225 l 3.63746,18.31691 11.9754,-0.71251 c 28.20063,-1.67784 46.53106,-7.98041 58.23448,-20.02271 7.88826,-8.11679 11.01681,-16.20362 11.30841,-29.23092 0.12105,-5.40261 0.26172,-10.21697 0.3132,-10.69854 0.0512,-0.48159 2.37418,-0.72716 5.1619,-0.54571 l 5.06862,0.32981 1.72018,5.45719 c 1.42666,4.52592 1.73318,9.52719 1.79622,29.30779 0.0757,23.78016 0.0671,23.87993 -2.90856,33.76493 -9.54259,31.6994 -31.61462,59.35635 -63.21173,79.20639 -4.8544,3.04964 -9.30696,5.92797 -9.89457,6.3963 -0.73812,0.58822 2.96924,21.09663 11.99198,66.3377 7.18322,36.01742 13.07003,67.50095 13.0818,69.96344 0.0153,2.88998 -0.77465,5.79192 -2.22417,8.18577 l -2.24559,3.70857 -195.40721,0.27559 -195.407195,0.27559 z M 163.6152,372.49686 c 0.85879,-0.95579 1.17682,-9.49909 1.17682,-31.61328 0,-28.84321 -0.0914,-30.35802 -1.8969,-31.43339 -2.71444,-1.6168 -22.90495,-1.46785 -24.38548,0.17975 -0.85953,0.95661 -1.17683,9.58847 -1.17683,32.01546 0,16.88819 0.29421,31.03321 0.6538,31.4334 1.21139,1.3482 24.36672,0.8223 25.62859,-0.58208 z m 51.94279,-30.20935 c 0.18449,-21.94068 -0.065,-31.40989 -0.85559,-32.47026 -1.36371,-1.82873 -21.51561,-2.13096 -24.47702,-0.36706 -1.80549,1.07537 -1.8969,2.59018 -1.8969,31.43339 0,22.50035 0.31015,30.64871 1.20445,31.64404 0.8551,0.95166 4.76629,1.25239 13.48441,1.03687 l 12.28,-0.30356 z m 52.00991,30.20935 c 0.85767,-0.95454 1.17682,-9.36904 1.17682,-31.02799 0,-25.56136 -0.21545,-29.95819 -1.54109,-31.4334 -1.95751,-2.17861 -22.84057,-2.52078 -24.74129,-0.4054 -0.85954,0.95661 -1.17683,9.58848 -1.17683,32.0155 0,16.88819 0.29421,31.03322 0.65378,31.43339 1.2114,1.3482 24.36674,0.82227 25.62861,-0.5821 z m 50.96211,-30.20935 c 0.18449,-21.94068 -0.065,-31.40989 -0.85559,-32.47026 -1.71464,-2.29935 -22.73675,-2.11462 -24.83284,0.21829 -1.32552,1.47522 -1.54109,5.87204 -1.54109,31.43339 0,22.03769 0.31128,30.0647 1.20444,31.05873 0.85513,0.95166 4.76632,1.25242 13.48443,1.03686 l 12.28,-0.30356 z m 51.19085,29.40796 c 0.62467,-1.29905 1.01519,-12.9613 1.01519,-30.3174 0,-23.76243 -0.24057,-28.58843 -1.52662,-30.63201 -1.42543,-2.26486 -2.26621,-2.42572 -12.67889,-2.42572 -8.8308,0 -11.47301,0.35701 -12.69329,1.71513 -1.32344,1.4729 -1.54109,5.79915 -1.54109,30.63201 0,17.84592 0.38866,29.72511 1.0152,31.02799 0.92009,1.91335 2.15695,2.11111 13.20475,2.11111 11.04779,0 12.28465,-0.19782 13.20475,-2.11111 z M 213.62983,281.69054 c 3.79884,-2.19014 23.73294,-40.70314 23.73294,-45.85241 0,-3.62531 -0.31128,-3.90437 -14.59956,-13.08858 -8.02974,-5.16133 -14.81535,-9.38424 -15.07909,-9.38424 -0.26387,0 0.21422,2.14768 1.06254,4.77265 1.27517,3.9465 1.33907,5.52687 0.36923,9.12946 -2.38546,8.8611 -7.85906,13.38381 -16.1978,13.38381 -4.78289,0 -9.44795,-2.90509 -12.83527,-7.99296 -2.86383,-4.30156 -2.88001,-14.62362 -0.0297,-18.87263 3.12501,-4.65832 6.87053,-7.30307 11.30711,-7.98406 l 4.05248,-0.62205 -12.31099,-7.91292 c -6.77105,-4.35211 -12.94987,-7.91292 -13.73072,-7.91292 -0.78084,0 -2.32941,0.85951 -3.44123,1.91001 -3.35386,3.16889 -22.71293,41.34109 -22.71293,44.78536 0,4.24201 20.35561,43.61993 23.57348,45.60287 3.52455,2.17193 43.08259,2.20453 46.83944,0.0385 z m -42.16317,-22.52859 c -2.49511,-2.77689 -2.88219,-3.88945 -2.37333,-6.82148 0.77733,-4.47899 3.868,-7.32348 7.95726,-7.32348 4.08927,0 7.17994,2.84449 7.95727,7.32348 0.50886,2.93203 0.12176,4.04459 -2.37333,6.82148 -1.82347,2.02938 -3.99213,3.31803 -5.58394,3.31803 -1.59181,0 -3.76047,-1.28865 -5.58393,-3.31803 z m 9.43662,-1.67141 c 4.84006,-5.38665 -2.37445,-13.59947 -7.45304,-8.48439 -3.58554,3.61134 -1.25997,10.19952 3.60035,10.19952 1.27139,0 3.00511,-0.77182 3.85269,-1.71513 z m 163.19946,22.7253 c 3.02379,-3.44253 21.30776,-38.73067 22.19623,-42.83891 0.45985,-2.12619 -1.498,-6.8251 -8.86773,-21.28303 -10.67958,-20.95123 -13.29789,-25.19914 -16.15413,-26.20806 -1.4821,-0.52352 -10.06619,4.45554 -33.09883,19.19841 -38.75257,24.80499 -36.83416,23.3368 -36.19757,27.70272 0.67192,4.60811 19.82989,41.49415 22.98672,44.25775 2.31031,2.02253 4.00144,2.17257 24.49031,2.17257 h 22.00861 z m -43.53029,-20.41486 c -4.26031,-4.74141 -2.92471,-12.51728 2.51227,-14.62666 8.15079,-3.16226 14.46797,8.14008 8.17663,14.62919 -3.37286,3.47888 -7.56167,3.47789 -10.6889,-0.002 z m 9.98936,-3.75274 c 2.36425,-5.30769 -2.63032,-10.65331 -7.33532,-7.85091 -2.86372,1.70568 -3.5457,5.17696 -1.64976,8.39731 2.13888,3.63299 7.2622,3.32146 8.98508,-0.5464 z m 4.47965,-17.21728 c -11.45162,-6.28136 -11.35343,-25.24849 0.16212,-31.33012 4.88164,-2.57811 11.41528,-2.2883 15.33422,0.68015 5.56864,4.21799 7.34518,7.8477 7.34518,15.00725 0,7.15956 -1.77654,10.78927 -7.34518,15.00726 -3.91432,2.96493 -10.73937,3.24478 -15.49643,0.63546 z m 12.50574,-2.10989 c 4.91471,-2.18853 7.88416,-7.27061 7.88416,-13.49327 0,-6.16624 -2.49545,-10.51859 -7.61113,-13.27473 -4.89292,-2.6361 -9.35026,-2.18536 -13.39372,1.35441 -8.02924,7.02905 -6.78984,20.11545 2.39137,25.24916 4.21275,2.3556 5.75565,2.37924 10.72932,0.1644 z m -126.8096,-0.99071 c 8.84642,-6.45101 7.79209,-20.7249 -1.92233,-26.02478 -5.18154,-2.82692 -9.85261,-1.66864 -14.60625,3.62183 -3.3287,3.70465 -3.72603,4.7335 -3.72603,9.64869 0,4.38515 0.53751,6.21277 2.64826,9.00455 4.8548,6.42117 11.88861,7.9192 17.60635,3.74971 z"
     style="fill:#000000;stroke-width:1.03458059" />
</svg>
