<?xml version="1.0" encoding="UTF-8" standalone="no"?>
<svg
   xmlns:dc="http://purl.org/dc/elements/1.1/"
   xmlns:cc="http://creativecommons.org/ns#"
   xmlns:rdf="http://www.w3.org/1999/02/22-rdf-syntax-ns#"
   xmlns:svg="http://www.w3.org/2000/svg"
   xmlns="http://www.w3.org/2000/svg"
   viewBox="0 0 683 683"
   height="100"
   width="100"
   id="svg885"
   version="1.1">
  <metadata
     id="metadata891">
    <rdf:RDF>
      <cc:Work
         rdf:about="">
        <dc:format>image/svg+xml</dc:format>
        <dc:type
           rdf:resource="http://purl.org/dc/dcmitype/StillImage" />
        <dc:title></dc:title>
      </cc:Work>
    </rdf:RDF>
  </metadata>
  <defs
     id="defs889" />
  <path
     id="path895"
     d="m 461.67686,680.7268 c -20.97208,-4.9221 -35.36371,-10.93475 -47.5466,-19.86446 -13.22019,-9.69 -19.60724,-33.69625 -13.73472,-51.623 5.83632,-17.81621 14.09483,-29.49435 26.84052,-37.95445 22.83979,-15.16019 53.57832,-20.1521 89.10747,-14.47096 18.87906,3.01877 30.15334,2.19721 42.95804,-3.13039 23.58166,-9.81152 32.75698,-22.41451 27.68555,-38.0282 -4.21821,-12.98686 -9.29697,-15.89066 -27.60452,-15.78294 -13.18836,0.0776 -25.28352,2.61008 -40.21687,8.42063 -3.58113,1.39341 -7.25415,2.53348 -8.16227,2.53348 -0.90812,0 -6.0781,2.88829 -11.48885,6.41843 -26.06257,17.00397 -45.21903,25.38543 -83.9541,36.73213 -4.09732,1.20023 -10.09732,2.73011 -13.33333,3.39974 -3.23601,0.66961 -9.62511,2.55245 -14.198,4.18406 -7.01733,2.5038 -8.80796,3.8219 -11.47849,8.44944 -1.74027,3.01558 -3.515,8.5861 -3.94386,12.37894 -0.6707,5.93197 -6.50698,20.43726 -8.22302,20.43726 -0.31982,0 -2.11715,-0.69969 -3.99408,-1.55488 -3.22054,-1.46737 -3.35883,-1.9364 -2.45712,-8.33333 1.08441,-7.69308 1.05217,-11.37532 -0.14126,-16.13031 -1.7196,-6.85145 -3.45234,-3.00748 -3.61449,8.01852 -0.0917,6.23334 -0.31667,11.93334 -0.5,12.66667 -0.18333,0.73333 -0.40833,4.03333 -0.5,7.33333 -0.15928,5.73414 -0.34307,6 -4.14747,6 -3.60528,0 -4.12333,-0.56601 -5.49162,-6 -1.48071,-5.88042 -2.8837,-7.32652 -4.52758,-4.66666 -1.36749,2.21265 -2.81093,1.55806 -7.72853,-3.50486 -8.88848,-9.15114 -13.10866,-26.35669 -7.43884,-30.32798 2.77045,-1.9405 2.73037,-2.00324 -1.82534,-2.8579 -2.56189,-0.48061 -6.08657,-0.67181 -7.83264,-0.42489 -3.03064,0.4286 -3.17465,0.91527 -3.17465,10.72853 0,7.87515 -0.52763,10.80864 -2.25572,12.54144 -2.12035,2.12612 -2.92057,1.71808 -13.33333,-6.79889 -9.62948,-7.87627 -11.13143,-8.70224 -11.48924,-6.31828 -0.2264,1.50835 1.12161,5.76817 2.99558,9.46627 2.8879,5.699 3.17204,7.23994 1.86427,10.11018 -0.84861,1.86251 -2.08576,3.38638 -2.7492,3.38638 -2.31608,0 -15.58012,-14.39535 -16.44719,-17.84999 -1.29941,-5.17731 -3.25184,-4.21444 -3.25184,1.60369 0,3.45638 1.96216,8.83692 6.12119,16.78516 l 6.12119,11.69812 -7.78786,-4.93745 c -4.28332,-2.7156 -8.83785,-5.86192 -10.12118,-6.99181 -1.28334,-1.1299 -2.33334,-1.45767 -2.33334,-0.72839 0,0.72928 -1.63697,2.07181 -3.63772,2.98341 -3.31858,1.51206 -3.88874,1.34264 -6.49906,-1.93101 -7.65089,-9.59512 -7.94659,-33.62424 -0.38947,-31.64801 2.07851,0.54354 2.52625,-0.0724 2.52625,-3.47543 v -4.13605 l 6.5104,2.56616 6.51039,2.56616 2.55288,-2.91895 c 6.42524,-7.34659 6.44969,-7.14789 -1.18207,-9.60581 -30.15936,-9.71328 -54.64088,-33.16761 -75.1322,-71.97981 -22.01991,-41.70748 -22.55735,-80.21652 -1.66383,-119.21871 6.47627,-12.08932 29.09452,-46.70099 32.20594,-49.28321 1.20917,-1.00354 2.19849,-2.53715 2.19849,-3.40803 0,-0.87089 2.25,-6.04743 5,-11.50341 4.83263,-9.5879 4.99977,-10.38863 4.99336,-23.91998 -0.005,-12.103 -0.43171,-14.813 -3.14373,-20 -9.34619,-17.87549 -26.16094,-25.02008 -50.62771,-21.51172 -6.35539,0.91131 -12.83816,1.97247 -14.40616,2.35812 -3.88356,0.95516 -11.14505,11.3846 -11.16663,16.03824 -0.012,2.67919 -2.34616,6.50362 -8.00325,13.11536 -21.29086,24.88374 -31.4758,47.5973 -26.77908,59.72032 1.23968,3.19984 1.81616,3.51972 4.1206,2.28643 3.65545,-1.95633 7.12366,0.0936 9.8388,5.81532 3.23366,6.81444 2.76144,12.15067 -1.49287,16.86987 -7.60398,8.43491 -20.33333,5.43701 -20.33333,-4.78871 0,-3.84964 0.47282,-4.57021 3,-4.57196 2.47694,-0.001 2.18635,-0.40853 -1.66667,-2.33333 -6.6124,-3.30327 -9.68427,-9.847 -8.73832,-18.61451 0.41241,-3.82244 1.39144,-8.35805 2.17561,-10.07912 1.20461,-2.64384 0.28421,-5.70215 -5.93383,-19.71676 -4.04777,-9.12315 -6.79248,-16.78737 -6.09936,-17.0316 0.69313,-0.24423 3.97414,0.59239 7.29113,1.85916 3.31699,1.26677 6.42852,1.90559 6.91451,1.4196 0.48599,-0.48599 -0.0804,-3.89813 -1.25861,-7.58253 -2.0382,-6.37363 -2.02598,-6.66202 0.25186,-5.93906 2.06351,0.65494 2.47907,-0.26508 3.00965,-6.66308 0.45381,-5.47238 1.68584,-8.94135 4.68861,-13.20141 l 4.07305,-5.77848 -6.4073,-0.75886 c -6.16482,-0.73012 -13.32022,0.49304 -17.10466,2.92392 -1.38513,0.88972 -1.46257,1.79756 -0.33333,3.90756 2.35678,4.4037 1.80437,5.96516 -1.86234,5.26423 -4.18077,-0.7992 -4.16024,-0.15569 0.24661,7.72902 2.83745,5.07674 3.11399,6.22642 1.33334,5.54312 -4.12504,-1.58292 -2.30983,1.2669 2.43431,3.82178 3.89724,2.0988 4.28788,2.67634 2.33333,3.44959 -8.56231,3.38735 -33.73051,-0.66255 -46.80104,-7.53092 -8.03583,-4.22271 -21.67769,-15.82371 -20.13006,-17.11855 0.32093,-0.26852 4.18351,-2.90975 8.58351,-5.86941 4.4,-2.95967 17,-13.3172 28,-23.01676 11,-9.69955 24.8,-21.09723 30.66666,-25.32816 10.62587,-7.66318 27.66134,-17.36339 34,-19.36002 5.07556,-1.59876 21.23801,-14.01457 30.30255,-23.27809 6.14763,-6.28258 8.84566,-8.16306 11.22811,-7.82583 2.65961,0.37647 3.19892,1.31752 3.55012,6.19475 0.22776,3.16297 0.82776,5.55953 1.33333,5.32569 0.50558,-0.23384 4.01246,-2.05305 7.79306,-4.04271 l 6.87382,-3.61756 2.19638,3.3521 c 2.07853,3.17222 2.63974,3.30402 10.4595,2.45618 15.60142,-1.69153 40.09147,-0.93109 48.81162,1.51567 4.50479,1.26397 8.45377,2.72408 8.77552,3.24467 0.32175,0.5206 -0.89453,1.73835 -2.70284,2.70613 -1.80831,0.96778 -3.28783,2.14863 -3.28783,2.62412 0,0.4755 3.45,1.94331 7.66667,3.2618 7.19817,2.25079 22.43708,9.35828 31.83829,14.84952 3.8218,2.23232 4.05835,2.76166 2.82068,6.31202 -1.20594,3.45938 -0.93813,4.20645 2.49503,6.95982 2.11531,1.69646 3.94061,2.68334 4.05625,2.19307 0.1156,-0.49025 0.98506,-5.54137 1.93203,-11.22471 0.94697,-5.68333 2.05236,-10.31813 2.45641,-10.29956 0.40406,0.0185 3.54692,6.02292 6.98416,13.34302 3.43724,7.32009 7.29946,13.71214 8.5827,14.20457 1.71544,0.65828 3.85568,-0.83491 8.08381,-5.63984 3.16286,-3.59435 5.75064,-6.91559 5.75064,-7.38053 0,-0.46495 -5.67761,-5.16927 -12.61693,-10.45403 -16.8773,-12.85323 -28.26951,-28.23779 -31.85474,-43.0181 -0.47732,-1.96779 -2.00558,-3.93889 -3.39613,-4.38024 -1.39056,-0.44134 -4.98916,-2.5851 -7.99691,-4.76389 -4.188,-3.03378 -5.46862,-4.84782 -5.46862,-7.74645 0,-6.46599 4.17449,-8.86495 15.42614,-8.86495 h 9.80202 l 7.22237,-7.126271 c 6.97104,-6.87829 7.17453,-7.28211 5.84784,-11.60487 -1.63868,-5.3393 1.11397,-13.798909 7.3848,-22.695411 2.16341,-3.069252 4.45164,-8.354052 5.08495,-11.744 1.56889,-8.397876 9.57299,-25.34393 15.23336,-32.251673 4.58275,-5.592638 15.08675,-14.7016208 15.84255,-13.7385188 0.21324,0.271738 -0.6815,6.7940698 -1.98832,14.4940698 -1.30682,7.7 -2.40896,16.861431 -2.4492,20.358736 -0.0681,5.916582 0.13542,6.312728 2.92682,5.697076 3.23799,-0.714148 8.21879,-1.501294 39.13256,-6.184364 l 20.13255,-3.049844 4.96288,-7.664836 c 10.58595,-16.349271 17.84419,-22.4432118 29.24578,-24.5543988 5.0301,-0.931405 5.10565,-0.886863 3.52029,2.075414 -0.89108,1.664986 -2.10071,4.5936158 -2.68808,6.5080658 -0.58736,1.914449 -2.97885,8.580817 -5.31443,14.814151 -6.88392,18.372252 -6.79586,17.078764 -1.78178,26.172121 9.99588,18.128182 14.7298,39.470632 16.37561,73.827883 0.54449,11.36667 1.08553,19.59672 1.20231,18.28902 0.40277,-4.51052 7.12021,-15.99449 13.0874,-22.37389 5.09522,-5.4472 5.77172,-6.79422 4.55449,-9.06863 -2.68133,-5.01013 -1.70483,-20.199411 1.77975,-27.683121 1.7508,-3.76014 3.84656,-7.24655 4.65725,-7.74758 1.01712,-0.62862 1.0596,-1.68524 0.13703,-3.409064 -2.23138,-4.169383 -1.51299,-7.82991 1.98668,-10.122983 3.98884,-2.613586 8.314,-1.790411 13.57362,2.583367 3.46056,2.877722 5.4082,3.205322 23.76943,3.998098 11,0.474943 22.27375,1.406732 25.05276,2.070642 3.87282,0.925217 6.0524,0.69943 9.33334,-0.966855 5.24741,-2.664987 14.42892,-2.878979 17.40898,-0.405747 2.73803,2.272367 2.84984,7.989302 0.22943,11.730472 -1.7614,2.51475 -1.73849,3.01654 0.21136,4.63001 4.50884,3.731 20.85128,26.053511 24.73212,33.782171 2.21699,4.41508 4.97257,8.57241 6.12356,9.2385 9.41141,5.44657 22.73292,22.96362 32.73598,43.04602 8.17088,16.40411 8.32688,17.14346 4.1892,19.85456 -3.8824,2.54384 -2.19186,3.5196 -16.01672,-9.24461 -3.66667,-3.38536 -6.9899,-6.16536 -7.38494,-6.17779 -0.39505,-0.012 -0.28215,4.32742 0.25089,9.64408 4.15406,41.43298 -2.95318,83.79253 -19.80538,118.04135 -3.34895,6.80608 -6.45759,12.00807 -6.90811,11.55998 -0.45052,-0.4481 -1.11913,-4.97204 -1.4858,-10.05323 l -0.66667,-9.23849 -3.92316,7.67853 c -4.36724,8.54768 -25.39473,41.09959 -27.31609,42.28706 -0.67517,0.41728 -2.79665,0.0437 -4.7144,-0.83002 -2.76739,-1.26089 -3.35592,-2.29605 -2.85236,-5.01693 0.34895,-1.88554 1.02037,-6.34863 1.49205,-9.91799 l 0.8576,-6.48975 -7.93638,9.15642 c -4.36502,5.03602 -11.91234,12.96655 -16.77182,17.62337 -7.43892,7.12867 -8.83544,9.171 -8.83544,12.92131 0,2.44989 -0.75,4.93976 -1.66667,5.53304 -1.01857,0.65924 0.9257,1.33793 5,1.74536 6.3859,0.63859 6.68427,0.84917 7.08449,5 0.39753,4.12303 0.19725,4.33333 -4.12669,4.33333 -2.7722,0 -5.43902,0.98844 -6.83821,2.53454 -2.20241,2.43362 -2.10829,2.59572 2.36452,4.07188 4.33957,1.43218 4.60841,1.8444 3.92988,6.02573 l -0.72836,4.48836 5.15719,-1.16344 c 2.83645,-0.63988 7.78263,-2.092 10.99149,-3.22692 8.72794,-3.08691 12.60924,-2.57675 24.12884,3.17152 26.76436,13.35537 51.08639,34.71001 60.59918,53.20584 10.68933,20.7834 10.62055,43.80128 -0.1994,66.72842 -9.32847,19.76668 -28.77764,41.48155 -49.69626,55.48549 -6.23333,4.17291 -11.71017,8.28268 -12.17076,9.13284 -0.46058,0.85016 -1.24961,5.14575 -1.75338,9.54575 -0.50379,4.4 -1.7555,13.1 -2.78159,19.33333 -1.02609,6.23334 -2.82265,17.63334 -3.99237,25.33334 -2.84512,18.72897 -2.82103,18.66667 -7.21847,18.66667 -3.33939,0 -3.91097,-0.67366 -5.37376,-6.33334 -0.90031,-3.48333 -1.88776,-7.15713 -2.19437,-8.16398 -0.34907,-1.14634 -5.21156,2.84098 -13.00784,10.66666 -14.02987,14.08275 -26.94391,22.3189 -41.64395,26.55912 -9.20378,2.65483 -25.51334,4.34924 -30.53018,3.17182 z m 29.68678,-23.35522 c 11.05188,-3.8024 34.6338,-20.69569 32.21602,-23.07847 -0.31321,-0.30868 -2.83742,0.22054 -5.60937,1.17603 -4.90903,1.69214 -5.09013,1.64014 -6.97357,-2.00203 l -1.93366,-3.73928 29.3069,-23.46909 c 16.1188,-12.90801 29.30691,-23.73948 29.30691,-24.06995 0,-0.33046 -2.85,0.64944 -6.33334,2.17756 -10.93686,4.79795 -14.57566,5.17104 -23.5149,2.41106 -16.83219,-5.19695 -37.01858,-8.38651 -53.4851,-8.45096 -25.60031,-0.10027 -39.75151,4.83469 -52.0947,18.1668 -7.22858,7.80773 -10.88137,16.0584 -13.1342,29.6666 -0.84721,5.11758 -0.5975,5.61116 6.17299,12.20131 11.51359,11.20693 28.92502,20.49506 41.72258,22.25692 6.15846,0.84785 16.4347,-0.52206 24.35344,-3.2465 z M 294.34352,568.37387 c 0,-2.29637 -6.06321,-3.99265 -8.75204,-2.44853 -2.38412,1.36913 -2.27574,1.54996 1.41871,2.36735 5.91051,1.30768 7.33333,1.32342 7.33333,0.0812 z m 66.00001,-10.92532 c 36.78849,-3.45077 74.2512,-12.40341 93.33333,-22.30431 3.48934,-1.81046 4.64184,-2.97781 3.33334,-3.37625 -45.54583,-13.86899 -70.71182,-26.17783 -86.67978,-42.39563 l -7.48525,-7.60237 -3.25083,2.61527 c -4.16541,3.35105 -18.63713,10.44565 -21.25082,10.41797 -1.1,-0.012 2.20391,-2.067 7.34202,-4.56744 5.13811,-2.50044 10.75105,-6.04611 12.47321,-7.87927 3.05964,-3.25682 3.08398,-3.47997 1.06487,-9.76484 -1.13648,-3.5375 -2.73423,-9.02518 -3.55055,-12.19482 -1.18302,-4.59354 -2.29401,-6.04528 -5.47493,-7.15416 -2.19491,-0.76515 -3.74332,-1.63859 -3.44092,-1.94099 0.30239,-0.3024 2.13301,0.0521 4.06805,0.78783 l 3.51826,1.33764 v -9.86528 c 0,-5.42591 0.70334,-12.91238 1.563,-16.63659 1.47473,-6.38888 1.3806,-6.97824 -1.66667,-10.43506 l -3.22967,-3.66374 3.48156,3.05852 3.48158,3.05853 3.68713,-7.53624 c 3.66069,-7.48219 18.09284,-23.36867 24.68307,-27.17039 1.83333,-1.0576 9.19198,-5.15089 16.35256,-9.09621 7.16057,-3.94532 12.67941,-7.72313 12.26408,-8.39516 -0.41532,-0.67201 0.10106,-0.89327 1.14761,-0.49168 1.62681,0.62427 31.29486,-13.79185 34.77675,-16.89852 2.62719,-2.34407 -12.61959,-18.88808 -27.267,-29.58695 -3.14839,-2.29967 -3.09926,-2.29967 1.28069,0 4.90884,2.57737 20.23482,17.01008 25.52876,24.04086 l 3.24988,4.31608 17.66676,-9.40905 17.66678,-9.40904 -3.85582,-5.60424 c -3.74934,-5.44949 -10.69056,-12.31625 -20.16729,-19.951 l -4.64376,-3.74116 6,3.91632 c 6.06997,3.96198 17.60185,15.51138 21.45668,21.48926 l 2.10001,3.25658 6.55499,-3.79342 c 12.63975,-7.31472 25.84621,-17.04255 24.99867,-18.4139 -0.47856,-0.77432 -0.21396,-0.98793 0.60034,-0.48466 1.33195,0.82318 22.51809,-15.72264 26.77369,-20.90959 1.58294,-1.92937 1.25128,-2.86319 -2.56807,-7.23023 -2.41219,-2.75809 -6.98016,-7.04498 -10.15105,-9.52641 -3.1709,-2.48144 -5.76526,-4.75255 -5.76526,-5.04692 0,-1.69925 7.06462,3.74127 13.8671,10.67917 l 7.86709,8.02371 6.49591,-7.2388 c 19.12576,-21.31305 33.96106,-50.11391 36.86677,-71.57214 0.95789,-7.07382 0.821,-8.33333 -0.90572,-8.33333 -1.74965,0 -1.73032,-0.23311 0.13815,-1.66667 3.69888,-2.8379 1.53541,-8.61782 -3.89678,-10.41061 -2.53614,-0.837 -4.33584,-1.79717 -3.9993,-2.13372 0.33654,-0.33653 2.76364,0.28717 5.39354,1.38603 2.62992,1.09884 5.0331,1.58398 5.3404,1.0781 0.30732,-0.50589 2.09019,-5.49236 3.96194,-11.08104 l 3.40318,-10.16122 -6.74953,-15.83878 c -3.71225,-8.71132 -9.41423,-22.43876 -12.67108,-30.50543 -3.25684,-8.06666 -8.01747,-18.488521 -10.57915,-23.159681 -2.56168,-4.67116 -4.47946,-8.57116 -4.26173,-8.66667 3.94547,-1.7307 5.72921,-3.69807 5.72921,-6.31897 0,-2.65246 -0.76228,-3.26076 -4.53761,-3.621062 -3.03548,-0.289692 -5.78216,0.487092 -8.29712,2.346472 -3.67787,2.71917 -4.01361,2.73396 -15.46239,0.68124 -6.43658,-1.15406 -18.73025,-2.44721 -27.31925,-2.87368 -14.14539,-0.702353 -15.8942,-1.071114 -18.56576,-3.914854 -4.96063,-5.280355 -13.42604,-3.266436 -8.61515,2.049541 2.70897,2.993383 2.68937,4.688753 -0.0807,6.981073 -4.15866,3.44143 -7.06309,12.13263 -7.07233,21.163261 -0.012,11.84881 1.57583,13.88783 4.76909,6.12381 2.43494,-5.92026 2.69562,-6.11398 8.23376,-6.11882 8.47883,-0.007 30.74076,2.6491 34.64761,4.13447 2.58465,0.98269 3.02869,1.66504 1.8503,2.84342 -2.02788,2.02785 -2.03584,11.68379 -0.01,11.68379 0.84744,0 3.61229,-1.58 6.14412,-3.51111 3.58889,-2.73739 6.11409,-3.5125 11.45918,-3.51739 l 6.85588,-0.006 0.37274,6.51738 c 0.59416,10.38917 1.50916,11.2073 4.5893,4.10349 3.06243,-7.06296 4.96831,-6.40168 5.03575,1.74723 0.0212,2.56666 0.38169,5.9451 0.80101,7.50764 0.7184,2.67711 0.98931,2.72777 4.69671,0.87827 3.52381,-1.75791 4.28873,-1.73049 7.33079,0.26273 3.51088,2.30042 7.1737,9.35266 7.1737,13.81194 0,1.40043 -0.91309,3.30403 -2.0291,4.23024 -1.79244,1.48759 -1.71588,1.90339 0.65634,3.56497 4.67308,3.27315 5.83872,6.83447 3.43679,10.50028 -2.58831,3.95026 -3.92841,4.0462 -7.44183,0.53279 -2.48716,-2.48716 -2.95225,-2.54223 -5.63,-0.66667 -4.132,2.89418 -7.28022,2.54432 -11.0528,-1.22826 -2.82813,-2.82812 -3.27273,-4.49508 -3.27273,-12.27059 v -8.99788 l -5.05621,4.93726 c -2.78092,2.7155 -5.48092,4.93727 -6,4.93727 -0.51908,0 -0.94379,-1.8 -0.94379,-4 0,-4.86164 -0.33756,-4.89523 -5.97619,-0.59444 -5.26042,4.01234 -5.32716,3.90982 -6.76253,-10.38932 -0.49599,-4.94107 -1.43268,-8.65566 -2.08153,-8.25465 -0.64887,0.40102 -1.17975,0.0937 -1.17975,-0.6829 0,-1.92865 -5.75663,-1.78873 -7.73334,0.18798 -0.88889,0.88889 -1.6,1.00741 -1.6,0.26666 0,-0.73333 0.6604,-1.99373 1.46755,-2.80088 1.06785,-1.06785 0.6738,-1.71948 -1.44676,-2.39252 -3.68371,-1.16916 -9.62763,4.01028 -9.11977,7.94683 0.19252,1.49228 -0.0869,3.41488 -0.6211,4.27245 -1.19269,1.91492 7.37716,5.01582 11.1415,4.03142 2.76841,-0.72395 3.23585,1.15196 1.70849,6.85634 -0.73885,2.75946 -1.38139,3.01573 -5.64847,2.25279 -2.64812,-0.47346 -6.61477,-1.39623 -8.81477,-2.05056 -2.2,-0.65435 -9.02885,-2.11125 -15.17523,-3.23759 -12.47344,-2.28577 -13.80753,-3.3533 -16.34382,-13.07828 -0.90846,-3.48333 -2.13455,-6.33333 -2.72466,-6.33333 -1.95674,0 -8.95826,10.83259 -11.94017,18.47357 -4.02188,10.30583 -4.33759,30.37342 -0.60085,38.1931 l 2.5486,5.33333 1.10402,-9.33333 c 1.75098,-14.80248 1.89048,-15.104 7.47619,-16.15788 6.22033,-1.17363 25.94776,1.21828 44.33396,5.37539 23.27398,5.26224 24.74615,5.7915 26.43804,9.50478 2.2484,4.93472 2.15719,4.96248 -4.78274,1.45562 -5.73888,-2.89998 -22.22782,-8.53222 -31.20902,-10.6603 -3.38065,-0.80104 -3.57972,-0.55053 -4.36121,5.48819 -0.45038,3.48015 -0.29127,8.12753 0.35358,10.32753 0.89568,3.05572 0.42258,6.02479 -2.00409,12.57703 -1.84077,4.97029 -3.30327,12.11373 -3.47791,16.98755 -0.19286,5.38274 -0.86641,8.41501 -1.87096,8.42297 -2.47818,0.0197 -9.48729,9.30201 -12.56921,16.64576 -1.72847,4.11868 -4.78365,8.24112 -7.92989,10.70003 -5.80152,4.53409 -12.7004,13.39031 -13.44136,17.25491 -0.35562,1.85476 -2.69984,3.24238 -8.27224,4.89661 -9.59642,2.84879 -16.87851,7.77269 -21.62526,14.62225 -2.05844,2.97034 -4.71369,5.22623 -6.15143,5.22623 -3.95257,0 -14.33188,5.82367 -23.15849,12.99388 -6.21579,5.04932 -10.1276,7.06167 -17.16217,8.82869 -11.43199,2.87162 -18.19954,6.30106 -25.2529,12.79683 -4.71112,4.33869 -36.13757,22.71394 -38.84673,22.71394 -1.53851,0 6.31762,-9.26138 21.74712,-25.63707 22.36983,-23.74163 40.18267,-52.39743 60.31493,-97.02961 8.75824,-19.41654 20.55214,-48.77328 21.69419,-54 l 0.874,-4 -2.32548,4.24576 c -1.27901,2.33516 -5.19759,9.09552 -8.70793,15.02302 -7.87607,13.29937 -29.66428,55.52057 -30.99627,60.06456 -1.52087,5.1884 -12.18656,23.12676 -15.72963,26.45529 -2.70634,2.54248 -3.67933,2.76574 -6.4842,1.48775 -3.68498,-1.67899 -7.74078,-7.70755 -7.74078,-11.50592 0,-3.4708 6.09509,-12.07601 9.26641,-13.08255 6.46153,-2.05081 11.89348,6.34714 7.35163,11.36582 -1.30058,1.43712 -3.32168,2.59386 -4.49136,2.57054 -2.69328,-0.0537 -7.54268,-3.6527 -6.42618,-4.76922 0.46155,-0.46154 1.8106,0.13226 2.99791,1.31956 2.79164,2.79164 3.71265,2.72113 6.63492,-0.50794 2.32884,-2.57334 2.32884,-2.75998 0,-5.33333 -4.05555,-4.48132 -9.31395,-2.5574 -11.74107,4.29576 -1.13766,3.21228 1.5308,10.16455 4.51428,11.76125 3.51462,1.88098 10.73923,-5.20774 15.16627,-14.88098 3.17355,-6.9343 3.31085,-7.99884 1.84868,-14.33334 -1.07531,-4.65848 -2.2512,-6.84921 -3.68383,-6.86311 -1.8455,-0.0179 -1.85834,-0.17938 -0.1044,-1.31292 1.1,-0.71088 1.4,-1.30988 0.66667,-1.33112 -0.73333,-0.0212 -2.83333,-0.38248 -4.66667,-0.80274 -2.6139,-0.5992 -2.90168,-0.4558 -1.33333,0.66445 2.63891,1.88495 1.40269,1.83028 -12,-0.53059 -16.59417,-2.92304 -16.44029,-2.95848 -21.51815,4.95467 -4.90561,7.64475 -6.09674,6.68275 -4.54422,-3.67011 l 0.8601,-5.73568 9.60114,0.66766 c 5.28062,0.3672 15.52949,1.0687 22.77526,1.55889 l 13.17414,0.89124 2.1592,7.11789 2.1592,7.1179 13.02493,-25.78456 c 7.16379,-14.18151 16.65729,-32.08456 21.09675,-39.78456 8.67365,-15.04396 8.81701,-15.54698 13.30003,-46.66667 2.9842,-20.71537 4.14965,-49.118931 2.21022,-53.866401 -0.98673,-2.41544 -1.19677,-2.38448 -4.52292,0.66666 -1.91847,1.75986 -6.42029,7.65351 -10.00407,13.09702 -4.9144,7.46463 -6.09674,10.178281 -4.81041,11.040511 1.0256,0.68746 0.23619,0.80176 -1.98019,0.28672 -5.51561,-1.28174 -17.11766,5.18295 -28.22133,15.72496 -15.11689,14.35224 -31.37995,20.70389 -49.51144,19.33705 -16.45311,-1.24031 -22.96932,-5.88117 -24.51486,-17.45949 -0.66864,-5.0091 -1.31912,-5.78388 -7.3743,-8.78343 -8.71552,-4.3174 -22.88494,-5.49714 -24.22055,-2.0166 -1.39043,3.62341 1.15368,6.40039 8.52592,9.30633 6.02876,2.37638 6.84775,3.18191 7.52349,7.39986 1.42871,8.91773 8.80226,21.16945 18.89282,31.39185 5.36118,5.43123 10.2999,9.87496 10.97493,9.87496 0.73452,0 0.69504,-2.69215 -0.0984,-6.70469 -0.72912,-3.68758 -1.05305,-6.97732 -0.71984,-7.31054 0.33321,-0.33321 2.66215,-0.0161 5.1754,0.7047 10.29966,2.9539 31.79296,1.30088 42.79807,-3.29154 1.78936,-0.74669 2.62913,0.51603 4.40435,6.62252 l 2.19342,7.54512 4.23918,-3.26914 c 6.74562,-5.20206 11.88268,-12.37874 13.54394,-18.92147 l 1.53762,-6.05578 4.46762,3.29611 c 2.45719,1.81287 4.93387,3.00796 5.50372,2.65576 1.13086,-0.69891 -0.27726,-6.61815 -2.61229,-10.98119 -1.30884,-2.44559 -1.03109,-2.83343 2.52029,-3.51918 2.19519,-0.42387 5.79722,-1.11967 8.00452,-1.54621 l 4.01328,-0.77552 -2.77073,-3.89114 c -2.3101,-3.24508 -2.42304,-3.89141 -0.67952,-3.89141 1.38486,0 2.10068,-1.23797 2.12006,-3.66666 0.0323,-4.0329 4.21984,-14.172544 6.41299,-15.527991 2.04077,-1.26126 3.31481,9.561281 2.62197,22.272751 -0.64341,11.80486 -2.45216,16.52078 -9.34916,24.37604 -4.02996,4.58987 -4.2425,5.38709 -4.38862,16.46144 -0.19082,14.46116 -2.85603,20.09989 -10.392,21.98625 -4.35044,1.08896 -4.93504,1.72019 -4.93944,5.33334 -0.007,5.62766 -4.09283,11.79449 -9.01714,13.6092 -3.78789,1.39593 -4.16116,1.26834 -4.89984,-1.67478 -1.57501,-6.27536 -9.75709,-23.43424 -10.55716,-22.1397 -0.44894,0.7264 -0.88896,6.49184 -0.97782,12.81209 -0.18023,12.81851 0.18278,12.46353 -10.87639,10.63556 -3.69968,-0.61152 -5,-1.47459 -5,-3.31865 0,-2.22916 -1.14115,-2.49222 -10.81121,-2.49222 h -10.81122 l 0.83662,3.33334 c 0.67012,2.66994 0.33789,3.33333 -1.66936,3.33333 -1.37828,0 -5.21414,0.3712 -8.52413,0.82488 l -6.01816,0.82488 -6.50126,-10.88276 c -5.5624,-9.31115 -6.56248,-10.3902 -6.92507,-7.47193 -0.82119,6.60921 2.59343,17.74092 8.47201,27.61897 3.9092,6.56881 6.22671,12.22897 6.77079,16.5366 0.53093,4.20364 2.68136,9.56161 6.00409,14.95969 2.8473,4.6257 5.1769,9.9055 5.1769,11.73289 0,7.90174 -7.90924,15.57464 -12.47371,12.10097 -1.14009,-0.86764 -2.72587,-3.33488 -3.52396,-5.48277 -1.43095,-3.85107 -1.48612,-3.86958 -3.97597,-1.33334 -1.3887,1.41456 -2.91647,4.17688 -3.39506,6.1385 -0.77064,3.15872 -0.43718,3.63142 2.91594,4.13356 3.31121,0.49586 3.1815,0.59204 -1.0341,0.76676 -6.49728,0.26928 -11.16822,4.26553 -15.86818,13.5761 -3.51358,6.96036 -3.68251,7.83519 -1.61748,8.37652 1.26822,0.33247 0.31396,0.67408 -2.12058,0.75915 -5.70748,0.19943 -14.8616,6.50908 -20.88128,14.39283 -5.65158,7.40166 -5.85428,9.41089 -1.02562,10.16717 2.01666,0.31585 0.91776,0.34661 -2.44202,0.0684 -5.04765,-0.41805 -7.12542,0.17692 -11.96233,3.42543 -6.89847,4.63306 -16.82815,16.29826 -22.06476,25.92129 -2.04907,3.76544 -5.74071,9.48667 -8.20363,12.71383 -6.09912,7.99165 -9.33307,14.63855 -11.79203,24.23681 -2.7975,10.91976 -2.0936,12.40266 4.33222,9.12659 3.22474,-1.64407 7.44058,-2.49883 11.7478,-2.38187 l 6.71808,0.18244 -8,0.92103 c -12.89435,1.48452 -16.75322,4.59095 -18.05202,14.53208 -0.7706,5.89825 -0.85284,5.99841 -1.79169,2.18203 -0.54123,-2.2 -1.59209,-5.11279 -2.33527,-6.47286 -0.74317,-1.36008 -0.81706,-2.14273 -0.16421,-1.73924 0.65287,0.40348 1.96137,-4.78373 2.90781,-11.52714 1.92079,-13.68575 6.46402,-29.29992 12.25322,-42.11186 4.63329,-10.25383 4.69956,-11.29383 0.84882,-13.31973 -2.35274,-1.2378 -2.42466,-1.40428 -0.33333,-0.77163 1.46667,0.44368 3.26667,0.91224 4,1.04124 1.27015,0.22343 7.9132,-11.9944 13.07923,-24.05516 2.60521,-6.08227 10.25411,-26.7492 10.25411,-27.70615 0,-0.32213 -1.65,-1.54305 -3.66667,-2.71316 -2.01667,-1.17009 -2.46667,-1.7448 -1,-1.27712 1.46667,0.46768 3.241,0.95587 3.94297,1.08487 1.83744,0.33767 4.88734,-12.20741 4.40008,-18.09879 -0.22744,-2.75 0.13254,-5 0.79998,-5 0.68922,0 0.94125,-5.6165 0.58336,-13 -0.71824,-14.81744 -3.29656,-22.10568 -11.25686,-31.82017 -4.43069,-5.40708 -5.43018,-5.99016 -9.05821,-5.28447 -2.2429,0.43627 -7.07799,2.30009 -10.74466,4.14184 -5.26802,2.64611 -5.96734,2.79031 -3.33333,0.68729 1.83333,-1.46373 6.42745,-3.72554 10.20916,-5.02625 l 6.87582,-2.36491 -7.98463,-6.33333 c -4.39154,-3.48333 -9.0441,-6.33333 -10.33902,-6.33333 -1.29492,0 -6.94596,3.91773 -12.55786,8.70608 -5.61191,4.78833 -10.18315,8.23833 -10.15831,7.66666 0.0248,-0.57168 4.50289,-4.93856 9.95124,-9.70418 l 9.90607,-8.66479 -4.95123,-1.77888 c -5.68008,-2.04073 -25.14685,-3.63997 -29.81275,-2.44919 -1.9618,0.50068 -4.54204,3.31734 -6.88208,7.51264 -2.05896,3.69142 -4.06597,6.71166 -4.46002,6.71166 -0.39404,0 0.89346,-2.74711 2.86113,-6.10468 1.96767,-3.35756 3.35841,-6.32384 3.09055,-6.59171 -0.93587,-0.93585 -11.71496,2.04871 -18.94142,5.24459 -5.07785,2.24566 -7.94324,4.49294 -9.45416,7.41474 -4.56405,8.82592 -9.28913,33.37039 -6.42416,33.37039 0.51059,0 3.17988,-1.56032 5.93178,-3.46739 3.76924,-2.61209 8.88478,-4.12642 20.73833,-6.1391 14.64163,-2.4861 16.42969,-2.53244 25.73489,-0.66702 6.69584,1.34232 13.37592,3.92147 20.21719,7.80578 10.96519,6.22577 11.74807,7.35406 17.88548,25.77664 4.5441,13.63997 -0.74987,33.23531 -13.87504,51.35776 -29.12624,40.21576 -45.56096,78.93298 -45.56096,107.33334 0,16.66758 6.51516,39.02359 16.90283,58 4.18548,7.64613 15.71022,25.57191 19.15962,29.80116 0.6873,0.84269 3.97259,4.96401 7.30063,9.15847 11.52093,14.52028 24.05136,22.79117 50.63692,33.42367 13.89698,5.55789 25.15642,8.90609 34.6354,10.29945 10.23371,1.50432 37.00463,1.47385 53.36461,-0.0607 z m -58.66667,-9.93728 c 4.4,-0.97344 9.73321,-2.44253 11.85158,-3.26462 2.11838,-0.82211 4.12635,-1.21998 4.46219,-0.88415 0.96829,0.96829 -16.88323,6.14204 -20.78756,6.02468 -1.93941,-0.0583 0.0737,-0.90245 4.47379,-1.87591 z m 101.27375,-2.33246 c 1.4339,-0.9271 5.9339,-4.67442 10,-8.32738 5.01997,-4.50991 6.10901,-5.16736 3.39292,-2.04829 -5.27588,6.05861 -7.21728,7.68768 -12,10.06937 -2.2,1.09555 -2.82682,1.23339 -1.39292,0.3063 z m -79.27375,-4.1935 c 0,-2.58006 24.22232,-10.38092 26.17388,-8.42936 0.30736,0.30736 -3.20603,1.33535 -7.80752,2.28444 -4.6015,0.94908 -10.61636,2.84641 -13.36636,4.2163 -2.75,1.36988 -5,2.23776 -5,1.92862 z m 29.08333,-9.73628 c 0.9625,-0.38516 2.11251,-0.3378 2.55556,0.1052 0.44306,0.44305 -0.34445,0.75819 -1.75,0.70029 -1.55326,-0.064 -1.8692,-0.37992 -0.80556,-0.80554 z m 25.58334,-9.1968 c 3.3,-1.87485 7.94101,-5.27661 10.31336,-7.55947 2.37234,-2.28285 4.71866,-3.74533 5.21405,-3.24996 1.51632,1.51634 -3.2798,5.74686 -11.45516,10.10428 -9.3378,4.977 -12.57923,5.53828 -4.07225,0.70515 z M 252.67686,509.86198 c 2.38333,-0.29576 6.28333,-0.29576 8.66666,0 2.38334,0.29577 0.43334,0.53777 -4.33333,0.53777 -4.76667,0 -6.71667,-0.242 -4.33333,-0.53777 z m -10.33334,-1.70214 c -2.43729,-1.57509 -0.33212,-1.57509 3.33334,0 1.75832,0.75558 1.98541,1.17087 0.66666,1.2192 -1.1,0.0403 -2.9,-0.50832 -4,-1.2192 z m 25.08334,0.42252 c 0.96249,-0.38516 2.11249,-0.3378 2.55556,0.1052 0.44305,0.44306 -0.34446,0.75819 -1.75,0.7003 -1.55327,-0.064 -1.8692,-0.37992 -0.80556,-0.80555 z m 13.2981,-5.17281 c 1.76083,-1.23332 4.73848,-1.86452 7.29668,-1.54672 4.30784,0.53517 4.3059,0.53761 -0.59942,0.75029 -2.70672,0.11734 -5.29214,0.81339 -5.74536,1.54672 -0.45323,0.73334 -1.52214,1.33334 -2.37536,1.33334 -0.85323,0 -0.21267,-0.93763 1.42346,-2.08363 z m 41.36856,-5.49385 c 0.9625,-0.38516 2.1125,-0.3378 2.55556,0.1052 0.44306,0.44305 -0.34445,0.75818 -1.75,0.70029 -1.55326,-0.064 -1.8692,-0.37992 -0.80556,-0.80555 z m 5.33334,-1.33334 c 0.96249,-0.38516 2.11249,-0.3378 2.55556,0.1052 0.44305,0.44306 -0.34446,0.75819 -1.75,0.7003 -1.55327,-0.064 -1.8692,-0.37992 -0.80556,-0.80555 z m -62.41667,-46.22629 c 0,-1.36724 17.52265,-6.20019 21.80712,-6.01465 3.60003,0.1559 3.72157,0.26348 0.85955,0.76085 -4.31796,0.75037 -17.98724,4.21388 -20.6238,5.22561 -1.12358,0.43116 -2.04287,0.44384 -2.04287,0.0282 z m -51.53846,-4.5516 c -0.84614,-0.53788 1.48387,-1.10799 5.17783,-1.26691 3.69396,-0.1589 6.48627,-0.0885 6.20512,0.15646 -1.29988,1.13264 -10.01119,1.98245 -11.38295,1.11045 z m 81.89567,-2.61093 c 2.39647,-0.29675 5.99647,-0.29063 8,0.0136 2.00354,0.30424 0.0428,0.54702 -4.35721,0.53954 -4.4,-0.008 -6.03925,-0.2564 -3.64279,-0.55314 z m -34.31637,-27.70037 c 0,-0.73333 0.58161,-2.23333 1.29249,-3.33333 0.71088,-1.1 1.2925,-1.4 1.2925,-0.66667 0,0.73334 -0.58162,2.23334 -1.2925,3.33334 -0.71088,1.1 -1.29249,1.4 -1.29249,0.66666 z m 82.08974,-7.254 c -8.14951,-6.37777 -25.12255,-15.49714 -33.6699,-18.09034 -8.25315,-2.50395 -22.17265,-2.55116 -26.92939,-0.0913 -3.64206,1.88339 -12.02632,10.3728 -16.56133,16.76904 -2.36329,3.33323 -2.36331,3.3332 -0.38175,-0.84016 4.92018,-10.36238 15.6346,-18.51038 26.25494,-19.96605 7.1743,-0.98335 19.50462,1.92292 29.46972,6.94604 7.77041,3.91684 25.35912,15.72175 27.79163,18.65275 2.40469,2.89748 1.11468,2.16762 -5.97392,-3.37991 z m 30.45285,-31.85734 c -9.38859,-8.9262 -19.28531,-14.83516 -32.89335,-19.63935 -5.32955,-1.88155 -7.87457,-3.12427 -5.65561,-2.76159 12.86713,2.10304 29.75449,11.69352 41.24875,23.42554 8.91002,9.09434 7.30106,8.48372 -2.69979,-1.0246 z M 205.67685,362.82651 c -3.69014,-0.93899 -3.74178,-1.02847 -0.66666,-1.15516 1.83333,-0.0755 4.23333,0.44428 5.33333,1.15516 2.26925,1.4665 1.09661,1.4665 -4.66667,0 z m 200.66668,-6 c -3.23871,-3.3 -5.58856,-6 -5.2219,-6 0.36667,0 3.31652,2.7 6.55523,6 3.23871,3.3 5.58856,6 5.22189,6 -0.36666,0 -3.31652,-2.7 -6.55522,-6 z m -145.33334,0.66666 c -2.63944,-0.84529 -2.77823,-1.06752 -0.66667,-1.06752 1.46667,0 4.16667,0.48039 6,1.06752 2.63944,0.8453 2.77823,1.06752 0.66667,1.06752 -1.46667,0 -4.16667,-0.48038 -6,-1.06752 z m -10.91667,-2.24414 c 0.9625,-0.38516 2.1125,-0.3378 2.55556,0.1052 0.44306,0.44305 -0.34445,0.75818 -1.75,0.70029 -1.55326,-0.064 -1.8692,-0.37992 -0.80556,-0.80555 z m 143.63117,-8.57711 c -7.00488,-5.26407 -7.65986,-6.13655 -2.29171,-3.05277 3.78393,2.1737 9.73335,7.38933 8.1172,7.11605 -0.297,-0.0503 -2.91847,-1.87871 -5.82549,-4.06328 z m -10.79299,-7.25231 c -2.48536,-1.99119 -2.46901,-2.0158 0.41183,-0.61975 1.65,0.79959 3,1.73268 3,2.07355 0,1.02029 -0.69148,0.72565 -3.41183,-1.4538 z m -160.83818,-5.50392 c 0.96249,-0.38516 2.11249,-0.3378 2.55556,0.1052 0.44305,0.44305 -0.34445,0.75819 -1.75,0.70029 -1.55327,-0.064 -1.8692,-0.37992 -0.80556,-0.80554 z m 98.91667,-0.42252 c -1.20172,-0.77661 -1.36617,-1.30065 -0.41203,-1.31292 0.87339,-0.0107 1.9588,0.57959 2.41203,1.31292 1.02307,1.65537 0.56149,1.65537 -2,0 z m 192.53999,-37.66667 -2.53998,-3 3,2.53999 c 1.65,1.39699 3,2.74699 3,3 0,1.067 -1.07306,0.27927 -3.46002,-2.53999 z m -7.9572,-8 -3.91612,-4.33333 4.33334,3.91612 c 4.03928,3.65037 4.9462,4.75055 3.91612,4.75055 -0.22947,0 -2.17947,-1.95 -4.33334,-4.33334 z M 331.01019,276.15984 c -4.4,-1.34728 -7.1,-2.49028 -6,-2.54002 1.1,-0.0497 5.6,1.0467 10,2.43651 4.4,1.38981 7.1,2.53281 6,2.54001 -1.1,0.007 -5.6,-1.08922 -10,-2.4365 z m 157.25485,-0.74023 c -2.48536,-1.99119 -2.46902,-2.0158 0.41182,-0.61975 1.65,0.79959 3,1.73268 3,2.07355 0,1.02029 -0.69148,0.72565 -3.41182,-1.4538 z m 37.33333,-14.66667 c -2.48536,-1.99118 -2.46901,-2.0158 0.41183,-0.61974 1.65,0.79958 3,1.73268 3,2.07354 0,1.0203 -0.69148,0.72566 -3.41183,-1.4538 z M 246.01019,233.94346 c 0.91667,-0.36988 2.41667,-0.36988 3.33333,0 0.91667,0.36988 0.16667,0.67252 -1.66666,0.67252 -1.83334,0 -2.58334,-0.30264 -1.66667,-0.67252 z m 296.43012,-17.29677 c -3.40242,-4.32547 -3.62428,-11.50895 -0.43011,-13.92596 1.98503,-1.50207 2.08455,-1.48663 0.66667,0.10346 -2.35767,2.64392 -2.06839,10.07683 0.4918,12.63703 1.98908,1.98907 2.36501,1.97156 4.79017,-0.22319 4.21991,-3.81896 5.35081,-6.95029 6.37784,-17.65948 l 0.9672,-10.08533 0.18649,8.24653 c 0.10254,4.5356 -0.43029,9.86882 -1.18414,11.85159 -0.75386,1.98277 -1.09571,3.87997 -0.75968,4.216 1.27753,1.27753 6.40838,-10.98532 9.24005,-22.08395 2.86772,-11.2399 3.06683,-11.5749 7.11469,-11.97096 2.29044,-0.22409 6.17694,0.14967 8.63667,0.83059 4.11739,1.1398 3.85384,1.24392 -3.32141,1.31221 -4.28651,0.0408 -8.0039,0.28442 -8.26086,0.54138 -0.25694,0.25696 -1.45013,5.24981 -2.6515,11.09524 -2.486,12.09585 -7.48395,22.29896 -12.76512,26.0595 -4.72118,3.36176 -5.79942,3.24983 -9.09876,-0.94461 z m 10.56989,-3.15352 c 0,-0.73334 -0.26459,-1.33334 -0.58797,-1.33334 -0.32339,0 -0.9588,0.6 -1.41203,1.33334 -0.45323,0.73333 -0.18864,1.33333 0.58797,1.33333 0.77662,0 1.41203,-0.6 1.41203,-1.33333 z m -386.66668,4.07869 c 0,-0.69005 0.59313,-1.62123 1.31807,-2.06925 0.75581,-0.46712 0.97933,0.0681 0.52401,1.25464 -0.88639,2.30989 -1.84208,2.73252 -1.84208,0.81461 z m 30.66667,-3.24877 c 0,-0.27687 1.05,-1.32687 2.33333,-2.33334 2.11475,-1.65849 2.16191,-1.61133 0.50341,0.50342 -1.74182,2.221 -2.83674,2.9273 -2.83674,1.82992 z m -24.66667,-7.49659 c 1.13767,-2.2 2.36848,-4 2.73515,-4 0.36666,0 -0.26415,1.8 -1.40182,4 -1.13766,2.2 -2.36848,4 -2.73514,4 -0.36667,0 0.26414,-1.8 1.40181,-4 z m 371.44551,2.13515 c -1.07504,-1.29535 -1.1312,-2.17202 -0.17691,-2.7618 0.76895,-0.47523 1.39808,-0.10867 1.39808,0.81462 0,1.32466 0.34447,1.33423 1.63328,0.0455 1.28881,-1.28881 1.24364,-2.25897 -0.21421,-4.6 -1.68886,-2.712 -1.65738,-2.8096 0.36672,-1.1368 2.68608,2.21991 2.86873,5.96701 0.39112,8.02327 -1.38162,1.14662 -2.2045,1.05346 -3.39808,-0.38471 z m 44.97117,-13.71263 c 0.96249,-0.38516 2.11251,-0.3378 2.55556,0.1052 0.44305,0.44305 -0.34445,0.75819 -1.75,0.70029 -1.55327,-0.064 -1.8692,-0.37992 -0.80556,-0.80554 z M 308.58734,117.95919 c -0.47703,-0.47701 -3.72703,-1.63652 -7.22223,-2.57667 -3.49521,-0.94016 -4.98565,-1.74987 -3.31209,-1.79936 3.19082,-0.0944 12.2905,3.24375 12.2905,4.50863 0,0.98061 -0.6955,0.9281 -1.75618,-0.1326 z m 101.08952,-1.24611 c 2.2,-1.21596 5.38331,-3.47377 7.07403,-5.01734 2.37089,-2.16457 2.879,-2.29827 2.22137,-0.58453 -1.01543,2.64616 -5.34713,5.64866 -9.96207,6.90516 -2.88346,0.78507 -2.79349,0.60917 0.66667,-1.30329 z m -9.41183,-2.47969 c 1.4235,-1.14046 3.1735,-2.07356 3.8889,-2.07356 1.69405,0 0.93764,0.61587 -3.14374,2.55962 -3.14302,1.49686 -3.18557,1.46911 -0.74516,-0.48606 z m 104.38022,285.14725 c -3.63728,-1.97268 -6.30172,-1.60995 -6.30172,0.85789 0,0.69006 2.25,1.23062 5,1.20126 l 5,-0.0533 -3.69828,-2.00576 z m 23.03161,-0.55413 c 1.49079,-0.96343 0.74702,-1.2977 -2.9213,-1.31292 -2.70672,-0.0107 -5.29214,0.57958 -5.74536,1.31292 -1.06284,1.7197 6.00561,1.7197 8.66666,0 z m -50.01005,-8.11396 c 2.16564,-1.03798 6.23065,-5.35254 9.03336,-9.58792 3.74724,-5.66278 6.50179,-8.26327 10.40849,-9.82642 6.33019,-2.53284 7.47815,-4.38873 8.60272,-13.90774 l 0.85422,-7.23063 -17.21983,17.95601 -17.21983,17.95603 -0.89121,-4.45603 c -0.49016,-2.4508 -0.8912,-5.88101 -0.8912,-7.62268 0,-1.74166 -0.54391,-3.16666 -1.20868,-3.16666 -1.37159,0 -14.79132,19.69354 -14.79132,21.70636 0,1.90421 18.57747,0.45428 23.32328,-1.82032 z m -26.0468,0.44729 c -0.0312,-0.55 -2.37237,-3.63679 -5.20247,-6.85953 -3.89486,-4.43526 -5.7446,-5.62939 -7.60981,-4.91268 -2.14717,0.82505 -1.65939,1.70754 3.79152,6.85953 5.80783,5.48935 9.15724,7.31343 9.02076,4.91268 z M 122.34352,337.41448 c 0,-0.69006 -0.9,-1.25464 -2,-1.25464 -2.06188,0 -2.64894,1.57328 -1.14736,3.07486 1.06524,1.06524 3.14736,-0.13892 3.14736,-1.82022 z m 300.02327,-48.45671 c 7.0909,-3.54971 13.63298,-7.95684 16.46554,-11.09216 4.19364,-4.64184 13.11687,-10.00732 22.70669,-13.65337 1.8389,-0.69915 4.33936,-3.24695 5.55659,-5.66179 2.80604,-5.56689 9.50515,-12.72113 14.2286,-15.1953 2.02967,-1.06314 4.04781,-3.52598 4.55027,-5.5529 1.0103,-4.07566 6.12284,-12.58378 10.60134,-17.64242 2.00843,-2.2686 3.42639,-6.4575 4.43919,-13.11414 0.81847,-5.37946 2.37472,-11.90274 3.45832,-14.49618 1.08821,-2.60446 1.9702,-8.80925 1.9702,-13.86044 0,-8.85789 -0.1152,-9.17485 -3.66667,-10.09256 -2.01666,-0.5211 -8.16666,-0.98254 -13.66666,-1.02541 l -10,-0.0779 -0.0655,14.66667 c -0.0816,18.26085 0.18808,17.00563 -4.70373,21.89744 -4.9422,4.94219 -11.1579,5.45021 -16.3843,1.33912 -3.19152,-2.51049 -3.51317,-2.54903 -3.51317,-0.42087 0,1.28844 -0.97907,5.83199 -2.17571,10.09678 -1.95538,6.96894 -2.53594,7.75413 -5.73333,7.75413 -1.95669,0 -4.15392,-0.59629 -4.88272,-1.32509 -0.87789,-0.8779 -2.60841,4.1843 -5.12775,15 -2.09147,8.9788 -4.11219,16.87476 -4.49048,17.54657 -0.37831,0.67182 -1.99265,-0.41492 -3.58743,-2.41496 l -2.89961,-3.63645 -2.99029,8.41497 c -1.64466,4.62823 -3.48878,10.21496 -4.09803,12.41496 -2.28492,8.25083 -6.33091,18.13863 -7.43393,18.16746 -0.6288,0.0164 -1.5523,-1.06452 -2.05222,-2.40212 -1.05661,-2.8271 -1.22961,-2.48524 -4.45837,8.81 -2.96499,10.37248 -2.602,11.45654 2.05871,6.14829 2.3703,-2.69961 9.14002,-7.21109 15.89442,-10.59236 z m -304.25309,1.5354 c 6.16754,-12.12781 13.66562,-22.68341 23.46496,-33.03337 6.35469,-6.71175 6.41538,-6.85951 5.35891,-13.04431 -0.5877,-3.4406 -1.1118,-11.65566 -1.16464,-18.25566 -0.0899,-11.21749 0.21738,-12.62362 4.71074,-21.56344 l 4.80681,-9.56342 -8.24936,-1.43658 c -11.59208,-2.01866 -12.177,-1.91236 -14.02498,2.54904 -3.54741,8.56423 -13.90101,15.42442 -36.95681,24.48723 -6.75631,2.65577 -16.25614,6.93584 -21.11074,9.51127 -9.05523,4.80389 -14.76433,5.76153 -19.43764,3.26045 -2.16145,-1.15677 -3.88655,-0.63328 -9.24568,2.80567 -3.62363,2.32528 -6.58842,4.71481 -6.58842,5.31008 0,1.60268 9.17973,8.53592 15.626,11.80196 7.22396,3.66007 19.44486,6.83775 26.29698,6.83775 h 5.36271 l -4.97618,-3.3814 c -3.46177,-2.35234 -4.97618,-4.37118 -4.97618,-6.63367 0,-2.94016 0.32822,-3.12748 3.42014,-1.95193 5.29852,2.01449 6.15466,1.57502 3.83336,-1.96772 -2.77636,-4.23726 -1.44042,-9.18257 2.17097,-8.03637 2.21204,0.70208 2.44045,0.29564 1.75627,-3.12521 -0.74585,-3.72927 -0.45246,-4.04203 5.68308,-6.05852 3.55823,-1.16944 8.56952,-2.26976 11.13618,-2.44517 3.32667,-0.22734 5.90813,-1.62539 8.99015,-4.86886 3.81734,-4.01729 4.89322,-4.45748 9.19033,-3.76016 3.66607,0.59492 5.68668,0.14491 8.18967,-1.82394 4.16696,-3.27774 5.18387,-3.27175 6.95675,0.0409 1.62665,3.03944 -1.13772,9.80916 -4.53839,11.11412 -1.43285,0.54984 -1.77316,2.01348 -1.23672,5.31911 0.5082,3.13166 -0.001,5.693 -1.62823,8.17501 l -2.36828,3.61447 -2.09058,-3.44547 c -2.63789,-4.34745 -4.05652,-3.86003 -7.7761,2.67179 -3.32475,5.83849 -4.00099,15.62207 -1.46457,21.18891 l 1.55736,3.41802 3.34607,-3.02196 3.34607,-3.02196 -3.05452,4.41802 c -1.84887,2.67417 -3.78429,4.12144 -4.90342,3.66666 -1.01691,-0.41324 -2.76011,-1.11982 -3.87378,-1.5702 -1.69665,-0.68613 -1.80317,-0.23576 -0.65713,2.77855 1.97601,5.19731 0.58128,6.42796 -6.14232,5.41969 -3.2133,-0.48186 -5.84236,-0.58909 -5.84236,-0.23829 0,0.3508 1.2,3.38758 2.66667,6.74836 1.46667,3.3608 3.84534,8.81055 5.28595,12.11055 1.44061,3.3 2.83025,6 3.08809,6 0.25785,0 2.98611,-4.95 6.06281,-11 z m 9.66841,-36.44444 c 0.064,-1.55327 0.37993,-1.8692 0.80556,-0.80556 0.38516,0.96249 0.33779,2.11249 -0.10527,2.55556 -0.44305,0.44305 -0.75818,-0.34445 -0.70029,-1.75 z m 183.83843,12.25923 c 0.66606,-1.75187 3.03525,-5.26291 5.26488,-7.80231 l 4.05386,-4.61709 -7.49688,-5.55426 c -4.12329,-3.05483 -7.69708,-5.35405 -7.94174,-5.10937 -0.24468,0.24466 0.14488,2.50116 0.86566,5.01441 0.7208,2.51326 1.31054,8.32352 1.31054,12.9117 0,8.60345 1.75886,10.90342 3.94368,5.15692 z m 22.47005,-2.54555 c 3.84845,-4.09649 4.84592,-10.21507 2.21648,-13.59608 -1.78161,-2.29085 -2.25195,-2.38341 -3.38775,-0.66667 -0.72538,1.09643 -1.10394,3.6549 -0.84122,5.68548 0.60481,4.6747 -2.7003,7.96676 -4.59654,4.57838 -1.57025,-2.8059 -3.8047,-2.96467 -3.8047,-0.27035 0,2.11885 4.57517,7.33333 6.43425,7.33333 0.60549,0 2.39627,-1.37884 3.97948,-3.06409 z m -3.74707,-6.26924 c 0,-0.73333 -0.6,-1.33333 -1.33333,-1.33333 -0.73333,0 -1.33333,0.6 -1.33333,1.33333 0,0.73333 0.6,1.33333 1.33333,1.33333 0.73333,0 1.33333,-0.6 1.33333,-1.33333 z m -3.76529,-8.49528 c 2.13336,-2.93857 2.05779,-3.42888 -1.66667,-10.81267 -2.14576,-4.25399 -3.90137,-9.66904 -3.90137,-12.03347 0,-2.36442 -1.11753,-5.72988 -2.4834,-7.47877 -3.92612,-5.02709 -7.87372,-13.50723 -8.94429,-19.21384 -0.79052,-4.21388 -1.2472,-4.82552 -2.32598,-3.11529 -1.18776,1.88296 -2.11658,1.92378 -8.06566,0.35445 -3.69783,-0.97547 -6.84787,-1.64568 -7.00008,-1.48936 -0.15222,0.15632 2.67312,4.18423 6.27852,8.95089 6.43538,8.50818 19.31716,33.15206 22.47681,43.00001 1.85973,5.79637 2.58628,6.03348 5.63212,1.83805 z M 85.07284,222.8265 c 3.94012,0 17.68662,-17.36184 15.4876,-19.56085 -2.27432,-2.27432 -15.19225,8.90405 -13.48394,11.66816 0.62208,1.00654 0.46008,1.29672 -0.4202,0.75266 -0.78792,-0.48696 -2.68063,0.70126 -4.20602,2.64047 -3.30146,4.19713 -3.58064,6.42795 -0.66438,5.30888 1.15998,-0.44513 2.6391,-0.80932 3.28694,-0.80932 z m 287.76161,-31.60616 c 2.66877,-1.68629 3.05218,-2.78097 2.47674,-7.07124 -0.37446,-2.79184 -0.0776,-5.67927 0.65956,-6.41649 0.73724,-0.73724 0.9373,-1.9927 0.44458,-2.78994 -1.54608,-2.5016 -7.15442,-1.59158 -9.32954,1.51384 -1.44993,2.07007 -2.0756,2.35142 -2.0756,0.93334 0,-1.11651 0.72,-2.75002 1.6,-3.63002 1.24444,-1.24444 1.1178,-1.6 -0.56989,-1.6 -3.61189,0 -7.98653,6.75458 -7.31924,11.30111 0.39224,2.67251 -0.12773,4.53656 -1.56137,5.59679 -1.87072,1.3835 -1.54426,1.85249 2.51717,3.61608 4.93333,2.1422 8.0038,1.80301 13.15759,-1.45347 z m 91.7282,-10.22615 c 0.12053,-0.0923 -0.57847,-3.46769 -1.55328,-7.50102 -0.97481,-4.03334 -1.85917,-6.43334 -1.96527,-5.33334 -0.10613,1.1 -0.66361,4.86076 -1.23897,8.35724 -0.99499,6.04666 -0.90968,6.31542 1.74615,5.50104 1.53574,-0.47092 2.89085,-0.93168 3.01137,-1.02392 z M 342.32533,171.8265 c -0.0259,-8.02695 -1.2598,-11.66667 -3.95543,-11.66667 -2.19062,0 -2.20583,0.516 -0.25566,8.66667 2.37717,9.93521 4.23762,11.26061 4.21109,3 z m 10.68486,-9.07869 c 0,-0.69006 -1.95,-1.23338 -4.33333,-1.20739 l -4.33333,0.0472 3.3166,1.83577 c 3.3602,1.85995 5.35006,1.60866 5.35006,-0.67558 z m 149.40123,-28.65387 c 4.68928,-2.38248 8.5621,-9.90921 7.42659,-14.43343 -1.00205,-3.9925 -9.64279,-14.18506 -11.98296,-14.13504 -2.63119,0.0562 -9.44588,16.16462 -9.47999,22.40851 -0.0501,9.17141 4.32771,11.09264 14.03636,6.15996 z m 93.26505,-8.96247 c -3.36362,-8.99004 -6.66627,-12.49207 -6.66627,-7.06869 0,3.83569 3.00651,10.59922 6.46001,14.53269 3.21796,3.66517 3.29722,0.79734 0.20626,-7.464 z M 332.07035,87.826489 c -0.3874,-2.01666 -1.21184,-3.66666 -1.83209,-3.66666 -0.62026,0 -0.76134,-4.05 -0.31352,-9 l 0.81421,-9.000005 -2.83831,2.516384 c -3.06049,2.713379 -4.95744,9.740641 -3.69848,13.701031 0.80683,2.53805 7.42855,10.27823 8.15854,9.53656 0.2277,-0.23135 0.0971,-2.07064 -0.29035,-4.08731 z m 78.80787,-6.49571 c 6.68331,-5.88289 11.50316,-13.821543 11.40479,-18.784505 -0.0523,-2.639702 -0.95506,-2.070881 -6.66667,4.200813 -3.8634,4.242228 -6.60615,8.515072 -6.60615,10.291492 0,1.97034 -0.61924,2.79993 -1.7625,2.36122 -1.01031,-0.3877 -2.43291,0.79502 -3.33334,2.77125 -2.98756,6.55699 -1.19401,6.34057 6.96387,-0.84027 z"
     style="fill:#000000;stroke-width:1.33333337" />
</svg>
