<?xml version="1.0" encoding="UTF-8" standalone="no"?>
<!-- Created with Inkscape (http://www.inkscape.org/) -->

<svg
   xmlns:dc="http://purl.org/dc/elements/1.1/"
   xmlns:cc="http://creativecommons.org/ns#"
   xmlns:rdf="http://www.w3.org/1999/02/22-rdf-syntax-ns#"
   xmlns:svg="http://www.w3.org/2000/svg"
   xmlns="http://www.w3.org/2000/svg"
   xmlns:sodipodi="http://sodipodi.sourceforge.net/DTD/sodipodi-0.dtd"
   xmlns:inkscape="http://www.inkscape.org/namespaces/inkscape"
   version="1.1"
   id="svg834"
   width="100"
   height="100"
   viewBox="0 0 1300 1300"
   sodipodi:docname="isc.svg"
   inkscape:version="0.92.4 (5da689c313, 2019-01-14)">
  <metadata
     id="metadata840">
    <rdf:RDF>
      <cc:Work
         rdf:about="">
        <dc:format>image/svg+xml</dc:format>
        <dc:type
           rdf:resource="http://purl.org/dc/dcmitype/StillImage" />
        <dc:title></dc:title>
      </cc:Work>
    </rdf:RDF>
  </metadata>
  <defs
     id="defs838" />
  <sodipodi:namedview
     pagecolor="#ffffff"
     bordercolor="#666666"
     borderopacity="1"
     objecttolerance="10"
     gridtolerance="10"
     guidetolerance="10"
     inkscape:pageopacity="0"
     inkscape:pageshadow="2"
     inkscape:window-width="1366"
     inkscape:window-height="686"
     id="namedview836"
     showgrid="false"
     inkscape:zoom="0.30339111"
     inkscape:cx="650"
     inkscape:cy="654.2718"
     inkscape:window-x="0"
     inkscape:window-y="26"
     inkscape:window-maximized="1"
     inkscape:current-layer="svg834" />
  <path
     id="path852"
     style="fill:#000000;stroke-width:1.07229638"
     d="m 222.838,18.474134 -0.71359,13.719079 c -0.39198,7.545495 -1.09656,16.549101 -1.56565,20.008516 -1.84079,13.575166 -10.51749,29.01309 -20.01697,35.61351 -6.95071,4.829479 -31.28779,15.592771 -37.1007,16.407721 -6.55796,0.91941 -17.44346,-1.49367 -23.69838,-5.251843 -5.09594,-3.061818 -9.31812,-6.840451 -20.49011,-18.339236 l -8.31876,-8.560742 -26.854694,31.825711 c -23.187734,27.47815 -26.678648,32.06921 -25.566003,33.6227 18.129807,25.31339 22.064209,32.35385 24.169605,43.2484 2.412562,12.48402 0.972545,22.51201 -6.014512,41.89839 -6.487996,18.00166 -8.601525,22.10133 -14.942994,28.97289 -9.636469,10.44195 -17.428916,13.50947 -38.050876,14.98244 -5.687147,0.40622 -11.115787,0.99519 -12.063645,1.30668 -1.603135,0.52685 -1.7233775,3.69766 -1.7233775,45.4399 0,40.09363 0.1657245,44.87207 1.5541175,44.87207 0.854647,0 6.948019,0.55761 13.540826,1.23828 19.157965,1.97792 25.002408,4.2609 34.877245,13.62558 5.718453,5.42304 9.598183,12.47121 14.200557,25.80309 7.947628,23.02224 8.038524,23.42106 8.062947,35.22584 0.03553,17.16073 -3.010898,24.32501 -20.353555,47.864 l -6.445357,8.74774 5.593285,7.01461 c 3.07689,3.85711 15.182739,18.23458 26.900852,31.95114 l 21.305649,24.93881 10.69994,-10.70207 c 12.96815,-12.97063 18.59135,-16.9333 27.51635,-19.39508 8.39905,-2.31669 16.74449,-1.48414 25.05437,2.49935 15.12212,7.24908 17.57043,8.48727 22.77321,11.51847 10.77426,6.27724 19.9464,20.9145 22.3539,35.6728 0.57615,3.53194 1.3109,11.1504 1.63298,16.92993 0.32207,5.77953 0.82455,12.46891 1.11558,14.86614 l 0.52894,4.36019 24.78125,0.31014 c 13.63018,0.17148 25.11553,0.15045 25.52176,-0.0479 0.40622,-0.19844 0.73859,-46.0406 0.73859,-101.87147 0,-80.41108 -0.25587,-101.51929 -1.23098,-101.54766 -10.5795,-0.30736 -26.49933,-2.60099 -32.34026,-4.66121 -26.5931,-9.37995 -46.95704,-34.60743 -53.70169,-66.52477 -2.49233,-11.79442 -2.44361,-33.67959 0.0981,-44.3681 3.94508,-16.58943 9.66013,-28.44981 19.60535,-40.67835 15.00129,-18.44546 31.27534,-26.79632 54.76725,-28.10633 l 12.30985,-0.68641 0.25196,-101.87148 0.25005,-101.871474 H 247.3442 Z m 23.53295,28.021952 c 1.76904,0 1.83497,2.620134 1.83493,74.462954 v 74.46069 l -8.61689,2.08887 c -39.2761,9.51927 -70.25657,45.99874 -78.55794,92.50118 -2.07584,11.62859 -2.10228,36.46435 -0.05,47.87768 3.32832,18.50826 8.88751,33.26032 18.02623,47.83663 15.17704,24.20745 37.12788,40.53594 62.3051,46.34752 l 6.40112,1.47771 0.2539,75.01711 0.25197,75.0171 h -2.90052 c -2.72039,0 -2.93978,-0.34574 -3.50253,-5.54601 -2.89961,-26.7944 -13.78646,-48.36385 -30.73421,-60.88982 -5.18158,-3.82967 -21.008,-12.05652 -32.89228,-17.09869 -20.43786,-8.67119 -44.00261,-4.36381 -61.65692,11.27219 -2.82033,2.4979 -5.51956,4.54261 -5.99721,4.54261 -0.92704,0 -22.850145,-25.19164 -22.850145,-26.2569 0,-0.34769 2.220261,-4.2556 4.935478,-8.68161 9.242397,-15.06579 13.079187,-28.84075 13.031127,-46.79219 -0.0373,-13.92808 -1.0126,-18.82894 -7.784057,-39.11397 C 90.765885,373.74326 87.183984,366.22806 79.955329,357.44217 69.08564,344.23089 56.014502,336.23664 40.935053,333.57744 l -7.412833,-1.30669 v -19.10089 c 0,-21.65908 -1.025701,-19.34331 9.25931,-20.93209 12.094124,-1.86824 24.894697,-9.23743 35.194607,-20.25937 7.691249,-8.23038 12.142568,-16.34469 18.330125,-33.41517 7.831208,-21.60501 8.865758,-25.20265 10.190248,-35.46072 2.42808,-18.80537 -2.27991,-41.21822 -11.965558,-56.96977 -2.682128,-4.36188 -4.875852,-8.24636 -4.875852,-8.63144 0,-0.50481 16.92941,-20.84728 22.13849,-26.60124 0.19706,-0.21766 2.79907,1.7432 5.78178,4.35563 12.84653,11.25185 26.01039,16.47384 41.52648,16.47384 5.48072,0 12.35789,-0.75705 15.39306,-1.69436 6.19148,-1.912 28.16293,-12.11225 35.21385,-16.34842 17.48846,-10.50704 32.14435,-36.113897 34.18482,-59.726807 0.53808,-6.226863 0.94759,-7.463857 2.47735,-7.463857 z m 179.68138,79.395534 c -0.61789,0 -4.63712,4.19075 -8.93233,9.31328 l -7.81098,9.3133 8.39186,10.24369 c 21.51924,26.27029 37.53096,59.4537 46.06958,95.47715 11.92188,50.29696 9.85756,102.43556 -5.92989,149.78337 -2.50903,7.52477 -4.49528,12.51135 -11.25388,28.2728 -5.73692,13.3788 -22.00423,38.74028 -32.36719,50.45913 l -4.94895,5.59618 8.32069,9.91531 8.32069,9.91761 6.28955,-7.2951 c 3.45951,-4.01201 9.4842,-12.02381 13.38888,-17.80334 26.11797,-38.65861 41.92682,-82.25924 47.35635,-130.61405 2.25772,-20.10701 1.57402,-60.70364 -1.331,-79.08312 -6.78273,-42.91204 -21.11729,-81.32063 -42.71901,-114.45946 -8.09096,-12.41222 -21.17003,-29.03675 -22.84437,-29.03675 z m -41.01485,51.37358 c -0.33159,0 -4.23832,4.07194 -8.68229,9.04876 l -8.08026,9.04875 4.06033,5.25412 c 16.56072,21.42318 25.89928,39.46083 32.33642,62.46561 5.35152,19.12503 6.51651,28.31058 6.51651,51.37358 0,23.66692 -1.18128,32.54921 -7.06276,53.12495 -6.54358,22.89195 -16.41775,42.14315 -30.58419,59.62647 l -5.26823,6.50151 7.89368,8.96894 c 4.34201,4.93283 8.31681,8.96894 8.83231,8.96894 0.51552,0 3.35825,-3.02111 6.3165,-6.71359 27.2291,-33.98722 41.55861,-74.36962 43.60568,-122.88794 1.83442,-43.47772 -10.77863,-90.32755 -33.477,-124.34742 -4.44535,-6.6626 -15.50242,-20.43268 -16.4067,-20.43268 z m 264.96358,38.21777 v 0.002 0.005 c -15.86502,0.018 -26.60955,1.94225 -40.86868,7.31564 -40.99,15.44656 -76.23819,53.7028 -98.96344,107.41292 -11.11854,26.27811 -17.88106,50.66218 -22.20388,80.0523 -1.38017,9.38361 -4.35494,42.03222 -4.38152,48.08976 l -0.0115,2.62706 h 19.69575 19.69575 v 2.62706 c -9.9e-4,1.84013 -1.32308,3.6167 -4.41039,5.92913 -12.32481,9.23165 -18.32568,29.38549 -13.64469,45.82073 3.20509,11.25319 8.77595,18.7636 18.5667,25.02773 4.37207,2.79728 4.69777,3.37038 7.3109,12.8434 7.42667,26.92211 20.62453,51.88481 36.57946,69.18833 l 7.52439,8.15938 -1.41755,5.39778 c -0.77996,2.96872 -3.75939,14.8552 -6.62039,26.41425 -4.21036,17.01086 -5.55679,21.08548 -7.06469,21.37678 -4.96766,0.95964 -67.29788,16.65804 -70.29882,17.70528 -1.89217,0.66029 -3.54906,1.1995 -3.68141,1.1995 -0.13561,0 -0.1362,-11.82141 -0.01,-26.27058 0.12871,-14.44917 0.0131,-26.27948 -0.25774,-26.28882 -0.73061,-0.0265 -464.11939,-0.03 -465.558223,-0.005 -0.979854,0.018 -1.230985,40.27753 -1.230985,197.34406 V 1044.7783 H 191.06898 363.38754 l 0.46355,2.627 c 0.25463,1.4449 1.17383,7.8812 2.04265,14.3029 8.04175,59.4386 34.43119,122.9495 69.12747,166.3644 5.60982,7.0195 8.36359,11.5727 10.21717,16.898 3.60958,10.3704 6.21241,14.9469 12.04248,21.1739 0.2655,0.2836 0.53171,0.5507 0.79822,0.8209 1.48976,0.047 3.3564,0.6633 4.70851,0.5016 1.75297,0.2128 3.56769,0.05 5.25861,0.6385 2.24124,0.7795 4.45462,1.6952 6.62616,2.7275 1.881,-0.6367 3.85822,-1.0511 5.67214,-1.2724 2.38933,-0.8567 4.42118,-1.1467 5.26823,-0.2235 1.90796,0.018 3.82477,0.2474 5.22976,1.5985 0.77247,0.7429 1.73806,1.6763 2.80049,2.7159 3.88433,0.028 6.81468,0.3946 10.0883,1.8769 0.14303,0.033 0.25364,0.064 0.39815,0.098 1.38786,-0.063 3.5782,-0.029 4.68351,-0.041 10.38696,2.5708 8.21735,1.4993 12.04633,3.5301 0.0234,0.012 0.0478,0.013 0.0712,0.021 0.24929,0.085 0.65932,0.2976 1.05019,0.5085 0.24648,0.012 0.48084,0.012 0.6405,-0.012 2.79986,0.5284 4.72274,0.8414 6.28956,1.0832 1.15816,-0.2083 2.32545,-0.3548 3.49676,-0.4743 0.0881,-0.037 0.17428,-0.081 0.26351,-0.1144 5.79626,-2.1997 10.26464,-2.7318 15.87585,-2.586 2.78819,-0.062 5.68327,-0.352 8.46109,-0.026 0.29753,0.035 0.59222,0.1004 0.88862,0.1459 3.10389,-1.296 5.16783,-2.1629 8.71306,-2.0502 h 4.26421 13.41195 7.89562 8.27451 7.53209 7.11855 4.54311 9.37855 7.92831 5.14129 1.17712 c 0.45513,0 1.34818,-0.5391 1.36563,0 0.0125,0.3876 0.0208,1.3919 0.0327,1.8815 -0.003,-0.7854 -0.005,-1.0769 -0.008,-1.8815 -2.2e-4,-0.064 0.10896,0 0.16349,0 h 0.0808 c 0.035,-4.6626 0.0651,-7.0332 0.0827,-6.3942 0.0158,0.5739 0.024,2.9228 0.025,6.3942 h 0.84245 6.90313 7.53401 6.15299 12.78493 11.9367 7.88984 10.19986 9.56128 7.77251 9.61899 8.94772 c 1.5574,0 3.05136,-8e-4 4.36806,0 2.79616,0 5.59186,10e-4 8.38801,-0.012 2.2605,0.023 4.84195,-0.183 0.47508,0.5199 0.74097,0.079 1.48129,0.1782 2.22154,0.2737 3.34496,-1.7987 6.81191,-2.9012 10.42682,-2.846 -0.003,0.1215 0.23843,0.3325 0.83092,0.6659 -5.83955,1.5387 -4.88583,1.0102 -5.82986,1.9201 0.50828,0 1.01238,0.015 1.51564,0.036 2.17577,-0.8079 4.36512,-1.5647 6.56269,-2.2851 -0.12095,-0.026 -0.24024,-0.057 -0.3616,-0.079 0.0138,0 0.0255,-0.012 0.0404,-0.012 -0.14798,-0.032 -0.30292,-0.07 -0.44431,-0.098 1.69391,-0.5707 5.23652,-1.6884 12.30407,-3.863 0.43569,-0.1342 0.90619,0.056 1.35024,0 h 5.28169 2.92167 5.00856 11.66551 c 4.19494,0 7.99708,0.4685 11.40967,1.3181 2.66774,-0.8409 4.74677,-1.333 7.67827,-1.3591 -0.0277,-0.1789 -0.0529,-0.3595 -0.0808,-0.5383 -0.12924,-0.8273 1.28033,-0.727 1.9311,-1.0626 0.4614,-0.2378 0.90099,-0.662 1.4041,-0.6567 0.17316,0 0.34616,0.012 0.51932,0.014 -0.52727,0.2562 -1.03879,0.4801 -1.49642,0.5792 -0.0107,0.019 -0.022,0.036 -0.0327,0.055 0.58158,-0.1943 1.16008,-0.4065 1.73684,-0.6271 -0.0635,0 -0.12692,-0.012 -0.19042,-0.012 1.88993,-0.921 4.05125,-2.449 5.33939,-2.0114 -1.71384,0.6342 -3.41746,1.3618 -5.13743,2.0205 1.9294,0.033 3.85767,0.1144 5.78563,0.2144 0.16967,-0.1659 0.33857,-0.3364 0.50777,-0.5063 -0.0948,-0.2682 -0.1877,-0.5373 -0.28851,-0.8027 -0.19586,-0.516 -0.4936,-0.7989 -0.86169,-0.9259 1.26033,-0.4661 2.52746,-0.873 3.81028,-1.147 0.20558,-0.2354 0.41201,-0.4467 0.61742,-0.6887 5.54662,-6.532 11.28274,-17.8422 11.28274,-22.2479 0,-0.9601 3.21855,-5.8254 7.15317,-10.8138 37.46968,-47.5037 62.86121,-107.8081 71.13166,-168.9368 0.86877,-6.4217 1.78799,-12.858 2.04266,-14.3029 l 0.46162,-2.627 h 176.75215 176.7501 V 847.44688 650.12562 l -83.4607,-0.0935 c -45.9034,-0.0518 -150.8202,-0.0229 -233.14857,0.0684 l -149.68768,0.16647 -0.26543,26.78368 c -0.14565,14.75479 -0.65863,26.7814 -1.14443,26.7814 -2.05584,0 -81.43715,-19.96409 -82.69521,-20.79755 -1.50555,-0.99737 -1.69555,-1.66909 -9.01311,-31.8736 l -4.98165,-20.56267 6.56461,-7.45929 c 7.4122,-8.42127 16.4973,-21.4252 21.81535,-31.22368 5.1784,-9.54115 12.47514,-28.36171 15.57003,-40.16069 1.94938,-7.43192 3.12255,-10.21634 4.30459,-10.21634 3.53864,0 13.67029,-9.5741 17.29726,-16.34614 9.88776,-18.4614 5.6581,-43.57264 -9.29009,-55.16138 -3.45838,-2.68115 -4.9092,-4.57622 -4.92201,-6.42854 l -0.0173,-2.62706 h 19.69575 19.69575 l -0.0115,-2.62706 c -0.025,-5.67044 -2.99171,-38.22465 -4.38922,-48.16273 -1.40529,-9.99345 -5.92679,-30.80662 -10.27295,-47.28705 -2.63244,-9.98205 -5.93567,-20.70121 -5.97604,-19.39735 -0.0176,0.56937 -2.65719,-5.28994 -5.86641,-13.02128 -9.75245,-23.48911 -21.80673,-43.54371 -37.05626,-61.64369 -29.95654,-35.55611 -64.34986,-53.39679 -102.85642,-53.353 z M 773.79959,1273.7975 c 0.12098,0.026 0.23921,0.05 0.36354,0.077 0.66031,-0.2163 1.319,-0.4396 1.98111,-0.6477 -1.04515,0.2646 -1.60538,0.3904 -2.34465,0.5701 z m 0.36354,0.077 c -0.0141,0 -0.0283,0.012 -0.0423,0.014 1.75879,0.3595 3.47328,0.9985 5.22784,1.3934 1.34889,0.3034 -2.29641,-0.7649 -5.18552,-1.4071 z m -6.60501,2.2987 c -0.73897,0.2744 -1.47376,0.5618 -2.21,0.846 2.25295,0.2903 4.50833,0.5297 6.77234,0.5656 1.29632,0.02 -3.12314,-1.3434 -4.11225,-1.4003 -0.14882,-0.012 -0.30063,7e-4 -0.45009,-0.012 z m -2.21,0.846 c -0.10326,-0.013 -0.20642,-0.028 -0.30967,-0.041 -0.12098,0.094 -0.31163,0.2307 -0.45777,0.3397 0.25575,-0.1004 0.51136,-0.1999 0.76744,-0.2986 z m -0.30967,-0.041 c 0.46381,-0.3628 0.80182,-0.6467 1.00402,-0.8415 -1.37528,0.015 -2.76097,0.1476 -4.12571,0.4218 1.04047,0.1411 2.08101,0.2835 3.12169,0.4197 z m -243.05783,2.6658 c -0.0412,0 -0.0753,-5e-4 -0.11733,0 0.19565,0.1027 0.26343,0.1382 0.48471,0.2531 0.0239,0 0.0475,0 0.0712,-0.012 -0.16088,-0.093 -0.23158,-0.1323 -0.43854,-0.244 z m 0.43854,0.244 c 0.33535,0.1942 0.64365,0.3791 0.38083,0.244 -0.23078,-0.1186 -0.24549,-0.13 -0.45199,-0.2371 -0.62495,0.076 -1.30992,0.4406 -1.77532,0.012 -0.3926,-0.3658 0.50758,-0.2929 1.29061,-0.2599 -0.40557,-0.2124 -0.69323,-0.362 -1.00402,-0.5269 -1.39062,-0.474 -2.80959,-0.844 -4.2392,-1.1082 -0.37464,-0.069 -0.78438,-0.053 -1.12904,-0.028 2.04206,1.1053 4.07391,2.2382 6.10683,3.3682 0.13076,-0.012 0.26165,0 0.39238,-0.014 1.2647,-0.027 2.5052,-0.012 3.74103,0.055 -0.91294,-0.486 -1.82729,-0.9683 -2.7524,-1.4208 -0.17327,-0.085 -0.36341,-0.097 -0.55971,-0.079 z m -179.1813,-1051.1742 -8.23605,9.19699 -8.23797,9.19698 6.50113,9.54589 c 10.64175,15.62704 15.54487,29.45796 17.34534,48.92668 2.34924,25.40257 -5.14021,51.88626 -20.13621,71.20194 l -3.968,5.11045 8.36492,9.16278 c 4.60136,5.03933 8.62604,9.04295 8.94387,8.89824 1.274,-0.58004 9.8883,-12.86694 13.76587,-19.63679 5.55832,-9.70429 11.37447,-24.70407 13.86588,-35.7549 2.9445,-13.06059 3.62741,-38.63052 1.38293,-51.76354 -3.95692,-23.15298 -12.04037,-42.22479 -24.44273,-57.66985 z m 307.17288,14.61553 c 8.05165,0.0914 16.16756,0.76927 20.99213,1.99538 8.70828,2.21311 21.71291,7.11433 23.03479,8.6816 0.72451,0.859 -6.72005,37.0899 -20.90749,101.75747 -2.73003,12.44365 -4.59807,22.99845 -4.15265,23.45424 0.87449,0.89462 21.15508,7.25505 21.55953,6.76148 0.13443,-0.16409 5.87068,-26.3066 12.74646,-58.09402 6.87579,-31.78737 12.66866,-58.00454 12.8734,-58.26048 0.88975,-1.11218 9.51759,7.22331 19.21489,18.56271 23.84151,27.87867 38.37069,59.06641 49.49711,106.24991 1.77725,7.53703 5.55481,31.89273 5.55481,35.81648 l 0.002,2.71371 H 650.0011 509.1765 v -2.62706 c 0.005,-3.7582 2.7596,-21.91164 5.09128,-33.55428 8.11868,-40.53823 25.03632,-78.53474 46.9832,-105.52245 6.56085,-8.06788 20.23507,-21.75759 21.73264,-21.75761 0.44306,0 1.01306,1.1822 1.26753,2.62706 0.92639,5.26045 24.44938,113.37841 24.7524,113.7685 0.36398,0.46871 20.84818,-5.84599 21.62301,-6.66571 0.44926,-0.47536 -1.40757,-11.04018 -4.12765,-23.47933 -6.04059,-27.62364 -14.77213,-67.98395 -18.76289,-86.72713 -1.62824,-7.6472 -2.75185,-14.30576 -2.49659,-14.79544 0.63982,-1.22744 17.36315,-7.61253 24.5716,-9.3817 4.56173,-1.11959 12.54811,-1.61471 20.59975,-1.52333 z m -390.07389,12.45572 c -12.19829,-0.20733 -24.79252,5.14512 -35.32925,17.70072 -10.24646,12.20966 -14.53243,24.53882 -14.44675,41.55632 0.13672,27.14573 15.41303,50.23895 37.42,56.56385 17.08381,4.90997 33.98181,-0.78764 46.51004,-15.68253 7.41156,-8.81165 11.16052,-16.43948 13.25424,-26.97068 8.15165,-41.00194 -18.5176,-72.67663 -47.40828,-73.16768 z m -0.22697,27.82584 c 13.51841,0.38425 26.52956,13.22381 25.29673,33.65234 -0.72676,12.04281 -5.49802,20.12556 -14.96415,25.35157 -12.4187,6.85605 -27.37308,0.67046 -33.81936,-13.99045 -3.87422,-8.81122 -3.79097,-19.96511 0.21349,-28.55557 5.17074,-11.09241 13.57937,-16.19277 21.96346,-16.4556 0.43666,-0.0137 0.87379,-0.0147 1.30983,-0.002 z m 286.36156,177.37887 h 16.31054 16.31246 v 10.50823 10.50824 l -5.66253,-0.0297 c -5.0365,-0.026 -6.80586,-0.77904 -16.00279,-6.81849 -9.43584,-6.19631 -10.36829,-7.11248 -10.64994,-10.47859 z m 56.29829,0 h 47.2294 47.22941 l 0.26735,24.22732 0.26543,24.22731 20.18814,0.20525 20.18814,0.20295 14.07553,-9.26539 c 15.10822,-9.94708 15.92545,-10.12139 19.26684,-4.07514 2.08302,3.76972 2.06017,9.34612 -0.0557,13.59366 -1.78818,3.58903 -7.48741,6.91789 -11.88862,6.94392 -5.38846,0.032 -6.90166,1.15781 -7.58018,5.63723 -0.3558,2.34903 -1.92314,9.55823 -3.48137,16.02003 -11.78731,48.88089 -43.64728,86.08819 -80.89105,94.46465 -9.71306,2.18449 -26.44103,2.14119 -35.99859,-0.0912 -10.12509,-2.36527 -24.62216,-9.72878 -34.22906,-17.38603 -14.04947,-11.19829 -29.74661,-32.6292 -37.87008,-51.70424 -3.44346,-8.08602 -7.7365,-22.74336 -9.9825,-34.08562 -2.28796,-11.55449 -2.72493,-12.13829 -9.92097,-13.24931 -6.17008,-0.95261 -9.09208,-2.70524 -11.04039,-6.61554 -2.38102,-4.77906 -2.0604,-10.23155 0.87131,-14.78859 1.38156,-2.14767 2.91417,-3.90409 3.40636,-3.90412 0.4923,0 7.32037,4.215 15.17188,9.36575 l 14.27557,9.36345 19.98426,-0.3147 19.98618,-0.31698 0.26544,-24.22732 z m 118.13409,0 h 16.24899 16.24899 v 3.37048 c 0,2.92191 -0.88335,3.98797 -6.64731,8.02485 -3.65603,2.56054 -8.51381,5.77208 -10.79419,7.13775 -2.74165,1.64195 -5.9941,2.4834 -9.60168,2.48339 h -5.4548 v -10.50824 z m -15.84315,185.63862 2.09844,8.46724 c 1.15329,4.65783 3.8855,15.54737 6.07222,24.19767 4.44651,17.59035 4.58839,23.83512 0.87515,38.24741 -6.39481,24.82058 -26.03587,46.89598 -47.43136,53.30966 -11.89199,3.56487 -26.31332,3.15061 -36.86413,-1.06039 -16.83967,-6.72093 -32.3119,-22.40771 -39.75502,-40.30893 -4.03113,-9.69507 -6.97159,-22.3634 -7.00507,-30.17468 -0.0138,-3.19055 3.42964,-18.45622 11.39815,-50.5321 0.43025,-1.73192 1.16157,-1.58722 6.5973,1.30212 17.44827,9.27472 29.97681,12.34435 49.93757,12.24137 12.04414,-0.0621 17.13382,-0.60711 24.12729,-2.58829 8.5772,-2.42989 21.08159,-7.66489 27.04703,-11.32236 z m -662.675344,30.35939 210.005904,0.29417 210.00591,0.29417 0.10386,14.01098 c 0.0577,7.70605 -0.099,14.66774 -0.35006,15.47045 -0.25108,0.80272 -1.51275,1.45948 -2.80241,1.45948 -8.19134,0 -35.58427,13.89192 -48.98163,24.84076 -16.3703,13.37847 -32.8485,36.37559 -41.01293,57.23657 -3.81017,9.73541 -8.88233,26.61517 -8.88233,29.55897 0,1.33277 -4.00123,1.6191 -22.65972,1.6191 h -22.65973 l 0.25582,58.47029 0.25581,58.4703 20.18814,-0.0958 c 11.10348,-0.0533 20.68208,0.29971 21.28641,0.78448 0.86632,0.69493 4.39819,62.16191 4.32768,75.31351 -0.0104,1.9375 -8.26725,2.0434 -159.54517,2.0434 H 42.385326 V 846.87091 Z m 804.517424,0.005 h 209.78675 209.7866 V 846.87587 1016.759 H 1102.4264 938.37642 l 0.62703,-17.22186 c 0.86848,-23.83878 0.44905,-22.47595 6.94352,-22.47595 h 5.39709 v -14.01097 -14.01098 h -4.92393 c -4.4541,0 -4.92327,-0.25072 -4.91047,-2.62706 0.0315,-5.79931 2.02509,-43.38027 2.31964,-43.72957 0.17377,-0.20598 55.38165,-0.37433 122.683,-0.37398 h 122.3657 l -0.6867,-16.04056 c -1.358,-31.72771 -7.231,-55.87395 -19.2687,-79.21311 -38.9492,-75.51614 -122.4272,-97.61827 -184.62086,-48.88107 -15.69682,12.30059 -29.2866,28.86962 -39.09144,47.6656 l -6.00104,11.50706 -3.61217,-12.09085 c -4.41727,-14.78368 -7.03367,-20.93546 -14.6314,-34.4026 -14.49932,-25.70038 -38.35411,-46.75429 -65.20178,-57.549 l -8.31491,-3.34539 -0.27313,-16.48297 z m -287.15592,35.37396 c 0.1685,-0.009 0.27063,-0.004 0.29429,0.0251 0.21448,0.25436 1.28936,4.31285 2.38887,9.01683 5.53766,23.69293 17.14488,43.86096 33.62126,58.41784 14.95803,13.21539 30.48394,19.74774 49.02394,20.62652 22.72948,1.07735 38.38138,-4.1407 57.10229,-19.03249 16.24377,-12.92136 30.39668,-36.98983 35.35233,-60.12589 0.95101,-4.44022 1.99485,-8.39004 2.31963,-8.7751 0.48491,-0.57495 20.18544,3.92716 21.26526,4.8596 0.18021,0.15555 -0.81205,9.91559 -2.20424,21.68919 -5.509,46.59016 -11.59381,98.98879 -12.62143,108.68313 l -1.08288,10.21634 H 650.04722 554.8883 l -2.13884,-18.38941 c -10.55348,-90.68816 -14.09949,-122.02563 -13.84089,-122.3133 0.56946,-0.63369 18.31076,-4.75514 20.83826,-4.89836 z m -45.03671,11.27673 c 0.60732,0.0288 1.39855,2.81088 1.758,6.18225 0.85666,8.0359 6.81337,59.31654 10.40951,89.61188 1.56266,13.16448 3.15121,27.21924 3.52946,31.2328 l 0.69051,7.29738 h -23.76377 -23.76184 v -3.89269 c 0,-4.05848 -2.85369,-52.59924 -5.40094,-91.84898 -0.81265,-12.52231 -1.48488,-24.34494 -1.48488,-26.27286 l -0.01,-3.50502 18.46476,-4.4286 c 10.15562,-2.4356 18.96159,-4.405 19.56881,-4.37616 z m 270.03947,0.0297 c 2.7079,-0.18425 36.92841,8.23364 37.95855,9.39082 0.49506,0.55608 0.17721,12.1097 -0.74436,27.03453 -3.40766,55.18518 -5.49101,89.28395 -5.71061,93.49088 l -0.22889,4.37843 h -23.5695 -23.57142 l 0.57125,-6.1298 c 0.31494,-3.37139 2.61036,-23.46837 5.10089,-44.65999 2.49062,-21.19159 5.66525,-48.51298 7.05508,-60.71423 1.38983,-12.20123 2.72976,-22.43685 2.97744,-22.74502 0.0196,-0.0244 0.0743,-0.0397 0.16157,-0.0457 z m -706.911919,8.19587 v 103.32184 103.31956 l 52.932319,0.30329 c 29.11278,0.16617 54.04021,0.24249 55.39429,0.17104 l 2.46197,-0.12999 0.25196,-103.49286 0.25005,-103.49288 h -55.64433 z m 374.707749,7.52544 c 0.17452,-0.008 0.29446,0.0184 0.35198,0.0866 0.22518,0.26698 2.12699,27.95677 4.22575,61.53063 2.95072,47.20303 3.8093,67.49501 3.78911,89.50013 -0.0144,15.65145 -0.23484,28.85864 -0.49046,29.34916 -0.25571,0.49054 -2.00356,1.23292 -3.88337,1.65103 -1.87981,0.41811 -6.92851,2.84473 -11.21927,5.39095 -10.16001,6.02917 -19.65994,17.61781 -24.38888,29.7528 -4.07082,10.44617 -5.25674,16.44132 -5.28746,26.72211 -0.0132,4.43734 4.87695,51.63642 10.86536,104.88622 5.98839,53.2497 10.72323,97.3988 10.52299,98.111 -0.81439,2.8967 -16.43461,-25.9643 -24.98705,-46.1673 -14.30871,-33.8008 -22.82214,-69.0181 -25.88914,-107.1028 -0.59472,-7.385 -1.75003,-28.6641 -2.56776,-47.28706 -0.81773,-18.62293 -2.32861,-52.51197 -3.35828,-75.30901 -1.97739,-43.77945 -1.70995,-58.61111 1.37139,-75.89279 6.44625,-36.15363 21.55619,-62.80596 46.16191,-81.42512 7.06756,-5.34802 22.16525,-13.67562 24.78318,-13.79661 z m 395.92107,0.69325 c 1.37676,-0.1059 3.59062,1.11612 7.27242,2.90299 23.54725,11.42797 42.1461,31.81839 53.11889,58.23312 6.84546,16.47907 10.26803,32.10212 11.92131,54.42252 0.67231,9.07568 0.413,23.12899 -1.00017,54.27885 -1.0488,23.11811 -2.57356,57.53258 -3.38906,76.47658 -0.8155,18.94402 -1.93747,39.96052 -2.49466,46.70332 -3.95481,47.859 -16.46571,91.4008 -38.07588,132.5205 -8.19323,15.59 -13.10614,23.1707 -13.10614,20.2229 0,-2.2765 12.7314,-116.4212 19.67267,-176.3779 3.20499,-27.68303 2.3848,-39.82674 -3.63717,-53.92535 -4.57158,-10.70318 -12.79969,-21.67873 -19.48226,-25.98325 -8.55455,-5.51029 -12.20506,-7.34346 -16.00279,-8.04079 -3.87366,-0.71126 -4.19137,-1.04161 -4.26228,-4.43089 -0.54035,-25.69141 0.50548,-60.64711 3.04092,-101.57274 1.63681,-26.42025 3.25688,-53.55414 3.5987,-60.29692 0.56213,-11.0909 0.53088,-14.95638 2.8255,-15.13294 z m -682.98275,19.77134 v 75.90876 75.90875 h -32.00559 -32.00557 v -74.72521 c 0,-41.09887 -0.11079,-75.11926 -0.2462,-75.6009 -0.13541,-0.48163 14.26714,-1.01423 32.00558,-1.18354 z m 891.02296,0.2805 c 1.5413,0.007 3.0895,0.0528 4.6412,0.13911 23.849,1.32665 43.3061,9.83574 62.1859,27.19871 9.5415,8.77495 16.3319,17.50874 23.5079,30.23398 8.0986,14.36125 14.8451,34.89653 16.7761,51.05659 l 0.6635,5.54601 h -26.6219 -26.6239 l -0.6694,-3.79464 c -0.3681,-2.08705 -2.2003,-7.39822 -4.0718,-11.80351 -3.9204,-9.2288 -4.7398,-6.74439 7.1628,-21.70972 10.7531,-13.52014 17.5843,-22.41985 17.8666,-23.27865 0.1406,-0.428 -3.5183,-4.87441 -8.1303,-9.87884 l -8.3861,-9.09892 -9.6267,12.05209 c -5.2952,6.62846 -11.8307,14.83971 -14.5236,18.24802 l -4.8971,6.19821 -5.5817,-3.03069 c -30.5935,-16.60595 -67.2036,3.02869 -76.7,41.13443 l -1.2367,4.96222 h -26.4951 -26.49308 l 0.67896,-5.54601 c 0.37373,-3.05028 1.75453,-10.01197 3.06785,-15.47045 13.36398,-55.54539 55.72757,-93.35997 103.50657,-93.15794 z m -748.21725,2.06835 -55.89245,0.30101 -55.89245,0.30102 -0.25581,86.98481 c -0.14007,47.84166 -0.0853,87.51027 0.12118,88.1524 0.2452,0.76278 19.62499,1.09341 55.89629,0.9555 l 55.51931,-0.20979 0.25197,-88.24362 z m -88.6424,28.04019 h 32.49798 32.49799 v 60.71424 60.71423 h -31.8421 c -17.51281,0 -32.1369,-0.3495 -32.49798,-0.77762 -0.36109,-0.42811 -0.65589,-27.74951 -0.65589,-60.71424 z m 119.15927,59.54665 h 8.48033 8.47841 l -0.24428,18.38941 c -0.13493,10.11419 0.10169,24.0376 0.52509,30.94091 l 0.76937,12.5515 h -9.00542 -9.0035 v -30.94091 z m 718.36408,0.0708 c 6.7594,0.0915 13.4629,2.79657 19.1244,8.10237 4.1843,3.92142 9.9652,12.9554 9.9652,15.57309 0,0.42521 -13.2946,0.77308 -29.5436,0.77305 -16.249,0 -29.5437,-0.42308 -29.5437,-0.93953 0,-2.64574 6.3841,-12.29907 10.5346,-15.92882 5.8881,-5.14938 12.7035,-7.67171 19.4631,-7.58016 z m -571.80387,36.12392 h 164.65568 164.65568 l -0.54432,3.79464 c -0.29947,2.08706 -0.84318,9.38084 -1.20598,16.20932 l -0.65781,12.41695 -5.55289,0.73887 c -7.3283,0.97608 -318.11499,0.69134 -318.61526,-0.2919 -0.21261,-0.41788 -0.67579,-6.0135 -1.02902,-12.43521 -0.35316,-6.4217 -0.88031,-13.64611 -1.17329,-16.05424 z m -22.02691,61.29802 h 186.65759 186.65952 l 6.60116,3.85394 c 7.1855,4.19373 12.11467,10.24594 15.45654,18.98004 2.253,5.88838 2.65373,17.21205 1.06172,30.06753 -0.53218,4.2971 -6.54421,57.7269 -13.36002,118.733 -6.81581,61.0062 -12.82523,112.9002 -13.35426,115.3192 -0.5826,2.6639 -2.72474,6.4871 -5.43172,9.6965 -3.84628,4.5603 -4.68978,5.0854 -6.0549,3.774 -1.05441,-1.0128 -1.3484,-1.0543 -0.87708,-0.1231 0.4147,0.8193 -0.0932,1.91 -1.22329,2.627 -1.32897,0.8432 -54.3121,1.2129 -169.65847,1.1814 -183.5022,-0.05 -171.05578,0.4226 -177.41368,-6.7319 -5.77193,-6.4952 -4.854,-0.7571 -15.89893,-99.4725 -3.55659,-31.7874 -7.33406,-65.4138 -8.39377,-74.7252 -8.20621,-72.1062 -9.01356,-80.42433 -8.61881,-88.73626 0.672,-14.14951 6.35701,-24.23302 17.24724,-30.58971 z m 638.94818,1.68981 0.2885,13.74872 c 0.159,7.56259 0.3204,13.89617 0.3578,14.07483 0.037,0.17867 6.1606,0.17867 13.6081,0 l 13.5408,-0.32382 v -13.42719 -13.42719 l -13.8985,-0.32381 z m -59.3585,0.0615 v 14.01097 14.01098 h 13.7871 13.787 V 963.04977 949.0388 h -13.787 z m 119.1593,0 v 14.01097 14.01098 h 13.787 13.7871 V 963.04977 949.0388 h -13.7871 z m -178.39273,0.58379 0.0365,13.13529 c 0.0197,7.22441 0.0534,13.41181 0.0731,13.75101 0.0201,0.33919 6.12996,0.47056 13.57741,0.2919 l 13.54092,-0.32383 v -13.42719 -13.42718 h -13.61399 z m -449.54389,3.3226 c -0.14928,-0.0269 -0.25128,0.39955 -0.28082,1.24967 -0.0428,1.23082 0.19015,1.92043 0.5174,1.53245 0.32724,-0.38797 0.36309,-1.39427 0.0789,-2.23711 -0.11788,-0.34928 -0.22588,-0.52895 -0.31544,-0.54501 z m -48.12571,317.21731 c 0.3974,1.2102 0.74627,2.3001 1.12327,3.4594 0.0366,0 0.13443,0 0.16733,0 0.10149,-0.095 0.75821,-0.019 1.35409,0.069 0.0484,3e-4 0.0679,0 0.10194,0 1.21985,-0.022 0.64388,-0.013 2.04459,-0.023 -0.77331,-1.1692 -1.57023,-2.2853 -2.41773,-3.2884 -0.83934,-0.1027 -1.61929,-0.1697 -2.37349,-0.2189 z m -6.555,1.8676 c 0.26289,0.083 0.52584,0.1692 0.78861,0.2555 0.31454,0.021 0.70038,0.079 1.05403,0.1168 -0.002,-9e-4 -0.008,0 -0.01,0 -0.67867,-0.1564 -1.27258,-0.2709 -1.83302,-0.3673 z m 1.84264,0.3718 c 0.64538,0.2435 2.56576,0.8495 1.9061,0.7228 -0.99645,-0.1912 -1.97775,-0.5167 -2.96013,-0.8391 -0.70998,-0.047 -1.30027,-0.055 -1.64837,-0.028 -0.19507,0.016 -0.38699,0.061 -0.58088,0.086 0.74554,0.3204 1.49191,0.6257 2.24463,0.8688 0.13891,0.1299 0.29314,0.2425 0.43662,0.3672 2.18391,-0.064 4.31858,-0.02 5.66637,0.02 -1.27839,-0.6521 -3.31013,-1.0172 -5.06434,-1.1994 z m 289.91024,1.0353 c 0.34706,-0.053 1.15446,0.069 2.1273,0.2646 -0.0342,0.012 -0.0696,0.024 -0.10195,0.034 0.15599,0.023 0.31086,0.036 0.46739,0.064 0.0109,0 0.0219,0.012 0.0327,0.012 -1.43125,0.3468 -2.13143,0.4789 -0.50009,-0.072 -0.74098,-0.1097 -1.47738,-0.1756 -2.20615,-0.1869 0.005,-0.057 0.067,-0.095 0.1808,-0.1121 z m -283.89573,0.7366 c 0.47788,1.4722 0.97546,2.9939 1.41948,4.3852 0.12327,0.033 0.26872,0.068 0.3943,0.1004 1.01149,-0.5299 2.097,-1.0475 2.83126,-1.3181 -1.64417,-1.1499 -3.43605,-2.3417 -4.64504,-3.1675 z m 4.64504,3.1675 c 0.41856,0.2927 0.81996,0.5726 1.18482,0.8415 0.13338,-0.044 0.23778,-0.085 0.36352,-0.1277 -0.21339,-0.3607 -0.42812,-0.72 -0.64241,-1.0786 -0.23213,0.099 -0.46217,0.1948 -0.68282,0.269 -0.0555,0.019 -0.16125,0.072 -0.22311,0.096 z m 1.18482,0.8415 c -0.75311,0.2509 -1.59966,0.5215 -2.61968,0.8278 0.72628,0.1863 1.52337,0.3819 2.28309,0.5724 0.60623,0.079 1.20979,0.1931 1.81185,0.3306 -0.22772,-0.3793 -0.4565,-0.7553 -0.68281,-1.1379 -0.22998,-0.1818 -0.5142,-0.388 -0.79245,-0.5929 z m -2.61968,0.8278 c -0.44429,-0.1144 -0.97809,-0.2405 -1.3964,-0.3512 -0.10318,0.054 -0.21207,0.1063 -0.3116,0.1596 0.07,0.2195 0.12709,0.412 0.19619,0.6295 0.50678,-0.1466 1.06237,-0.303 1.51181,-0.4379 z m 6.8358,-3.5757 c -0.51405,-0.027 -1.06874,0.098 -1.6349,0.2941 0.3565,0.3552 0.67722,0.6674 1.04249,1.0353 1.77616,-0.9303 0.54406,-1.0252 1.45026,-1.1059 -0.27083,-0.1335 -0.55586,-0.2078 -0.85785,-0.2235 z m -14.07746,0.2348 c 0.0239,0.02 0.0473,0.04 0.0712,0.06 3.94875,1.9355 7.03179,3.374 3.88721,1.1584 -1.32291,-0.3853 -2.6401,-0.8072 -3.95838,-1.2178 z m 275.31539,1.8951 c -1.97976,0.8395 -3.84358,2.1052 -5.46826,3.9611 1.78833,-1.4565 3.61005,-2.8011 5.46826,-3.9611 z m -202.29302,0.7343 c -1.89163,0.3408 -1.47863,0.2235 -4.37191,1.6761 -0.16997,0.085 0.34198,-0.165 0.51931,-0.2257 1.50596,-0.5157 2.7389,-0.9985 3.8526,-1.4504 z"
     inkscape:connector-curvature="0" />
</svg>
