<?xml version="1.0" encoding="UTF-8" standalone="no"?>
<svg
   xmlns:dc="http://purl.org/dc/elements/1.1/"
   xmlns:cc="http://creativecommons.org/ns#"
   xmlns:rdf="http://www.w3.org/1999/02/22-rdf-syntax-ns#"
   xmlns:svg="http://www.w3.org/2000/svg"
   xmlns="http://www.w3.org/2000/svg"
   viewBox="0 0 300 300"
   height="100"
   width="100"
   id="svg889"
   version="1.1">
  <metadata
     id="metadata895">
    <rdf:RDF>
      <cc:Work
         rdf:about="">
        <dc:format>image/svg+xml</dc:format>
        <dc:type
           rdf:resource="http://purl.org/dc/dcmitype/StillImage" />
        <dc:title></dc:title>
      </cc:Work>
    </rdf:RDF>
  </metadata>
  <defs
     id="defs893" />
  <path
     id="path899"
     d="M 124.57825,297.58178 C 77.159103,289.24327 36.279093,258.46868 15.535413,215.49403 -20.755317,140.31057 10.508033,50.687422 85.469193,15.013749 106.78942,4.867556 119.10287,2.025103 144.57988,1.368567 c 16.11052,-0.41516297 20.8272,-0.178765 31,1.553713 31.28417,5.327842 58.89152,19.426502 80.50901,41.114742 21.45713,21.52734 35.05608,47.38769 41.13156,78.217528 3.14069,15.93735 3.15488,42.75438 0.0304,57.43156 -6.36771,29.91199 -19.03074,53.26164 -40.6519,74.95895 -21.57,21.64597 -44.82365,34.6475 -74.43138,41.61591 -11.35445,2.67235 -45.45569,3.45447 -57.5893,1.32081 z m 48.11901,-16.0454 c 54.65964,-9.51309 99.51098,-54.17529 108.95291,-108.49343 2.0201,-11.62142 1.4803,-39.52558 -0.97618,-50.4609 C 269.7836,74.101932 237.12056,37.902572 191.07825,23.286052 175.24611,18.26001 163.37597,16.754469 144.23756,17.34505 c -13.75686,0.424515 -18.47143,0.985981 -27.06044,3.222672 -24.392417,6.35212 -44.860857,18.20912 -62.320737,36.10129 -17.19971,17.62556 -28.11701,37.01355 -34.45714,61.192308 -3.51255,13.39547 -4.37395,38.21738 -1.85246,53.38004 6.99162,42.04325 32.91902,77.80941 70.43318,97.16067 13.788867,7.11284 27.416807,11.54412 43.098287,14.01391 6.93568,1.09235 32.46527,0.53954 40.61901,-0.87956 z M 97.753743,240.42421 c -0.37152,-0.37152 -0.67549,-4.42549 -0.67549,-9.00883 v -8.33333 h 14.499997 14.5 v -43.5 -43.5 h -13.03893 -13.03894 l 0.28894,-8.75 0.28893,-8.75 h 39 39 l 0.25892,52.25 0.25892,52.25 h 12.03001 12.03002 l -0.28894,8.75 -0.28893,8.75 -52.07451,0.25883 c -28.64097,0.14235 -52.378477,-0.0451 -52.749997,-0.41667 z M 141.07825,95.491962 c -4.52854,-1.95608 -10.59759,-7.84201 -13.31156,-12.90991 -1.64348,-3.06894 -2.14208,-5.74573 -2.14208,-11.5 0,-8.67833 1.91932,-13.21751 8.11891,-19.20117 4.98573,-4.81209 9.93491,-6.79883 16.93659,-6.79883 8.74407,0 13.2511,1.78912 19.06549,7.56825 5.22514,5.19346 8.33265,12.06725 8.33265,18.43175 0,9.02191 -7.06627,19.93068 -15.46872,23.88029 -5.44791,2.56082 -16.21565,2.82568 -21.53128,0.52962 z"
     style="fill:#000000" />
</svg>
