<?xml version="1.0" encoding="UTF-8" standalone="no"?>
<svg
   xmlns:dc="http://purl.org/dc/elements/1.1/"
   xmlns:cc="http://creativecommons.org/ns#"
   xmlns:rdf="http://www.w3.org/1999/02/22-rdf-syntax-ns#"
   xmlns:svg="http://www.w3.org/2000/svg"
   xmlns="http://www.w3.org/2000/svg"
   version="1.1"
   id="svg62"
   width="100"
   height="100"
   viewBox="0 0 682.66669 682.66669">
  <metadata
     id="metadata68">
    <rdf:RDF>
      <cc:Work
         rdf:about="">
        <dc:format>image/svg+xml</dc:format>
        <dc:type
           rdf:resource="http://purl.org/dc/dcmitype/StillImage" />
        <dc:title></dc:title>
      </cc:Work>
    </rdf:RDF>
  </metadata>
  <defs
     id="defs66" />
  <g
     id="g70">
    <path
       style="fill:#000000;stroke-width:1.47282"
       d="M 161.137,672.92653 C 116.28587,664.6839 74.663826,638.61956 47.530193,601.78425 32.714355,581.67098 19.957356,552.10062 14.885138,526.11393 c -2.996866,-15.35391 -2.996866,-354.09531 0,-369.44921 C 27.907085,89.948879 75.053282,35.859502 137.60944,15.866892 164.09778,7.4013638 160.46952,7.5496776 341.07806,7.5496776 c 143.16575,0 168.09081,0.3178265 179.26961,2.2858891 38.38072,6.7570933 70.14616,23.4086023 97.18248,50.9432623 26.35566,26.841474 42.14196,56.643451 49.55222,93.546651 2.85455,14.21569 2.94683,20.0733 2.94683,187.06384 0,166.99055 -0.0922,172.84815 -2.94683,187.06385 -15.08744,75.13557 -72.28406,131.46176 -146.7347,144.50167 -11.18367,1.95879 -36.22004,2.25568 -180.55762,2.14098 C 204.56714,674.98844 170.07754,674.56959 161.137,672.92653 Z M 318.41698,444.51172 c 30.90978,-6.55716 53.89798,-30.03748 63.19258,-64.54537 2.01432,-7.47856 2.59764,-15.30839 2.59764,-34.8677 0,-22.29381 -0.39766,-26.51592 -3.42381,-36.35143 -13.47087,-43.78261 -44.5202,-65.81418 -89.27137,-63.34402 -24.48393,1.35147 -41.23206,8.47092 -56.42933,23.98752 -29.69986,30.32391 -35.80838,91.92719 -13.38985,135.03404 16.63686,31.98972 56.67428,48.58308 96.72414,40.08696 z M 279.48403,416.305 c -27.55737,-8.95112 -42.53629,-37.8765 -40.33155,-77.88314 1.75051,-31.76416 15.12695,-53.33896 38.64662,-62.33293 7.00972,-2.68054 10.7268,-3.13527 21.76055,-2.66212 11.40061,0.48889 14.69035,1.26187 22.96521,5.39611 14.8867,7.43761 24.59148,20.68971 29.8085,40.70413 2.99191,11.47802 3.31311,38.6914 0.5908,50.05318 -4.97418,20.76012 -16.78468,37.06738 -31.99204,44.17278 -10.36294,4.84192 -30.5682,6.08597 -41.44809,2.55199 z m 231.7896,28.20499 c 21.96163,-4.7217 38.24757,-16.45552 45.93237,-33.09372 3.45379,-7.47771 3.90382,-10.24808 3.90382,-24.03126 0,-12.7321 -0.56484,-16.81831 -3.09081,-22.35965 -7.37153,-16.17128 -22.63272,-24.98224 -60.10797,-34.70302 -37.57445,-9.7465 -45.70309,-15.24479 -45.71513,-30.92213 -0.008,-9.02121 2.93856,-14.79773 10.30801,-20.21546 12.40389,-9.11885 36.62636,-10.17732 51.04054,-2.23038 8.01009,4.41619 16.13225,14.59316 16.13225,20.21348 0,2.40395 1.51025,2.67698 14.80691,2.67698 h 14.80691 l -0.98645,-6.30586 c -4.49335,-28.72398 -32.38422,-48.63291 -68.04318,-48.57029 -42.9005,0.0753 -71.06023,25.39071 -68.37183,61.4657 1.43195,19.21491 10.08564,32.00055 27.56242,40.72282 5.12488,2.5577 19.84442,7.33691 32.71006,10.62045 29.0219,7.40689 34.2049,9.37382 41.57761,15.77834 14.39951,12.50862 9.26784,33.13599 -10.49936,42.20348 -6.52749,2.99427 -10.00524,3.52577 -23.0697,3.52577 -14.50208,0 -15.95464,-0.28538 -25.35087,-4.98069 -7.83161,-3.91346 -10.87903,-6.43963 -14.22208,-11.78941 -2.3401,-3.74479 -4.25473,-8.01335 -4.25473,-9.48569 0,-2.40397 -1.51037,-2.67697 -14.81018,-2.67697 h -14.81019 l 0.71789,6.46384 c 1.71646,15.45461 13.13918,31.42354 28.57723,39.95084 16.72419,9.23772 43.51704,12.41674 65.25646,7.74283 z M 155.40341,369.58023 v -72.70287 h -13.88905 -13.88904 v 72.70287 72.70285 h 13.88904 13.88905 z m -2.95929,-102.12719 c 4.57523,-3.46668 8.0037,-12.22335 6.75796,-17.26057 -1.67146,-6.75865 -8.29542,-12.76318 -15.10162,-13.68945 -11.75038,-1.59916 -20.86116,5.44807 -20.86116,16.13617 0,9.59959 3.66647,14.64741 13.15805,18.11527 3.73723,1.36545 12.17997,-0.37154 16.04677,-3.30142 z"
       id="path74" />
  </g>
</svg>
