<?xml version="1.0" encoding="UTF-8" standalone="no"?>
<!-- Created with Inkscape (http://www.inkscape.org/) -->

<svg
   xmlns:dc="http://purl.org/dc/elements/1.1/"
   xmlns:cc="http://creativecommons.org/ns#"
   xmlns:rdf="http://www.w3.org/1999/02/22-rdf-syntax-ns#"
   xmlns:svg="http://www.w3.org/2000/svg"
   xmlns="http://www.w3.org/2000/svg"
   xmlns:sodipodi="http://sodipodi.sourceforge.net/DTD/sodipodi-0.dtd"
   xmlns:inkscape="http://www.inkscape.org/namespaces/inkscape"
   version="1.1"
   id="svg834"
   width="100"
   height="100"
   viewBox="0 0 1200 1200"
   sodipodi:docname="iot.svg"
   inkscape:version="0.92.4 (5da689c313, 2019-01-14)">
  <metadata
     id="metadata840">
    <rdf:RDF>
      <cc:Work
         rdf:about="">
        <dc:format>image/svg+xml</dc:format>
        <dc:type
           rdf:resource="http://purl.org/dc/dcmitype/StillImage" />
        <dc:title></dc:title>
      </cc:Work>
    </rdf:RDF>
  </metadata>
  <defs
     id="defs838" />
  <sodipodi:namedview
     pagecolor="#ffffff"
     bordercolor="#666666"
     borderopacity="1"
     objecttolerance="10"
     gridtolerance="10"
     guidetolerance="10"
     inkscape:pageopacity="0"
     inkscape:pageshadow="2"
     inkscape:window-width="1366"
     inkscape:window-height="686"
     id="namedview836"
     showgrid="false"
     inkscape:zoom="0.41833333"
     inkscape:cx="600"
     inkscape:cy="600"
     inkscape:window-x="0"
     inkscape:window-y="26"
     inkscape:window-maximized="1"
     inkscape:current-layer="svg834" />
  <path
     style="fill:#000000;stroke-width:1.33333337"
     d="M 569.16086,1189.3986 C 398.60431,1179.945 244.18677,1100.5184 138.07871,967.66619 76.540511,890.61749 34.432531,796.75079 18.038371,700.07349 c -6.05033,-35.6792 -7.90169,-59.1008 -7.90446,-100.00003 -0.004,-54.27846 4.84475,-94.79974 17.27466,-144.3748 C 57.778401,334.57246 125.62299,226.89904 222.57181,145.96294 401.22841,-3.1855657 653.70026,-32.611585 862.27086,71.404915 c 79.1124,39.454195 144.67984,92.489405 200.03854,161.803865 14.0227,17.55789 38.979,54.316 50.2782,74.05488 67.065,117.15772 91.5732,255.51925 69.2248,390.80983 -18.6039,112.6221 -71.9323,220.7757 -149.5677,303.33331 -43.02204,45.7498 -85.35944,79.5898 -137.62214,110.0002 -96.36,56.0697 -213.6934,84.1868 -325.4617,77.9916 z m 51.411,-60.7903 c 41.0325,-9.7216 70.6282,-52.5123 64.7255,-93.5828 -7.2448,-50.40861 -52.5177,-83.66271 -101.3922,-74.47521 -34.5882,6.502 -61.72749,33.6467 -68.75749,68.77121 -7.28045,36.3759 11.31248,74.6482 44.66309,91.936 19.774,10.2501 38.8058,12.5526 60.7611,7.3508 z m -17,-190.48671 20.3333,0.048 v -84.9536 -84.9536 l 7.6667,-1.4907 c 11.7306,-2.2809 30.7874,-8.5926 41.7766,-13.8366 29.5357,-14.0943 59.2858,-42.0218 74.772,-70.1912 2.4324,-4.4245 5.029,-7.8143 5.7703,-7.5329 1.7928,0.6806 80.5013,26.2708 124.0144,40.3204 19.0667,6.1562 35.2589,11.1966 35.9828,11.2009 1.5273,0.01 38.0172,-36.12 38.0172,-37.6411 0,-0.5598 -0.7037,-1.0179 -1.5637,-1.0179 -0.86,0 -21.71,-6.5555 -46.3333,-14.5678 -24.6233,-8.0124 -65.5104,-21.3053 -90.8603,-29.54 l -46.0905,-14.9721 1.0111,-6.1267 c 1.7089,-10.3552 1.2652,-37.4742 -0.824,-50.35552 -5.1595,-31.81132 -19.9321,-62.72063 -40.4691,-84.67475 -4.5119,-4.82327 -8.2035,-9.15449 -8.2035,-9.62493 0,-0.78702 18.4651,-26.60327 35.623,-49.80483 l 7.1486,-9.66667 h -29.8152 -29.8153 l -11.1705,15.37371 c -6.1437,8.45553 -11.8004,15.09376 -12.5705,14.75163 -26.8998,-11.9515 -41.3878,-16.06008 -63.26,-17.93955 -27.6611,-2.37691 -57.1517,2.20292 -80.55773,12.51041 -6.00366,2.64388 -11.57989,5.10007 -12.3916,5.45819 -0.8117,0.35812 -7.05873,-7.03011 -13.88228,-16.41829 -6.82354,-9.38816 -14.62977,-20.0694 -17.34718,-23.73607 -2.71742,-3.66666 -26.69355,-36.66666 -53.28032,-73.33333 -26.58678,-36.66667 -48.56331,-66.91356 -48.83675,-67.21532 -0.27344,-0.30176 -3.44429,2.52515 -7.04635,6.28203 -7.1991,7.50852 -20.42616,16.6104 -27.5601,18.96481 -2.51415,0.82973 -4.57118,1.7786 -4.57118,2.10857 0,0.5605 42.06582,58.68338 104.90976,144.95519 l 27.02174,37.09527 -8.38755,9.6173 c -21.09964,24.1932 -34.82007,52.4687 -40.20933,82.86466 -2.3099,13.02808 -3.00578,37.80059 -1.42855,50.85439 l 0.98999,8.1936 -41.78136,13.55 c -22.97975,7.4526 -43.78458,14.1795 -46.23296,14.9489 -3.23486,1.0165 -4.25792,1.9976 -3.74304,3.5897 0.3897,1.205 3.59292,11.3329 7.11826,22.5064 4.07892,12.9281 7.06328,20.322 8.20704,20.3333 0.98854,0.01 21.93935,-6.5813 46.55736,-14.647 24.61802,-8.0657 44.8451,-14.5157 44.94907,-14.3333 12.93191,22.6789 20.80932,33.3696 34.39635,46.6805 23.1278,22.6577 58.03671,40.4908 89.29991,45.6184 l 5,0.8201 v 85.965 85.965 l 3.6667,-1.0254 c 2.0166,-0.564 12.8166,-1.0038 24,-0.9773 z m -12.3334,-236.7961 c -5.9641,-1.7506 -14.0192,-9.0142 -16.8096,-15.1577 -8.7033,-19.1624 4.9716,-40.761 25.8073,-40.761 17.8879,0 31.7244,16.4057 28.4695,33.7557 -3.0588,16.3048 -21.0893,26.9704 -37.4672,22.163 z m -61.6404,-59.2288 c -8.38603,-3.6457 -12.24604,-15.8851 -7.75109,-24.5774 2.23301,-4.3182 18.65599,-19.88671 27.14159,-25.72949 15.2749,-10.5176 34.1113,-16.1091 54.2499,-16.10386 25.8993,0.007 46.3325,8.49173 67.3836,27.98135 4.4569,4.1263 8.9688,9.1759 10.0266,11.2213 5.0136,9.6952 -0.4965,22.0549 -11.2008,25.1248 -6.9193,1.9845 -13.0431,-0.7049 -23.0888,-10.1397 -27.3496,-25.6866 -60.9712,-25.1091 -88.9978,1.5287 -5.5675,5.2916 -11.4333,10.3074 -13.0351,11.1461 -3.8578,2.02 -9.43585,1.8489 -14.7281,-0.4518 z m -50.49292,-49.22323 c -3.72727,-3.72727 -4.53333,-5.53664 -4.53333,-10.17596 0,-7.54804 3.30392,-12.52135 15.71508,-23.65547 26.08564,-23.40156 51.49407,-36.50813 81.98917,-42.29296 17.087,-3.24133 46.5607,-2.68367 63.6291,1.20395 30.4449,6.9343 55.3874,20.39421 77.7678,41.96646 8.7117,8.39706 11.5679,12.94824 11.5606,18.4211 -0.01,5.32597 -4.5566,12.07466 -9.8376,14.59298 -7.1892,3.42827 -12.1671,1.60102 -22.8241,-8.37809 -26.6115,-24.91863 -52.1552,-36.02955 -86.0979,-37.45048 -36.8246,-1.54157 -66.8471,10.26307 -95.79925,37.66749 -13.29302,12.58243 -13.37593,12.63431 -20.19204,12.63431 -6.00582,0 -7.3995,-0.55531 -11.37753,-4.53333 z m 574.03096,283.74813 4.1023,-3.4518 v -15.2755 c 0,-14.4405 -0.1788,-15.4542 -3.2727,-18.5481 -3.2597,-3.2597 -3.3807,-3.2727 -30.3229,-3.2727 h -27.05014 l 31.97914,-32 c 22.0352,-22.0496 32.8755,-32 34.8618,-32 5.2639,0 21.3258,-6.2061 28.6169,-11.057 38.5623,-25.6569 43.3921,-81.2748 9.7682,-112.487 -22.1754,-20.5849 -50.5453,-24.9125 -81.2943,-12.4008 -3.9872,1.6224 -4.4337,1.3517 -30.03244,-18.2042 -14.2918,-10.9181 -30.0055,-22.85103 -34.9194,-26.5177 l -8.9343,-6.66667 -0.033,-29.81846 c -0.046,-41.27428 0.3149,-40.72203 -31.4605,-48.13954 -15.9035,-3.71242 -17.8855,-3.91078 -22.6667,-2.26857 -9.8167,3.37173 -14.1805,15.33811 -9.1447,25.07631 2.3661,4.57545 9.1211,7.98937 20.9053,10.56537 l 7.6667,1.67591 v 16.45449 16.45449 h -17.0895 -17.0896 l -2.3682,-10.04562 c -2.6997,-11.45131 -6.7777,-17.27451 -13.3727,-19.09548 -11.6527,-3.21746 -22.08,4.49325 -22.08,16.32749 0,2.55868 1.7885,11.97619 3.9744,20.9278 6.8044,27.86518 5.4695,27.09308 47.7839,27.63958 l 32.5504,0.4205 26.179,20.0707 c 14.3984,11.0389 29.329,22.4727 33.179,25.4084 3.85,2.9357 7,5.7921 7,6.3477 0,0.5555 -1.4638,4.2325 -3.2528,8.1712 -1.789,3.9386 -3.9609,10.1611 -4.8264,13.8277 -1.5164,6.4246 -4.194,9.2931 -73.7426,79 l -72.169,72.3334 h -23.7319 c -23.419,0 -23.775,0.043 -27.0046,3.2727 -3.0904,3.0904 -3.2727,4.116 -3.2727,18.4118 0,15.623 0.6417,17.8451 6,20.7758 1.8769,1.0266 40.8405,1.4706 131.5643,1.4991 l 128.89764,0.04 4.1023,-3.4518 z m -116.03274,-91.7463 51.1852,-51.1982 5.2382,7.8443 c 5.0966,7.6322 15.79474,17.8274 22.22564,21.1807 3.0972,1.615 2.241,2.5986 -32.65734,37.5149 l -35.838,35.8565 h -30.6695 -30.6694 z m 105.70294,-56.9858 c -9.8588,-2.8401 -18.922,-16.2615 -18.8882,-27.9707 0.019,-6.4939 5.6209,-17.5886 10.9235,-21.633 5.4806,-4.1803 16.2796,-6.9063 22.6354,-5.7139 8.4197,1.5795 16.8912,8.1343 20.4827,15.8484 5.5794,11.984 3.64,23.3403 -5.5593,32.5532 -7.7942,7.8057 -18.1251,10.22 -29.5941,6.916 z m -834.22844,121.0111 c 1.38365,-1.0118 4.67292,-6.8451 7.30948,-12.9629 4.60283,-10.6804 5.00397,-11.169 10.07244,-12.2699 8.30752,-1.8043 22.12999,-6.3864 27.69445,-9.1805 l 5.08243,-2.5521 10.52212,6.0691 c 11.81636,6.8157 15.79329,7.4185 20.24908,3.0692 6.42777,-6.2742 23.38785,-25.7956 24.9054,-28.6667 1.89509,-3.5853 1.22313,-5.0773 -7.99432,-17.7502 l -6.38168,-8.774 3.36525,-10.5712 c 1.85088,-5.8142 3.70792,-14.6181 4.12674,-19.5643 l 0.76149,-8.9931 8.8072,-4.855 c 10.77461,-5.9396 14.8072,-9.4655 14.8072,-12.9466 0,-1.4609 -2.68949,-11.1552 -5.97665,-21.5429 -7.25156,-22.9156 -7.09191,-22.783 -24.7109,-20.5234 l -11.8162,1.5153 -7.39628,-7.9888 c -4.06796,-4.3939 -10.70461,-10.2674 -14.74813,-13.0523 l -7.35184,-5.0634 v -11.6916 c 0,-19.2936 0.458,-18.8848 -27.61279,-24.6467 -21.41962,-4.39668 -21.4354,-4.39036 -28.3461,11.3546 l -4.85838,11.069 -12.03002,3.0409 c -6.61651,1.6726 -15.13818,4.6161 -18.93704,6.5411 l -6.90702,3.5 -10.74096,-6.1953 c -13.05084,-7.5278 -16.44257,-7.7747 -21.86424,-1.592 -2.22023,2.5319 -8.38678,9.5107 -13.70345,15.5085 -7.01502,7.9137 -9.66667,11.9112 -9.66667,14.5732 0,2.3317 2.67601,7.3603 7.34464,13.8016 7.28541,10.0518 7.32941,10.17 5.45547,14.6567 -2.41089,5.7724 -6.13344,23.7142 -6.13344,29.5618 0,4.2357 -0.62151,4.8332 -11.21163,10.7775 -10.894719,6.1153 -12.792359,7.9894 -12.784699,12.6263 0.002,1.2234 2.60149,10.2965 5.7766,20.1625 7.423259,23.0663 7.659209,23.2693 24.594389,21.162 l 12.37466,-1.5398 6.44328,7.2292 c 3.54381,3.9761 10.12521,9.9105 14.62535,13.1876 l 8.18205,5.9583 v 11.6362 c 0,12.7242 1.57381,17.8941 5.86901,19.2793 3.78214,1.2198 35.60258,8.1674 38.20948,8.3426 1.14318,0.077 3.21058,-0.6881 4.59423,-1.6998 z m -10.90715,-81.3327 c -12.42705,-4.0653 -23.90604,-14.7727 -27.66544,-25.8059 -2.69965,-7.923 -2.68898,-22.152 0.0225,-30.1099 2.7434,-8.0515 12.42598,-18.7634 21.06716,-23.3068 5.92568,-3.1156 8.36861,-3.5806 18.81013,-3.5806 10.45281,0 12.88159,0.4635 18.8376,3.5945 21.42872,11.2652 29.49483,35.4351 19.16175,57.4178 -3.55348,7.5597 -12.75298,16.2669 -21.07698,19.949 -7.73736,3.4226 -21.64018,4.3009 -29.1568,1.8419 z M 997.67726,393.00454 c 9.16804,-6.99326 8.89454,-4.75008 8.89454,-72.93108 0,-50.79347 -0.3318,-62.09091 -1.9106,-65.06622 -2.9052,-5.4748 -54.22534,-55.94149 -58.50954,-57.53641 -2.0644,-0.76856 -6.6115,-1.39737 -10.1047,-1.39737 -8.5377,0 -14.4516,4.08661 -32.6796,22.58213 -7.9958,8.11316 -14.8684,14.7512 -15.2724,14.7512 -0.404,0 -8.5736,-7.76224 -18.1547,-17.24941 -9.581,-9.48719 -19.0975,-17.88719 -21.1477,-18.66667 -5.6501,-2.14817 -15.7445,-1.6984 -20.5603,0.91608 -2.3638,1.28333 -16.4858,14.48333 -31.382,29.33333 -23.9103,23.836 -27.5838,27 -31.348,27 h -4.2638 l -0.06,-9 c -0.033,-4.95 -0.3182,-12 -0.6341,-15.66666 -0.3159,-3.66667 -2.1364,-36.36667 -4.0455,-72.66667 l -3.4711,-65.999995 -3.3024,-3 c -3.0544,-2.77471 -4.5531,-3 -19.9554,-3 -15.9031,0 -16.8003,0.14736 -19.9256,3.27272 -2.321,2.32101 -3.2748,4.74438 -3.2797,8.33334 0,2.78333 -1.8035,37.160605 -3.9993,76.393935 -2.1957,39.23333 -3.9926,73.50665 -3.993,76.16292 -7e-4,4.59804 -0.2548,4.87021 -5.2993,5.67687 -6.2786,1.00397 -14.2976,7.53456 -16.9001,13.76322 -1.4108,3.37644 -1.8014,15.84023 -1.8014,57.47779 0,52.92656 0.014,53.19264 3.0703,58.97251 2.104,3.97869 4.9077,6.77766 8.9081,8.89316 l 5.8378,3.08712 150.196,-0.35014 150.1959,-0.35012 z m -190.7936,-28.71015 c -1.3103,-0.83172 -1.6088,-9.40748 -1.3333,-38.31292 l 0.3548,-37.24135 9.12,-0.39698 c 5.5759,-0.24272 9.8506,0.20934 11,1.16325 2.5374,2.10581 2.7999,71.78048 0.28,74.3004 -1.7901,1.79016 -16.7766,2.16641 -19.4215,0.4876 z m 47.9548,-0.4876 c -2.5199,-2.51992 -2.2573,-72.19459 0.28,-74.3004 1.1494,-0.95391 5.4242,-1.40597 11,-1.16325 l 9.12,0.39698 0.3549,37.24135 c 0.2754,28.90544 -0.023,37.4812 -1.3333,38.31292 -2.6449,1.67881 -17.6314,1.30256 -19.4216,-0.4876 z m 49.3785,0.4876 c -1.3103,-0.83172 -1.6087,-9.40748 -1.3333,-38.31292 l 0.3548,-37.24135 h 10.6667 10.6667 l 0.3548,37.24135 c 0.2754,28.90544 -0.023,37.4812 -1.3333,38.31292 -0.9285,0.58936 -5.2882,1.07156 -9.6882,1.07156 -4.4,0 -8.7597,-0.4822 -9.6882,-1.07156 z m 48.6882,-0.32773 c -2.1302,-1.24074 -2.3333,-4.4641 -2.3333,-37.02612 0,-25.96328 0.4353,-36.10239 1.6,-37.26708 2.1074,-2.10738 18.6926,-2.10738 20.8,0 1.1642,1.16424 1.6,11.25925 1.6,37.06666 0,25.80742 -0.4358,35.90243 -1.6,37.06667 -1.9465,1.94651 -16.7961,2.06481 -20.0667,0.15987 z M 339.73861,274.89479 c 11.02376,-3.43097 18.41952,-8.01041 25.96577,-16.07797 12.29123,-13.14032 18.62548,-33.04696 15.73569,-49.45255 -3.48244,-19.77012 -15.86144,-36.42719 -33.46948,-45.03621 -9.82561,-4.804 -10.43081,-4.92127 -25.39878,-4.92127 -14.49946,0 -15.82551,0.23313 -24.38347,4.28675 -50.05983,23.71164 -46.08712,93.17701 6.36605,111.31489 9.08775,3.14247 24.88627,3.09144 35.18422,-0.1136 z"
     id="path844"
     inkscape:connector-curvature="0" />
</svg>
