<?xml version="1.0" encoding="UTF-8" standalone="no"?>
<svg
   xmlns:dc="http://purl.org/dc/elements/1.1/"
   xmlns:cc="http://creativecommons.org/ns#"
   xmlns:rdf="http://www.w3.org/1999/02/22-rdf-syntax-ns#"
   xmlns:svg="http://www.w3.org/2000/svg"
   xmlns="http://www.w3.org/2000/svg"
   version="1.1"
   id="svg85"
   width="100"
   height="100"
   viewBox="0 0 100 100">
  <metadata
     id="metadata91">
    <rdf:RDF>
      <cc:Work
         rdf:about="">
        <dc:format>image/svg+xml</dc:format>
        <dc:type
           rdf:resource="http://purl.org/dc/dcmitype/StillImage" />
        <dc:title></dc:title>
      </cc:Work>
    </rdf:RDF>
  </metadata>
  <defs
     id="defs89" />
  <g
     id="g93">
    <path
       style="fill:#000000;stroke-width:0.823658"
       d="m 12.018106,97.224933 c -0.238892,-0.555521 -0.32467,-5.89497 -0.190617,-11.865442 l 0.243733,-10.855393 3.269722,-0.241487 3.269722,-0.241479 v 12.10692 12.106929 H 15.53156 c -1.719858,0 -3.270846,-0.445876 -3.513454,-1.010048 z m 12.228332,0.04972 c -0.250646,-0.582862 -0.34604,-5.940323 -0.211987,-11.905474 0.279751,-12.448505 -0.283234,-11.777364 9.125224,-10.878275 7.806318,0.745975 10.300881,2.72762 10.300881,8.182844 0,5.229649 -2.858993,7.780618 -8.720105,7.780618 h -3.827275 l -0.265755,3.695793 c -0.254942,3.545425 -0.381293,3.705729 -3.105509,3.940004 -1.799461,0.154748 -3.006699,-0.144004 -3.295474,-0.815526 z m 12.23871,-14.600905 c 0,-1.625815 -0.465224,-1.985186 -2.833759,-2.188968 -2.651117,-0.228097 -2.833759,-0.08701 -2.833759,2.188968 0,2.275978 0.182642,2.417064 2.833759,2.188968 2.368535,-0.203782 2.833759,-0.563154 2.833759,-2.188968 z m 17.225499,14.588656 c -0.474372,-0.534917 -2.288527,-4.58255 -4.031446,-8.994729 l -3.168936,-8.022159 3.226449,0.241542 c 3.13752,0.234873 3.275206,0.377928 4.995167,5.189998 l 1.768719,4.948473 1.763279,-4.948473 c 1.650189,-4.631101 1.945005,-4.964104 4.597029,-5.192278 1.898828,-0.16337 2.832338,0.09333 2.829452,0.778062 -0.0052,1.200915 -4.706465,13.093861 -6.084317,15.391244 -1.058666,1.765181 -4.54998,2.125432 -5.895396,0.60832 z m 19.182919,0.172092 c -2.519752,-0.903991 -5.447601,-5.195694 -5.451786,-7.991348 -0.0044,-2.634027 1.764333,-5.808846 6.262128,-11.243257 2.891655,-3.493816 3.797333,-4.084824 6.259722,-4.084824 1.5834,0 3.132341,0.226144 3.442084,0.502542 0.309735,0.276399 -0.621317,1.939506 -2.069019,3.695794 l -2.632178,3.19325 2.508426,0.459383 c 3.598517,0.659026 4.562125,1.351494 5.92192,4.255586 3.518736,7.514933 -5.267113,14.432458 -14.241297,11.212874 z m 7.680691,-6.296862 c 0.813882,-1.357041 0.683041,-1.924956 -0.735016,-3.190357 -1.418057,-1.2654 -2.054484,-1.382156 -3.575236,-0.65589 -2.044039,0.976172 -2.4216,3.119817 -0.803768,4.563488 1.617833,1.44367 4.020084,1.106754 5.11402,-0.717241 z M 45.640371,67.982408 c 0,-1.283802 0.392366,-2.550573 0.871926,-2.815051 0.507269,-0.27976 0.871926,0.495322 0.871926,1.853319 0,1.283802 -0.392367,2.550573 -0.871926,2.815051 -0.507278,0.27976 -0.871926,-0.495322 -0.871926,-1.853319 z m 3.487703,-0.09184 c 0,-1.283802 0.392367,-2.334185 0.871926,-2.334185 0.47956,0 0.871926,1.050383 0.871926,2.334185 0,1.283802 -0.392366,2.334185 -0.871926,2.334185 -0.479559,0 -0.871926,-1.050383 -0.871926,-2.334185 z m 4.068991,1.815475 c -0.912784,-0.814514 -0.679196,-4.14966 0.290639,-4.14966 0.479559,0 0.871926,1.050383 0.871926,2.334185 0,2.417337 -0.177498,2.694506 -1.162565,1.815475 z M 42.152667,67.112511 c 0,-1.283802 0.392367,-2.334185 0.871926,-2.334185 0.479559,0 0.871926,1.050383 0.871926,2.334185 0,1.283802 -0.392367,2.334185 -0.871926,2.334185 -0.479559,0 -0.871926,-1.050383 -0.871926,-2.334185 z m 14.532102,1.815475 c -0.912785,-0.814514 -0.679196,-4.14966 0.290639,-4.14966 0.479559,0 0.871926,1.050383 0.871926,2.334185 0,2.417337 -0.177498,2.694506 -1.162565,1.815475 z M 38.692691,67.759695 c -0.03906,-1.830694 0.88919,-3.759431 1.809411,-3.759431 1.190764,0 0.927642,1.860976 -0.501523,3.547082 -1.104294,1.302842 -1.283963,1.332011 -1.307888,0.212349 z M 60.237256,67.63242 c -1.011006,-2.230299 -0.829541,-4.1071 0.299673,-3.099448 0.520164,0.464168 0.810899,1.672109 0.646071,2.684313 -0.263854,1.620407 -0.376899,1.670024 -0.945744,0.415135 z m 2.840003,-1.690837 c -1.057786,-2.482671 -1.069827,-2.719381 -0.138331,-2.719381 1.184267,0 2.806459,3.770503 1.849302,4.298371 -0.462373,0.255002 -1.23231,-0.455539 -1.710971,-1.57899 z M 35.662783,65.361872 c 0.735461,-2.135064 1.103413,-2.537259 1.773898,-1.938953 0.751417,0.670518 -0.480091,3.689592 -1.505014,3.689592 -0.50161,0 -0.615806,-0.743508 -0.268884,-1.750639 z m -3.944218,0.337881 c -0.0415,-1.465051 1.625261,-4.033674 2.617443,-4.033674 1.323095,0 0.991362,1.222934 -0.873591,3.220569 -0.980812,1.050585 -1.727259,1.398628 -1.743852,0.813105 z M 66.65614,64.927636 c -0.591009,-0.985439 -0.918679,-2.209019 -0.728154,-2.719077 0.196375,-0.525705 0.811832,-0.151356 1.420986,0.864333 0.591009,0.985439 0.918678,2.209019 0.728154,2.719077 -0.196375,0.525705 -0.811833,0.151356 -1.420986,-0.864333 z m 2.700747,-1.7452 C 68.087824,61.3691 67.985748,59.83905 69.17768,60.496403 c 1.370554,0.755856 2.696718,3.369972 1.925421,3.795346 -0.384877,0.212256 -1.170674,-0.286933 -1.746214,-1.109313 z M 29.047786,62.487471 c 0.499012,-0.832036 1.297548,-1.728013 1.774535,-1.991068 1.228247,-0.677388 1.080273,1.446401 -0.179076,2.570187 -1.627868,1.452626 -2.60194,1.099059 -1.595459,-0.579119 z M 25.586073,61.78667 c 0,-0.361611 0.784733,-1.291193 1.743852,-2.065746 1.919084,-1.549782 2.23071,-1.098498 0.841244,1.218243 -0.909858,1.51708 -2.585096,2.066291 -2.585096,0.847503 z m 46.361401,-0.974421 c -1.478577,-2.112702 -0.392532,-3.115787 1.229852,-1.135908 0.680128,0.830006 1.2366,1.792305 1.2366,2.138449 0,1.1732 -1.318962,0.637084 -2.466452,-1.002541 z M 43.6502,60.8608 C 35.169151,58.965489 28.410059,54.089142 24.539576,47.073437 22.003286,42.476113 21.66401,41.118828 21.675944,35.617374 21.687541,30.2728 22.058046,28.723383 24.255814,24.82869 33.320049,8.7658353 56.015417,5.3927939 70.151935,18.007494 84.135717,30.485897 80.606719,50.658319 63.05696,58.563705 57.42955,61.098615 49.117088,62.082521 43.6502,60.8608 Z m 4.44704,-9.034059 c -0.234374,-1.759635 -0.713663,-2.090943 -3.110875,-2.150368 -1.558611,-0.03864 -2.833803,0.03123 -2.833759,0.155264 3.5e-5,0.124032 0.774305,1.579777 1.720598,3.234992 2.821988,4.936063 4.962915,4.307638 4.224036,-1.239888 z m 8.499699,1.181455 c 1.752615,-3.024337 1.601013,-3.402071 -1.365383,-3.402071 -2.548518,0 -2.615778,0.09748 -2.615778,3.791063 0,3.35256 0.157932,3.674101 1.365384,2.779883 0.750955,-0.556143 1.928055,-1.982144 2.615777,-3.168875 z m -18.246392,-0.68376 c -0.990334,-2.101744 -1.713369,-2.587751 -3.937121,-2.64643 -1.498195,-0.03953 -2.723975,0.160425 -2.723931,0.444355 7.8e-5,0.634718 7.173683,5.401698 7.581343,5.037931 0.161054,-0.143716 -0.253085,-1.419846 -0.920291,-2.835856 z m 27.998064,-0.227949 c 2.557158,-2.078386 2.474177,-2.558259 -0.435963,-2.521034 -1.732377,0.02216 -2.811098,0.678435 -3.887115,2.364857 -0.819131,1.283798 -1.505773,2.609102 -1.525871,2.945108 -0.04979,0.831546 3.444317,-0.834518 5.848949,-2.788931 z M 35.414214,45.521301 c 0.186932,-0.320951 0.170575,-2.246654 -0.03636,-4.27934 l -0.37621,-3.695793 h -4.126511 c -2.26958,0 -4.349155,0.198675 -4.621275,0.441502 -0.62568,0.558325 0.963305,5.849981 2.145389,7.1446 0.955936,1.046944 6.45417,1.351861 7.014949,0.389031 z m 12.66952,-3.890309 0.263548,-4.084824 h -4.405196 c -4.391124,0 -4.405162,0.0081 -4.393295,2.5287 0.02476,5.255087 0.724091,6.133221 4.67906,5.875258 l 3.592334,-0.23431 z m 11.850127,3.243127 c 0.291092,-0.676901 0.52925,-2.602604 0.52925,-4.27934 v -3.048611 h -3.923666 -3.923667 v 4.279339 4.27934 h 3.394416 c 2.290925,0 3.566474,-0.400099 3.923667,-1.230728 z m 12.64671,-0.519911 c 0.406588,-0.962851 1.016605,-2.888554 1.355583,-4.27934 l 0.61633,-2.5287 H 70.18233 c -4.705156,0 -5.113287,0.382178 -5.400814,5.057401 -0.215557,3.504827 -0.21915,3.501278 3.550509,3.501278 2.838938,0 3.650501,-0.33441 4.248546,-1.750639 z M 35.189161,31.516189 c 0.007,-1.176819 0.248499,-2.927458 0.537656,-3.890309 0.489656,-1.630424 0.249336,-1.750639 -3.499605,-1.750639 -2.213951,0 -4.029606,0.08753 -4.034803,0.194515 -0.0052,0.106984 -0.57497,1.857623 -1.26618,3.890309 l -1.256746,3.695794 h 4.753888 c 4.601886,0 4.754272,-0.06842 4.76579,-2.13967 z M 48.256148,29.76555 v -3.890309 h -3.821973 c -4.114322,0 -4.858773,0.859586 -4.885384,5.640948 -0.01142,2.050312 0.170165,2.13967 4.347728,2.13967 h 4.359629 z m 12.036755,0.194515 -0.265755,-3.695793 -3.705685,-0.239253 -3.705685,-0.239252 v 3.935046 3.935046 h 3.971439 3.97144 z m 13.772628,1.784954 c -1.512452,-5.37735 -2.019878,-5.869778 -6.048559,-5.869778 -3.67992,0 -3.810439,0.0808 -3.456376,2.13967 0.998931,5.808829 0.832132,5.640948 5.604836,5.640948 4.276736,0 4.418066,-0.06925 3.900099,-1.91084 z M 38.028379,20.623324 c 0.241305,-0.748884 0.721414,-1.974332 1.066906,-2.723216 0.976348,-2.116289 -0.68829,-1.616445 -4.426698,1.32922 l -3.414994,2.690828 3.168029,0.03239 c 2.288946,0.0234 3.289768,-0.345436 3.606757,-1.32922 z m 10.227769,-2.204508 c 0,-4.176525 -1.158414,-4.272647 -4.141648,-0.343663 -2.621053,3.45199 -2.493438,3.909779 1.089908,3.909779 3.043815,0 3.05174,-0.0093 3.05174,-3.566116 z m 9.591186,3.138447 c 0,-0.954323 -2.58996,-4.8091 -3.866172,-5.754247 -1.205734,-0.892946 -1.365384,-0.59065 -1.365384,2.585368 0,3.477456 0.08658,3.596548 2.615778,3.596548 1.438678,0 2.615778,-0.192451 2.615778,-0.427669 z m 7.48408,-2.327935 c -3.163121,-2.492367 -5.587711,-3.580944 -4.509976,-2.024866 0.253678,0.366279 0.855673,1.591726 1.337761,2.723216 0.706461,1.658091 1.430543,2.05097 3.731869,2.024866 l 2.85534,-0.03239 z M 22.970295,59.452485 c 0,-1.042424 3.131155,-3.291645 3.778345,-2.714128 0.321799,0.287159 -0.06513,1.163241 -0.85984,1.94685 -1.524913,1.503612 -2.918505,1.869994 -2.918505,0.767278 z m 51.599017,-0.566172 c -2.068601,-2.090045 -0.615257,-2.81474 1.53976,-0.767776 1.418301,1.347191 1.69478,1.98184 0.854636,1.961821 -0.683041,-0.01626 -1.760515,-0.553599 -2.394396,-1.194045 z M 20.354517,57.025088 c 0,-0.734529 2.756879,-2.361565 4.001483,-2.361565 0.345632,0 -0.08175,0.700255 -0.949742,1.556123 -1.690787,1.667177 -3.051741,2.026369 -3.051741,0.805442 z M 76.72698,56.351022 c -0.794717,-0.783609 -1.181643,-1.659691 -0.859841,-1.946851 0.647187,-0.577516 3.778343,1.671713 3.778343,2.714129 0,1.102716 -1.393591,0.736334 -2.918502,-0.767278 z M 18.227658,54.739983 c -0.26067,-0.376364 0.483141,-1.243903 1.652914,-1.927858 1.169773,-0.683948 2.340135,-0.935611 2.600805,-0.55924 0.26067,0.376364 -0.483142,1.243903 -1.652915,1.927858 -1.169772,0.683948 -2.340134,0.935612 -2.600804,0.55924 z M 78.84855,53.935942 c -1.205106,-0.811153 -1.683698,-1.5893 -1.156357,-1.880132 0.494844,-0.272903 1.789009,0.1464 2.875934,0.931783 2.579881,1.864174 0.964542,2.755031 -1.719577,0.948349 z M 15.994888,51.67617 c 0,-0.946675 4.215971,-2.517901 4.737114,-1.765448 0.241868,0.349221 -0.547316,1.036274 -1.753741,1.526783 -2.619293,1.064959 -2.983373,1.094082 -2.983373,0.238665 z m 65.176464,-0.187212 c -2.3557,-1.224363 -1.80949,-2.353816 0.653944,-1.352231 1.198899,0.48745 2.179815,1.180199 2.179815,1.539443 0,0.855043 -0.949082,0.792339 -2.833759,-0.187212 z m -66.04839,-2.997494 c 0,-0.907846 3.419739,-1.928558 4.182105,-1.24826 0.653475,0.583127 -1.492111,1.944485 -3.092197,1.961976 -0.599449,0.0065 -1.089908,-0.31462 -1.089908,-0.713716 z m 66.651004,-0.416718 c -1.353107,-0.913265 -1.419949,-1.147309 -0.333302,-1.167092 0.747572,-0.01361 2.120855,0.489311 3.05174,1.117603 1.353107,0.913265 1.419949,1.14731 0.333303,1.167093 -0.747572,0.01361 -2.120855,-0.489312 -3.051741,-1.117604 z M 13.37911,45.417489 c 0,-0.744065 4.531842,-1.742288 5.206305,-1.146784 0.616299,0.54415 -1.937604,1.808619 -3.680434,1.822228 -0.839229,0.0065 -1.525871,-0.297397 -1.525871,-0.675444 z m 69.266782,-0.537482 c -1.633553,-1.182165 -1.616568,-1.209644 0.487293,-0.788686 1.198898,0.239885 2.47409,0.440935 2.83376,0.446778 0.359669,0.0058 0.653944,0.360752 0.653944,0.788686 0,1.16856 -2.063343,0.936646 -3.974997,-0.446778 z M 12.507184,42.302848 c 0,-0.379364 1.1771,-0.843916 2.615778,-1.032338 2.764233,-0.362029 3.568836,0.451188 1.236577,1.249815 -1.997785,0.684094 -3.852355,0.579398 -3.852355,-0.217477 z m 70.626001,-0.08831 c -0.992478,-0.57234 -0.624491,-0.757106 1.525871,-0.766147 1.558567,-0.0065 2.833759,0.338213 2.833759,0.766147 0,0.988294 -2.645868,0.988294 -4.35963,0 z M 12.131577,39.189436 c -0.263188,-0.380005 0.694572,-0.844558 2.128356,-1.032338 1.776951,-0.232726 2.606881,-0.01277 2.606881,0.690917 0,1.148359 -3.97772,1.435162 -4.735237,0.341421 z m 71.001608,-0.08714 c 0,-0.427934 1.1771,-0.778062 2.615778,-0.778062 1.438678,0 2.615778,0.350128 2.615778,0.778062 0,0.427934 -1.1771,0.778062 -2.615778,0.778062 -1.438678,0 -2.615778,-0.350128 -2.615778,-0.778062 z M 11.635259,35.990044 c 0,-0.427934 1.1771,-0.778062 2.615777,-0.778062 1.438678,0 2.615778,0.350128 2.615778,0.778062 0,0.427934 -1.1771,0.778062 -2.615778,0.778062 -1.438677,0 -2.615777,-0.350128 -2.615777,-0.778062 z m 71.933889,0 c -0.314399,-0.453939 0.572228,-0.778062 2.128354,-0.778062 1.46698,0 2.667239,0.350128 2.667239,0.778062 0,0.427934 -0.957759,0.778062 -2.128354,0.778062 -1.170595,0 -2.370854,-0.350128 -2.667239,-0.778062 z M 12.071222,32.877797 c -0.314395,-0.453939 0.572229,-0.778062 2.128356,-0.778062 1.466979,0 2.667236,0.350128 2.667236,0.778062 0,0.427934 -0.95776,0.778062 -2.128356,0.778062 -1.170597,0 -2.370852,-0.350128 -2.667236,-0.778062 z m 71.061963,0 c 0,-0.427934 1.200259,-0.778062 2.667239,-0.778062 1.556126,0 2.442753,0.324123 2.128354,0.778062 -0.296385,0.427934 -1.496644,0.778062 -2.667239,0.778062 -1.170595,0 -2.128354,-0.350128 -2.128354,-0.778062 z m -70.22589,-3.164012 c -0.316102,-0.456405 -0.43735,-0.950679 -0.26944,-1.098386 0.600116,-0.52791 5.100885,0.56696 5.100885,1.240855 0,0.977075 -4.140621,0.854977 -4.831445,-0.142469 z m 69.789927,0.176661 c 1.258992,-1.116015 3.502378,-1.422764 3.758559,-0.513927 0.120631,0.427934 -0.871882,0.892535 -2.20558,1.032447 -1.608773,0.168768 -2.131449,-0.0058 -1.552979,-0.51852 z m -68.736827,-2.97779 c -1.25251,-1.117674 -0.482535,-1.893717 1.380549,-1.391428 3.098313,0.83531 3.891498,1.910137 1.409614,1.910137 -1.214884,0 -2.470458,-0.233419 -2.790163,-0.518709 z M 83.428254,26.17223 c 2.544559,-1.230527 3.80763,-1.03635 2.792526,0.429308 -0.316108,0.456404 -1.630589,0.815808 -2.921074,0.798675 L 80.95337,27.369063 Z M 16.648833,24.256796 c -2.355698,-1.224363 -1.80949,-2.353816 0.653944,-1.352231 1.198898,0.48745 2.179814,1.180199 2.179814,1.539443 0,0.85504 -0.949083,0.792339 -2.833758,-0.187212 z m 63.868575,0.187212 c 0,-1.056777 4.22537,-2.504333 4.816919,-1.650217 0.285765,0.412599 -0.510495,1.099651 -1.769477,1.526784 -2.782176,0.943911 -3.047442,0.954655 -3.047442,0.123433 z M 17.337339,20.936605 c -0.883645,-0.576579 -1.241943,-1.24945 -0.796217,-1.495269 0.445726,-0.245819 1.780357,0.218143 2.965847,1.031025 2.534161,1.737658 0.461608,2.18113 -2.16963,0.464244 z m 62.692775,-0.14351 c 0.930886,-0.628292 2.304169,-1.131213 3.051741,-1.117603 1.086646,0.01979 1.019805,0.253827 -0.333302,1.167092 -0.930886,0.628292 -2.304169,1.131213 -3.051741,1.117603 -1.086647,-0.01979 -1.019805,-0.253827 0.333302,-1.167092 z M 19.868595,18.547269 c -0.930133,-0.606912 -1.453076,-1.315922 -1.162096,-1.575578 0.290979,-0.259655 1.467462,0.225261 2.614406,1.077592 2.368822,1.760347 1.132193,2.184378 -1.45231,0.497986 z m 58.783571,-0.478531 c 2.055888,-1.528347 3.609093,-1.972678 3.609093,-1.032468 0,0.824477 -2.959743,2.565067 -4.359629,2.563846 -0.908704,-7.78e-4 -0.679623,-0.468191 0.750536,-1.531378 z m -56.98976,-2.3083 c -0.86799,-0.855868 -1.223077,-1.544988 -0.789082,-1.531379 1.013609,0.03178 3.840823,1.938077 3.840823,2.589732 0,0.988095 -1.505985,0.465816 -3.051741,-1.058353 z m 53.623446,1.058353 c 0,-0.824476 2.959744,-2.565067 4.35963,-2.563846 0.908703,7.78e-4 0.679622,0.468191 -0.750537,1.531378 -2.055888,1.528347 -3.609093,1.972679 -3.609093,1.032468 z M 24.324858,13.941952 C 23.447873,13.369719 22.8902,12.473579 23.085583,11.95053 c 0.22687,-0.607342 1.112851,-0.231372 2.45178,1.040424 2.220839,2.109489 1.46795,2.699998 -1.212505,0.950998 z M 73.542,14.324905 c 0,-1.042422 3.131156,-3.29165 3.778343,-2.71413 0.321802,0.287157 -0.06513,1.16324 -0.859841,1.946852 C 74.935591,15.061244 73.542,15.42762 73.542,14.324905 Z M 26.949668,11.925057 c -0.903951,-0.891326 -1.375031,-1.8602 -1.046847,-2.1530548 0.827369,-0.7383012 3.451369,1.7364818 3.031876,2.8594708 -0.21608,0.578468 -0.945037,0.319054 -1.985029,-0.706416 z m 43.976554,0.871845 c 0,-0.346143 0.556472,-1.308445 1.236601,-2.138447 1.622383,-1.9798871 2.708428,-0.9767982 1.229851,1.135907 -1.147489,1.639625 -2.466452,2.175743 -2.466452,1.00254 z M 29.28352,9.5465012 c -2.11232,-3.018239 -0.31235,-3.3988139 1.889891,-0.3995884 1.056329,1.4386142 1.137061,1.9451542 0.310022,1.9451542 -0.615039,0 -1.604998,-0.695504 -2.199913,-1.5455658 z m 39.054652,0.9620198 c 0.04961,-1.0434315 2.555684,-3.5949984 3.075422,-3.1312144 0.601036,0.5363366 -1.487497,3.7147604 -2.440965,3.7147604 -0.364204,0 -0.649707,-0.262595 -0.634457,-0.583546 z M 65.396468,9.7348591 C 65.086063,9.286673 65.601667,8.0957167 66.542257,7.0882893 67.808137,5.7324661 68.25996,5.5717084 68.281436,6.4695014 68.323026,8.2096786 66.090373,10.736748 65.396468,9.7348591 Z M 32.592156,8.030971 C 31.498168,6.2068892 31.458016,5.6456352 32.42152,5.6456352 c 0.402586,0 1.178905,0.8753195 1.725158,1.9451544 1.167151,2.2858471 -0.213168,2.6767024 -1.554522,0.4401814 z M 36.119829,7.3195479 C 34.974798,5.4103633 34.907259,4.0895116 35.95466,4.0895116 c 0.854034,0 2.170058,3.8536902 1.515494,4.4377878 -0.224268,0.2001222 -0.831913,-0.3433653 -1.350325,-1.2077515 z m 26.087134,1.099955 c 0,-1.4073851 1.906466,-4.3321481 2.581267,-3.9599941 0.957157,0.5278729 -0.665035,4.2983731 -1.849302,4.2983731 -0.402577,0 -0.731965,-0.1522705 -0.731965,-0.338379 z M 39.216701,6.8013915 c -0.786042,-1.8278819 -0.681986,-3.4899417 0.218496,-3.4899417 1.082609,0 1.941316,3.3380057 1.060837,4.1237049 -0.400179,0.3570953 -0.975877,0.071901 -1.279333,-0.6337632 z m 20.101144,0.6075744 c -0.5556,-0.8411338 0.92909,-4.0975161 1.86818,-4.0975161 0.923396,0 0.257236,3.7387837 -0.766772,4.303529 -0.389166,0.2146236 -0.884795,0.1219176 -1.101408,-0.2060129 z M 42.67999,5.9665615 c -0.76406,-1.7767639 -0.646838,-3.4331734 0.242954,-3.4331734 0.987151,0 1.828001,3.8081229 0.948001,4.2934413 C 43.505957,7.0281249 42.970019,6.6410041 42.67999,5.9665615 Z M 56.103482,5.348442 c 0,-1.0698349 0.392366,-2.1615451 0.871926,-2.426023 0.492472,-0.2715988 0.871926,0.3656446 0.871926,1.4642858 0,1.0698349 -0.392367,2.161545 -0.871926,2.426023 C 56.482935,7.0843266 56.103482,6.4470831 56.103482,5.348442 Z m -9.881824,0.5565468 c -0.912785,-0.8145194 -0.679196,-4.1496625 0.290639,-4.1496625 0.479559,0 0.871926,1.0503834 0.871926,2.3341853 0,2.4173329 -0.177498,2.6945081 -1.162565,1.8154772 z m 2.906416,-1.8154772 c 0,-1.2838019 0.392367,-2.3341853 0.871926,-2.3341853 0.47956,0 0.871926,1.0503834 0.871926,2.3341853 0,1.2838019 -0.392366,2.3341853 -0.871926,2.3341853 -0.479559,0 -0.871926,-1.0503834 -0.871926,-2.3341853 z m 3.487704,0 c 0,-1.2838019 0.392367,-2.3341853 0.871926,-2.3341853 0.479559,0 0.871926,1.0503834 0.871926,2.3341853 0,1.2838019 -0.392367,2.3341853 -0.871926,2.3341853 -0.479559,0 -0.871926,-1.0503834 -0.871926,-2.3341853 z"
       id="path97" />
  </g>
</svg>
