<?xml version="1.0" encoding="UTF-8" standalone="no"?>
<svg
   xmlns:dc="http://purl.org/dc/elements/1.1/"
   xmlns:cc="http://creativecommons.org/ns#"
   xmlns:rdf="http://www.w3.org/1999/02/22-rdf-syntax-ns#"
   xmlns:svg="http://www.w3.org/2000/svg"
   xmlns="http://www.w3.org/2000/svg"
   xmlns:sodipodi="http://sodipodi.sourceforge.net/DTD/sodipodi-0.dtd"
   xmlns:inkscape="http://www.inkscape.org/namespaces/inkscape"
   inkscape:version="1.0rc1 (09960d6f05, 2020-04-09)"
   sodipodi:docname="jaeles.svg"
   viewBox="0 0 512 512"
   height="100"
   width="100"
   id="svg62"
   version="1.1">
  <metadata
     id="metadata68">
    <rdf:RDF>
      <cc:Work
         rdf:about="">
        <dc:format>image/svg+xml</dc:format>
        <dc:type
           rdf:resource="http://purl.org/dc/dcmitype/StillImage" />
        <dc:title></dc:title>
      </cc:Work>
    </rdf:RDF>
  </metadata>
  <defs
     id="defs66" />
  <sodipodi:namedview
     inkscape:current-layer="g70"
     inkscape:window-maximized="1"
     inkscape:window-y="24"
     inkscape:window-x="0"
     inkscape:cy="248.17517"
     inkscape:cx="205.97717"
     inkscape:zoom="0.73535154"
     showgrid="false"
     id="namedview64"
     inkscape:window-height="692"
     inkscape:window-width="1366"
     inkscape:pageshadow="2"
     inkscape:pageopacity="0"
     guidetolerance="10"
     gridtolerance="10"
     objecttolerance="10"
     borderopacity="1"
     bordercolor="#666666"
     pagecolor="#ffffff" />
  <g
     id="g70"
     inkscape:label="Image"
     inkscape:groupmode="layer">
    <path
       inkscape:connector-curvature="0"
       id="path74"
       d="m 402.89261,504.90598 c -24.13556,-5.09823 -42.41466,-22.11324 -49.60387,-46.17349 -1.79969,-6.02308 -2.0889,-8.39668 -2.0889,-17.14464 0,-8.70601 0.29287,-11.13328 2.05406,-17.0243 3.63724,-12.16618 8.4067,-20.24878 17.06409,-28.91774 l 5.32016,-5.32726 -15.04914,-27.28646 c -11.03097,-20.00084 -15.36168,-27.18957 -16.21963,-26.92362 -16.92178,5.24545 -23.80352,6.30425 -36.67454,5.64257 -21.50095,-1.10532 -40.56809,-9.68987 -55.96448,-25.19671 -7.23587,-7.28777 -14.43964,-17.72876 -17.77866,-25.76796 -1.23566,-2.97506 -2.3092,-5.51003 -2.38564,-5.63325 -0.0765,-0.12323 -7.82184,1.53643 -17.21201,3.68813 -10.38925,2.38064 -17.83672,3.71761 -19.0238,3.41515 -4.57003,-1.16438 -7.80309,-5.00143 -7.80309,-9.26083 0,-3.33271 2.37275,-7.42204 5.04721,-8.69862 1.35353,-0.64607 9.6185,-2.82327 18.36658,-4.83823 l 15.9056,-3.66355 -0.21052,-7.84666 c -0.46881,-17.4739 4.75679,-35.08616 14.85877,-50.07966 12.62983,-18.74537 33.77749,-32.60638 55.41326,-36.32004 l 5.32461,-0.91395 v -18.06991 -18.06992 l -6.31146,-1.69085 c -19.71396,-5.28142 -36.23332,-20.09115 -43.51638,-39.012742 -2.98495,-7.754975 -4.08446,-14.001349 -4.08446,-23.203975 0,-13.411136 3.15621,-24.248113 10.21383,-35.069618 21.8265,-33.4667209 67.47703,-39.2021035 97.68676,-12.273034 8.17108,7.283736 15.4582,19.666679 18.66753,31.721586 2.32541,8.734731 2.32343,22.5215 -0.004,31.242142 -6.37493,23.881171 -25.32508,42.360041 -48.55401,47.346501 l -3.80908,0.81773 v 18.29003 18.29003 h 1.85072 c 3.81113,0 17.0425,3.90789 23.5223,6.94732 8.92588,4.18681 16.72403,9.4633 23.48698,15.89213 3.05404,2.90316 5.79964,5.27848 6.10132,5.27848 0.6641,0 19.9484,-13.2483 19.9484,-13.70454 0,-0.17685 -0.9537,-3.05286 -2.11933,-6.39115 -1.92089,-5.50128 -2.11769,-7.09346 -2.10179,-17.00435 0.0156,-9.73748 0.2455,-11.6189 2.09937,-17.18318 2.99454,-8.98788 7.09685,-15.52381 14.21667,-22.65042 7.11983,-7.12661 13.64954,-11.23284 22.62886,-14.23022 5.57481,-1.86093 7.41091,-2.0838 17.16681,-2.0838 9.75591,0 11.59201,0.22287 17.16681,2.0838 8.97932,2.99738 15.50903,7.10361 22.62886,14.23022 7.11982,7.12661 11.22213,13.66254 14.21666,22.65042 1.85388,5.56428 2.08374,7.4457 2.09938,17.18318 0.016,9.95471 -0.17644,11.49477 -2.14686,17.18317 -8.64454,24.95589 -31.80563,40.86155 -57.05867,39.18449 -12.60163,-0.83688 -23.39801,-5.00168 -32.5285,-12.54814 l -4.94606,-4.08798 -7.75624,5.33454 c -4.26593,2.934 -8.804,6.14331 -10.0846,7.13182 l -2.32837,1.79729 2.83663,6.61064 c 5.08514,11.85072 6.37314,18.75661 6.32294,33.90164 -0.0391,11.79886 -0.27319,14.13376 -2.10138,20.96129 -4.83056,18.04002 -16.32721,35.47035 -30.75055,46.6216 l -2.49743,1.93086 15.18925,27.33687 c 8.3541,15.03528 15.62288,27.2854 16.15286,27.22249 0.52998,-0.0629 3.07043,-0.70371 5.64546,-1.42399 2.57502,-0.72028 8.38491,-1.506 12.91087,-1.74604 30.77372,-1.63209 58.29763,19.03156 65.52107,49.19013 2.08158,8.69077 2.08158,21.34213 0,30.03289 -5.4405,22.71464 -22.62805,40.55465 -45.40199,47.1255 -7.34697,2.1198 -22.2418,2.71329 -29.51856,1.17619 z m 25.88884,-20.84438 c 11.75316,-3.83128 21.14188,-11.96067 26.3441,-22.8105 6.36209,-13.26889 6.34171,-26.10129 -0.0626,-39.45614 -5.19105,-10.82465 -14.28725,-18.67773 -26.42007,-22.80944 -6.90974,-2.35303 -19.54334,-2.5684 -25.75021,-0.43899 -15.87544,5.44645 -26.85231,16.7472 -30.84148,31.75146 -1.45473,5.47163 -1.45473,17.10809 0,22.57972 4.45229,16.74617 18.69034,29.73944 36.30364,33.12975 3.87695,0.74626 15.5914,-0.36967 20.42668,-1.94586 z M 328.37304,320.15859 c 23.68617,-6.11458 41.71525,-24.14278 48.06167,-48.05934 2.32581,-8.76482 2.32581,-23.25837 0,-32.02319 -6.34598,-23.9149 -24.35841,-41.92809 -48.06167,-48.06371 -22.14561,-5.73242 -44.61391,0.22268 -61.39777,16.27317 -13.96075,13.35074 -20.45232,28.52315 -20.45232,47.80214 0,19.24481 6.49503,34.45471 20.3855,47.73825 9.6968,9.27308 20.76921,15.04522 33.48607,17.45652 7.86461,1.49125 19.68812,1.01633 27.97852,-1.12384 z m -22.91866,-20.38678 c -20.32198,-3.59102 -36.78536,-22.43569 -36.77211,-42.09088 0.004,-7.36472 3.47647,-11.25514 9.9557,-11.15709 6.16329,0.0933 8.94882,3.35038 9.84903,11.51645 1.32823,12.04871 10.02431,20.70646 22.06133,21.96409 3.7567,0.39249 5.64503,0.10119 10.72539,-1.65456 5.38433,-1.86082 6.53927,-2.01897 9.11113,-1.24769 1.61985,0.48578 3.81917,1.9229 4.88736,3.19358 2.83683,3.37459 3.24285,6.32102 1.43482,10.41228 -1.26764,2.86843 -2.23755,3.78517 -5.71079,5.39769 -7.68595,3.56833 -17.84408,5.02637 -25.54186,3.66613 z m 38.50043,-33.6444 c -6.46988,-1.70474 -9.40189,-9.45839 -5.8079,-15.35887 1.5898,-2.61006 5.55401,-4.83457 8.61549,-4.83457 5.54193,0 10.79313,6.5581 9.74198,12.16654 -1.06395,5.67672 -7.01732,9.48459 -12.54957,8.0269 z M 457.15526,197.8754 c 7.38275,-1.89757 12.86961,-4.97212 17.98195,-10.07614 21.41235,-21.37746 9.61404,-57.13656 -20.54909,-62.28157 -10.88815,-1.85722 -22.60429,1.86392 -30.62703,9.72739 -6.81548,6.68019 -10.43534,14.11899 -11.37058,23.36644 -2.45366,24.2615 21.3473,45.23139 44.56475,39.26388 z M 324.88632,113.47946 c 14.94337,-4.39378 26.75809,-16.744112 30.74288,-32.136574 5.84212,-22.566964 -8.10903,-46.994183 -30.61861,-53.610476 -24.13582,-7.094299 -49.52804,7.40153 -55.9072,31.916105 -1.54206,5.926006 -1.54206,15.95189 0,21.877899 4.23803,16.286421 17.47728,29.093986 33.90959,32.803916 6.02488,1.36025 15.62315,0.98687 21.87334,-0.85087 z M 60.207538,375.9274 C 39.433186,372.16474 21.206005,357.985 12.424164,338.75458 -0.18584653,311.14123 8.0836356,278.14626 32.203247,259.83667 c 27.878397,-21.16294 68.073803,-16.37252 90.014073,10.72772 15.02132,18.55408 18.78888,44.07863 9.72599,65.89182 -6.66905,16.05148 -20.68519,29.85953 -36.510188,35.96811 -11.469505,4.42733 -23.511025,5.62482 -35.225584,3.50308 z m 21.977829,-20.02782 c 9.047939,-2.17636 18.412113,-8.03576 24.498873,-15.3296 5.91314,-7.08577 10.58796,-19.90208 10.58796,-29.02753 0,-11.19419 -5.2111,-23.36284 -13.55998,-31.66451 -14.338592,-14.2575 -34.581261,-17.61239 -52.697971,-8.73383 -7.512009,3.68145 -16.330146,12.61101 -19.91476,20.16638 -3.737984,7.87863 -5.367996,15.86914 -4.806262,23.56087 2.046918,28.02803 28.675262,47.57485 55.89214,41.02822 z M 155.0847,298.06881 c -8.55505,-7.84759 1.27143,-21.4806 11.14113,-15.45695 5.7542,3.51188 6.45169,10.88084 1.46304,15.45695 -2.27081,2.08303 -3.40238,2.5389 -6.30209,2.5389 -2.89971,0 -4.03127,-0.45587 -6.30208,-2.5389 z"
       style="fill:#000000;stroke-width:0.780684" />
  </g>
</svg>
