<?xml version="1.0" encoding="UTF-8" standalone="no"?>
<svg
   xmlns:dc="http://purl.org/dc/elements/1.1/"
   xmlns:cc="http://creativecommons.org/ns#"
   xmlns:rdf="http://www.w3.org/1999/02/22-rdf-syntax-ns#"
   xmlns:svg="http://www.w3.org/2000/svg"
   xmlns="http://www.w3.org/2000/svg"
   viewBox="0 0 500 500"
   height="100"
   width="100"
   id="svg834"
   version="1.1">
  <metadata
     id="metadata840">
    <rdf:RDF>
      <cc:Work
         rdf:about="">
        <dc:format>image/svg+xml</dc:format>
        <dc:type
           rdf:resource="http://purl.org/dc/dcmitype/StillImage" />
        <dc:title></dc:title>
      </cc:Work>
    </rdf:RDF>
  </metadata>
  <defs
     id="defs838" />
  <path
     id="path846"
     d="m 219.0325,491.5285 c -15.29431,-4.88631 -25.0662,-13.68522 -47.57038,-42.83379 -12.97814,-16.80995 -20.68987,-24.70072 -24.64023,-25.21231 -5.6161,-0.72729 -5.74993,-0.19341 -5.74993,22.93814 0,21.31275 0.49305,23.79871 4.92681,24.84131 4.72974,1.11221 8.34526,12.70238 5.96526,19.12273 -0.6303,1.70031 -11.52676,2.58497 -31.8395,2.58497 H 89.243244 v -10.32408 c 0,-8.62818 0.876501,-10.44639 5.335921,-11.06871 5.198939,-0.72552 5.34862,-2.17529 5.830735,-56.47111 0.31545,-35.52846 -0.444461,-55.97475 -2.096631,-56.41144 -1.42529,-0.37673 -4.923728,2.64601 -7.774307,6.71717 -11.096995,15.84865 -38.565255,22.5952 -59.686259,14.65973 -9.12981,-3.43023 -10.468701,-6.55797 -7.324901,-17.11144 1.432546,-4.80892 2.665707,-5.19635 12.372965,-3.88737 8.529607,1.15019 12.114497,0.48415 17.161421,-3.18835 l 6.379544,-4.64222 0.763334,-65.45599 0.763308,-65.45599 H 54.23235 c -6.387525,0 -6.695181,-0.55173 -5.946204,-10.6638 l 0.789844,-10.66378 31.097229,0.0117 31.097231,0.0117 v 10.07001 c 0,8.66887 -0.8113,10.17366 -5.83073,10.81466 -5.520124,0.70498 -5.830733,1.79118 -5.830733,20.38975 0,10.80481 0.602503,19.64509 1.338893,19.64509 3.79085,0 57.7368,-25.74906 60.7218,-28.98326 2.83492,-3.07158 2.96942,-8.85368 0.72262,-31.06674 -3.11923,-30.83824 -2.88089,-31.34267 13.83469,-29.28247 l 10.65251,1.31293 0.43777,-17.15941 c 0.64061,-25.10954 1.22345,-28.37006 6.32158,-35.3649 4.43949,-6.09115 4.43949,-6.39888 0,-7.65887 -18.00268,-5.10941 -20.38937,-8.96638 -10.61528,-17.154593 13.53158,-11.335991 38.80287,-3.626622 91.50734,27.915663 14.25289,8.53001 27.37421,16.26734 29.15849,17.19411 2.07786,1.07923 4.15099,-0.45976 5.7666,-4.28087 2.9661,-7.01513 7.3994,-7.5242 15.90628,-1.8265 9.76541,6.54066 18.1861,9.71696 31.56641,11.90693 6.83597,1.11885 12.74948,2.42277 13.14114,2.89758 0.39167,0.47481 6.23847,7.06615 12.99289,14.64742 11.22462,12.59871 12.1364,14.55263 10.60185,22.71998 -0.92338,4.91477 -0.89083,13.13036 0.0723,18.25692 1.52537,8.11863 2.64119,9.33057 8.64995,9.39512 8.70056,0.0935 14.66773,4.12509 17.14856,11.58612 1.06374,3.19918 9.25506,22.59452 18.20293,43.10076 20.19192,46.27487 35.03735,85.73098 35.03735,93.12222 0,3.08561 1.30245,8.56217 2.89438,12.17011 3.29291,7.4632 3.03498,36.16329 -0.34187,38.03996 -3.40437,1.89196 -8.49789,14.28947 -9.08627,22.1158 -0.28908,3.84492 -0.68645,8.29736 -0.88306,9.8943 -0.27109,2.20179 -10.74308,2.8308 -43.32746,2.60253 -41.16552,-0.28842 -43.27609,-0.53268 -50.25924,-5.81639 -7.39043,-5.59189 -13.01966,-7.12764 -13.01966,-3.55201 0,1.07982 -4.08151,3.93981 -9.07002,6.35554 -8.41649,4.07576 -9.07002,5.1936 -9.07002,15.5136 v 11.12137 h -24.61865 -24.61863 v -11.37949 c 0,-9.57781 0.85626,-11.58083 5.40825,-12.65123 3.39485,-0.7983 5.08317,-2.77953 4.53501,-5.32177 -1.24104,-5.75587 -5.45997,-6.32776 -11.49769,-1.55852 -2.8639,2.26219 -7.44506,5.25859 -10.18037,6.65868 -3.86642,1.97901 -4.77234,4.57221 -4.07024,11.65127 2.30262,23.2175 2.56629,22.54188 -11.40504,29.22398 -17.21244,8.23221 -30.81914,9.81154 -45.13265,5.23858 z m -77.96054,-10.21022 c 0,-1.28164 -1.61682,-2.33026 -3.59292,-2.33026 -4.81607,0 -7.09615,-14.8574 -6.57063,-42.81556 l 0.42164,-22.43157 h 12.54222 12.54223 l 16.89357,23.26007 c 9.29144,12.79305 22.53412,28.52227 29.42814,34.95382 l 12.53457,11.69375 h 17.57696 c 10.80716,0 20.97161,-1.44851 26.39077,-3.76089 9.88279,-4.21704 12.15572,-9.38237 2.98307,-6.77918 -25.88142,7.34515 -36.05402,0.77917 -70.15985,-45.28528 l -14.59051,-19.70641 9.06451,-6.71868 c 17.56477,-13.01914 22.9626,-30.68908 14.29391,-46.79145 -7.88439,-14.64542 -17.30685,-17.50704 -63.4668,-19.27482 -26.24752,-1.0052 -37.562916,-0.65235 -38.843785,1.21127 -1.040073,1.51327 -0.130868,2.62965 2.141535,2.62965 2.17191,0 5.1561,2.0283 6.63154,4.50731 2.87859,4.83661 3.89246,125.10092 1.10962,131.622 -0.86512,2.0273 -3.19741,3.68597 -5.18287,3.68597 -1.98543,0 -3.609893,1.04862 -3.609893,2.33026 0,1.3593 8.638113,2.33025 20.731493,2.33025 12.09337,0 20.73148,-0.97095 20.73148,-2.33025 z m -8.63811,-73.79141 c -0.9502,-0.85441 -1.72763,-16.05933 -1.72763,-33.7887 v -32.23518 h 9.41723 c 27.46673,0 43.15189,13.17626 43.15189,36.24958 0,10.99361 -1.08657,13.92078 -7.34935,19.79887 -4.04212,3.79387 -11.49713,7.93405 -16.56665,9.20043 -10.6039,2.64887 -24.40001,3.04597 -26.92549,0.775 z m 133.02703,51.0494 c 0,-0.97335 -2.3323,-3.07948 -5.18287,-4.68027 -3.29073,-1.84796 -5.18287,-5.4342 -5.18287,-9.82328 0,-6.28158 0.6507,-6.80208 7.12644,-5.7005 17.91831,3.04804 38.08434,-17.22746 35.99525,-36.19065 -2.01819,-18.3197 -17.56519,-24.05786 -34.22457,-12.63178 l -8.89712,6.10222 v -6.10222 c 0,-6.77223 -3.71486,-7.66549 -14.13098,-3.39791 -7.28677,2.98546 -8.77587,6.61672 -2.71336,6.61672 4.32679,0 4.33177,0.0447 3.88809,34.93918 -0.23711,18.64307 -1.19766,24.89926 -4.04309,26.33116 -7.73657,3.89325 -3.21425,6.30704 11.81646,6.30704 8.55174,0 15.54862,-0.79636 15.54862,-1.76971 z m -5.83073,-28.71025 c -9.05691,-4.74349 -2.43999,-29.03265 9.88233,-36.27573 4.68614,-2.75452 6.08428,-2.52579 11.30732,1.84978 5.06553,4.24363 5.77818,6.69454 4.74844,16.33101 -1.85158,17.32752 -12.80867,24.9714 -25.93809,18.09494 z m 70.61662,28.07659 c 0,-1.32189 -1.74922,-3.00699 -3.88716,-3.7447 -2.32254,-0.80142 -3.88715,-4.31062 -3.88715,-8.7183 0,-7.03539 0.4732,-7.37696 10.21967,-7.37696 22.85517,0 40.32909,-28.95488 27.68912,-45.8818 -7.65312,-10.24874 -18.61845,-11.30351 -29.77261,-2.86386 l -8.13618,6.15616 v -6.0328 c 0,-7.18627 -4.49575,-7.74297 -16.32516,-2.0215 -7.71012,3.72913 -7.88335,4.06835 -2.46275,4.82258 5.69774,0.7928 5.83073,1.49505 5.83073,30.78551 0,27.99967 -0.34391,30.07236 -5.2205,31.46415 -2.87128,0.81946 -4.55167,2.46303 -3.7342,3.65242 2.05039,2.98326 29.68619,2.759 29.68619,-0.2409 z m -4.66458,-28.35599 c -7.3015,-6.56561 -2.00541,-26.0073 9.6736,-35.51143 5.47832,-4.45812 5.59581,-4.45752 10.61245,0.0536 5.68426,5.11134 8.23796,18.03992 5.05179,25.57557 -4.76715,11.27482 -18.03468,16.44945 -25.33784,9.88235 z m 77.84613,6.00276 c 10.38883,-4.83083 17.94184,-12.96514 14.75761,-15.89348 -1.49047,-1.37072 -4.39163,-0.27201 -7.69131,2.91282 -7.53118,7.26902 -21.30536,6.94556 -26.82538,-0.62996 -9.75113,-13.38217 -2.20492,-19.54527 20.50445,-16.74633 13.05475,1.60902 15.30494,-0.18339 11.50712,-9.16557 -8.52735,-20.16812 -39.17776,-14.72977 -46.85555,8.31363 -3.79041,11.37614 -1.39393,19.85323 8.00073,28.30101 8.47195,7.61812 14.95002,8.32624 26.60233,2.90788 z m -21.77936,-37.87393 c 1.90336,-1.0849 3.32478,-2.90392 3.15872,-4.04225 -0.49734,-3.40967 13.3735,-3.85806 15.73484,-0.50865 3.94515,5.59597 2.4148,6.59525 -10.04487,6.55913 -7.7288,-0.0233 -11.02155,-0.7697 -8.84869,-2.00823 z M 231.77221,434.9625 c 0,-1.14453 -1.74922,-2.68453 -3.88715,-3.42226 -3.10218,-1.07043 -3.88715,-6.1206 -3.88715,-25.00827 v -23.66696 l -8.17518,1.47025 c -9.30678,1.67376 -15.73434,5.69463 -13.74049,8.59559 0.74257,1.08045 3.06204,1.37376 5.15433,0.6518 3.12212,-1.07733 3.80416,1.62237 3.80416,15.05782 0,18.42356 -1.51348,23.74246 -6.75586,23.74246 -1.98542,0 -3.60989,1.04861 -3.60989,2.33025 0,1.2946 6.91051,2.33026 15.54861,2.33026 8.55174,0 15.54862,-0.93644 15.54862,-2.08094 z m 225.45492,0.85813 c 0,-0.67253 -2.91537,-2.21952 -6.4786,-3.4377 -5.66426,-1.93649 -6.47737,-3.61346 -6.46889,-13.34129 0.005,-6.97744 1.92452,-13.95042 5.14478,-18.69972 5.89717,-8.69725 9.34494,-9.55635 11.68985,-2.91281 3.02818,8.57929 9.07003,5.47477 9.07003,-4.66051 0,-8.43331 -0.62822,-9.32102 -6.59637,-9.32102 -3.62801,0 -9.45874,2.57388 -12.95718,5.71972 l -6.36081,5.71971 v -5.71971 c 0,-6.85614 -4.67134,-7.34501 -16.32516,-1.70845 -7.71012,3.72913 -7.88335,4.06835 -2.46275,4.82258 5.48729,0.76351 5.83073,1.91268 5.83073,19.50943 0,16.73838 -0.54321,18.82587 -5.18286,19.91688 -11.02726,2.59306 -4.36704,5.3357 12.95717,5.3357 9.97702,0 18.14006,-0.55027 18.14006,-1.22281 z M 69.50547,370.89482 c 4.730873,-1.77745 11.39874,-6.75837 14.817518,-11.06871 6.177127,-7.78799 6.221105,-8.27178 7.039091,-77.42143 0.786449,-66.4844 1.046215,-69.63691 5.83073,-70.76198 11.663581,-2.74268 3.460631,-5.29448 -17.01959,-5.29448 -20.704665,0 -28.660269,2.55718 -16.703099,5.36891 5.246465,1.23371 5.312599,2.28845 4.535012,72.32567 l -0.789092,71.0737 -6.282444,6.00966 c -4.87418,4.66249 -8.795281,6.00963 -17.492191,6.00963 -6.165363,0 -11.209748,0.97172 -11.209748,2.1594 0,5.11864 25.046693,6.19354 37.273813,1.59963 z m 155.26508,-0.57003 c 2.95285,-2.65525 -3.43213,-10.17976 -8.63812,-10.17976 -3.70352,0 -5.0917,1.58828 -5.0917,5.82564 0,4.54954 1.32451,5.82563 6.04667,5.82563 3.3257,0 6.78309,-0.66219 7.68315,-1.47151 z m 36.66878,-0.66319 c 0.80695,-1.1741 0.2239,-5.07522 -1.29566,-8.6692 -2.28366,-5.40106 -1.9762,-7.05172 1.77246,-9.51657 2.49443,-1.64013 3.14632,-2.98207 1.44861,-2.98207 -1.6977,0 -3.08673,-2.09723 -3.08673,-4.66051 0,-5.02802 -6.29795,-6.36353 -9.31412,-1.97513 -2.06244,3.00076 -1.70622,24.77031 0.45683,27.91743 1.82941,2.66176 8.16032,2.58975 10.01861,-0.11395 z M 278.42,368.30302 c -2.57024,-2.7848 -2.57083,-4.91148 -0.003,-10.48615 2.82643,-6.13589 8.29977,-9.97992 7.46839,-5.24517 -0.1687,0.96123 -0.1687,5.68 0,10.48615 0.2423,6.89634 1.33236,8.73845 5.17143,8.73845 4.26044,0 4.70109,-1.37457 3.54822,-11.06871 -1.62958,-13.70264 -4.63422,-17.62961 -11.10595,-14.51513 -7.27605,3.50156 -8.1294,2.87607 -7.22002,-5.29203 0.79296,-7.12231 -0.27197,-8.07187 -7.57899,-6.75774 -1.06897,0.19224 -1.94358,8.73845 -1.94358,18.99157 v 18.64204 h 7.44375 c 6.32087,0 6.95741,-0.52696 4.21966,-3.49328 z m 41.51301,-0.0585 c 4.25669,-4.61207 1.2525,-7.31348 -3.8765,-3.48581 -3.15403,2.35379 -4.73292,2.36321 -7.83695,0.0468 -6.91003,-5.15683 -4.59456,-9.32102 5.18288,-9.32102 9.87487,0 11.3177,-2.30648 4.99777,-7.98944 -5.27902,-4.74696 -6.82144,-4.62698 -15.01404,1.16781 -7.21805,5.10549 -8.57194,11.18872 -4.14546,18.6261 3.26425,5.48458 15.9707,6.07138 20.6923,0.95561 z M 306.92384,350.824 c 0,-1.28164 1.09733,-2.33025 2.43849,-2.33025 1.34118,0 3.15923,1.04861 4.04011,2.33025 0.88088,1.28164 -0.21639,2.33025 -2.43849,2.33025 -2.22206,0 -4.04011,-1.04861 -4.04011,-2.33025 z M 137.74697,323.63003 c 16.88549,-7.20512 23.0886,-23.53597 14.86157,-39.12579 -14.07676,-26.6748 -59.403406,-8.26006 -54.847584,22.2828 2.704914,18.13423 19.943174,25.39535 39.986014,16.84299 z m -20.19726,-9.91085 c -13.17712,-11.84905 -8.91343,-35.13307 6.43344,-35.13307 2.49167,0 7.93905,3.06517 12.10527,6.81152 9.94,8.93818 10.91034,25.7773 1.81549,31.50556 -8.14484,5.12989 -11.73263,4.56865 -20.3542,-3.18401 z m 176.41696,9.00424 c 0,-1.206 -1.61322,-2.19272 -3.58491,-2.19272 -4.85682,0 -6.70335,-7.36766 -6.74546,-26.91444 -0.0207,-9.62911 -1.32239,-17.5856 -3.14509,-19.22461 -5.32805,-4.79105 -15.10931,-3.08376 -23.00397,4.01522 l -7.57498,6.8115 v -6.8115 c 0,-3.74635 -0.99213,-6.81152 -2.20474,-6.81152 -6.21722,0 -18.52674,5.52179 -18.52674,8.31071 0,1.88201 1.59694,2.64326 3.88715,1.853 3.25901,-1.12456 3.88715,1.72322 3.88715,17.62318 0,14.70768 -0.87251,19.26554 -3.88715,20.30577 -8.2608,2.85048 -3.26418,5.5032 10.36575,5.5032 13.84373,0 18.60186,-2.66122 10.04023,-5.61552 -9.84386,-3.39672 1.04927,-36.14882 12.70938,-38.21296 5.14336,-0.91053 6.13906,5.0786 4.46046,26.82929 l -1.29572,16.78949 10.36574,0.70394 c 11.58999,0.78707 14.2529,0.23368 14.2529,-2.96203 z m -108.19244,-1.43404 c -6.5563,-4.11252 -7.34092,-10.83205 -2.84161,-24.3359 3.54954,-10.65325 10.70467,-17.17577 16.60732,-15.13899 3.58973,1.23867 4.1019,4.68116 3.33582,22.42123 l -0.90506,20.95784 12.95719,-0.1235 c 12.53528,-0.11931 12.76732,-0.24249 7.12644,-3.78077 -5.2523,-3.29456 -5.83074,-5.57765 -5.83074,-23.01388 0,-14.4898 -1.02385,-20.27717 -4.07225,-23.01832 -5.96281,-5.36185 -14.90522,-4.47598 -21.8421,2.1638 -3.34749,3.2041 -7.19903,5.82564 -8.55899,5.82564 -1.46323,0 -1.98273,-7.61043 -1.27256,-18.64204 0.66007,-10.25312 0.83352,-18.64204 0.38541,-18.64204 -0.44809,0 -5.5029,1.68678 -11.23289,3.7484 -10.42027,3.74924 -13.85296,7.90297 -6.53104,7.90297 3.2564,0 3.88715,4.92756 3.88715,30.36643 0,24.84278 -0.70708,30.61044 -3.88715,31.70776 -8.67551,2.99358 -2.95075,5.49614 12.30932,5.38098 15.48056,-0.11675 15.93875,-0.2839 10.36574,-3.77961 z m 186.315,-36.92086 c -1.24585,-9.44725 -11.63,-33.79226 -19.68674,-46.15447 -8.42663,-12.92971 -8.30517,-14.56585 1.30483,-17.57827 6.91499,-2.16762 7.55772,-3.07535 5.10073,-7.20358 -1.54621,-2.59791 -6.22202,-6.991 -10.39076,-9.76244 -7.98836,-5.31079 -12.98116,-14.93344 -12.99734,-25.04977 -0.005,-3.33325 -2.3376,-9.49381 -5.18287,-13.69011 -2.84524,-4.19632 -5.17318,-9.57923 -5.17318,-11.96206 0,-2.52304 -2.43512,-4.91921 -5.83073,-5.73748 -9.6574,-2.32725 -12.66443,-1.67669 -12.06031,2.60921 0.31616,2.24287 -0.27848,6.81271 -1.32138,10.15518 -1.1968,3.83574 -0.39926,9.29883 2.16233,14.81165 4.20473,9.04911 3.39183,13.97513 -1.91689,11.61577 -1.68311,-0.74804 1.92168,2.69142 8.0107,7.64323 l 11.07092,9.00331 -14.31021,16.98509 c -7.87064,9.3418 -14.31023,18.25313 -14.31023,19.80296 0,3.30808 20.28722,17.1977 34.6212,23.7034 5.50141,2.49691 15.3065,10.09 21.78908,16.87358 13.17154,13.78309 20.62181,15.31626 19.12085,3.9348 z M 347.99171,161.65333 c 2.81281,-3.31609 2.49402,-4.31351 -2.08256,-6.51597 -7.98012,-3.84038 -11.26113,-0.70609 -5.94833,5.68232 2.49635,3.00177 4.5773,5.2983 4.62429,5.10342 0.0469,-0.19481 1.57995,-2.11629 3.4066,-4.26977 z m -56.61648,-50.14079 c -23.2857,-10.34025 -66.22162,-24.00731 -75.42044,-24.00731 -3.83416,0 -5.0157,-1.061221 -3.95331,-3.550725 0.8334,-1.952894 4.1189,-20.30365 7.30111,-40.779459 l 5.78587,-37.228734 10.46831,0.082957 c 26.34389,0.2087909 88.96648,20.575685 108.54749,35.302965 l 7.37888,5.549828 -12.8999,23.224368 c -7.09494,12.773408 -13.75348,25.732584 -14.79671,28.798174 -1.04324,3.065566 -3.80644,9.357256 -6.14044,13.981526 l -4.24365,8.40775 z"
     style="fill:#000000;stroke-width:2.45737767" />
</svg>
