<?xml version="1.0" encoding="UTF-8" standalone="no"?>
<!-- Created with Inkscape (http://www.inkscape.org/) -->

<svg
   xmlns:dc="http://purl.org/dc/elements/1.1/"
   xmlns:cc="http://creativecommons.org/ns#"
   xmlns:rdf="http://www.w3.org/1999/02/22-rdf-syntax-ns#"
   xmlns:svg="http://www.w3.org/2000/svg"
   xmlns="http://www.w3.org/2000/svg"
   xmlns:sodipodi="http://sodipodi.sourceforge.net/DTD/sodipodi-0.dtd"
   xmlns:inkscape="http://www.inkscape.org/namespaces/inkscape"
   version="1.1"
   id="svg64"
   width="100"
   height="100"
   viewBox="0 0 512 512"
   sodipodi:docname="katana.svg"
   inkscape:version="0.92.5 (2060ec1f9f, 2020-04-08)">
  <metadata
     id="metadata70">
    <rdf:RDF>
      <cc:Work
         rdf:about="">
        <dc:format>image/svg+xml</dc:format>
        <dc:type
           rdf:resource="http://purl.org/dc/dcmitype/StillImage" />
        <dc:title></dc:title>
      </cc:Work>
    </rdf:RDF>
  </metadata>
  <defs
     id="defs68" />
  <sodipodi:namedview
     pagecolor="#ffffff"
     bordercolor="#666666"
     borderopacity="1"
     objecttolerance="10"
     gridtolerance="10"
     guidetolerance="10"
     inkscape:pageopacity="0"
     inkscape:pageshadow="2"
     inkscape:window-width="1366"
     inkscape:window-height="692"
     id="namedview66"
     showgrid="false"
     inkscape:zoom="0.77624611"
     inkscape:cx="239.49994"
     inkscape:cy="256"
     inkscape:window-x="0"
     inkscape:window-y="24"
     inkscape:window-maximized="1"
     inkscape:current-layer="svg64" />
  <path
     style="fill:#000000;stroke-width:2.22895217"
     d="M 25.303575,494.81251 C 15.591949,489.24523 10.079834,477.4396 12.642222,467.69492 14.04287,462.36831 27.855481,447.87325 66.732886,410.93179 l 52.209694,-49.60986 -11.40822,-10.72665 c -14.23894,-13.38825 -14.500862,-17.9437 -1.73491,-30.17414 12.96112,-12.41742 18.43539,-12.22322 32.44557,1.15105 l 10.91394,10.41856 33.33931,-31.34751 33.33931,-31.34751 -92.93215,-87.67862 C 65.042884,127.02559 28.259788,90.676006 25.432648,85.293113 18.044513,71.226067 15.771544,62.590285 13.469311,39.84034 11.113939,16.565297 12.874749,11.075871 21.837924,13.750707 27.878608,15.553398 173.13174,155.38357 173.13174,159.39605 c 0,1.77889 -1.80941,4.30753 -4.02092,5.61917 -3.46043,2.05237 -13.51042,-6.50141 -72.096167,-61.36276 L 28.939421,39.904878 30.242767,51.249797 c 2.73926,23.84378 4.355745,25.700353 104.415723,119.923593 l 93.49541,88.04159 7.5437,-6.87483 c 4.14906,-3.78116 7.54372,-7.88627 7.54372,-9.12247 0,-1.23621 -13.17961,-14.66745 -29.28806,-29.8472 -24.96242,-23.52332 -28.91512,-28.15635 -26.76304,-31.36956 5.3035,-7.91845 9.95231,-5.22235 37.95628,22.01293 15.36526,14.94351 29.08421,27.2072 30.48651,27.25263 1.40233,0.0454 42.41977,-37.98005 91.14988,-84.50109 74.93026,-71.533465 89.46758,-84.46814 94.22218,-83.834715 3.30053,0.439726 5.9652,2.440807 6.45316,4.846167 0.61124,3.013044 -37.25965,39.915758 -143.1203,139.461348 l -143.95147,135.36414 8.72698,8.01256 8.72698,8.01255 64.30721,-60.61516 c 35.369,-33.33835 66.18358,-61.59434 68.47685,-62.7911 4.88393,-2.5487 10.77177,0.96653 10.77177,6.43106 0,1.90025 -5.71225,8.88265 -12.6939,15.5164 l -12.6939,12.06138 33.11234,31.55982 33.11234,31.55983 11.10193,-10.59803 c 14.05398,-13.41609 19.27811,-13.65799 32.45048,-1.50263 13.0941,12.08315 12.85334,16.80171 -1.54834,30.34299 l -11.40474,10.72336 51.05688,48.43891 c 57.38588,54.44342 60.65466,58.9578 53.15287,73.40697 -5.88921,11.34323 -17.4979,17.22905 -29.78892,15.10354 -7.95684,-1.37598 -15.57188,-7.64115 -61.28036,-50.41768 l -52.19449,-48.84643 -11.49526,10.11008 c -14.55815,12.80391 -20.52728,13.11817 -32.65074,1.719 -12.37096,-11.63188 -11.98942,-17.71254 1.94608,-31.01551 l 10.87034,-10.37696 -33.30216,-31.31259 -33.30216,-31.31258 -33.25277,31.32203 -33.25278,31.32203 10.86044,10.36752 c 13.92492,13.29287 14.3048,19.37636 1.93618,31.00606 -12.12847,11.40388 -18.09097,11.08631 -32.6749,-1.74025 L 157.94126,398.95813 106.9203,446.81 C 48.30569,501.78384 42.954555,504.93108 25.303575,494.81251 Z M 53.55946,475.45549 c 4.915449,-4.73315 8.487192,-8.97901 7.937204,-9.43525 -0.549988,-0.45626 -5.319917,-3.35885 -10.599846,-6.45023 l -9.599869,-5.62066 -7.065521,7.56641 c -7.99172,8.55828 -8.751314,12.88886 -3.261243,18.59288 5.918239,6.14888 12.855117,4.71997 22.589275,-4.65315 z m 426.83901,5.02869 c 6.00593,-5.11057 5.2211,-10.31245 -2.86185,-18.96842 l -7.0655,-7.56641 -9.59989,5.62066 c -5.27992,3.09138 -10.04985,5.99397 -10.59983,6.45023 -0.55001,0.45624 3.02174,4.7021 7.93718,9.43525 9.65572,9.29758 15.5921,10.64289 22.18989,5.02869 z M 91.528794,438.77094 c 0,-0.65236 -4.694272,-3.52761 -10.431716,-6.38947 l -10.431714,-5.2034 -7.957682,7.25209 c -4.376725,3.98866 -7.957681,7.93514 -7.957681,8.77 0,0.83484 4.396215,3.97908 9.769367,6.98718 l 9.769367,5.4693 8.62003,-7.84981 c 4.741016,-4.31739 8.620029,-8.38355 8.620029,-9.03589 z m 364.924456,4.73722 c 0.34494,-0.973 -2.99915,-5.07387 -7.43132,-9.11303 l -8.05849,-7.34397 -9.78743,5.06829 c -5.38308,2.78755 -10.2374,5.4203 -10.78738,5.85056 -0.55001,0.43026 2.98067,4.61529 7.84593,9.3001 l 8.84589,8.51781 9.37283,-5.25535 c 5.15505,-2.89045 9.65503,-6.05144 9.99997,-7.02441 z m -343.31702,-24.06586 8.74841,-8.42393 -10.73935,-5.91767 -10.73935,-5.91768 -9.032741,8.2933 -9.032742,8.29327 9.766187,5.90959 c 5.371403,3.25025 10.332066,5.97201 11.023686,6.04831 0.69162,0.0763 5.19428,-3.65203 10.0059,-8.28519 z m 305.95762,2.37592 10.33441,-6.04803 -9.03308,-8.29357 -9.03308,-8.2936 -10.73934,5.91768 -10.73934,5.91767 8.74841,8.42393 c 4.81161,4.63316 9.05874,8.42392 9.43802,8.42392 0.37928,0 5.34009,-2.7216 11.024,-6.048 z M 157.8166,361.59331 c -35.50129,-33.42639 -37.56468,-34.99347 -41.57866,-31.5779 -4.03125,3.43027 -2.52255,5.19555 33.13149,38.76575 35.50128,33.42638 37.56467,34.99346 41.57865,31.57789 4.03126,-3.43027 2.52255,-5.19555 -33.13148,-38.76574 z m 237.76505,-31.52944 c -3.64822,-3.79041 -5.52566,-2.37184 -41.22888,31.15211 -35.55027,33.38032 -37.21693,35.32043 -33.58433,39.09461 3.64823,3.79042 5.52567,2.37184 41.22889,-31.1521 35.55027,-33.38033 37.21692,-35.32044 33.58432,-39.09462 z m -255.07013,63.65147 6.16802,-6.05341 -8.71398,-8.0006 -8.71398,-8.00063 -8.73178,8.40793 -8.73179,8.40793 9.9838,5.62564 c 5.49109,3.09411 10.56607,5.63486 11.27774,5.6461 0.71167,0.0108 4.06955,-2.70358 7.46197,-6.03296 z m 249.34827,0.40469 10.25124,-5.64872 -9.19985,-8.6502 -9.19982,-8.65022 -8.17101,8.35524 -8.17098,8.35522 6.02761,5.9437 c 3.31517,3.26903 6.51899,5.9437 7.11957,5.9437 0.6006,0 5.70505,-2.54192 11.34324,-5.64872 z m -71.84746,-82.88785 -33.3663,-31.37288 -8.6003,8.08649 -8.60029,8.0865 33.23387,31.3042 33.23387,31.30423 8.73271,-8.01782 8.73271,-8.01783 z m 20.86992,-96.43517 c -0.76741,-1.88032 -1.39527,-4.01511 -1.39527,-4.74395 0,-0.72885 29.94191,-29.58522 66.53757,-64.12526 71.10743,-67.113252 74.81268,-71.637422 77.54057,-94.678003 l 1.34318,-11.344919 -8.1177,7.238689 c -6.0305,5.37749 -9.35889,6.868255 -12.94512,5.798044 -8.10186,-2.41781 -5.51737,-8.332567 10.72171,-24.53729 23.72928,-23.6790858 29.0143,-21.3124348 25.71131,11.513633 -4.22753,42.014614 -5.05087,43.177461 -82.24547,116.159196 -65.41163,61.84184 -73.39642,67.91908 -77.15078,58.71986 z"
     id="path74"
     inkscape:connector-curvature="0" />
</svg>
