<?xml version="1.0" encoding="UTF-8" standalone="no"?>
<svg
   xmlns:dc="http://purl.org/dc/elements/1.1/"
   xmlns:cc="http://creativecommons.org/ns#"
   xmlns:rdf="http://www.w3.org/1999/02/22-rdf-syntax-ns#"
   xmlns:svg="http://www.w3.org/2000/svg"
   xmlns="http://www.w3.org/2000/svg"
   version="1.1"
   id="svg885"
   width="100"
   height="100"
   viewBox="0 0 512 512">
  <metadata
     id="metadata891">
    <rdf:RDF>
      <cc:Work
         rdf:about="">
        <dc:format>image/svg+xml</dc:format>
        <dc:type
           rdf:resource="http://purl.org/dc/dcmitype/StillImage" />
        <dc:title></dc:title>
      </cc:Work>
    </rdf:RDF>
  </metadata>
  <defs
     id="defs889" />
  <g
     id="g893">
    <path
       style="fill:#000000;stroke-width:1.06715"
       d="m 93.066956,503.04714 c -4.349255,-2.65309 -6.821487,-7.20221 -6.821487,-12.55211 0,-3.23104 8.271571,-21.41368 37.693831,-82.85894 l 37.69383,-78.71954 -75.154215,-0.52576 -75.154225,-0.52575 -2.0837621,-2.49887 c -4.4965466,-5.3923 -3.3981318,-12.52813 2.3745761,-15.42646 4.614174,-2.31665 484.736496,-2.30616 489.351076,0.0107 3.58378,1.79933 4.40955,3.47899 4.40955,8.96928 0,3.20543 -0.67954,4.58176 -3.33217,6.74885 l -3.33217,2.72222 h -74.03414 -74.03414 l 4.1503,8.67499 c 2.28267,4.77125 19.33481,40.37814 37.89365,79.12643 23.64189,49.36101 33.7635,71.57719 33.81066,74.21199 0.0766,4.27468 -2.09599,8.93514 -5.60076,12.01463 -1.86322,1.63713 -3.91319,2.10055 -9.29198,2.10055 -6.05082,0 -7.26111,-0.34929 -9.82052,-2.83425 -1.72601,-1.67578 -11.4655,-20.58674 -23.82816,-46.26662 l -20.90896,-43.43236 -100.47603,-0.26825 -100.47604,-0.26825 -20.55684,42.85456 c -12.72217,26.52174 -21.83725,44.21876 -23.91642,46.43399 -2.87359,3.06163 -4.2079,3.64051 -9.22389,4.00171 -4.535977,0.32664 -6.649696,-0.0568 -9.331564,-1.69277 z M 341.83936,381.09331 c 0,-0.50858 -5.53475,-12.45641 -12.29944,-26.55072 l -12.29944,-25.62604 -60.61132,-0.27155 -60.61132,-0.27154 -12.23304,25.50787 c -6.72816,14.02934 -12.47201,26.09937 -12.76408,26.82228 -0.42213,1.04479 17.0427,1.31439 85.14379,1.31439 48.56107,0 85.67485,-0.40057 85.67485,-0.92469 z M 47.086046,285.5416 C 46.881994,282.21619 46.84712,226.61739 47.008502,161.98872 L 47.301991,44.482028 H 256.30307 465.30417 V 168.03492 291.58781 H 256.38062 47.457037 Z m 24.763053,-7.87409 c -0.259049,-1.30799 -0.480841,-0.48544 -0.492863,1.82789 -0.01202,2.31333 0.199937,3.38351 0.471008,2.37816 0.27107,-1.00534 0.280904,-2.89806 0.02188,-4.20605 z m 4.3321,0 c -0.259049,-1.30799 -0.480841,-0.48544 -0.492863,1.82789 -0.01202,2.31333 0.199937,3.38351 0.471008,2.37816 0.27107,-1.00534 0.280904,-2.89806 0.02188,-4.20605 z m 33.890811,1.92682 c 0,-3.44126 -0.1056,-3.53382 -2.69911,-2.3659 -1.48452,0.6685 -2.70292,1.69472 -2.70757,2.2805 -0.008,0.88951 0.91642,1.5256 5.13592,3.53766 0.14892,0.071 0.27076,-1.48251 0.27076,-3.45226 z m 3.24907,-0.0989 c 0,-1.37757 -0.38989,-2.73863 -0.86642,-3.02457 -0.47653,-0.28595 -0.86642,1.07511 -0.86642,3.02457 0,1.94945 0.38989,3.31051 0.86642,3.02456 0.47653,-0.28594 0.86642,-1.647 0.86642,-3.02456 z m 297.31905,0.43803 c 0.89887,-2.74971 -0.31581,-4.27867 -3.10295,-3.90577 -3.96532,0.53054 -4.95983,2.87778 -2.30952,5.45098 1.98551,1.92774 4.51305,1.20615 5.41247,-1.54521 z m -4.36078,0.0877 c -0.43229,-0.67912 -0.29864,-1.70793 0.29703,-2.28626 0.72202,-0.70102 1.34503,-0.63993 1.86902,0.18323 0.43229,0.67912 0.29863,1.70794 -0.29703,2.28627 -0.72202,0.70101 -1.34503,0.63993 -1.86902,-0.18324 z m 22.05452,-0.26288 c -0.10667,-2.47133 -0.27742,-2.76243 -0.61683,-1.05151 -0.35631,1.79603 -1.21568,2.36591 -3.56778,2.36591 -2.3521,0 -3.21147,-0.56988 -3.56778,-2.36591 -0.33941,-1.71092 -0.51018,-1.41982 -0.61683,1.05151 -0.14284,3.30985 -0.0112,3.41742 4.18461,3.41742 4.19574,0 4.32745,-0.10757 4.18461,-3.41742 z m 11.4416,2.62879 c -0.5391,-0.43375 -1.34391,-1.26182 -1.78845,-1.84015 -0.46128,-0.60008 -0.81541,-0.26149 -0.82488,0.78863 -0.01,1.02291 0.78507,1.84015 1.78846,1.84015 0.99277,0 1.36397,-0.35488 0.82487,-0.78863 z m 4.95126,-0.78864 c 0,-0.8675 -0.19154,-1.57727 -0.42564,-1.57727 -0.2341,0 -0.70616,0.70977 -1.04903,1.57727 -0.34287,0.8675 -0.15133,1.57727 0.42563,1.57727 0.57698,0 1.04904,-0.70977 1.04904,-1.57727 z m -350.087817,-0.8218 c 0.805153,0.2803 1.353777,-0.41648 1.353777,-1.71936 0,-1.20486 -0.487357,-2.19065 -1.083021,-2.19065 -0.595664,0 -1.083025,0.56782 -1.083025,1.26182 0,0.98141 -0.28881,0.98141 -1.29963,0 -2.02569,-1.96675 -3.03247,-1.50065 -3.03247,1.40396 0,2.19838 0.332315,2.49983 1.895294,1.71936 1.042411,-0.52053 2.504495,-0.73434 3.249075,-0.47513 z m 27.581027,-3.05127 c -0.70487,-0.68437 -1.65523,-0.85617 -2.1119,-0.3818 -0.45668,0.47436 -0.21809,1.07472 0.53021,1.33409 0.74829,0.25939 1.04231,1.02268 0.65339,1.6962 -0.45452,0.78709 -0.18609,0.75501 0.75137,-0.0898 1.12298,-1.01202 1.16369,-1.60063 0.17693,-2.55868 z m 20.34282,0.65647 c 0,-0.83337 -0.38293,-1.51521 -0.85095,-1.51521 -0.46803,0 -0.85095,0.91162 -0.85095,2.02583 0,1.1142 0.38292,1.79604 0.85095,1.51521 0.46802,-0.28083 0.85095,-1.19246 0.85095,-2.02583 z m -14.07933,0.062 c 0,-0.8675 -0.47207,-1.57727 -1.04904,-1.57727 -0.57696,0 -0.7685,0.70977 -0.42564,1.57727 0.34288,0.8675 0.81494,1.57727 1.04904,1.57727 0.2341,0 0.42564,-0.70977 0.42564,-1.57727 z m 3.64073,0 c -0.34287,-0.8675 -1.04332,-1.57727 -1.55655,-1.57727 -0.51325,0 -0.65265,0.70977 -0.30978,1.57727 0.34287,0.8675 1.04332,1.57727 1.55655,1.57727 0.51325,0 0.65265,-0.70977 0.30978,-1.57727 z m 14.07933,0 c -0.34288,-0.8675 -1.04332,-1.57727 -1.55656,-1.57727 -0.51324,0 -0.65264,0.70977 -0.30978,1.57727 0.34288,0.8675 1.04332,1.57727 1.55656,1.57727 0.51324,0 0.65264,-0.70977 0.30978,-1.57727 z m 3.59724,-0.72292 c -0.34572,-0.83882 -0.60235,-0.58966 -0.65432,0.6353 -0.047,1.10846 0.20894,1.72952 0.56883,1.38011 0.35988,-0.34941 0.39835,-1.25635 0.0854,-2.01541 z m 5.23588,-1.66774 c -0.13781,-0.15819 -1.06379,0.0154 -2.05775,0.38568 -1.4622,0.54477 -1.55321,0.97042 -0.47677,2.22972 1.15772,1.35438 1.42484,1.30431 2.05775,-0.38567 0.40002,-1.06815 0.61457,-2.07153 0.47677,-2.22973 z m 284.81651,0.57887 c 0.61806,-0.44785 0.26933,-0.79168 -0.81227,-0.80088 -1.05355,-0.009 -1.89529,0.76224 -1.89529,1.73643 0,0.96388 0.36552,1.32428 0.81227,0.80087 0.44675,-0.52341 1.29963,-1.30481 1.89529,-1.73642 z m 4.87361,0.7603 c 0,-0.8675 -0.75025,-1.57727 -1.66724,-1.57727 -1.3775,0 -1.42454,0.26714 -0.27075,1.53727 1.77527,1.95425 1.93799,1.95761 1.93799,0.04 z m 4.3321,-6.83484 c 0,-0.69627 -54.15125,-1.05152 -160.2877,-1.05152 -106.13645,0 -160.2877,0.35525 -160.2877,1.05152 0,0.69627 54.15125,1.05151 160.2877,1.05151 106.13645,0 160.2877,-0.35524 160.2877,-1.05151 z M 263.86156,170.93732 c 13.40243,-9.45323 24.36806,-17.6251 24.36806,-18.15971 0,-0.94528 -47.21906,-34.39218 -50.03436,-35.44109 -1.14038,-0.42487 -1.40933,6.43102 -1.40933,35.92672 0,28.88443 0.28105,36.28675 1.35378,35.65678 0.74458,-0.43726 12.31941,-8.52947 25.72185,-17.9827 z M 9.7064554,24.089107 C 5.4703005,20.551339 5.4539685,14.138969 9.6707155,10.044948 L 12.649035,7.1532843 H 256.21774 499.7865 l 2.79482,2.5491999 c 3.87746,3.5366988 3.94501,10.6251068 0.13648,14.3228188 l -2.65833,2.580989 H 256.39001 12.720547 Z"
       id="path897" />
  </g>
</svg>
