<?xml version="1.0" encoding="UTF-8" standalone="no"?>
<svg
   xmlns:dc="http://purl.org/dc/elements/1.1/"
   xmlns:cc="http://creativecommons.org/ns#"
   xmlns:rdf="http://www.w3.org/1999/02/22-rdf-syntax-ns#"
   xmlns:svg="http://www.w3.org/2000/svg"
   xmlns="http://www.w3.org/2000/svg"
   version="1.1"
   id="svg885"
   width="100"
   height="100"
   viewBox="0 0 512 512">
  <metadata
     id="metadata891">
    <rdf:RDF>
      <cc:Work
         rdf:about="">
        <dc:format>image/svg+xml</dc:format>
        <dc:type
           rdf:resource="http://purl.org/dc/dcmitype/StillImage" />
        <dc:title></dc:title>
      </cc:Work>
    </rdf:RDF>
  </metadata>
  <defs
     id="defs889" />
  <g
     id="g893">
    <path
       style="fill:#000000;stroke-width:0.639208"
       d="m 226.01536,468.18509 c -4.11356,-1.33379 -8.66235,-5.88153 -10.96841,-10.96587 -2.157,-4.75572 -4.72215,-7.33967 -8.29095,-8.35174 -3.51924,-0.99801 -6.25902,-0.24548 -10.96982,3.01308 -5.26009,3.63851 -9.39537,4.68943 -14.34353,3.64522 -4.79057,-1.01097 -8.76672,-3.68276 -11.23543,-7.54969 -1.94671,-3.04929 -2.3119,-4.10758 -3.87651,-11.23359 -0.83358,-3.79654 -3.00637,-6.53356 -6.5636,-8.26807 -3.32072,-1.61917 -4.86448,-1.5532 -10.66494,0.45581 -3.86663,1.33922 -5.60855,1.61503 -8.21771,1.30116 -4.46752,-0.53741 -8.76579,-2.95534 -11.88244,-6.68427 -3.36848,-4.03023 -4.45639,-8.03682 -4.26428,-15.70455 0.13903,-5.54894 0.0329,-6.12583 -1.6093,-8.74972 -2.5763,-4.11628 -5.60259,-5.32567 -12.94505,-5.17318 -4.89196,0.10159 -6.36205,-0.12051 -8.96574,-1.35453 -6.519052,-3.08972 -10.900158,-9.96179 -10.900158,-17.09767 0,-1.74436 0.695306,-5.41481 1.545126,-8.15655 1.59822,-5.15632 1.588329,-7.5661 -0.0451,-10.99262 -1.293507,-2.71345 -4.990962,-5.73466 -7.559657,-6.17704 -5.184611,-0.8929 -6.195636,-1.19222 -8.889166,-2.63172 -9.20813,-4.92112 -12.271018,-18.31475 -6.205016,-27.1338 2.848207,-4.14087 3.714048,-6.41176 3.703303,-9.71285 -0.01252,-3.85318 -1.959065,-7.75244 -4.918566,-9.85288 l -2.106952,-1.49536 H 36.658858 c -16.050442,0 -29.1826206,-0.17633 -29.1826206,-0.39186 0,-0.21551 7.0063686,-9.88302 15.5697066,-21.48334 8.56334,-11.60033 15.57059,-21.24858 15.571667,-21.44058 0.0012,-0.19198 -7.005293,-9.82997 -15.569708,-21.41774 -8.564416,-11.58776 -15.5716656,-21.24578 -15.5716656,-21.46226 0,-0.21647 13.1085636,-0.3936 29.1301436,-0.3936 h 29.130135 l 2.322782,-1.66228 c 5.872044,-4.20228 6.408132,-11.98425 1.312062,-19.04614 -3.667152,-5.08177 -4.376882,-12.67547 -1.743129,-18.65038 2.864364,-6.49806 7.299473,-9.86403 14.636922,-11.10851 4.342601,-0.73654 7.513995,-2.9185 9.542771,-6.56558 1.560499,-2.80526 1.563078,-8.17746 0.0056,-11.20439 -0.888345,-1.72623 -1.173107,-3.6359 -1.171525,-7.85641 0.0025,-6.71641 1.162126,-9.48864 5.809932,-13.88957 4.026429,-3.81257 7.030539,-4.76839 14.434779,-4.59273 5.59117,0.13264 6.09548,0.0313 8.78609,-1.76576 4.27794,-2.85722 5.76105,-6.50555 5.20142,-12.79512 -0.78973,-8.875626 2.737,-16.064827 9.70496,-19.783474 4.7174,-2.517579 8.70988,-2.708699 14.5232,-0.695234 5.79335,2.006539 7.33109,2.073633 10.69072,0.466435 4.34353,-2.077889 6.39878,-5.558579 7.42949,-12.582322 0.54865,-3.738739 4.03599,-9.224506 7.34797,-11.558745 1.62848,-1.147729 4.53311,-2.430531 6.45473,-2.850661 5.771,-1.261751 8.76487,-0.387769 16.8345,4.914394 2.31573,1.521545 3.64758,1.934413 6.11887,1.896792 5.37067,-0.08177 8.31437,-2.422692 11.18443,-8.894277 2.14505,-4.836777 6.83594,-9.346732 11.1131,-10.684439 4.05448,-1.268062 6.86378,-1.251079 11.0807,0.06699 2.74994,0.859544 4.14081,1.880472 7.43173,5.455031 6.19218,6.725895 8.79327,7.923315 14.13452,6.50687 2.24473,-0.595282 3.79002,-1.779451 7.63543,-5.85112 4.1311,-4.374179 5.34078,-5.263891 8.452,-6.216433 9.20316,-2.817665 17.57775,1.41876 21.97659,11.117215 2.12489,4.684925 4.70282,7.269086 8.25706,8.277026 3.47142,0.984449 6.32084,0.236337 10.62253,-2.788939 3.95753,-2.783389 8.22098,-4.437488 11.43741,-4.437488 3.29219,0 8.077,1.83395 11.07524,4.244984 3.09224,2.486624 6.69052,9.027247 6.69052,12.161402 0,4.652125 2.84675,9.108514 7.16296,11.213094 3.3531,1.634965 5.28845,1.551374 10.84486,-0.468395 3.76638,-1.369097 5.37149,-1.630151 8.01286,-1.303204 4.67991,0.579277 8.43491,2.652712 11.67282,6.445504 3.60782,4.226099 4.69605,8.086195 4.49883,15.957945 -0.13903,5.54895 -0.033,6.12583 1.60931,8.74972 2.57629,4.11629 5.60258,5.32568 12.94505,5.17319 4.89195,-0.10159 6.36205,0.12051 8.96573,1.35453 6.51906,3.08971 10.90017,9.96178 10.90017,17.09766 0,1.74436 -0.69531,5.41481 -1.54513,8.15656 -1.95717,6.31438 -1.5208,9.61364 1.77868,13.44824 1.85911,2.16063 4.21397,3.32296 8.34637,4.11964 7.0341,1.35611 12.75866,6.11121 14.74376,12.24688 1.86996,5.77977 0.89613,12.93656 -2.37755,17.47308 -2.47204,3.42563 -3.50587,6.09646 -3.50587,9.0572 0,3.69705 2.21575,8.27778 4.91933,10.16997 l 2.11643,1.48125 h 29.18261 c 16.05045,0 29.18262,0.18257 29.18262,0.4057 0,0.22313 -6.9189,9.74304 -15.37533,21.15536 -8.45644,11.41232 -15.37796,21.19245 -15.38115,21.73363 -0.003,0.54118 6.9157,10.31821 15.37533,21.72672 8.45964,11.40851 15.38115,20.92841 15.38115,21.15535 0,0.22695 -13.13157,0.41262 -29.18127,0.41262 h -29.18128 l -2.49189,1.90108 c -2.83323,2.1615 -4.54655,5.91196 -4.54655,9.95241 0,2.77227 1.07404,5.48502 3.50587,8.85493 7.93587,10.99717 1.09446,27.76497 -12.06829,29.5785 -4.91117,0.67664 -8.65205,3.1849 -10.58317,7.09599 -1.33464,2.70305 -1.23135,8.05448 0.20951,10.85437 0.88835,1.72624 1.17311,3.63591 1.17153,7.85641 -0.002,6.71641 -1.16213,9.48864 -5.80993,13.88958 -4.02644,3.81256 -7.03055,4.76838 -14.43479,4.59273 -5.59117,-0.13265 -6.09548,-0.0313 -8.78609,1.76575 -4.27794,2.85722 -5.76105,6.50555 -5.20142,12.79513 0.59032,6.63458 -0.65074,11.00105 -4.36257,15.34898 -3.23791,3.7928 -6.99291,5.86623 -11.67282,6.44551 -2.64137,0.32694 -4.24648,0.0659 -8.01286,-1.3032 -5.5537,-2.01879 -7.48962,-2.10308 -10.84486,-0.47222 -4.16217,2.0231 -7.16296,6.67238 -7.16296,11.09795 0,3.24603 -3.54999,9.7549 -6.70349,12.29079 -7.21267,5.80008 -14.53308,5.44709 -24.04543,-1.15942 -2.46999,-1.71546 -3.62644,-2.09628 -6.24483,-2.05642 -5.40486,0.0823 -8.36279,2.40871 -11.2005,8.80927 -4.12495,9.304 -12.81042,13.58122 -21.91693,10.79314 -3.11475,-0.95361 -4.3079,-1.80695 -7.73913,-5.53495 -6.20004,-6.7363 -8.79896,-7.93386 -14.14254,-6.5168 -2.24387,0.59504 -3.78941,1.7788 -7.62507,5.84016 -3.95792,4.1908 -5.4018,5.27867 -8.14461,6.13651 -4.0306,1.26059 -7.43493,1.26489 -11.29204,0.0142 z m 11.15366,-7.10042 c 0.93619,-0.51428 3.055,-2.59206 4.70848,-4.61727 4.2637,-5.22228 8.12835,-7.18977 14.1225,-7.18977 5.99415,0 9.8588,1.96749 14.12251,7.18977 4.39991,5.3891 8.16465,6.98201 13.15612,5.56649 3.67455,-1.04206 6.2689,-3.64492 8.23652,-8.26349 3.79396,-8.90557 12.13781,-13.57561 20.48658,-11.46628 1.7477,0.44155 5.01115,2.07109 7.25211,3.62121 2.24095,1.55012 5.03811,3.00878 6.21591,3.24148 3.48125,0.68781 7.14732,-0.73677 10.0354,-3.89961 2.24637,-2.4601 2.67673,-3.42366 3.31834,-7.42978 0.96032,-5.99608 3.71272,-10.89681 7.6971,-13.70488 5.55487,-3.91488 10.63712,-4.43437 17.75604,-1.81493 5.36089,1.97255 8.29715,1.71053 11.93538,-1.06511 3.89441,-2.97107 4.67788,-5.12352 4.50468,-12.37573 -0.17731,-7.42405 0.79626,-11.09791 3.97851,-15.0133 1.21625,-1.49646 3.50068,-3.51659 5.0765,-4.48918 2.57828,-1.5913 3.6546,-1.8051 10.75082,-2.13549 7.46616,-0.34761 8.01044,-0.46735 10.23057,-2.25076 2.62115,-2.10553 4.66639,-6.20354 4.68708,-9.39141 0.008,-1.15921 -0.51267,-3.52074 -1.15598,-5.24784 -2.65309,-7.12272 -2.17816,-13.51117 1.41559,-19.04178 2.2697,-3.49294 7.45228,-7.1641 10.92792,-7.74095 5.17511,-0.85891 7.53552,-1.85597 9.63947,-4.07176 4.28198,-4.50963 4.56342,-10.33247 0.77925,-16.12178 -3.27281,-5.00697 -4.15231,-7.7126 -4.15231,-12.77395 0,-3.50055 0.34575,-5.21947 1.55456,-7.72884 0.85501,-1.77489 1.55574,-3.30088 1.55717,-3.39108 0.001,-0.0902 -2.45387,-0.16399 -5.45624,-0.16399 h -5.45885 l -2.35953,8.36375 c -18.70893,66.31711 -71.58841,116.13321 -136.21075,128.3199 -15.55945,2.93425 -36.97315,3.53265 -52.00936,1.4534 C 175.37237,429.27381 125.21386,391.27956 99.344965,335.06558 95.177869,326.01034 90.721651,313.64638 88.41015,304.7265 l -1.402428,-5.41184 H 81.528296 76.04887 l 1.522429,3.4439 c 1.140214,2.57929 1.523949,4.56081 1.528509,7.89282 0.0069,5.01275 -0.877725,7.72079 -4.164462,12.74905 -2.959401,4.52747 -3.417027,8.66567 -1.435115,12.97741 1.779648,3.87169 4.818683,5.98215 9.821142,6.82026 12.586814,2.1088 19.156997,14.02434 14.609268,26.49504 -1.675337,4.59407 -1.72554,7.17046 -0.207241,10.63507 2.43042,5.54595 5.15804,6.88779 14.00124,6.88779 5.60909,0 6.76628,0.20416 9.60695,1.69498 6.95137,3.64818 10.52791,10.52544 9.91467,19.06479 -0.18999,2.64573 -0.0688,5.86569 0.26937,7.15546 0.9149,3.48966 4.73726,7.17988 8.39393,8.10373 2.74608,0.6938 3.5231,0.60079 8.02328,-0.96038 9.93266,-3.44576 18.54502,-0.42403 22.85206,8.01785 1.54583,3.02985 1.79632,3.92728 2.67402,9.58 0.42005,2.70525 3.28876,6.59927 5.86523,7.96155 4.47068,2.3638 8.51294,1.78591 13.44325,-1.9219 10.22099,-7.68663 22.55938,-4.20309 27.75863,7.83718 0.94635,2.19153 2.42146,4.67394 3.27802,5.51647 3.34205,3.28732 9.23262,4.089 13.36497,1.81894 z m 32.22261,-29.60827 c 17.56879,-1.19542 37.93856,-6.65936 55.1237,-14.78627 43.65516,-20.64468 78.07183,-61.73275 91.80322,-109.59857 2.23083,-7.77639 2.23074,-7.7769 -1.35098,-7.7769 h -2.97774 l -2.35297,7.96438 c -2.9289,9.91381 -7.75718,21.73708 -12.55268,30.73845 -24.09869,45.23429 -64.89315,75.77984 -113.67805,85.11839 -8.34145,1.59675 -10.38799,1.73154 -26.78326,1.76391 -18.91394,0.0374 -23.78574,-0.4676 -37.68343,-3.90594 -54.69324,-13.53128 -99.1221,-56.68881 -116.31385,-112.98552 l -2.653666,-8.68981 -3.027935,-0.002 -3.027935,-0.002 0.43387,2.45992 c 0.688006,3.90076 5.024633,17.1293 7.820696,23.85638 5.53174,13.30892 12.46044,25.68713 21.06996,37.64176 6.376,8.8533 23.11158,26.38928 31.33862,32.83744 27.57051,21.6091 59.02977,33.83667 91.76637,35.66775 9.13174,0.51078 11.57854,0.47876 23.04606,-0.30151 z m 11.52304,-14.73575 c 16.92194,-3.12598 28.24528,-6.98144 43.28922,-14.73948 28.44083,-14.66668 51.30853,-37.52849 67.27672,-67.25937 5.171,-9.62778 13.38451,-30.77512 13.38451,-34.46111 0,-0.84803 -18.18444,-0.96603 -148.86512,-0.96603 -123.29368,0 -148.86511,0.14955 -148.86511,0.8706 0,0.47883 0.87614,3.65214 1.94698,7.05179 14.4144,45.76212 47.86616,82.76225 90.86014,100.49804 11.75317,4.84839 23.73585,8.04785 37.37431,9.97917 10.0138,1.41805 33.48943,0.89381 43.59835,-0.97361 z m -30.87243,-25.42478 c 2.81268,-7.98856 5.01756,-13.76683 5.50679,-14.43156 0.33193,-0.45098 1.36782,-0.81997 2.30198,-0.81997 1.56845,0 1.91724,0.54294 4.5561,7.09214 3.63211,9.01429 3.61872,8.93434 1.5397,9.1864 -1.32943,0.16118 -1.86886,-0.1657 -2.43572,-1.47595 -0.63636,-1.4709 -1.10991,-1.68299 -3.75789,-1.68299 -2.65863,0 -3.10228,0.20089 -3.6218,1.63995 -0.45756,1.26744 -1.03511,1.63995 -2.54269,1.63995 -1.59649,0 -1.87727,-0.20843 -1.54647,-1.14797 z m 8.54084,-5.29394 c 0.94392,-0.41025 0.94731,-0.65233 0.0425,-3.02888 l -0.98342,-2.583 -0.77369,2.25501 c -1.32413,3.85936 -0.98213,4.52893 1.71462,3.35687 z m -26.65232,3.82358 c -0.80102,-0.34043 -1.68818,-1.68433 -2.21896,-3.36131 -1.17925,-3.72581 -2.23296,-3.96795 -2.73983,-0.62961 -0.41184,2.71245 -1.39514,3.34175 -3.26824,2.09167 -0.6953,-0.46403 -0.59744,-1.7662 0.56323,-7.49473 0.77259,-3.81321 1.58153,-7.23441 1.79763,-7.60265 0.60237,-1.02647 7.62902,1.07575 8.91366,2.66679 2.01599,2.4968 0.89309,6.84961 -2.03189,7.87644 -0.58926,0.20686 -0.45277,1.06971 0.54501,3.44528 0.73215,1.74312 1.33117,3.27937 1.33117,3.41391 0,0.40449 -1.47092,0.1981 -2.89178,-0.40579 z m 0.28792,-11.32125 c -0.14252,-1.05679 -0.68549,-1.5349 -1.91192,-1.68352 -1.47485,-0.17873 -1.71289,0.0263 -1.71289,1.47595 0,1.44174 0.27459,1.68353 1.91192,1.68353 1.62646,0 1.88221,-0.22038 1.71289,-1.47596 z m 47.1859,4.5816 c -0.92526,-3.69245 -1.81592,-7.20411 -1.97925,-7.8037 -0.21617,-0.79356 0.22517,-1.21094 1.62217,-1.53409 1.69045,-0.39102 2.41707,-0.0119 6.09751,3.18143 2.2981,1.99394 4.26359,3.37436 4.36776,3.06759 0.10418,-0.30676 -0.23531,-2.27066 -0.75441,-4.3642 -0.99317,-4.00544 -0.72324,-4.80417 1.63102,-4.82635 0.73468,-0.007 1.27857,0.85646 1.74992,2.77787 0.37615,1.53335 1.22234,4.84041 1.88041,7.349 0.92706,3.53399 1.02391,4.67654 0.43011,5.0738 -1.69908,1.13669 -3.60654,0.36391 -7.59027,-3.07508 -2.29865,-1.98434 -4.27847,-3.6079 -4.39958,-3.6079 -0.12111,0 0.33342,2.10406 1.01008,4.67567 0.67666,2.57162 1.14931,4.74403 1.05033,4.82757 -0.099,0.0836 -0.912,0.33641 -1.80674,0.56191 -1.59958,0.40316 -1.65492,0.29773 -3.30906,-6.30352 z m -73.38962,-1.19024 c -0.59951,-0.36775 -1.09002,-1.33313 -1.09002,-2.14528 0,-1.09351 -0.70534,-1.83754 -2.71852,-2.86761 -2.50122,-1.27979 -2.79883,-1.30639 -3.72331,-0.33277 -0.89777,0.9455 -1.21022,0.95575 -2.93343,0.0963 l -1.92865,-0.96195 5.98288,-5.79488 c 5.94509,-5.75827 5.99509,-5.78955 7.91581,-4.95166 l 1.93292,0.84321 -0.39152,5.29568 c -0.21533,2.91264 -0.39319,6.69785 -0.39525,8.4116 -0.004,3.23494 -0.52714,3.71013 -2.65091,2.40739 z m -0.46715,-9.90989 v -2.74665 l -1.88017,1.89708 -1.88016,1.89707 1.41301,0.82632 c 2.1456,1.25475 2.34732,1.09373 2.34732,-1.87382 z m 104.64159,0.7787 c -2.56563,-5.37405 -2.95752,-5.73346 -4.99773,-4.58352 -0.93015,0.52427 -1.31546,0.39506 -1.82765,-0.61286 -0.35697,-0.70244 -0.64902,-1.44087 -0.64902,-1.64097 0,-0.20008 2.23323,-1.54632 4.96273,-2.99165 4.96006,-2.62645 4.96312,-2.6271 5.68466,-1.20721 0.59513,1.17112 0.52847,1.56962 -0.37956,2.26889 -0.60582,0.46654 -1.37489,0.94422 -1.70904,1.06154 -0.33415,0.11729 0.5759,2.69216 2.02233,5.72191 2.47495,5.18413 2.56397,5.55938 1.51113,6.37018 -0.61531,0.47385 -1.34234,0.86154 -1.61562,0.86154 -0.27327,0 -1.62428,-2.36153 -3.00223,-5.24785 z m 17.71228,-12.6304 c -2.37636,-3.27733 -4.39831,-6.15426 -4.49323,-6.39317 -0.0949,-0.23891 1.48152,-1.80301 3.5032,-3.47578 3.66345,-3.03118 3.67962,-3.03691 4.81931,-1.71061 0.73047,0.85006 0.90971,1.49401 0.49621,1.78269 -0.35603,0.24857 -1.44623,1.12645 -2.42267,1.95083 -1.57809,1.33235 -1.67154,1.60823 -0.84105,2.48287 0.83049,0.87463 1.11334,0.83565 2.54568,-0.35093 1.96506,-1.62789 2.30636,-1.64735 3.31878,-0.18918 0.68654,0.98882 0.52721,1.38156 -1.16361,2.86817 -1.68654,1.48284 -1.8439,1.86862 -1.13115,2.77309 0.74964,0.95127 1.01899,0.89716 2.84823,-0.57224 1.80691,-1.45147 3.45988,-2.09573 3.45988,-1.34854 0,0.15089 0.15844,0.70919 0.35209,1.24067 0.23279,0.63887 -0.88867,1.97184 -3.30946,3.93362 l -3.66156,2.9673 z m -149.42261,4.93613 c -3.72152,-0.99558 -6.62743,-5.61789 -5.36553,-8.5347 1.15338,-2.66598 6.27871,-9.35425 7.16831,-9.35425 0.45189,0 1.16645,0.43756 1.58788,0.97237 0.6319,0.80186 0.19686,1.78129 -2.48088,5.58539 -3.16753,4.4999 -3.22228,4.653 -2.2328,6.24341 1.64615,2.64591 3.06961,2.02331 6.63681,-2.90285 3.19943,-4.41828 3.31946,-4.50787 4.73298,-3.53245 0.79766,0.55045 1.4503,1.12751 1.4503,1.28239 0,0.81062 -6.51608,9.19427 -7.67596,9.87596 -1.43542,0.84364 -1.87429,0.88554 -3.82111,0.36473 z m 63.50643,-17.55524 c -17.90683,-3.33746 -33.85897,-11.76243 -46.64362,-24.63441 -6.54039,-6.58508 -11.28538,-12.68064 -10.67744,-13.71659 0.77617,-1.32265 2.00343,-0.66037 3.89587,2.10238 2.77694,4.05402 11.01771,12.52941 16.0532,16.51024 14.50582,11.46762 30.00338,17.2189 48.27216,17.91422 18.30118,0.69655 34.81792,-4.1067 49.67342,-14.44557 8.75512,-6.09324 17.87628,-14.97753 21.72046,-21.1564 1.0439,-1.6779 2.37296,-2.08885 3.04605,-0.94186 0.57074,0.97257 -5.10707,8.21334 -11.21556,14.30294 -11.459,11.42354 -25.40858,19.22688 -41.42404,23.17245 -7.06811,1.7413 -25.45414,2.24316 -32.7005,0.8926 z m 104.33016,-4.02144 c -2.9119,-2.73142 -5.29437,-5.32895 -5.29437,-5.77229 0,-0.44335 1.29606,-2.32425 2.88013,-4.17978 2.8417,-3.32868 2.89505,-3.35632 3.99916,-2.07142 1.08345,1.26084 1.06614,1.36042 -0.54437,3.1308 -1.86574,2.05094 -2.10382,3.2599 -0.74975,3.80712 0.5373,0.21714 1.54746,-0.39933 2.45227,-1.49654 1.46217,-1.7731 1.59315,-1.80925 2.63619,-0.72772 1.04753,1.08619 1.03204,1.23141 -0.3397,3.18543 -1.25689,1.79042 -1.3237,2.16697 -0.53227,3.00047 0.79141,0.8335 1.1585,0.64903 2.92493,-1.46977 1.97443,-2.36831 2.04578,-2.39505 3.16719,-1.18665 1.11733,1.20403 1.06312,1.33418 -2.0789,4.99142 l -3.22615,3.75514 z m -188.45319,2.13008 c -0.20416,-0.8567 -1.00599,-1.86224 -1.78183,-2.23453 -0.77585,-0.3723 -1.90153,-1.76639 -2.50152,-3.09799 -1.47508,-3.27378 -0.84617,-6.49628 1.81477,-9.29868 1.68554,-1.77515 2.55258,-2.17859 4.68199,-2.17859 4.59518,0 8.09993,3.41196 8.09993,7.88548 0,1.86516 -0.161,2.06179 -1.40145,1.7117 -0.77079,-0.21755 -1.61166,-0.39958 -1.8686,-0.40451 -0.25693,-0.005 -0.46715,-0.70118 -0.46715,-1.54723 0,-3.4942 -5.20724,-5.13918 -7.12765,-2.25164 -0.53328,0.80185 -0.96961,2.07876 -0.96961,2.83756 0,1.45854 2.37352,4.23226 3.62162,4.23226 0.91862,0 0.96747,-1.08547 0.075,-1.66636 -0.4344,-0.28275 -0.29424,-0.86148 0.40598,-1.67635 1.2035,-1.40055 1.92538,-1.0298 4.0163,2.06276 l 1.20922,1.78847 -3.32014,2.69764 c -1.82609,1.48372 -3.49914,2.69766 -3.7179,2.69766 -0.21876,0 -0.56479,-0.70095 -0.76896,-1.55765 z m 84.12303,-6.06125 c -11.71526,-2.21321 -24.4692,-7.97944 -33.84819,-15.30323 -4.91085,-3.83476 -14.42397,-13.45268 -14.42397,-14.58288 0,-0.32066 0.3843,-0.73833 0.85399,-0.92815 0.50797,-0.20527 2.96863,1.87843 6.07295,5.14264 6.15841,6.4756 12.48778,11.31798 20.04567,15.33623 11.45535,6.09038 22.2469,8.77057 35.31405,8.77057 13.06716,0 23.85871,-2.68019 35.31405,-8.77057 7.5579,-4.01825 13.88727,-8.86063 20.04568,-15.33623 3.10432,-3.26421 5.56498,-5.34791 6.07294,-5.14264 1.47873,0.59762 0.97751,1.45499 -3.85487,6.59407 -11.72801,12.47233 -26.32204,20.6695 -42.78236,24.02996 -7.41453,1.51372 -21.31833,1.60553 -28.80994,0.19023 z m 6.67728,-6.82865 c -10.41342,-1.12366 -21.43092,-5.00391 -30.30148,-10.67185 -5.61305,-3.58653 -14.68209,-11.19188 -14.68209,-12.3125 0,-1.8582 2.11793,-1.1561 5.1317,1.70116 26.54824,25.16959 67.82994,25.16959 94.37819,0 3.00102,-2.84518 5.1317,-3.56007 5.1317,-1.7218 0,0.92414 -7.74559,7.71043 -12.45734,10.91447 -13.88397,9.44129 -31.0359,13.83478 -47.20068,12.09052 z m 238.30797,-47.05058 c -2.84754,-3.87849 -8.89214,-12.06513 -13.43246,-18.19254 -4.54031,-6.12741 -8.25511,-11.29598 -8.25511,-11.48569 0,-0.18973 6.00281,-8.45999 13.33957,-18.37836 l 13.33958,-18.03342 -117.98117,-0.16569 c -64.88963,-0.0911 -171.07452,-0.0911 -235.96642,0 l -117.985251,0.16569 13.34262,18.03946 c 7.33844,9.92169 13.343092,18.19369 13.343671,18.3822 6.23e-4,0.25149 -20.05073,27.6063 -26.315386,35.90016 -0.495264,0.65568 46.702268,0.81996 235.564166,0.81996 h 236.18353 z m -339.9724,-29.68311 v -26.89518 h 3.7372 3.7372 v 22.9593 22.95931 h 6.85153 6.85153 v 3.93588 3.93588 h -10.58873 -10.58873 z m 27.40613,0 v -26.89518 h 3.9597 3.9597 l -0.0668,26.895 -0.0668,26.895 -3.89292,1.9e-4 -3.89291,1.8e-4 z m 16.19453,0 v -26.89518 h 10.90017 10.90016 v 3.93588 3.93588 h -7.16296 -7.16297 v 7.54377 7.54377 h 5.29437 5.29436 v 3.93588 3.93589 h -5.29436 -5.29437 v 11.47964 11.47966 h -3.7372 -3.7372 z m 28.029,0 v -26.89518 h 11.2116 11.21159 v 3.93588 3.93588 h -7.16296 -7.16297 v 7.54377 7.54377 h 5.29437 5.29436 v 3.93588 3.93589 h -5.29436 -5.29437 v 7.54376 7.54378 h 7.16297 7.16296 v 3.93588 3.93588 h -11.21159 -11.2116 z m 36.74913,3.93589 v -22.95931 h -4.04864 -4.04863 v -3.93588 -3.93588 h 12.1459 12.1459 v 3.93588 3.93588 h -4.04864 -4.04863 v 22.95931 22.9593 h -4.04863 -4.04863 z m 23.66893,-3.93589 v -26.89518 h 3.7372 3.7372 v 26.89518 26.89519 h -3.7372 -3.7372 z m 15.57166,-0.0246 v -26.91982 l 5.68952,0.18861 5.68952,0.18862 3.55934,18.69543 c 2.43075,12.76758 3.69031,18.17545 3.97241,17.05548 0.22719,-0.90196 1.66912,-8.72453 3.20426,-17.38347 1.53516,-8.65894 2.93858,-16.4077 3.1187,-17.21948 0.30789,-1.38748 0.64415,-1.47595 5.61001,-1.47595 h 5.2825 v 26.89518 26.89519 h -3.7372 -3.7372 v -16.18085 c 0,-8.89945 -0.15326,-16.01942 -0.34059,-15.82213 -0.2694,0.28369 -6.51094,30.77188 -6.51094,31.80408 0,0.14709 -1.45915,0.17822 -3.24256,0.0692 l -3.24256,-0.19827 -3.45326,-15.74352 -3.45325,-15.74353 -0.16679,15.90752 -0.16679,15.90752 h -4.03756 -4.03756 v -26.9198 z m 44.22353,0.0246 v -26.89518 h 10.90016 10.90017 v 3.91439 3.9144 l -7.00725,0.18548 -7.00725,0.18548 v 7.21578 7.21578 l 5.13865,0.19053 5.13865,0.19052 v 3.88282 3.88283 l -5.13865,0.19052 -5.13865,0.19052 v 7.21578 7.21579 l 7.00725,0.18548 7.00725,0.18547 v 3.9144 3.9144 H 349.74142 338.84126 Z M 89.192022,204.63893 C 106.69197,142.64779 154.02963,94.59045 213.04997,78.897949 c 41.34756,-10.99361 83.86828,-5.955086 122.04878,14.462257 42.47395,22.713304 74.58864,63.650224 87.96152,112.125454 l 1.99719,7.23962 h 5.44684 5.44684 l -1.52243,-3.44389 c -1.14021,-2.5793 -1.52395,-4.56082 -1.52851,-7.89283 -0.007,-5.01274 0.87773,-7.72079 4.16446,-12.74904 2.9594,-4.52748 3.41703,-8.66567 1.43512,-12.97741 -1.77965,-3.8717 -4.81869,-5.98215 -9.82115,-6.82026 -12.58681,-2.1088 -19.15699,-14.02434 -14.60926,-26.49504 0.76146,-2.08807 1.37833,-4.74479 1.3708,-5.90382 -0.0207,-3.18758 -2.06603,-7.28564 -4.68708,-9.39109 -2.22013,-1.7834 -2.76441,-1.90315 -10.23057,-2.25076 -7.09622,-0.33039 -8.17254,-0.54418 -10.75082,-2.13549 -6.52408,-4.02663 -9.60782,-10.3875 -9.01796,-18.60148 0.18999,-2.64573 0.0688,-5.865691 -0.26936,-7.15546 -0.91491,-3.489663 -4.73727,-7.179873 -8.39394,-8.103729 -2.74607,-0.693797 -3.5231,-0.600786 -8.02328,0.960381 -9.93265,3.445752 -18.54501,0.424025 -22.85205,-8.017855 -1.54583,-3.029854 -1.79632,-3.927281 -2.67403,-9.579999 -0.42005,-2.705256 -3.28875,-6.599281 -5.86523,-7.961554 -4.47067,-2.363805 -8.51293,-1.7859 -13.44325,1.92191 -10.23667,7.698421 -22.57833,4.204763 -27.71159,-7.844565 -1.97316,-4.6316 -4.56498,-7.234384 -8.24238,-8.277249 -4.99147,-1.415519 -8.75621,0.177377 -13.15612,5.566484 -4.26371,5.222284 -8.12836,7.189778 -14.12251,7.189778 -5.99415,0 -9.8588,-1.967494 -14.1225,-7.189778 -4.39992,-5.389107 -8.16465,-6.982003 -13.15613,-5.566484 -3.66326,1.038857 -6.16018,3.545645 -8.16124,8.193487 -3.85986,8.965309 -12.20534,13.647564 -20.56186,11.536292 -1.7477,-0.44156 -5.01115,-2.071106 -7.2521,-3.621222 -2.24095,-1.550114 -5.03811,-3.008784 -6.21592,-3.241486 -3.1056,-0.613585 -6.86134,0.680244 -9.63486,3.319167 -2.52039,2.398075 -3.37031,4.406555 -4.02295,9.506741 -0.55321,4.323224 -3.79086,9.669672 -7.39303,12.208368 -5.57703,3.930508 -10.63459,4.435304 -17.84735,1.78134 -5.43651,-2.000379 -8.09651,-1.760336 -11.79965,1.06482 -3.9406,3.006311 -4.72272,5.139873 -4.5491,12.409613 0.18134,7.59265 -0.82534,11.21566 -4.25724,15.32179 -1.35564,1.62196 -3.91816,3.71176 -5.69448,4.644 -2.84067,1.49082 -3.99786,1.69499 -9.60695,1.69499 -8.8432,0 -11.57082,1.34183 -14.00124,6.88779 -1.469628,3.35355 -1.471678,6.04876 -0.0076,9.97941 2.65309,7.12272 2.178159,13.51118 -1.415595,19.04179 -2.269694,3.49293 -7.452275,7.16409 -10.927914,7.74095 -5.175112,0.85891 -7.535527,1.85596 -9.639471,4.07176 -4.281977,4.50963 -4.563426,10.33246 -0.779249,16.12176 3.272808,5.00697 4.152302,7.71261 4.152302,12.77397 0,3.50055 -0.34574,5.21947 -1.554556,7.72883 -0.855009,1.77489 -1.555734,3.30089 -1.557167,3.39108 -0.0012,0.0902 2.45387,0.16399 5.456243,0.16399 h 5.458846 l 2.282763,-8.08635 z m 12.965668,0.75338 c 2.95582,-10.27271 8.88132,-24.4337 14.34841,-34.29039 24.11591,-43.47901 64.90975,-73.376482 112.08777,-82.148242 12.20048,-2.268425 34.89912,-2.866934 46.715,-1.231773 15.29882,2.117156 28.4492,5.702534 41.39757,11.286821 44.10056,19.019394 77.71283,56.949094 92.39904,104.267504 l 2.9226,9.41654 3.02794,0.0163 3.02793,0.0163 -0.43387,-2.45993 c -0.83183,-4.71623 -5.43831,-18.26357 -9.04326,-26.59561 -12.8617,-29.72705 -33.75721,-55.71712 -59.17683,-73.60487 C 332.45905,98.122536 316.46161,90.55021 297.46122,85.465747 285.49628,82.263954 276.8926,80.913848 264.4087,80.279109 215.29794,77.782081 169.57423,96.883074 135.40096,134.17184 c -18.44215,20.12348 -32.24353,44.71628 -39.719503,70.77654 -2.232385,7.78182 -2.233251,7.7769 1.369758,7.7769 h 2.996515 z m 302.70743,6.38633 c 0,-0.52066 -0.87306,-3.69109 -1.94013,-7.0454 -13.17778,-41.42413 -41.65158,-75.66895 -78.7211,-94.67618 -15.28865,-7.83919 -26.33405,-11.599535 -43.60066,-14.843606 -7.08591,-1.331311 -10.11996,-1.522365 -24.29179,-1.529693 -16.43626,-0.0085 -22.27507,0.569187 -33.94623,3.358598 -52.69599,12.594351 -95.58337,53.047871 -112.82024,106.417671 -1.32555,4.10424 -2.41008,7.86793 -2.41008,8.36375 0,0.76217 23.00807,0.9015 148.86511,0.9015 129.30075,0 148.86512,-0.12441 148.86512,-0.94664 z M 184.6744,202.87301 c -0.57074,-0.97256 5.10708,-8.21333 11.21557,-14.30293 9.18782,-9.15939 20.02922,-16.04574 31.66986,-20.11639 9.63716,-3.37003 14.78225,-4.33033 25.32584,-4.72691 19.43841,-0.73115 35.94083,4.13579 51.85424,15.29298 9.35328,6.55777 23.79504,21.79245 22.59566,23.83627 -0.7842,1.33633 -2.01091,0.64929 -3.96972,-2.2233 -6.69835,-9.82317 -20.65833,-21.24062 -32.79675,-26.82347 -28.63587,-13.1706 -60.89266,-9.25448 -86.01701,10.44282 -4.49033,3.52039 -13.39345,12.70712 -15.99212,16.50157 -1.88425,2.75129 -3.11939,3.42499 -3.88557,2.11936 z m 9.35282,0.0167 c -0.82395,-1.40405 6.96534,-9.61455 15.06917,-15.88404 4.98641,-3.85772 14.79229,-9.15021 21.05698,-11.36499 15.5729,-5.50557 33.89145,-5.72582 49.95505,-0.60064 6.88214,2.19579 17.68267,7.97964 23.75427,12.72078 4.91086,3.83476 14.42397,13.45268 14.42397,14.58288 0,0.32066 -0.38429,0.73833 -0.85399,0.92815 -0.50796,0.20527 -2.96862,-1.87843 -6.07294,-5.14264 -11.45667,-12.04675 -26.29807,-20.22659 -41.8967,-23.09137 -7.08598,-1.30139 -19.84007,-1.30139 -26.92606,0 -15.57929,2.86123 -30.44132,11.04606 -41.86087,23.05364 -5.20287,5.47079 -5.94142,6.00377 -6.64888,4.79823 z m 9.94656,-0.0329 c -0.5363,-0.91388 0.28329,-1.87088 5.31581,-6.20703 24.14966,-20.80796 58.04782,-23.49721 84.34911,-6.69168 5.61306,3.58653 14.6821,11.19188 14.6821,12.3125 0,1.8582 -2.11794,1.1561 -5.1317,-1.70116 -20.12688,-19.0817 -49.5536,-24.2131 -74.82462,-13.04784 -6.19951,2.73908 -14.66467,8.37206 -19.48242,12.9642 -3.28087,3.12724 -4.20308,3.57272 -4.90828,2.37101 z m 140.35163,-10.69502 c -1.26592,-1.92085 -2.38708,-3.81305 -2.49146,-4.20488 -0.22823,-0.85673 11.33232,-9.42062 12.06941,-8.94085 0.28359,0.18458 1.61059,2.03376 2.9489,4.10928 2.40797,3.7344 2.41968,3.78264 1.12526,4.63399 -1.14984,0.75626 -1.4475,0.67892 -2.46113,-0.63941 -0.63421,-0.82485 -1.36966,-1.90726 -1.63434,-2.40536 -0.51861,-0.97597 -2.58346,-0.50419 -2.58346,0.59027 0,0.35547 0.56201,1.3988 1.24892,2.31848 0.95356,1.27669 1.08283,1.88294 0.54661,2.5634 -1.05091,1.33358 -2.15614,1.08247 -3.29542,-0.74872 -1.06099,-1.70537 -2.49588,-2.13545 -3.18824,-0.95562 -0.22088,0.37638 0.36847,1.7476 1.30965,3.04717 1.63954,2.26381 1.66289,2.40008 0.55722,3.25154 -0.63472,0.4888 -1.31068,0.88522 -1.50214,0.88095 -0.19145,-0.004 -1.38385,-1.57938 -2.64978,-3.50024 z m -185.92951,0.94905 c -2.14817,-1.42082 -3.92315,-4.4129 -3.92315,-6.61325 0,-2.54377 1.78416,-5.88052 3.85543,-7.21048 2.83654,-1.82132 3.61897,-1.68314 3.61897,0.63917 0,1.08236 -0.28029,1.96794 -0.62287,1.96794 -1.19062,0 -3.11433,2.63379 -3.11433,4.26387 0,0.90197 0.56058,2.23033 1.24573,2.95191 2.45144,2.58177 6.85153,0.96883 6.85153,-2.51158 0,-1.53644 -0.96223,-1.94447 -1.42518,-0.60432 -0.20995,0.60776 -0.57648,0.63808 -1.41628,0.11713 -1.69683,-1.0526 -1.65339,-1.70438 0.27712,-4.15755 l 1.75998,-2.23648 3.53908,2.66901 3.53909,2.66901 -1.57973,1.79519 c -0.86886,0.98735 -1.57974,2.13964 -1.57974,2.56064 0,0.421 -0.81957,1.59239 -1.82126,2.60309 -2.44466,2.46665 -6.41746,2.94001 -9.20439,1.0967 z m 170.62286,-19.63273 c -1.80532,-1.68494 -3.26336,-3.35874 -3.24009,-3.71952 0.0233,-0.36079 2.2635,-3.16298 4.97829,-6.22708 l 4.93598,-5.5711 3.42949,3.56694 c 3.24032,3.37021 3.3726,3.63316 2.39813,4.76719 -0.99138,1.15368 -1.11185,1.11808 -3.1068,-0.9183 -1.98124,-2.02238 -2.12463,-2.06596 -3.15971,-0.96008 -1.03173,1.10231 -1.00127,1.22276 0.62859,2.48517 1.93289,1.49714 2.15614,2.63718 0.75606,3.86091 -0.79996,0.69921 -1.25114,0.53933 -2.75228,-0.97531 -1.70833,-1.72369 -3.14243,-1.80806 -3.14243,-0.18485 0,0.41251 0.84773,1.67116 1.88385,2.79699 1.78892,1.94382 1.82815,2.09977 0.77858,3.09478 -1.02741,0.97401 -1.33644,0.83204 -4.38766,-2.01574 z m -153.40345,-6.05691 -3.90039,-4.63333 1.38167,-1.43449 1.38167,-1.4345 1.59529,1.96794 c 3.36852,4.15539 5.87358,6.8878 6.31471,6.8878 0.95384,0 3.22782,-2.07952 3.22782,-2.95179 0,-0.50018 -1.56465,-2.8518 -3.47699,-5.2258 l -3.47699,-4.31636 1.45267,-1.27575 c 1.64335,-1.44321 1.23127,-1.7745 6.79746,5.46486 2.74023,3.56393 2.86495,4.21386 1.42276,7.41462 -1.18725,2.63494 -3.64363,4.17011 -6.67247,4.17011 -1.87641,0 -2.6381,-0.58359 -6.04721,-4.63331 z m 134.34471,-8.80019 c -1.11196,-0.8869 -1.03369,-1.16549 1.76147,-6.2691 1.60884,-2.93753 2.83322,-5.42239 2.72085,-5.52193 -0.11237,-0.0995 -0.83853,-0.52855 -1.61368,-0.95336 -1.15754,-0.63436 -1.29274,-1.00187 -0.75667,-2.05679 0.35898,-0.70643 0.9442,-1.28442 1.30047,-1.28442 0.86843,0 9.27961,5.28475 9.25446,5.81459 -0.0109,0.22946 -0.38714,0.92659 -0.8361,1.54913 -0.72096,0.99971 -0.95507,1.0213 -2.00451,0.18486 -0.65352,-0.52088 -1.3739,-0.95644 -1.60085,-0.96792 -0.22695,-0.0114 -1.70601,2.34067 -3.28679,5.22699 -1.58078,2.8863 -3.07684,5.23844 -3.32456,5.22698 -0.24773,-0.0114 -0.97407,-0.43854 -1.61409,-0.94903 z m -108.7945,-2.14602 c -0.0122,-0.99217 -0.2721,-4.75172 -0.57751,-8.35455 -0.58768,-6.93257 -0.52146,-7.16218 2.29318,-7.95273 1.107,-0.31093 2.50138,0.69293 7.00724,5.04471 3.09389,2.98808 5.62524,5.62711 5.62524,5.86451 0,0.23739 -0.66359,0.75004 -1.47465,1.13922 -1.16904,0.56098 -1.68406,0.48708 -2.48516,-0.35663 -0.93212,-0.98166 -1.22848,-0.95272 -3.81972,0.37314 -2.14748,1.09879 -2.8092,1.80086 -2.8092,2.98054 0,1.01709 -0.54085,1.80271 -1.58647,2.30445 -2.13482,1.02441 -2.14756,1.01829 -2.17295,-1.04266 z m 6.25089,-8.01833 c 0,-0.23537 -0.87974,-1.29495 -1.95497,-2.35462 l -1.95497,-1.92668 0.39781,2.21393 c 0.21878,1.21767 0.3978,2.61349 0.3978,3.10185 0,0.70904 0.31369,0.73738 1.55716,0.1407 0.85644,-0.41098 1.55717,-0.9398 1.55717,-1.17518 z m 84.38476,1.00568 c -1.53214,-0.67884 -2.09695,-1.55316 -3.03645,-4.70042 -2.31806,-7.76541 -2.24467,-7.71651 -3.83415,-2.5545 -1.13995,3.70211 -1.63585,4.54946 -2.5592,4.37305 -0.6299,-0.12036 -1.38378,-0.4601 -1.67529,-0.755 -0.29151,-0.29489 0.3895,-3.8312 1.51336,-7.85847 1.99938,-7.16467 2.07783,-7.31335 3.64435,-6.90636 2.24004,0.58198 2.32776,0.72232 4.32339,6.91729 l 1.7851,5.54146 1.40315,-4.80704 c 1.34988,-4.62452 1.46528,-4.79062 3.03934,-4.37454 0.8999,0.23786 1.7093,0.5095 1.79869,0.60364 0.17108,0.18017 -4.01756,14.82778 -4.33556,15.16134 -0.10146,0.10643 -1.03149,-0.18178 -2.06673,-0.64045 z m -65.80291,-10.04284 -1.54106,-7.70776 2.84692,-0.80732 c 4.5779,-1.29819 6.62673,-1.0715 8.09608,0.89578 1.54426,2.06759 1.6424,4.011 0.30415,6.0232 -0.94878,1.42658 -0.88414,1.57967 1.67813,3.97437 l 2.66491,2.49063 -2.11024,0.44449 c -1.8502,0.3897 -2.38644,0.16044 -4.35157,-1.86047 -1.23273,-1.26772 -2.47156,-2.30495 -2.75294,-2.30495 -0.28139,0 -0.32783,1.29068 -0.10321,2.86817 0.37156,2.60946 0.27961,2.90451 -1.0193,3.27095 -0.78523,0.22152 -1.59489,0.4068 -1.79925,0.41173 -0.20436,0.005 -1.06503,-3.45954 -1.91262,-7.69882 z m 5.55423,-2.54539 c 0.80398,-0.22691 1.40145,-0.90573 1.40145,-1.59227 0,-1.56623 -0.84241,-2.06175 -2.67952,-1.57616 -1.17925,0.31171 -1.43057,0.72746 -1.20176,1.98801 0.31377,1.7287 0.39695,1.76829 2.47983,1.18042 z m 32.81078,6.47123 c -0.36757,-0.26507 -0.84928,-0.99852 -1.07047,-1.62991 -0.3114,-0.88886 -1.12263,-1.14796 -3.59436,-1.14796 -2.66837,0 -3.24565,0.2153 -3.51796,1.31196 -0.24674,0.99369 -0.8496,1.31196 -2.48506,1.31196 -1.18761,0 -2.06587,-0.24603 -1.95167,-0.54672 0.11419,-0.30069 1.59448,-3.85732 3.28953,-7.90362 l 3.08192,-7.3569 2.2092,0.19585 2.2092,0.19586 2.61788,7.54377 c 1.43983,4.14907 2.63252,7.76517 2.65043,8.03576 0.0417,0.63073 -2.56062,0.62313 -3.43864,-0.0101 z m -2.79136,-7.86172 c -0.34427,-0.99216 -0.76436,-2.21518 -0.93355,-2.71781 -0.39262,-1.16641 -0.64466,-0.87684 -1.8239,2.09553 l -0.96258,2.42623 h 2.17298 c 2.10701,0 2.15397,-0.0548 1.54705,-1.80395 z"
       id="path897" />
  </g>
</svg>
