<?xml version="1.0" encoding="UTF-8" standalone="no"?>
<svg
   xmlns:dc="http://purl.org/dc/elements/1.1/"
   xmlns:cc="http://creativecommons.org/ns#"
   xmlns:rdf="http://www.w3.org/1999/02/22-rdf-syntax-ns#"
   xmlns:svg="http://www.w3.org/2000/svg"
   xmlns="http://www.w3.org/2000/svg"
   version="1.1"
   id="svg62"
   width="100"
   height="100"
   viewBox="0 0 512 512">
  <metadata
     id="metadata68">
    <rdf:RDF>
      <cc:Work
         rdf:about="">
        <dc:format>image/svg+xml</dc:format>
        <dc:type
           rdf:resource="http://purl.org/dc/dcmitype/StillImage" />
        <dc:title></dc:title>
      </cc:Work>
    </rdf:RDF>
  </metadata>
  <defs
     id="defs66" />
  <g
     id="g70">
    <path
       style="fill:#000000;stroke-width:1.02003"
       d="m 348.70673,506.59573 c -9.1179,-2.22427 -14.93925,-5.92687 -19.29325,-12.27123 -7.73223,-11.26691 -9.6218,-11.83745 -40.86183,-12.33801 -13.72214,-0.21987 -34.79337,0.10388 -46.82496,0.71942 -27.21555,1.39237 -33.89338,3.13164 -49.02641,12.76908 -22.02918,14.02926 -25.25564,14.16388 -63.57632,2.65259 C 97.142937,488.52068 90.860532,486.97647 67.087475,482.87902 43.24721,478.76999 35.998821,476.56916 31.040074,471.934 c -3.579087,-3.34553 -3.979183,-4.23372 -3.979183,-8.83344 0,-3.42291 1.438065,-9.02138 4.348974,-16.93081 4.833399,-13.13311 4.862933,-14.17811 0.854988,-30.24666 -3.440783,-13.79466 -2.481476,-21.01638 3.167091,-23.84214 1.062984,-0.53176 7.589012,-1.62142 14.502298,-2.42144 14.823068,-1.71538 16.997966,-2.39586 24.440187,-7.64686 6.113785,-4.3137 9.523194,-9.77683 9.739963,-15.60705 0.118176,-3.17821 0.195256,-3.25634 0.973036,-0.98619 2.75116,8.02995 0.375775,16.75553 -6.180193,22.70186 -6.627746,6.01146 -13.011038,7.86982 -27.032065,7.86982 -9.483205,0 -11.170898,0.26214 -13.710888,2.12974 -2.627118,1.93163 -2.852937,2.59666 -2.427817,7.14982 0.263187,2.81888 2.280443,8.91189 4.600549,13.89573 5.68098,12.20337 5.58759,18.00826 -0.496552,30.86754 -4.54427,9.60464 -5.044125,11.91632 -3.253044,15.04458 2.249653,3.92923 6.156118,5.02051 45.735991,12.77656 11.535763,2.26053 29.507851,6.5029 39.937971,9.42746 30.74881,8.62187 39.44733,9.7809 50.46097,6.72363 15.15717,-4.20748 21.97272,-14.79583 19.05416,-29.60179 -3.09247,-15.6883 -7.793,-24.40033 -30.26088,-56.08599 -31.56019,-44.50823 -44.87409,-57.6917 -58.26252,-57.6917 -2.4083,0 -6.050541,0.74521 -8.09388,1.65602 -4.32034,1.9258 -4.668637,1.73139 -5.918776,-3.30371 -2.691291,-10.83952 0.06083,-22.87173 8.42493,-36.83292 4.013786,-6.69976 9.733086,-19.12499 15.907666,-34.55956 11.04859,-27.61808 17.63386,-40.08581 26.91214,-50.95196 15.70893,-18.3974 32.88189,-42.40159 37.47545,-52.38283 2.28874,-4.97314 2.32618,-5.561 1.15745,-18.1723 -1.94446,-20.98197 -3.57964,-66.020747 -2.99779,-82.57011 0.60166,-17.112559 2.73378,-26.758685 8.24087,-37.283139 6.24222,-11.929392 24.01316,-25.507615 39.16315,-29.923351 13.36137,-3.8944189 37.032,-3.3607466 54.77372,1.2349149 26.40598,6.8399741 44.00095,22.6605321 55.8222,50.1926461 5.31879,12.387637 6.34368,18.286253 7.28248,41.912774 0.72533,18.254695 1.44685,25.184715 3.69632,35.502585 6.92207,31.75007 17.33474,51.08258 41.99302,77.9656 13.11326,14.29639 19.04174,22.45903 26.5887,36.6087 15.41399,28.89946 24.58827,57.662 25.58009,80.19681 0.81772,18.57931 -2.52969,29.50891 -9.94315,32.46528 -1.61079,0.64236 -5.77728,4.51637 -9.25887,8.60892 -12.15105,14.28331 -18.59135,18.1656 -31.3132,18.87594 -4.45641,0.24884 -9.84011,0.14774 -11.96377,-0.22466 -5.58904,-0.9801 -12.07026,-7.07281 -16.92847,-15.91372 -7.93882,-14.44694 -15.34957,-16.33244 -20.46929,-5.20793 -3.81599,8.29166 -3.98536,17.71479 -0.59126,32.89442 3.42828,15.33252 3.7868,30.98857 1.18566,51.7746 -2.34322,18.7248 -0.95692,25.95908 6.44504,33.6328 5.41205,5.61075 10.76201,7.73841 19.52552,7.76522 9.63019,0.0295 16.31491,-2.51124 27.20655,-10.34047 24.12656,-17.34287 29.13047,-20.03359 52.22388,-28.08208 24.29092,-8.46581 34.28842,-14.32191 34.28842,-20.08464 0,-3.58454 -5.74722,-9.01578 -12.78573,-12.08277 -18.1474,-7.90763 -19.2356,-8.58503 -22.85467,-14.22697 -1.90412,-2.96843 -4.15924,-7.58566 -5.01138,-10.2605 -2.12145,-6.65918 -2.012,-18.39984 0.21467,-23.02798 1.65893,-3.44808 1.78652,-3.51963 2.14164,-1.20105 1.11816,7.30062 4.03338,17.87799 6.17522,22.40574 3.13493,6.62709 10.80098,14.25545 18.29591,18.20599 14.43132,7.60669 19.10261,12.29588 19.09553,19.16873 -0.009,8.5974 -7.27155,14.2066 -36.89086,28.49198 -22.00269,10.61187 -35.12336,18.80112 -51.88325,32.38284 -10.92851,8.85614 -13.36035,10.11402 -22.12285,11.44303 -9.47215,1.43666 -17.21502,1.19711 -25.33541,-0.78383 z M 212.10986,469.7245 c -0.0344,-5.40523 -3.24769,-12.69934 -8.44979,-19.18101 -3.23814,-4.03462 -3.18639,-6.04129 0.18669,-7.24004 3.79478,-1.34862 3.91607,-1.31819 8.49024,2.13046 10.35116,7.80417 23.99574,10.54906 43.41448,8.73373 30.46518,-2.84797 46.55077,-10.02257 58.98309,-26.30801 4.78909,-6.27337 8.06763,-8.2865 10.21418,-6.27182 0.76324,0.71635 1.19033,4.864 1.15252,11.19252 -0.0517,8.65892 -0.60083,11.72803 -3.95635,22.11235 -2.14296,6.63187 -3.8963,13.36784 -3.8963,14.96885 0,5.27305 6.51421,8.46531 7.73694,3.79145 1.71075,-6.53928 7.07518,-35.72603 7.66505,-41.70397 0.47111,-4.77432 -0.0525,-12.43787 -1.67767,-24.55007 -2.85494,-21.2787 -2.58127,-32.1177 1.00444,-39.78338 3.14563,-6.72481 7.16831,-9.8548 13.70765,-10.66566 4.96861,-0.61611 5.17205,-0.77012 6.23651,-4.72162 2.00176,-7.43099 10.04557,-12.52357 22.08235,-13.98045 5.75099,-0.69609 19.2423,1.66577 23.13545,4.0502 1.42149,0.87064 2.85696,1.32834 3.18988,1.01712 1.09749,-1.02587 -2.91842,-4.25781 -9.14571,-7.36034 l -6.12945,-3.05377 2.07925,-7.65574 c 3.24396,-11.94411 2.87762,-25.09323 -1.20241,-43.15834 -2.80032,-12.39893 -4.26755,-16.54818 -9.06697,-25.64075 -6.07022,-11.50011 -16.55733,-24.77904 -23.41411,-29.6473 l -4.02285,-2.85618 3.22346,3.92445 c 7.92103,9.6436 21.26615,34.03624 25.61691,46.82342 6.86797,20.18542 7.35211,42.88836 1.15873,54.33596 -2.41344,4.46087 -5.98872,6.67506 -12.02769,7.44877 -5.8862,0.75415 -10.41465,-0.88825 -12.12528,-4.39766 -0.70688,-1.45022 -1.73666,-9.96304 -2.2884,-18.91737 -0.55174,-8.95433 -1.7505,-20.94031 -2.66394,-26.63551 -3.34873,-20.8793 -11.40403,-40.96162 -20.19542,-50.34836 -3.19646,-3.41292 -4.52768,-6.02415 -6.00611,-11.78115 -4.01508,-15.63475 -9.72511,-27.88493 -18.80029,-40.33372 -7.87036,-10.79611 -9.9262,-17.12871 -8.27641,-25.49399 0.66858,-3.39 1.78608,-9.04443 2.48336,-12.56537 1.73959,-8.78429 0.078,-10.89034 -11.3731,-14.41554 -12.39422,-3.81554 -27.16164,-10.34904 -28.02643,-12.39966 -0.4158,-0.9859 -0.78669,-4.23337 -0.82425,-7.21656 -0.14987,-11.9072 4.44038,-18.684319 13.17048,-19.44517 4.24171,-0.369671 5.8831,-0.02469 8.8133,1.852527 7.33325,4.697907 10.23681,14.698133 6.83506,23.540773 -1.92806,5.01189 -1.92612,5.10658 0.13401,6.52707 2.52259,1.73937 8.86081,0.9679 10.73326,-1.30643 1.71613,-2.08447 2.8332,-11.27469 2.11972,-17.43909 -0.3228,-2.78894 -1.61858,-8.177265 -2.87949,-11.974072 -4.7614,-14.33728 -18.58917,-21.410975 -32.73486,-16.74576 -6.97819,2.301381 -11.51314,6.098012 -14.57543,12.202451 -2.51996,5.023333 -2.76012,6.543038 -2.62375,16.601901 0.14959,11.03204 0.1419,11.06826 -2.11005,9.93587 -1.24311,-0.6251 -6.53305,-1.39176 -11.75544,-1.70368 l -9.49525,-0.56712 -0.61316,-7.88947 c -1.36672,-17.585264 -7.96686,-27.317262 -18.52631,-27.317262 -5.16507,0 -8.78643,2.696884 -12.24216,9.116943 -5.92534,11.008108 -6.04802,22.457459 -0.3649,34.060949 2.79012,5.69676 4.77673,6.59681 8.18908,3.71018 2.25081,-1.90403 2.54572,-4.28497 0.53074,-4.28497 -3.60916,0 -8.09661,-8.02453 -8.09661,-14.47849 0,-7.771485 4.83454,-13.134631 11.84005,-13.134631 6.84151,0 11.51784,6.818711 11.55897,16.854521 l 0.0225,5.51342 -7.22694,6.69243 c -3.97482,3.68084 -9.63776,8.13501 -12.5843,9.89816 -5.08932,3.04533 -8.88552,8.02242 -8.88552,11.64952 0,0.82164 2.01774,2.96674 4.48387,4.76689 2.46613,1.80014 6.53796,5.37974 9.04851,7.95464 5.88485,6.03574 9.84289,7.05461 24.97614,6.42922 18.70026,-0.77279 47.80644,-9.39072 54.64153,-16.17858 3.89205,-3.86516 8.43656,-4.25274 8.97035,-0.76503 0.44768,2.92507 -2.38217,4.8601 -11.92384,8.15343 -4.63753,1.60067 -14.12904,5.14314 -21.09222,7.87215 -19.74915,7.74011 -23.14056,8.43515 -38.19344,7.82749 -12.34771,-0.49846 -12.88224,-0.43975 -11.88317,1.30522 3.12342,5.45531 13.59562,9.98385 23.12017,9.99796 9.69938,0.0144 19.17236,-3.3465 42.25434,-14.99111 9.23709,-4.66002 14.24288,-5.03774 14.24288,-1.07474 0,2.01169 -1.80982,3.30801 -11.70316,8.38255 -6.43673,3.30157 -16.59634,9.28772 -22.57693,13.30253 -12.30169,8.25827 -23.23154,13.90326 -26.91949,13.90326 -6.84151,0 -11.06032,-3.19938 -22.10975,-16.76711 -7.33198,-9.00304 -10.80743,-12.5519 -11.48363,-11.72618 -0.17434,0.21289 -0.85271,3.27166 -1.5075,6.79727 -0.82804,4.45857 -3.45207,10.61367 -8.61872,20.21674 -4.08552,7.59361 -8.13817,16.02547 -9.00588,18.73748 -2.01156,6.2871 -2.03562,14.37572 -0.0559,18.8046 1.52944,3.42164 1.50624,3.49234 -2.37382,7.2303 -7.98573,7.69327 -22.13672,35.96053 -26.54225,53.01938 -1.37554,5.32627 -2.18912,13.19633 -2.61647,25.31019 -0.7292,20.66948 -2.13273,24.74746 -7.58703,22.04411 -4.14068,-2.05228 -8.82812,-8.69089 -11.12284,-15.75281 -1.9503,-6.0019 -2.16439,-8.53284 -1.69482,-20.03559 0.29561,-7.24124 0.15394,-12.94434 -0.31482,-12.67354 -0.46876,0.27081 -1.87706,3.03569 -3.12955,6.14419 -3.18596,7.90705 -2.55568,21.00774 1.57669,32.77183 2.8572,8.13396 3.24559,8.65671 13.0958,17.62668 5.5832,5.08428 22.63732,18.9779 37.89804,30.87472 15.2607,11.89684 28.67097,23.04747 29.80059,24.77918 5.61707,8.61109 0.006,20.91732 -11.09933,24.34325 -2.04566,0.63107 -3.7194,1.31943 -3.7194,1.52967 0,0.21024 2.69124,4.28082 5.98052,9.04572 8.59522,12.45115 10.92466,17.72002 11.55176,26.12831 0.2949,3.95433 0.77287,8.26332 1.06213,9.57552 l 0.52594,2.38581 3.32623,-3.1092 c 2.90284,-2.71341 3.32205,-3.77032 3.29317,-8.30291 z m 3.80104,-346.29222 c 0,-1.5035 1.66321,-2.9414 4.49379,-3.88499 1.58061,-0.52691 1.51199,-0.18358 -0.46217,2.31236 -2.49362,3.15273 -4.03162,3.75266 -4.03162,1.57263 z m 30.44893,-2.55339 -2.49069,-1.93955 2.69032,-0.0328 c 2.61616,-0.032 5.22239,1.52663 5.22239,3.12297 0,1.43387 -2.89098,0.82037 -5.42202,-1.1506 z M 140.9115,256.0456 c 3.32243,-3.32459 6.06067,-10.68707 4.51283,-12.13391 -0.55945,-0.52294 -1.27208,-0.56527 -1.58361,-0.0941 -1.12839,1.70662 -8.11194,14.39728 -8.11194,14.74116 0,1.25031 2.75842,-0.0873 5.18272,-2.51316 z m 196.50831,-82.59158 c 2.21484,-1.87362 2.60018,-7.50923 0.61059,-8.92987 -0.72534,-0.5179 -2.98045,-1.52846 -5.01139,-2.24569 -2.03093,-0.71722 -5.68625,-3.0808 -8.12293,-5.25242 l -4.43034,-3.94837 -1.27332,2.61228 c -1.77822,3.64809 1.06844,9.24266 7.61575,14.96727 5.46348,4.77696 7.60395,5.34109 10.61164,2.7968 z M 213.14605,106.21845 c -0.9296,-3.75485 -3.35423,-7.068394 -5.17218,-7.068394 -2.03822,0 -2.01887,2.855224 0.0243,3.588104 1.0114,0.36278 1.58254,1.88206 1.58254,4.20963 0,4.52584 2.1718,7.06811 3.39583,3.97512 0.45142,-1.14065 0.52769,-3.25766 0.16949,-4.70446 z m 72.19473,-0.40751 c 0.43561,-3.41963 -4.9748,-9.25799 -7.68011,-8.287604 -1.69761,0.608924 -1.60862,0.911408 0.9102,3.093434 1.53548,1.33018 3.08321,3.78058 3.43942,5.44534 0.76318,3.56686 2.86435,3.40841 3.33049,-0.25117 z m 2.47946,-58.928577 c 2.65965,-1.800924 5.67328,-2.958549 7.70193,-2.958549 1.83296,0 4.19144,-0.586994 5.24109,-1.304424 1.77472,-1.213033 1.62254,-1.513399 -2.17217,-4.287159 -7.82403,-5.719004 -9.54326,-6.482087 -11.92256,-5.291817 -1.59013,0.795471 -2.19093,2.083234 -2.21819,4.754452 -0.0206,2.01492 -0.71588,4.772944 -1.54516,6.128948 -1.76861,2.891963 -2.03363,5.917097 -0.51838,5.917097 0.5853,0 3.03034,-1.331346 5.43344,-2.958548 z"
       id="path74" />
  </g>
</svg>
