<?xml version="1.0" encoding="UTF-8" standalone="no"?>
<svg
   xmlns:dc="http://purl.org/dc/elements/1.1/"
   xmlns:cc="http://creativecommons.org/ns#"
   xmlns:rdf="http://www.w3.org/1999/02/22-rdf-syntax-ns#"
   xmlns:svg="http://www.w3.org/2000/svg"
   xmlns="http://www.w3.org/2000/svg"
   version="1.1"
   id="svg2"
   width="100"
   height="100"
   viewBox="0 0 512 512">
  <metadata
     id="metadata8">
    <rdf:RDF>
      <cc:Work
         rdf:about="">
        <dc:format>image/svg+xml</dc:format>
        <dc:type
           rdf:resource="http://purl.org/dc/dcmitype/StillImage" />
        <dc:title></dc:title>
      </cc:Work>
    </rdf:RDF>
  </metadata>
  <defs
     id="defs6" />
  <g
     id="g10">
    <path
       style="fill:#000000;stroke-width:1.11483"
       d="M 226.24416,504.23595 C 181.98837,498.51703 142.31072,481.925 105.64342,453.80422 93.572202,444.54661 69.683023,419.91534 60.157358,406.9052 33.9045,371.0491 18.074411,330.99664 12.217585,285.61047 10.638706,273.37529 10.664614,240.52901 12.26383,226.94891 26.017965,110.15416 117.53178,19.096146 232.61223,7.6980043 296.72915,1.3475436 363.84305,22.338793 412.81462,64.060011 c 47.47329,40.444749 77.03502,94.163499 86.23451,156.702899 2.71451,18.45365 2.49478,51.81253 -0.47461,72.05228 -15.91194,108.45797 -98.41427,193.03165 -205.19009,210.34171 -15.19734,2.46372 -51.86457,3.05303 -67.14029,1.07905 z M 209.13704,345.60759 c 21.76011,-31.54859 41.19706,-59.74496 43.19321,-62.65862 l 3.62934,-5.29754 43.06189,62.51866 c 23.68404,34.38527 43.5877,62.72405 44.23038,62.97506 0.64267,0.25102 7.45218,0.314 15.13224,0.13996 l 13.96375,-0.31645 -29.54127,-42.73962 C 326.55889,336.72225 303.74297,303.7195 292.10456,286.8896 l -21.16075,-30.59981 49.98494,-72.31269 c 27.49172,-39.77199 50.36704,-72.94535 50.83404,-73.71861 0.66311,-1.09795 -2.41636,-1.4059 -14.05904,-1.4059 h -14.90813 l -43.39245,62.98383 c -23.86582,34.6411 -43.71088,62.60462 -44.10009,62.14115 -0.38922,-0.46346 -19.49255,-28.17353 -42.45185,-61.57792 -22.95929,-33.40438 -42.33985,-61.38325 -43.06791,-62.17524 -0.97625,-1.06199 -5.13925,-1.35723 -15.8588,-1.12473 l -14.53506,0.31527 50.78574,73.43574 50.78573,73.43573 -46.02525,66.59276 c -25.31387,36.62602 -48.23644,69.77069 -50.93902,73.65484 l -4.91378,7.06207 15.24515,-0.31371 15.24513,-0.31372 z"
       id="path14" />
  </g>
</svg>
