<?xml version="1.0" encoding="UTF-8" standalone="no"?>
<svg
   xmlns:dc="http://purl.org/dc/elements/1.1/"
   xmlns:cc="http://creativecommons.org/ns#"
   xmlns:rdf="http://www.w3.org/1999/02/22-rdf-syntax-ns#"
   xmlns:svg="http://www.w3.org/2000/svg"
   xmlns="http://www.w3.org/2000/svg"
   xmlns:sodipodi="http://sodipodi.sourceforge.net/DTD/sodipodi-0.dtd"
   xmlns:inkscape="http://www.inkscape.org/namespaces/inkscape"
   inkscape:version="1.0 (4035a4fb49, 2020-05-01)"
   sodipodi:docname="mainframe.png"
   viewBox="0 0 512 512"
   height="100"
   width="100"
   id="svg885"
   version="1.1">
  <metadata
     id="metadata891">
    <rdf:RDF>
      <cc:Work
         rdf:about="">
        <dc:format>image/svg+xml</dc:format>
        <dc:type
           rdf:resource="http://purl.org/dc/dcmitype/StillImage" />
        <dc:title></dc:title>
      </cc:Work>
    </rdf:RDF>
  </metadata>
  <defs
     id="defs889" />
  <sodipodi:namedview
     inkscape:current-layer="g893"
     inkscape:window-maximized="1"
     inkscape:window-y="24"
     inkscape:window-x="0"
     inkscape:cy="236.39659"
     inkscape:cx="220.6762"
     inkscape:zoom="0.76599123"
     showgrid="false"
     id="namedview887"
     inkscape:window-height="692"
     inkscape:window-width="1366"
     inkscape:pageshadow="2"
     inkscape:pageopacity="0"
     guidetolerance="10"
     gridtolerance="10"
     objecttolerance="10"
     borderopacity="1"
     bordercolor="#666666"
     pagecolor="#ffffff" />
  <g
     id="g893"
     inkscape:label="Image"
     inkscape:groupmode="layer">
    <path
       id="path899"
       d="m 62.071898,497.66715 v -9.89668 H 41.128366 20.184831 L 19.815239,253.85 C 19.611965,125.19375 19.33477,18.819157 19.199254,17.462023 19.024806,15.715061 24.84249,14.827685 39.121759,14.423225 57.798539,13.894208 59.347968,13.529108 60.065284,9.4881937 L 60.839926,5.1244458 140.62403,4.6032563 c 82.44159,-0.5385494 86.53218,-0.1867625 86.53218,7.4417087 0,3.655875 6.5605,5.838163 17.68759,5.883607 3.62995,0.01481 8.39085,1.461827 10.57985,3.215561 3.66403,2.935467 4.32915,2.935467 8.37782,0 3.12363,-2.264731 9.16054,-3.188606 20.83547,-3.188606 h 16.43761 V 12.006879 6.05823 l 81.92617,0.5201141 81.92617,0.520114 0.77211,6.4155409 c 0.74026,6.151074 1.21029,6.41554 11.40203,6.41554 5.94702,0 11.85288,1.180529 13.4059,2.679724 2.03154,1.961134 2.60799,64.291844 2.14964,232.439957 l -0.6263,229.76023 -12.81125,0.59319 -12.81125,0.5932 -0.74042,10.26385 -0.74042,10.26386 h -81.31018 -81.31019 l -0.77209,-6.41554 -0.77211,-6.41554 h -18.18373 c -16.04425,0 -18.64855,-0.52262 -22.13377,-4.44153 -3.65093,-4.10525 -4.13717,-4.17997 -6.42203,-0.987 -1.82406,2.54904 -5.63009,3.45452 -14.52054,3.45452 h -12.04857 l -0.76474,7.40255 -0.76475,7.40254 -81.92617,0.52009 -81.926162,0.52018 z m 65.887332,-20.86131 c 20.65359,-10.7979 37.5624,-20.33588 37.57516,-21.19548 0.0197,-1.32818 -55.49819,-58.31877 -80.671001,-82.81091 l -8.007821,-7.79129 v 66.54025 66.54023 l 6.775848,-0.82512 c 3.726717,-0.45384 23.674234,-9.65977 44.327814,-20.45768 z m 77.02147,19.82821 c 0,-0.55359 -6.74167,-7.66837 -14.9815,-15.81066 -8.87485,-8.76979 -16.10591,-14.2474 -17.74002,-13.43828 -4.09227,2.02626 -52.11615,28.58612 -53.31122,29.48404 -0.56463,0.42423 18.56172,0.77138 42.50305,0.77138 23.94133,0 43.52969,-0.45291 43.52969,-1.00648 z m 227.63845,-3.43504 c -0.98959,-1.35714 -7.38299,-7.79735 -14.20753,-14.31159 -6.82452,-6.51424 -12.65352,-12.15058 -12.95332,-12.52519 -0.29976,-0.37457 -15.87015,6.04968 -34.60081,14.27618 l -34.05573,14.95725 48.80834,0.0352 c 38.37308,0.0278 48.42363,-0.49215 47.00905,-2.43208 z m 18.20864,-82.7891 -0.6846,-28.2491 -5.74481,12.83108 c -3.15964,7.05709 -10.71634,23.73756 -16.79261,37.06771 l -11.04782,24.23663 16.79262,17.71398 16.79262,17.71398 0.6846,-26.53259 c 0.37652,-14.5929 0.37652,-39.24467 0,-54.78169 z m -76.43459,53.59176 20.34386,-9.0868 -39.43943,-42.13946 -39.4394,-42.13946 v 59.60531 59.60528 l 19.09557,-8.37903 c 10.50256,-4.60847 28.25031,-12.4681 39.4394,-17.46584 z m -162.20243,-13.24393 -0.18186,-31.0907 -11.84082,19.71636 -11.8408,19.71636 11.15408,11.37434 c 6.13473,6.25588 11.54489,11.37434 12.02258,11.37434 0.47769,0 0.78668,-13.99082 0.68674,-31.0907 z m -15.21789,-34.84971 c 9.82498,-16.70831 17.86361,-31.29887 17.86361,-32.42347 0,-1.12459 -1.94036,-2.50295 -4.31191,-3.06303 -9.06448,-2.1407 -112.152059,-17.14424 -113.019745,-16.44907 -0.502029,0.40221 14.755065,16.65126 33.904705,36.10899 19.14964,19.45774 37.16163,37.77138 40.02667,40.69701 2.86501,2.92562 5.76352,5.36185 6.4411,5.41383 0.67758,0.0518 9.27059,-13.57592 19.09557,-30.28426 z m 223.7846,-5.73999 c 8.23088,-17.57539 14.18254,-32.21648 13.22591,-32.53575 -6.02792,-2.01182 -105.83103,-17.28876 -105.26823,-16.11349 1.8915,3.94976 74.78233,82.27818 75.84509,81.50304 0.67758,-0.49418 7.96633,-15.2784 16.19723,-32.8538 z M 214.83649,368.33313 c 0,-2.56604 -57.52167,-72.04186 -59.64619,-72.04186 -2.77895,0 -70.942897,49.00985 -70.942897,51.00791 0,1.20977 116.393327,21.3159 126.277177,21.81347 2.37155,0.11942 4.31191,-0.23139 4.31191,-0.77952 z m 201.29434,-38.41551 c -16.8814,-21.70225 -28.79844,-35.1263 -30.71007,-34.59366 -3.68896,1.02785 -69.65996,48.92355 -68.57929,49.78933 1.06698,0.85485 117.71346,20.01305 122.69684,20.15195 3.01027,0.0839 -3.53489,-9.79997 -23.40748,-35.34762 z m 35.16944,-69.65207 c -0.0416,-51.66441 -1.00152,-91.95121 -2.15208,-90.31107 -2.02148,2.8816 -50.96035,109.15528 -52.46003,113.92004 -0.60706,1.92876 51.92926,69.60115 54.07105,69.64927 0.33879,0.008 0.58226,-41.9586 0.54106,-93.25824 z m -238.92773,10.4796 -1.23197,-71.93542 -21.43712,42.78063 -21.43711,42.78066 22.46611,29.64639 c 12.35633,16.30552 22.55744,29.42518 22.66909,29.15478 0.11165,-0.27038 -0.35142,-32.86257 -1.029,-72.42704 z m -67.3643,12.6039 c 0.9609,-2.00617 -53.025775,-80.77846 -64.825438,-94.58718 -2.820724,-3.301 -3.327234,7.46424 -3.327234,70.71612 v 74.6099 l 33.487592,-24.14025 c 18.41817,-13.27712 34.01745,-25.24649 34.66508,-26.59859 z m 220.6619,9.64748 11.62076,-9.53697 -29.69741,-40.46694 c -16.33359,-22.25681 -30.15595,-40.83707 -30.71635,-41.28945 -0.5604,-0.45236 -1.01891,28.28959 -1.01891,63.87105 v 64.69354 l 19.09557,-13.86712 c 10.50256,-7.62694 24.32493,-18.15879 30.71634,-23.40411 z M 180.231,228.18784 c 11.03581,-21.71413 22.78232,-44.64655 26.10333,-50.96093 7.99429,-15.19984 7.87818,-17.76692 -0.73765,-16.31189 -5.72463,0.96676 -76.57828,10.32308 -107.30764,14.17012 -5.151216,0.64488 -9.031929,1.85846 -8.623807,2.69684 3.840004,7.88845 67.527707,92.4209 68.808317,91.32902 0.93077,-0.79359 10.72161,-19.20902 21.75745,-40.92316 z m 240.23997,-32.5712 c 5.91844,-12.48563 11.50149,-24.19407 12.40677,-26.01876 1.30629,-2.63306 -0.047,-3.48434 -6.55993,-4.12562 l -8.20588,-0.80799 9.2398,-0.3159 c 5.08189,-0.17378 9.2398,-1.29926 9.2398,-2.50113 0,-1.20186 -1.64967,-1.67805 -3.66591,-1.05818 -2.01624,0.61986 -9.31509,1.7274 -16.21964,2.4612 -7.4857,0.79556 -11.30866,1.95067 -9.46964,2.86125 1.87494,0.92836 -1.35762,2.0607 -8.24489,2.88814 -6.23091,0.7486 -12.43338,0.81422 -13.78328,0.14583 -2.69809,-1.33594 -62.10129,6.44803 -64.98295,8.51512 -1.39375,0.99977 38.70075,57.59408 61.54656,86.87443 4.09925,5.25377 0.50996,11.64582 38.69919,-68.91838 z m -22.63969,-28.931 c -1.66816,-0.54076 -4.99449,-0.57363 -7.39183,-0.0732 -2.39734,0.50047 -1.03247,0.94291 3.03304,0.98314 4.06552,0.0401 6.02696,-0.36927 4.35879,-0.91 z M 150.51019,156.16659 c 33.05661,-4.35944 60.4988,-7.92625 60.98265,-7.92625 5.05209,0 -20.93262,-25.83692 -72.0936,-71.683589 l -10.60365,-9.502198 -3.93087,7.528186 c -6.81915,13.05961 -43.081262,88.755831 -43.081262,89.931001 0,0.61771 1.940357,0.7757 4.311903,0.35113 2.371547,-0.4246 31.358219,-4.33881 64.414829,-8.69825 z m 220.7868,1.94115 c 28.45856,-4.32826 54.27069,-8.34266 57.36029,-8.92088 5.15803,-0.96534 2.56361,-4.27601 -31.72159,-40.47917 -34.24325,-36.158825 -41.65435,-42.837656 -41.65435,-37.538494 0,1.039139 -9.42458,20.935877 -20.94353,44.214954 -20.75075,41.93602 -23.82166,50.63593 -17.8636,50.60772 1.69397,-0.008 26.36421,-3.55588 54.82278,-7.88413 z m 80.0782,-76.983815 c 0,-61.0492 -0.15915,-63.168398 -4.74681,-63.168398 -5.19079,0 -78.8024,37.45387 -78.94152,40.165743 -0.047,0.919878 16.33256,18.241837 36.39945,38.493243 20.06688,20.251407 38.63887,39.235657 41.27107,42.187237 2.63221,2.95158 5.06304,5.39442 5.40183,5.42853 0.33879,0.0339 0.61598,-28.36374 0.61598,-63.106355 z M 100.31069,92.968 c 8.64307,-17.914163 16.04888,-33.639975 16.45732,-34.946244 0.75004,-2.398674 -37.103714,-39.701241 -40.528429,-39.938308 -1.016377,-0.07036 -1.769643,28.075781 -1.673919,62.546974 l 0.174016,62.674888 4.928152,-8.88306 c 2.710524,-4.88568 11.999797,-23.54009 20.64286,-41.45425 z m 113.545,-64.61217 c -0.93262,-0.747189 -72.37004,25.993259 -74.93844,28.050955 -0.53775,0.430804 16.04693,16.53146 36.85479,35.779235 l 37.83247,34.99595 0.6598,-48.985061 c 0.36289,-26.941781 0.1791,-49.370267 -0.40862,-49.841079 z m 118.99853,58.20331 14.4429,-28.709592 -13.52601,-12.544465 c -7.43932,-6.899455 -14.51309,-13.388353 -15.71946,-14.419775 -1.28632,-1.099768 -2.19342,16.383973 -2.19342,42.276765 0,24.283641 0.5744,43.691857 1.27654,43.129367 0.70207,-0.56247 7.77585,-13.94202 15.71945,-29.7323 z M 169.2535,31.910275 208.67662,16.308466 152.49945,16.144987 c -46.92654,-0.136558 -55.85273,0.281926 -54.206798,2.54136 2.938978,4.034452 28.880608,28.632483 30.305758,28.736132 0.67758,0.04929 18.97237,-6.931216 40.65509,-15.512204 z m 219.67927,0.356839 28.68808,-15.298596 -23.7779,-0.564987 c -13.07786,-0.310741 -34.20126,-0.310741 -46.94087,0 l -23.16293,0.564987 16.17295,15.298596 c 8.8951,8.414228 17.10887,15.298596 18.25277,15.298596 1.14391,0 14.98946,-6.884368 30.7679,-15.298596 z"
       style="fill:#000000;stroke-width:2.20541" />
  </g>
</svg>
