<?xml version="1.0" encoding="UTF-8" standalone="no"?>
<svg
   xmlns:dc="http://purl.org/dc/elements/1.1/"
   xmlns:cc="http://creativecommons.org/ns#"
   xmlns:rdf="http://www.w3.org/1999/02/22-rdf-syntax-ns#"
   xmlns:svg="http://www.w3.org/2000/svg"
   xmlns="http://www.w3.org/2000/svg"
   xmlns:sodipodi="http://sodipodi.sourceforge.net/DTD/sodipodi-0.dtd"
   xmlns:inkscape="http://www.inkscape.org/namespaces/inkscape"
   inkscape:version="1.0 (4035a4fb49, 2020-05-01)"
   sodipodi:docname="maltego.svg"
   viewBox="0 0 512 512"
   height="100"
   width="100"
   id="svg62"
   version="1.1">
  <metadata
     id="metadata68">
    <rdf:RDF>
      <cc:Work
         rdf:about="">
        <dc:format>image/svg+xml</dc:format>
        <dc:type
           rdf:resource="http://purl.org/dc/dcmitype/StillImage" />
        <dc:title></dc:title>
      </cc:Work>
    </rdf:RDF>
  </metadata>
  <defs
     id="defs66" />
  <sodipodi:namedview
     inkscape:current-layer="g70"
     inkscape:window-maximized="1"
     inkscape:window-y="24"
     inkscape:window-x="0"
     inkscape:cy="257.27691"
     inkscape:cx="186.88816"
     inkscape:zoom="0.91717297"
     showgrid="false"
     id="namedview64"
     inkscape:window-height="692"
     inkscape:window-width="1366"
     inkscape:pageshadow="2"
     inkscape:pageopacity="0"
     guidetolerance="10"
     gridtolerance="10"
     objecttolerance="10"
     borderopacity="1"
     bordercolor="#666666"
     pagecolor="#ffffff" />
  <g
     id="g70"
     inkscape:label="Image"
     inkscape:groupmode="layer">
    <path
       id="path74"
       d="m 238.22996,502.935 c -0.2296,-0.20631 -3.95984,-0.67937 -8.28947,-1.05129 -7.5638,-0.64974 -11.12107,-1.13297 -16.79368,-2.28134 -1.44321,-0.29218 -4.04098,-0.78084 -5.77283,-1.08596 -1.73185,-0.3051 -5.03811,-1.06006 -7.34724,-1.67764 -2.30913,-0.6176 -5.27256,-1.32052 -6.58538,-1.56206 -1.31283,-0.24152 -6.27221,-1.67258 -11.02086,-3.18009 C 107.20399,468.2181 47.498244,410.02065 21.755813,335.49065 18.191045,325.16987 13.403052,306.82001 12.218721,298.94001 11.890835,296.75839 11.3792,293.42649 11.081757,291.53575 6.9355437,265.18 7.9709851,232.97255 13.861725,205.06469 31.073786,123.52114 89.268636,55.30171 167.48897,24.973811 c 9.43903,-3.659735 25.54378,-8.620139 31.48816,-9.698625 1.73185,-0.31423 4.6926,-1.024271 6.57945,-1.577918 1.88685,-0.553625 3.66488,-0.99666 3.95118,-0.984469 0.54165,0.02295 7.86119,-1.166558 11.51109,-1.870862 13.7726,-2.657635 56.9394,-2.573788 70.91083,0.137749 1.36263,0.26447 4.23472,0.744945 6.38241,1.067755 7.66325,1.151838 28.89938,6.7791 39.73776,10.529925 22.67584,7.847392 52.89531,24.645779 72.88021,40.512613 9.45029,7.502977 32.07046,30.266628 39.65032,39.901831 20.52916,26.09581 37.25624,59.77438 45.44283,91.49539 1.96835,7.62683 2.13101,8.38958 3.72214,17.45287 0.61279,3.49057 1.32999,7.53648 1.59377,8.99087 3.06349,16.8912 2.69387,56.59129 -0.69375,74.51536 -0.55558,2.93964 -1.25402,6.77274 -1.55208,8.51803 -1.39741,8.18243 -6.04862,24.76539 -9.99139,35.62233 -26.99679,74.33927 -89.6119,132.77494 -165.23159,154.20268 -6.34468,1.79785 -12.7166,3.48234 -14.1598,3.74332 -1.44321,0.261 -5.22179,0.98324 -8.39684,1.60502 -3.17506,0.62177 -7.66213,1.37263 -9.97126,1.66856 -2.30913,0.29592 -5.61538,0.78897 -7.34724,1.09565 -3.67738,0.65122 -45.14834,1.5874 -45.76521,1.03312 z m 53.63725,-23.32963 c 46.71995,-8.01106 88.14461,-28.92113 121.58814,-61.37445 20.07385,-19.47949 35.25702,-40.37403 46.90744,-64.55235 10.06152,-20.88082 15.91035,-39.37917 20.08081,-63.51043 2.77096,-16.03339 2.51424,-54.92889 -0.47094,-71.3527 C 471.32074,171.21447 450.52952,131.12499 416.83416,97.072264 347.80436,27.310369 244.21039,9.6720763 156.74677,52.78882 101.25752,80.143237 59.332791,128.34357 40.502493,186.43339 17.10708,258.60618 31.281901,336.28191 78.847101,396.55566 c 9.346355,11.84352 28.401599,30.345 40.884819,39.69665 34.51727,25.8582 69.9225,39.74742 115.4566,45.29278 8.43424,1.02716 47.0915,-0.29582 56.67869,-1.93972 z m -117.031,-50.25953 c -15.72831,-4.19766 -27.39961,-11.26256 -38.82411,-23.50112 -23.15909,-24.80929 -27.08928,-61.672 -9.73211,-91.28092 5.30262,-9.04551 16.93399,-20.9448 25.71505,-26.30734 36.73432,-22.43343 83.60241,-13.28839 107.94154,21.06189 10.69739,15.09742 14.55826,28.41601 13.86195,47.81867 -0.54342,15.14187 -3.88105,26.20664 -11.41205,37.83249 -11.32623,17.48469 -27.5095,29.14321 -47.66488,34.3381 -10.89932,2.8092 -29.43621,2.82697 -39.88539,0.0381 z m 182.2333,-81.54679 c -16.63651,-2.999 -30.92416,-10.65015 -43.16058,-23.11285 -9.91302,-10.09634 -14.6162,-17.37277 -18.49602,-28.61578 -9.45683,-27.40413 -3.26779,-56.43087 16.59448,-77.82847 42.55293,-45.84218 119.53704,-26.70361 135.79303,33.75871 10.73767,39.93754 -15.12021,82.83938 -56.78334,94.21152 -7.67412,2.09468 -26.3005,2.96537 -33.94757,1.58687 z M 179.6862,238.85079 c -16.63652,-2.99899 -30.92417,-10.65015 -43.16059,-23.11284 -9.91302,-10.09634 -14.6162,-17.37278 -18.49602,-28.61578 -9.45683,-27.40413 -3.26779,-56.43088 16.59448,-77.82847 42.55293,-45.842188 119.53705,-26.70362 135.79303,33.7587 10.73767,39.93754 -15.12021,82.83939 -56.78334,94.21152 -7.67412,2.09468 -26.3005,2.96537 -33.94756,1.58687 z"
       style="fill:#000000;stroke-width:1.05367" />
  </g>
</svg>
