<?xml version="1.0" encoding="UTF-8" standalone="no"?>
<!-- Created with Inkscape (http://www.inkscape.org/) -->

<svg
   xmlns:dc="http://purl.org/dc/elements/1.1/"
   xmlns:cc="http://creativecommons.org/ns#"
   xmlns:rdf="http://www.w3.org/1999/02/22-rdf-syntax-ns#"
   xmlns:svg="http://www.w3.org/2000/svg"
   xmlns="http://www.w3.org/2000/svg"
   xmlns:sodipodi="http://sodipodi.sourceforge.net/DTD/sodipodi-0.dtd"
   xmlns:inkscape="http://www.inkscape.org/namespaces/inkscape"
   version="1.1"
   id="svg834"
   width="100"
   height="100"
   viewBox="0 0 225 225"
   sodipodi:docname="marina.svg"
   inkscape:version="0.92.3 (2405546, 2018-03-11)">
  <metadata
     id="metadata840">
    <rdf:RDF>
      <cc:Work
         rdf:about="">
        <dc:format>image/svg+xml</dc:format>
        <dc:type
           rdf:resource="http://purl.org/dc/dcmitype/StillImage" />
        <dc:title></dc:title>
      </cc:Work>
    </rdf:RDF>
  </metadata>
  <defs
     id="defs838" />
  <sodipodi:namedview
     pagecolor="#ffffff"
     bordercolor="#666666"
     borderopacity="1"
     objecttolerance="10"
     gridtolerance="10"
     guidetolerance="10"
     inkscape:pageopacity="0"
     inkscape:pageshadow="2"
     inkscape:window-width="1360"
     inkscape:window-height="686"
     id="namedview836"
     showgrid="false"
     inkscape:zoom="1.5776338"
     inkscape:cx="112.5"
     inkscape:cy="117.12238"
     inkscape:window-x="0"
     inkscape:window-y="26"
     inkscape:window-maximized="1"
     inkscape:current-layer="svg834" />
  <path
     id="path844"
     style="fill:#000000;stroke-width:1.03368783"
     d="m 124.18945,0.546875 4.36719,3.6484375 c 2.40263,2.0072689 4.96721,4.986847 5.69922,6.6210935 0.91853,2.05062 2.07959,2.970703 3.74414,2.970703 6.49635,0 11.28742,7.278992 17.67188,26.84375 4.87191,14.929796 8.96257,22.37851 14.05273,25.591797 4.35517,2.749318 8.6229,2.85705 11.97266,0.300782 2.3062,-1.759918 2.33806,-1.891676 0.34765,-1.431641 -5.61962,1.29884 -11.62673,-7.767217 -19.9707,-30.144531 C 156.73236,20.62118 154.60539,16.740605 149.01758,11.134766 143.1301,5.2282812 136.7851,1.9256328 129.86719,1.1679688 Z m -8.53711,1.5976562 c -1.5024,-0.010402 -3.09955,0.081697 -4.78515,0.2753907 -3.98794,0.458254 -9.48773,0.8538414 -12.220706,0.8808593 -3.416216,0.033779 -4.814107,0.4232502 -4.472656,1.2460938 0.691006,1.665218 8.789022,5.1528618 14.421872,6.210937 2.58256,0.485111 7.11231,0.630272 10.06836,0.324219 2.95605,-0.306052 6.96737,-0.506302 8.91211,-0.445312 l 3.53516,0.111328 -1.88672,-2.9531251 c -2.3404,-3.6637914 -7.06185,-5.605314 -13.57227,-5.6503907 z M 98.277344,10.953125 c -4.467762,0.09515 -7.40292,1.816417 -11.498047,5.892578 -6.217476,6.188691 -9.011961,12.673865 -10.03125,23.283203 -0.906143,9.431576 -3.650808,14.552019 -10.644531,19.851563 -6.336943,4.801867 -7.552759,7.843229 -6.683594,16.71289 0.558274,5.697192 0.352922,7.634282 -0.992188,9.410157 -1.428514,1.885994 -1.449539,2.236328 -0.142578,2.236328 2.396389,0 4.733986,-4.080943 6.017578,-10.501953 0.642409,-3.213594 1.847752,-6.470766 2.677735,-7.238282 0.829973,-0.767515 4.283945,-2.261411 7.675781,-3.320312 12.533909,-3.912973 18.007547,-10.94361 19.792969,-25.419922 0.549621,-4.456358 1.804515,-9.575559 2.789062,-11.376953 3.141939,-5.748727 10.204459,-13.783972 12.968749,-14.75586 3.82944,-1.346375 2.33315,-2.625221 -4.63476,-3.96289 -2.91791,-0.560168 -5.26413,-0.853796 -7.294926,-0.810547 z m 28.603516,1.310547 c -3.42577,-0.06217 -7.61942,0.892679 -11.13672,2.798828 -9.8181,5.320774 -14.72021,12.974804 -17.542968,27.396484 -2.962187,15.134001 -10.556198,26 -18.171875,26 -4.084261,0 -9.810163,2.678877 -11.833985,5.535157 -0.927565,1.309112 -1.914139,5.183772 -2.191406,8.611328 -0.433733,5.361612 -0.955341,6.610032 -3.736328,8.939453 -2.068977,1.733023 -3.880932,2.477949 -5.035156,2.068359 -1.215431,-0.4313 -1.549257,-0.262348 -1.025391,0.521485 0.427477,0.639629 2.374402,1.164062 4.328125,1.164062 5.166337,0 8.995866,-3.918715 9.884766,-10.115234 1.171531,-8.166805 2.847522,-9.269532 14.097656,-9.269532 8.778253,0 10.01446,-0.248479 14.841797,-3.003906 7.616825,-4.347665 10.712355,-9.119352 14.396485,-22.185547 3.74721,-13.289855 4.66797,-14.841497 13.07226,-22.02539 7.08045,-6.052257 8.99351,-10.669069 5.97266,-14.414063 -1.05653,-1.309802 -3.25543,-1.973126 -5.91992,-2.021484 z m 12.30273,5.005859 c -1.87892,0.02802 -3.0193,1.705042 -3.51562,5.126953 -0.77203,5.322705 6.20589,21.77108 14.28906,33.685547 7.57975,11.172429 22.38475,28.740803 26.50977,31.457031 1.71815,1.131357 5.13611,2.640224 7.5957,3.351563 5.04121,1.457964 6.55251,1.532872 10.38477,0.513672 2.46701,-0.65612 2.33589,-0.778937 -1.61133,-1.478516 -9.16128,-1.623689 -16.80543,-7.963701 -18.38086,-15.248047 -0.39476,-1.825243 -1.52611,-3.423014 -2.66016,-3.755859 -3.66451,-1.07554 -11.45692,-10.275347 -14.33594,-16.925781 -1.55884,-3.60087 -4.28349,-11.474254 -6.05468,-17.498047 -4.22323,-14.363229 -5.94827,-17.396953 -10.80078,-18.984375 -0.51357,-0.168003 -0.98633,-0.250606 -1.41993,-0.244141 z M 73.658203,40.189453 c -0.490164,-0.03156 -1.583592,0.867882 -4.023437,2.90625 -2.431646,2.031514 -6.306419,4.472312 -8.609375,5.425781 -4.05756,1.679907 -4.112136,1.767568 -1.759766,2.816407 3.098607,1.381555 7.921015,1.494402 10.447266,0.24414 2.174707,-1.076277 4.341795,-5.93247 4.341797,-9.728515 0,-1.052627 -0.01525,-1.639518 -0.396485,-1.664063 z m 62.160157,4.566406 c -1.24817,-0.01129 -2.65447,0.232796 -4.6582,0.726563 -2.7336,0.673616 -5.43054,1.645412 -5.99219,2.160156 -1.63613,1.499494 3.44142,1.114951 6.85937,-0.519531 2.26304,-1.082189 3.95429,-1.213687 6.59375,-0.513672 4.66005,1.235903 5.20926,0.598193 0.9043,-1.050781 -1.36871,-0.524274 -2.45886,-0.791444 -3.70703,-0.802735 z m 7.11523,7.75586 c 0.0273,0.04541 0.0693,0.10568 0.0996,0.154297 0.13795,0.01875 0.26879,0.03194 0.40821,0.05273 -0.0973,-0.117365 -0.26758,-0.192685 -0.50782,-0.207031 z m 9.77149,12.980469 c -0.11715,0.01361 -0.17969,0.106143 -0.17969,0.287109 0,3.214563 5.70798,18.29211 9.4043,24.841797 4.17685,7.401204 11.63142,14.259426 16.20312,14.906246 1.58245,0.22388 2.99869,0.47474 3.14649,0.55664 0.14781,0.0819 0.26953,-0.29898 0.26953,-0.8457 0,-0.54671 -0.6764,-0.99414 -1.50195,-0.99414 -0.8256,0 -2.98086,-1.55845 -4.78907,-3.46289 -3.17,-3.338719 -4.73834,-7.062258 -6.08008,-14.429688 -0.63788,-3.502567 -14.71543,-21.063571 -16.47265,-20.859374 z m -2.60156,1.140624 c -0.0463,-0.01412 -0.0921,-0.0128 -0.13672,0.002 -0.23797,0.07841 -0.46472,0.539382 -0.79297,1.080078 -0.58083,0.956754 -1.75585,1.738281 -2.61328,1.738281 -0.85744,0 -1.56009,0.783479 -1.56055,1.740234 -0.001,2.528256 -6.02045,13.899516 -9.27539,17.521485 -9.07906,10.10282 -22.32636,9.925986 -31.9082,-0.425782 l -3.976566,-4.298828 2.630856,-2.546875 c 2.72054,-2.632929 6.99171,-10.448743 7.03321,-12.86914 0.013,-0.757125 -1.02989,-0.137809 -2.31836,1.376953 -1.28848,1.514762 -4.52714,4.035652 -7.197269,5.601562 -4.298913,2.521114 -5.847281,2.849762 -13.513672,2.863282 -4.761735,0.0084 -9.325493,0.406208 -10.142578,0.884765 -0.817084,0.478546 -1.893629,3.257008 -2.392578,6.175781 -0.498949,2.918785 -1.808742,6.434427 -2.910156,7.8125 -2.627219,3.28715 -10.960722,9.190718 -19.009766,13.464848 -3.54726,1.88364 -5.665844,3.43145 -4.707031,3.43945 4.565743,0.0401 23.636023,-5.3211 31.443359,-8.83984 10.295696,-4.64023 15.504344,-8.774706 16.425782,-13.035161 0.386651,-1.787784 1.06824,-2.714519 1.61914,-2.205078 1.850305,1.711055 5.320729,34.142179 4.988279,46.617189 -0.17713,6.64647 0.009,11.89504 0.41406,11.66211 1.23941,-0.7126 5.17579,-11.24146 5.17579,-13.84375 0,-4.72084 2.00296,-2.39048 2.75976,3.21094 2.56843,19.00999 -4.13113,47.21274 -17.308592,72.86914 -3.22921,6.28724 -5.104897,10.53679 -4.167969,9.44336 5.845411,-6.8218 21.941411,-43.63251 21.941411,-50.17969 0,-3.38125 1.45226,-2.2507 5.1875,4.03711 l 3.57812,6.02148 3.47461,-6.73047 3.47656,-6.73047 3.36328,6.41407 c 3.1877,6.07913 6.82836,10.88672 8.24414,10.88672 0.35467,0 -1.02123,-2.34849 -3.05859,-5.21875 -6.35111,-8.94756 -8.48373,-16.41459 -8.58789,-30.06836 -0.11553,-15.13891 0.6915,-18.52834 5.61328,-23.57227 4.01744,-4.11714 10.19393,-7.29951 12.07813,-6.22266 0.56519,0.32302 1.02734,3.61847 1.02734,7.32422 0,6.29057 -0.28939,7.11231 -4.36914,12.38086 -5.74984,7.42526 -6.15739,10.35304 -2.71484,19.46485 3.29422,8.71919 3.80341,20.43369 1.14453,26.31836 -1.80381,3.99225 -7.07049,7.52714 -11.25782,7.55664 -2.13025,0.015 -2.35433,0.21857 -1.07617,0.98242 2.32247,1.38794 8.11553,1.21343 12.12696,-0.36719 4.33482,-1.70803 7.64023,-5.10367 9.22265,-9.47266 1.97155,-5.44335 1.4982,-17.95379 -0.95703,-25.30468 -1.22237,-3.65972 -1.88961,-7.59739 -1.51953,-8.96094 0.36309,-1.33781 3.31759,-5.41241 6.56641,-9.05469 7.5936,-8.51324 9.07812,-11.9356 9.07812,-20.93945 0,-9.05428 -0.39348,-11.15896 -5.66406,-30.273439 -3.81667,-13.841686 -4.78244,-17.518733 -5.47656,-17.730469 z m -27.45899,5.027344 c -0.4453,-0.02396 -1.11453,0.147911 -1.96094,0.585938 -1.15228,0.596315 -2.88386,0.64156 -4.38086,0.115234 -3.18882,-1.121168 -3.2365,0.425617 -0.0566,1.84375 3.1369,1.399012 3.13718,1.399324 5.56446,-0.298828 1.70593,-1.193483 1.81363,-2.193389 0.83398,-2.246094 z m -3.36328,6.402344 c -2.2614,-0.0092 -4.66447,0.409329 -6.37891,1.257812 -1.26422,0.625675 -2.29882,1.357473 -2.29882,1.626954 0,0.269498 3.65168,0.36687 8.11523,0.214843 7.4635,-0.254214 7.95326,-0.398701 6.0918,-1.792968 -1.14838,-0.860181 -3.2679,-1.297412 -5.5293,-1.306641 z m 2.07422,7.632812 c -3.04639,0.153465 -8.38353,1.174276 -7.98047,1.777344 0.82587,1.235739 8.78645,1.075949 9.63477,-0.193359 0.38968,-0.583088 0.53903,-1.213076 0.33203,-1.400391 -0.20897,-0.189089 -0.97087,-0.234748 -1.98633,-0.183594 z m 16.26367,5.66211 c 0.37445,-0.0196 0.93829,0.873223 1.25195,1.982422 0.35701,1.262449 -1.96887,6.934616 -6.21875,15.166016 -3.76627,7.29477 -7.37525,15.9035 -8.10546,19.33594 -1.3257,6.23126 -0.93567,26.28695 0.5996,30.82617 0.73245,2.16557 0.52956,2.23633 -6.40429,2.23633 h -7.16211 l 0.84961,-3.72657 c 0.4671,-2.05018 0.78237,-9.76776 0.70117,-17.14843 -0.11663,-10.60451 -0.6559,-15.08695 -2.57031,-21.3711 -1.33243,-4.37374 -2.64599,-9.90251 -2.91993,-12.28711 l -0.49804,-4.33593 6.60937,4.15039 6.60743,4.14843 2.07031,-2.29882 c 1.13843,-1.26474 4.86833,-5.52661 8.28906,-9.470707 3.42074,-3.944104 6.52594,-7.187451 6.90039,-7.207031 z m 24.73633,5.929687 c -0.46732,0 0.062,3.243341 1.17773,7.207031 3.32657,11.81753 1.30524,20.88662 -6.59179,29.57031 -9.6027,10.5593 -8.81049,14.12142 4.47851,20.13867 9.36247,4.23938 9.58393,4.98965 3.09961,10.53126 -3.04966,2.60625 -5.54492,5.5187 -5.54492,6.4707 0,0.95201 1.69248,4.75552 3.76172,8.45312 2.06923,3.69759 3.76176,7.36585 3.75976,8.15039 -0.005,1.8859 -3.82163,7.70046 -7.29492,11.11719 -1.52835,1.50347 -2.42191,2.73438 -1.98633,2.73438 2.04086,0 7.13874,-3.22196 10.19922,-6.44532 3.91589,-4.12433 4.47888,-9.32701 1.77344,-16.41796 -0.88681,-2.32437 -1.61328,-4.61682 -1.61328,-5.09571 0,-0.47889 2.48139,-2.52063 5.51367,-4.53515 5.80877,-3.85912 8.46094,-8.02684 8.46094,-13.29688 0,-2.46302 -1.42087,-4.48646 -6.82031,-9.72266 -3.75058,-3.63718 -7.08217,-7.3035 -7.4043,-8.14648 -0.75438,-1.9741 0.99052,-4.08527 5.31055,-6.42383 6.55237,-3.54702 7.09441,-9.04225 1.84961,-18.72461 -3.05707,-5.64355 -10.78785,-15.564451 -12.12891,-15.564451 z m -70.527345,0.792969 c -0.638803,-0.03965 -1.991195,0.52344 -4.066406,1.712891 -5.011106,2.872211 -13.10409,6.423921 -19.296875,8.470701 -4.724563,1.56151 -4.966949,2.53343 -3.826172,15.36524 0.437441,4.92045 0.500267,10.28758 0.138672,11.92773 -0.417738,1.89479 -3.91534,6.11572 -9.59375,11.57813 -10.239617,9.8501 -11.466686,12.73694 -8.652344,20.375 3.294158,8.94022 1.798624,11.2871 -7.195312,11.28711 -3.190816,0 -5.698254,-0.68034 -7.595704,-2.06055 -2.113296,-1.53722 -2.832031,-1.7018 -2.832031,-0.65039 0,1.92101 3.420044,4.63496 7.140625,5.66601 4.962691,1.37526 12.0714,1.13786 15.533203,-0.51757 4.610384,-2.20469 5.684416,-5.59684 4.152344,-13.10547 -1.763569,-8.64316 -1.002651,-10.49817 5.763672,-14.07813 3.142635,-1.66272 6.509602,-3.83602 7.482422,-4.83008 3.655107,-3.73489 5.96728,-10.67573 6.705078,-20.125 0.405527,-5.19381 1.350929,-10.78563 2.101562,-12.42578 0.750643,-1.64015 4.329406,-6.06839 7.953125,-9.83984 5.439155,-5.66087 7.493258,-8.662781 6.087891,-8.750002 z m 2.945313,5.283202 c -1.513145,0.1262 -7.842927,6.6548 -12.080079,12.57031 -3.007141,4.19829 -3.263672,5.23542 -3.263671,13.21094 -10e-7,5.43864 -0.597555,9.97937 -1.609376,12.21875 -2.090237,4.62617 -7.19462,9.95448 -12.169921,12.70508 -11.891877,6.57445 -11.825939,10.34644 0.445312,25.31836 3.178065,3.8775 6.483353,8.61096 7.345703,10.51953 1.520549,3.36532 1.452244,3.64777 -2.289062,9.35156 -8.457581,12.89399 -10.225393,20.08432 -5.757813,23.42969 3.62401,2.71371 4.739831,2.22609 2.19336,-0.95898 -3.024759,-3.78331 -2.043985,-5.74324 7.892578,-15.76954 4.429484,-4.4695 8.38537,-9.09351 8.791015,-10.27539 1.413605,-4.11869 -0.575326,-8.94373 -6.265625,-15.19726 -9.05351,-9.94964 -10.40039,-11.77648 -10.40039,-14.11328 0,-3.09006 4.589251,-7.0067 13.519531,-11.53907 14.035948,-7.12363 17.662824,-12.45273 17.646484,-25.92968 -0.0084,-6.93059 -2.590649,-24.42117 -3.761718,-25.47852 -0.05602,-0.0506 -0.135454,-0.0709 -0.236328,-0.0625 z m -33.767579,8.87695 -5.429687,5.69532 c -9.707366,10.18147 -10.415439,11.59423 -11.44336,22.83593 -0.997522,10.90919 -2.101073,13.15624 -6.488281,13.21094 l -2.824219,0.0352 2.6875,1.41992 c 1.478026,0.78133 3.227434,1.43568 3.886719,1.45508 2.938668,0.0864 6.873343,-4.41953 9.582031,-10.97461 1.596418,-3.86339 4.661456,-8.90184 6.810547,-11.19531 l 3.90625,-4.16993 -0.34375,-9.15625 z m 120.542971,15.62891 -4.11719,3.34766 c -2.26386,1.84045 -4.95656,3.79312 -5.98437,4.33984 -2.58946,1.37742 -1.4294,3.36866 4.29492,7.36719 8.58062,5.9937 9.54189,9.84615 5.26953,21.15429 -3.27479,8.66777 -3.42604,13.04319 -0.53906,15.7129 1.18242,1.09343 2.85357,1.98828 3.71289,1.98828 1.3285,0 1.30387,-0.41644 -0.16016,-2.77539 -1.62884,-2.62448 -1.53741,-3.36568 1.66406,-13.75977 1.86129,-6.04295 3.38282,-11.64233 3.38282,-12.44141 0,-0.79907 -1.69249,-5.33465 -3.76172,-10.08007 -2.06923,-4.74543 -3.76172,-10.02856 -3.76172,-11.74024 z m -85.445314,22.35547 c -1.639413,0.0848 -19.126213,9.60345 -21.761719,11.89258 -5.283676,4.58925 -3.997255,8.19469 6.025391,16.89648 3.587846,3.11501 6.830871,6.79765 7.207031,8.1836 0.37616,1.38595 1.116387,2.27255 1.644531,1.9707 1.890636,-1.08054 0.869923,-5.98204 -2.263672,-10.86719 -5.233886,-8.15943 -4.290863,-12.58583 4.779297,-22.41211 2.678848,-2.90216 4.693331,-5.44211 4.476563,-5.64258 -0.01888,-0.0174 -0.05454,-0.0242 -0.107422,-0.0215 z M 61.09375,178.79688 c -0.588114,0 -3.160631,1.93504 -5.716797,4.29882 -4.941828,4.56992 -7.32422,9.42478 -9.349609,19.04883 -1.246518,5.92308 -4.776622,10.38898 -11.220703,14.19727 -2.397045,1.41659 -2.957371,1.45161 5.082031,-0.32032 4.24909,-0.93653 11.006127,-8.23514 13.15039,-14.20507 2.203579,-6.13506 7.032534,-10.01833 13.451172,-10.81446 2.386973,-0.29608 4.339844,-0.72254 4.339844,-0.94726 0,-1.0802 -8.802109,-11.25781 -9.736328,-11.25781 z" />
  <path
     inkscape:connector-curvature="0"
     d="m 143.41909,47.14823 c -0.008,0.02633 -0.0127,0.04111 -0.0197,0.06455 0.009,0.0062 0.0171,0.01255 0.0257,0.01881 0.008,0.0016 0.0143,0.0026 0.0224,0.0039 -0.008,-0.02715 -0.0165,-0.05595 -0.0283,-0.08728 z m 0.61261,0.156033 c -5.6e-4,0.0092 -0.002,0.01857 -0.003,0.02784 0.0634,0.0091 0.10875,0.01483 0.10672,0.01189 -0.004,-0.0061 -0.0418,-0.0201 -0.1035,-0.03974 z m 1.77814,1.333041 c -0.0114,0.002 -0.0323,0.01736 -0.0529,0.04048 -0.12391,0.138555 -0.71461,0.613824 -1.10678,0.890446 -0.48082,0.339166 -0.91005,0.591066 -1.36632,0.80194 -0.35747,0.165202 -0.33738,0.157328 -1.03159,0.407371 -0.53579,0.19298 -2.05459,0.56329 -2.19338,0.53482 -0.008,-0.0012 0.21285,-0.140828 0.48783,-0.309993 0.88063,-0.541761 1.30233,-0.882294 2.18982,-1.768301 0.16499,-0.164717 0.30265,-0.311736 0.30613,-0.326672 0.003,-0.01492 -0.0234,-6.7e-5 -0.0594,0.03304 -0.40666,0.373099 -0.89281,0.735807 -1.38633,1.034261 -0.36017,0.217818 -0.5797,0.323787 -1.20091,0.579816 -0.19179,0.07904 -0.88904,0.341507 -1.03654,0.390213 l -0.127,0.04203 0.10802,-0.0876 c 0.0594,-0.04813 0.1278,-0.102436 0.15183,-0.120754 0.7552,-0.575449 1.04051,-0.860223 1.50332,-1.500386 0.21053,-0.291186 0.20878,-0.287871 0.1019,-0.196302 -0.0532,0.04563 -0.0989,0.09195 -0.10147,0.102902 -0.002,0.0109 -0.0447,0.05617 -0.0936,0.100511 -0.0489,0.04434 -0.15458,0.142289 -0.23492,0.217605 -0.42615,0.399502 -1.20423,0.924229 -1.77475,1.19693 l -0.23113,0.110446 -1.17567,-0.248684 c -1.25544,-0.265572 -1.64699,-0.326276 -2.43265,-0.377034 -0.79503,-0.05136 -1.46288,-0.03383 -2.17288,0.05701 -0.90009,0.115138 -1.45452,0.275701 -2.20491,0.638628 -1.28249,0.620302 -2.88866,1.811016 -4.31935,3.202066 -0.39763,0.386612 -0.59113,0.577816 -0.71128,0.702596 -0.0738,0.07667 -0.16971,0.175878 -0.21312,0.220527 -0.23074,0.23727 -0.65995,0.708836 -0.66506,0.730695 -0.008,0.02843 -0.0107,0.02946 0.30271,-0.08447 0.47728,-0.173789 0.99532,-0.289608 1.58064,-0.353287 0.70981,-0.07724 1.68763,0.05775 2.8073,0.387552 0.74179,0.218501 1.935,0.44052 2.77445,0.516229 1.73592,0.156553 3.37034,0.100967 4.9651,-0.168943 0.54836,-0.0928 1.03029,-0.225614 1.66864,-0.459861 0.86669,-0.318026 1.54229,-0.643644 2.49366,-1.201817 l 0.65596,-0.384847 -0.0911,-0.03808 c -0.0501,-0.02095 -0.35859,-0.09455 -0.6856,-0.163628 l -0.59457,-0.125641 -0.65043,0.390209 c -0.60435,0.362557 -1.19522,0.672219 -1.65419,0.866913 -2.08395,0.884001 -3.49103,1.08147 -5.90945,0.829245 -0.70697,-0.07373 -0.80634,-0.09092 -2.26394,-0.390846 -1.39041,-0.28611 -2.07162,-0.450225 -2.48697,-0.599211 l -0.10318,-0.03703 0.18546,-0.202784 c 0.84484,-0.923406 1.80368,-1.717993 2.82716,-2.342965 0.30805,-0.188103 0.56419,-0.335748 0.56916,-0.328109 0.006,0.0077 -0.0315,0.130864 -0.0809,0.273814 -0.48685,1.407208 0.33488,2.873163 1.88102,3.355655 0.92877,0.289835 2.01849,0.138041 2.83045,-0.394354 0.55831,-0.366091 0.97792,-0.896154 1.15134,-1.454435 0.24217,-0.779614 0.15666,-1.482718 -0.26103,-2.146772 -0.0608,-0.09663 -0.10843,-0.184774 -0.10587,-0.195873 0.016,-0.06868 2.09617,0.492791 2.96443,0.800129 1.16287,0.411634 2.86564,0.843812 3.85474,0.978424 2.31437,0.31498 3.42661,0.119334 5.10537,-0.898096 0.71315,-0.432212 1.35469,-0.919936 2.17007,-1.649832 0.29538,-0.264408 0.33699,-0.33632 0.0719,-0.124314 -1.22067,0.976391 -3.17593,2.001456 -4.22107,2.212969 -0.56187,0.113715 -1.32743,0.145459 -2.03718,0.08437 -0.6672,-0.05742 -2.32089,-0.391643 -2.25496,-0.455716 0.0118,-0.01149 0.0409,-0.01688 0.0645,-0.01199 0.049,0.01012 0.31502,-0.03538 0.86876,-0.148433 0.53671,-0.109589 1.24065,-0.340939 1.7034,-0.55995 0.0676,-0.032 0.17971,-0.08409 0.24914,-0.115708 0.43982,-0.200317 1.29276,-0.708344 1.77085,-1.054766 0.45986,-0.333204 1.01917,-0.802396 1.20932,-1.014495 0.0277,-0.0309 -0.31932,0.167342 -0.77121,0.440576 -0.89166,0.539131 -1.19234,0.705645 -1.77836,0.984531 -0.85301,0.40595 -1.27964,0.545939 -2.2584,0.741321 -0.29424,0.05873 -1.07354,0.154735 -1.52292,0.18759 -0.19864,0.01452 -0.44744,0.03317 -0.55294,0.04143 -0.10554,0.0082 -0.19666,0.008 -0.20251,-6.14e-4 -0.006,-0.0087 0.0751,-0.03657 0.18021,-0.062 0.34923,-0.08452 0.99839,-0.285963 1.29511,-0.401899 0.748,-0.292286 1.67711,-0.895553 2.39266,-1.553674 0.34613,-0.31834 0.97123,-1.022293 0.94372,-1.062734 -5.7e-4,-0.0012 -0.002,-0.002 -0.003,-0.0022 -0.002,-3.07e-4 -0.002,-3.15e-4 -0.005,-4.4e-5 z m -10.76157,2.914922 c 0.0739,1.33e-4 0.14807,0.0079 0.21844,0.0227 0.11258,0.02373 0.21539,0.06581 0.29124,0.124528 0.15447,0.119561 0.19388,0.218909 0.15606,0.393292 -0.0585,0.269957 -0.35991,0.478388 -0.72002,0.498003 -0.40715,0.02216 -0.7191,-0.174887 -0.72089,-0.45545 -0.002,-0.228349 0.13477,-0.393573 0.42772,-0.518828 0.10211,-0.04364 0.22433,-0.06444 0.34745,-0.06423 z m 1.17044,1.780306 c 0.0302,0.0061 -0.033,0.165361 -0.16729,0.421766 -0.35621,0.679856 -1.14742,1.136391 -2.00888,1.159161 -0.54823,0.0145 -1.15495,-0.18732 -1.55248,-0.516387 -0.18449,-0.152729 -0.50369,-0.544264 -0.39158,-0.480366 0.0288,0.01637 0.17214,0.0864 0.31873,0.15566 0.74607,0.352482 1.74166,0.359173 2.65027,0.01778 0.38344,-0.144064 0.90391,-0.482278 1.07747,-0.70015 0.0274,-0.03437 0.0606,-0.06021 0.0737,-0.05749 z m -20.23084,15.423035 c -0.0515,0.01079 -0.11842,0.02527 -0.20256,0.04806 l 0.1585,0.03268 c 0.0156,-0.0077 0.0322,-0.016 0.0473,-0.02325 -0.002,-0.01939 -0.003,-0.03862 -0.003,-0.05749 z m 2.14904,0.527486 c -0.002,0.0018 -0.005,0.003 -0.008,0.0043 l 0.0391,0.0081 c -0.0108,-0.0043 -0.0216,-0.008 -0.0323,-0.01248 z"
     style="fill:#000000;stroke-width:0.02803649"
     id="path1449" />
</svg>
