<?xml version="1.0" encoding="UTF-8" standalone="no"?>
<svg
   xmlns:dc="http://purl.org/dc/elements/1.1/"
   xmlns:cc="http://creativecommons.org/ns#"
   xmlns:rdf="http://www.w3.org/1999/02/22-rdf-syntax-ns#"
   xmlns:svg="http://www.w3.org/2000/svg"
   xmlns="http://www.w3.org/2000/svg"
   viewBox="0 0 1066 1066"
   height="100"
   width="100"
   id="svg2"
   version="1.1">
  <metadata
     id="metadata8">
    <rdf:RDF>
      <cc:Work
         rdf:about="">
        <dc:format>image/svg+xml</dc:format>
        <dc:type
           rdf:resource="http://purl.org/dc/dcmitype/StillImage" />
        <dc:title></dc:title>
      </cc:Work>
    </rdf:RDF>
  </metadata>
  <defs
     id="defs6" />
  <path
     id="path817"
     d="m 525.55446,1039.1108 c -12.50744,-7.542 -58.65184,-42.77711 -96.8485,-73.95188 -11.28637,-9.21154 -27.5586,-22.44826 -36.1605,-29.41493 -16.57259,-13.42211 -26.31829,-21.43993 -75.32231,-61.96802 -16.86859,-13.95092 -33.66859,-27.75006 -37.33334,-30.66474 -10.34853,-8.23051 -50.1726,-47.73981 -64.54407,-64.03391 -23.52212,-26.66895 -42.46341,-54.13895 -53.78304,-78 -7.02793,-14.81442 -9.69796,-22.7543 -11.65775,-34.66667 -0.98882,-6.01056 -1.31125,-94.84687 -1.05206,-289.86585 l 0.37374,-281.199183 5.33334,-1.803373 c 2.93333,-0.991859 6.53333,-2.388645 8,-3.103971 7.36264,-3.590923 52.91564,-17.57177 87.33333,-26.803813 60.81222,-16.311984 143.38829,-31.795958 191.33334,-35.877225 30.28666,-2.578117 50.10455,-3.674587 70.55186,-3.903441 10.93685,-0.122414 20.26329,-0.456243 20.72541,-0.741851 1.52888,-0.9449 62.97609,1.915416 86.68546,4.035136 58.56392,5.235868 122.13818,16.753518 192.03729,34.791101 27.97814,7.219807 82.8343,24.253509 98.13824,30.473469 l 7.86176,3.195248 0.33645,280.318543 0.33647,280.31854 -3.37305,12.67297 c -13.24867,49.77699 -64.28153,115.59533 -141.2397,182.16037 -5.08699,4.4 -19.18158,16.72023 -31.3213,27.37827 -74.50328,65.41007 -157.09923,132.88801 -188.73888,154.19291 -6.80483,4.5821 -18.33616,11.1034 -19.61355,11.0921 -0.21255,0 -3.83893,-2.0853 -8.05864,-4.6298 z m -184.66485,-450.73859 0.33703,-235.37179 19.42313,17.70511 c 10.68274,9.73782 39.02894,35.35008 62.99158,56.91618 l 43.56843,39.21106 0.34176,99.45561 0.34177,99.4556 4.66667,0.46744 c 2.56666,0.25708 29.41667,0.0365 59.66667,-0.49004 l 55,-0.95748 V 564.27952 463.79515 l 23.66667,-19.26902 c 13.01666,-10.59796 42.86666,-34.84961 66.33333,-53.89257 l 42.66667,-34.62355 0.33705,233.867 c 0.18538,128.62683 0.83903,233.86698 1.45256,233.86698 2.57366,0 47.78648,-50.10697 67.37371,-74.66667 12.15918,-15.24596 28.97071,-40.43918 33.95675,-50.88647 9.91957,-20.7846 17.20712,-50.66259 20.83212,-85.40895 1.75289,-16.80183 2.04781,-50.93442 2.04781,-237.00001 V 158.41063 l -63.66667,0.0136 -63.66666,0.0137 -25.48422,24.31966 c -14.01632,13.37581 -39.51632,37.8 -56.66667,54.27597 -17.15034,16.47598 -44.98245,43.21127 -61.84912,59.41178 -16.86667,16.20051 -33.67477,32.21956 -37.35135,35.59788 l -6.68468,6.1424 -5.98198,-5.44356 c -3.2901,-2.99395 -18.88199,-17.51755 -34.64866,-32.27465 -15.76667,-14.7571 -41.56667,-38.79465 -57.33333,-53.41677 -15.76667,-14.62212 -32.86667,-30.55384 -38,-35.4038 -5.13334,-4.84997 -20.35858,-19.1122 -33.83387,-31.69385 L 336.22559,157.0773 h -62.51912 -62.51914 l 0.17544,213.66667 c 0.19455,236.9306 0.32417,241.16738 8.62329,281.8375 8.7529,42.8939 22.46599,67.67849 63.34955,114.49585 18.51328,21.20026 53.27898,56.66069 55.554,56.66415 1.32087,10e-4 1.73231,-48.41803 2,-235.36926 z"
     style="fill:#000000;stroke-width:1.33333337" />
</svg>
