<?xml version="1.0" encoding="UTF-8" standalone="no"?>
<svg
   xmlns:dc="http://purl.org/dc/elements/1.1/"
   xmlns:cc="http://creativecommons.org/ns#"
   xmlns:rdf="http://www.w3.org/1999/02/22-rdf-syntax-ns#"
   xmlns:svg="http://www.w3.org/2000/svg"
   xmlns="http://www.w3.org/2000/svg"
   viewBox="0 0 500 500"
   height="100"
   width="100"
   id="svg834"
   version="1.1">
  <metadata
     id="metadata840">
    <rdf:RDF>
      <cc:Work
         rdf:about="">
        <dc:format>image/svg+xml</dc:format>
        <dc:type
           rdf:resource="http://purl.org/dc/dcmitype/StillImage" />
        <dc:title></dc:title>
      </cc:Work>
    </rdf:RDF>
  </metadata>
  <defs
     id="defs838" />
  <path
     id="path844"
     d="M 50.850574,490.86469 C 40.355669,485.82302 32.120311,478.02886 26.25392,467.58578 l -5.061073,-9.00946 -0.508975,-144.99785 c -0.317521,-90.45557 -1.174918,-144.99785 -2.27935,-144.99785 -2.244679,0 -2.37108,-75.545178 -0.131217,-78.425892 0.887196,-1.141031 1.907038,-12.549365 2.266316,-25.351851 C 21.134605,43.601263 21.644147,40.722256 26.253926,32.516173 32.231089,21.875911 40.480645,14.159872 51.218614,9.165991 58.564035,5.74988 64.913643,5.576484 164.28869,6.078206 c 99.84588,0.504088 105.66159,0.725726 112.523,4.288386 9.2264,4.790613 18.46612,14.460001 23.79958,24.906305 3.83554,7.512421 4.23325,11.211738 4.791,44.563202 0.33454,20.003887 -0.0471,36.370701 -0.84823,36.370701 -0.80107,0 -4.67107,-3.27336 -8.6,-7.27414 -6.40645,-6.52358 -7.3325,-6.92387 -8.97491,-3.87954 -3.56434,6.60682 -4.42024,3.18731 -3.7826,-15.112543 0.35473,-10.180594 0.13031,-20.656034 -0.49871,-23.278759 l -1.14368,-4.768596 H 162.03174 42.509344 V 250.05099 438.20873 H 161.85086 281.19239 l 1.11767,-4.36448 c 0.61473,-2.40047 1.12909,-6.32851 1.14301,-8.72897 0.0235,-4.04776 0.84844,-4.36449 11.36805,-4.36449 h 11.34274 l -0.80478,17.94288 c -0.60466,13.48088 -1.81514,19.98018 -4.86768,26.13538 -5.13792,10.36026 -14.37356,20.07428 -23.67971,24.90631 -6.86721,3.56567 -12.61149,3.78059 -112.89103,4.224 -99.132932,0.43833 -106.113379,0.24729 -113.07008,-3.09467 z M 187.76758,476.86335 c 5.73326,-4.71942 6.59917,-14.05843 1.81629,-19.58912 -2.68905,-3.10949 -6.21867,-3.54734 -28.59639,-3.54734 H 135.4588 l -3.94654,5.25042 c -4.61631,6.14149 -3.80371,13.27672 2.10824,18.51177 3.19597,2.83003 7.61132,3.3946 26.5483,3.3946 20.1732,0 23.26126,-0.44983 27.59878,-4.02033 z m -49.6192,-4.33238 c -2.03509,-1.55727 -3.06434,-4.36002 -2.67129,-7.27414 0.63412,-4.70132 0.82996,-4.74528 23.54891,-5.28709 15.30761,-0.36505 23.76479,0.19649 25.4871,1.69235 4.15633,3.60978 3.05581,9.4285 -2.17704,11.51052 -7.22442,2.87439 -40.21892,2.3953 -44.18768,-0.64164 z m 57.0519,-437.402198 c 0.50264,-0.851094 0.28184,-2.617662 -0.49065,-3.925708 -1.04393,-1.767615 -9.92987,-2.241889 -34.60902,-1.847146 -29.91471,0.478483 -33.26622,0.867407 -33.82763,3.925688 -0.57532,3.134204 2.00945,3.394599 33.69515,3.394599 18.87505,0 34.72951,-0.696339 35.23215,-1.547433 z m -85.03426,-7.15496 c 0,-4.279444 -5.76268,-6.410554 -8.78424,-3.248534 -3.115472,3.260289 -0.0425,8.413173 4.60534,7.722498 2.73439,-0.406343 4.1789,-1.952844 4.1789,-4.473964 z m 90.88237,375.383328 c -4.01704,-4.64511 -4.2842,-12.95848 -0.54231,-16.87431 1.5164,-1.58689 6.10799,-3.35559 10.20356,-3.93046 6.5649,-0.92147 10.21779,-3.9518 30.85497,-25.59632 l 23.40851,-24.5511 -3.72264,-7.64114 c -2.04746,-4.20263 -3.72264,-10.10331 -3.72264,-13.11262 0,-6.86643 4.59819,-18.57278 9.39344,-23.91434 3.64347,-4.0586 3.64036,-4.10717 -0.93683,-14.57476 -7.69781,-17.60417 -10.8726,-33.97036 -10.88001,-56.0872 -0.0111,-31.8095 8.89687,-59.96795 26.91911,-85.09657 l 7.46991,-10.41541 41.94244,43.70567 41.94244,43.70569 21.80111,-17.80352 c 13.79874,-11.26852 22.98402,-20.27644 25.02371,-24.54053 6.06916,-12.6879 20.95239,-12.28103 25.06879,0.68531 2.39673,7.54958 -0.87035,14.37988 -8.46703,17.70153 -4.18092,1.82809 -11.35618,9.86724 -23.01005,25.78036 l -16.93464,23.12389 41.5588,43.45841 41.55881,43.4584 -6.95955,6.16116 c -3.82776,3.38862 -13.21549,9.66411 -20.86162,13.94549 -39.35764,22.03803 -85.9555,22.12035 -125.88911,0.2224 -10.72863,-5.88313 -14.39373,-7.0848 -16.37101,-5.36752 -2.06056,1.78959 1.41428,6.37054 18.17431,23.95952 18.2884,19.19296 21.61918,21.87283 28.36176,22.81925 7.49877,1.05256 14.16531,6.67122 14.16531,11.93878 0,1.33823 -1.72879,4.73312 -3.84176,7.54418 l -3.84175,5.11102 h -79.28331 c -76.48403,0 -79.39981,-0.13462 -82.58272,-3.81526 z M 453.4565,175.11356 c -0.7149,-0.74813 -1.29983,-3.38321 -1.29983,-5.85574 0,-6.50099 -9.11562,-16.25602 -16.70914,-17.88125 -4.73047,-1.01245 -6.46096,-2.40062 -6.46096,-5.18284 0,-3.1794 1.24129,-3.77619 7.60017,-3.65408 13.35563,0.25648 25.94298,14.41335 24.49159,27.54546 -0.55584,5.02905 -4.88928,7.88802 -7.62183,5.02845 z m 10.88744,-1.05524 c -0.42724,-1.41242 -1.32802,-6.01652 -2.00175,-10.2313 -1.66146,-10.39389 -12.39335,-21.62464 -22.32556,-23.36333 -11.03412,-1.93159 -12.28465,-2.6108 -11.61461,-6.30813 0.85385,-4.71155 9.54756,-5.38973 19.27183,-1.50338 14.15087,5.65547 26.39981,24.55272 24.58807,37.93364 -0.6916,5.10794 -6.63491,7.71445 -7.91798,3.4725 z m 11.13525,0 c -0.41975,-1.41242 -1.20918,-5.90765 -1.75429,-9.98939 -2.41924,-18.11491 -17.45815,-33.1648 -35.88296,-35.90915 -7.48473,-1.11482 -8.95257,-2.03594 -9.48339,-5.95112 -0.61606,-4.5441 -0.41344,-4.61178 10.65899,-3.5611 19.51215,1.85155 35.82036,15.35429 41.97871,34.75725 3.64787,11.49318 2.96833,21.69069 -1.50446,22.57742 -1.78719,0.3543 -3.59285,-0.51144 -4.0126,-1.92391 z"
     style="fill:#000000;stroke-width:1.89619982" />
</svg>
