<?xml version="1.0" encoding="UTF-8" standalone="no"?>
<svg
   xmlns:dc="http://purl.org/dc/elements/1.1/"
   xmlns:cc="http://creativecommons.org/ns#"
   xmlns:rdf="http://www.w3.org/1999/02/22-rdf-syntax-ns#"
   xmlns:svg="http://www.w3.org/2000/svg"
   xmlns="http://www.w3.org/2000/svg"
   viewBox="0 0 1200 1200"
   height="100"
   width="100"
   id="svg869"
   version="1.1">
  <metadata
     id="metadata875">
    <rdf:RDF>
      <cc:Work
         rdf:about="">
        <dc:format>image/svg+xml</dc:format>
        <dc:type
           rdf:resource="http://purl.org/dc/dcmitype/StillImage" />
        <dc:title></dc:title>
      </cc:Work>
    </rdf:RDF>
  </metadata>
  <defs
     id="defs873" />
  <path
     id="path879"
     d="m 561.01146,1183.5869 c -33.07647,-2.7001 -76.41808,-11.9395 -108.31154,-23.0896 -50.56114,-17.6763 -98.17736,-43.9465 -139.48364,-76.9541 l -14.36674,-11.4804 24.10739,-0.7293 c 13.25907,-0.401 24.85855,-1.2147 25.77648,-1.8079 0.94731,-0.6123 6.65801,2.1709 13.20444,6.4352 51.35406,33.4513 96.32312,52.4473 151.64919,64.0604 19.78059,4.152 28.13416,5.2448 55.01851,7.1971 69.87352,5.0744 138.87444,-7.6002 203.20176,-37.3257 20.27939,-9.3712 43.4347,-22.4311 60.62436,-34.1929 l 11.24028,-7.6913 8.32716,1.6626 c 4.57996,0.9144 15.80957,1.6625 24.95486,1.6625 9.14518,0 16.58984,0.4923 16.54363,1.0939 -0.15614,2.0325 -25.47225,21.7038 -43.93086,34.1353 -21.42707,14.431 -50.1277,30.3898 -71.89082,39.9747 -30.17095,13.2879 -72.42077,26.1385 -102.7012,31.2373 -5.24513,0.8832 -12.83769,2.2298 -16.87241,2.9925 -19.22204,3.6332 -69.30595,5.0878 -97.09085,2.8197 z M 19.591981,1024.7186 c -5.134955,-3.1126 -9.240976,-9.7159 -9.240976,-14.8613 0,-1.9246 6.513114,-11.74224 15.771971,-23.77406 l 15.771982,-20.49554 0.733573,-96.03022 0.733584,-96.03022 3.463647,-2.78748 c 3.352894,-2.69835 7.707434,-2.78749 136.175598,-2.78749 92.25984,0 133.6148,0.48038 135.67401,1.57596 7.00956,3.72944 7.11514,5.2724 7.11514,103.98195 v 92.52452 l 11.37049,14.78461 c 20.56265,26.73677 20.86294,27.23867 19.37953,32.38077 -0.72492,2.5128 -2.49178,5.858 -3.92645,7.434 -6.57724,7.2252 0.31669,6.9429 -169.43206,6.9371 -155.004344,0 -159.007943,-0.076 -163.590039,-2.8526 z m 191.862079,-3.8277 c 1.3995,-1.6765 1.50553,-2.9768 0.38653,-4.7403 -1.34729,-2.1235 -4.92838,-2.4303 -28.36464,-2.4303 -23.43626,0 -27.01735,0.3068 -28.36464,2.4303 -1.11901,1.7635 -1.01298,3.0638 0.38651,4.7403 2.87644,3.4456 53.07982,3.4456 55.95624,0 z m 24.15842,-13.8183 c 1.6175,-2.6019 -6.30754,-13.03251 -9.97649,-13.13075 -1.80416,-0.0482 -21.40791,-0.21985 -43.56387,-0.38126 l -40.28359,-0.29343 -4.1311,3.45571 c -4.86897,4.07293 -7.49035,8.46393 -6.24694,10.46403 1.26887,2.0411 102.93138,1.9295 104.20199,-0.1143 z m 67.78715,-56.11354 c 1.76206,-1.22697 3.88595,-4.67283 4.71976,-7.65746 0.9502,-3.40135 1.51905,-32.79764 1.52416,-78.7663 0.009,-78.12398 -0.24455,-81.14597 -7.10695,-84.79709 -2.05021,-1.09082 -38.68874,-1.57597 -119.01582,-1.57597 -127.989714,0 -121.294147,-0.48697 -124.643696,9.06528 -2.119644,6.04477 -2.160335,148.5006 -0.04456,156.07408 2.940222,10.52473 -5.082072,9.8883 124.643436,9.8883 102.37648,0 117.11364,-0.27414 119.92369,-2.23084 z m 551.30221,75.22604 c -7.51993,-3.0922 -13.57384,-14.4643 -10.58336,-19.8803 0.8486,-1.5369 7.86853,-10.98965 15.59973,-21.006 l 14.05668,-18.21155 0.73362,-96.04822 0.73361,-96.04823 4.11649,-3.51926 4.11648,-3.51925 h 133.49651 133.4963 l 3.6013,3.58012 3.6012,3.5801 v 94.69581 94.69581 l 16.1159,20.96168 c 17.2163,22.39299 18.2202,24.88029 13.2866,32.92399 -5.9973,9.7784 4.9144,9.1965 -170.5438,9.0944 -87.39106,-0.05 -160.21335,-0.6354 -161.82726,-1.2991 z m 190.09936,-5.2942 c 1.3994,-1.6765 1.5055,-2.9768 0.3865,-4.7403 -1.3473,-2.1235 -4.9284,-2.4303 -28.3647,-2.4303 -23.4362,0 -27.01725,0.3068 -28.36454,2.4303 -1.11908,1.7635 -1.013,3.0638 0.38645,4.7403 2.87648,3.4456 53.07979,3.4456 55.95629,0 z m 24.4859,-14.8656 c 0.3428,-1.0234 -1.9132,-4.3268 -5.0133,-7.34078 l -5.6367,-5.48006 -42.5476,0.253 c -23.40122,0.13915 -43.03348,0.32485 -43.62724,0.41262 -2.05736,0.30417 -8.73033,11.66702 -7.76421,13.22102 1.51642,2.4392 103.76365,1.3973 104.58905,-1.0658 z m 64.4736,-53.73695 c 1.7781,-0.47395 4.4189,-2.59813 5.8687,-4.7204 2.4359,-3.56596 2.6696,-9.50208 3.0816,-78.24546 0.2451,-40.91272 0.036,-76.59121 -0.4632,-79.28554 -0.4999,-2.69434 -2.6125,-6.46837 -4.6947,-8.38674 l -3.7857,-3.48797 H 1017.246 c -80.66219,0 -117.43305,0.485 -119.48359,1.57597 -6.87192,3.65617 -7.1151,6.59418 -7.1151,85.93786 0,78.78952 0.26057,82.06473 6.83154,85.86196 2.88869,1.66933 230.12705,2.39095 236.28185,0.75032 z M 575.13702,917.46141 c -8.5118,-1.02584 -19.40547,-2.66529 -24.20814,-3.64322 -12.99604,-2.64627 -38.87631,-11.45318 -44.25129,-15.05848 -4.60417,-3.08823 -4.68923,-3.34423 -3.82896,-11.52624 0.57264,-5.447 0.28269,-9.08297 -0.83056,-10.41659 -1.3321,-1.59568 -1.21535,-2.23759 0.52785,-2.90259 1.30955,-0.49957 2.23816,-2.64755 2.23816,-5.17703 0,-3.03789 0.86984,-4.59761 2.92566,-5.24629 6.91077,-2.18057 9.99147,-11.31795 5.15986,-15.30433 -2.63341,-2.17276 -1.57727,-4.38903 2.09158,-4.38903 1.46745,0 3.5082,-1.00639 4.53507,-2.23644 2.80594,-3.36113 8.46867,-28.77042 7.15549,-32.10759 -1.98265,-5.03872 -1.45326,-6.32672 5.93385,-14.43605 9.24465,-10.14845 11.15413,-16.56389 8.89441,-29.88295 -1.49519,-8.81203 -1.35533,-10.52621 1.43257,-17.5576 2.06913,-5.21873 2.94569,-10.2413 2.65398,-15.20802 -0.43046,-7.3299 -0.52058,-7.45648 -7.77136,-10.92026 -4.03473,-1.92742 -10.63695,-3.82936 -14.67157,-4.22654 -4.03473,-0.39716 -8.63813,-1.61609 -10.22981,-2.70871 -3.8392,-2.63539 -9.46011,-2.52779 -10.51349,0.20126 -1.36743,3.54246 -6.2347,2.61801 -7.24297,-1.37565 -0.49484,-1.95995 -0.49528,-4.21391 -0.001,-5.00885 0.49418,-0.79492 -0.18574,-4.13921 -1.51092,-7.43175 -2.68182,-6.66347 -6.75407,-9.3495 -16.65587,-10.98636 -4.27383,-0.7065 -10.46936,-3.75593 -17.87518,-8.79809 -10.23554,-6.96883 -11.90953,-7.64011 -17.26943,-6.92539 -4.20309,0.56045 -7.05525,0.062 -9.77239,-1.70798 -2.36558,-1.54087 -5.19078,-2.16165 -7.36676,-1.6187 -1.9986,0.49868 -3.52977,0.23596 -3.52977,-0.60564 0,-2.65418 -3.83292,-1.57874 -9.87098,2.76962 -4.26592,3.07211 -6.57967,6.21023 -8.31781,11.2815 -2.23969,6.53481 -2.23573,7.56992 0.0583,14.81904 2.40024,7.58598 2.38142,7.96627 -0.70534,14.28237 -3.22166,6.59237 -4.22652,15.80016 -1.88152,17.24096 0.7093,0.43577 0.98153,3.59219 0.60498,7.01426 -0.59882,5.44222 -0.0979,6.8617 3.99853,11.32692 2.57574,2.80773 8.00695,10.02762 12.06941,16.04419 10.13573,15.0111 12.24294,17.06856 20.15746,19.68197 3.78858,1.25097 8.65431,4.10707 10.81279,6.3469 4.32699,4.48987 8.7968,18.73327 10.36945,33.04297 0.52895,4.81326 2.21802,12.79618 3.75348,17.73982 1.53556,4.94363 3.24939,13.14805 3.80871,18.23204 0.55921,5.08401 1.96768,11.1096 3.12989,13.39022 1.1621,2.28062 1.83927,4.41873 1.50465,4.75135 -1.15462,1.14782 -20.91529,-14.4264 -32.35749,-25.50237 -22.01742,-21.31245 -41.40771,-48.55514 -54.72505,-76.88638 -6.94367,-14.77196 -17.51327,-45.58418 -19.57944,-57.07734 -6.88524,-38.29982 -8.28392,-57.72605 -6.00714,-83.4343 0.88338,-9.97425 1.90925,-18.43628 2.27964,-18.80454 0.37038,-0.36824 1.61028,0.10338 2.75521,1.04805 1.14505,0.94467 2.93733,1.53046 3.98301,1.30177 1.04569,-0.2287 2.13131,0.89688 2.41234,2.50131 1.34807,7.69466 2.11789,9.60218 4.92427,12.20144 2.50456,2.31965 3.09887,4.89807 3.45528,14.99065 0.5153,14.5942 3.84205,32.15182 6.24262,32.94733 0.94951,0.31466 2.83477,-1.10954 4.18933,-3.16487 3.027,-4.59261 4.46013,-4.71611 5.57425,-0.48036 1.30856,4.97464 4.20089,1.07187 3.62715,-4.89434 -0.42298,-4.39891 -1.0229,-5.00381 -5.60869,-5.65509 -4.83965,-0.68734 -5.16063,-1.07962 -5.58086,-6.82014 -0.27851,-3.80409 0.99682,-10.24602 3.39662,-17.15821 4.66447,-13.43517 4.4039,-18.32296 -1.11688,-20.94131 -2.219,-1.05245 -4.03461,-2.54197 -4.03461,-3.31001 0,-0.76806 3.05121,-5.95821 6.78048,-11.53367 6.30226,-9.42212 7.5481,-14.62342 3.50292,-14.62342 -0.85037,0 -4.33722,2.5173 -7.7487,5.59403 -7.32913,6.60995 -10.56807,8.02452 -12.65371,5.52627 -1.91145,-2.28968 -0.14052,-9.0796 5.80291,-22.24879 5.33163,-11.81364 8.94943,-16.95766 15.32772,-21.79408 4.13629,-3.1365 5.44618,-3.47442 8.06539,-2.08083 2.45767,1.3076 3.85393,1.19032 6.52244,-0.54791 2.35149,-1.53176 4.68923,-1.86145 7.60422,-1.07245 4.60021,1.24515 4.94958,2.99044 2.87835,14.37745 -0.922,5.06823 -0.69037,6.36228 1.27258,7.11111 3.37692,1.28825 5.63918,-2.39391 8.67961,-14.12776 2.83807,-10.95258 5.43583,-13.9891 17.32225,-20.24802 3.72486,-1.96142 7.80096,-5.24319 9.05792,-7.29281 4.25887,-6.9447 13.23657,-15.07422 19.86696,-17.98998 3.63101,-1.59675 7.6259,-4.11399 8.87757,-5.5939 3.26095,-3.85539 12.21378,-7.23097 14.82397,-5.58924 3.10382,1.95209 7.76443,1.67134 10.97289,-0.66103 2.47848,-1.80171 2.57938,-2.4659 0.85961,-5.66045 -2.22858,-4.13972 -0.9966,-9.80108 2.13274,-9.80108 1.47593,0 1.99585,1.42053 1.73506,4.74033 -0.34639,4.40961 -0.0253,4.77327 4.59889,5.21245 11.03749,1.04817 15.93303,-4.00226 8.59995,-8.87209 -3.16159,-2.09961 -3.19262,-2.31225 -0.73351,-5.03307 3.66302,-4.05299 3.19526,-6.70612 -1.83399,-10.40263 -2.42081,-1.7793 -4.40148,-4.50505 -4.40148,-6.05723 0,-3.64346 -4.23279,-5.83981 -11.27406,-5.85004 -3.07906,-0.004 -7.98154,-0.66627 -10.89433,-1.47063 -4.41568,-1.21937 -5.19067,-2.01081 -4.66194,-4.76062 0.75188,-3.90984 10.88993,-10.19728 14.32781,-8.88579 3.04044,1.15987 2.14793,3.74554 -2.01059,5.82482 -4.5836,2.29183 -4.04045,4.03121 1.61182,5.16215 2.65761,0.53173 6.30567,1.42568 8.10698,1.98655 2.65431,0.82649 3.76657,0.16125 5.8686,-3.51004 1.42652,-2.4914 3.41885,-4.53396 4.42756,-4.53904 1.00871,-0.004 1.83399,-0.60722 1.83399,-1.33813 0,-2.37145 -8.93798,-8.88058 -12.21664,-8.89682 -1.75377,-0.009 -6.15954,-0.89592 -9.79077,-1.97164 -6.88655,-2.04006 -17.00853,-1.61218 -18.49689,0.78192 -0.47503,0.76413 0.29369,2.66068 1.70821,4.21454 3.73719,4.10544 -0.0242,3.57484 -5.82195,-0.82119 -2.64485,-2.00552 -5.53288,-3.6464 -6.41769,-3.6464 -2.65882,0 -3.77141,3.14959 -1.60324,4.53875 1.69601,1.08672 1.66718,1.52696 -0.17881,2.73173 -1.2104,0.78993 -3.42776,1.44629 -4.92734,1.45856 -2.13307,0.0175 -2.53812,-0.72423 -1.86073,-3.40753 1.09641,-4.34262 -0.0154,-5.44489 -3.99974,-3.96623 -1.73264,0.64297 -4.47069,0.6982 -6.0846,0.12266 -2.83126,-1.00963 -2.81838,-1.08298 0.36686,-2.08974 1.81561,-0.57387 3.30111,-1.63551 3.30111,-2.35921 0,-1.84141 19.23579,-14.52077 31.54388,-20.79231 14.66298,-7.47145 32.23105,-14.13348 48.53183,-18.40387 30.19339,-7.90988 75.66256,-7.97717 106.48878,-0.15759 21.29437,5.4017 62.68524,23.59874 61.79438,27.16729 -0.17859,0.7156 -3.59007,1.64234 -7.5809,2.05944 -3.99082,0.41712 -8.46624,1.83885 -9.94536,3.15943 -1.47901,1.32058 -5.6602,3.53398 -9.29142,4.91869 -9.7736,3.72701 -12.1044,6.31555 -9.77305,10.85413 1.59609,3.10717 2.75896,3.59122 7.86358,3.27323 3.90543,-0.24329 6.24988,0.29914 6.73602,1.55854 0.48208,1.24874 -0.36906,1.89639 -2.40717,1.83176 -2.37999,-0.0756 -3.26677,0.88333 -3.61724,3.91107 -0.308,2.66136 -1.32287,4.01104 -3.01601,4.01104 -1.40352,0 -4.78903,1.64088 -7.52345,3.64642 -5.88247,4.31454 -8.8012,4.68435 -7.83002,0.99206 0.4385,-1.66695 -1.09893,-4.51544 -4.13288,-7.65746 -2.65717,-2.7517 -5.52551,-6.31583 -6.37422,-7.92025 -2.41366,-4.56316 -7.77005,-4.62007 -8.91245,-0.0946 -0.56031,2.21913 -1.98111,3.74109 -3.49247,3.74109 -5.47368,0 -9.94569,9.33193 -5.31798,11.09733 2.77228,1.05758 8.18401,-1.91745 8.18401,-4.49903 0,-2.57015 2.44029,-4.15684 4.47267,-2.90811 1.048,0.64384 0.97922,1.61516 -0.21567,3.0464 -2.73662,3.27812 0.55096,8.97753 5.56699,9.65102 l 4.11407,0.55238 -4.03473,1.70386 c -5.10066,2.15402 -5.05389,2.90239 0.46964,7.50408 3.24862,2.70651 4.21805,4.48819 3.47772,6.39119 -0.86115,2.21324 -2.47407,2.57418 -10.00622,2.23909 -4.93879,-0.21971 -9.71044,0.0504 -10.60383,0.60044 -1.81066,1.11473 -3.77284,16.2122 -2.52656,19.44085 0.43872,1.1365 3.8151,3.39332 7.5031,5.01515 8.2092,3.61003 6.86488,5.88363 -4.09811,6.93086 -7.11962,0.68011 -7.83816,1.14552 -13.47161,8.72663 -3.27295,4.40449 -6.83474,11.33893 -7.91497,15.40984 -1.51554,5.71176 -3.43899,8.65507 -8.42443,12.89153 -4.9597,4.21455 -7.74001,8.45095 -11.96862,18.23661 -5.24415,12.13562 -5.46114,13.26353 -4.52583,23.52489 0.74848,8.21093 0.40296,12.51255 -1.45039,18.05988 -3.08643,9.23791 -2.20812,13.48387 5.59362,27.03923 10.51492,18.26947 14.8353,24.27541 19.87929,27.63459 4.38806,2.92227 5.36122,3.05283 10.2702,1.37773 2.98255,-1.01775 8.17003,-1.56915 11.52759,-1.22533 4.81951,0.4935 7.28522,-0.17225 11.71113,-3.16211 7.23493,-4.88749 12.71654,-4.96642 14.8945,-0.2145 1.09553,2.39034 3.62275,4.10421 7.63646,5.17865 7.90319,2.11563 10.03472,6.43505 7.61467,15.43044 -2.72264,10.11999 -2.13582,13.93363 3.40202,22.10866 5.60837,8.27917 10.96255,26.9295 10.98048,38.24841 0.011,3.57813 -1.77236,11.50883 -3.9511,17.62377 l -3.96133,11.11807 5.27253,16.65247 c 2.89992,9.15885 5.68397,19.46246 6.18684,22.8969 0.50276,3.43443 3.54396,13.20466 6.75814,21.71161 3.21418,8.50695 5.84396,16.97217 5.84396,18.81161 0,4.24138 3.6694,7.94359 7.80735,7.87725 5.98744,-0.0959 21.52093,-3.95508 24.0147,-5.96611 1.68455,-1.35848 2.13076,-1.41701 1.38415,-0.18159 -2.04481,3.38363 -23.57653,18.74017 -36.87407,26.29875 -27.50562,15.63474 -60.36906,25.99159 -93.4737,29.45807 -16.92513,1.77229 -19.29115,1.73084 -39.37511,-0.68967 z m -121.7036,-287.3434 c 0,-1.20332 -0.66022,-2.18785 -1.46712,-2.18785 -0.8069,0 -1.46712,0.98453 -1.46712,2.18785 0,1.20331 0.66022,2.18784 1.46712,2.18784 0.8069,0 1.46712,-0.98453 1.46712,-2.18784 z m -10.08665,-3.64641 c 3.4918,0 3.76602,-6.66153 0.467,-11.34397 -3.14937,-4.4699 -10.33743,-4.44882 -11.76879,0.0345 -0.57528,1.80189 -2.09643,4.03986 -3.38045,4.97324 -2.10754,1.53199 -2.05439,2.00492 0.54655,4.86203 2.17279,2.38684 3.92645,2.95712 7.13293,2.31958 2.33851,-0.46488 5.48975,-0.8453 7.00276,-0.8453 z m -13.38788,-16.14401 c 0,-3.27104 -7.50331,-15.86369 -11.15291,-18.71764 -4.71927,-3.69041 -7.5404,-3.85479 -11.10571,-0.64711 -3.51084,3.15858 -3.39871,4.87892 0.3179,4.87892 4.14961,0 10.2034,6.40197 10.2034,10.79022 0,4.73504 5.27804,8.58801 9.02986,6.59187 1.48913,-0.7923 2.70746,-2.0956 2.70746,-2.89626 z m 127.16364,-150.6769 c 2.28096,-1.90396 8.10852,-4.61225 12.95015,-6.01842 16.65939,-4.83841 15.73331,-4.23845 29.81442,-19.31612 3.96871,-4.24952 4.09305,-7.83356 0.18861,-5.43463 -0.84751,0.52072 -3.96431,-0.19649 -6.92617,-1.59376 -5.61002,-2.64653 -5.90393,-2.63372 -41.00982,1.78528 -4.52142,0.56915 -6.82934,0.14984 -8.54096,-1.55168 -3.90698,-3.88419 -24.09481,-1.88243 -27.69599,2.74626 -0.87018,1.11842 -3.46474,2.23841 -5.76572,2.48888 l -4.18361,0.45539 4.3447,3.17427 c 4.77473,3.48841 8.80902,3.14424 20.16121,-1.71987 5.77793,-2.47568 5.82932,-2.47109 3.32113,0.29622 -3.03482,3.34851 -1.05107,6.27148 4.25657,6.27148 4.22366,0 6.58835,4.33616 5.45013,9.99386 -0.70049,3.48217 -0.10013,5.17814 2.88033,8.1415 4.63157,4.60439 5.54719,4.62836 10.75502,0.28134 z m 51.67691,-6.62332 c 1.16232,-0.73165 1.64462,-2.33351 1.11534,-3.70459 -1.24628,-3.22891 -14.90034,-2.68199 -14.90034,0.59684 0,3.29622 9.92952,5.53477 13.785,3.10775 z M 473.97371,440.59079 c 0,-0.35376 -0.66023,-1.04885 -1.46713,-1.54465 -0.80701,-0.49579 -1.46723,-0.20636 -1.46723,0.6432 0,0.84956 0.66022,1.54465 1.46723,1.54465 0.8069,0 1.46713,-0.28943 1.46713,-0.6432 z m 209.14937,-9.69382 c 0.54215,-0.87208 2.15859,-1.28072 3.59204,-0.90805 3.66996,0.95408 7.03995,-1.29781 4.99084,-3.33491 -2.06022,-2.04814 -13.79699,-0.24002 -13.79699,2.12551 0,3.52703 3.46342,4.93352 5.21411,2.11745 z m 73.90978,413.81501 c 3.28428,-5.91479 5.97149,-12.41622 5.97149,-14.44764 0,-2.10581 2.27491,-6.40051 5.29234,-9.99097 5.25361,-6.25129 5.28519,-6.37059 4.3041,-16.26852 l -0.98835,-9.97106 9.77569,-9.29734 9.77569,-9.29734 0.55789,-11.2395 c 0.30678,-6.18172 0.93234,-12.41256 1.39009,-13.84629 0.45776,-1.43374 -0.19652,-5.05468 -1.45403,-8.04656 -1.2575,-2.99188 -2.33608,-9.43951 -2.39682,-14.32806 -0.13755,-11.04551 5.72214,-24.70739 14.76003,-34.41316 11.60418,-12.46168 20.13799,-27.49509 24.42503,-43.02763 4.27923,-15.50407 2.08058,-18.92927 -9.50158,-14.80266 -10.13089,3.60953 -14.59895,3.21615 -15.76116,-1.38765 -0.52663,-2.0859 -4.19164,-7.79874 -8.1445,-12.69523 -3.95286,-4.89649 -7.59222,-10.57383 -8.08739,-12.61632 -0.49528,-2.04249 -2.12977,-5.46314 -3.63243,-7.60144 -1.50256,-2.13832 -4.38333,-9.55287 -6.40163,-16.4768 -2.0183,-6.92393 -5.68748,-16.56292 -8.15385,-21.42001 -2.46626,-4.85706 -4.27582,-8.95032 -4.0213,-9.09615 0.25462,-0.14585 1.54844,-1.08667 2.87515,-2.09076 2.10842,-1.59563 2.69998,-0.98636 4.69539,4.83562 1.25575,3.6637 5.20486,10.08588 8.77579,14.27151 3.57092,4.18565 7.97053,10.56384 9.77701,14.17379 1.80636,3.60994 4.82248,8.60466 6.70246,11.09937 1.87988,2.49471 5.52738,8.73007 8.10555,13.85636 5.05532,10.05208 9.61493,15.88406 12.41856,15.88406 0.96712,0 4.86826,-1.36755 8.66916,-3.039 3.8009,-1.67145 7.35091,-2.60262 7.8891,-2.06926 0.53808,0.53336 1.1906,14.64042 1.44996,31.34904 0.39977,25.75269 8.8e-4,33.09046 -2.6191,48.18123 -9.87659,56.88847 -34.51477,107.63208 -70.2713,144.72721 -5.2195,5.41492 -10.08809,9.84531 -10.81917,9.84531 -0.73109,0 1.35786,-4.83938 4.64213,-10.75415 z M 116.90612,720.18432 c -0.42941,-2.20607 -1.58803,-14.56765 -2.57473,-27.47015 -3.01556,-39.43269 0.31469,-93.01422 9.0578,-145.7343 2.27209,-13.70042 10.56384,-45.18104 17.83036,-67.69515 11.6369,-36.0549 27.87153,-72.32533 47.50688,-106.13699 49.4614,-85.17143 129.32945,-160.49232 210.42209,-198.442 l 15.40519,-7.2093 0.41671,15.10837 c 0.40604,14.7203 0.30326,15.27229 -3.99908,21.48904 -3.39299,4.90261 -7.88206,8.30537 -19.3795,14.6897 -55.56035,30.85204 -108.3943,78.27605 -148.85764,133.61535 -52.20743,71.40102 -87.55,167.23496 -94.35139,255.84066 -3.52172,45.87935 -3.49767,49.08685 0.7738,103.19339 l 1.00753,12.76244 H 133.9255 117.68688 Z m 926.89418,-2.91712 c 3.4672,-24.8355 4.1215,-39.11255 3.3589,-73.29283 -0.9876,-44.26264 -4.8563,-75.23842 -14.1177,-113.03871 C 1017.1901,466.23813 987.73375,402.21602 950.22906,350.94579 911.51825,298.02703 855.59248,247.7503 804.81842,220.2231 c -14.94094,-8.10019 -17.57005,-10.16086 -22.60457,-17.7171 -4.15181,-6.2313 -4.53793,-7.8344 -4.53793,-18.83931 0,-6.61563 0.3782,-13.00823 0.84046,-14.20575 0.67816,-1.75693 3.89157,-0.71442 16.64332,5.39943 73.87413,35.41906 143.16423,96.61247 191.79015,169.37913 34.87765,52.19298 52.34885,90.7751 75.29465,166.27628 2.2531,7.41373 8.5702,37.18528 10.9868,51.77901 7.8129,47.18168 9.5558,98.52002 4.9145,144.76246 l -1.7201,17.13813 h -16.7963 -16.7964 z M 818.84385,566.03369 c -1.93731,-2.05007 -3.06134,-4.18579 -2.49773,-4.74604 1.40363,-1.39542 7.29689,4.66518 6.58913,6.77619 -0.33979,1.0132 -1.9887,0.19498 -4.0914,-2.03015 z M 705.27716,536.85602 c -3.90543,-2.76037 -8.96494,-5.4259 -11.24325,-5.92339 -4.85297,-1.05965 -6.10618,-3.48747 -4.89863,-9.48996 1.52115,-7.56142 -1.30746,-9.17836 -14.32374,-8.18787 l -11.28441,0.85869 1.56847,-5.08062 c 0.86269,-2.79435 2.02149,-5.08063 2.5752,-5.08063 0.5537,0 2.83906,-1.68819 5.07853,-3.75152 2.82609,-2.60377 6.12676,-3.918 10.78859,-4.29564 6.28674,-0.50928 7.35476,-0.0316 16.68271,7.46079 5.48127,4.40272 9.96594,8.63298 9.96594,9.40061 0,2.91703 5.47028,1.23709 7.0262,-2.15775 1.51895,-3.3141 1.09003,-3.90882 -6.36674,-8.82935 -7.49177,-4.94367 -9.98366,-8.0371 -6.47414,-8.0371 1.70634,0 15.64957,13.83978 23.27514,23.10239 3.98697,4.84288 5.40051,5.72183 7.03423,4.37388 1.33783,-1.10381 1.72824,-3.11913 1.1292,-5.83021 -0.52939,-2.39649 -0.29677,-4.14329 0.55183,-4.14329 0.80691,0 1.88395,1.88665 2.39342,4.19253 1.75245,7.93192 10.3492,12.49609 25.71576,13.65293 4.81643,0.36261 5.1351,0.70332 5.1351,5.49157 0,3.84046 -0.54512,4.95166 -2.20074,4.48602 -1.21041,-0.3404 -8.14274,-0.70179 -15.40518,-0.80308 -9.61977,-0.13419 -14.55867,-0.89794 -18.19276,-2.8134 -9.49509,-5.00466 -17.66787,-3.22042 -17.73026,3.87079 -0.033,3.78321 -2.87736,3.13374 -10.80047,-2.46639 z m 4.90941,-19.04743 c 0,-1.20332 -0.99033,-2.18785 -2.20074,-2.18785 -1.2104,0 -2.20074,0.98453 -2.20074,2.18785 0,1.20331 0.99034,2.18784 2.20074,2.18784 1.21041,0 2.20074,-0.98453 2.20074,-2.18784 z m -17.38585,-11.66851 c 0,-0.7621 -0.70974,-1.62083 -1.57727,-1.90828 -0.86742,-0.28747 -1.57716,0.57126 -1.57716,1.90828 0,1.33702 0.70974,2.19575 1.57716,1.90829 0.86753,-0.28746 1.57727,-1.14619 1.57727,-1.90829 z M 472.50658,480.67669 c 0,-0.76838 -2.971,-3.12799 -6.60222,-5.24357 -3.63122,-2.11556 -6.60222,-4.12043 -6.60222,-4.45528 0,-0.33484 3.6211,-2.91165 8.04701,-5.72625 11.65303,-7.41067 29.64694,-7.81758 19.4595,-0.44004 -2.21758,1.60594 -4.03198,4.22836 -4.03198,5.82756 0,1.59922 -1.92983,4.82625 -4.28858,7.17117 -4.50283,4.47636 -5.98151,5.185 -5.98151,2.86641 z m 229.69483,-20.14916 c 4.60417,-3.84383 7.023,-10.36754 4.82171,-13.00442 -1.41596,-1.6961 -1.34938,-2.40852 0.3234,-3.46082 3.1651,-1.99104 5.7743,-1.63655 5.7743,0.78449 0,1.18482 1.81561,3.2834 4.03473,4.66352 2.21912,1.38011 4.31972,2.71779 4.66799,2.9726 0.34827,0.25481 -1.59686,2.75071 -4.32247,5.54642 -4.24688,4.35592 -5.91163,5.07849 -11.63708,5.05069 -6.51815,-0.0316 -6.6075,-0.094 -3.66258,-2.55248 z M 438.60395,274.87968 c -6.38226,-1.69689 -10.01062,-4.24728 -12.29774,-8.64415 -4.28407,-8.23588 -3.11041,-11.11188 13.18926,-32.31967 l 15.40519,-20.04397 0.011,-91.61181 c 0.011,-58.979985 0.55217,-93.559248 1.53546,-97.079097 2.90388,-10.397559 -4.90666,-9.847643 139.86829,-9.847643 78.95311,0 131.2656,0.546002 133.50771,1.393461 2.02777,0.766404 4.81852,3.110597 6.20169,5.209321 2.29757,3.485991 2.54967,11.844942 2.9162,96.694968 0.22052,51.08349 0.44378,93.5633 0.49605,94.39955 0.0528,0.83626 7.02718,10.60712 15.50004,21.71305 8.47285,11.10591 15.40518,21.48052 15.40518,23.05469 0,5.0571 -4.31433,12.10227 -9.19337,15.01259 -4.61408,2.75218 -9.06684,2.83305 -161.80308,2.93877 -86.38215,0.0598 -158.715,-0.33173 -160.73968,-0.87006 z m 187.22086,-8.67336 v -3.6464 l -28.27665,-0.39626 c -24.20804,-0.33924 -28.40001,-0.0769 -29.13341,1.82321 -0.47118,1.2207 -0.47118,3.2182 0,4.43891 0.7334,1.90011 4.92537,2.16245 29.13341,1.8232 l 28.27665,-0.39624 z m 23.4906,-11.69438 c 0.5076,-0.81643 -1.15946,-4.0982 -3.70451,-7.29282 l -4.6275,-5.80838 h -43.7395 -43.73961 l -4.55344,5.15573 c -4.66293,5.27965 -5.28695,6.75592 -3.57532,8.45753 1.65781,1.64807 102.90718,1.14926 103.93988,-0.51206 z m 69.10612,-57.34866 3.50225,-4.04782 V 113.23004 33.3446 l -3.7856,-3.536018 -3.7856,-3.536013 -115.42027,-0.39092 c -84.94947,-0.287718 -116.50391,0.05531 -119.52508,1.299363 -8.55648,3.523471 -8.48034,2.690591 -8.03832,87.946508 l 0.40406,77.91739 3.48168,3.68346 c 1.91486,2.0259 5.21597,3.8892 7.33584,4.14065 2.11975,0.25146 55.26092,0.4313 118.09141,0.39963 l 114.23737,-0.0576 3.50226,-4.04781 z"
     style="fill:#000000;stroke-width:1.46285594" />
</svg>
