<?xml version="1.0" encoding="UTF-8" standalone="no"?>
<svg
   xmlns:dc="http://purl.org/dc/elements/1.1/"
   xmlns:cc="http://creativecommons.org/ns#"
   xmlns:rdf="http://www.w3.org/1999/02/22-rdf-syntax-ns#"
   xmlns:svg="http://www.w3.org/2000/svg"
   xmlns="http://www.w3.org/2000/svg"
   xmlns:sodipodi="http://sodipodi.sourceforge.net/DTD/sodipodi-0.dtd"
   xmlns:inkscape="http://www.inkscape.org/namespaces/inkscape"
   inkscape:version="1.0 (4035a4fb49, 2020-05-01)"
   sodipodi:docname="nuclei.png.svg"
   viewBox="0 0 512 512"
   height="100"
   width="100"
   id="svg885"
   version="1.1">
  <metadata
     id="metadata891">
    <rdf:RDF>
      <cc:Work
         rdf:about="">
        <dc:format>image/svg+xml</dc:format>
        <dc:type
           rdf:resource="http://purl.org/dc/dcmitype/StillImage" />
        <dc:title></dc:title>
      </cc:Work>
    </rdf:RDF>
  </metadata>
  <defs
     id="defs889" />
  <sodipodi:namedview
     inkscape:current-layer="g893"
     inkscape:window-maximized="1"
     inkscape:window-y="24"
     inkscape:window-x="0"
     inkscape:cy="211.42645"
     inkscape:cx="154"
     inkscape:zoom="0.63474026"
     showgrid="false"
     id="namedview887"
     inkscape:window-height="692"
     inkscape:window-width="1366"
     inkscape:pageshadow="2"
     inkscape:pageopacity="0"
     guidetolerance="10"
     gridtolerance="10"
     objecttolerance="10"
     borderopacity="1"
     bordercolor="#666666"
     pagecolor="#ffffff" />
  <g
     id="g893"
     inkscape:label="Image"
     inkscape:groupmode="layer">
    <path
       d="m 170.57096,22.560355 c -12.98213,0.117825 -24.44826,5.853693 -32.86136,17.202486 -9.35862,12.624251 -10.90069,22.023301 -10.88615,66.139199 l 0.0104,51.42467 -24.79566,5.32119 c -33.113436,7.1081 -72.986386,27.82437 -86.409688,44.90519 -15.35438359,19.53807 -13.8401248,39.95587 4.504613,60.86878 17.100119,19.49405 75.175113,52.81209 83.294765,47.7892 10.29885,-6.37095 4.7217,-13.05571 -22.07666,-26.46381 C -0.66651849,248.71123 8.4620532,206.31735 104.62504,181.64781 l 27.37263,-7.02722 11.50502,35.36969 11.50503,35.3697 -20.10843,43.56473 c -38.710452,83.86646 -47.214243,139.85583 -25.44498,167.55669 10.06039,12.80159 13.77844,14.03063 35.91516,11.9016 26.97225,-2.5941 73.54469,-31.30485 76.60887,-47.23067 2.35681,-12.24933 -8.27128,-10.89574 -27.15957,3.47299 -8.84062,6.72523 -23.9918,16.31341 -33.673,21.30508 -22.06703,11.37791 -39.72204,4.89234 -44.36639,-16.29869 -4.04662,-18.46377 12.11501,-81.97667 32.17146,-126.41898 l 15.24873,-33.79568 22.20855,44.19435 c 44.16774,87.88012 94.9311,153.21269 131.37442,169.06977 34.80667,15.14494 55.4428,5.0317 65.78359,-32.24197 7.43568,-26.8021 6.9591,-50.73728 -1.89721,-96.07599 -12.40874,-63.52486 -51.18968,-162.52065 -62.16164,-158.68126 -8.64412,3.02483 -5.72828,18.04257 11.33255,58.46206 31.56367,74.77877 46.1949,165.91647 32.44539,202.11398 -3.92679,10.33789 -8.6725,13.33345 -21.09255,13.33345 -31.27653,0 -92.91721,-72.07842 -137.15736,-160.38729 -31.71904,-63.31518 -31.58286,-57.70614 -2.4958,-99.16309 29.77266,-42.43412 29.02516,-42.2328 106.69035,-28.87053 166.29995,28.61182 235.809,107.94993 123.26814,140.69684 -28.16415,8.19515 -35.93931,13.9434 -30.57862,22.62523 3.85344,6.24079 51.55409,-7.54047 74.33627,-21.47772 21.60174,-13.21511 34.03517,-36.64494 29.76698,-56.09595 -10.2888,-46.8881 -106.78562,-95.70656 -211.6864,-107.0941 -48.96844,-5.3158 -49.48584,-6.62831 -16.13139,-40.82291 55.37017,-56.76484 104.82767,-76.859973 116.1054,-47.169743 4.6025,12.116738 3.42595,22.80644 -8.53239,77.218243 -2.72786,12.41208 -1.72394,14.52556 6.19892,12.99834 6.43617,-1.24065 11.61135,-10.12556 16.19226,-27.81441 C 418.23398,95.369285 417.0166,65.963283 404.84129,53.776671 372.53687,21.44224 321.93027,44.342709 246.65226,125.34876 l -25.56673,27.50977 -36.75724,-1.51309 -36.74709,-1.51309 -2.59726,-28.59634 C 137.26043,36.198376 164.8671,17.298296 219.63472,70.1363 234.87711,84.841667 248.98308,94.32269 253.20627,92.700596 262.95586,88.955859 242.82771,62.435118 212.51256,39.082459 198.0497,27.941283 183.55309,22.442529 170.57096,22.560355 Z m 8.17729,150.669005 c 12.85641,0 23.3753,1.32432 23.3753,2.94493 0,1.62062 -6.30175,11.56435 -14.00083,22.09718 -7.69908,10.53283 -15.48761,20.98786 -17.30827,23.22437 -3.14419,3.86235 -15.44149,-29.879 -15.44149,-42.36646 0,-3.52156 9.41357,-5.90002 23.37529,-5.90002 z m 76.00014,47.14943 c -5.27266,0.21713 -10.86165,1.95324 -16.90245,5.18918 -22.30792,11.94993 -20.9332,49.82829 2.21172,61.0211 17.43307,8.43057 23.76403,7.33883 37.61961,-6.52963 15.75332,-15.76795 16.25789,-32.23721 1.46096,-48.00245 -7.68277,-8.18554 -15.60207,-12.04008 -24.38984,-11.6782 z"
       style="fill:#000000;stroke-width:5.19692"
       id="path926" />
  </g>
</svg>
