<?xml version="1.0" encoding="UTF-8" standalone="no"?>
<svg
   xmlns:dc="http://purl.org/dc/elements/1.1/"
   xmlns:cc="http://creativecommons.org/ns#"
   xmlns:rdf="http://www.w3.org/1999/02/22-rdf-syntax-ns#"
   xmlns:svg="http://www.w3.org/2000/svg"
   xmlns="http://www.w3.org/2000/svg"
   viewBox="0 0 263 263"
   height="100"
   width="100"
   id="svg869"
   version="1.1">
  <metadata
     id="metadata875">
    <rdf:RDF>
      <cc:Work
         rdf:about="">
        <dc:format>image/svg+xml</dc:format>
        <dc:type
           rdf:resource="http://purl.org/dc/dcmitype/StillImage" />
        <dc:title></dc:title>
      </cc:Work>
    </rdf:RDF>
  </metadata>
  <defs
     id="defs873" />
  <path
     id="path879"
     d="M 109.86877,261.04082 C 100.08658,259.31844 85.527868,254.75715 76.004188,250.43094 50.024018,238.62922 24.573458,213.16949 12.711838,187.11578 8.0086987,176.78547 3.1564287,160.2622 1.6612887,149.48574 0.14112873,138.52898 0.89957873,115.1795 3.1051287,105.03577 17.212498,40.153455 76.313268,-4.1207475 141.50157,1.3587635 c 13.77544,1.157917 19.93842,2.393669 31.94147,6.4046424 44.87554,14.9957321 77.92334,53.0950691 86.87332,100.1523641 2.9118,15.30965 2.26936,38.00769 -1.53469,54.22223 -11.44403,48.77955 -50.65048,86.93903 -100.64137,97.95386 -9.84009,2.16813 -38.18277,2.72532 -48.27153,0.94896 z m 42.09975,-21.17115 c 21.71602,-3.89974 42.50327,-15.21149 58.80848,-32.00167 11.47194,-11.81314 19.56741,-25.08802 24.94971,-40.91222 C 253.25898,115.41001 230.24358,58.810565 181.57832,33.794118 155.06196,20.163342 124.82908,17.861601 96.472678,27.314711 c -37.50856,12.504144 -65.77109,45.008814 -73.36147,84.372839 -2.0867,10.82169 -2.02496,30.57792 0.1277,40.86823 4.56848,21.83855 13.68836,39.29843 28.72047,54.98501 26.4865,27.63964 62.069222,39.14209 100.009142,32.32888 z m 19.91712,-16.26407 c -1.10905,-0.7768 -4.16639,-4.7688 -6.7941,-8.8711 -10.93545,-17.07206 -15.58019,-29.94459 -15.89649,-44.05575 -0.1637,-7.30356 0.0557,-8.24633 3.46639,-14.89642 3.40207,-6.63327 3.73221,-8.04382 5.02823,-21.48298 0.7629,-7.91097 1.3924,-14.82886 1.39887,-15.37311 0.007,-0.54424 -1.24883,-1.46535 -2.78953,-2.0469 -2.78565,-1.05147 -2.79845,-1.03981 -2.29125,2.08562 0.28051,1.72864 -0.003,4.6981 -0.63049,6.59878 -3.032,9.18705 -20.82798,27.85447 -36.28812,38.06507 -11.07559,7.31484 -37.261822,20.854 -38.308862,19.80697 -1.04448,-1.04448 12.48411,-27.22114 19.76917,-38.25162 4.409432,-6.67643 10.023052,-13.45444 16.136302,-19.48334 13.77934,-13.58919 22.4339,-18.77317 29.1118,-17.43759 2.55386,0.51076 2.59463,0.45006 1.55227,-2.31145 -0.58876,-1.5598 -1.51576,-2.83072 -2.06,-2.82425 -0.54425,0.007 -7.46214,0.63597 -15.37311,1.39887 -13.43916,1.29602 -14.84971,1.62616 -21.48298,5.02823 -6.650092,3.41071 -7.592862,3.63009 -14.896432,3.46639 -14.59044,-0.32704 -30.51562,-6.36627 -46.63105,-17.683695 -12.10201,-8.49891 -9.55113,-9.81829 18.7641,-9.7053 19.82683,0.0791 38.483452,1.87412 63.116062,6.07251 9.41936,1.60545 17.36915,2.67596 17.66619,2.37893 0.29703,-0.29703 -1.92522,-1.6687 -4.93832,-3.04814 -3.83721,-1.75674 -6.61311,-3.94362 -9.26619,-7.30003 -6.30137,-7.97183 -4.67653,-9.17012 2.35875,-1.73952 4.20245,4.43858 6.38337,5.85116 6.29925,4.08 -0.0188,-0.396 -0.66006,-3.312 -1.425,-6.48 -2.87315,-11.89907 -1.17493,-13.38028 2.3724,-2.06923 1.69995,5.42052 2.81053,7.42547 4.55278,8.21929 3.23419,1.4736 3.24549,1.45547 1.57904,-2.53289 -1.4383,-3.44233 -1.32432,-9.86142 0.28926,-16.29043 1.14181,-4.54931 2.38567,-0.93986 1.74328,5.05867 -0.59838,5.5877 -0.43168,6.46239 1.94834,10.22257 2.51088,3.9669 2.77893,4.11368 7.59572,4.15914 l 4.99298,0.0471 -0.38338,-5.32712 c -0.39376,-5.47116 0.31598,-6.83647 5.8605,-11.27357 0.78791,-0.63054 1.60861,-1.67454 1.82376,-2.32 0.6203,-1.8609 6.6112,-1.42668 8.08279,0.58584 1.18971,1.62703 1.40332,1.47982 2.83921,-1.95677 1.47286,-3.52504 1.44908,-3.96619 -0.46239,-8.57794 -2.25098,-5.43093 -2.40281,-6.26469 -1.14073,-6.26469 1.32724,0 4.88564,7.93447 4.88564,10.89393 0,1.43426 -0.65064,4.16494 -1.44587,6.06818 l -1.44586,3.46045 4.67458,4.67459 4.6746,4.67458 3.46043,-1.44586 c 1.90325,-0.79523 4.63393,-1.44587 6.06819,-1.44587 2.89397,0 10.89393,3.54617 10.89393,4.82898 0,1.27404 -1.72339,2.02579 -2.34359,1.02229 -0.30595,-0.49503 -2.42967,-1.61551 -4.71936,-2.48995 -3.82918,-1.46238 -4.45718,-1.46703 -7.82947,-0.058 -3.39255,1.41749 -3.53497,1.62799 -1.90698,2.81841 2.01253,1.47159 2.44674,7.46248 0.58584,8.08279 -0.64546,0.21515 -1.68946,1.03584 -2.32,1.82375 -4.42754,5.532588 -5.80839,6.253835 -11.22644,5.863915 l -5.28,-0.379977 v 4.990847 c 0,4.83278 0.13022,5.07324 4.11201,7.5923 3.75964,2.37853 4.63567,2.54539 10.22257,1.94708 5.99853,-0.64239 9.60799,0.60147 5.05867,1.74328 -6.429,1.61358 -12.8481,1.72756 -16.29043,0.28926 -3.98836,-1.66645 -4.00648,-1.65515 -2.53289,1.57904 0.79382,1.74225 2.79878,2.85283 8.2193,4.55278 11.31105,3.54733 9.82983,5.24555 -2.06923,2.3724 -3.168,-0.76494 -6.084,-1.40619 -6.48,-1.425 -1.77116,-0.0841 -0.35858,2.0968 4.08,6.29925 7.43059,7.03528 6.23231,8.66012 -1.73953,2.35875 -3.3564,-2.65308 -5.54329,-5.42898 -7.30002,-9.26619 -1.37945,-3.0131 -2.75111,-5.23535 -3.04814,-4.93832 -0.29703,0.29704 0.77371,8.24683 2.37944,17.66619 3.83449,22.49355 4.75808,30.2916 5.83743,49.28613 0.91543,16.10998 0.0501,37.80471 -1.57263,39.42745 -0.52633,0.52633 -1.67792,0.31219 -2.89121,-0.53763 z"
     style="fill:#000000;stroke-width:0.96000004" />
</svg>
