<?xml version="1.0" encoding="UTF-8" standalone="no"?>
<svg
   xmlns:dc="http://purl.org/dc/elements/1.1/"
   xmlns:cc="http://creativecommons.org/ns#"
   xmlns:rdf="http://www.w3.org/1999/02/22-rdf-syntax-ns#"
   xmlns:svg="http://www.w3.org/2000/svg"
   xmlns="http://www.w3.org/2000/svg"
   viewBox="0 0 217 217"
   height="100"
   width="100"
   id="svg869"
   version="1.1">
  <metadata
     id="metadata875">
    <rdf:RDF>
      <cc:Work
         rdf:about="">
        <dc:format>image/svg+xml</dc:format>
        <dc:type
           rdf:resource="http://purl.org/dc/dcmitype/StillImage" />
        <dc:title></dc:title>
      </cc:Work>
    </rdf:RDF>
  </metadata>
  <defs
     id="defs873" />
  <path
     id="path879"
     d="m 106.11568,198.01839 c -2.10534,-5.09125 -1.21543,-12.22624 1.63553,-13.11304 2.66717,-0.82962 4.50684,1.98883 4.49839,6.89171 -0.009,5.31811 -1.10691,7.66722 -3.58294,7.66722 -1.18786,0 -2.18734,-0.5665 -2.55098,-1.44589 z m 3.59034,-2.99848 c 0.63391,-3.13019 0.0794,-6.70955 -1.03936,-6.70955 -0.60587,0 -1.08619,0.93482 -1.21871,2.37191 -0.27366,2.96767 0.37128,6.30336 1.21871,6.30336 0.3527,0 0.82041,-0.88459 1.03936,-1.96572 z m 14.41956,-5.26369 c -0.38657,-1.24964 -0.89318,-3.10864 -1.12581,-4.13108 -0.23263,-1.02244 -0.85274,-1.85898 -1.37803,-1.85898 -1.2814,0 -1.23674,-3.63905 0.0611,-4.97388 0.55886,-0.57482 1.1783,-0.84413 1.37652,-0.59845 0.81011,1.00399 3.63546,12.28354 3.2636,13.02919 -0.69712,1.39792 -1.47094,0.88136 -2.19732,-1.4668 z m -27.458913,-5.47308 c 0,-0.62449 0.41745,-2.60179 0.92767,-4.39398 0.66367,-2.33124 0.73199,-3.69185 0.24008,-4.78121 -0.53298,-1.18032 -0.41312,-1.7714 0.53309,-2.62887 2.953403,-2.67641 3.539353,-0.15065 1.668953,7.19409 -0.913183,3.58589 -1.821453,5.74541 -2.416463,5.74541 -0.52433,0 -0.95333,-0.51094 -0.95333,-1.13544 z m 17.071323,-5.12875 c -0.22257,-0.71879 -0.40466,-2.62975 -0.40466,-4.24654 0,-1.72376 -0.43503,-3.3339 -1.05175,-3.89279 -0.94484,-0.85621 -0.91576,-1.15945 0.28601,-2.98285 1.8705,-2.83801 2.51959,-1.55331 3.04453,6.0259 0.36477,5.26679 0.27373,6.40317 -0.513,6.40317 -0.52606,0 -1.13857,-0.58809 -1.36113,-1.30689 z m -30.258433,-0.80733 c -2.70034,-2.34405 -1.30674,-8.5851 2.547,-11.40637 2.29548,-1.68049 2.93946,-1.6885 4.25916,-0.0529 1.69198,2.09692 1.31559,6.583 -0.78572,9.36482 -2.33062,3.08541 -4.14984,3.7183 -6.02044,2.09452 z m 4.21741,-4.04485 c 1.73377,-2.1487 2.09933,-4.12962 0.92769,-5.02702 -1.33092,-1.01943 -5.13751,4.53196 -4.28281,6.24587 0.64733,1.29807 1.60496,0.95018 3.35512,-1.21885 z m 34.312933,-3.93269 c -0.75646,-1.00628 -1.71156,-3.22023 -2.12244,-4.91987 -0.62174,-2.57177 -0.56054,-3.44307 0.36477,-5.19323 1.19461,-2.25956 2.41505,-2.6029 4.45136,-1.25228 2.75108,1.82469 4.39331,9.85265 2.49641,12.20352 -1.256,1.55658 -3.68475,1.16437 -5.1901,-0.83814 z M 126,167.61389 c 0,-2.09894 -1.9624,-6.15559 -2.97778,-6.15559 -1.49465,0 -1.62286,1.01444 -0.54821,4.33764 1.02068,3.15633 3.52599,4.44802 3.52599,1.81795 z m -21.33333,-2.43761 c 0,-2.49932 -0.3,-4.5442 -0.66667,-4.5442 -0.92839,0 -0.83543,-2.76523 0.13333,-3.96584 1.97032,-2.44187 2.53334,-1.10143 2.53334,6.03139 0,5.69171 -0.18954,7.02284 -1,7.02284 -0.76768,0 -1,-1.05573 -1,-4.54419 z m -10.666673,-2.06554 c -1.69138,-2.09618 -1.6764,-3.55731 0.0827,-8.06073 2.10129,-5.37949 5.574734,-6.49561 7.121513,-2.28834 0.9492,2.58184 -0.12887,7.43907 -2.228733,10.04149 -1.9312,2.39339 -3.22775,2.47354 -4.97545,0.30758 z m 4.4387,-4.4691 c 1.179244,-3.06469 0.833764,-5.68174 -0.6565,-4.97302 -1.10978,0.5278 -2.44886,3.90498 -2.44886,6.17611 0,2.60245 1.92856,1.85528 3.10536,-1.20309 z m 12.989113,-0.11389 c -2.75248,-4.33666 -2.59155,-11.31965 0.29849,-12.95157 2.09924,-1.18539 4.00854,0.85257 4.9777,5.31313 0.7579,3.48824 0.38368,6.03424 -1.21952,8.29689 -1.40902,1.9886 -2.4877,1.81352 -4.05667,-0.65845 z m 3.23885,-5.27921 c 0,-3.03073 -1.51249,-5.88929 -2.48099,-4.68901 -0.73047,0.90528 -0.38331,6.2377 0.4911,7.54346 1.20875,1.80503 1.98989,0.68451 1.98989,-2.85445 z m -9.05483,-9.21633 c 0.3034,-2.83458 0.18623,-4.60089 -0.35925,-5.41546 -0.65194,-0.97353 -0.54131,-1.54122 0.56838,-2.91648 2.05543,-2.54736 3.05735,-1.23069 2.5426,3.34131 -0.90573,8.04459 -1.18023,9.19725 -2.19031,9.19725 -0.83096,0 -0.93126,-0.75145 -0.56142,-4.20662 z M 130.8,145.59493 c -1.45385,-1.80179 -0.96851,-6.26955 0.84067,-7.73867 0.90237,-0.73277 1.82915,-2.06828 2.05952,-2.96781 0.63475,-2.47856 4.25901,-4.8198 7.46647,-4.8233 2.64589,-0.002 3.6512,-0.93156 2.2064,-2.0382 -1.35975,-1.04149 -8.82935,-0.53939 -13.32431,0.89567 -4.46725,1.4262 -4.92823,1.43472 -7.89648,0.14568 -1.73375,-0.75291 -3.979,-1.16538 -4.98944,-0.91658 -2.31209,0.5693 -3.8295,-0.94003 -3.8295,-3.80909 0,-4.92466 2.77372,-5.4313 7.13586,-1.30341 3.43483,3.25036 5.61801,3.60429 9.38555,1.52159 1.36322,-0.75359 5.17859,-1.59014 8.47859,-1.85898 5.85037,-0.47663 6,-0.54034 6,-2.55436 v -2.06555 H 107 c -36.888883,0 -37.333333,0.0197 -37.333333,1.65243 0,1.51716 0.60031,1.69988 7.33333,2.23195 7.95937,0.62899 11.5231,1.60646 14.74536,4.04438 1.14328,0.865 2.95828,1.57274 4.03333,1.57274 2.4145,0 3.554654,1.32503 3.554654,4.13108 0,4.33182 -3.405704,5.58568 -5.820974,2.14307 -2.79231,-3.98 -7.07609,-6.33284 -12.29679,-6.75392 -2.68524,-0.21657 -6.30724,-0.5515 -8.04891,-0.7443 -2.30855,-0.25553 -3.16667,-0.0576 -3.16667,0.73063 0,0.75176 1.50474,1.22218 4.93918,1.54409 5.31539,0.4982 7.05928,1.29917 9.85164,4.5248 0.98495,1.13777 2.48229,2.49592 3.32743,3.01811 3.71488,2.29532 1.5203,10.11848 -2.32541,8.28955 -0.58392,-0.27769 -1.39779,-1.76707 -1.80859,-3.3097 -1.13249,-4.2527 -4.63953,-6.7464 -11.49449,-8.17326 -2.38902,-0.49726 -2.52986,-0.40089 -2.91666,1.99597 l -0.40643,2.51848 H 34.583337 8.8707031e-7 v -2.47094 -2.47095 L 33.166667,132.34188 l 33.16667,-0.21428 0.18017,-17.13627 0.18017,-17.136281 -33.18017,-0.214267 -33.18017312,-0.21428 -0.210948,-2.272104 -0.210948,-2.272092 H 34.576017 69.240597 l 0.21304,1.858988 c 0.15279,1.333315 0.73366,1.933185 2.05418,2.121352 4.37279,0.623133 13.86416,-5.022402 14.39388,-8.561593 0.35959,-2.402494 1.4177,-3.680919 3.0466,-3.680919 2.01998,0 3.0517,1.536304 3.0517,4.544196 0,2.918227 -1.02468,4.544197 -2.86375,4.544197 -0.69507,0 -2.06007,0.692881 -3.03333,1.539738 -2.82872,2.461337 -7.81744,4.917235 -12.11895,5.966035 -2.19118,0.53426 -3.98397,1.33764 -3.98397,1.7853 0,1.03201 6.3831,0.12703 11.26101,-1.59654 3.59017,-1.26856 6.64093,-1.17453 13.64075,0.42047 3.4903,0.7953 4.405454,1.86039 4.421374,5.14578 0.0224,4.62925 -3.406634,5.4864 -6.043644,1.51071 -2.19942,-3.31597 -6.76754,-4.09685 -11.81403,-2.01953 -1.84091,0.75779 -5.24874,1.63773 -7.57295,1.95543 -3.93883,0.53838 -4.22584,0.71789 -4.22584,2.64315 v 2.06554 H 107 c 32.74074,0 37.33333,-0.15245 37.33333,-1.23932 0,-0.99684 -1.56526,-1.36586 -8,-1.88606 -7.11936,-0.57553 -8.58709,-0.97173 -13.33333,-3.59916 -7.39889,-4.0959 -7.30704,-4.02766 -7.55904,-5.61606 -0.94472,-5.954836 4.20653,-8.582627 5.78989,-2.953587 1.05647,3.755887 5.73301,6.629207 11.55357,7.098677 2.68524,0.21658 6.30724,0.5515 8.04891,0.74429 2.24937,0.24899 3.16667,0.0495 3.16667,-0.68875 0,-0.65306 -1.92005,-1.43862 -5.16667,-2.11387 -6.06447,-1.26131 -8.27614,-2.50963 -11.65545,-6.578634 -2.97008,-3.576247 -3.45558,-7.682627 -1.09356,-9.249283 2.36296,-1.567263 4.58234,0.223401 4.58234,3.69718 0,4.509682 2.3401,6.351529 9.96842,7.846005 3.41028,0.668107 3.43867,0.655553 3.81704,-1.6891 l 0.38121,-2.362203 h 36.25 36.25 v 2.471289 2.471274 l -34.83333,0.21392 -34.83334,0.213932 -0.18017,17.13661 -0.18017,17.13662 34.84684,0.21393 34.84684,0.21394 0.21094,2.27211 0.21095,2.27208 h -36.33333 -36.33334 l -0.21094,-2.27208 c -0.18072,-1.94657 -0.55036,-2.30745 -2.57982,-2.51884 -3.61452,-0.3765 -5.96446,2.28341 -5.96446,6.75119 0,3.8625 -0.88383,5.47568 -3,5.47568 -0.77,0 -1.76,-0.44614 -2.2,-0.99146 z m 2.9473,-4.41647 c -0.35061,-1.13231 -0.61396,-1.19844 -1.43008,-0.35902 -0.77641,0.79859 -0.82574,1.28962 -0.22036,2.19362 0.99674,1.48843 2.24852,0.097 1.65044,-1.8346 z m -45.747303,-1.20179 c 0,-0.91802 -0.44444,-1.65245 -1,-1.65245 -0.55555,0 -1,0.73443 -1,1.65245 0,0.91802 0.44445,1.65243 1,1.65243 0.55556,0 1,-0.73441 1,-1.65243 z m 9.33334,-8.26217 c 0,-0.91802 -0.44445,-1.65244 -1,-1.65244 -0.55556,0 -1,0.73442 -1,1.65244 0,0.91801 0.44444,1.65243 1,1.65243 0.55555,0 1,-0.73442 1,-1.65243 z m 19.999993,-7.43595 c 0,-0.91802 -0.44445,-1.65244 -1,-1.65244 -0.55555,0 -1,0.73442 -1,1.65244 0,0.91802 0.44445,1.65242 1,1.65242 0.55555,0 1,-0.7344 1,-1.65242 z M 97.215547,106.65297 c 0.12759,-0.81528 -0.21251,-1.37741 -0.83333,-1.37741 -0.61842,0 -1.04888,0.70641 -1.04888,1.72128 0,2.01352 1.55784,1.72891 1.88221,-0.34387 z m 22.117783,-7.023222 c 0,-0.833112 -0.1974,-1.759369 -0.43866,-2.058381 -0.70719,-0.876439 -2.18305,1.104509 -1.78372,2.394189 0.5281,1.705564 2.22238,1.449544 2.22238,-0.335808 z m 9.08063,-9.676724 c -0.3506,-1.132322 -0.61395,-1.19844 -1.43007,-0.35902 -0.77641,0.798584 -0.82574,1.289617 -0.22037,2.193618 0.99674,1.48843 2.24852,0.09692 1.65044,-1.834598 z M 89.733337,88.255495 c -0.3227,-1.042197 -0.64372,-1.185154 -1.17705,-0.524184 -0.40333,0.499869 -0.53366,1.553692 -0.28962,2.341854 0.3227,1.042198 0.64371,1.185154 1.17705,0.524184 0.40333,-0.499869 0.53366,-1.553692 0.28962,-2.341854 z m 66.933323,31.648875 c 0,-3.01896 -0.3336,-4.85501 -1.00822,-5.54888 -1.24876,-1.28442 -0.15953,-3.29642 1.78456,-3.29642 1.16758,0 1.26268,0.55546 1.08504,6.33688 -0.12762,4.15361 -0.48182,6.4546 -1.02804,6.67859 -0.5986,0.24545 -0.83334,-0.92924 -0.83334,-4.17017 z m 8.44445,3.82335 c -0.24445,-0.30294 -0.44445,-2.32589 -0.44445,-4.49543 0,-2.16954 -0.3,-4.17439 -0.66666,-4.45524 -0.94866,-0.72662 -0.82706,-1.74875 0.38708,-3.25345 1.74271,-2.15979 2.27958,-0.70103 2.27958,6.19397 0,6.02801 -0.37428,7.47414 -1.55555,6.01015 z m 7.92669,-1.28544 c -1.53608,-2.71792 -1.36453,-9.32586 0.29553,-11.38321 0.73333,-0.90884 1.73684,-1.65243 2.23001,-1.65243 2.5193,0 4.426,6.84244 3.10584,11.14571 -1.2698,4.13912 -3.86749,5.01093 -5.63138,1.88993 z m 3.60541,-2.24051 c 0.88759,-2.0554 0.87865,-4.68366 -0.0231,-6.77171 -1.11479,-2.58168 -2.62011,-0.40479 -2.62011,3.7891 0,4.74586 1.26524,6.17357 2.64321,2.98261 z m 8.46011,2.56584 c -1.43646,-1.96715 -1.4766,-9.02796 -0.0655,-11.5247 2.35229,-4.16209 5.62887,-0.73657 5.62887,5.88474 0,6.30275 -2.9187,9.26163 -5.56334,5.63996 z m 3.63601,-3.70676 c 0.61015,-2.82744 -0.22137,-6.76246 -1.42901,-6.76246 -1.37119,0 -2.20879,4.51375 -1.354,7.29656 0.8558,2.78609 2.11884,2.54368 2.78301,-0.5341 z m 8.37178,4.66687 c -0.24445,-0.30294 -0.44445,-2.32589 -0.44445,-4.49543 0,-2.16954 -0.3,-4.17439 -0.66666,-4.45524 -0.94866,-0.72662 -0.82706,-1.74875 0.38708,-3.25345 1.74271,-2.15979 2.27958,-0.70103 2.27958,6.19397 0,6.02801 -0.37428,7.47414 -1.55555,6.01015 z m 8,0 c -0.24445,-0.30294 -0.44445,-2.27346 -0.44445,-4.37894 0,-2.10547 -0.35291,-4.26551 -0.78424,-4.80007 -0.60122,-0.74511 -0.50264,-1.35761 0.42243,-2.62442 0.66367,-0.90886 1.46658,-1.4534 1.78425,-1.21008 0.74048,0.56717 0.76157,13.56434 0.022,13.56434 -0.30556,0 -0.75556,-0.24787 -1,-0.55083 z m 8.22222,-3.82812 c 0,-2.40843 -0.33983,-4.80012 -0.75519,-5.31487 -1.07424,-1.33134 -0.20231,-3.52566 1.40094,-3.52566 1.24837,0 1.35425,0.51677 1.35425,6.60974 0,5.3245 -0.19445,6.60974 -1,6.60974 -0.7631,0 -1,-1.03737 -1,-4.37895 z M 3.1222229,122.08907 c -0.250555,-0.31051 -0.455555,-2.51652 -0.455555,-4.90222 0,-2.71892 -0.310986,-4.47786 -0.833334,-4.71338 -1.10015302,-0.49604 0.248336,-3.47994 1.572658,-3.47994 0.690678,0 0.977856,1.56098 1.125275,6.11657 0.184762,5.70953 -0.339225,8.30482 -1.409044,6.97897 z m 8.2111111,-1.11539 c -0.969721,-1.20181 -1.333333,-2.75406 -1.333333,-5.69199 0,-5.17026 1.64388,-8.02476 4.169054,-7.2393 3.184182,0.99044 4.023162,9.34014 1.320092,13.13784 -1.341939,1.88536 -2.514906,1.82706 -4.155813,-0.20655 z m 4,-5.78352 c 0,-2.66574 -1.527223,-5.41694 -2.565531,-4.62167 -1.026266,0.78607 -0.983279,7.329 0.05662,8.61777 1.082636,1.34176 2.508911,-0.92998 2.508911,-3.9961 z m 8.000003,5.78352 c -1.81965,-2.25514 -1.89288,-9.85716 -0.11418,-11.8521 2.87021,-3.21914 5.44751,-0.41495 5.44751,5.92708 0,4.17722 -1.49577,7.57745 -3.33333,7.57745 -0.36667,0 -1.26667,-0.74359 -2,-1.65243 z m 3.40599,-3.56526 c 0.61016,-2.82746 -0.22137,-6.76246 -1.42901,-6.76246 -1.37118,0 -2.20879,4.51375 -1.35399,7.29655 0.8558,2.7861 2.11883,2.5437 2.783,-0.53409 z m 8.3829,4.68065 c -0.25056,-0.31051 -0.45556,-2.51652 -0.45556,-4.90222 0,-2.71892 -0.31098,-4.47786 -0.83333,-4.71338 -1.10016,-0.49604 0.24833,-3.47994 1.57265,-3.47994 0.69068,0 0.97786,1.56098 1.12528,6.11657 0.18476,5.70953 -0.33923,8.30482 -1.40904,6.97897 z m 8.21111,-1.11539 c -0.96972,-1.20181 -1.33334,-2.75406 -1.33334,-5.69199 0,-5.17026 1.64388,-8.02476 4.16906,-7.2393 3.18418,0.99044 4.02316,9.34014 1.32009,13.13784 -1.34194,1.88536 -2.51491,1.82706 -4.15581,-0.20655 z m 4,-5.78352 c 0,-2.66574 -1.52723,-5.41694 -2.56553,-4.62167 -1.02627,0.78607 -0.98328,7.329 0.0566,8.61777 1.08263,1.34176 2.50891,-0.92998 2.50891,-3.9961 z m 7.75965,6.86268 c -0.23448,-0.29059 -0.42632,-2.48029 -0.42632,-4.86599 0,-2.71892 -0.31099,-4.47786 -0.83333,-4.71338 -1.11667,-0.50347 0.21565,-3.37574 1.73812,-3.74707 0.94266,-0.22992 1.09521,0.65515 1.09521,6.35442 0,6.10248 -0.49735,8.30594 -1.57368,6.97202 z M 107.77052,94.801141 c -0.24844,-0.307886 -0.26005,-2.350306 -0.0258,-4.538706 0.28597,-2.671652 0.15202,-4.387881 -0.4077,-5.223707 -1.04949,-1.567177 0.17305,-3.723453 2.11104,-3.723453 1.17482,0 1.25011,0.442041 0.87948,5.163846 -0.67279,8.571062 -1.13701,10.081886 -2.55702,8.32202 z M 99.353781,79.276684 c -1.037464,-1.368612 -1.649164,-3.377906 -1.861294,-6.113901 -0.28636,-3.693437 -0.15243,-4.208129 1.42911,-5.4924 1.632353,-1.325533 1.854643,-1.328086 3.441493,-0.03949 3.22076,2.615371 4.12096,10.113149 1.48857,12.398216 -2.00863,1.743607 -2.69254,1.629205 -4.497879,-0.752406 z m 3.538829,-4.55621 c -0.12042,-3.028521 -1.68228,-5.486178 -2.895789,-4.556684 -0.49481,0.378993 -0.6442,1.562921 -0.39336,3.117324 0.828939,5.136606 3.482329,6.297742 3.289149,1.43936 z m 10.70353,-0.445479 c -1.30791,-2.473851 -0.9656,-7.618595 0.7189,-10.804751 0.80806,-1.528385 1.57808,-2.01559 2.88844,-1.827509 3.60888,0.517988 4.41914,7.804782 1.39728,12.565873 -1.72417,2.716505 -3.59043,2.741254 -5.00462,0.06634 z m 3.71374,-2.82001 C 117.68944,70.576022 118,68.689768 118,67.263322 c 0,-3.410672 -2.01033,-3.106848 -2.77483,0.419372 -0.94515,4.35945 0.61333,7.179543 2.08471,3.772291 z m -9.97655,-3.4182 c 0,-2.712031 -0.37048,-4.649246 -1.05026,-5.491714 -0.95591,-1.184688 -0.932,-1.448185 0.26609,-2.933011 2.09595,-2.59757 2.78417,-1.101108 2.78417,6.053856 0,5.28116 -0.19507,6.56097 -1,6.56097 -0.75743,0 -1,-1.01638 -1,-4.190101 z M 96.541857,60.28935 c -0.81082,-2.068327 -1.84672,-3.760583 -2.30202,-3.760583 -0.4553,0 -1.0047,-0.3547 -1.22089,-0.788221 -0.64054,-1.284454 0.38243,-4.995297 1.37706,-4.995297 0.95222,0 4.937334,8.944399 4.937334,11.081608 0,2.758325 -1.412404,1.980392 -2.791484,-1.537507 z M 114,56.157973 c 0,-0.734093 0.41665,-2.570555 0.92589,-4.081027 0.50924,-1.510474 0.77991,-3.692726 0.60149,-4.849451 -0.252,-1.633713 0.003,-2.231812 1.14122,-2.679632 2.6537,-1.043824 2.87333,0.703096 0.83742,6.660581 C 115.65734,56.618048 114,58.957752 114,56.157973 Z m -13.33447,-5.418572 c -0.44043,-2.275312 -1.281619,-4.470423 -1.869313,-4.878024 -0.8909,-0.617893 -0.93744,-1.097639 -0.28,-2.88591 1.393504,-3.790349 2.590433,-2.594935 3.744783,3.740045 1.3112,7.195737 1.32761,8.16082 0.13883,8.16082 -0.56932,0 -1.24592,-1.613936 -1.7343,-4.136931 z M 124.8,48.927571 c -3.19235,-3.956358 3.13557,-14.097592 7.13951,-11.441909 2.232,1.48041 1.92965,6.939114 -0.5549,10.018274 -2.06672,2.561341 -5.13188,3.224048 -6.58461,1.423635 z m 5.84625,-5.157888 c 1.20639,-2.793644 0.15843,-4.402062 -1.85355,-2.844845 -1.8498,1.431692 -2.90325,4.395622 -1.97235,5.549305 0.96227,1.192559 2.66183,-0.0088 3.8259,-2.70446 z m -23.49098,3.877252 c -3.7618,-5.173269 -0.40971,-16.468939 4.01615,-13.533414 2.72948,1.810374 2.37262,12.244612 -0.48357,14.139027 -1.74994,1.160675 -2.31917,1.063088 -3.53258,-0.605613 z m 3.70895,-5.799956 c 0.46063,-2.986284 -0.63648,-5.583987 -1.83689,-4.349313 -1.17483,1.208376 -1.59838,4.287589 -0.90794,6.600725 0.44207,1.481042 0.75503,1.678197 1.48011,0.932416 0.50573,-0.520166 1.07486,-1.952888 1.26472,-3.183828 z M 88.587657,42.06742 c -1.85413,-1.24875 -3.92099,-5.746218 -3.92099,-8.53202 0,-2.054456 1.68968,-4.271788 3.25525,-4.271788 1.59174,0 4.03667,2.980234 5.14717,6.274117 1.04547,3.100976 0.4087,6.382812 -1.40587,7.245776 -1.3186,0.62709 -0.95584,0.711553 -3.07556,-0.716085 z m 2.74568,-3.744492 c 0,-2.453642 -1.95602,-5.754449 -3.41001,-5.754449 -1.51401,0 -1.57775,0.964968 -0.27069,4.097467 1.43099,3.429485 3.6807,4.442262 3.6807,1.656982 z M 117.90774,34.20634 c -1.7908,-1.296121 -2.06952,-4.665091 -0.70215,-8.48721 1.51585,-4.23718 2.8997,-5.756832 4.91813,-5.400773 3.60345,0.635663 3.6693,8.150212 0.11009,12.561239 -1.88143,2.331701 -2.62323,2.559202 -4.32607,1.326744 z m 2.49246,-3.096393 c 2.0408,-1.688807 3.05638,-7.629853 1.30426,-7.629853 -1.37246,0 -3.0378,3.271317 -3.0378,5.967355 0,2.337926 0.4249,2.745415 1.73354,1.662498 z m -18.63955,-0.36667 c -0.22501,-1.041026 -0.41321,-2.978891 -0.41822,-4.306366 -0.005,-1.327478 -0.46685,-3.040459 -1.02632,-3.806629 -0.916259,-1.254761 -0.887869,-1.589262 0.286,-3.369925 0.86363,-1.310031 1.52397,-1.698184 1.95757,-1.150672 0.9657,1.219388 1.28339,13.805131 0.35853,14.203766 -0.41164,0.177429 -0.93254,-0.52915 -1.15756,-1.570174 z"
     style="fill:#000000;stroke-width:0.74216652" />
</svg>
