<?xml version="1.0" encoding="UTF-8" standalone="no"?>
<svg
   xmlns:dc="http://purl.org/dc/elements/1.1/"
   xmlns:cc="http://creativecommons.org/ns#"
   xmlns:rdf="http://www.w3.org/1999/02/22-rdf-syntax-ns#"
   xmlns:svg="http://www.w3.org/2000/svg"
   xmlns="http://www.w3.org/2000/svg"
   viewBox="0 0 338 338"
   height="100"
   width="100"
   id="svg869"
   version="1.1">
  <metadata
     id="metadata875">
    <rdf:RDF>
      <cc:Work
         rdf:about="">
        <dc:format>image/svg+xml</dc:format>
        <dc:type
           rdf:resource="http://purl.org/dc/dcmitype/StillImage" />
        <dc:title></dc:title>
      </cc:Work>
    </rdf:RDF>
  </metadata>
  <defs
     id="defs873" />
  <path
     id="path879"
     d="m 75.152783,334.08156 c 0,-0.50375 -1.000214,-1.22463 -2.222699,-1.60196 -4.116656,-1.27065 -7.700951,-4.50467 -10.641365,-9.60143 l -2.923254,-5.06703 0.03211,-74.63767 0.03211,-74.63767 2.800779,-4.91037 c 3.949904,-6.92503 9.12253,-10.33361 16.72101,-11.01858 3.343947,-0.30144 6.173512,-0.59718 6.287917,-0.6572 0.114415,-0.06 0.504553,-17.56549 0.866991,-38.90106 0.652041,-38.384211 1.23262,-45.802434 4.195557,-53.607827 1.747526,-4.603596 6.048142,-13.717305 7.838235,-16.610504 3.114116,-5.033131 12.383876,-15.732637 16.445886,-18.98247 2.47844,-1.982886 5.36046,-4.367362 6.40448,-5.298837 2.33004,-2.07884 16.2691,-8.9522229 22.32494,-11.0084769 2.44497,-0.8301863 5.77902,-1.5185836 7.409,-1.5297721 1.62998,-0.011189 4.2369,-0.6805203 5.79315,-1.4874042 3.9108,-2.0276651 21.05395,-2.0276651 24.96475,0 1.55625,0.8068839 4.16317,1.4762157 5.79315,1.4874042 1.62998,0.011189 4.96403,0.6800196 7.409,1.4862911 5.62678,1.85553 20.02778,9.0094849 22.41427,11.1346869 0.9949,0.885974 3.83673,3.233222 6.31516,5.216108 4.06201,3.249833 13.33176,13.949339 16.44588,18.98247 1.7901,2.893199 6.09071,12.006908 7.83825,16.610504 2.70748,7.13248 3.50329,14.409758 3.95023,36.123257 l 0.43857,21.30737 -4.00452,3.98105 c -3.42845,3.40835 -4.6085,3.98011 -8.20296,3.97457 -4.76926,-0.007 -8.92627,-2.32076 -11.7083,-6.51578 -1.66647,-2.51285 -1.86252,-4.86083 -1.86835,-22.37511 -0.006,-18.507507 -0.14553,-19.968081 -2.57249,-26.958392 -4.12441,-11.879435 -11.25659,-21.749083 -20.61529,-28.527829 -5.4418,-3.941639 -14.42219,-8.485618 -18.30911,-9.264214 -1.35832,-0.272086 -4.24783,-0.956841 -6.42113,-1.521676 -2.17331,-0.564836 -6.39644,-1.026974 -9.38473,-1.026974 -2.9883,0 -7.21143,0.462138 -9.38473,1.026974 -2.17331,0.564835 -5.06282,1.25844 -6.42113,1.541343 -4.25782,0.886798 -13.10872,5.505297 -18.96548,9.896391 -9.42128,7.063596 -15.86099,16.072801 -19.99046,27.966796 l -2.55819,7.368298 0.25883,37.701843 0.25885,37.70185 76.22834,0.49104 76.22835,0.49104 4.1572,2.94622 c 2.28644,1.62043 5.41753,5.1559 6.95796,7.8566 l 2.80078,4.91037 0.0321,74.63767 0.0321,74.63767 -2.92326,5.06703 c -2.94042,5.09676 -6.52471,8.33078 -10.64136,9.60143 -1.22248,0.37733 -2.22271,1.09821 -2.22271,1.60196 0,0.56005 -36.46173,0.91589 -93.84728,0.91589 -57.38555,0 -93.847306,-0.35584 -93.847306,-0.91589 z m 106.689557,-65.57654 0.49393,-18.86183 4.19575,-4.00531 c 6.53212,-6.23564 8.55202,-10.91777 8.52615,-19.76363 -0.0256,-8.74806 -1.68831,-12.97901 -7.28863,-18.5465 -5.70055,-5.66713 -10.06711,-7.35119 -18.88304,-7.28265 -8.82162,0.0685 -13.08073,1.74018 -18.72131,7.34769 -5.4201,5.38833 -7.14255,9.8395 -7.19535,18.59438 -0.0529,8.7663 2.00426,13.47723 8.78878,20.12648 l 4.3992,4.31149 v 18.06165 c 0,9.9339 0.30934,18.36918 0.68743,18.74505 0.37809,0.37586 6.04597,0.56 12.5953,0.4092 l 11.90786,-0.27421 z"
     style="fill:#000000;stroke-width:0.98496622" />
</svg>
