<?xml version="1.0" encoding="UTF-8" standalone="no"?>
<svg
   xmlns:dc="http://purl.org/dc/elements/1.1/"
   xmlns:cc="http://creativecommons.org/ns#"
   xmlns:rdf="http://www.w3.org/1999/02/22-rdf-syntax-ns#"
   xmlns:svg="http://www.w3.org/2000/svg"
   xmlns="http://www.w3.org/2000/svg"
   viewBox="0 0 500 500"
   height="100"
   width="100"
   id="svg834"
   version="1.1">
  <metadata
     id="metadata840">
    <rdf:RDF>
      <cc:Work
         rdf:about="">
        <dc:format>image/svg+xml</dc:format>
        <dc:type
           rdf:resource="http://purl.org/dc/dcmitype/StillImage" />
        <dc:title></dc:title>
      </cc:Work>
    </rdf:RDF>
  </metadata>
  <defs
     id="defs838" />
  <path
     d="M 112.81305,9.6177965 C 97.467468,9.5829225 82.120624,17.67772 78.542022,33.935346 c -2.35543,10.700849 4.975967,24.693513 15.650901,29.870741 l 8.624647,4.181423 0.0168,53.50243 c 0.0196,58.1037 2.11592,69.6404 15.34565,84.42322 9.44431,10.55305 23.83928,18.01793 39.18275,20.32062 11.51582,1.72824 28.97615,0.29509 39.74884,-3.26379 6.62361,-2.18818 8.30069,-7.22729 4.05147,-12.18007 -3.16157,-3.68498 -4.88518,-3.82491 -14.34665,-1.1636 -15.1724,4.26765 -33.68476,1.89581 -45.58741,-5.8417 C 123.34069,192.1567 122.74197,189.625 122.74197,125.54366 V 67.821955 l 8.18065,-4.119933 C 141.8358,58.207729 149.3584,44.42385 147.08409,34.091456 143.50192,17.817508 128.15864,9.6527192 112.81305,9.6177965 Z m -0.0166,16.0776835 c 5.00823,0 10.01868,0.942137 12.22103,2.819148 4.8279,4.11475 4.22433,15.424251 -1.06004,19.92802 -5.28439,4.503767 -18.5541,5.013463 -23.38201,0.898714 -1.875443,-1.598379 -3.407678,-6.28652 -3.407678,-10.415728 0,-4.129208 1.532235,-8.812603 3.407678,-10.411006 2.20234,-1.877011 7.21279,-2.819148 12.22102,-2.819148 z m 126.16735,93.15032 -11.15543,18.59884 c -6.13623,10.22808 -11.51012,19.89322 -11.93797,21.47949 -0.42783,1.58627 3.69849,4.30777 9.16854,6.04509 5.47004,1.73734 10.90457,3.23815 12.07672,3.33948 1.17215,0.10119 2.06503,-10.98619 1.98689,-24.63922 z m -71.00625,37.81259 c -3.76063,0.0402 -5.91352,1.0006 -7.5313,2.75294 -1.53712,1.665 -6.08213,11.46845 -10.09538,21.78222 l -7.29266,18.75021 6.11052,3.65165 c 8.04042,4.79983 28.81089,4.66111 37.60655,-0.25068 14.80865,-8.26968 32.77675,4.3935 23.4486,16.52702 -8.0063,10.41416 -42.25503,14.71694 -64.32963,8.07906 l -11.68268,-3.51447 -35.619675,92.80028 c -19.589614,51.03896 -34.833507,94.53563 -33.876982,96.66007 0.956525,2.12445 3.858416,4.47957 6.449058,5.23625 2.590642,0.75665 60.335889,17.04126 128.320729,36.19017 67.98485,19.1489 127.15874,34.92027 131.49531,35.04548 6.02344,0.17388 8.55381,-1.27342 10.72253,-6.13496 11.70343,-26.23516 93.63345,-243.81343 93.63345,-248.65785 0,-7.44227 5.05727,-5.72188 -112.24248,-38.16738 -48.44902,-13.40113 -101.51818,-28.11337 -117.93124,-32.69462 -20.18257,-5.63334 -30.91704,-8.12225 -37.18477,-8.05539 z m 103.95638,57.18246 c 9.03841,0.0772 17.8314,1.24522 24.16455,3.56178 53.70519,19.64464 56.73624,83.8931 5.01716,106.38049 -45.59898,19.82646 -98.78936,-7.71207 -98.78936,-51.14684 0,-24.2384 13.19789,-42.80909 38.2448,-53.80514 7.71424,-3.38669 19.74206,-5.08962 31.36285,-4.99029 z m 3.69073,18.0738 c -17.16236,0.068 -31.52559,16.33731 -24.7029,35.74556 1.90384,5.41575 2.53563,10.63868 1.3986,11.60773 -1.137,0.96907 -11.5714,2.17254 -23.18776,2.6725 -11.61625,0.49993 -21.12315,1.80932 -21.12315,2.90902 0,10.38006 19.34058,30.28926 35.49758,36.54495 18.81914,7.28644 48.10721,5.02085 63.56928,-4.91933 l 6.38802,-4.10576 -17.2049,-11.39013 c -9.46426,-6.26395 -17.21044,-12.52455 -17.21044,-13.91129 0,-1.38676 5.11485,-6.66702 11.36633,-11.73543 10.0224,-8.12569 11.36632,-10.52287 11.36632,-20.27333 0,-9.37472 -1.32917,-12.01095 -8.74118,-17.32644 -5.66299,-4.06118 -11.69502,-5.84073 -17.4158,-5.81805 z M 148.88788,318.6462 c 1.57267,0 44.3923,11.60397 95.15414,25.78392 l 92.29591,25.77916 -1.91475,8.71288 c -1.05459,4.79094 -2.52048,9.53432 -3.25227,10.54345 -1.64121,2.26324 -5.95871,2.0817 -15.20136,-0.63857 -3.90717,-1.14995 -45.14563,-12.60825 -91.64101,-25.46227 -51.50804,-14.23976 -84.53706,-24.56087 -84.53706,-26.41773 0,-5.75078 6.2374,-18.30084 9.0964,-18.30084 z m -13.95817,37.18823 c 0.34771,-0.005 0.69893,0.0491 1.0545,0.16565 2.23328,0.73042 43.96403,12.38026 92.73435,25.89271 48.77038,13.51244 89.84573,25.4815 91.28027,26.59747 1.57401,1.22445 1.24459,5.90412 -0.82696,11.79693 -1.888,5.37077 -4.34065,9.69237 -5.45006,9.60687 -1.10941,-0.0855 -44.21212,-12.0311 -95.78683,-26.55017 -51.57471,-14.51905 -94.01468,-26.44122 -94.31054,-26.48869 -0.29584,-0.0475 1.44967,-5.05716 3.87942,-11.13472 2.7079,-6.77328 4.99197,-9.84607 7.42585,-9.88596 z m 45.06572,54.84105 c 5.32025,0 67.77616,17.16062 67.77616,18.62248 0,0.77045 -1.48086,5.61623 -3.29112,10.76578 -2.09163,5.94998 -4.94003,9.29329 -7.81435,9.17171 -4.044,-0.17098 -62.88502,-16.49531 -65.09554,-18.05964 -2.1338,-1.51002 5.6705,-20.50033 8.42485,-20.50033 z m 19.50812,8.03648 c -0.96008,0.038 -1.91576,0.17994 -2.84158,0.43045 -8.07217,2.18352 -6.99038,14.13746 1.38194,15.26882 3.12574,0.42237 7.60123,1.42667 9.94554,2.23263 2.3443,0.80598 5.11301,1.55941 6.15491,1.67445 1.04192,0.11503 2.85712,1.02549 4.02927,2.0245 4.04059,3.4437 7.24581,1.80447 5.52222,-2.82388 -0.95034,-2.55191 -0.3999,-5.33975 1.22654,-6.19647 4.58144,-2.41323 3.48794,-6.80825 -1.30424,-5.24097 -2.34431,0.7667 -4.26238,0.25177 -4.26238,-1.14942 0,-1.40127 -1.59839,-2.05535 -3.55197,-1.45215 -1.95359,0.60317 -5.69636,-0.4965 -8.3194,-2.44074 -2.18868,-1.62233 -5.1006,-2.44129 -7.98085,-2.32722 z m 1.06559,4.99973 c 1.01898,0.0385 1.73714,1.00626 1.73714,2.56374 0,2.07661 -1.27871,3.77463 -2.84158,3.77463 -1.56287,0 -2.84158,-1.02654 -2.84158,-2.2799 0,-1.25342 1.27871,-2.95143 2.84158,-3.77466 0.39072,-0.20585 0.76479,-0.29663 1.10444,-0.28381 z"
     style="fill:#000000;stroke-width:2.6233201"
     id="path863" />
</svg>
