<?xml version="1.0" encoding="UTF-8" standalone="no"?>
<svg
   xmlns:dc="http://purl.org/dc/elements/1.1/"
   xmlns:cc="http://creativecommons.org/ns#"
   xmlns:rdf="http://www.w3.org/1999/02/22-rdf-syntax-ns#"
   xmlns:svg="http://www.w3.org/2000/svg"
   xmlns="http://www.w3.org/2000/svg"
   xmlns:sodipodi="http://sodipodi.sourceforge.net/DTD/sodipodi-0.dtd"
   xmlns:inkscape="http://www.inkscape.org/namespaces/inkscape"
   inkscape:version="1.0rc1 (09960d6f05, 2020-04-09)"
   sodipodi:docname="printer.svg"
   viewBox="0 0 550 550"
   height="100"
   width="100"
   id="svg62"
   version="1.1">
  <metadata
     id="metadata68">
    <rdf:RDF>
      <cc:Work
         rdf:about="">
        <dc:format>image/svg+xml</dc:format>
        <dc:type
           rdf:resource="http://purl.org/dc/dcmitype/StillImage" />
        <dc:title></dc:title>
      </cc:Work>
    </rdf:RDF>
  </metadata>
  <defs
     id="defs66" />
  <sodipodi:namedview
     inkscape:current-layer="g70"
     inkscape:window-maximized="1"
     inkscape:window-y="24"
     inkscape:window-x="0"
     inkscape:cy="274.49935"
     inkscape:cx="273.06665"
     inkscape:zoom="0.91918951"
     showgrid="false"
     id="namedview64"
     inkscape:window-height="692"
     inkscape:window-width="1366"
     inkscape:pageshadow="2"
     inkscape:pageopacity="0"
     guidetolerance="10"
     gridtolerance="10"
     objecttolerance="10"
     borderopacity="1"
     bordercolor="#666666"
     pagecolor="#ffffff" />
  <g
     id="g70"
     inkscape:label="Image"
     inkscape:groupmode="layer">
    <path
       inkscape:connector-curvature="0"
       id="path74"
       d="m 66.278271,540.52318 c -4.428062,-0.33331 -5.79129,-0.99257 -8.177193,-3.9545 -2.535731,-3.14793 -3.673036,-3.63465 -9.943115,-4.25519 -8.817734,-0.87269 -13.209659,-3.24127 -16.275623,-8.7775 -2.38089,-4.29919 -2.387278,-4.62446 -2.745154,-139.66331 L 28.778468,248.51859 23.317343,245.3041 c -4.207312,-2.4765 -6.214635,-4.66761 -8.743189,-9.54375 l -3.282074,-6.32924 0.120775,-37.4139 c 0.137744,-42.66829 0.387133,-44.11555 8.763177,-50.85468 2.622897,-2.11031 5.580555,-4.48524 6.572575,-5.2776 1.577663,-1.26014 1.901171,-7.75037 2.581788,-51.796412 C 30.06636,36.461444 30.233318,33.501167 32.411399,29.458537 35.982018,22.831301 42.40184,16.77617 49.338072,13.493415 l 6.32581,-2.993854 110.418918,-0.7430611 110.41894,-0.7430588 3.07051,2.2869709 c 2.71852,2.024808 3.07051,3.018984 3.07051,8.672624 v 6.385653 h 70.58512 c 67.01833,0 70.79843,0.103087 74.80631,2.039978 2.32166,1.121989 5.14372,3.005897 6.27126,4.186465 2.92568,3.063316 4.6546,14.580523 3.6749,24.480161 -0.72904,7.366675 -1.2564,8.781004 -4.53875,12.172432 -4.81329,4.973241 -8.32473,5.390644 -46.34418,5.508882 -18.12222,0.05636 -29.4964,0.499655 -29.93169,1.166532 -0.38612,0.591593 -1.00259,4.469899 -1.36989,8.618455 l -0.66783,7.542841 10.68908,0.131317 c 5.87901,0.07221 40.47545,0.435825 76.881,0.807981 64.50505,0.659413 66.27188,0.733262 69.33175,2.897842 7.15465,5.061265 7.78326,6.841405 8.4003,23.788195 0.50494,13.86837 0.81009,15.75142 2.71574,16.75883 3.91135,2.06773 11.05564,8.72998 12.96851,12.0935 1.63487,2.87473 1.93097,8.51343 2.2388,42.6346 l 0.35473,39.32172 -3.16576,5.36547 c -2.05803,3.48802 -5.23368,6.69221 -9.0756,9.15711 l -5.90983,3.79164 -0.34771,135.74071 c -0.34402,134.28593 -0.37257,135.78072 -2.66348,139.47318 -3.06805,4.94502 -7.71914,7.36178 -16.30836,8.47404 -6.08733,0.78828 -7.52734,1.42907 -10.3133,4.58927 l -3.23808,3.67307 h -12.19465 -12.19463 l -3.32552,-3.77058 -3.32552,-3.77058 -169.77186,-0.34233 c -93.37453,-0.18828 -175.47076,-0.0228 -182.43608,0.36759 -11.837138,0.66358 -12.74372,0.87515 -13.881515,3.23972 -2.007718,4.1724 -8.354754,5.22506 -24.277754,4.02645 z m 81.718599,-31.66201 c 1.90693,-11.85194 5.20649,-16.71508 15.18331,-22.37841 3.96948,-2.25328 4.32252,-2.26042 111.4984,-2.25435 l 107.5163,0.006 5.97167,3.24281 c 9.08088,4.93122 13.0469,12.14795 14.19194,25.82426 l 0.31569,3.77058 50.34494,0.28053 50.34494,0.28054 v -25.8549 -25.85489 L 300.9659,465.64233 C 103.75083,465.3685 98.506439,465.30876 96.172941,463.30905 c -2.762763,-2.36757 -3.116244,-6.83606 -0.780079,-9.86154 1.586488,-2.0546 5.170448,-2.09641 204.792958,-2.38894 l 203.17824,-0.29813 V 391.53743 332.31395 H 274.67858 45.99311 v 59.2519 59.2519 h 10.860235 c 10.01363,0 11.077925,0.20613 13.652855,2.6443 3.423563,3.24172 3.582416,7.11635 0.403719,9.84709 -1.884681,1.61908 -4.706398,2.16595 -13.368426,2.59091 l -10.979518,0.53865 -0.30689,24.21504 c -0.168795,13.31826 -0.05483,24.83709 0.253325,25.59739 0.446501,1.10178 10.669041,1.32539 50.363764,1.10169 l 49.803536,-0.28068 z m 236.80967,2.12326 c -0.42482,-5.56091 -1.00581,-7.03327 -3.61343,-9.15711 l -3.1072,-2.53075 -103.18634,0.0359 c -100.80988,0.035 -103.24803,0.0844 -105.86469,2.14877 -2.68221,2.116 -4.6389,7.60953 -4.68982,13.16701 l -0.0272,2.96257 H 274.81532 385.31273 Z M 83.538484,283.83512 V 250.4386 H 64.7658 45.99311 v 32.67832 c 0,17.97308 0.341321,33.00151 0.758491,33.39652 0.417169,0.39502 8.86488,0.71821 18.77269,0.71821 h 18.014193 z m 36.407626,8.0798 v -25.31671 h -9.10191 -9.1019 v 24.59851 c 0,13.52919 0.34132,24.92171 0.75848,25.31672 0.41717,0.39502 4.51302,0.71821 9.10191,0.71821 h 8.34342 z m 291.26111,8.61847 V 283.83512 H 393.0034 374.79959 v 5.43551 c 0,4.33461 -0.5656,5.97106 -2.79265,8.0798 -6.43842,6.09646 -15.41117,0.454 -15.41117,-9.69123 v -3.82408 h -36.40764 -36.40764 v 4.25854 c 0,5.82692 -1.92875,9.34907 -5.99242,10.9429 -6.33846,2.48601 -12.16009,-2.84243 -12.19464,-11.16154 l -0.0167,-4.0399 h -36.40761 -36.40764 v 4.93075 c 0,4.01337 -0.61875,5.51664 -3.3257,8.07981 -3.63264,3.43969 -5.34296,3.78063 -9.64813,1.92325 -3.15982,-1.36323 -5.22998,-5.84555 -5.22998,-11.32399 v -3.60982 H 156.35382 138.15 v 15.98006 c 0,8.78904 0.34133,16.30325 0.7585,16.69826 0.41716,0.39502 61.85504,0.71821 136.52864,0.71821 h 135.77015 z m 36.40765,-8.61847 v -25.31671 h -9.10192 -9.10191 v 24.59851 c 0,13.52919 0.34132,24.92171 0.7585,25.31672 0.41717,0.39502 4.51302,0.71821 9.10192,0.71821 h 8.34341 z m 55.74919,-8.0798 V 250.4386 h -18.77268 -18.77269 v 32.67832 c 0,17.97308 0.34131,33.00151 0.75848,33.39652 0.41717,0.39502 8.86488,0.71821 18.7727,0.71821 h 18.01419 z m 14.52695,-51.53366 c 3.04174,-1.82809 3.67687,-9.17014 3.67687,-42.50325 v -34.26059 l -2.79263,-2.64429 c -2.29063,-2.16897 -3.97794,-2.66065 -9.38635,-2.73521 -12.99011,-0.17909 -19.84354,-1.48389 -22.18685,-4.22404 -1.47777,-1.72803 -1.96001,-3.44239 -1.49443,-5.31271 1.13056,-4.54168 4.65317,-6.53195 11.56102,-6.53195 h 6.16763 l -0.32053,-12.65837 -0.32055,-12.65836 -109.57305,-0.27472 -109.57305,-0.27473 0.35014,4.58396 0.35013,4.58395 30.71894,0.53866 c 21.53226,0.37756 31.46085,0.94071 33.19974,1.8831 3.37776,1.83054 7.06049,6.93023 7.91037,10.95391 l 0.70179,3.3226 h 52.11119 52.11119 l 2.35805,2.83854 c 2.8569,3.43905 2.96653,6.58644 0.34171,9.81008 l -1.96574,2.41418 -52.33598,0.27908 -52.33599,0.27907 -0.56886,27.47133 c -0.37286,18.00556 -1.02518,28.21375 -1.89313,29.62595 -0.72835,1.18504 -2.93789,3.60898 -4.9101,5.38654 l -3.58584,3.23192 h -70.95054 c -70.34916,0 -70.97775,-0.0192 -74.16273,-2.26723 -7.2123,-5.09054 -7.58037,-6.74718 -8.12442,-36.56727 l -0.4955,-27.1577 -79.69936,0.5694 -79.69935,0.56938 -2.671193,2.80076 -2.671205,2.80076 0.312875,35.60003 c 0.280886,31.95913 0.519192,35.89803 2.33015,38.51373 l 2.017274,2.91371 242.027659,-0.0165 c 133.11524,-0.009 242.67703,-0.40675 243.47065,-0.88373 z m -89.51513,-16.14569 c -1.50799,-0.42952 -3.78311,-2.1016 -5.05583,-3.71573 -1.8527,-2.34968 -2.09621,-3.52131 -1.22141,-5.87666 1.47215,-3.9637 5.4328,-5.646 13.33725,-5.66503 5.54236,-0.0133 7.05071,0.41683 9.45981,2.69798 3.56267,3.37343 3.28007,7.59608 -0.69406,10.3704 -3.1742,2.21592 -11.62668,3.38507 -15.82576,2.18904 z m -278.33403,-3.04158 c -3.17898,-3.248 -3.2573,-3.61808 -1.52681,-7.21436 1.6589,-3.44754 5.53539,-5.01737 12.38967,-5.01737 9.60089,0 13.35741,2.99563 12.32498,9.82856 -0.52963,3.50529 -4.85982,5.21931 -13.23261,5.23786 -6.29818,0.014 -7.50281,-0.32905 -9.95523,-2.83469 z m 228.68811,0.20627 c -1.53596,-1.45437 -2.79263,-3.65794 -2.79263,-4.89685 0,-1.2389 1.25667,-3.44248 2.79263,-4.89684 2.36836,-2.24258 3.87132,-2.64431 9.89295,-2.64431 6.15533,0 7.52503,0.38528 10.29137,2.89482 3.80506,3.45186 3.99169,5.54656 0.83298,9.34893 -2.14465,2.58167 -3.076,2.83856 -10.29137,2.83856 -6.90603,0 -8.29492,-0.34241 -10.72593,-2.64431 z m 90.91013,-0.10321 c -2.25791,-2.13797 -2.73463,-3.3927 -2.1489,-5.65586 1.25009,-4.83024 3.43319,-6.03894 11.69959,-6.4776 6.54833,-0.3475 8.13574,-0.0642 10.80484,1.92845 3.74714,2.79743 4.00775,6.21731 0.77075,10.11394 -2.14466,2.58167 -3.07603,2.83855 -10.29137,2.83855 -6.98696,0 -8.27944,-0.32774 -10.83491,-2.74748 z M 149.6099,179.72969 c -3.14616,-3.78725 -2.97908,-5.35762 0.96764,-9.0947 2.92952,-2.77393 4.13105,-3.14905 10.08621,-3.14905 8.59067,0 12.75608,2.644 12.75608,8.09691 0,5.30457 -3.18932,6.98539 -13.25457,6.98539 -7.50056,0 -8.39773,-0.24128 -10.55536,-2.83855 z m 229.25474,1.14725 c -2.84088,-2.68998 -3.3881,-6.63945 -1.33174,-9.61117 2.28628,-3.30395 5.76819,-4.18313 14.00547,-3.53631 4.86885,0.38232 6.8917,1.08405 8.48048,2.94189 2.82124,3.29904 2.62472,6.73328 -0.54678,9.55449 -2.19418,1.95183 -3.98281,2.3424 -10.72724,2.3424 -5.83792,0 -8.59189,-0.47142 -9.88019,-1.6913 z m 45.50956,0 c -2.84088,-2.68998 -3.38812,-6.63945 -1.33175,-9.61117 2.28627,-3.30395 5.76819,-4.18313 14.00546,-3.53631 4.86886,0.38232 6.89171,1.08405 8.48049,2.94189 2.82126,3.29904 2.62472,6.73328 -0.54677,9.55449 -2.1942,1.95183 -3.98282,2.3424 -10.72725,2.3424 -5.83793,0 -8.59189,-0.47142 -9.88018,-1.6913 z m 45.58237,0.069 c -2.79601,-2.64751 -3.2297,-5.60547 -1.33148,-9.08128 2.10612,-3.85644 5.27521,-4.81495 13.72572,-4.15138 10.0147,0.78638 13.55051,5.83513 8.41556,12.01644 -2.16564,2.60693 -3.04101,2.83856 -10.72727,2.83856 -5.93692,0 -8.86713,-0.47149 -10.08253,-1.62234 z M 339.52969,166.94729 v -33.93518 h -64.85111 -64.85111 v 28.93693 c 0,15.91531 0.32558,31.18614 0.72351,33.93518 l 0.72351,4.99824 h 64.1276 64.1276 z M 129.20338,126.27893 c 4.64425,-4.29576 15.35906,-12.28043 23.81071,-17.74373 25.73269,-16.634036 30.17872,-21.298356 26.27913,-27.569305 -1.77499,-2.854342 -1.76885,-3.106483 0.0997,-4.099774 2.38913,-1.269973 5.43253,-6.547823 5.33213,-9.246933 -0.0528,-1.419793 -0.37567,-1.21798 -1.20608,0.753927 -1.49723,3.555336 -5.32739,7.357551 -9.46306,9.394026 -2.87349,1.414966 -4.41417,1.456758 -10.91122,0.295963 -9.15883,-1.636352 -12.54335,-0.82311 -25.02735,6.013647 -8.84749,4.845247 -18.0961,6.905668 -24.33846,5.422156 -3.77115,-0.896223 -3.80782,-2.811015 -0.0539,-2.811015 4.25746,0 10.14869,-2.621634 18.36195,-8.171218 4.01898,-2.715552 10.67807,-6.384591 14.798,-8.153432 5.56442,-2.389017 7.16044,-3.528855 6.20627,-4.432349 -2.97129,-2.813439 -16.79113,0.171736 -24.84954,5.367657 -2.37246,1.529739 -6.03335,3.465176 -8.13529,4.301001 -2.10195,0.835816 -4.08158,2.460644 -4.39922,3.610734 -0.68745,2.489166 -2.39826,2.734448 -3.3139,0.475113 -1.18953,-2.935232 -7.35889,-1.782284 -8.64689,1.615961 -0.86363,2.278646 -4.27966,-5.483653 -4.27966,-9.724743 0,-1.945738 -0.472962,-3.053318 -1.137734,-2.664295 -0.625762,0.366197 -1.13774,0.179907 -1.13774,-0.413979 0,-2.064582 4.832084,-4.326796 7.971934,-3.732183 1.79893,0.340685 4.61467,-0.161172 6.73822,-1.200982 2.00636,-0.982415 4.2532,-1.580889 4.99297,-1.329939 3.67236,1.245757 14.98692,-8.458803 20.02045,-17.171672 2.9226,-5.058913 6.60037,-7.989368 4.9974,-3.981922 -0.648,1.619962 -0.0853,1.477074 3.128,-0.794294 6.39046,-4.517197 7.19667,-4.784539 5.04305,-1.67227 -1.07554,1.554251 -1.76842,2.82591 -1.53978,2.82591 3.67876,0 16.5381,-3.600164 19.15029,-5.361403 3.6539,-2.463625 16.09057,-7.566284 18.44123,-7.566284 0.7607,0 -0.89307,1.381007 -3.67505,3.068905 -2.78198,1.687898 -6.03344,4.11184 -7.22551,5.386536 -2.15741,2.306968 -2.15314,2.317632 0.92921,2.317632 1.70311,0 4.72864,-1.178708 6.72339,-2.619351 1.99472,-1.440643 5.16044,-3.197004 7.03494,-3.903023 5.00017,-1.883291 13.07895,-4.207601 13.07895,-3.762885 0,0.211617 -2.17593,1.599544 -4.83538,3.084284 -2.65947,1.484739 -6.27826,4.136983 -8.04178,5.893878 l -3.20638,3.194352 4.27951,0.760199 c 6.16688,1.095464 17.76157,5.672829 22.16929,8.75203 l 3.78831,2.646468 -3.83401,-0.726076 -3.83403,-0.726074 6.24046,7.163743 c 6.19394,7.110348 11.40818,15.80839 12.93913,21.584198 l 0.79756,3.00895 -2.93998,-2.783816 c -3.38619,-3.20634 -5.74682,-3.641973 -4.86896,-0.898525 1.95391,6.106292 2.90913,12.537989 2.91995,19.660847 0.0141,9.384695 -0.89833,13.874275 -2.37254,11.672125 -0.52937,-0.79074 -0.97033,-2.46912 -0.97991,-3.72974 -0.009,-1.26061 -0.78539,-2.89553 -1.72402,-3.63315 -1.39954,-1.09981 -1.70662,-1.02178 -1.70662,0.43365 0,0.97613 -0.98521,4.42901 -2.18935,7.67307 l -2.18938,5.89828 h 21.37214 c 11.75466,0 23.74749,-0.3083 26.65074,-0.68509 l 5.27862,-0.68509 V 70.920506 25.281381 l -99.26771,0.0063 c -58.40037,0.0036 -102.078045,0.435001 -106.094111,1.047712 -5.521591,0.8424 -7.497268,1.727683 -10.335955,4.631445 l -3.509533,3.589973 -0.756987,27.856287 C 46.333646,77.734052 45.992996,100.1289 45.992996,112.17941 v 21.91006 H 83.376218 120.7593 Z m 209.58884,-44.0895 c 0.82211,-10.966497 2.93437,-16.211341 7.91861,-19.66213 2.90496,-2.011211 5.46771,-2.281771 27.8746,-2.942814 13.57155,-0.400386 29.66736,-0.76816 35.76849,-0.817277 l 11.09295,-0.0893 v -7.905463 -7.905462 l -38.39868,-0.711269 c -21.11927,-0.391196 -52.0942,-0.712044 -68.8332,-0.712995 l -30.4345,-0.0017 v 25.3167 25.316725 h 27.13536 27.13535 z M 117.10177,66.219059 c -0.38675,-0.592522 -1.41071,-1.07731 -2.27549,-1.07731 -0.86476,0 -1.88873,0.484788 -2.27547,1.07731 -0.40038,0.613419 0.57943,1.077301 2.27547,1.077301 1.69604,0 2.67586,-0.463882 2.27549,-1.077301 z m 31.10906,-11.406301 c 6.07935,-1.254923 6.55999,-1.525047 4.6978,-2.640152 -2.81063,-1.68307 -5.37975,-1.166986 -8.72214,1.752094 -2.2303,1.947852 -2.5604,2.595719 -1.09547,2.150021 1.15321,-0.350859 3.45713,-0.918742 5.11981,-1.261963 z"
       style="fill:#000000;stroke-width:1.10711" />
  </g>
</svg>
