<?xml version="1.0" encoding="UTF-8" standalone="no"?>
<!-- Created with Inkscape (http://www.inkscape.org/) -->

<svg
   xmlns:dc="http://purl.org/dc/elements/1.1/"
   xmlns:cc="http://creativecommons.org/ns#"
   xmlns:rdf="http://www.w3.org/1999/02/22-rdf-syntax-ns#"
   xmlns:svg="http://www.w3.org/2000/svg"
   xmlns="http://www.w3.org/2000/svg"
   xmlns:sodipodi="http://sodipodi.sourceforge.net/DTD/sodipodi-0.dtd"
   xmlns:inkscape="http://www.inkscape.org/namespaces/inkscape"
   version="1.1"
   id="svg64"
   width="100"
   height="100"
   viewBox="0 0 512 512"
   sodipodi:docname="QRLJacking.svg"
   inkscape:version="0.92.4 (5da689c313, 2019-01-14)">
  <metadata
     id="metadata70">
    <rdf:RDF>
      <cc:Work
         rdf:about="">
        <dc:format>image/svg+xml</dc:format>
        <dc:type
           rdf:resource="http://purl.org/dc/dcmitype/StillImage" />
        <dc:title></dc:title>
      </cc:Work>
    </rdf:RDF>
  </metadata>
  <defs
     id="defs68" />
  <sodipodi:namedview
     pagecolor="#ffffff"
     bordercolor="#666666"
     borderopacity="1"
     objecttolerance="10"
     gridtolerance="10"
     guidetolerance="10"
     inkscape:pageopacity="0"
     inkscape:pageshadow="2"
     inkscape:window-width="1366"
     inkscape:window-height="692"
     id="namedview66"
     showgrid="false"
     inkscape:zoom="0.86463057"
     inkscape:cx="232.5"
     inkscape:cy="262.60343"
     inkscape:window-x="0"
     inkscape:window-y="24"
     inkscape:window-maximized="1"
     inkscape:current-layer="svg64" />
  <path
     style="fill:#000000;stroke-width:1.28224599"
     d="M 9.0576686,432.68384 V 389.50922 H 49.281262 89.504856 v 43.17462 43.17463 H 49.281262 9.0576686 Z m 68.0706974,0 V 402.79372 H 49.281262 21.43416 v 29.89012 29.89013 h 27.847102 27.847104 z m -45.793014,0 v -19.26252 h 17.327086 17.327086 v 19.26252 19.26253 H 48.662438 31.335352 Z m 68.352798,18.26619 0.33672,-24.90843 5.26001,-0.4085 5.26001,-0.4085 v -17.19347 -17.19346 h -5.56942 -5.56942 v -5.97803 -5.97801 H 88.267207 77.128366 v -5.97803 -5.97803 h -5.56942 -5.569422 v 6.05081 6.05081 l -5.878832,-0.40489 c -6.188729,-0.42625 -5.989603,-0.15387 -6.366096,-8.70771 -0.125622,-2.85422 -0.606015,-2.98902 -10.651579,-2.98902 H 32.573001 v 5.97803 5.97803 H 20.815335 9.0576686 v -7.30649 -7.30647 h 5.5694214 5.569421 v -5.40888 c 0,-4.79529 -0.315886,-5.3814 -2.784711,-5.16674 -9.0041814,0.78287 -8.3541314,2.69927 -8.3541314,-24.62831 V 304.48842 H 20.196511 31.335352 v -5.97803 -5.97802 h 11.138841 c 6.525789,0 11.185438,-0.55016 11.251356,-1.32845 0.06188,-0.73065 0.163877,-3.2713 0.226638,-5.64591 l 0.114111,-4.31747 -16.316088,-0.37067 -16.316075,-0.37067 v 6.01658 6.01659 H 15.24589 9.0576436 V 279.91209 267.29182 H 31.88634 54.715037 l 0.377223,5.99813 c 0.20748,3.29896 0.794929,5.98907 1.30546,5.97802 0.51053,-0.0106 5.426361,-0.02 10.924072,-0.02 h 9.995835 l -0.384983,-5.64591 -0.384996,-5.64592 6.478598,-0.40153 6.478586,-0.40155 v 6.04746 6.04745 h 4.950596 4.950592 v -5.97802 -5.97803 h 5.56942 5.56942 v -5.3138 -5.3138 h -5.56942 -5.56942 v -6.64225 -6.64225 h 5.56942 5.56942 v -5.97803 -5.97802 h -5.56942 -5.56942 v -18.5983 -18.5983 h 6.18824 6.18825 v 5.97803 5.97802 h 5.56942 5.56942 v 18.5983 18.5983 h 6.18824 6.18825 v 6.64225 6.64225 h -6.18825 -6.18824 v 5.97802 5.97803 h -5.56942 -5.56942 v 5.3138 5.3138 h 5.56942 5.56942 v 6.64225 6.64225 h -5.56942 -5.56942 v 11.95605 11.95605 h 5.49826 5.49826 l 0.38057,5.64591 0.38057,5.64592 h 5.56942 5.56943 l 0.35586,12.28816 0.35585,12.28816 h 5.58767 5.58764 l -0.37408,6.97436 -0.3741,6.97436 -5.87883,0.40491 -5.87883,0.40489 v -6.71503 -6.71504 h -5.56942 -5.56943 v 11.29183 11.29182 h 16.54297 16.54297 l -0.14413,-5.64591 -0.14411,-5.64591 5.67827,-0.39611 5.67829,-0.39612 0.19165,-5.24979 0.19163,-5.24981 h -5.48934 -5.48934 l -0.38058,-5.64592 c -0.37874,-5.61846 -0.40615,-5.64789 -5.64059,-6.05441 l -5.26,-0.40849 V 329.65266 317.773 h -5.56942 -5.56942 V 292.53245 267.2919 h 5.56942 5.56942 V 255.33585 243.3798 h 6.18824 6.18825 v 12.62027 12.62028 h -5.56942 -5.56942 v 5.3138 5.3138 h 10.52001 10.52001 v -23.91214 -23.9121 H 156.33788 145.19904 V 213.48963 195.55556 H 134.0602 122.92135 v -5.92817 -5.92818 l -11.44825,-0.38196 -11.44825,-0.38197 -0.3737,-6.21735 -0.37369,-6.21737 11.82472,-0.42489 11.82472,-0.42488 -0.003,6.31013 -0.003,6.31014 h 5.56942 5.56942 v -5.97803 -5.97802 h 6.18825 6.18824 v 11.95605 11.95605 h 10.52002 10.52002 v -5.84982 -5.8498 l 6.189,-0.46033 6.18902,-0.46032 -7.7e-4,18.21632 -7.6e-4,18.21635 11.44825,0.38195 11.44825,0.38197 0.3434,18.93042 0.34338,18.93041 h -6.84104 -6.84105 v -12.62028 -12.62027 h -4.9506 -4.95059 v 17.93407 17.93408 h 17.32708 17.32709 v 12.62027 12.62028 h -5.56942 -5.56942 v 5.97802 5.97803 h 10.47356 10.47358 l 0.35585,-12.28816 c 0.24989,-8.62851 0.81661,-12.33762 1.90293,-12.45423 0.85088,-0.0913 3.21788,-0.24077 5.26,-0.33211 3.55252,-0.15888 3.71295,-0.42436 3.71295,-6.14407 v -5.97803 h 17.94591 17.94591 v 5.97803 5.97802 h 4.9506 4.95059 v -5.97802 -5.97803 h 5.98537 5.98533 l 0.19333,-5.29566 0.19332,-5.29566 -40.31978,-0.35026 -40.32037,-0.35029 -0.20365,-41.84618 -0.20366,-41.84616 -4.64118,-0.41231 -4.64118,-0.4123 v 12.03622 12.03625 h -6.80707 -6.80707 V 184.1688 c 0,-8.35025 -0.49507,-11.9181 -1.85648,-13.37939 -1.58119,-1.69719 -1.85648,-9.05849 -1.85648,-49.64356 0,-26.208011 0.46045,-47.956358 1.02321,-48.329679 0.56276,-0.373322 9.89154,-1.041665 20.73062,-1.485208 58.64837,-2.399911 105.64952,-13.50849 129.98629,-30.721881 3.47398,-2.457155 6.96117,-4.467551 7.74929,-4.467551 0.78814,0 4.62909,2.317521 8.53545,5.150055 23.26194,16.867371 76.82365,29.125019 128.73857,29.461927 l 20.14885,0.130719 -0.40466,121.783758 c -0.40148,120.82625 -0.42601,121.86211 -3.12037,131.74714 -8.79616,32.27122 -23.13875,48.67975 -61.52567,70.38793 -31.08069,17.57645 -36.64914,20.84607 -48.26831,28.34174 -14.65776,9.45591 -37.90547,26.46767 -40.16713,29.39274 -2.19263,2.83579 -5.84202,2.58815 -9.7619,-0.66244 -11.06531,-9.17597 -14.33117,-11.68971 -24.94873,-19.2033 -6.46672,-4.57621 -13.8462,-9.57383 -16.39886,-11.10586 l -4.64118,-2.78547 v 10.60491 10.6049 h -5.56942 -5.56942 v 5.97803 5.97803 h -5.56942 -5.56942 v 5.31379 5.3138 h 11.13884 11.13884 v 6.64225 6.64225 H 259.0617 224.40752 v -6.64225 -6.64225 h 5.56942 5.56942 v -5.26394 -5.26396 l -11.44825,-0.38196 -11.44825,-0.38197 0.15345,-5.57996 0.15347,-5.57996 -5.72289,-0.39806 -5.72287,-0.39807 -0.37726,-5.57308 c -0.37371,-5.52073 -0.42603,-5.5769 -5.56942,-5.97803 l -5.19216,-0.40493 -0.37723,-6.31015 -0.37722,-6.31013 h -4.88279 -4.88278 v 6.71504 6.71504 l -5.87883,-0.40491 -5.87884,-0.40489 -0.35586,-12.28816 -0.35585,-12.28817 h -5.52298 c -5.16536,0 -5.53221,-0.23656 -5.66574,-3.65324 -0.0785,-2.00927 -0.21775,-4.54994 -0.30941,-5.64591 -0.13728,-1.64143 -3.05718,-2.05801 -16.56549,-2.36335 l -16.39886,-0.37066 v 5.35235 5.35236 h 11.75768 11.75766 v 17.85769 17.85769 l 5.26001,0.4085 c 5.24672,0.40746 5.26156,0.4236 5.87883,6.38652 0.60245,5.81988 0.73342,5.97803 4.95059,5.97803 4.21718,0 4.34815,-0.15815 4.9506,-5.97803 l 0.61882,-5.97802 9.26779,-0.3967 c 14.11937,-0.60437 15.07465,-0.11996 14.62314,7.4142 l -0.3756,6.26699 -5.87883,0.40491 -5.87883,0.40489 v 11.88327 11.88326 h -17.32701 -17.32708 v -5.97802 -5.97802 h -5.56942 -5.56942 v -11.95605 -11.95606 h -5.56942 -5.56943 v 5.97803 5.97803 h -5.56942 -5.56942 v 5.31379 5.3138 l 5.87883,-8.2e-4 5.87884,-8.2e-4 -0.42886,6.64307 -0.42887,6.64307 H 111.01693 99.35141 Z m 56.03093,6.31014 c 0,-4.41391 -0.23525,-4.67047 -4.64119,-5.06188 l -4.64118,-0.4123 v 5.47418 5.47419 l 4.64118,-0.4123 c 4.40594,-0.39142 4.64119,-0.64798 4.64119,-5.06189 z m 102.10604,0 c 0,-5.18728 -0.10309,-5.3138 -4.33177,-5.3138 -4.22864,0 -4.33177,0.12647 -4.33177,5.3138 0,5.18728 0.10309,5.3138 4.33177,5.3138 4.22864,0 4.33177,-0.12647 4.33177,-5.3138 z M 122.92138,432.68384 c 0,-4.62497 -0.0295,-4.64957 -5.56942,-4.64957 -5.53996,0 -5.56942,0.0246 -5.56942,4.64957 0,4.62498 0.0295,4.64958 5.56942,4.64958 5.53995,0 5.56942,-0.0246 5.56942,-4.64958 z m 135.14199,-0.99633 0.38057,-5.64591 5.87884,-0.40491 5.87883,-0.40489 v -11.21904 -11.21904 h -10.52002 -10.52001 v 17.26985 17.26985 h 4.26061 c 4.12767,0 4.27248,-0.17614 4.64118,-5.64591 z M 134.06022,420.06357 v -5.3138 h -5.56942 -5.56942 v 5.3138 5.3138 h 5.56942 5.56942 z m 101.48722,-23.9121 v -17.26984 h -16.08943 -16.08945 v 17.26984 17.26985 h 16.08945 16.08943 z m -22.43239,3.98535 c -0.6204,-10.65457 -1.04358,-9.92756 6.03354,-10.36491 l 6.49766,-0.40154 v 6.71168 6.71167 h -6.18824 c -5.31159,0 -6.21017,-0.37639 -6.34296,-2.6569 z m -23.36063,-9.96338 v -11.29181 h -4.95059 -4.9506 v 5.97801 5.97803 h -5.56942 -5.56942 v 5.3138 5.3138 h 10.52002 10.52001 z m 91.58604,-5.97802 v -5.31379 h -16.08945 -16.08943 v 5.31379 5.3138 h 16.08943 16.08945 z M 110.54489,371.57514 c 0,-4.53887 -0.11783,-4.64957 -4.9506,-4.64957 -4.83272,0 -4.95059,0.11066 -4.95059,4.64957 0,4.53888 0.11782,4.64958 4.95059,4.64958 4.83272,0 4.9506,-0.11066 4.9506,-4.64958 z m 68.07069,0 c 0,-4.53887 -0.11782,-4.64957 -4.95059,-4.64957 -4.83272,0 -4.9506,0.11066 -4.9506,4.64957 0,4.53888 0.11783,4.64958 4.9506,4.64958 4.83272,0 4.95059,-0.11066 4.95059,-4.64958 z M 99.40605,352.97685 v -11.29183 h -4.950598 -4.950596 v 5.97802 5.97803 h -5.56942 -5.569421 v 5.3138 5.3138 H 88.886032 99.40605 Z m 125.00255,5.97802 v -5.3138 h -11.85231 -11.85231 l 0.38272,-5.64592 0.38272,-5.6459 -10.8081,-0.38383 -10.80809,-0.38384 v 5.29274 5.29273 l 5.87884,0.4049 5.87883,0.4049 0.38057,5.64591 0.38058,5.64591 h 16.01828 16.01827 z m 22.27768,-0.0803 v -5.39398 l -4.64118,0.4123 c -4.38916,0.38992 -4.66204,0.68283 -5.02532,5.39399 l -0.38411,4.98169 h 5.02529 5.02532 z m 34.65418,0.0803 v -5.3138 h -10.52003 -10.52001 v 5.3138 5.3138 h 10.52001 10.52003 z M 53.613034,341.02079 v -11.29182 h -4.950596 -4.950596 v 5.97802 5.97803 H 32.573001 21.43416 v 5.3138 5.3138 h 16.089437 16.089437 z m 69.073646,6.31014 c -0.37287,-4.83559 -0.53837,-4.99367 -5.64413,-5.39019 l -5.26001,-0.40849 v 5.39018 5.39019 h 5.64414 5.64412 z m 112.86076,-0.41231 v -5.39399 l -4.64118,0.4123 c -4.38915,0.38993 -4.66204,0.68284 -5.02532,5.394 l -0.38412,4.98169 h 5.02531 5.02531 z m 22.51593,-0.25191 0.38057,-5.64592 11.44825,-0.38197 11.44827,-0.38195 v -5.2141 -5.2141 l -11.44827,-0.38196 -11.44825,-0.38197 -0.38057,-5.64591 c -0.3687,-5.46977 -0.51351,-5.64591 -4.64118,-5.64591 h -4.26061 v 17.26985 17.26985 h 4.26061 c 4.12767,0 4.27248,-0.17614 4.64118,-5.64591 z m 34.41593,0.33211 v -5.3138 h -4.9506 -4.9506 v 5.3138 5.3138 h 4.9506 4.9506 z M 88.267207,335.04277 v -5.3138 H 77.128366 65.989524 v 5.3138 5.3138 h 11.138842 11.138841 z m 22.042983,-12.28816 0.38412,-4.98169 h -5.64412 -5.64414 v -5.97802 -5.97803 H 82.697787 65.989524 v 5.3138 5.3138 h 11.757667 11.757665 v 5.09238 c 0,2.80083 0.403647,5.52567 0.896998,6.05521 0.493352,0.52955 5.088124,0.77863 10.210606,0.55352 l 9.3136,-0.40928 z m 68.30539,-6.44163 v -11.82456 h 5.56942 5.56942 v -12.00977 -12.00978 l -10.2106,0.38584 -10.2106,0.38583 -0.34133,21.86843 c -0.18774,12.02764 -0.10904,22.51832 0.17499,23.31262 0.28396,0.79429 2.52609,1.50534 4.9825,1.58008 l 4.4662,0.13589 z m 34.03536,6.77374 v -4.64957 l -10.21062,-0.38584 -10.2106,-0.38584 v 4.48189 c 0,2.46504 0.39267,4.90336 0.87259,5.41851 0.47993,0.51513 5.0747,0.76422 10.2106,0.55351 l 9.33803,-0.38308 z M 53.613034,311.13067 v -5.3138 H 43.093017 32.573001 v 5.3138 5.3138 h 10.520016 10.520017 z m 193.073246,-0.66423 v -5.97802 h 12.37649 12.37649 v 5.97802 5.97803 h 11.07976 11.07974 l -0.15011,-17.93408 -0.15013,-17.93407 h -5.36021 -5.36021 v 5.97802 5.97803 h -6.18825 -6.18824 v -5.97803 -5.97802 h -16.70826 -16.70826 v 12.62027 12.62028 h -5.56942 -5.56942 v 5.3138 5.3138 h 10.52001 10.52002 z M 88.267207,286.55434 v -5.97802 h -4.950596 -4.950596 v 5.97802 5.97803 h 4.950596 4.950596 z m 22.277683,0 v -5.97802 h -4.9506 -4.95059 v 5.97802 5.97803 h 4.95059 4.9506 z m 12.37649,-36.53237 v -5.3138 h -5.56942 -5.56942 v 5.3138 5.3138 h 5.56942 5.56942 z m 158.41908,-36.53238 v -29.89013 h -27.84711 -27.8471 v 29.89013 29.89013 h 27.8471 27.84711 z m -45.79302,-0.66422 v -18.5983 h 17.94591 17.94591 v 18.5983 18.5983 H 253.49335 235.54744 Z M 9.0576686,213.48959 V 170.31497 H 49.281262 89.504856 v 43.17462 43.17462 H 49.281262 9.0576686 Z M 76.84263,213.15748 77.175718,183.59946 H 49.304939 21.43416 v 29.91555 29.91554 l 27.537691,-0.35753 27.537691,-0.35752 z m -45.507278,-0.26209 v -18.52827 l 17.329091,-0.40214 17.329092,-0.40213 -0.0025,18.93041 -0.0025,18.93041 H 48.661497 31.334411 Z"
     id="path74"
     inkscape:connector-curvature="0" />
</svg>
