<?xml version="1.0" encoding="UTF-8" standalone="no"?>
<svg
   xmlns:dc="http://purl.org/dc/elements/1.1/"
   xmlns:cc="http://creativecommons.org/ns#"
   xmlns:rdf="http://www.w3.org/1999/02/22-rdf-syntax-ns#"
   xmlns:svg="http://www.w3.org/2000/svg"
   xmlns="http://www.w3.org/2000/svg"
   viewBox="0 0 468 468"
   height="100"
   width="100"
   id="svg2"
   version="1.1">
  <metadata
     id="metadata8">
    <rdf:RDF>
      <cc:Work
         rdf:about="">
        <dc:format>image/svg+xml</dc:format>
        <dc:type
           rdf:resource="http://purl.org/dc/dcmitype/StillImage" />
        <dc:title></dc:title>
      </cc:Work>
    </rdf:RDF>
  </metadata>
  <defs
     id="defs6" />
  <path
     id="path819"
     d="m 42.958293,458.83168 c -4.565417,-5.07942 -7.886306,-26.79585 -8.896689,-58.17854 -1.008538,-31.32567 -1.657232,-34.28434 -7.516882,-34.28434 -1.697544,0 -5.979427,3.41725 -10.770559,8.59567 -10.2607775,11.09024 -10.9901566,10.17239 -10.1093451,-12.72161 1.3076127,-33.98752 3.8660946,-54.85038 8.2433011,-67.21923 1.171332,-3.30989 2.129704,-8.0782 2.129704,-10.59624 0,-7.09585 14.037941,-48.8706 24.054616,-71.58281 C 50.77718,188.61753 50.797597,187.99435 41.663465,164.88602 26.30234,126.02414 20.950575,90.931077 26.247758,63.800818 30.784573,40.564842 35.272849,30.316614 46.72681,17.040314 57.757288,4.2548582 64.726487,3.463991 79.494883,13.321776 c 25.032237,16.70882 57.652577,35.225728 63.834977,36.235895 3.72282,0.608286 6.98103,-0.378874 15.54196,-4.708855 22.47198,-11.365984 51.57064,-17.320324 80.49342,-16.471049 29.18567,0.856994 49.53808,5.599096 70.81337,16.499482 8.39317,4.30023 11.71202,5.325589 15.32628,4.735045 5.17727,-0.845932 36.84653,-18.426183 52.50572,-29.146976 5.63706,-3.859312 13.71748,-8.725473 17.9565,-10.8136897 6.88813,-3.3932231 8.29053,-3.638626 13.19487,-2.3089388 16.42317,4.4527015 32.35736,39.7003775 34.08491,75.3984325 0.66288,13.697768 0.26943,17.167991 -4.71364,41.573288 -2.59657,12.71698 -11.81151,40.92015 -16.25447,49.74818 -4.18153,8.30857 -4.18322,16.09534 -0.005,25.8938 18.24153,42.78557 28.42032,73.71636 33.03402,100.38195 1.8992,10.97669 4.04272,22.43315 4.76339,25.45883 1.60917,6.75591 3.42194,57.07533 2.05617,57.07533 -0.541,0 -4.49301,-3.71334 -8.78222,-8.25185 -7.93849,-8.39992 -13.10523,-10.471 -16.29721,-6.53272 -0.76633,0.94552 -1.70377,11.31191 -2.08317,23.03642 -1.06523,32.91917 -5.59204,62.1026 -10.5698,68.14168 -1.24774,1.51355 -5.09065,1.99908 -15.82281,1.99908 h -14.17523 v -4.00495 c 0,-2.20271 0.85977,-8.54633 1.91058,-14.09691 1.05082,-5.55058 2.35449,-14.29528 2.89704,-19.43261 0.97403,-9.22256 1.02325,-9.31357 3.89458,-7.20094 4.07787,3.00038 6.31434,3.94317 7.21136,3.03999 1.12551,-1.13327 2.24017,-33.54275 1.28537,-37.37315 -1.13679,-4.56045 -12.10982,-6.79967 -32.77947,-6.68913 -20.35131,0.10879 -20.13315,-0.0973 -19.33763,18.26905 0.99622,22.99989 9.53728,41.33966 24.36598,52.31979 l 5.1853,3.83954 -3.47829,4.16214 c -3.27215,3.91545 -4.2262,4.21607 -16.0979,5.07212 -6.94081,0.50049 -22.29385,0.40303 -34.11793,-0.21661 -16.77289,-0.87898 -21.64227,-0.74872 -22.15327,0.59252 -0.90919,2.38633 -154.43257,2.52648 -155.896,0.14232 -0.70405,-1.14702 -7.52092,-1.32254 -25.00858,-0.64395 -30.02209,1.16497 -43.146827,0.1114 -46.720169,-3.75056 -3.656658,-3.95195 -3.223444,-6.81196 1.453134,-9.59348 4.417775,-2.62758 11.619137,-11.14473 16.072335,-19.00895 6.40248,-11.30664 10.58501,-38.30017 7.28753,-47.03285 -1.19611,-3.16764 -2.12619,-3.45498 -14.000648,-4.32528 -12.89783,-0.9453 -28.016265,0.65511 -34.563702,3.65884 -3.289634,1.50917 -3.418856,2.03881 -3.265528,13.38454 0.08779,6.49725 0.548811,15.77614 1.024437,20.61975 l 0.86479,8.80655 4.294934,-3.64914 c 2.36221,-2.00703 4.618268,-3.64915 5.013465,-3.64915 0.395197,0 1.139,4.1775 1.652889,9.28333 0.513888,5.10584 1.792028,13.92501 2.840315,19.59815 1.048287,5.67315 1.906078,12.01677 1.906212,14.09693 l 2.26e-4,3.7821 H 60.641818 c -13.088339,0 -15.836218,-0.37814 -17.683525,-2.43343 z m 207.884057,-2.43345 c 10.82883,-2.5701 21.27487,-7.72464 27.11003,-13.37729 4.07968,-3.95204 4.43925,-4.99689 4.43925,-12.89964 0,-14.61695 4.0235,-40.42837 8.32737,-53.42142 10.45775,-31.5711 28.70479,-49.38665 58.54894,-57.16448 9.99992,-2.60611 14.0479,-2.92178 30.05017,-2.34325 19.19678,0.69401 30.9957,3.62304 40.64707,10.09048 3.45406,2.31458 3.5509,2.59058 1.067,3.04125 -6.9775,1.26595 -12.97622,3.24779 -12.97622,4.28708 0,0.62896 2.91965,1.94889 6.48812,2.93316 10.81887,2.98418 25.61198,10.33252 31.40012,15.5977 3.00808,2.73632 5.85574,4.97511 6.32813,4.97511 2.03226,0 0.58923,-21.92971 -2.5958,-39.44857 -3.65934,-20.12777 -5.69921,-27.94157 -7.29434,-27.94157 -0.53666,0 -2.78713,3.86806 -5.00101,8.59569 l -4.02524,8.59567 -0.92184,-16.5037 c -1.57347,-28.17003 -6.37286,-53.24491 -13.99149,-73.09986 -4.4152,-11.50647 -10.50763,-22.80322 -12.67506,-23.50235 -0.92883,-0.29961 -2.39954,2.26919 -3.48963,6.09524 l -1.88421,6.61313 -5.10442,-10.90399 c -9.92871,-21.20955 -26.72154,-42.61621 -42.87172,-54.65071 -11.93182,-8.89116 -29.69591,-16.8982 -43.79733,-19.74134 -3.84512,-0.77526 -4.25162,-1.21501 -2.77693,-3.00411 0.95015,-1.15274 4.97484,-3.94115 8.94373,-6.19646 3.9689,-2.2553 7.21617,-4.61238 7.21617,-5.23792 0,-0.62555 -2.23545,-1.8802 -4.96767,-2.78812 -7.17537,-2.38436 -23.47716,-1.02505 -30.6682,2.55726 -3.23154,1.60984 -6.14718,2.65345 -6.47919,2.31915 -0.33202,-0.3343 1.30203,-3.55761 3.63122,-7.16289 4.91002,-7.600056 4.01076,-9.666908 -3.16804,-7.281411 -6.12769,2.036226 -13.72629,8.551571 -16.68214,14.303921 -5.22814,10.17447 -7.76697,28.33351 -3.96134,28.33351 1.04652,0 2.21028,-0.80692 2.58615,-1.79315 0.78054,-2.04806 16.08543,-10.58463 18.97674,-10.58463 1.14095,0 1.88983,1.38113 1.85768,3.42602 -0.0532,3.38834 0.0963,3.4324 13.60533,4.00779 12.42862,0.52939 16.13921,1.3383 28.54495,6.22276 3.73158,1.46922 3.81333,1.66538 1.42625,3.42287 -2.3823,1.75396 -2.08096,2.42305 5.09073,11.30294 4.19262,5.19123 10.46174,13.92556 13.93137,19.4096 3.46963,5.48405 6.92712,9.97099 7.68328,9.97099 0.75619,0 1.37489,-2.78499 1.37489,-6.18888 0,-7.11274 1.43215,-7.77554 5.20043,-2.4068 8.38888,11.95188 18.10424,36.42071 21.22864,53.46579 2.55373,13.9319 5.84321,12.05339 9.73087,-5.55704 l 0.88506,-4.00916 2.42625,4.01707 c 6.49541,10.75428 14.59833,40.5405 16.48203,60.58751 0.67806,7.21624 0.94158,13.88464 0.58561,14.81867 -0.47173,1.23777 -2.39144,0.83236 -7.07987,-1.49516 -17.50392,-8.68962 -45.06669,-7.05 -56.78564,3.37796 -2.57249,2.28911 -2.62363,2.21222 -1.84724,-2.77795 0.43916,-2.82271 0.24733,-5.47516 -0.42628,-5.89435 -2.62663,-1.63451 -22.09622,9.94291 -34.79216,20.68884 l -6.82958,5.78062 0.47662,-16.81048 c 1.03598,-36.53907 -8.6614,-69.90874 -25.47297,-87.65508 -4.1352,-4.36514 -8.33825,-7.93661 -9.34011,-7.93661 -1.00188,0 -3.47237,2.51168 -5.49001,5.58148 -3.69117,5.61609 -13.10171,12.29753 -17.32057,12.29753 -1.73594,0 -2.27035,1.28748 -2.27035,5.46954 0,6.5775 1.39796,7.68181 18.63053,14.71726 15.18762,6.20054 18.93738,8.85874 22.61373,16.03089 4.86678,9.4945 4.8449,23.62373 -0.0792,51.11443 -5.21095,29.09227 -8.69364,51.77761 -13.03793,84.92545 -1.85878,14.18296 -3.8025,26.47615 -4.31936,27.31821 -1.67865,2.73476 -11.95909,6.43423 -22.58946,8.12891 -8.12578,1.29538 -12.59374,1.29225 -20.48875,-0.0145 -10.24542,-1.69565 -20.64968,-5.43512 -22.21436,-7.98424 -0.47288,-0.7704 -1.81782,-8.42192 -2.98879,-17.00338 -5.87602,-43.06302 -9.34994,-66.16739 -13.71936,-91.24464 -5.79261,-33.24528 -6.06975,-43.36729 -1.46465,-53.49527 3.83602,-8.43658 7.57665,-11.44453 20.72892,-16.66876 15.11084,-6.00216 19.82033,-8.77564 21.22696,-12.50078 1.52436,-4.03677 -0.39331,-8.79318 -3.54519,-8.79318 -3.92831,0 -12.83975,-6.91257 -15.92574,-12.35356 -1.71704,-3.02735 -4.0888,-5.50902 -5.27059,-5.51486 -3.9983,-0.0198 -16.29131,14.12138 -21.67607,24.93478 -2.92892,5.88171 -6.91652,17.38146 -9.06103,26.13086 -3.3924,13.84079 -3.83939,18.24072 -3.912,38.50779 l -0.0819,22.88154 -4.91117,-4.46317 c -8.46697,-7.6946 -32.29579,-22.73324 -36.02092,-22.73324 -0.40061,0 -0.72838,2.57147 -0.72838,5.7144 0,5.33145 -0.16018,5.57259 -2.39035,3.59851 -1.3147,-1.16373 -5.15634,-3.55916 -8.53698,-5.32316 -5.36634,-2.80013 -8.05403,-3.20215 -21.171716,-3.16677 -15.020582,0.0404 -15.402123,0.12336 -31.274976,6.78989 -2.479713,1.04149 -2.558594,0.41557 -1.840986,-14.60867 0.592596,-12.40708 1.776252,-19.23882 5.647786,-32.59751 4.416997,-15.2408 11.455949,-32.68746 12.6876,-31.44735 0.26413,0.26595 1.424532,4.13585 2.578663,8.59974 2.096931,8.11048 3.922827,11.40942 5.45886,9.86285 0.448252,-0.45135 1.992797,-6.2473 3.432306,-12.87993 3.073436,-14.16096 6.200384,-22.96229 13.018643,-36.64313 9.11412,-18.28758 12.8297,-21.35539 12.8297,-10.59304 0,2.98105 0.58489,5.42007 1.29974,5.42007 0.71486,0 4.13971,-4.42032 7.61079,-9.82294 3.47107,-5.40264 9.77324,-14.13752 14.00481,-19.41086 7.23607,-9.01755 7.54321,-9.69873 5.16324,-11.45098 -2.38474,-1.75575 -2.30246,-1.95285 1.42793,-3.42162 12.40575,-4.88446 16.11634,-5.69337 28.54497,-6.22276 13.50904,-0.57539 13.65858,-0.61945 13.60532,-4.00779 -0.0307,-1.95164 0.72363,-3.42602 1.75279,-3.42602 2.91901,0 14.46827,6.32988 17.29413,9.47851 1.43112,1.5946 3.51365,2.89927 4.62784,2.89927 1.68126,0 1.86706,-1.56007 1.09242,-9.17302 -1.71909,-16.8947 -9.96312,-29.467854 -21.92872,-33.444007 -6.82868,-2.269168 -8.306,-0.397472 -4.36845,5.534577 3.49489,5.26517 5.56687,10.09958 3.97512,9.27485 -7.76939,-4.02556 -13.56021,-5.70231 -21.51413,-6.22951 -10.02195,-0.66428 -18.59375,0.80684 -19.43063,3.33473 -0.27149,0.82006 2.78033,3.35141 6.78178,5.62523 4.00147,2.27381 8.05144,5.07571 8.99992,6.22642 1.48806,1.80534 0.75811,2.30091 -5.3235,3.61414 -15.16087,3.27379 -34.1522,12.72463 -46.55147,23.16586 -13.968845,11.76298 -28.551792,31.38527 -37.631015,50.63498 l -5.106524,10.82682 -1.21147,-4.78256 c -1.996906,-7.88328 -2.146003,-8.22083 -3.631017,-8.22083 -1.987122,0 -6.091859,7.09585 -11.138055,19.25432 -8.795985,21.19337 -14.552147,49.08075 -16.038882,77.70496 l -0.857189,16.5037 -4.035485,-8.59567 c -2.219516,-4.72763 -4.474569,-8.59569 -5.011241,-8.59569 -4.277561,0 -13.584362,62.70158 -9.862979,66.44855 0.487335,0.49068 3.334996,-1.33552 6.328135,-4.05824 5.76447,-5.24366 20.571508,-12.5936 31.372964,-15.57298 3.568454,-0.98427 6.488101,-2.3042 6.488101,-2.93317 0,-1.02969 -5.635001,-2.90444 -12.976213,-4.31712 -2.34545,-0.45136 -2.055668,-0.9518 2.048875,-3.53847 11.413352,-7.19261 21.032402,-9.21233 43.709339,-9.17772 23.796646,0.0363 30.728696,1.51238 46.911966,9.98895 19.74362,10.34145 32.95817,29.60077 40.42843,58.9217 3.10601,12.19115 5.51399,31.37803 5.53075,44.06903 0.011,8.26722 0.16255,8.62098 5.81635,13.56999 13.68684,11.98066 36.96391,17.00107 56.89386,12.27092 z m -36.06713,-38.28271 c 2.45634,-1.80845 2.31717,-2.3145 -3.21473,-11.69012 -5.65725,-9.58803 -7.37782,-11.18952 -9.06623,-8.43879 -1.36225,2.2193 1.84425,16.77113 4.29674,19.49978 2.70684,3.01157 4.55093,3.15688 7.98422,0.62913 z m 29.79184,0.61525 c 3.75785,-1.43855 9.78862,-10.30919 8.46964,-12.45799 -0.47447,-0.77298 -2.35593,-1.02809 -4.18102,-0.56686 -2.33404,0.58983 -3.56807,0.18339 -4.16019,-1.37026 -1.00499,-2.63701 -3.69852,-2.82874 -7.36357,-0.52415 -2.11415,1.3294 -3.03209,1.3294 -4.35239,0 -2.35561,-2.37179 -6.1423,-2.09382 -7.14005,0.52415 -0.59211,1.55365 -1.82613,1.96009 -4.16017,1.37026 -1.82509,-0.46123 -3.70657,-0.20612 -4.18104,0.56686 -1.23019,2.00417 4.60366,10.98174 8.04601,12.38182 3.92618,1.59683 14.93526,1.64093 19.02278,0.0762 z m 19.17691,-1.24438 c 2.4525,-2.72865 5.65899,-17.28048 4.29676,-19.49978 -1.6145,-2.63027 -3.15111,-1.2804 -8.71712,7.65791 -6.3571,10.20867 -6.5386,10.9331 -3.22589,12.87584 3.4567,2.02719 5.09383,1.80579 7.64625,-1.03397 z m -20.49769,-41.48336 c 5.38786,-4.76311 10.01196,-15.95938 11.77341,-28.50672 1.95699,-13.94033 -1.39024,-22.07771 -9.60034,-23.33929 -2.8381,-0.4361 -3.21319,0.51145 -5.95964,15.05506 -2.62083,13.87842 -4.00818,16.51124 -5.86875,11.13732 -0.75827,-2.19017 -2.17883,-8.49025 -3.15678,-14.00019 -2.0516,-11.55891 -4.55299,-14.14564 -10.1246,-10.4699 -4.27957,2.82338 -5.3157,6.09655 -5.24811,16.57891 0.0758,11.75651 4.87067,25.49407 11.25791,32.25464 6.28626,6.65368 10.49691,6.9746 16.9269,1.29017 z M 198.2517,297.25951 c 0.49283,-3.21478 1.85769,-8.8078 3.03305,-12.42893 2.65566,-8.18182 1.83261,-10.6075 -3.5992,-10.6075 -5.06144,0 -10.92156,5.33778 -10.87813,9.90849 0.0311,3.27459 4.42606,14.03043 7.01775,17.17471 2.47246,2.99962 3.48871,2.07055 4.42653,-4.04677 z m 81.70572,-2.46226 c 4.77656,-9.66098 4.82647,-14.06041 0.20112,-17.72374 -3.75243,-2.97195 -10.66336,-3.83038 -12.09252,-1.50201 -1.21773,1.98384 5.20957,27.56489 6.81306,27.11645 0.75126,-0.21009 3.03652,-3.7609 5.07834,-7.8907 z m -65.17868,-8.19639 c 1.35975,-1.51283 3.20374,-2.7506 4.09775,-2.7506 0.894,0 2.73799,1.23777 4.09775,2.7506 3.21453,3.57647 4.56895,3.46952 8.89354,-0.70219 l 3.57934,-3.4528 3.2216,3.4528 c 3.94006,4.22284 5.10907,4.28052 9.15665,0.45187 l 3.17252,-3.00092 4.03126,3.00092 c 6.2498,4.65247 7.0501,3.97379 6.59742,-5.59473 l -0.40666,-8.59569 -6.82959,-1.79813 c -7.79302,-2.05179 -35.99607,-1.47955 -41.8182,0.84851 -3.07254,1.22859 -3.67254,2.45365 -4.28725,8.75326 -0.39312,4.02863 -0.43951,7.78892 -0.10313,8.35624 1.10217,1.85883 4.07815,1.0833 6.59701,-1.71914 z m -14.8793,-23.71534 c 7.30867,-2.73841 10.56458,-3.01341 35.36805,-2.98719 24.61572,0.0259 28.11469,0.32437 35.36805,3.01604 4.42735,1.64295 9.19099,4.02711 10.58586,5.29814 2.17331,1.98034 2.53614,2.01187 2.53614,0.22032 0,-3.13006 -5.13747,-9.09752 -10.02351,-11.64282 -12.83919,-6.68839 -40.73282,-9.19929 -59.54899,-5.36043 -6.30714,1.28676 -13.76661,3.52055 -16.5766,4.96397 -5.55738,2.85466 -10.83101,8.7166 -10.83101,12.03928 0,1.79155 0.36284,1.76002 2.53614,-0.22032 1.39487,-1.27103 6.1585,-3.66817 10.58587,-5.32699 z m -59.24942,-56.07545 c 8.63639,-6.62729 32.58207,-18.76246 39.38642,-19.96022 8.12409,-1.43004 9.21188,-2.72326 5.57208,-6.62427 -3.84725,-4.12339 -18.63638,-10.9844 -23.67717,-10.9844 -8.16852,0 -23.1753,16.7767 -29.04005,32.46506 -4.70501,12.58597 -3.24405,13.54701 7.75872,5.10383 z m 200.47603,4.91514 c 0,-3.38626 -8.03102,-20.88641 -12.02956,-26.21328 -7.27324,-9.68937 -17.75166,-17.47504 -22.11836,-16.43434 -6.59745,1.57236 -18.93828,7.81112 -22.05167,11.14799 -3.63981,3.90101 -2.55203,5.19423 5.57208,6.62427 6.90548,1.21556 30.91654,13.43125 39.01722,19.85011 5.83297,4.62197 11.61029,7.12255 11.61029,5.02525 z M 217.1843,180.61003 c 4.50896,-6.56223 8.79447,-8.47967 18.55229,-8.30074 9.42882,0.17288 15.35228,3.08644 18.59283,9.14516 2.91836,5.45633 6.63081,5.87193 7.34396,0.82213 0.77861,-5.51319 -2.56982,-11.12553 -8.84792,-14.83003 -5.12902,-3.02648 -7.5939,-3.52324 -17.48203,-3.52324 -9.38709,0 -12.51444,0.56773 -16.94817,3.07677 -6.5681,3.71687 -10.54067,10.39555 -9.25391,15.55767 1.26009,5.05515 3.62465,4.48254 8.04295,-1.94772 z M 55.787408,89.793455 C 54.605493,75.258496 55.61397,52.22712 57.22666,56.924273 c 0.389554,1.13463 2.001413,6.085743 3.581916,11.002471 3.721639,11.577548 7.129625,19.717247 7.921526,18.919913 0.345072,-0.347445 0.968206,-5.210738 1.384743,-10.807299 0.416536,-5.596572 1.256769,-10.692278 1.86717,-11.32379 0.610401,-0.631519 2.217733,1.772764 3.571846,5.342846 2.872717,7.573821 12.242152,22.623892 14.084521,22.623892 0.734983,0 0.952205,-4.617677 0.517567,-11.002475 -0.529276,-7.775072 -0.291053,-11.002466 0.812123,-11.002466 0.858602,0 1.561089,0.51342 1.561089,1.140932 0,1.46193 14.929869,18.113397 16.240639,18.113397 1.13388,0 22.00504,-24.044767 22.00504,-25.35105 0,-2.40402 -28.01144,-24.246651 -36.196803,-28.225369 -5.98076,-2.907114 -8.782934,-3.345925 -19.31817,-3.025149 -8.030433,0.24451 -8.343102,0.660822 -9.601603,12.78429 -0.455844,4.391334 -1.271994,7.708465 -1.813654,7.371399 -0.541661,-0.337066 -2.034728,-4.380373 -3.317928,-8.985127 -1.390019,-4.988048 -2.975705,-8.156609 -3.922849,-7.838726 -0.874357,0.293458 -2.737246,4.198917 -4.139752,8.678798 -3.554748,11.354575 -3.741616,33.514801 -0.405002,48.029203 4.333147,18.849347 5.463706,17.764817 3.728329,-3.576508 z M 417.566,97.175437 c 4.24593,-16.865322 4.12095,-42.561192 -0.26745,-54.987987 -1.64062,-4.645802 -4.9278,-7.037481 -5.70453,-4.150489 -0.25097,0.932772 -1.57675,5.409284 -2.9462,9.947804 l -2.4899,8.251853 -1.12902,-9.607403 c -0.62094,-5.284072 -1.9171,-10.400924 -2.88033,-11.370781 -1.05537,-1.062624 -5.60763,-1.83508 -11.45534,-1.943809 -8.2519,-0.153433 -10.63845,0.370961 -15.94871,3.504387 -11.55434,6.817844 -35.05595,25.841195 -34.9527,28.292404 0.0175,0.413801 2.01508,2.966275 4.43922,5.672161 2.42415,2.705886 7.35509,8.219342 10.95764,12.252126 l 6.5501,7.332319 5.44362,-5.352091 c 2.99399,-2.943653 6.80773,-7.369834 8.47499,-9.835942 1.66725,-2.466107 3.5732,-4.488059 4.23544,-4.493227 0.66224,-0.0052 0.90693,4.652385 0.54377,10.350135 -0.36316,5.697741 -0.14385,10.680921 0.48739,11.07372 1.51817,0.944734 10.94169,-13.838472 14.05711,-22.052203 1.39938,-3.689382 2.97584,-5.973722 3.65246,-5.292464 0.65473,0.659224 1.48859,5.748545 1.85305,11.309582 0.36445,5.561048 0.91671,10.366814 1.22726,10.679497 0.88236,0.888437 9.21691,-20.025062 10.05648,-25.234273 2.52475,-15.66522 5.26483,8.792093 3.18303,28.410938 -1.70133,16.033296 -1.69191,15.451366 -0.23583,14.545286 0.65886,-0.41 1.94064,-3.69569 2.84845,-7.301543 z M 169.36198,69.930553 c 2.81721,-0.51404 5.1222,-1.490327 5.1222,-2.169516 0,-0.67919 5.33336,-3.786192 11.8519,-6.904445 10.65759,-5.098224 12.89791,-5.669551 22.23164,-5.669551 10.11759,0 15.31,1.5441 24.06904,7.157568 2.48231,1.590855 3.52395,1.35514 8.41591,-1.90447 11.02744,-7.347798 29.40862,-7.039473 44.06406,0.739122 4.1356,2.195031 8.2876,3.992292 9.22666,3.993916 0.93907,0.0016 1.7074,0.845842 1.7074,1.876044 0,1.557001 11.44728,5.00345 16.61881,5.00345 4.72554,0 -8.75402,-15.187158 -17.381,-19.582835 -12.3933,-6.314715 -40.07597,-12.049271 -58.16597,-12.049271 -16.32376,0 -39.67162,3.772759 -52.68201,8.512836 -9.45354,3.444213 -13.20925,5.719481 -19.91231,12.063222 -8.26935,7.826077 -9.57005,12.106778 -3.21281,10.573727 1.60837,-0.387847 5.22929,-1.125769 8.04648,-1.639797 z"
     style="fill:#000000;stroke-width:1.37060487" />
</svg>
