<?xml version="1.0" encoding="UTF-8" standalone="no"?>
<svg
   xmlns:dc="http://purl.org/dc/elements/1.1/"
   xmlns:cc="http://creativecommons.org/ns#"
   xmlns:rdf="http://www.w3.org/1999/02/22-rdf-syntax-ns#"
   xmlns:svg="http://www.w3.org/2000/svg"
   xmlns="http://www.w3.org/2000/svg"
   version="1.1"
   id="svg62"
   width="100"
   height="100"
   viewBox="0 0 512 512">
  <metadata
     id="metadata68">
    <rdf:RDF>
      <cc:Work
         rdf:about="">
        <dc:format>image/svg+xml</dc:format>
        <dc:type
           rdf:resource="http://purl.org/dc/dcmitype/StillImage" />
        <dc:title></dc:title>
      </cc:Work>
    </rdf:RDF>
  </metadata>
  <defs
     id="defs66" />
  <g
     id="g70">
    <path
       style="fill:#000000;stroke-width:0.275616"
       d="m 77.245018,381.74135 v -5.65069 h 12.064046 12.064056 l -0.10177,-70.3687 c -0.0639,-44.18732 -0.19059,-73.2595 -0.3404,-78.1384 -0.7789,-25.36489 -2.315589,-36.45848 -6.79672,-49.06639 -2.856859,-8.03794 -6.205485,-14.51295 -8.320527,-16.08886 -1.762249,-1.31304 -3.4977,-0.69205 -4.187572,1.49842 -0.329447,1.04602 -0.334062,1.72013 -0.05741,8.38175 0.165465,3.98434 0.300846,12.32987 0.300846,18.54562 0,12.78737 -0.210967,15.8738 -1.532845,22.42616 -1.433288,7.1046 -3.487127,12.23069 -7.716174,19.25847 -1.995233,3.31565 -3.415007,5.31658 -4.956431,6.98522 -9.929699,10.7492 -23.345056,12.97962 -36.188342,6.01664 -4.830484,-2.61884 -9.065259,-7.08961 -12.759722,-13.47076 -2.74421,-4.73988 -4.626677,-9.16243 -6.503519,-15.27904 -6.1891282,-20.17036 -5.7979548,-42.2611 1.05493,-59.57511 6.017736,-15.20396 15.54666,-24.37634 28.756713,-27.68071 4.050247,-1.01314 11.561591,-1.09209 15.754942,-0.16561 9.364879,2.06907 18.164157,7.22716 24.300538,14.24483 6.115811,6.99416 13.419959,19.0347 16.980907,27.99225 2.589796,6.51462 3.397166,8.43604 3.790146,9.01998 0.40346,0.5995 0.42085,0.59756 0.42558,-0.0477 0.003,-0.37004 0.14549,-11.16187 0.3173,-23.98186 0.17179,-12.82 0.31477,-24.62021 0.31769,-26.22272 l 0.005,-2.91363 h 2.80453 c 3.95092,0 11.68535,0.56326 24.29723,1.76946 13.70871,1.3111 21.56821,1.9564 32.15644,2.64021 9.0691,0.58569 30.16232,1.5922 33.39323,1.59343 l 1.98962,7e-4 v 5.47411 5.47409 h -8.60373 -8.60373 v 115.83908 115.83906 h 8.60373 8.60373 v 5.65069 5.65068 H 137.90114 77.244839 v -5.65068 z M 336.86262,382.1346 C 320.46401,369.21942 251.35608,312.8758 216.30283,283.84236 189.17678,261.37477 183.286,256.40722 183.286,256.00006 c 0,-0.13108 3.6539,-3.30351 8.11978,-7.04979 4.46588,-3.74626 10.1524,-8.51648 12.63673,-10.60048 37.63457,-31.57 134.7206,-111.25819 138.17812,-113.41658 l 0.52094,-0.3252 -0.1432,80.27095 c -0.0788,44.14904 -0.14324,103.03706 -0.14329,130.86227 -1e-5,27.82522 -0.0726,50.5806 -0.16136,50.56753 -0.0887,-0.0131 -2.53272,-1.89146 -5.4311,-4.17416 z m 163.4669,1.22503 c -12.04617,-9.37769 -61.93237,-49.95528 -107.97283,-87.82537 -35.51399,-29.21168 -47.32052,-39.07587 -47.32052,-39.53557 0,-0.50992 40.41758,-33.99081 110.3478,-91.40928 25.96984,-21.32338 47.51431,-38.93943 47.87655,-39.14678 l 0.65865,-0.377 0.14849,130.50673 c 0.0817,71.77873 0.12005,130.55349 0.0853,130.61061 -0.0348,0.0571 -1.75529,-1.21339 -3.82337,-2.82334 z"
       id="path74" />
  </g>
</svg>
