<?xml version="1.0" encoding="UTF-8" standalone="no"?>
<svg
   xmlns:dc="http://purl.org/dc/elements/1.1/"
   xmlns:cc="http://creativecommons.org/ns#"
   xmlns:rdf="http://www.w3.org/1999/02/22-rdf-syntax-ns#"
   xmlns:svg="http://www.w3.org/2000/svg"
   xmlns="http://www.w3.org/2000/svg"
   viewBox="0 0 320 239"
   height="119"
   width="100"
   id="svg869"
   version="1.1">
  <metadata
     id="metadata875">
    <rdf:RDF>
      <cc:Work
         rdf:about="">
        <dc:format>image/svg+xml</dc:format>
        <dc:type
           rdf:resource="http://purl.org/dc/dcmitype/StillImage" />
        <dc:title></dc:title>
      </cc:Work>
    </rdf:RDF>
  </metadata>
  <defs
     id="defs873" />
  <path
     id="path879"
     d="m 21.667385,235.39965 c -4.37658,-0.2308 -6.75687,-1.26236 -8.2333,-3.56811 -0.85299,-1.33213 -1.00876,-1.97883 -1.04619,-4.3432 -0.0312,-1.97237 -0.0567,-2.16308 -0.36554,-2.73333 -0.80316,-1.48308 -0.80144,-1.46198 -0.8537,-10.47479 -0.0288,-4.95785 0.005,-8.69028 0.0841,-9.33333 0.11974,-0.97227 19.85575,-74.70788 20.7515,-77.52961 0.51046,-1.608 1.26913,-3.29862 1.95605,-4.35884 0.47905,-0.73939 2.0383,-2.69192 2.38227,-2.98315 0.0433,-0.0367 0.44502,-0.81666 0.89268,-1.73333 0.44766,-0.91667 1.09035,-2.01349 1.42818,-2.43738 0.73985,-0.92831 1.93605,-1.83503 2.97402,-2.2543 l 0.7633,-0.30832 8.638,-0.0667 8.63799,-0.0667 -0.42362,-0.66667 c -1.00581,-1.58281 -3.95229,-6.51868 -5.61431,-9.40487 -4.77852,-8.298194 -8.08671,-14.513054 -17.17306,-32.261734 -3.17235,-6.196667 -6.32121,-12.316667 -6.99746,-13.600001 -2.43799,-4.626607 -2.26715,-4.225647 -2.0872,-4.898457 l 0.15884,-0.593855 -10.10292,-17.487178 C 7.6004448,17.26964 7.3328948,16.788219 7.2885648,16.034901 c -0.0588,-0.999376 0.38298,-1.944209 1.31808,-2.818882 1.6190702,-1.514455 3.7667002,-1.795212 5.2331302,-0.684124 0.13146,0.0996 4.79036,8.062614 10.35311,17.695577 l 10.1141,17.514479 0.51355,0.0741 c 0.61334,0.08849 1.04853,0.344755 1.22055,0.718716 0.0693,0.15062 1.32352,1.983853 2.78718,4.073853 12.76077,18.221389 21.86799,32.666036 29.00889,46.010036 1.76553,3.299204 5.12469,9.994134 6.36713,12.689974 l 0.84495,1.83333 h 41.101225 c 22.60568,0 41.12674,-0.045 41.15793,-0.1 0.0312,-0.055 -0.005,-1.15 -0.0795,-2.43333 -0.20031,-3.43109 -0.19151,-21.948164 0.0127,-26.666675 0.39696,-9.17335 0.99185,-18.338437 1.83476,-28.266668 0.25837,-3.043333 0.50665,-6.037689 0.55172,-6.654125 0.079,-1.081131 0.10006,-1.138377 0.594,-1.617731 l 0.51206,-0.496939 V 26.711857 6.5172246 l 0.31016,-0.587637 c 0.78248,-1.482523 2.84902,-2.199549 4.82318,-1.673492 1.14417,0.304888 1.8014,0.749786 2.3909,1.618465 l 0.34243,0.504601 V 26.720876 47.06259 l 0.42363,0.437072 c 0.41668,0.429907 0.42528,0.464985 0.52456,2.139682 0.0555,0.936434 0.16725,3.262608 0.24832,5.169274 0.0811,1.906667 0.38169,8.116667 0.66805,13.800001 0.52113,10.34278 0.68869,13.887981 0.94529,19.999997 0.0754,1.79667 0.17216,8.02167 0.21495,13.833344 l 0.0778,10.56667 h 36.63423 36.63421 l 0.20016,-0.5 c 0.42505,-1.06179 3.61009,-7.58071 5.16271,-10.56667 7.91516,-15.222244 16.53508,-28.978977 32.41589,-51.733342 1.63228,-2.338753 1.57073,-2.273197 2.21489,-2.359195 0.31058,-0.04146 0.61886,-0.142606 0.68506,-0.224762 0.0662,-0.08216 4.6046,-7.919377 10.0853,-17.416044 5.48071,-9.496667 10.06244,-17.378051 10.1816,-17.514188 0.33583,-0.383633 1.17038,-0.759558 1.8702,-0.842442 2.34407,-0.277621 5.19228,2.252488 4.90946,4.36114 -0.0476,0.35512 -3.11563,5.785634 -10.17115,18.003484 -5.55661,9.622239 -10.092,17.56181 -10.07863,17.643494 0.21075,1.287125 0.27008,1.103571 -1.35048,4.177527 -0.8421,1.597376 -4.03508,7.79432 -7.09546,13.770987 -9.92234,19.377427 -13.5222,26.123607 -18.53774,34.739881 -1.7344,2.97953 -4.16232,7.01878 -4.6831,7.79108 -0.1722,0.25536 -0.31308,0.51481 -0.31308,0.57657 0,0.0618 3.765,0.10127 8.36666,0.0878 7.31303,-0.0214 8.4635,0.002 9.13558,0.18898 2.2608,0.62762 4.16441,2.25979 5.77206,4.94901 0.35072,0.58667 0.91662,1.36667 1.25755,1.73333 1.37741,1.48139 2.45275,3.24147 3.32707,5.44563 0.2281,0.5751 3.97916,14.4051 8.33566,30.73334 4.3565,16.32824 8.30812,31.0077 8.78139,32.62104 0.47325,1.61333 0.899,3.20333 0.94609,3.53333 0.0471,0.33 0.76996,3.18 1.60635,6.33333 0.8364,3.15334 1.58467,6.08935 1.66283,6.5245 0.17704,0.98569 0.18652,14.67044 0.0111,16.01993 -0.16188,1.2453 -0.56684,2.29402 -1.21802,3.15431 -0.39823,0.52611 -0.51278,0.78453 -0.45856,1.0346 0.0397,0.18333 0.11044,1.05333 0.15712,1.93333 0.0753,1.41895 0.0513,1.71316 -0.212,2.6 -1.05595,3.55716 -3.28848,4.97344 -8.40094,5.32946 -1.263,0.088 -45.67014,0.18165 -127.66993,0.2694 -136.350925,0.14589 -147.295605,0.14533 -150.200005,-0.008 z M 161.47686,220.40354 c 1.20986,-0.748 1.77325,-2.22495 1.38278,-3.62512 -0.1264,-0.45323 -0.37153,-0.83049 -0.85153,-1.31051 -0.48001,-0.48 -0.85728,-0.72513 -1.31051,-0.85153 -2.01269,-0.56128 -3.9412,0.79288 -4.07281,2.85984 -0.0654,1.02765 0.11057,1.59683 0.71053,2.29776 0.71107,0.83071 1.40623,1.12392 2.54506,1.07345 0.77572,-0.0344 1.06352,-0.11438 1.59648,-0.44389 z m -2.46343,0.18175 c -0.87967,-0.20047 -1.92983,-1.29326 -2.1272,-2.21354 -0.62649,-2.92122 2.8816,-4.86805 4.98385,-2.76581 2.12411,2.12412 0.0996,5.65303 -2.85665,4.97935 z m -6.54604,-2.77666 c 0,-0.26629 -0.0889,-0.26666 -62.933335,-0.26666 -64.56812,0 -63.29787,-0.009 -62.84444,0.44444 0.0489,0.0489 28.36888,0.0889 62.93333,0.0889 62.755555,0 62.844445,0 62.844445,-0.26667 z m 140.50795,-0.0333 c 0.0427,-0.22196 -3.0273,-0.23333 -62.96484,-0.23333 -64.64966,0 -63.37434,-0.009 -62.92075,0.44458 0.049,0.049 28.38315,0.074 62.96484,0.0556 59.76051,-0.0318 62.87804,-0.045 62.92075,-0.26681 z m -75.56316,-21.38896 c 0.94548,-0.1891 0.1616,-0.2871 -2.97812,-0.37232 -4.52906,-0.12294 -110.18421,-0.0323 -110.31113,0.0946 -0.055,0.055 -0.055,0.145 -4e-5,0.2 0.055,0.055 7.27997,0.13696 16.05556,0.18213 18.46182,0.095 96.6563,0.0111 97.23373,-0.10442 z M 15.497175,193.90863 c -0.0296,-0.23833 -0.0538,-0.0433 -0.0538,0.43333 0,0.47667 0.0242,0.67167 0.0538,0.43334 0.0296,-0.23834 0.0296,-0.62834 0,-0.86667 z M 10.260305,13.753927 c 1.0961,-0.629921 2.0411,-1.14531 2.1,-1.14531 0.0589,0 0.10708,-0.06806 0.10708,-0.151249 0,-0.104245 -0.2797,-0.131092 -0.9,-0.08639 -1.6085099,0.115923 -3.3162702,1.263208 -3.6951202,2.482414 -0.11413,0.367272 -0.36586,0.483173 2.3880402,-1.099467 z M 311.948,14.635957 c -0.34152,-0.669439 -1.34936,-1.584275 -2.1217,-1.925922 -0.60928,-0.269514 -2.59568,-0.512002 -2.38724,-0.291421 0.13832,0.14637 4.53146,2.702995 4.66437,2.714469 0.0565,0.0049 -0.0134,-0.21883 -0.15543,-0.497126 z M 167.33288,5.4067106 c -0.16124,-0.260887 -1.1641,-0.683949 -1.91114,-0.806217 -0.95556,-0.156398 -2.1545,0.04477 -2.92102,0.490128 -0.31166,0.181079 -0.56666,0.356706 -0.56666,0.390282 0,0.03357 1.23354,0.06105 2.7412,0.06105 1.81926,0 2.71309,-0.04548 2.65762,-0.135239 z"
     style="fill:#000000;stroke-width:0.13333334" />
</svg>
