<?xml version="1.0" encoding="UTF-8" standalone="no"?>
<svg
   xmlns:dc="http://purl.org/dc/elements/1.1/"
   xmlns:cc="http://creativecommons.org/ns#"
   xmlns:rdf="http://www.w3.org/1999/02/22-rdf-syntax-ns#"
   xmlns:svg="http://www.w3.org/2000/svg"
   xmlns="http://www.w3.org/2000/svg"
   viewBox="0 0 144 144"
   height="100"
   width="100"
   id="svg869"
   version="1.1">
  <metadata
     id="metadata875">
    <rdf:RDF>
      <cc:Work
         rdf:about="">
        <dc:format>image/svg+xml</dc:format>
        <dc:type
           rdf:resource="http://purl.org/dc/dcmitype/StillImage" />
        <dc:title></dc:title>
      </cc:Work>
    </rdf:RDF>
  </metadata>
  <defs
     id="defs873" />
  <path
     id="path879"
     d="m 14.048526,123.85715 v -15.33519 h 3.177977 3.177977 v 11.90495 11.90496 h 11.029449 11.029454 v 3.43024 3.43024 H 28.255952 14.048526 Z m 87.487834,11.90496 v -3.43024 h 11.02945 11.02945 l 0.0185,-2.32046 c 0.0105,-1.27625 0.002,-6.63348 -0.0175,-11.90495 l -0.036,-9.5845 h 3.19552 3.19551 v 15.33519 15.3352 h -14.2075 -14.20743 z M 55.588497,123.30297 c -0.796281,-1.03562 0.03937,-1.87747 4.076188,-4.10624 11.015709,-6.08194 20.179475,-13.53597 25.526293,-20.763704 1.940015,-2.622483 2.431993,-3.057252 3.684011,-3.255593 0.963558,-0.15264 1.444987,-0.07409 1.444987,0.235767 0,0.602306 -2.622264,4.64026 -4.810067,7.4069 -3.95317,4.99908 -13.751199,12.73225 -23.04129,18.18555 -4.931811,2.89497 -6.116449,3.29052 -6.880122,2.29732 z m 24.885978,-4.55754 c -0.708245,-0.76448 0.07174,-2.0489 3.276307,-5.3951 1.939057,-2.02476 4.403414,-5.07446 5.476343,-6.77711 1.07293,-1.70265 2.201614,-3.31568 2.50816,-3.58454 0.728551,-0.63892 1.949607,0.034 1.949607,1.07455 0,2.42616 -10.111831,14.95123 -12.07054,14.95123 -0.489841,0 -1.002792,-0.12107 -1.139877,-0.26903 z M 49.541076,115.5504 c -0.800593,-1.04123 0.0093,-1.81701 2.983396,-2.85947 6.58971,-2.30942 13.357726,-6.69243 18.540703,-12.00709 3.20444,-3.285866 4.390153,-3.751947 4.59935,-1.807917 0.09253,0.85961 -0.44355,1.613157 -2.97912,4.187767 -5.299568,5.38119 -11.416449,9.43936 -18.186697,12.0657 -3.149795,1.22189 -4.26877,1.31692 -4.957632,0.42101 z m 44.603384,-2.65824 c -0.748051,-0.80743 -0.542172,-1.61203 1.066574,-4.16842 1.730782,-2.75031 5.012836,-9.711278 5.634106,-11.949501 0.35788,-1.289278 0.59008,-1.515739 1.69724,-1.655252 0.70545,-0.0889 1.35429,-0.03652 1.44184,0.116401 0.53664,0.937202 -3.9716,11.408012 -6.675102,15.503602 -1.654488,2.5064 -2.380048,3.00007 -3.164658,2.15317 z m -48.035751,-2.18241 c -0.154225,-0.16749 -0.280409,-0.7377 -0.280409,-1.26715 0,-0.71252 0.299477,-1.07531 1.152694,-1.39636 4.614002,-1.73611 12.301574,-6.77515 16.479562,-10.801986 1.90105,-1.832268 2.293518,-2.039689 3.859408,-2.039689 h 1.743144 l -0.792427,1.087366 C 64.042442,102.09396 47.865803,112.61792 46.108709,110.70975 Z m -7.614421,-6.80512 c -0.480049,-1.3503 0.05316,-1.96274 2.286637,-2.62634 3.193154,-0.94875 6.052316,-2.462482 8.307815,-4.398408 1.722417,-1.478373 2.179742,-1.675317 3.890218,-1.675317 h 1.938344 l -0.712241,0.851309 c -0.391732,0.468216 -1.721704,1.716081 -2.955507,2.773035 -4.59144,3.933301 -12.09927,6.920901 -12.755266,5.075721 z m 56.32714,-6.461111 c -0.834453,-1.085271 -0.310472,-2.026892 1.20332,-2.162427 1.563693,-0.139999 1.784492,0.360409 0.816915,1.851466 -0.672726,1.036695 -1.378669,1.145353 -2.020235,0.310961 z M 1.3366197,86.729854 v -1.614231 l 19.3482703,-0.01647 19.348275,-0.01647 1.682459,-2.870038 c 0.925352,-1.578519 2.01895,-3.458254 2.430217,-4.177189 1.359041,-2.375736 6.294439,-9.177337 8.536362,-11.764193 2.285222,-2.636826 3.31505,-3.095518 3.972576,-1.769403 0.313545,0.632362 0.121183,1.133133 -1.046372,2.724014 -0.786795,1.072072 -1.72063,2.20721 -2.075184,2.522533 -0.826111,0.734697 -5.080359,6.851441 -8.021599,11.533416 l -2.281648,3.632019 2.287945,0.12166 c 1.258374,0.06691 2.496418,0.03531 2.751205,-0.07022 0.555235,-0.22998 2.267545,-3.570315 3.716317,-7.249728 1.08355,-2.75188 2.013786,-3.574939 3.020842,-2.672806 0.836112,0.74899 0.675787,1.486633 -1.26834,5.835511 l -1.804063,4.035577 2.424879,0.120714 c 1.333663,0.0664 2.549403,-0.02442 2.701619,-0.201779 0.152215,-0.177371 1.05281,-2.917738 2.001331,-6.089705 0.948521,-3.171963 1.994811,-6.212379 2.325099,-6.756476 0.334563,-0.551126 0.490775,-1.297977 0.35272,-1.686306 -0.136291,-0.383371 -0.132178,-0.572232 0.0093,-0.419683 0.141327,0.152544 0.820923,-0.519875 1.510205,-1.49427 1.594491,-2.254005 2.953696,-3.292062 5.135097,-3.921808 3.146465,-0.908353 6.631222,0.734785 8.694115,4.09948 1.187383,1.93668 1.604177,6.470905 0.894857,9.734981 -0.542558,2.496816 -0.946523,3.184619 -1.870368,3.184619 -1.328932,0 -1.545899,-0.926608 -0.909135,-3.882681 1.274778,-5.918019 -0.866875,-10.241837 -5.072939,-10.241837 -2.477303,0 -4.031299,1.229963 -5.608627,4.439135 -0.455069,0.925874 -0.444391,0.963053 0.129748,0.45181 0.883081,-0.786316 4.195152,-0.627838 5.621654,0.268988 2.480703,1.559592 2.600999,6.587671 0.255068,10.661061 l -1.114722,1.935543 h 1.577083 c 1.172159,0 1.696981,-0.207226 2.044058,-0.807115 0.256844,-0.443913 0.719578,-0.807115 1.028298,-0.807115 0.308719,0 0.849419,0.363202 1.201567,0.807115 0.529297,0.667246 1.102921,0.807115 3.310073,0.807115 h 2.669828 l 0.616866,-2.118677 c 2.847701,-9.780507 0.407167,-18.467017 -6.226568,-22.161982 -2.178994,-1.213688 -6.847652,-1.483135 -9.776169,-0.564214 -2.390376,0.750063 -3.335801,0.40296 -3.130331,-1.149281 0.165792,-1.252437 3.490412,-2.356949 7.215234,-2.397063 6.870506,-0.07399 12.112497,3.798683 14.668058,10.836459 0.918435,2.529261 1.024991,3.331719 1.018202,7.667596 -0.0058,3.402402 -0.198565,5.521294 -0.649744,7.12437 -0.353188,1.254923 -0.64215,2.389929 -0.64215,2.522235 0,0.41096 6.298633,0.263584 6.537134,-0.152955 0.123929,-0.216432 0.222657,-2.664352 0.219385,-5.439825 -0.0058,-4.48499 0.07034,-5.090376 0.679795,-5.442439 0.484735,-0.280013 0.892661,-0.232764 1.391674,0.161189 0.629776,0.497183 0.705861,1.12683 0.705207,5.835949 l -7.48e-4,5.278638 h 1.63362 1.63362 L 96.961597,78.557811 C 96.753708,70.821329 95.773162,66.090398 93.218606,60.498606 90.887069,55.394978 86.898393,51.165515 82.001387,48.604221 c -3.714575,-1.942844 -4.341502,-2.718344 -3.098048,-3.832237 1.086903,-0.973656 5.839053,1.409099 10.342562,5.185821 1.104955,0.926633 3.403461,2.78816 5.107803,4.136724 6.285506,4.973412 11.784006,14.677009 8.316676,14.677009 -0.75745,0 -1.19241,-0.523851 -2.43022,-2.92687 -1.618398,-3.141834 -4.817756,-7.469155 -3.803385,-5.144283 2.241876,5.138193 3.810105,14.343355 3.454635,20.277958 l -0.247811,4.13728 h 1.931671 1.93167 l -0.2208,-4.943581 c -0.12145,-2.71897 -0.32546,-5.619177 -0.45336,-6.4449 -0.15393,-0.993753 -0.0556,-1.773983 0.2908,-2.307818 0.47751,-0.735858 0.59372,-0.753292 1.32686,-0.199026 1.19571,0.903993 1.68383,3.438715 1.72381,8.951566 l 0.0359,4.943404 18.22663,1.78e-4 18.2266,1.77e-4 v 1.614231 1.614231 H 72.000107 1.3368534 Z m 65.5887143,-3.02412 c 2.149376,-3.041667 3.157764,-7.358087 2.008727,-8.598341 -1.139679,-1.23014 -4.683509,0.327596 -6.036334,2.653335 -0.779597,1.340285 -2.862001,6.521582 -2.862001,7.121058 0,0.12861 1.325999,0.233837 2.946662,0.233837 2.92722,0 2.953228,-0.0093 3.942946,-1.409889 z m -30.720311,-7.44967 c -0.254378,-0.439644 -0.307574,-0.887532 -0.12026,-1.012486 0.184755,-0.123249 0.965556,-1.439366 1.735117,-2.924711 4.355417,-8.406438 12.825835,-16.955681 20.539907,-20.731052 7.000989,-3.426378 14.877733,-3.73449 20.907337,-0.81783 4.156864,2.01077 8.580888,6.965583 11.078521,12.407683 1.811119,3.946253 1.883208,5.59387 0.244739,5.59387 -0.934664,0 -1.160125,-0.30285 -2.261738,-3.038075 -1.580494,-3.924291 -3.068804,-6.227431 -5.704212,-8.82725 -6.069795,-5.987796 -14.456441,-6.884198 -23.193961,-2.479075 -8.27495,4.171915 -15.684835,11.961832 -19.938054,20.960631 -0.629076,1.33097 -0.98439,1.656701 -1.807136,1.656701 -0.611095,0 -1.208075,-0.317959 -1.48026,-0.788406 z m 0.724941,-12.206151 c -0.711855,-0.768361 -0.538071,-1.496848 0.834348,-3.497238 6.875646,-10.021809 21.039503,-17.810606 32.388433,-17.810606 2.826016,0 4.095933,1.147056 2.808443,2.536743 -0.371484,0.400971 -1.823504,0.644098 -4.766965,0.798184 -10.262493,0.537237 -20.505031,6.284714 -27.678391,15.531394 -2.308403,2.975604 -2.788336,3.302373 -3.585868,2.441523 z m 68.722386,-1.634408 c -0.22004,-0.277446 -1.24135,-2.048055 -2.26957,-3.934687 -1.02823,-1.886632 -2.87157,-4.701447 -4.096318,-6.255144 -1.22476,-1.553697 -2.229035,-3.015585 -2.231746,-3.248639 -0.007,-0.645325 0.815291,-1.392274 1.533608,-1.392274 1.201298,0 6.055576,6.768436 8.326186,11.609385 0.78815,1.68035 0.91396,2.293415 0.60041,2.925793 -0.45093,0.909454 -1.27235,1.039799 -1.86257,0.295566 z m -66.086534,-8.64109 c -1.603079,-0.698203 0.530944,-4.447435 5.335099,-9.373155 3.655257,-3.747756 4.403787,-4.260507 5.388867,-3.691463 1.315367,0.759842 0.909345,1.871704 -1.376975,3.770798 -2.461963,2.044981 -4.677737,4.546993 -6.647055,7.505725 -1.319082,1.981823 -1.69045,2.227767 -2.699936,1.788095 z M 100.41473,42.661906 c -3.439475,-3.998352 -6.928076,-6.729832 -11.590273,-9.074838 -4.833773,-2.431305 -4.673495,-2.314729 -4.673495,-3.39927 0,-0.86277 0.158303,-0.961049 1.495518,-0.928433 3.4072,0.0831 11.258486,5.243311 16.38077,10.766163 2.74484,2.95949 3.27545,3.735528 3.17798,4.64794 -0.0897,0.839775 -0.33505,1.113117 -1.05171,1.171734 -0.73057,0.05975 -1.5471,-0.635459 -3.73879,-3.183296 z M 89.74114,43.21886 c -8.132957,-5.568304 -18.451287,-7.853486 -26.527438,-5.874993 -4.563025,1.117851 -4.75423,1.130648 -5.280746,0.353436 -0.908305,-1.340771 -0.02115,-2.08948 3.500787,-2.954284 6.608895,-1.622826 12.186875,-1.448025 18.790116,0.588836 5.470314,1.687403 13.883751,6.550402 14.42479,8.337586 0.237577,0.784774 -0.420545,1.907419 -1.103004,1.881555 C 93.31377,45.542168 91.601752,44.49275 89.74114,43.21886 Z M 44.781437,39.432896 c -0.246761,-0.266348 -0.448656,-0.684724 -0.448656,-0.929729 0,-0.782159 2.332915,-2.90195 5.686627,-5.167123 6.600845,-4.458352 13.94328,-6.736281 21.713002,-6.736281 4.597995,0 5.434866,0.338093 4.946649,1.998421 -0.222832,0.757813 -0.543796,0.826616 -3.863158,0.828104 -8.889572,0.004 -17.508993,3.020154 -24.160756,8.454498 -2.613863,2.135469 -3.138497,2.345682 -3.873708,1.55211 z M 14.048526,20.14284 V 4.8076497 H 28.255952 42.463383 V 8.2378898 11.66813 H 31.433929 20.40448 V 23.57308 35.478031 H 17.226503 14.048526 Z M 123.78562,35.080459 c -0.1252,-0.218668 -0.20891,-5.258094 -0.18601,-11.198725 0.0229,-5.940635 0.0313,-11.118954 0.0186,-11.507378 -0.0213,-0.656076 -0.80618,-0.706226 -11.0524,-0.706226 H 101.53636 V 8.2378898 4.8076497 h 14.20743 14.20742 V 20.14284 35.478031 h -2.96896 c -1.63295,0 -3.07142,-0.17891 -3.19663,-0.397572 z M 94.619591,29.154235 C 88.662883,25.301873 80.659393,22.965601 73.436658,22.97079 c -7.094471,0.005 -12.928185,1.47491 -19.103181,4.813071 -3.473599,1.877807 -3.682294,1.939143 -4.415962,1.297898 -1.20852,-1.056275 -0.580881,-1.869403 2.952796,-3.825493 7.62989,-4.223566 16.601365,-6.090048 24.64639,-5.127585 6.676205,0.798707 12.863644,2.939007 18.131059,6.271724 2.895371,1.831922 3.445687,2.674764 2.448912,3.750665 -0.653775,0.705661 -0.996553,0.607391 -3.477081,-0.996835 z"
     style="fill:#000000;stroke-width:0.3884353" />
</svg>
