<?xml version="1.0" encoding="UTF-8" standalone="no"?>
<svg
   xmlns:dc="http://purl.org/dc/elements/1.1/"
   xmlns:cc="http://creativecommons.org/ns#"
   xmlns:rdf="http://www.w3.org/1999/02/22-rdf-syntax-ns#"
   xmlns:svg="http://www.w3.org/2000/svg"
   xmlns="http://www.w3.org/2000/svg"
   viewBox="0 0 256 256"
   height="100"
   width="100"
   id="svg869"
   version="1.1">
  <metadata
     id="metadata875">
    <rdf:RDF>
      <cc:Work
         rdf:about="">
        <dc:format>image/svg+xml</dc:format>
        <dc:type
           rdf:resource="http://purl.org/dc/dcmitype/StillImage" />
        <dc:title></dc:title>
      </cc:Work>
    </rdf:RDF>
  </metadata>
  <defs
     id="defs873" />
  <path
     id="path879"
     d="m 151.29429,240.021 c -12.04119,-3.16236 -25.58578,-10.59484 -34.95836,-19.18312 -8.57276,-7.85538 -8.96472,-8.04878 -16.31228,-8.04878 -11.467136,0 -16.729366,-3.52609 -16.729366,-11.20996 0,-3.7428 5.21715,-8.79004 9.08594,-8.79004 2.92933,0 3.6217,-1.93784 2.10474,-5.89094 -0.69391,-1.80832 -4.0297,-2.10906 -23.39393,-2.10906 -22.20096,0 -22.64022,-0.0556 -25.857354,-3.27273 -4.171031,-4.17103 -4.171031,-9.28351 0,-13.45453 3.191374,-3.19138 3.783124,-3.27274 23.804354,-3.27274 h 20.53162 l 0.84436,-9.98876 c 0.4644,-5.49382 2.098,-13.71012 3.63022,-18.25844 2.62242,-7.78455 2.66573,-8.66515 0.7383,-15.01124 -1.12616,-3.70785 -2.55871,-8.84156 -3.18346,-11.40822 l -1.1359,-4.66667 -14.18933,-0.37782 c -13.48416,-0.35903 -14.32492,-0.55019 -16.91777,-3.84647 -3.11723,-3.962917 -3.32577,-5.672607 -1.24809,-10.232607 2.21714,-4.86609 6.67077,-6.20977 20.58237,-6.20977 12.55531,0 12.60393,-0.0129 12.60393,-3.33333 v -3.33333 h -27.25898 c -26.634801,0 -27.341801,-0.0712 -30.875889,-3.11114 -4.58151,-3.94085 -4.807631,-11.027946 -0.464079,-14.545142 2.580647,-2.08968 6.341831,-2.343721 34.699748,-2.343721 30.08044,0 31.88024,-0.139871 33.185616,-2.579012 2.43001,-4.540502 1.5871,-5.420988 -5.189636,-5.420988 -5.50947,0 -7.01593,-0.567046 -9.33334,-3.513146 -3.44469,-4.379214 -3.51665,-8.593925 -0.21637,-12.672476 2.38073,-2.942164 3.70852,-3.197296 20.333326,-3.907029 17.76222,-0.758291 17.79995,-0.766805 27.8965,-6.296761 46.8076,-25.636874 106.32593,1.552722 117.97033,53.892055 2.87128,12.90582 2.08206,31.097677 -1.84784,42.593097 l -2.76765,8.09575 2.68919,8.57092 c 9.05318,28.85412 1.39336,59.79113 -20.11724,81.25085 -16.77046,16.73079 -34.48683,24.05051 -57.84414,23.89899 -7.43941,-0.0483 -16.82621,-0.95443 -20.85954,-2.01369 z m 41.32732,-22.24822 c 41.83873,-15.58522 53.46681,-67.69678 22.10398,-99.05962 -3.83109,-3.83109 -9.6204,-8.29898 -12.86513,-9.92864 -8.5558,-4.29714 -11.89951,-7.80262 -11.89951,-12.475227 0,-5.7538 4.63208,-10.18685 10.64419,-10.18685 5.35168,0 17.86155,6.78214 24.75263,13.41948 6.12482,5.899297 7.26985,5.169427 7.26985,-4.63402 0,-9.62397 -3.37764,-21.88069 -8.3838,-30.423079 -5.08123,-8.67045 -17.12917,-19.295943 -27.24843,-24.031315 -17.40508,-8.144819 -40.97368,-6.392572 -57.40625,4.267963 -14.68596,9.527422 -24.31353,24.329451 -27.34845,42.047201 -3.91115,22.833147 9.73345,50.602857 29.82076,60.691687 8.63794,4.3384 11.8995,7.79136 11.8995,12.59782 0,5.30214 -2.97197,9.51715 -7.5143,10.6572 -4.6116,1.15744 -17.69566,-5.1342 -26.14639,-12.57282 -3.34501,-2.9444 -6.73977,-5.35346 -7.54391,-5.35346 -2.16486,0 -1.81274,14.0934 0.58182,23.28672 2.93836,11.28115 7.94484,19.66072 16.7836,28.09147 8.43874,8.04919 21.23916,14.81496 31.45924,16.62803 8.78762,1.55896 22.26437,0.24668 31.0406,-3.02254 z M 59.926374,209.76424 c -7.36904,-6.33859 -3.5878,-16.97514 6.03458,-16.97514 12.26557,0 13.27235,16.40048 1.18764,19.34672 -2.57502,0.62779 -4.45166,0.012 -7.22222,-2.37158 z M 5.2336806,74.849713 c -6.461855,-6.46185 -2.135458,-16.727273 7.0497674,-16.727273 4.829113,0 9.677505,5.130409 9.677505,10.240413 0,4.23979 -5.655772,9.75959 -10,9.75959 -1.899999,0 -4.9272724,-1.47273 -6.7272724,-3.27273 z"
     style="fill:#000000;stroke-width:1.33333337" />
</svg>
