<?xml version="1.0" encoding="UTF-8" standalone="no"?>
<svg
   xmlns:dc="http://purl.org/dc/elements/1.1/"
   xmlns:cc="http://creativecommons.org/ns#"
   xmlns:rdf="http://www.w3.org/1999/02/22-rdf-syntax-ns#"
   xmlns:svg="http://www.w3.org/2000/svg"
   xmlns="http://www.w3.org/2000/svg"
   version="1.1"
   id="svg885"
   width="100"
   height="100"
   viewBox="0 0 511.99999 511.99999">
  <metadata
     id="metadata891">
    <rdf:RDF>
      <cc:Work
         rdf:about="">
        <dc:format>image/svg+xml</dc:format>
        <dc:type
           rdf:resource="http://purl.org/dc/dcmitype/StillImage" />
        <dc:title></dc:title>
      </cc:Work>
    </rdf:RDF>
  </metadata>
  <defs
     id="defs889" />
  <g
     id="g893">
    <path
       style="fill:#000000;stroke-width:1.03319"
       d="m 51.496232,501.59371 c -20.401129,-5.61236 -38.484557,-28.7367 -42.8379928,-54.77945 -1.991412,-11.91284 -1.991412,-256.47527 0,-268.3881 4.4005378,-26.32451 22.4909258,-49.25227 43.2614058,-54.82951 5.358328,-1.43881 27.092492,-1.69624 144.656195,-1.7134 l 138.35046,-0.0202 V 93.455994 65.04894 l -3.40769,-1.425366 C 324.123,60.53014 316.57135,47.349377 316.57135,37.534425 c 0,-10.016308 5.88517,-20.487256 14.48765,-25.776524 4.5416,-2.7924238 6.35015,-3.2242499 13.50365,-3.2242499 7.1535,0 8.96205,0.4318261 13.50365,3.2242499 8.60248,5.289268 14.48765,15.760216 14.48765,25.776524 0,9.814952 -7.55166,22.995715 -14.94727,26.089149 L 354.199,65.04894 v 28.407054 28.407056 l 49.78781,0.0202 c 40.0357,0.0162 51.02294,0.35185 56.09356,1.7134 20.77047,5.57724 38.86086,28.50501 43.26139,54.82952 1.99141,11.91283 1.99141,256.47526 0,268.3881 -4.40053,26.32451 -22.49092,49.25228 -43.26139,54.82951 -9.16927,2.4621 -399.626214,2.41427 -408.584138,-0.05 z M 455.3355,477.65315 c 14.59229,-3.89462 26.04241,-18.40267 29.08494,-36.85252 1.43323,-8.69101 1.42606,-247.73192 -0.007,-256.36082 -3.0729,-18.49427 -14.52001,-33.00617 -29.07725,-36.86228 -6.89297,-1.8259 -391.778013,-1.8259 -398.670992,0 -14.557241,3.85611 -26.00434,18.36801 -29.077258,36.86228 -1.43374,8.6289 -1.440907,247.66981 -0.0077,256.36082 2.960052,17.94967 13.838378,32.19921 27.892587,36.53654 6.337109,1.95571 392.576023,2.26093 399.863363,0.31598 z M 202.77064,437.65921 V 426.60925 H 157.5087 c -48.92882,0 -50.41207,-0.16302 -58.902412,-6.47055 -4.32254,-3.21129 -11.325439,-12.19448 -13.997449,-17.95567 -2.875094,-6.19906 -4.816377,-15.89497 -4.816377,-24.05576 v -7.34938 H 68.320617 56.848771 v -11.04996 -11.04996 h 11.471846 11.471845 v -5.23419 -5.23419 H 68.320617 56.848771 v -11.04996 -11.04995 h 11.471846 11.471845 v -5.23419 -5.23419 H 67.861743 55.931024 v -11.04996 -11.04996 h 11.930719 11.930719 v -4.65261 -4.65261 H 67.861743 55.931024 V 263.1862 252.13622 h 11.930719 11.930719 v -7.34938 c 0,-8.16079 1.941283,-17.8567 4.816377,-24.05576 2.67201,-5.76119 9.674909,-14.74438 13.997449,-17.95565 8.490342,-6.30762 9.973592,-6.47057 58.902412,-6.47057 h 45.26194 v -11.04994 -11.04996 h 8.7186 8.71861 v 11.04996 11.04994 h 6.8831 6.88311 v -11.04994 -11.04996 h 8.7186 8.7186 v 11.04996 11.04994 h 6.42424 6.42423 v -11.04994 -11.04996 h 8.7186 8.71861 v 11.04996 11.04994 h 7.34198 7.34198 v -11.63151 -11.63154 h 8.7186 8.7186 v 11.63154 11.63151 h 41.13207 c 44.42143,0 46.37328,0.2306 54.77256,6.47057 4.32253,3.21127 11.32543,12.19446 13.99744,17.95565 2.8751,6.19906 4.81638,15.89497 4.81638,24.05576 v 7.34938 h 11.47185 11.47185 v 11.04998 11.04996 H 440.0084 428.53655 v 4.65261 4.65261 h 11.47185 11.47185 v 11.04996 11.04996 H 440.0084 428.53655 v 5.23419 5.23419 h 11.47185 11.47185 v 11.04995 11.04996 H 440.0084 428.53655 v 5.23419 5.23419 h 11.93072 11.93072 v 11.04996 11.04996 h -11.93072 -11.93072 v 7.34938 c 0,8.16079 -1.94128,17.8567 -4.81638,24.05576 -2.67201,5.76119 -9.67491,14.74438 -13.99744,17.95567 -8.39928,6.23995 -10.35113,6.47055 -54.77256,6.47055 H 313.8181 v 10.46838 10.46838 h -8.7186 -8.7186 v -10.46838 -10.46838 h -7.34198 -7.34198 v 10.46838 10.46838 h -8.71861 -8.7186 v -10.46838 -10.46838 h -6.42423 -6.42424 v 11.04996 11.04995 h -8.7186 -8.7186 v -11.04995 -11.04996 h -6.88311 -6.8831 v 11.04996 11.04995 h -8.71861 -8.7186 z m 194.59747,-42.74589 c 2.99144,-1.91186 4.65133,-4.01561 6.15982,-7.80696 l 2.06493,-5.18986 v -70.45944 -70.45945 l -2.06493,-5.18986 c -1.50849,-3.79135 -3.16838,-5.89508 -6.15982,-7.80696 l -4.09489,-2.61709 H 254.16451 115.05579 l -4.09489,2.61709 c -2.99144,1.91188 -4.65133,4.01561 -6.15982,7.80696 l -2.06493,5.18986 v 70.45945 70.45944 l 2.06493,5.18986 c 1.50849,3.79135 3.16838,5.8951 6.15982,7.80696 l 4.09489,2.61709 H 254.16451 393.27322 Z M 206.69175,338.09277 c -4.71426,-1.42516 -9.03532,-6.62067 -10.2878,-12.36976 -0.50905,-2.33659 -0.83348,-4.33536 -0.72099,-4.44173 0.11257,-0.10632 2.76717,-0.51788 5.89924,-0.91448 5.53063,-0.70029 5.72911,-0.62992 6.89145,2.44371 2.51125,6.64059 10.87735,7.82924 11.57521,1.64459 0.44248,-3.9214 -1.06758,-5.49691 -7.42808,-7.75005 -12.0578,-4.27134 -16.04419,-9.17586 -15.05522,-18.52276 0.97038,-9.17134 8.78408,-14.34309 19.73645,-13.06322 8.66869,1.013 13.91881,6.14213 13.91881,13.59803 0,2.01791 -0.65925,2.27158 -5.90351,2.27158 -5.09521,0 -5.9832,-0.31816 -6.48541,-2.32361 -1.12387,-4.48787 -8.96879,-4.77582 -9.46584,-0.34744 -0.24954,2.22324 0.4198,2.81001 5.04761,4.42482 7.1443,2.49291 12.37086,4.98109 14.09602,6.71066 7.12518,7.1434 5.61061,21.08714 -2.89452,26.64812 -3.97909,2.6017 -13.56719,3.61077 -18.92342,1.99154 z m 32.7888,-25.94508 v -26.28 l 12.16015,0.0256 c 9.86917,0.0207 12.86887,0.43345 15.92195,2.19076 6.53448,3.76115 9.54555,11.62326 9.54555,24.92412 0,10.37986 -2.3827,17.10817 -7.61309,21.49797 -3.52713,2.96028 -4.40046,3.14262 -16.86716,3.52177 l -13.1474,0.39982 z m 22.90477,11.48874 c 0.89966,-1.14026 1.49961,-4.71628 1.72024,-10.25371 0.30316,-7.60873 0.112,-8.82755 -1.81846,-11.59084 -1.41817,-2.03009 -3.49349,-3.34529 -6.05766,-3.83899 l -3.90043,-0.751 v 14.84618 14.84618 l 4.33742,-0.75348 c 2.38559,-0.41441 4.95908,-1.54136 5.71889,-2.50434 z m 22.06486,-11.59779 v -26.17095 h 13.7957 c 15.10278,0 18.88076,1.095 21.54267,6.24395 1.99686,3.86251 1.96278,12.46784 -0.065,16.38998 -0.87415,1.69088 -2.79247,3.86285 -4.26293,4.82658 l -2.67355,1.75225 2.38943,2.3821 c 1.31417,1.31017 4.02867,6.51421 6.0322,11.56456 l 3.64277,9.18248 h -7.22435 -7.22437 l -3.0226,-7.26971 c -4.34889,-10.45954 -6.29885,-13.66705 -8.30861,-13.66705 -1.62085,0 -1.77301,0.89843 -1.77301,10.46838 v 10.46838 h -6.42423 -6.42423 z m 22.08627,-6.43827 c 1.00728,-0.68324 1.77517,-2.42654 1.77517,-4.03011 0,-3.51254 -2.39511,-5.23419 -7.28166,-5.23419 h -3.73131 v 5.23419 5.23419 h 3.73131 c 2.05224,0 4.53016,-0.54185 5.50649,-1.20408 z M 133.60334,293.97418 c -4.48801,-1.704 -9.76548,-7.12543 -12.34083,-12.67748 -2.04159,-4.40132 -2.46578,-6.71652 -2.46578,-13.45789 0,-6.77231 0.42129,-9.05037 2.50419,-13.54099 8.38965,-18.08758 29.73612,-18.08758 38.12576,0 2.0829,4.49062 2.50419,6.76868 2.50419,13.54099 0,6.74137 -0.42418,9.05657 -2.46577,13.45789 -5.1311,11.0618 -16.03681,16.4078 -25.86176,12.67748 z"
       id="path897" />
  </g>
</svg>
