<?xml version="1.0" encoding="UTF-8" standalone="no"?>
<!-- Created with Inkscape (http://www.inkscape.org/) -->

<svg
   xmlns:dc="http://purl.org/dc/elements/1.1/"
   xmlns:cc="http://creativecommons.org/ns#"
   xmlns:rdf="http://www.w3.org/1999/02/22-rdf-syntax-ns#"
   xmlns:svg="http://www.w3.org/2000/svg"
   xmlns="http://www.w3.org/2000/svg"
   xmlns:sodipodi="http://sodipodi.sourceforge.net/DTD/sodipodi-0.dtd"
   xmlns:inkscape="http://www.inkscape.org/namespaces/inkscape"
   version="1.1"
   id="svg834"
   width="100"
   height="100"
   viewBox="0 0 512 512"
   sodipodi:docname="singularity.svg"
   inkscape:version="0.92.4 (5da689c313, 2019-01-14)">
  <metadata
     id="metadata840">
    <rdf:RDF>
      <cc:Work
         rdf:about="">
        <dc:format>image/svg+xml</dc:format>
        <dc:type
           rdf:resource="http://purl.org/dc/dcmitype/StillImage" />
        <dc:title></dc:title>
      </cc:Work>
    </rdf:RDF>
  </metadata>
  <defs
     id="defs838" />
  <sodipodi:namedview
     pagecolor="#ffffff"
     bordercolor="#666666"
     borderopacity="1"
     objecttolerance="10"
     gridtolerance="10"
     guidetolerance="10"
     inkscape:pageopacity="0"
     inkscape:pageshadow="2"
     inkscape:window-width="1366"
     inkscape:window-height="686"
     id="namedview836"
     showgrid="false"
     inkscape:zoom="0.98046875"
     inkscape:cx="256"
     inkscape:cy="256"
     inkscape:window-x="0"
     inkscape:window-y="26"
     inkscape:window-maximized="1"
     inkscape:current-layer="svg834" />
  <path
     style="fill:#000000"
     d="m 243.56494,509.13553 c -16.38712,-7.87354 -23.89176,-26.09755 -16.93139,-41.1156 1.40198,-3.025 4.12524,-7.12229 6.05168,-9.1051 l 3.50262,-3.60509 -5.81146,-0.68154 c -34.30247,-4.02281 -73.59608,-21.36482 -101.78904,-44.92402 l -7.9776,-6.6664 -5.2724,5.20692 c -2.89983,2.8638 -5.27241,5.54648 -5.27241,5.96151 0,1.50317 15.68887,14.09278 26.70014,21.42564 13.34277,8.88552 35.53918,19.76388 50.57721,24.78767 5.92754,1.98022 11.41348,3.60041 12.19098,3.60041 0.7775,0 1.70803,0.47635 2.06785,1.05855 0.67796,1.09695 -2.29831,13.80481 -3.57742,15.2746 -1.20518,1.38485 -27.98607,-8.10622 -41.65053,-14.76084 -19.53233,-9.51228 -36.93286,-20.9215 -51.64124,-33.86024 l -6.833003,-6.01089 -10.18096,10.14631 -10.18096,10.14632 -5.73294,-5.73294 -5.73294,-5.73294 10.12478,-10.15935 10.12477,-10.15934 -6.39546,-7.35462 c -13.23853,-15.22398 -23.7137,-31.25928 -33.42248,-51.16285 -6.65586,-13.64489 -16.15929,-40.44231 -14.77095,-41.65053 1.46979,-1.27911 14.17765,-4.25538 15.2746,-3.57742 0.5822,0.35982 1.05855,1.29035 1.05855,2.06785 0,6.7931 16.23595,44.07059 25.46548,58.46833 6.32043,9.85966 17.54282,24.74006 21.46567,28.46255 l 3.121998,2.96256 5.473815,-5.47381 5.47381,-5.47381 -6.67571,-7.98874 C 78.821057,355.30401 61.480157,316.01675 57.456667,281.70848 l -0.68154,-5.81146 -3.6051,3.50262 c -9.10456,8.84575 -22.40694,11.11627 -33.60509,5.73589 C 3.1787773,277.26246 -4.3255427,259.04084 2.6320373,244.01993 10.324307,227.4129 28.942707,219.57988 44.064937,226.58854 c 3.025,1.40198 7.12229,4.12524 9.10509,6.05168 l 3.6051,3.50262 0.68154,-5.81146 c 4.02447,-34.3166 21.02166,-72.95133 44.596733,-101.36869 l 6.99763,-8.43493 -5.46647,-5.46647 -5.466475,-5.46647 -3.125098,2.96256 c -4.60915,4.36941 -16.75276,20.73905 -22.74773,30.66402 -8.00466,13.25212 -15.98184,30.57697 -20.68319,44.91979 -2.33725,7.13047 -4.52379,13.23874 -4.85898,13.57392 -0.68269,0.68269 -13.66893,-2.5404 -14.97617,-3.71696 -1.36436,-1.22799 7.84703,-27.20492 14.66678,-41.3616 9.41048,-19.53462 22.29119,-39.07968 35.26231,-53.50669 l 4.72656,-5.257055 -10.15572,-10.190401 -10.15572,-10.1904 5.73294,-5.73294 5.73294,-5.73293 10.18096,10.14631 10.18096,10.14631 6.833003,-6.01674 c 20.60475,-18.14335 49.09117,-34.718237 75.05373,-43.670191 l 10.22072,-3.524129 2.12952,7.206122 c 1.17123,3.963367 2.19691,7.576631 2.27928,8.029476 0.0824,0.452845 -4.80024,2.570602 -10.85024,4.706128 -14.56749,5.142024 -35.01893,15.380044 -47.72207,23.889724 -10.22766,6.8514 -25.77793,19.455791 -25.77793,20.894511 0,0.41503 2.37258,3.097705 5.27241,5.961505 l 5.2724,5.20692 7.9776,-6.6664 c 28.2508,-23.607516 67.4162,-40.892946 101.78904,-44.924016 l 5.81146,-0.68153 -3.50262,-3.6051 c -1.92644,-1.982803 -4.6497,-6.080096 -6.05168,-9.105096 -7.00866,-15.122228 0.82436,-33.74063 17.43139,-41.4328982 15.02091,-6.9575865 33.24253,0.54674 41.1156,16.9328982 5.38038,11.198149 3.10986,24.500532 -5.73589,33.605096 l -3.50262,3.6051 5.81146,0.68153 c 34.30827,4.0235 73.59553,21.3644 101.8002,44.933326 l 7.98874,6.67571 5.51126,-5.57522 5.51125,-5.575215 -6.5,-5.97559 c -12.48429,-11.477071 -37.94511,-27.050991 -57.5,-35.171711 -7.59165,-3.152639 -24.17188,-8.703026 -25.99788,-8.703026 -0.76125,0 -1.67848,-0.476345 -2.0383,-1.058545 -0.67796,-1.096958 2.29831,-13.804811 3.57742,-15.274602 1.26428,-1.452754 28.38702,8.286005 43.13281,15.487375 16.5055,8.060758 35.58947,20.493578 48.19573,31.398538 l 8.86979,7.67275 10.14418,-10.10966 10.14418,-10.10966 5.73294,5.73293 5.73294,5.73294 -10.16029,10.19499 -10.16029,10.194981 5.00528,5.476565 c 20.1184,22.01274 38.74286,55.45991 47.94653,86.10591 1.31225,4.36949 2.04595,8.23585 1.63044,8.59191 -1.58739,1.36028 -14.42635,4.1888 -15.17679,3.34357 -0.42972,-0.484 -1.57249,-3.805 -2.5395,-7.38 -6.35816,-23.50604 -23.99221,-56.4888 -40.83554,-76.37887 -3.31668,-3.91662 -6.31259,-7.4544 -6.65759,-7.86173 -0.345,-0.40733 -3.19297,1.85216 -6.32884,5.02109 l -5.70157,5.76169 6.6675,7.97891 c 23.56035,28.19435 40.90223,67.48721 44.92512,101.79036 l 0.68154,5.81146 3.60509,-3.50262 c 9.10457,-8.84575 22.40695,-11.11627 33.6051,-5.73589 21.34699,10.25661 25.97576,35.8597 9.36639,51.80827 -12.58951,12.08862 -30.9131,12.40208 -42.92311,0.73428 l -3.55673,-3.45539 -1.28023,9.04541 c -4.83731,34.17754 -21.42159,70.93627 -44.42207,98.46062 l -6.6664,7.9776 5.20692,5.2724 c 2.8638,2.89983 5.67228,5.2475 6.24107,5.21707 1.693,-0.0906 12.94588,-14.19924 20.91705,-26.22535 11.48771,-17.33153 22.64799,-41.05213 27.1563,-57.71931 0.96701,-3.575 2.10978,-6.896 2.5395,-7.38 0.77631,-0.87437 13.63139,2.00874 15.25446,3.42124 1.43417,1.2481 -8.24569,28.30454 -15.27598,42.69828 -9.54032,19.53277 -22.06512,38.44889 -34.37866,51.92187 l -5.00528,5.47657 10.16029,10.19499 10.16029,10.19498 -5.73294,5.73294 -5.73294,5.73294 -10.19498,-10.16029 -10.19499,-10.16029 -5.47657,5.00528 c -13.47298,12.31354 -32.3891,24.83834 -51.92187,34.37866 -14.39374,7.03029 -41.45018,16.71015 -42.69828,15.27598 -1.4125,-1.62307 -4.29561,-14.47815 -3.42124,-15.25446 0.484,-0.42972 3.805,-1.57249 7.38,-2.5395 16.66718,-4.50831 40.38778,-15.66859 57.71931,-27.1563 12.02611,-7.97117 26.13474,-19.22405 26.22535,-20.91705 0.0304,-0.56879 -2.31724,-3.37727 -5.21707,-6.24107 l -5.2724,-5.20692 -7.9776,6.6664 c -27.52435,23.00048 -64.28308,39.58476 -98.46062,44.42207 l -9.04541,1.28023 3.45539,3.55673 c 8.79814,9.05618 11.05733,22.38292 5.68865,33.55672 -8.0265,16.70549 -26.26915,23.98912 -41.6156,16.6156 z m 25,-70.09787 c 38.65948,-2.71119 73.96021,-16.3488 103.24927,-39.88793 4.53709,-3.64639 8.24959,-6.87017 8.25,-7.16396 4e-4,-0.29379 -2.44841,-2.95287 -5.44179,-5.90908 l -5.44253,-5.37492 -6.92507,5.59521 c -28.66349,23.15904 -62.76334,36.02993 -99.18988,37.43895 -42.08557,1.62791 -80.35274,-11.05701 -113.30748,-37.55952 l -6.80747,-5.47464 -5.44253,5.37492 c -2.99338,2.95621 -5.44219,5.61529 -5.44179,5.90908 0.002,1.14303 17.01223,14.17777 25.25956,19.3556 28.31875,17.77906 57.0287,26.2796 96.23971,28.49498 1.1,0.0622 7.85,-0.29726 15,-0.79869 z m -142.55676,-64.46025 5.37492,-5.44253 -5.58287,-6.9098 C 89.762157,317.62147 78.801497,259.0787 96.202817,204.14032 101.95185,185.98984 113.08996,165.54604 125.80023,149.81478 l 5.58287,-6.9098 -5.37492,-5.44253 c -2.95621,-2.99338 -5.61529,-5.44219 -5.90908,-5.44179 -0.29379,4.1e-4 -3.54118,3.7283 -7.21642,8.28422 -53.685823,66.55015 -53.685823,164.87995 0,231.4301 3.67524,4.55592 6.92263,8.28381 7.21642,8.28422 0.29379,4e-4 2.95287,-2.44841 5.90908,-5.44179 z m 273.18656,-2.80821 c 53.71222,-66.83255 53.73445,-164.91892 0.0525,-231.46432 -3.67524,-4.55592 -6.92263,-8.28381 -7.21642,-8.28422 -0.29379,-4e-4 -2.95287,2.44841 -5.90908,5.44179 l -5.37492,5.44253 5.47464,6.80747 c 26.50247,32.95474 39.18739,71.22191 37.55948,113.30748 -1.40902,36.42654 -14.27991,70.52639 -37.43895,99.18988 l -5.59521,6.92507 5.37492,5.44253 c 2.95621,2.99338 5.61529,5.44219 5.90908,5.44179 0.29379,-4.1e-4 3.51757,-3.71291 7.16396,-8.25 z m -118.6298,-15.20944 c 18.04811,-4.58729 33.08457,-13.14333 47.24301,-26.88221 14.28547,-13.86213 23.90763,-30.23662 28.88655,-49.15762 2.17788,-8.27642 2.64779,-12.32684 2.72637,-23.5 0.0537,-7.64046 -0.46479,-16.10424 -1.19463,-19.5 -9.15488,-42.59519 -41.27676,-74.70723 -83.6613,-83.63565 -8.09575,-1.70539 -28.38998,-1.68343 -37,0.0401 -41.89206,8.38557 -75.21003,41.70354 -83.5956,83.5956 -1.72348,8.61002 -1.74544,28.90425 -0.0401,37 8.91089,42.30131 43.09665,76.40551 83.63565,83.43612 3.3,0.57231 7.125,1.24107 8.5,1.48613 6.27143,1.11771 24.87825,-0.43686 34.5,-2.88242 z m -37.55572,-17.07818 c -13.37803,-9.85929 -23.86163,-36.49319 -26.45574,-67.21165 l -0.6967,-8.25 h 16.10408 16.10408 v 39 c 0,21.45 -0.36257,39 -0.80572,39 -0.44315,0 -2.35565,-1.14226 -4.25,-2.53835 z m 21.05572,-36.46165 v -39 h 16.10408 16.10408 l -0.6967,8.25 c -2.09788,24.84231 -9.444,47.58175 -19.43171,60.14965 -3.11365,3.91802 -9.75301,9.60035 -11.21725,9.60035 -0.47438,0 -0.8625,-17.55 -0.8625,-39 z m -50.9772,30.37217 c -24.49067,-13.63046 -40.47068,-37.04493 -44.44487,-65.12217 l -0.60157,-4.25 h 15.96651 15.9665 l 0.49757,3.25 c 0.27367,1.7875 0.76788,6.175 1.09825,9.75 1.54971,16.76956 8.6152,40.35827 16.09965,53.75 1.92118,3.4375 3.13352,6.24485 2.6941,6.23855 -0.43942,-0.006 -3.71368,-1.63366 -7.27614,-3.61638 z m 81.32318,-2.62217 c 7.97572,-14.4745 14.84281,-37.69885 16.18875,-54.75 1.05311,-13.3414 -0.90267,-12 17.49614,-12 h 15.99277 l -0.60157,4.25 c -3.07637,21.73424 -14.85568,42.9571 -31.11,56.0511 -6.0649,4.88569 -18.79725,12.6989 -20.69406,12.6989 -0.39374,0 0.83385,-2.8125 2.72797,-6.25 z m -125.76805,-87 c 3.07637,-21.73424 14.85568,-42.9571 31.11,-56.0511 6.12093,-4.93083 18.80244,-12.6989 20.73118,-12.6989 0.41416,0 -0.86792,2.89851 -2.84907,6.44114 -7.5436,13.48922 -14.50745,36.70611 -16.06485,53.55886 -0.33037,3.575 -0.82458,7.9625 -1.09825,9.75 l -0.49757,3.25 h -15.9665 -15.96651 z m 47.86576,-3.5 c 2.18711,-24.97543 8.8802,-46.65612 18.19568,-58.94058 3.82199,-5.04012 10.75025,-11.30942 12.49813,-11.30942 0.47438,0 0.8625,17.55 0.8625,39 v 39 h -16.11749 -16.11749 z m 47.55631,-31.25 c 0,-21.45 0.38812,-39 0.8625,-39 1.46424,0 8.1036,5.68233 11.21725,9.60035 9.98771,12.5679 17.33383,35.30734 19.43171,60.14965 l 0.6967,8.25 h -16.10408 -16.10408 z m 47.59306,35.75 c -0.27367,-1.7875 -0.76788,-6.175 -1.09825,-9.75 -1.54971,-16.76956 -8.6152,-40.35827 -16.09965,-53.75 -1.92118,-3.4375 -3.17089,-6.25 -2.77715,-6.25 1.32391,0 13.84372,7.20373 17.88199,10.28906 18.23926,13.93519 30.93719,35.68263 33.84233,57.96094 l 0.61941,4.75 H 328.09112 312.15557 Z M 150.05668,125.59614 c 40.02993,-32.342685 93.56297,-44.879636 143.00826,-33.491205 25.43065,5.85729 48.97625,17.306085 69.20515,33.650285 l 6.9098,5.58287 5.44253,-5.37492 c 2.99338,-2.95621 5.44219,-5.61529 5.44179,-5.90908 -0.002,-1.14303 -17.01223,-14.17777 -25.25956,-19.3556 -65.60245,-41.186476 -154.58829,-36.528316 -213.1957,11.1602 -3.82659,3.11368 -7.65192,6.19639 -8.50073,6.85047 -1.32965,1.02461 -0.78667,1.95897 3.92256,6.75 3.00621,3.05842 5.65645,5.56077 5.88941,5.56077 0.23296,0 3.44438,-2.4407 7.13649,-5.42379 z"
     id="path844"
     inkscape:connector-curvature="0" />
</svg>
