<?xml version="1.0" encoding="UTF-8" standalone="no"?>
<svg
   xmlns:dc="http://purl.org/dc/elements/1.1/"
   xmlns:cc="http://creativecommons.org/ns#"
   xmlns:rdf="http://www.w3.org/1999/02/22-rdf-syntax-ns#"
   xmlns:svg="http://www.w3.org/2000/svg"
   xmlns="http://www.w3.org/2000/svg"
   xmlns:sodipodi="http://sodipodi.sourceforge.net/DTD/sodipodi-0.dtd"
   xmlns:inkscape="http://www.inkscape.org/namespaces/inkscape"
   inkscape:version="1.0 (4035a4fb49, 2020-05-01)"
   sodipodi:docname="ssdp.svg"
   viewBox="0 0 512.00002 512.00002"
   height="100"
   width="100"
   id="svg885"
   version="1.1">
  <metadata
     id="metadata891">
    <rdf:RDF>
      <cc:Work
         rdf:about="">
        <dc:format>image/svg+xml</dc:format>
        <dc:type
           rdf:resource="http://purl.org/dc/dcmitype/StillImage" />
        <dc:title></dc:title>
      </cc:Work>
    </rdf:RDF>
  </metadata>
  <defs
     id="defs889" />
  <sodipodi:namedview
     inkscape:current-layer="g893"
     inkscape:window-maximized="1"
     inkscape:window-y="24"
     inkscape:window-x="0"
     inkscape:cy="249.24209"
     inkscape:cx="259.83903"
     inkscape:zoom="0.73535161"
     showgrid="false"
     id="namedview887"
     inkscape:window-height="692"
     inkscape:window-width="1366"
     inkscape:pageshadow="2"
     inkscape:pageopacity="0"
     guidetolerance="10"
     gridtolerance="10"
     objecttolerance="10"
     borderopacity="1"
     bordercolor="#666666"
     pagecolor="#ffffff" />
  <g
     id="g893"
     inkscape:label="Image"
     inkscape:groupmode="layer">
    <path
       id="path897"
       d="m 115.32284,504.51741 c -5.58519,-0.477 -13.77585,-1.88364 -19.369986,-3.32651 -8.942697,-2.3066 -15.388003,-4.74137 -23.728219,-8.96347 C 60.026145,486.05211 51.226999,479.56129 41.438552,469.51766 31.986297,459.81895 26.542995,452.21334 20.624964,440.43605 14.935133,429.11293 11.234657,417.54926 9.1927607,404.7115 8.3448245,399.38037 8.3037188,392.50379 8.3037188,255.98073 c 0,-136.52308 0.041106,-143.39967 0.8890419,-148.73079 C 12.561778,86.068306 21.088561,66.595411 33.987519,50.625301 38.08481,45.552476 47.470138,36.199295 52.370413,32.305381 61.199351,25.289622 74.344224,17.909566 84.572994,14.225571 91.134599,11.862344 100.77635,9.3875143 107.81697,8.2593405 113.12836,7.4082542 119.97951,7.366996 255.99728,7.366996 c 136.01778,0 142.86891,0.041258 148.1803,0.8923445 21.07008,3.3762255 40.49449,11.9469285 56.41508,24.8922455 8.72201,7.092024 17.92466,17.249299 24.2046,26.715326 3.78855,5.710676 9.76232,17.624506 12.06039,24.052697 2.35447,6.58598 4.82018,16.263561 5.94417,23.330331 0.8479,5.33112 0.88901,12.20771 0.88901,148.73079 0,160.03591 0.29179,146.22363 -3.39336,160.63896 -4.06751,15.91095 -11.57728,31.22421 -21.4527,43.74435 -3.88544,4.92602 -13.20377,14.34396 -18.25211,18.44722 -13.09569,10.64409 -28.79347,18.46649 -45.29702,22.57212 -13.88569,3.45434 -0.18878,3.17153 -156.87711,3.23886 -77.63728,0.0336 -142.03035,-0.0142 -143.09569,-0.10483 z M 221.48443,380.11543 c -0.16091,-0.16149 -0.57859,-0.17877 -0.92815,-0.0383 -0.3863,0.15514 -0.27156,0.27034 0.29257,0.29367 0.51048,0.0211 0.79649,-0.0938 0.63558,-0.25529 z M 94.126835,379.62939 c -0.160915,-0.16152 -0.578582,-0.17877 -0.928145,-0.0383 -0.386303,0.15515 -0.27156,0.27034 0.292567,0.29364 0.510478,0.0212 0.796487,-0.0938 0.635578,-0.25529 z m 124.098995,-0.40675 c 0,-0.11789 -0.21791,-0.34951 -0.48425,-0.51472 -0.26634,-0.16521 -0.48425,-0.0687 -0.48425,0.21435 0,0.28309 0.21791,0.51472 0.48425,0.51472 0.26634,0 0.48425,-0.0965 0.48425,-0.21435 z m -102.41874,-1.2438 c 0.1646,-0.26731 0.0685,-0.48603 -0.21355,-0.48603 -0.28206,0 -0.51283,0.21872 -0.51283,0.48603 0,0.26732 0.0961,0.48604 0.21354,0.48604 0.11745,0 0.34823,-0.21872 0.51284,-0.48604 z m 97.092,0 c 0.3995,-0.25914 0.50846,-0.47116 0.24212,-0.47116 -0.26634,0 -0.81112,0.21202 -1.21062,0.47116 -0.39951,0.25915 -0.50846,0.47117 -0.24213,0.47117 0.26634,0 0.81112,-0.21202 1.21063,-0.47117 z m -110.05576,-0.29366 c -0.16092,-0.1615 -0.57859,-0.17877 -0.92815,-0.0383 -0.3863,0.15518 -0.27156,0.27034 0.29257,0.29367 0.51048,0.0211 0.79649,-0.0937 0.63558,-0.25528 z m 272.56177,-0.67844 h 13.27652 v -32.80823 -32.80827 l 7.14266,-0.0126 c 12.92194,-0.0227 20.08319,-1.13618 26.62332,-4.13962 11.00191,-5.05246 17.64483,-15.3382 19.44889,-30.11425 0.68427,-5.60464 0.69899,-36.4282 0.0196,-41.33021 -1.4639,-10.56395 -4.50574,-17.42516 -10.36376,-23.37651 -4.3864,-4.45626 -8.07093,-6.59576 -15.129,-8.78488 l -4.25571,-1.31996 -25.54419,-0.17238 -25.54414,-0.17239 v 87.23685 c 0,47.98027 0.14894,87.62642 0.331,88.10262 0.2015,0.52701 0.40674,0.63765 0.52459,0.28277 0.14426,-0.43438 3.57783,-0.58301 13.4701,-0.58301 z m 13.27652,-120.29631 v -29.40655 h 8.14597 c 9.28912,0 11.54604,0.50074 14.28338,3.1691 3.32396,3.24017 3.47799,4.39145 3.47799,25.9938 0,17.39127 -0.0839,19.44059 -0.89133,21.76575 -1.184,3.40949 -2.67419,5.08561 -5.75594,6.474 -2.31815,1.04438 -3.32327,1.16238 -10.90676,1.28042 l -8.35331,0.13003 z M 120.40746,376.04254 c 4.60465,-0.77151 10.33748,-2.85191 13.98151,-5.07376 1.55848,-0.95023 4.33652,-3.31593 6.17343,-5.25709 7.63589,-8.06929 11.32495,-20.28184 10.6829,-35.36555 -0.39986,-9.39414 -1.57056,-14.42809 -5.15418,-22.1628 -4.24716,-9.16689 -10.50349,-16.8271 -23.98753,-29.37017 -19.20558,-17.86533 -23.939003,-25.54752 -23.963205,-38.89143 -0.01555,-8.567 1.842993,-12.66643 6.902455,-15.22501 5.28599,-2.67314 12.01467,-1.78361 15.8571,2.09632 3.01791,3.04735 3.46938,4.73857 3.73702,13.99867 l 0.22827,7.89829 h 13.02497 13.02496 v -7.57892 c 0,-15.27187 -3.81342,-26.10383 -11.84467,-33.64458 -3.92914,-3.68918 -8.00092,-5.98439 -13.57842,-7.654 -3.77159,-1.12901 -5.49361,-1.33783 -12.79292,-1.55132 -9.17817,-0.26845 -12.822542,0.14889 -18.638617,2.13441 -5.125425,1.74975 -9.431956,4.55874 -13.203193,8.61193 -7.262717,7.80574 -10.286155,17.27017 -10.350602,32.40098 -0.05455,12.80908 1.934305,20.33728 8.151459,30.85484 4.191242,7.09033 9.587259,13.06584 25.149023,27.84984 15.66434,14.88145 20.60784,24.00816 19.79823,36.55157 -0.35467,5.49487 -1.41564,8.4436 -3.95519,10.99259 -4.765,4.78271 -15.42226,4.81815 -19.915188,0.0662 -3.304776,-3.49533 -4.024337,-6.78056 -4.024337,-18.37343 v -8.72496 H 82.575036 69.439348 l 0.269941,11.30062 c 0.180183,7.54295 0.517898,12.38137 1.015612,14.5508 3.983105,17.36144 14.382442,27.38447 30.752359,29.63959 2.28833,0.31522 4.31409,0.70021 4.5017,0.85553 0.49275,0.40789 10.16663,-0.21507 14.4285,-0.92916 z m 87.85701,0.90861 c -0.10114,-0.16427 1.22183,-0.44321 2.93993,-0.6199 4.46195,-0.45884 11.10503,-2.4994 14.76942,-4.53672 1.84011,-1.02303 4.777,-3.38297 7.0701,-5.68111 3.20874,-3.21583 4.33305,-4.77131 6.17897,-8.5486 3.8026,-7.78124 5.5293,-17.34988 4.99942,-27.70476 -0.48774,-9.5312 -1.74895,-14.55172 -5.67769,-22.60123 -4.61438,-9.45433 -10.86426,-16.77963 -27.93067,-32.73672 -9.97756,-9.32902 -15.60156,-16.7353 -18.13942,-23.88791 -0.98165,-2.76665 -1.12119,-4.06546 -1.12276,-10.45004 -0.002,-6.59038 0.10626,-7.53036 1.12292,-9.78533 1.38213,-3.0656 2.99844,-4.66775 6.09595,-6.04254 5.09393,-2.26089 11.6935,-1.21016 15.30519,2.43676 3.0179,3.04735 3.46938,4.73857 3.73701,13.99867 l 0.22827,7.89829 h 13.02497 13.02497 v -7.22706 c 0,-11.32551 -1.84821,-19.60506 -5.92739,-26.5533 -5.06485,-8.62719 -13.28406,-14.22523 -23.61182,-16.08185 -4.94386,-0.88876 -17.44139,-0.87835 -21.63851,0.018 -8.29663,1.7719 -13.85996,4.76621 -18.88011,10.1617 -6.65529,7.15291 -9.97697,16.54817 -10.50689,29.71848 -0.42564,10.57847 1.21847,19.30521 5.20327,27.61822 4.64528,9.69093 11.00925,17.6798 22.33614,28.0392 15.92835,14.56783 22.32786,22.74449 24.75316,31.62711 1.20895,4.42777 1.20219,13.37641 -0.0128,16.92896 -1.80869,5.28859 -6.58869,8.30669 -13.15583,8.30669 -5.45675,0 -9.89895,-2.43882 -11.96946,-6.57146 -1.2875,-2.56973 -1.7942,-6.98473 -1.7942,-15.63299 v -8.4166 h -13.1357 -13.13569 l 0.26994,11.30063 c 0.28195,11.80303 0.69978,14.8153 2.95974,21.33795 2.46851,7.12457 8.27402,14.40049 14.40182,18.04954 3.85798,2.29733 10.71923,4.53358 15.29831,4.98608 1.93095,0.19083 3.51081,0.48272 3.51081,0.64869 0,0.16594 2.15832,0.30173 4.79625,0.30173 2.63794,0 4.7135,-0.13441 4.61236,-0.29863 z m 103.54574,-0.69189 c 5.84593,-0.88094 11.89518,-2.86988 15.6651,-5.15057 3.33125,-2.01526 8.70298,-7.59996 10.72916,-11.15451 2.18119,-3.82647 4.29614,-10.59744 5.16866,-16.54715 0.64702,-4.4123 0.7575,-12.10515 0.75714,-52.73622 -2.2e-4,-28.19744 -0.19903,-49.67284 -0.48817,-52.733 -0.66358,-7.02347 -1.98485,-11.95988 -4.66204,-17.4176 -4.26436,-8.69338 -11.58767,-14.41375 -21.96733,-17.15913 -4.02278,-1.06399 -4.71763,-1.08869 -30.62823,-1.08869 -14.58166,0 -26.51236,0.16404 -26.51267,0.36454 -3e-4,0.20049 -5.2e-4,39.51573 -5.2e-4,87.36719 v 87.00262 h 23.48928 c 18.66357,0 24.50837,-0.15355 28.44964,-0.74748 z M 287.47349,289.53359 V 227.2335 l 10.04818,0.1567 c 10.89372,0.16989 11.69626,0.34597 14.81284,3.24999 1.96052,1.82682 2.75888,3.60406 3.50516,7.80291 0.82679,4.65187 0.9924,96.00662 0.18333,101.13794 -0.93197,5.91096 -3.3663,9.3434 -7.9689,11.23618 -0.90837,0.37354 -5.03668,0.67596 -11.01666,0.80693 l -9.56395,0.20954 z M 68.101092,208.7916 c 3.734134,-6.60168 9.615734,-11.98149 17.198278,-15.73099 5.815892,-2.87591 10.663378,-4.26216 18.04332,-5.15992 l 4.79336,-0.5831 -0.44284,-2.4866 c -0.78395,-4.40181 -0.57908,-20.40109 0.3368,-26.30295 4.69253,-30.23833 20.87386,-56.06283 45.44594,-72.529141 2.60694,-1.746978 4.67711,-3.234436 4.60036,-3.305459 -0.0767,-0.07103 -2.31865,0.159796 -4.98202,0.512949 -25.4462,3.374072 -48.83863,16.023246 -65.424426,35.377461 -16.558297,19.32213 -25.375069,43.14743 -25.393838,68.62104 -0.0056,7.57896 0.896329,16.39465 2.304008,22.52023 0.911136,3.96488 0.721994,4.01503 3.521058,-0.93352 z m 379.822158,-1.4157 c 2.48943,-13.07083 2.3529,-29.42286 -0.35099,-42.04318 -5.92656,-27.66175 -23.20779,-52.38013 -46.95358,-67.160443 -9.77391,-6.083666 -22.02381,-11.049897 -33.24535,-13.478023 -4.79145,-1.036775 -13.55767,-2.281998 -13.55767,-1.925834 0,0.06482 1.79778,1.298004 3.99506,2.740412 21.61396,14.188583 37.66051,36.797778 43.89007,61.840098 2.67034,10.73434 3.76098,22.53375 2.9915,32.36355 -0.28779,3.67668 -0.65755,7.35869 -0.82164,8.18225 l -0.29835,1.49738 2.36071,0.002 c 3.28318,0.003 10.48271,1.22907 14.49483,2.46904 10.40927,3.21701 18.07931,8.87495 23.86401,17.60371 1.43012,2.158 2.30442,3.08631 2.51776,2.67327 0.1797,-0.34802 0.68086,-2.49191 1.11364,-4.76419 z"
       style="fill:#000000;stroke-width:0.485147" />
  </g>
</svg>
