<?xml version="1.0" encoding="UTF-8" standalone="no"?>
<svg
   xmlns:dc="http://purl.org/dc/elements/1.1/"
   xmlns:cc="http://creativecommons.org/ns#"
   xmlns:rdf="http://www.w3.org/1999/02/22-rdf-syntax-ns#"
   xmlns:svg="http://www.w3.org/2000/svg"
   xmlns="http://www.w3.org/2000/svg"
   viewBox="0 0 500 500"
   height="100"
   width="100"
   id="svg834"
   version="1.1">
  <metadata
     id="metadata840">
    <rdf:RDF>
      <cc:Work
         rdf:about="">
        <dc:format>image/svg+xml</dc:format>
        <dc:type
           rdf:resource="http://purl.org/dc/dcmitype/StillImage" />
        <dc:title></dc:title>
      </cc:Work>
    </rdf:RDF>
  </metadata>
  <defs
     id="defs838" />
  <path
     id="path846"
     d="m 199.41343,452.29662 c -5.70573,-2.55574 -17.26802,-17.274 -19.04923,-24.24882 -1.67579,-6.56196 -4.15855,-44.87465 -4.20496,-64.88891 -0.0467,-20.1465 2.71633,-28.52814 17.84347,-54.12763 7.26116,-12.28799 12.69174,-22.34181 12.06797,-22.34181 -0.62378,0 -6.50484,1.9884 -13.06904,4.4187 -6.5642,2.43029 -14.5644,5.3102 -17.77821,6.39985 -5.03989,1.70876 -5.96276,2.8041 -6.7122,7.96673 -2.22235,15.30893 -10.74646,31.87421 -41.53847,80.72354 -17.13103,27.17716 -32.791104,50.34362 -34.851383,51.55675 -5.754658,3.38843 -49.867481,11.62058 -57.938637,10.81226 -8.15994,-0.81721 -16.28275,-7.56283 -19.854149,-16.48795 -3.355896,-8.38659 -6.2157945,-71.47093 -3.774723,-83.26418 1.105898,-5.34278 60.034972,-101.02985 66.632001,-108.19481 2.548796,-2.76821 8.315182,-7.66831 12.814177,-10.88911 l 8.179994,-5.85598 0.575059,-27.65977 0.57505,-27.65978 14.053871,-22.25558 c 7.72961,-12.24058 15.06819,-23.92504 16.30797,-25.96548 2.10834,-3.46995 2.47589,-3.52207 5.68351,-0.806 2.6805,2.26973 4.94892,8.99007 10.38746,30.77365 3.82693,15.32838 7.43444,28.61469 8.0167,29.52512 0.6237,0.97521 1.80833,0.85129 2.88331,-0.30167 1.38515,-1.48559 5.3358,1.92124 16.40132,14.14355 8.01718,8.85529 14.93022,16.5574 15.36231,17.11579 0.43211,0.5584 -1.6369,12.11042 -4.5978,25.67111 -2.96089,13.56071 -4.9858,25.1697 -4.49981,25.79776 0.48599,0.62805 3.03312,-0.57489 5.66029,-2.6732 4.19724,-3.3523 5.27621,-5.9387 8.89476,-21.32188 l 4.11811,-17.5068 16.93542,1.20337 c 12.64588,0.89859 18.31966,2.11094 22.40049,4.78655 5.34127,3.50199 5.50721,3.50542 7.32504,0.15138 2.0047,-3.69875 19.68983,-19.93122 26.90565,-24.69563 l 4.41361,-2.91417 0.92967,-25.14637 c 1.43347,-38.77394 0.23528,-34.81186 20.07035,-66.36634 9.70988,-15.446889 18.11513,-28.303463 18.67833,-28.570196 0.5632,-0.266715 2.67176,1.785083 4.6857,4.559554 2.54987,3.512807 5.90185,14.181835 11.03951,35.137562 4.05781,16.55118 7.6757,30.74845 8.03977,31.54949 0.36407,0.80102 1.55802,0.49535 2.65323,-0.67929 1.2891,-1.38258 2.61335,-1.52561 3.75539,-0.40555 1.98669,1.94842 32.14333,33.28216 34.02918,35.35743 0.66924,0.73647 -1.71231,12.69695 -5.29232,26.57886 -6.16806,23.91747 -7.74215,33.44284 -5.52651,33.44284 0.54044,0 3.32533,-2.09807 6.18866,-4.6624 4.80067,-4.29935 5.51317,-6.15979 9.15024,-23.89279 2.29735,-11.20107 4.79079,-19.65026 5.97183,-20.23594 1.11519,-0.55303 11.29025,-0.0813 22.61123,1.0482 18.80104,1.87587 20.88001,2.43679 24.00648,6.47715 4.0606,5.24758 5.72493,1.54063 -16.94582,37.74338 l -16.48212,26.32016 -23.08663,7.93571 -23.08661,7.93568 -1.68661,9.1758 c -3.71882,20.23158 -9.74586,32.40706 -43.12464,87.11784 -25.48332,41.76942 -34.17253,54.7652 -38.8508,58.10604 -4.12794,2.94786 -14.30102,6.25105 -32.29748,10.48697 -27.40509,6.4505 -34.92736,7.16678 -41.99896,3.99926 z M 68.547952,409.34145 C 78.299585,394.21904 77.780289,389.41281 64.951714,376.0567 49.487242,359.9563 46.896546,359.9134 37.240742,375.59784 l -6.457874,10.48988 3.851751,3.64764 c 2.118467,2.00621 8.941496,9.14508 15.162288,15.86417 6.220791,6.7191 11.727712,12.25897 12.237581,12.31079 0.509884,0.0518 3.44094,-3.80414 6.513464,-8.56887 z M 50.975316,396.49828 c -5.572673,-5.72581 -10.176992,-11.10458 -10.23182,-11.95283 -0.193516,-2.99367 5.76623,-12.13639 7.911187,-12.13639 3.061516,0 20.214831,17.99339 20.214831,21.20484 0,2.77298 -5.592883,13.50396 -6.969013,13.37135 -0.436186,-0.0421 -5.352512,-4.76117 -10.925185,-10.48697 z m 193.391064,10.71741 c 5.00601,-8.2344 6.55898,-12.32246 6.55898,-17.26598 0,-5.94767 -1.00817,-7.52562 -12.33357,-19.30417 -17.0793,-17.76267 -19.96163,-17.55526 -32.14907,2.31352 -4.58775,7.47927 -5.0807,9.11263 -3.3779,11.19272 4.46437,5.45351 32.73785,33.85282 33.70286,33.85282 0.57185,0 3.99127,-4.85502 7.5987,-10.78891 z m -19.72318,-12.1747 c -14.97644,-15.73443 -14.26058,-14.16464 -9.85968,-21.62111 2.10425,-3.56526 4.93765,-6.48228 6.29642,-6.48228 3.57662,0 22.78899,20.15868 22.78899,23.91147 0,3.29881 -6.48476,14.38878 -8.41372,14.38878 -0.6085,0 -5.47391,-4.58859 -10.81201,-10.19686 z M 97.881864,360.51134 c 1.267815,-6.075 -1.043533,-10.7947 -9.972426,-20.36329 C 72.302776,323.42324 69.791464,323.30201 59.920665,338.7968 l -6.50621,10.21319 3.846487,4.07358 c 2.115573,2.24048 9.213874,9.67165 15.774009,16.51373 l 11.927497,12.44016 6.07461,-8.9178 c 3.341035,-4.90479 6.421194,-10.57853 6.844806,-12.60832 z m -21.95592,1.68051 c -14.2611,-15.27688 -13.756495,-14.09653 -9.273645,-21.69186 3.86012,-6.54024 3.917588,-6.56635 7.639969,-3.47281 7.527388,6.25575 17.157817,17.55054 17.157817,20.12308 0,2.74276 -5.577908,13.46457 -6.969013,13.39575 -0.436186,-0.0216 -4.285989,-3.78095 -8.555128,-8.35416 z m 193.698946,4.40881 c 5.33247,-8.84177 6.70361,-12.54355 6.70361,-18.09836 0,-6.64356 -0.62436,-7.6067 -12.84016,-19.80742 -16.33532,-16.31514 -18.40231,-16.51519 -27.64764,-2.67603 -3.72878,5.58156 -7.25588,11.24809 -7.83799,12.59234 -0.73695,1.70175 4.19077,8.007 16.22444,20.75993 9.50556,10.07372 17.60039,18.32238 17.98849,18.33033 0.3881,0.007 3.72227,-4.9874 7.40925,-11.10079 z m -10.28012,-2.85474 c -0.0265,-0.75234 -5.07122,-6.29219 -11.21039,-12.31081 -6.13916,-6.01861 -11.17224,-11.76364 -11.18463,-12.76675 -0.0437,-3.54375 8.06576,-14.01165 10.37448,-13.39151 2.75013,0.73868 21.51431,19.74766 22.48823,22.78163 0.75345,2.34709 -7.12029,17.0553 -9.1302,17.0553 -0.70905,0 -1.31092,-0.61554 -1.33749,-1.36786 z M 116.07576,333.4807 c 5.34058,-9.0486 4.73882,-14.97014 -2.39793,-23.59638 -14.627661,-17.68058 -22.557407,-18.36091 -28.404617,-2.43695 -3.179923,8.66005 -1.488539,13.34699 8.534354,23.64931 10.647123,10.94391 16.825643,11.60538 22.268193,2.38402 z m -18.627711,-8.76886 c -8.018403,-8.12839 -8.773158,-11.00186 -4.692228,-17.86388 l 2.654247,-4.46305 5.429262,4.75591 c 5.62693,4.92908 13.19132,13.67463 13.19132,15.25113 0,2.83543 -4.91022,9.88829 -6.86591,9.86193 -1.26909,-0.0164 -5.6416,-3.41102 -9.716691,-7.54204 z m 196.359391,1.94064 c 5.38469,-5.47371 7.86646,-12.59011 6.74827,-19.35047 -0.6764,-4.08946 -3.65246,-8.55654 -10.58396,-15.8866 -7.99185,-8.45135 -10.57199,-10.19742 -15.06858,-10.19742 -4.54746,0 -6.12749,1.10042 -9.76222,6.79891 -5.7522,9.01832 -5.91908,17.99174 -0.45556,24.49703 8.59189,10.23014 17.85156,17.94723 21.53472,17.94723 2.11233,0 5.52662,-1.71389 7.58733,-3.80868 z m -17.83177,-13.88032 c -5.39034,-5.58444 -8.11489,-9.73674 -8.11489,-12.36742 0,-5.07298 6.18361,-12.77644 8.71606,-10.85836 4.60782,3.48997 18.09837,19.61091 18.09837,21.62719 0,3.04897 -6.057,10.1876 -8.55867,10.08708 -1.11428,-0.0449 -5.67768,-3.86459 -10.14087,-8.48849 z M 136.82975,299.37939 c 6.52113,-8.85897 7.16312,-16.08311 2.01994,-22.72968 -5.89892,-7.62326 -9.7315,-7.60995 -17.81869,0.0621 -6.2787,5.95626 -7.6104,6.55646 -10.61794,4.78557 -1.89136,-1.11373 -3.43883,-3.1629 -3.43883,-4.55379 0,-3.65452 5.49702,-12.1399 7.8645,-12.1399 1.10797,0 2.0145,-0.34324 2.0145,-0.76274 0,-0.41951 0.38547,-2.06095 0.85663,-3.64764 0.66396,-2.23603 -0.0968,-2.8849 -3.38202,-2.8849 -5.8677,0 -12.99876,10.48956 -12.99876,19.12076 0,4.91823 0.99208,7.20498 4.71989,10.87948 2.59595,2.5588 5.65956,4.65236 6.80802,4.65236 1.14846,0 5.2145,-2.87251 9.03563,-6.38338 8.05379,-7.39982 9.16388,-7.64485 12.57387,-2.77543 2.44157,3.48655 2.39904,3.8241 -1.26437,10.03103 -2.08503,3.53269 -4.71126,6.42307 -5.83607,6.42307 -1.12481,0 -2.04511,0.34325 -2.04511,0.76274 0,0.41952 -0.38548,2.06096 -0.85664,3.64764 -0.6537,2.2015 0.0668,2.88491 3.0411,2.88491 2.71823,0 5.53986,-2.23086 9.32435,-7.37209 z M 320.6895,284.22184 c 3.95196,-6.23262 5.03399,-9.54486 5.03399,-15.40968 0,-6.32832 -0.72168,-8.18192 -4.71989,-12.12296 -2.59595,-2.55879 -5.98358,-4.65236 -7.52811,-4.65236 -1.54451,0 -6.50926,3.35044 -11.03276,7.44543 -7.31001,6.61752 -8.58315,7.19742 -11.44941,5.21505 -1.77366,-1.22672 -3.52717,-3.24856 -3.89669,-4.49296 -0.90397,-3.04437 5.7502,-15.4628 8.28545,-15.4628 2.28272,0 5.51736,-6.6175 3.87559,-7.92877 -2.71519,-2.1686 -9.22727,1.69115 -13.73698,8.14199 -6.69542,9.57735 -6.82876,17.84669 -0.40996,25.42309 2.5016,2.95277 6.00172,5.36865 7.77803,5.36865 1.77631,0 7.04747,-3.3678 11.7137,-7.48398 7.41517,-6.54111 8.79111,-7.17297 10.9215,-5.0155 2.85217,2.88845 4.50245,5.5901 4.53278,7.42051 0.0418,2.5254 -8.76254,14.19808 -10.70923,14.19808 -1.08391,0 -1.97073,0.34324 -1.97073,0.76274 0,0.41951 -0.38548,2.06095 -0.85664,3.64764 -0.68172,2.29585 0.16348,2.8849 4.13937,2.8849 4.18438,0 5.81381,-1.28975 10.02999,-7.93907 z m 50.90077,144.87992 c -5.00884,-4.40882 -6.15147,-10.44168 -6.26945,-33.1014 l -0.0813,-15.62089 16.38717,-27.83076 c 15.05785,-25.57319 23.58556,-36.70689 30.18995,-39.41578 2.13933,-0.87748 2.6185,-3.56905 3.03218,-17.0325 l 0.49133,-15.99033 7.74755,-13.12472 c 4.26117,-7.2186 8.13197,-13.12472 8.60182,-13.12472 2.20075,0 5.29004,7.60496 8.33482,20.51799 2.43166,10.31277 3.97396,14.13462 5.70398,14.13462 1.86408,0 8.89234,5.86294 16.78239,13.99983 0.32897,0.33923 -0.89281,6.76048 -2.71506,14.26941 -1.82225,7.50893 -3.01629,14.03626 -2.65343,14.5052 0.36287,0.46893 2.00714,0.39726 3.65395,-0.15922 2.2622,-0.76451 3.47584,-3.53344 4.96442,-11.32654 l 1.97024,-10.31467 9.79244,0.64608 c 9.91303,0.65404 15.26493,2.80282 14.46489,5.80764 -0.24123,0.90599 -4.33317,7.62134 -9.0932,14.92304 l -8.65462,13.27584 -11.39414,3.48634 c -10.79711,3.30368 -11.44169,3.78152 -12.30126,9.11912 -1.43697,8.923 -6.10277,18.51844 -21.46855,44.15107 -17.24128,28.7613 -19.03773,30.19404 -39.13938,31.21516 -12.43946,0.63192 -14.61487,0.27503 -18.34671,-3.00977 z m 26.00635,-17.72649 c 1.60875,-2.64303 2.925,-6.19892 2.925,-7.90194 0,-3.92221 -10.20346,-14.64987 -13.934,-14.64987 -2.47889,0 -9.75627,10.15255 -8.4477,11.78526 2.71221,3.38402 14.83844,15.4568 15.57567,15.50697 0.52581,0.0357 2.27228,-2.0974 3.88103,-4.74042 z m -10.26929,-5.3277 c -4.15081,-4.63694 -5.18832,-6.90945 -4.47692,-9.80606 1.27216,-5.17993 4.89895,-4.723 10.50317,1.32321 3.62847,3.91464 4.50201,5.98639 3.774,8.95062 -1.50461,6.12639 -4.00421,6.00707 -9.80025,-0.46777 z m 22.9772,-15.22588 c 1.60526,-2.91337 2.91866,-6.13232 2.91866,-7.15318 0,-2.88623 -11.50265,-14.90709 -14.26445,-14.90709 -2.5021,0 -8.71787,8.61166 -8.00134,11.08549 0.51039,1.76211 14.2141,16.12208 15.46609,16.20674 0.52929,0.0357 2.27576,-2.31859 3.88104,-5.23196 z m -10.96561,-5.29998 c -6.09757,-6.81302 -6.1117,-6.8573 -3.51233,-11.00571 l 2.60985,-4.16517 5.9821,5.6001 c 3.29014,3.08007 5.98208,6.76743 5.98208,8.19414 0,2.07191 -3.64137,8.49753 -4.68748,8.27161 -0.13859,-0.0299 -3.007,-3.13268 -6.37422,-6.89497 z m 22.95682,-14.15483 c 3.57778,-4.62361 2.58915,-9.21409 -3.27767,-15.21896 -6.54914,-6.70323 -7.77487,-6.88401 -10.65436,-1.57125 -3.36401,6.20671 -2.67636,9.51372 3.07861,14.80538 6.10531,5.61377 7.80482,5.92459 10.85342,1.98483 z m -9.77819,-5.22759 c -3.45357,-3.6118 -3.95518,-5.01866 -2.72175,-7.63364 2.29055,-4.85612 3.69345,-4.70085 9.01529,0.99781 4.21735,4.51597 4.62627,5.62656 3.0026,8.15488 -2.55046,3.9714 -4.32321,3.68172 -9.29614,-1.51905 z m 21.87493,-13.79227 c 3.18568,-4.11689 3.64403,-9.1518 1.12903,-12.40198 -2.50735,-3.24027 -5.91864,-2.67133 -10.22401,1.70522 -3.60109,3.66063 -3.97166,3.70838 -6.18829,0.79715 -2.20617,-2.89748 -2.10315,-3.38249 1.60193,-7.54145 3.01343,-3.38256 3.38789,-4.4448 1.56688,-4.4448 -2.81069,0 -6.12342,5.07115 -6.18738,9.47166 -0.0247,1.69854 1.31501,4.3192 2.97711,5.82366 2.75911,2.49747 3.40363,2.36805 7.40925,-1.48767 2.41299,-2.32269 5.18111,-3.84905 6.15137,-3.39191 2.73679,1.28945 2.08012,7.53652 -1.05846,10.06956 -1.55242,1.2529 -2.82258,2.90131 -2.82258,3.6631 0,2.54395 2.79165,1.42507 5.64515,-2.26254 z m 29.08367,-56.21998 c -0.79252,-1.65714 11.90846,-25.74996 13.60771,-25.81283 2.15233,-0.0798 0.91514,3.99119 -4.71318,15.50803 -5.57729,11.41242 -7.371,13.49054 -8.89453,10.3048 z m -5.85242,-5.90486 c -0.50995,-1.06632 -0.0257,-3.3233 1.07601,-5.01551 1.10176,-1.69224 6.98997,-10.87361 13.0849,-20.40308 6.09494,-9.52946 11.5959,-18.0923 12.22439,-19.02853 0.62847,-0.93623 1.56943,-1.15074 2.09102,-0.47669 0.97433,1.25914 -24.82126,46.68874 -26.57396,46.80041 -0.53635,0.0341 -1.39242,-0.81031 -1.90236,-1.8766 z m -5.32557,-6.53444 c -0.53365,-0.68963 -0.97026,-1.8566 -0.97026,-2.59326 0,-1.78983 16.87647,-20.62266 17.61968,-19.66222 0.61533,0.79523 -13.0433,22.17138 -14.70606,23.01541 -0.53521,0.27167 -1.40972,-0.0702 -1.94336,-0.75993 z M 16.334607,249.19387 C 10.236809,244.91741 9.1416654,240.07845 8.5163674,214.6485 L 7.9333657,190.93882 20.772013,170.87678 c 21.203422,-33.13307 28.151209,-42.53571 33.15996,-44.87633 l 4.741652,-2.21581 0.565502,-16.70929 0.565502,-16.709306 9.106574,-14.880778 c 8.47751,-13.852855 9.259038,-14.662686 11.31363,-11.723543 1.213861,1.736479 3.961549,10.352668 6.105955,19.147081 2.152761,8.828699 4.51171,15.500385 5.267214,14.896973 0.752568,-0.601076 5.463213,2.872863 10.468088,7.719833 7.85408,7.6063 8.9912,9.43211 8.30657,13.33746 -0.43629,2.48864 -6.30126,13.36141 -13.033294,24.16172 l -12.240066,19.63695 -0.705643,18.89133 -0.705642,18.89134 -8.08407,11.66159 c -4.44623,6.41389 -11.795541,16.91865 -16.331794,23.34394 l -8.247736,11.68231 -14.010848,2.38666 c -17.163984,2.92377 -16.020857,2.94174 -20.67896,-0.32504 z m 25.455075,-20.79286 c 4.650214,-8.12832 3.931672,-11.72956 -3.804713,-19.06865 -3.790981,-3.59626 -7.569134,-6.5387 -8.395893,-6.5387 -2.40349,0 -9.29635,12.7368 -7.861976,14.52755 2.914884,3.63901 15.449329,16.35225 16.181547,16.41233 0.436186,0.0357 2.182651,-2.36384 3.881035,-5.33253 z m -10.614533,-6.10617 c -6.670102,-6.53769 -7.193139,-8.48621 -3.452343,-12.86119 2.452546,-2.8683 2.922038,-2.71724 8.114892,2.61115 3.031455,3.11058 5.777323,5.99604 6.101905,6.41217 0.753922,0.96652 -2.911158,9.9051 -4.004029,9.76529 -0.450991,-0.0577 -3.493186,-2.72504 -6.760425,-5.92742 z m 23.479078,-15.18758 c 4.425495,-7.27067 3.636318,-11.74382 -3.254707,-18.44822 -3.350843,-3.26008 -7.022853,-5.92741 -8.160039,-5.92741 -1.137185,0 -3.901386,2.47356 -6.142677,5.49679 -3.551133,4.79007 -3.811896,5.83011 -2.028144,8.08919 3.309013,4.19078 14.664414,15.39926 15.704532,15.50135 0.525816,0.0516 2.272282,-2.06867 3.881035,-4.7117 z m -10.93131,-6.52772 c -3.245928,-3.22397 -5.901686,-6.37964 -5.901686,-7.01261 0,-0.63298 1.234904,-2.59512 2.744231,-4.36032 2.635971,-3.08282 2.968851,-3.00403 8.437582,1.99713 5.8399,5.34058 7.040071,9.19789 4.060071,13.04898 -2.360869,3.05098 -2.707466,2.91467 -9.340198,-3.67318 z M 68.587256,186.0145 c 3.190917,-4.12366 1.838327,-10.15837 -3.567504,-15.91685 -5.985925,-6.37638 -8.254115,-6.86861 -11.916076,-2.58583 -3.679151,4.30284 -3.217477,7.81397 1.929834,14.67702 4.705649,6.27417 10.412592,7.88501 13.553746,3.82566 z m -11.71367,-6.0632 c -3.425006,-3.61844 -3.94498,-5.06601 -2.721748,-7.57711 2.417518,-4.96276 4.314017,-4.78753 9.196063,0.84967 8.163271,9.42598 2.071513,15.7559 -6.474315,6.72744 z m 23.911838,-14.03988 c 3.284146,-6.05936 2.774418,-12.09911 -1.219563,-14.45083 -2.834962,-1.66928 -4.164746,-1.32319 -7.812174,2.03318 -7.689036,7.07552 -12.11631,0.27485 -4.64828,-7.14018 l 3.881035,-3.8535 -3.481049,0.50968 c -2.046251,0.2996 -4.353745,2.52557 -5.59833,5.40057 -1.933038,4.46526 -1.887411,5.21913 0.524378,8.66314 3.338184,4.76689 5.530926,4.74823 10.594901,-0.0901 7.099503,-6.78321 10.034003,0.56271 3.399169,8.50908 -3.517011,4.21223 -3.562723,4.47246 -0.785677,4.47246 1.621751,0 3.937261,-1.82406 5.14559,-4.05346 z m 109.740636,31.3248 c -1.63482,-3.38293 -0.57101,-5.92804 11.0557,-26.45015 7.07551,-12.48888 13.39849,-22.70706 14.05106,-22.70706 3.47913,0 1.24479,6.80294 -9.26135,28.19833 -6.39009,13.01319 -12.16243,23.8947 -12.82745,24.18117 -0.66501,0.28647 -2.02309,-1.16356 -3.01796,-3.22229 z m -10.87062,-10.85696 c -2.28771,-3.26682 -2.33272,-3.98085 -0.43111,-6.83933 1.94382,-2.92192 49.04082,-76.94101 50.11273,-78.7587 0.25633,-0.43467 1.19011,0.14536 2.07507,1.28904 1.20452,1.5566 -4.71095,12.87434 -23.52963,45.01801 -13.82626,23.61624 -25.25882,42.93862 -25.40568,42.93862 -0.14684,0 -1.41646,-1.64143 -2.82138,-3.64764 z m -11.2657,-12.73163 c -2.59223,-3.70166 -2.45676,-3.94284 12.79058,-22.77175 13.59854,-16.79282 18.93876,-21.89089 18.93876,-18.07998 0,0.9822 -20.23184,32.21938 -26.7733,41.33694 -2.23794,3.11926 -2.44616,3.09889 -4.95604,-0.48521 z m 213.11444,-3.63291 c -2.45114,-3.5002 -2.1221,-4.31533 12.13002,-30.04992 8.05722,-14.54869 15.05786,-26.47155 15.55696,-26.49528 0.49912,-0.0237 1.3057,1.29794 1.79239,2.93703 0.57386,1.93258 -3.71391,12.4989 -12.19775,30.05892 -7.19547,14.89333 -13.46056,27.09412 -13.9224,27.1129 -0.46186,0.0188 -1.9735,-1.58485 -3.35922,-3.56365 z M 368.7677,157.19813 c -2.28597,-3.26434 -2.33167,-3.98305 -0.43496,-6.83934 1.16569,-1.75542 14.07057,-22.06824 28.67752,-45.13958 14.60695,-23.071342 27.08827,-42.727578 27.73629,-43.680525 0.73391,-1.079264 1.80367,-0.92435 2.8368,0.41078 1.27059,1.642004 -4.91959,13.444373 -26.46161,50.452505 -15.4661,26.56998 -28.49807,48.33938 -28.95991,48.37644 -0.46186,0.0371 -1.98921,-1.57408 -3.39413,-3.58028 z m -12.72501,-14.62405 c -2.61983,-3.74109 -2.5059,-3.93566 14.92151,-25.48466 15.73327,-19.454189 21.16331,-24.749837 21.05437,-20.533362 -0.0414,1.601807 -30.8307,48.548742 -32.32438,49.287552 -0.55633,0.27518 -2.19952,-1.19611 -3.6515,-3.26953 z M 111.92063,107.96939 c -1.01573,-2.12392 -0.7059,-2.83196 8.23187,-18.812229 6.33792,-11.331878 9.4023,-14.735675 9.4023,-10.44375 0,2.69477 -14.23043,31.065349 -15.58211,31.065349 -0.6527,0 -1.57613,-0.81422 -2.05206,-1.80937 z m -7.06181,-7.30654 c -1.06466,-2.226213 -0.7453,-2.799714 17.57278,-31.558279 13.50448,-21.201414 18.59835,-27.517928 16.50425,-20.465666 -1.23227,4.14996 -30.86693,53.844575 -32.10943,53.844575 -0.60329,0 -1.48871,-0.81928 -1.9676,-1.82063 z m -6.352311,-8.210391 c -0.997422,-1.553147 -1.564237,-3.045636 -1.259569,-3.316674 0.304655,-0.271038 4.84335,-5.719248 10.08598,-12.107147 5.24263,-6.387899 9.9119,-11.123488 10.37614,-10.523541 0.46424,0.599947 -3.12153,7.0939 -7.96836,14.430988 -4.84683,7.337105 -8.94929,13.5652 -9.11655,13.840215 -0.16728,0.275014 -1.120211,-0.77071 -2.117641,-2.323841 z"
     style="fill:#000000;stroke-width:1.60434806" />
</svg>
