<?xml version="1.0" encoding="UTF-8" standalone="no"?>
<!-- Created with Inkscape (http://www.inkscape.org/) -->

<svg
   xmlns:dc="http://purl.org/dc/elements/1.1/"
   xmlns:cc="http://creativecommons.org/ns#"
   xmlns:rdf="http://www.w3.org/1999/02/22-rdf-syntax-ns#"
   xmlns:svg="http://www.w3.org/2000/svg"
   xmlns="http://www.w3.org/2000/svg"
   xmlns:sodipodi="http://sodipodi.sourceforge.net/DTD/sodipodi-0.dtd"
   xmlns:inkscape="http://www.inkscape.org/namespaces/inkscape"
   version="1.1"
   id="svg869"
   width="100"
   height="100"
   viewBox="0 0 400 400"
   sodipodi:docname="telegram-black.svg"
   inkscape:version="0.92.4 (5da689c313, 2019-01-14)">
  <metadata
     id="metadata875">
    <rdf:RDF>
      <cc:Work
         rdf:about="">
        <dc:format>image/svg+xml</dc:format>
        <dc:type
           rdf:resource="http://purl.org/dc/dcmitype/StillImage" />
        <dc:title></dc:title>
      </cc:Work>
    </rdf:RDF>
  </metadata>
  <defs
     id="defs873" />
  <sodipodi:namedview
     pagecolor="#ffffff"
     bordercolor="#666666"
     borderopacity="1"
     objecttolerance="10"
     gridtolerance="10"
     guidetolerance="10"
     inkscape:pageopacity="0"
     inkscape:pageshadow="2"
     inkscape:window-width="1366"
     inkscape:window-height="691"
     id="namedview871"
     showgrid="false"
     inkscape:zoom="1.23"
     inkscape:cx="215.04065"
     inkscape:cy="200"
     inkscape:window-x="0"
     inkscape:window-y="24"
     inkscape:window-maximized="1"
     inkscape:current-layer="svg869" />
  <path
     style="fill:#000000"
     d="M 173.42846,376.87538 C 133.01694,370.29844 99.60865,352.85024 71.39424,323.5858 47.44241,298.74258 31.89832,269.26711 24.33337,234.34666 c -2.01135,-9.28458 -2.27465,-13.2781 -2.27465,-34.5 0,-21.2219 0.2633,-25.21542 2.27465,-34.5 7.56495,-34.92045 23.10904,-64.39592 47.06087,-89.239136 26.36668,-27.347943 55.72821,-43.531613 94.22615,-51.93615 9.17672,-2.003382 13.16096,-2.265987 34.37961,-2.265987 21.21865,0 25.20289,0.262605 34.37961,2.265987 38.49794,8.404537 67.85947,24.588207 94.22615,51.93615 23.95183,24.843216 39.49592,54.318686 47.06086,89.239136 2.01136,9.28458 2.27466,13.2781 2.27466,34.5 0,21.2219 -0.2633,25.21542 -2.27466,34.5 -7.56494,34.92045 -23.10903,64.39592 -47.06086,89.23914 -26.24165,27.21826 -55.87397,43.59998 -93.71176,51.80694 -12.88481,2.79469 -48.1735,3.64591 -61.46554,1.48264 z m 77.67125,-93.70403 c 2.01235,-2.03879 4.27624,-12.32005 18.40768,-83.59716 8.86222,-44.69986 15.83101,-82.16131 15.48622,-83.24768 -0.72712,-2.29094 -4.3691,-3.45475 -8.3313,-2.66231 -3.04855,0.60971 -182.75303,70.90233 -187.37938,73.29471 -4.97183,2.57103 -5.5933,7.83732 -1.3172,11.16187 1.22092,0.94924 12.76398,5.30558 25.65125,9.68076 l 23.4314,7.95489 54.75103,-34.8051 c 30.11308,-19.14281 55.63422,-35.03606 56.71366,-35.31834 3.38054,-0.88403 3.59094,2.47229 0.36683,5.85148 -1.58395,1.66012 -21.16669,19.46766 -43.51722,39.5723 l -40.63732,36.55389 14.13732,11.14612 c 7.77553,6.13036 23.68214,18.68847 35.34804,27.90692 11.6659,9.21845 22.4659,17.44 24,18.27012 3.77512,2.04276 9.9691,1.19578 12.88899,-1.76247 z m -74.49488,-18.95508 c 7.91734,-7.22171 14.31557,-13.3388 14.21828,-13.59352 -0.0973,-0.25473 -6.16608,-5.14463 -13.4862,-10.86645 l -13.3093,-10.40331 -2.18275,20.24684 c -1.20051,11.13575 -2.4014,21.93433 -2.66864,23.99683 -0.40126,3.0967 -0.17935,3.75 1.27377,3.75 0.96782,0 8.2375,-5.90867 16.15484,-13.13039 z"
     id="path885"
     inkscape:connector-curvature="0" />
</svg>
