<?xml version="1.0" encoding="UTF-8" standalone="no"?>
<svg
   xmlns:dc="http://purl.org/dc/elements/1.1/"
   xmlns:cc="http://creativecommons.org/ns#"
   xmlns:rdf="http://www.w3.org/1999/02/22-rdf-syntax-ns#"
   xmlns:svg="http://www.w3.org/2000/svg"
   xmlns="http://www.w3.org/2000/svg"
   viewBox="0 0 1600 1600"
   height="100"
   width="100"
   id="svg869"
   version="1.1">
  <metadata
     id="metadata875">
    <rdf:RDF>
      <cc:Work
         rdf:about="">
        <dc:format>image/svg+xml</dc:format>
        <dc:type
           rdf:resource="http://purl.org/dc/dcmitype/StillImage" />
        <dc:title></dc:title>
      </cc:Work>
    </rdf:RDF>
  </metadata>
  <defs
     id="defs873" />
  <path
     id="path879"
     d="m 861.00699,1249.7552 c 0.013,-374.43375 -0.5905,-342.26715 6.695,-356.74995 5.105,-10.1482 15.145,-20.1882 25.2932,-25.2932 14.4644,-7.2762 -14.9106,-6.6818 330.85571,-6.695 281.8837,-0.011 312.955,0.1428 318.5,1.5734 19.8776,5.1282 36.1233,21.0425 43.298,42.4148 1.7786,5.2982 1.8558,17.9299 2.1064,344.24995 l 0.26,338.75 h -363.51 -363.51011 l 0.012,-338.25 z m 605.48821,4.75 v -212 l -242.25,-0.252 -242.25001,-0.2521 v 212.5041 212.5041 l 242.25001,-0.2521 242.25,-0.252 z m -313.2493,192.9549 c -10.3995,-2.8004 -13.0428,-4.9602 -45.0511,-36.8097 -37.8915,-37.7036 -37.6996,-37.4204 -37.6996,-55.6452 0,-10.8086 0.187,-11.8908 3.1104,-18 8.8848,-18.5674 28.7811,-28.4342 48.2749,-23.9401 9.311,2.1465 15.1917,6.0788 28.5889,19.1162 l 13.0258,12.6761 38,-37.8092 c 31.7082,-31.549 38.9934,-38.3039 44,-40.7972 20.284,-10.1015 38.9175,-7.8136 52.5973,6.458 9.2039,9.6021 12.3267,18.0567 11.7277,31.7515 -0.3478,7.9535 -0.8705,10.2138 -3.7339,16.1464 -3.0858,6.3935 -7.4737,11.0364 -59.9603,63.4457 -41.8865,41.8249 -57.9521,57.2426 -61.7057,59.2171 -10.3685,5.4545 -21.1155,6.899 -31.1744,4.1904 z m -2.5843,-182.5286 c -3.2084,-1.1037 -7.7084,-3.1603 -10,-4.5702 -2.2915,-1.4099 -17.486,-15.9044 -33.7655,-32.2098 -26.473,-26.5153 -29.9582,-30.3834 -33,-36.6253 -3.2683,-6.7069 -3.4009,-7.4288 -3.4009,-18.521 0,-11.0559 0.1401,-11.8267 3.3272,-18.3007 8.3687,-16.9991 27.6085,-27.2029 45.1436,-23.9419 11.4495,2.1292 16.3079,5.1975 30.5317,19.282 7.1989,7.1283 13.5107,12.9606 14.0262,12.9606 0.5156,0 18.27,-17.279 39.4543,-38.3978 24.0468,-23.9724 40.0197,-39.1358 42.517,-40.3622 2.2,-1.0805 7.1063,-2.986 10.9029,-4.2346 19.4448,-6.395 40.6863,3.296 49.9121,22.7713 2.9795,6.2895 3.185,7.4331 3.185,17.7233 0,10.3605 -0.1917,11.407 -3.2971,18 -3.1021,6.5859 -6.6222,10.3214 -59.5,63.142 -30.9116,30.8782 -58.08,57.2989 -60.3742,58.7129 -10.7573,6.6299 -24.5417,8.3968 -35.6623,4.5714 z m -522.08791,94.8237 c -9.7895,-58.4375 -18.087,-106.5373 -18.4389,-106.8884 -0.3518,-0.3512 -6.5705,-2.2718 -13.8193,-4.2681 -37.266,-10.2632 -79.0408,-27.7857 -115.0134,-48.2426 -7.5931,-4.318 -14.0482,-7.9692 -14.3447,-8.1137 -0.2965,-0.1446 -40.5718,27.8527 -89.5007,62.2161 l -88.9615,62.4789 -64.3936,-64.3607 -64.3936,-64.3606 63.1436,-87.6302 c 34.729,-48.1966 63.1436,-88.0729 63.1436,-88.6141 0,-0.5412 -2.5345,-5.3676 -5.6322,-10.7253 -22.1185,-38.25595 -42.0124,-87.10445 -53.3472,-130.99125 -0.6038,-2.3375 -1.4179,-4.2684 -1.8092,-4.291 -0.3913,-0.023 -48.4114,-8.4948 -106.7114,-18.8273 l -106.000001,-18.7864 -0.2552,-90.92535 -0.2553,-90.92531 106.755301,-16.93536 c 58.7153,-9.31445 106.8683,-17.00139 107.0066,-17.08209 0.1383,-0.0807 1.8384,-5.9586 3.7779,-13.06197 10.7843,-39.49543 29.7795,-85.45218 49.3578,-119.41524 3.9631,-6.875 7.0248,-13.175 6.8037,-14 -0.221,-0.825 -28.1888,-41.05263 -62.1507,-89.39474 l -61.7487,-87.89473 64.4032,-64.4032 64.4032,-64.4032 68.9511,49.67506 c 37.9231,27.32128 77.5121,55.84724 87.9755,63.39104 l 19.0244,13.71599 10.9756,-6.38044 c 34.5443,-20.08168 82.3674,-40.00551 121.8908,-50.78158 7.1034,-1.93673 12.9827,-3.63448 13.0652,-3.77277 0.082,-0.13829 7.7693,-48.29128 17.0819,-107.00665 l 16.932,-106.755227 90.9215,0.25522 90.9214,0.25522 18.8459,107.431157 c 10.3652,59.08712 18.9893,107.5746 19.1646,107.74993 0.1754,0.17534 6.8063,2.09995 14.7355,4.27692 40.3182,11.06938 84.977,29.30863 117.17222,47.85473 5.90739,3.403 11.20549,6.18727 11.77339,6.18727 0.568,0 40.8902,-28.41573 89.6049,-63.14606 l 88.5722,-63.14606 64.3605,64.39606 64.3604,64.39606 -63.4258,89.90639 c -34.8841,49.44852 -63.2788,90.17352 -63.0992,90.5 0.1796,0.32649 3.0325,5.31861 6.3398,11.09361 20.5931,35.9586 38.2939,77.76268 49.7484,117.49139 l 4.3223,14.99139 107.5939,16.97479 107.5938,16.97478 v 46.28383 46.28382 h -242 -242.00001 v -2.35478 c 0,-6.05873 -2.2165,-29.07253 -3.5775,-37.14522 -6.7102,-39.80084 -24.8703,-80.26959 -50.0444,-111.52123 -39.15,-48.60142 -93.9935,-79.7632 -156.8781,-89.13717 -13.7812,-2.05431 -53.0864,-1.76916 -67.4644,0.48943 -14.5354,2.28333 -34.9751,7.50769 -47.6789,12.1867 -23.0721,8.49782 -50.3635,24.03488 -69.8694,39.77678 -9.6647,7.79977 -28.361,26.57279 -36.0575,36.20549 -21.1894,26.52009 -37.5684,59.29223 -45.9086,91.85671 -4.8711,19.01912 -6.5903,31.67754 -7.2176,53.14329 -1.2142,41.54512 6.737,77.62682 25.3421,115.00002 34.2215,68.7425 100.9236,118.1211 176.8543,130.9225 8.0727,1.361 31.0865,3.5775 37.1452,3.5775 h 2.3548 v 241.99995 242 h -46.3112 -46.3111 z"
     style="fill:#000000" />
</svg>
