<?xml version="1.0" encoding="UTF-8" standalone="no"?>
<svg
   xmlns:dc="http://purl.org/dc/elements/1.1/"
   xmlns:cc="http://creativecommons.org/ns#"
   xmlns:rdf="http://www.w3.org/1999/02/22-rdf-syntax-ns#"
   xmlns:svg="http://www.w3.org/2000/svg"
   xmlns="http://www.w3.org/2000/svg"
   xmlns:sodipodi="http://sodipodi.sourceforge.net/DTD/sodipodi-0.dtd"
   xmlns:inkscape="http://www.inkscape.org/namespaces/inkscape"
   inkscape:version="1.0 (4035a4fb49, 2020-05-01)"
   sodipodi:docname="upnp.svg"
   viewBox="0 0 512 512"
   height="100"
   width="100"
   id="svg1602"
   version="1.1">
  <metadata
     id="metadata1608">
    <rdf:RDF>
      <cc:Work
         rdf:about="">
        <dc:format>image/svg+xml</dc:format>
        <dc:type
           rdf:resource="http://purl.org/dc/dcmitype/StillImage" />
        <dc:title></dc:title>
      </cc:Work>
    </rdf:RDF>
  </metadata>
  <defs
     id="defs1606" />
  <sodipodi:namedview
     inkscape:current-layer="g1610"
     inkscape:window-maximized="1"
     inkscape:window-y="24"
     inkscape:window-x="0"
     inkscape:cy="263.89932"
     inkscape:cx="204.09424"
     inkscape:zoom="0.8032"
     showgrid="false"
     id="namedview1604"
     inkscape:window-height="692"
     inkscape:window-width="1366"
     inkscape:pageshadow="2"
     inkscape:pageopacity="0"
     guidetolerance="10"
     gridtolerance="10"
     objecttolerance="10"
     borderopacity="1"
     bordercolor="#666666"
     pagecolor="#ffffff" />
  <g
     id="g1610"
     inkscape:label="Image"
     inkscape:groupmode="layer">
    <path
       d="m 392.09842,36.054275 c -4.35374,-7.04e-4 -8.76063,0.114427 -11.14477,0.34711 -47.44966,4.630168 -107.44258,35.967209 -168.58011,88.057265 -5.97242,5.08857 -11.04256,9.56281 -10.96772,9.67859 0.0302,0.0466 2.38014,-1.58841 5.22276,-3.63333 29.85146,-21.47455 62.18274,-39.791681 90.58802,-51.322469 23.17045,-9.405804 43.3108,-14.757156 64.61269,-17.16797 6.04676,-0.684322 23.13182,-0.570131 28.57747,0.191089 22.5116,3.146715 38.38661,11.008887 50.81724,25.166676 4.63568,5.279767 9.16143,12.663334 12.43927,20.294734 2.8177,6.56035 5.58845,16.99465 6.67982,25.15499 0.27184,2.03236 0.54559,4.07061 0.60857,4.52896 0.0628,0.45835 0.1569,0.76802 0.20886,0.68873 0.0519,-0.0793 0.37878,-2.9879 0.72606,-6.46386 0.57108,-5.71633 0.63242,-7.26137 0.64316,-16.17407 0.0127,-10.55123 -0.19758,-13.74927 -1.37732,-20.939456 C 459.12895,82.12922 455.28431,71.558515 449.75793,63.133861 439.56683,47.597963 423.91324,38.664607 402.92385,36.406192 400.75257,36.17257 396.45207,36.055227 392.09842,36.054275 Z M 158.44504,143.33744 V 257.3814 371.42537 h 14.98011 14.98016 v -43.42066 -43.42004 l 10.31323,-0.1828 c 7.32464,-0.12969 11.27136,-0.34923 13.61942,-0.75677 26.55178,-4.60846 41.3922,-23.08689 45.24251,-56.33258 0.67019,-5.7871 0.8446,-19.55124 0.32629,-25.76949 -1.56727,-18.80325 -6.96729,-32.71651 -16.49481,-42.49824 -2.54318,-2.61106 -8.1628,-6.783 -11.53263,-8.56233 -5.3449,-2.82226 -12.12123,-4.98282 -19.69521,-6.27896 -2.96009,-0.50656 -6.9264,-0.61122 -27.59803,-0.72859 z m 247.05707,0 V 257.3814 371.42537 h 14.98022 14.98012 v -43.42066 -43.42067 l 10.42854,-0.18154 c 10.77555,-0.18715 13.39176,-0.46086 19.4165,-2.03314 13.43372,-3.50589 24.13792,-11.90115 30.83712,-24.18515 4.76482,-8.73687 7.62466,-18.91152 9.07279,-32.27938 0.59037,-5.45066 0.59273,-21.59317 0,-26.74622 -1.2217,-10.69373 -3.42892,-19.04368 -7.0242,-26.57025 -1.73288,-3.62766 -5.72933,-9.56452 -8.2913,-12.31733 -7.02319,-7.5462 -16.33742,-12.60145 -27.82493,-15.10181 -6.95484,-1.51379 -7.59226,-1.5472 -32.43777,-1.69155 z m -399.1631692,0.0413 0.00455,73.81603 c 0,43.60837 0.09534,76.26431 0.228203,79.79871 1.2678713,33.72369 9.7944002,55.9282 26.1567412,68.11586 7.44466,5.54519 14.691823,8.24974 26.733806,9.97685 2.545517,0.36519 17.909944,-0.11257 20.626493,-0.64127 9.067845,-1.76484 15.823586,-4.57955 22.124546,-9.21805 15.90497,-11.70874 24.4491,-33.41093 26.03249,-66.12185 0.15353,-3.17146 0.23879,-31.79154 0.23948,-80.32659 V 143.37869 H 113.50487 98.52471 v 68.53716 c 0,42.55771 -0.08937,70.40477 -0.2336,73.46409 -0.951217,20.16897 -4.310156,34.07279 -10.357363,42.87086 -1.93426,2.81407 -3.529287,4.52785 -5.918243,6.35865 -8.379923,6.42203 -21.6098,6.19609 -29.786993,-0.50934 C 42.556253,326.16869 37.49973,309.7871 36.53852,283.2684 c -0.136795,-3.77397 -0.231006,-33.3278 -0.2336,-73.11217 l -0.0046,-66.77754 H 21.320215 Z m 182.0663692,35.47696 8.12384,0.15602 c 8.93956,0.17202 10.98701,0.53282 15.33663,2.70335 7.91895,3.95161 12.95546,12.00932 14.70424,23.52392 0.93768,6.17424 0.82846,14.5779 -0.26426,20.33597 -2.35571,12.41335 -8.88097,19.83474 -19.81177,22.53344 -1.65032,0.40742 -4.53705,0.61999 -10.19528,0.75058 l -7.8934,0.18216 v -35.09273 z m 247.05714,0 8.12385,0.15671 c 6.44238,0.12413 8.57697,0.28451 10.31323,0.7767 8.84199,2.50644 14.93207,8.54143 17.98876,17.82509 1.97797,6.0072 2.85038,14.05378 2.33254,21.51203 -0.36995,5.32891 -0.76911,7.51503 -2.17045,11.88156 -1.01502,3.16259 -1.47051,4.12968 -3.15808,6.70992 -3.63459,5.55709 -8.16998,8.67601 -15.11063,10.39136 -1.66017,0.4103 -4.53557,0.61995 -10.31059,0.75061 l -8.00863,0.18075 v -35.09202 z m -96.34152,20.52774 c -4.26494,-0.062 -6.71771,0.32051 -10.72241,1.54309 -6.83526,2.08681 -13.23532,6.9081 -18.42358,13.879 -1.84635,2.48072 -4.67532,7.13254 -5.83541,9.59612 -0.33987,0.72171 -0.69534,1.31548 -0.79042,1.31971 -0.0951,0.004 -0.17285,-5.06013 -0.17285,-11.254 v -11.2616 h -13.59737 -13.59737 v 84.10983 0 84.1098 h 14.27841 14.27837 l 0.086,-45.66211 c 0.0631,-33.44051 0.16105,-46.41569 0.36599,-48.47754 2.53552,-25.50867 8.89727,-39.4615 19.75954,-43.33748 2.77492,-0.99021 8.34205,-0.91282 10.76023,0.14915 5.84168,2.56541 9.38657,8.47399 11.3395,18.90148 1.65453,8.83384 1.72759,11.70558 1.72759,68.71722 v 49.70928 h 14.41031 14.41023 l -0.0746,-58.68333 c -0.0664,-52.47152 -0.11448,-59.0558 -0.45367,-62.20254 -1.76874,-16.40608 -5.19948,-27.91181 -10.92317,-36.63513 -4.46659,-6.8073 -9.89477,-11.0772 -17.00799,-13.37862 -2.32614,-0.75261 -3.61449,-0.93075 -7.86953,-1.08944 -0.69302,-0.0258 -1.33929,-0.044 -1.94856,-0.0529 z M 31.130887,372.56636 c -0.08045,-0.12283 -0.971239,8.29013 -1.332332,12.58403 -0.15466,1.83881 -0.280469,6.98567 -0.279559,11.4375 0,9.22816 0.335246,13.637 1.602899,21.18968 3.997307,23.81612 15.415229,41.03071 33.357381,50.29217 7.350193,3.79398 16.433983,6.394 26.209407,7.50239 v 0 c 6.944647,0.78746 21.418087,0.27981 29.960277,-1.05093 41.42347,-6.45328 91.52367,-31.36057 143.69414,-71.43717 10.64998,-8.1811 26.31714,-20.97429 26.09734,-21.30989 -0.0433,-0.066 -2.25095,1.39321 -4.90637,3.24221 -30.64702,21.33988 -63.65516,39.19091 -92.89444,50.2385 -20.76169,7.84451 -39.30771,12.48217 -58.85424,14.71686 -5.34944,0.61226 -24.68579,0.61402 -29.38411,0 -18.220286,-2.3679 -31.246996,-7.28642 -42.994977,-16.23244 -16.086896,-12.25013 -26.254939,-31.66253 -29.597969,-56.50786 -0.338442,-2.51529 -0.643419,-4.61587 -0.677447,-4.6678 z"
       style="fill:#000000;stroke-width:0.284791"
       id="path1614" />
  </g>
</svg>
