<?xml version="1.0" encoding="UTF-8" standalone="no"?>
<svg
   xmlns:dc="http://purl.org/dc/elements/1.1/"
   xmlns:cc="http://creativecommons.org/ns#"
   xmlns:rdf="http://www.w3.org/1999/02/22-rdf-syntax-ns#"
   xmlns:svg="http://www.w3.org/2000/svg"
   xmlns="http://www.w3.org/2000/svg"
   version="1.1"
   id="svg62"
   width="100"
   height="100"
   viewBox="0 0 512 512">
  <metadata
     id="metadata68">
    <rdf:RDF>
      <cc:Work
         rdf:about="">
        <dc:format>image/svg+xml</dc:format>
        <dc:type
           rdf:resource="http://purl.org/dc/dcmitype/StillImage" />
        <dc:title></dc:title>
      </cc:Work>
    </rdf:RDF>
  </metadata>
  <defs
     id="defs66" />
  <g
     id="g70">
    <path
       style="fill:#000000;stroke-width:1.75207"
       d="m 148.19382,503.16003 c -4.39729,-4.10955 -4.12634,-51.98919 0.33479,-59.16168 2.7963,-4.4958 3.22314,-11.4419 3.704,-60.27596 0.5151,-52.31038 0.34936,-55.65489 -3.17166,-64.0033 -3.13109,-7.42386 -3.71516,-12.60675 -3.71516,-32.96721 0,-16.53157 0.68662,-24.80019 2.17486,-26.19105 3.05954,-2.85935 65.08593,-2.85935 68.14547,0 3.39104,3.16915 2.94964,50.54457 -0.54371,58.35827 -3.91476,8.75627 -3.91476,117.8323 0,124.23236 1.94405,3.17825 2.60614,11.08512 2.65434,31.69898 0.0594,25.45357 -0.19244,27.59288 -3.44138,29.21789 -2.01006,1.00536 -16.25881,1.75338 -33.39957,1.75338 -24.75982,0 -30.3831,-0.45713 -32.74198,-2.66168 z m -34.56468,-2.18351 c -2.99043,-1.72631 -7.06828,-4.85194 -9.06191,-6.94584 -3.53161,-3.70929 -3.63741,-6.54464 -4.1175,-110.35135 -0.544897,-117.8161 -0.956271,-113.324 11.00193,-120.13824 7.57399,-4.31596 25.8282,-4.80017 24.11995,-0.63979 -0.60507,1.47356 -1.1001,4.52238 -1.1001,6.77515 0,3.55188 -0.84258,4.09595 -6.34333,4.09595 -3.92682,0 -7.72418,1.2905 -9.9681,3.38758 -3.54322,3.31138 -3.62475,5.64596 -3.62475,103.79124 0,112.04093 -0.45449,107.93259 11.94012,107.93259 6.51868,0 6.99892,0.53761 8.70012,9.73928 l 1.0177,5.50483 -8.5635,-0.006 c -5.16241,-0.004 -10.72291,-1.25291 -14.00063,-3.14506 z m 115.68409,-3.52491 1.93439,-6.773 79.10794,-0.47395 c 63.81925,-0.38236 79.6868,-0.92322 82.10328,-2.79859 2.72546,-2.11519 2.99535,-11.60702 2.99535,-105.34243 V 279.04586 l -4.02802,-2.63674 c -3.49503,-2.28784 -14.40653,-2.63672 -82.46328,-2.63672 -73.48257,0 -78.43681,-0.18716 -78.46,-2.96413 -0.0145,-1.63029 -0.5227,-4.70123 -1.13133,-6.82434 l -1.10657,-3.8602 84.35618,0.47262 84.35619,0.47262 4.90913,4.23447 c 10.04194,8.66186 9.87936,6.73204 9.87632,117.24059 -0.004,112.70319 0.34549,109.1357 -11.45565,117.22902 -4.97455,3.41158 -7.42063,3.52093 -89.02172,3.97976 l -83.90659,0.47181 z m 18.62592,-31.57252 c -0.60507,-1.47356 -1.10011,-5.60336 -1.10011,-9.17731 0,-11.57772 0.4262,-11.85653 18.12381,-11.85653 17.69762,0 18.12379,0.27881 18.12379,11.85653 0,11.57772 -0.42617,11.85654 -18.12379,11.85654 -12.84834,0 -16.13607,-0.51742 -17.0237,-2.67923 z m 46.76816,0.36009 c -0.52375,-1.27552 -0.70204,-6.42041 -0.39624,-11.43308 l 0.55605,-9.11395 16.15814,-0.49349 c 18.25589,-0.55754 19.11224,-0.0685 19.15552,10.94114 0.048,12.21857 -0.24738,12.41852 -18.34684,12.41852 -12.01861,0 -16.41907,-0.59588 -17.12663,-2.31914 z m 47.1491,0.0664 c -0.53871,-1.31201 -0.72926,-6.48675 -0.42346,-11.49942 l 0.55605,-9.114 h 16.31142 16.31141 v 11.00963 11.00964 l -15.88795,0.48979 c -12.35121,0.38076 -16.10601,-0.0412 -16.86747,-1.89569 z M 249.0139,436.03755 c -1.19617,-1.1179 -2.17486,-5.9198 -2.17486,-10.67088 0,-4.75108 0.97869,-9.55298 2.17486,-10.67088 1.31001,-1.22429 7.65227,-2.03255 15.94895,-2.03255 8.29669,0 14.63894,0.80826 15.94894,2.03255 1.19617,1.1179 2.17485,5.9198 2.17485,10.67088 0,4.75108 -0.97868,9.55298 -2.17485,10.67088 -2.90573,2.7156 -28.99215,2.7156 -31.89789,0 z m 47.12188,0 c -2.8219,-2.63727 -2.8219,-18.7045 0,-21.34176 1.31001,-1.22429 7.65227,-2.03255 15.94895,-2.03255 8.29667,0 14.63892,0.80826 15.94894,2.03255 1.19617,1.1179 2.17485,5.9198 2.17485,10.67088 0,4.75108 -0.97868,9.55298 -2.17485,10.67088 -2.90573,2.7156 -28.99215,2.7156 -31.89789,0 z m 47.2125,0.94322 c -1.47744,-0.57831 -2.26548,-4.65613 -2.26548,-11.72298 0,-12.74968 0.55637,-13.0763 20.88028,-12.25734 l 12.64875,0.50968 v 11.85654 11.85653 l -14.49904,0.3222 c -7.97448,0.17719 -15.51851,-0.0769 -16.76451,-0.56459 z m -95.40913,-33.77188 c -0.60507,-1.47356 -1.10011,-5.60336 -1.10011,-9.17731 0,-11.57773 0.4262,-11.85654 18.12381,-11.85654 17.69762,0 18.12379,0.27881 18.12379,11.85654 0,11.57772 -0.42617,11.85653 -18.12379,11.85653 -12.84834,0 -16.13607,-0.51741 -17.0237,-2.67922 z m 46.76816,0.36008 c -0.52375,-1.27552 -0.70204,-6.42041 -0.39624,-11.43308 l 0.55605,-9.11395 16.15814,-0.49349 c 18.25589,-0.55754 19.11224,-0.0685 19.15552,10.94114 0.048,12.21857 -0.24738,12.41852 -18.34684,12.41852 -12.01861,0 -16.41907,-0.59587 -17.12663,-2.31914 z m 47.12186,0 c -0.52373,-1.27552 -0.70202,-6.42041 -0.39622,-11.43308 l 0.55605,-9.11395 h 16.31142 16.31141 l 0.5359,11.43308 0.53589,11.43309 h -16.45109 c -12.25282,0 -16.69411,-0.59184 -17.40336,-2.31914 z M 249.0139,373.36733 c -1.19617,-1.1179 -2.17486,-5.9198 -2.17486,-10.67088 0,-4.75108 0.97869,-9.55298 2.17486,-10.67088 1.31001,-1.22429 7.65227,-2.03255 15.94895,-2.03255 8.29669,0 14.63894,0.80826 15.94894,2.03255 1.19617,1.1179 2.17485,5.9198 2.17485,10.67088 0,4.75108 -0.97868,9.55298 -2.17485,10.67088 -1.31,1.22429 -7.65225,2.03255 -15.94894,2.03255 -8.29668,0 -14.63894,-0.80826 -15.94895,-2.03255 z m 47.12188,0 c -2.8219,-2.63727 -2.8219,-18.70449 0,-21.34176 1.31001,-1.22429 7.65227,-2.03255 15.94895,-2.03255 8.29667,0 14.63892,0.80826 15.94894,2.03255 1.19617,1.1179 2.17485,5.9198 2.17485,10.67088 0,4.75108 -0.97868,9.55298 -2.17485,10.67088 -1.31002,1.22429 -7.65227,2.03255 -15.94894,2.03255 -8.29668,0 -14.63894,-0.80826 -15.94895,-2.03255 z m 46.22047,0.96429 c -2.4196,-2.26127 -1.39107,-20.44498 1.27331,-22.51155 1.59824,-1.23963 7.84205,-1.79001 16.7645,-1.47774 l 14.21777,0.49759 v 11.85648 11.85653 l -15.49106,0.48439 c -8.52008,0.26641 -16.06411,-0.0512 -16.76452,-0.70575 z m -91.89244,-42.97035 c -3.10383,-2.90073 -3.62477,-5.64596 -3.62477,-19.1017 0,-25.21123 -5.50284,-23.24306 64.98597,-23.24306 43.7394,0 59.91516,0.53445 61.51815,2.03255 1.43414,1.3403 2.17485,8.531 2.17485,21.11279 0,17.13054 -0.35821,19.25941 -3.50561,20.83363 -2.20411,1.10241 -24.74492,1.75338 -60.71472,1.75338 -54.79261,0 -57.36222,-0.14313 -60.83387,-3.38759 z M 235.96477,227.19315 V 212.79593 H 225.289 214.61323 L 234.804,179.86922 c 11.10492,-18.10971 20.7331,-32.40106 21.39593,-31.75858 1.45346,1.4088 39.57338,63.08117 39.57338,64.02385 0,0.36379 -4.89343,0.66144 -10.87428,0.66144 h -10.87427 v 14.39722 14.39723 h -19.03 -19.02999 z m -48.51045,-17.29834 c -21.68348,-13.52929 -41.64156,-40.57326 -48.43385,-65.62981 -3.48086,-12.84074 -3.47777,-39.26187 0.005,-53.072489 5.01139,-19.865445 14.5988,-35.181233 32.59862,-52.076051 25.21331,-23.665449 48.82673,-32.8865041 84.34797,-32.937939 20.79585,-0.03012 34.07472,2.8853858 53.3929,11.722904 71.54128,32.728109 88.05889,123.608365 32.19495,177.137265 -9.2072,8.82309 -24.02666,19.45103 -27.12145,19.45103 -0.83802,0 -3.54559,-3.48272 -6.01679,-7.73936 l -4.49309,-7.73936 5.43714,-3.55971 c 9.44067,-6.1808 27.59593,-24.22652 31.4183,-31.22873 l 3.67593,-6.73397 -14.71564,7.16093 c -14.39082,7.00287 -14.86282,7.43407 -21.38399,19.53609 l -6.66839,12.37518 -3.10701,-5.61517 c -1.91148,-3.45456 -2.66551,-7.25919 -1.95961,-9.88769 0.96963,-3.61055 0.61026,-4.14124 -2.31943,-3.42524 -2.45464,0.59991 -4.38559,-0.60627 -6.61366,-4.13127 -1.73075,-2.73822 -2.86344,-5.18564 -2.51712,-5.43872 0.34633,-0.25308 4.48814,-1.43861 9.20404,-2.63454 4.7159,-1.19591 9.30996,-3.03213 10.20902,-4.0805 2.42516,-2.82793 7.49613,-25.25466 7.49613,-33.15218 v -6.86424 h -56.18378 -56.18377 l 0.0145,7.19862 c 0.0123,6.43353 5.716,32.597 7.46139,34.22817 0.38029,0.3554 4.9642,1.66011 10.18646,2.89933 l 9.49504,2.25313 -3.56078,5.46946 c -2.41903,3.71569 -4.47792,5.14056 -6.42104,4.4437 -2.2886,-0.82076 -2.63452,-0.18512 -1.73074,3.18021 0.73641,2.74209 -0.11703,6.12186 -2.45233,9.71053 l -3.58186,5.50452 -6.44603,-12.69489 c -5.27,-10.37883 -7.49285,-13.03593 -12.18402,-14.56427 -3.15591,-1.02817 -9.71264,-4.155 -14.57054,-6.94851 -4.85824,-2.79349 -8.83287,-4.39306 -8.83287,-3.55457 0,0.83848 3.46617,6.33581 7.7026,12.21632 6.82032,9.46709 20.59224,21.80523 29.59468,26.51359 2.87607,1.50423 2.70094,2.33893 -2.12964,10.15116 l -5.26338,8.51216 z m 2.44291,-60.19258 c -0.66611,-3.02765 -1.69126,-10.16526 -2.27805,-15.86136 l -1.06693,-10.35653 -13.53885,-1.06958 c -7.44638,-0.58825 -14.31887,-0.61904 -15.27221,-0.0685 -2.63315,1.52088 0.18734,11.18425 4.56478,15.63945 4.52204,4.60239 24.28429,17.22123 26.97,17.22123 1.10751,0 1.35328,-2.17769 0.62126,-5.50481 z m 144.94886,-0.54274 c 15.89579,-8.92773 18.92337,-12.0723 18.92337,-19.65454 v -6.47992 h -14.23697 -14.23695 l -1.08988,10.5862 c -0.5994,5.8224 -1.63486,13.06335 -2.30099,16.091 -0.67955,3.0887 -0.46831,5.50483 0.48132,5.50483 0.93084,0 6.53788,-2.72141 12.4601,-6.04757 z M 188.23199,95.436841 c 1.26177,-8.186623 2.85092,-15.726706 3.53143,-16.755734 2.19106,-3.313245 -16.30186,6.971286 -24.93238,13.865729 -7.68272,6.137294 -11.79548,13.766404 -9.38571,17.410354 0.49054,0.74178 7.10202,1.12721 14.6922,0.85654 l 13.80031,-0.49213 z m 61.83516,-6.997087 c 0.28024,-12.035013 -0.12939,-22.479036 -0.91048,-23.208937 -1.7338,-1.620347 -25.12123,1.25703 -34.48431,4.242641 -5.96125,1.900865 -7.20299,3.288448 -10.07266,11.255696 -1.80028,4.998138 -3.75548,13.913926 -4.34488,19.812866 l -1.07168,10.72533 25.18725,-0.47288 25.18723,-0.47287 z m 61.29488,11.570286 c -0.6728,-6.137169 -2.62046,-15.093087 -4.32813,-19.902046 l -3.10488,-8.74358 -12.00057,-2.802669 c -6.6003,-1.541459 -15.97937,-3.065871 -20.84236,-3.387572 l -8.84181,-0.584917 -0.5117,21.078432 c -0.28145,11.593137 -0.10317,22.073462 0.3962,23.289612 0.68564,1.66984 6.97327,2.2112 25.68222,2.2112 h 24.77429 z m 41.86235,3.95985 c -1.18862,-8.36953 -6.41006,-13.187509 -23.53815,-21.719336 -9.25587,-4.610531 -10.73416,-4.955722 -9.59307,-2.240021 0.74194,1.765739 2.27877,9.498621 3.41519,17.184196 l 2.06621,13.973771 h 14.33609 14.33608 z M 184.92102,67.991323 c 10.80381,-5.059763 13.79786,-7.349899 15.97477,-12.219085 1.47347,-3.295753 4.72445,-9.020401 7.22435,-12.72143 2.49995,-3.701033 4.15576,-7.093262 3.67958,-7.538286 -1.41492,-1.322335 -15.68891,7.752516 -25.00827,15.899314 -4.7706,4.170346 -11.15405,11.194669 -14.18546,15.609606 -5.79936,8.446154 -7.0398,11.862894 -3.24618,8.94136 1.24602,-0.959567 8.24857,-4.546736 15.56121,-7.971479 z M 338.3108,66.740925 c -6.7364,-9.526175 -22.04565,-23.162696 -31.67369,-28.21295 -4.23824,-2.223105 -7.39023,-3.366414 -7.00444,-2.540686 0.38577,0.825726 3.73543,6.975522 7.44369,13.666202 6.52767,11.77768 7.19058,12.37605 20.82745,18.799805 7.74686,3.6492 14.40843,6.384223 14.8035,6.077804 0.39506,-0.30642 -1.58335,-3.811995 -4.39651,-7.790175 z M 235.26336,53.639154 c 6.86504,-0.927426 13.09356,-1.701319 13.84117,-1.719765 0.7476,-0.01842 1.35928,-5.705123 1.35928,-12.637026 0,-6.931907 -0.61168,-12.938796 -1.35928,-13.348643 -0.74761,-0.409846 -4.0104,-0.36825 -7.25064,0.09243 -4.627,0.657845 -7.67335,3.053044 -14.19438,11.160318 -4.56665,5.677484 -9.53619,12.55136 -11.0434,15.275268 -2.70343,4.885789 -2.68035,4.938483 1.71251,3.908095 2.44907,-0.574461 10.0697,-1.803277 16.93474,-2.730691 z m 59.79873,-1.400959 c -1.43916,-2.600964 -6.35304,-9.374229 -10.91969,-15.05172 -6.52103,-8.107274 -9.56739,-10.502471 -14.19438,-11.160318 -3.24024,-0.460687 -6.50304,-0.502283 -7.25065,-0.09243 -0.7476,0.409847 -1.35928,6.370035 -1.35928,13.244859 v 12.499679 l 8.60881,1.071725 c 4.73484,0.589439 11.87108,1.697826 15.85831,2.463081 12.11593,2.325337 12.17849,2.30524 9.25688,-2.974876 z"
       id="path74" />
  </g>
</svg>
