<?xml version="1.0" encoding="UTF-8" standalone="no"?>
<svg
   xmlns:dc="http://purl.org/dc/elements/1.1/"
   xmlns:cc="http://creativecommons.org/ns#"
   xmlns:rdf="http://www.w3.org/1999/02/22-rdf-syntax-ns#"
   xmlns:svg="http://www.w3.org/2000/svg"
   xmlns="http://www.w3.org/2000/svg"
   viewBox="0 0 500 500"
   height="100"
   width="100"
   id="svg834"
   version="1.1">
  <metadata
     id="metadata840">
    <rdf:RDF>
      <cc:Work
         rdf:about="">
        <dc:format>image/svg+xml</dc:format>
        <dc:type
           rdf:resource="http://purl.org/dc/dcmitype/StillImage" />
        <dc:title></dc:title>
      </cc:Work>
    </rdf:RDF>
  </metadata>
  <defs
     id="defs838" />
  <path
     id="path844"
     d="m 116.65327,488.59367 c -9.32447,-7.0275 -19.451834,-23.08376 -32.634624,-51.74004 -6.823163,-14.83191 -14.196712,-29.40067 -16.385664,-32.37501 -3.058969,-4.15649 -3.285361,-6.56331 -0.97834,-10.40117 1.65086,-2.74632 4.031344,-4.99332 5.289944,-4.99332 1.258608,0 10.299533,-14.55459 20.090949,-32.34354 12.594635,-22.88179 20.249495,-33.89476 26.166995,-37.64621 16.2633,-10.31024 24.81846,-36.40798 19.81825,-60.45609 l -2.26024,-10.87048 -6.04419,11.08319 c -3.32431,6.09575 -14.88305,19.57112 -25.68611,29.94526 -23.329782,22.40347 -33.747171,37.28065 -36.201643,51.69988 -1.494597,8.78029 -2.272662,9.84961 -4.541003,6.24092 -1.505547,-2.39518 -2.737353,-10.04873 -2.737353,-17.00791 0,-10.28984 2.099414,-16.0587 11.240712,-30.88767 7.402154,-12.00773 11.240721,-21.25462 11.240721,-27.07825 0,-4.864 2.689281,-13.10373 5.976193,-18.31053 6.027223,-9.54769 32.039203,-29.03826 39.450473,-29.55989 3.85051,-0.27101 15.72742,21.44588 75.14979,137.41118 35.97674,70.21012 43.06798,83.3404 45.00937,83.3404 1.05694,0 11.37607,-18.75159 22.93145,-41.6702 11.55539,-22.91861 21.5931,-42.21372 22.30604,-42.87802 0.7129,-0.66431 0.43106,2.91548 -0.62634,7.95511 -1.3311,6.34419 -0.50185,12.47493 2.6957,19.92922 l 4.61826,10.76628 h 28.26499 c 31.73392,0 32.41039,-0.48359 22.98522,-16.43105 -10.88292,-18.41405 -33.15292,-62.17659 -33.42495,-65.68303 -0.25858,-3.33444 28.53379,-61.90169 42.50941,-86.46915 l 5.89191,-10.35726 16.72222,9.6226 c 21.1291,12.15845 30.78573,24.8321 33.7817,44.33612 1.34047,8.72656 4.36455,16.86414 7.35033,19.77912 10.11998,9.88008 14.78619,21.52209 14.82599,36.99035 0.0464,18.03694 -4.88357,25.25582 -7.11818,10.42298 -2.30603,-15.30692 -11.24457,-28.89201 -31.9113,-48.49988 -10.50269,-9.9646 -22.6631,-23.50408 -27.02312,-30.08771 -9.91852,-14.97703 -12.04399,-11.63309 -10.39416,16.35269 1.29792,22.0162 5.8701,31.56716 18.78942,39.24977 5.50393,3.27298 13.04915,14.12728 25.0837,36.08467 9.46654,17.272 19.83764,33.47444 23.04687,36.00545 6.73345,5.31042 7.40407,10.32256 2.10612,15.74111 -2.05083,2.09755 -8.78413,15.22772 -14.96282,29.17818 -18.59588,41.98633 -33.60868,61.01818 -45.0494,57.10951 -6.4118,-2.19056 -4.8242,-8.47225 3.94298,-15.60153 6.90633,-5.61603 32.6653,-42.26619 32.6653,-46.47654 0,-0.80412 -2.9719,-2.87811 -6.60425,-4.60885 -9.51426,-4.53336 -12.51083,-13.12435 -13.56662,-38.89477 -0.87615,-21.38517 -4.97235,-36.07605 -10.05899,-36.07605 -1.22434,0 -2.95279,2.98939 -3.84102,6.64308 -18.98373,78.08924 -60.68546,110.68396 -135.75203,106.10591 -57.92566,-3.53265 -93.97207,-34.32409 -108.66078,-92.81977 -2.7524,-10.96107 -5.99351,-19.92922 -7.20245,-19.92922 -5.33601,0 -10.0615,17.81552 -10.07113,37.96911 -0.008,16.88609 -1.10714,22.81652 -5.38667,29.06555 -2.95709,4.318 -7.09531,7.85092 -9.196037,7.85092 -2.100725,0 -4.432884,1.42311 -5.182563,3.16246 -2.015403,4.67597 21.44476,40.31012 32.46145,49.30642 5.23938,4.2785 9.01142,9.17022 8.38232,10.87049 -1.76202,4.76211 -10.93381,4.72776 -17.2928,-0.0647 z M 228.74645,296.685 C 218.92805,277.75224 204.76459,250.31469 197.2721,235.71268 185.52326,212.81557 182.57935,208.91672 175.87065,207.369 163.85532,204.59702 139.11006,181.98097 129.44892,164.94161 124.73746,156.63202 117.947,140.34413 114.359,128.7463 c -3.588,-11.59785 -7.76417,-24.67685 -9.28039,-29.064479 -3.57627,-10.348988 1.69774,-12.616867 12.86988,-5.534194 4.38716,2.781284 8.53811,5.056874 9.22431,5.056874 0.6862,0 8.98218,-15.490448 18.43551,-34.423206 9.45332,-18.932768 18.90277,-36.849929 20.99878,-39.815909 4.07551,-5.767129 17.00086,-13.542099 26.99059,-16.235627 8.56058,-2.3081772 8.08621,4.215041 -0.67831,9.327869 -5.05304,2.947715 -6.78319,6.070303 -6.78319,12.242309 0,6.70835 -1.98906,9.708416 -10.45044,15.762321 -12.80344,9.160528 -20.53392,23.932102 -26.27156,50.200273 -5.04502,23.097039 -4.1325,28.806709 8.53536,53.407189 5.05653,9.81957 9.1937,20.41829 9.1937,23.55272 0,7.7209 4.25801,7.20003 7.71784,-0.94412 1.55219,-3.6537 9.05618,-16.71233 16.67556,-29.01921 9.63345,-15.56004 12.78054,-22.6724 10.33135,-23.34874 -1.93714,-0.53493 -11.20944,-1.5965 -20.60512,-2.35902 -25.06968,-2.03459 -34.18902,-7.97783 -26.53702,-17.29471 3.26261,-3.972472 4.15397,-3.797601 13.70573,2.68875 8.19409,5.56439 13.66383,7.13299 27.63459,7.92502 19.15945,1.08616 26.10986,-2.01833 29.2202,-13.051519 1.53325,-5.43895 9.68878,-8.548466 9.68878,-3.694114 0,1.191996 3.30906,5.524684 7.35344,9.628203 l 7.35345,7.46092 7.56957,-6.45665 c 4.16328,-3.55116 7.56958,-7.883849 7.56958,-9.628198 0,-4.698137 8.04208,-3.847811 9.98595,1.05587 4.25718,10.739298 12.21259,15.097898 27.55703,15.097898 12.0876,0 17.40803,-1.43812 28.26231,-7.63928 10.93226,-6.245719 13.81399,-7.016899 15.79731,-4.227419 7.05401,9.921149 -2.36977,16.439229 -26.26641,18.167519 -10.28883,0.74412 -20.19011,1.75613 -22.00288,2.2489 -2.1733,0.59077 0.41068,6.8981 7.58651,18.51799 5.98532,9.69213 13.16707,22.12226 15.95944,27.62251 6.02798,11.87362 10.95265,15.45933 10.95265,7.97473 0,-2.89231 4.8839,-14.91549 10.85311,-26.71817 12.47522,-24.66674 13.05987,-31.23337 5.33506,-59.922697 -6.17544,-22.935159 -11.45578,-31.796538 -25.5818,-42.930989 -7.48389,-5.898991 -9.43317,-9.015405 -8.3055,-13.278593 1.72641,-6.526742 -0.36863,-9.816614 -8.75531,-13.748743 -6.28835,-2.948321 -8.45506,-9.939298 -3.08046,-9.939298 1.66343,0 8.91968,2.856667 16.12502,6.348149 12.91623,6.258792 13.37966,6.903634 32.9265,45.814558 10.90423,21.706521 20.85429,39.503784 22.1112,39.549454 1.25693,0.0457 5.38977,-2.09105 9.18406,-4.748269 12.79997,-8.964079 17.54172,-5.230942 11.30642,8.901478 -1.65018,3.74019 -5.90137,16.31654 -9.44709,27.94747 -7.17296,23.52921 -14.23873,37.26771 -26.02672,50.60558 -10.9049,12.33866 -28.12488,24.05169 -38.00445,25.85065 -7.1853,1.30836 -9.54089,4.00591 -18.16005,20.79642 -16.77185,32.67221 -14.46459,32.33909 -29.0332,4.19157 l -12.81372,-24.75699 h -28.07853 c -15.44319,0 -28.07853,0.95134 -28.07853,2.11408 0,1.9708 4.96913,11.98819 27.11117,54.65403 4.82654,9.3003 11.76582,22.8884 15.42069,30.19579 l 6.64517,13.28614 8.02852,-8.45482 8.02854,-8.45481 -9.55421,19.02295 c -5.2548,10.46266 -9.55418,19.4308 -9.55418,19.92924 0,0.49843 -1.04776,0.90625 -2.32838,0.90625 -1.2806,0 -10.36161,-15.49044 -20.17998,-34.4232 z"
     style="fill:#000000;stroke-width:2.56014895" />
</svg>
