<?xml version="1.0" encoding="UTF-8" standalone="no"?>
<svg
   xmlns:dc="http://purl.org/dc/elements/1.1/"
   xmlns:cc="http://creativecommons.org/ns#"
   xmlns:rdf="http://www.w3.org/1999/02/22-rdf-syntax-ns#"
   xmlns:svg="http://www.w3.org/2000/svg"
   xmlns="http://www.w3.org/2000/svg"
   viewBox="0 0 225 225"
   height="100"
   width="100"
   id="svg869"
   version="1.1">
  <metadata
     id="metadata875">
    <rdf:RDF>
      <cc:Work
         rdf:about="">
        <dc:format>image/svg+xml</dc:format>
        <dc:type
           rdf:resource="http://purl.org/dc/dcmitype/StillImage" />
        <dc:title></dc:title>
      </cc:Work>
    </rdf:RDF>
  </metadata>
  <defs
     id="defs873" />
  <path
     id="path879"
     d="m 55.799983,194.9155 c -1.57413,-0.91684 -1.75,-3.02426 -1.75,-20.96959 V 153.9956 h -25.8 c -18.7333299,0 -26.1286799,-0.32868 -26.9999999,-1.2 -1.73329099,-1.73329 -1.73329099,-120.866713 0,-122.600004 0.91399,-0.913993 20.9174599,-1.2 83.9285699,-1.2 73.874467,0 82.896767,0.168184 84.300007,1.571429 1.32073,1.320728 1.57143,4.670995 1.57143,21.000005 V 70.9956 h 25.8 c 18.73333,0 26.12868,0.32868 27,1.2 0.90678,0.90678 1.2,15.92551 1.2,61.46482 0,58.5586 -0.0548,60.29412 -1.93426,61.3 -2.65496,1.42089 -164.873877,1.37734 -167.315747,-0.0449 z m 53.250007,-50.4199 v -43.5 h -23.500007 -23.5 v 43.5 43.5 h 23.5 23.500007 z m -38.960177,-0.95201 c -0.66279,-0.79861 -0.91256,-2.37361 -0.55506,-3.5 0.61676,-1.94325 1.41191,-2.04799 15.54743,-2.04799 13.2471,0 15.002727,0.19673 15.847827,1.77582 0.60291,1.12654 0.5976,2.40623 -0.0145,3.5 -0.84343,1.50712 -2.768687,1.72418 -15.292777,1.72418 -11.30547,0 -14.58206,-0.30629 -15.53292,-1.45201 z m 0,-14 c -0.66279,-0.79861 -0.91256,-2.37361 -0.55506,-3.5 0.61676,-1.94325 1.41191,-2.04799 15.54743,-2.04799 13.2471,0 15.002727,0.19673 15.847827,1.77582 0.60291,1.12654 0.5976,2.40623 -0.0145,3.5 -0.84343,1.50712 -2.768687,1.72418 -15.292777,1.72418 -11.30547,0 -14.58206,-0.30629 -15.53292,-1.45201 z m 0,-14 c -0.66279,-0.79861 -0.91256,-2.37361 -0.55506,-3.5 0.61676,-1.94325 1.41191,-2.04799 15.54743,-2.04799 13.2471,0 15.002727,0.19673 15.847827,1.77582 0.60291,1.12654 0.5976,2.40623 -0.0145,3.5 -0.84343,1.50712 -2.768687,1.72418 -15.292777,1.72418 -11.30547,0 -14.58206,-0.30629 -15.53292,-1.45201 z M 217.04999,144.4956 v -43.5 h -50 -50 v 43.5 43.5 h 50 50 z m -93.05806,-1.06996 c -0.96346,-1.16089 -1.03863,-2.0532 -0.27496,-3.26386 0.94497,-1.4981 4.268,-1.66618 32.94201,-1.66618 h 31.89101 v 3 3 l -31.61605,0.26387 c -27.95084,0.23327 -31.76976,0.0786 -32.94201,-1.33383 z m 0,-14 c -0.96346,-1.16089 -1.03863,-2.0532 -0.27496,-3.26386 0.94497,-1.4981 4.268,-1.66618 32.94201,-1.66618 h 31.89101 v 3 3 l -31.61605,0.26387 c -27.95084,0.23327 -31.76976,0.0786 -32.94201,-1.33383 z m 0.10939,-13.86819 c -0.66911,-0.80623 -0.9221,-2.39366 -0.56219,-3.52762 0.64537,-2.03338 1.09705,-2.05812 32.83261,-1.79799 l 32.17825,0.26376 v 3 3 l -31.61605,0.26387 c -26.78259,0.22352 -31.80204,0.0398 -32.83262,-1.20202 z M 54.049983,110.1956 c 0,-27.28889 0.31014,-37.11015 1.2,-38 0.90331,-0.90332 14.37778,-1.2 54.500007,-1.2 h 53.3 v -5.5 -5.5 H 85.549983 8.0499831 v 43.5 43.5 h 22.9999999 23 z m -37.25,-7.2801 c -0.9625,-0.5606 -1.75,-1.80692 -1.75,-2.76959 0,-3.65803 1.97669,-4.15031 16.66482,-4.15031 12.84299,0 14.36325,0.18393 15.25244,1.845393 0.71087,1.32827 0.56472,2.449167 -0.52152,3.999997 -1.41761,2.02392 -2.3094,2.15277 -14.70244,2.1242 -7.25632,-0.0167 -13.9808,-0.48908 -14.9433,-1.04969 z m 0,-14 c -0.9625,-0.56061 -1.75,-1.80692 -1.75,-2.76959 0,-3.65803 1.97669,-4.15031 16.66482,-4.15031 13.43123,0 14.32996,0.12173 15.3797,2.08318 0.88943,1.66191 0.76408,2.47083 -0.6198,4 -1.54438,1.70652 -3.17135,1.91348 -14.82971,1.88641 -7.20225,-0.0167 -13.88251,-0.48909 -14.84501,-1.04969 z m -0.17857,-14.49133 c -0.86429,-0.86429 -1.57143,-2.12429 -1.57143,-2.8 0,-3.08745 2.48519,-3.62857 16.66482,-3.62857 13.18624,0 14.34482,0.14949 15.32291,1.97708 0.84041,1.57031 0.64191,2.39328 -0.96481,4 -1.82193,1.82193 -3.30743,2.02292 -14.95149,2.02292 -10.41992,0 -13.23349,-0.30492 -14.5,-1.57143 z M 217.04999,85.9956 v -8 h -77.5 -77.500007 v 8 8 h 77.500007 77.5 z m -149.800007,2.8 c -1.79987,-1.79987 -1.44655,-4.59769 0.72756,-5.76123 3.7367,-1.99983 7.03349,1.29696 5.03367,5.03367 -1.16355,2.1741 -3.96136,2.52743 -5.76123,0.72756 z m 9.83987,-0.25196 c -2.64768,-3.19027 1.25886,-8.20486 4.37631,-5.61761 1.88116,1.56123 2.0537,4.19969 0.38382,5.86957 -1.60329,1.60329 -3.29471,1.51376 -4.76013,-0.25196 z m 9.53156,-0.11947 c -0.86429,-0.86429 -1.57143,-1.95714 -1.57143,-2.42857 0,-0.9127 2.80726,-4 3.63717,-4 1.69205,0 4.36283,2.34776 4.36283,3.83518 0,3.80658 -3.71621,5.30575 -6.42857,2.59339 z M 163.04999,44.495596 v -7.5 H 85.549983 8.0499831 v 7.5 7.500004 H 85.549983 163.04999 Z M 12.980413,46.411773 c -0.95288,-1.148149 -1.02584,-2.042149 -0.26526,-3.25 1.49134,-2.368324 4.48106,-2.686684 5.97999,-0.636777 2.77564,3.795921 -2.69958,7.519806 -5.71473,3.886777 z m 9.47931,0.209207 c -1.19844,-3.123085 0.0142,-5.125384 3.10395,-5.125384 2.65145,0 2.98631,0.336391 2.98631,3 0,2.530878 -0.43092,3.049566 -2.75569,3.316971 -1.75858,0.20228 -2.96514,-0.228875 -3.33457,-1.191587 z m 9.66419,-0.487244 c -1.28082,-2.393228 0.82369,-5.499881 3.38498,-4.996881 2.80196,0.550264 4.1953,3.365544 2.61066,5.274918 -1.77536,2.139171 -4.77647,2 -5.99564,-0.278037 z"
     style="fill:#000000" />
</svg>
