<?xml version="1.0" encoding="utf-8"?>
<!-- Generated by IcoMoon.io -->
<!DOCTYPE svg PUBLIC "-//W3C//DTD SVG 1.1//EN" "http://www.w3.org/Graphics/SVG/1.1/DTD/svg11.dtd">
<svg version="1.1" xmlns="http://www.w3.org/2000/svg" xmlns:xlink="http://www.w3.org/1999/xlink" width="100" height="100" viewBox="0 0 512 512">
<g>
</g>
	<path d="M420.014 18.422h-328.038c-40.642 0-73.585 32.912-73.585 73.554v328.069c0 40.622 32.942 73.543 73.585 73.543h328.028c40.642 0 73.605-32.921 73.605-73.543v-328.069c0-40.633-32.962-73.554-73.595-73.554zM140.4 82.985c0 0 70.236-51.763 151.634 11.090l-44.35 129.454c0 0-66.14-41.564-153.273-9.718l45.988-130.826zM38.932 383.938l46.018-130.867c0 0 70.267-51.753 151.613 11.1l-44.38 129.444c0 0-66.15-41.534-153.252-9.677zM370.309 429.036c0 0-70.277 51.743-151.644-11.1l44.38-129.485c0 0 66.13 41.584 153.252 9.718l-45.988 130.867zM427.070 261.509c0 0-70.298 51.753-151.644-11.111l44.38-129.434c0 0 66.12 41.554 153.232 9.708l-45.967 130.837z" fill="#000000" />
</svg>
