<?xml version="1.0" encoding="UTF-8" standalone="no"?>
<svg
   xmlns:dc="http://purl.org/dc/elements/1.1/"
   xmlns:cc="http://creativecommons.org/ns#"
   xmlns:rdf="http://www.w3.org/1999/02/22-rdf-syntax-ns#"
   xmlns:svg="http://www.w3.org/2000/svg"
   xmlns="http://www.w3.org/2000/svg"
   viewBox="0 0 85 85"
   height="100"
   width="100"
   id="svg869"
   version="1.1">
  <metadata
     id="metadata875">
    <rdf:RDF>
      <cc:Work
         rdf:about="">
        <dc:format>image/svg+xml</dc:format>
        <dc:type
           rdf:resource="http://purl.org/dc/dcmitype/StillImage" />
        <dc:title></dc:title>
      </cc:Work>
    </rdf:RDF>
  </metadata>
  <defs
     id="defs873" />
  <path
     id="path879"
     d="m 41.792395,79.862075 c -1.796076,-0.326799 -3.350538,-1.382653 -4.406903,-2.993348 -0.822843,-1.254633 -1.205972,-2.436601 -1.29802,-4.00445 -0.138444,-2.358109 0.639694,-4.453484 2.259667,-6.084849 1.266665,-1.275572 2.700115,-1.8752 4.490802,-1.878553 3.026403,-0.0057 5.639653,2.237437 6.467848,5.551732 0.188885,0.755884 0.216185,1.112192 0.171816,2.242491 -0.05936,1.512081 -0.23196,2.257227 -0.77222,3.333732 -0.923044,1.839229 -2.213462,2.98173 -4.101404,3.631278 -0.677628,0.233139 -2.084744,0.334217 -2.811586,0.201967 z M 27.191851,54.95837 c -1.587839,-1.772608 -2.886981,-3.252552 -2.886981,-3.288764 0,-0.13066 2.422191,-2.463754 3.256952,-3.137151 3.531047,-2.848475 7.845809,-4.689837 12.44049,-5.309089 1.300267,-0.175245 4.410515,-0.145999 5.902623,0.0555 4.0663,0.54913 7.946144,2.179172 11.453203,4.811845 1.487271,1.116464 3.810581,3.324442 3.766321,3.579357 -0.0389,0.224214 -5.638731,6.511228 -5.799505,6.511228 -0.06257,0 -0.352224,-0.244302 -0.643675,-0.542894 -2.227158,-2.281718 -5.185273,-3.994573 -8.165063,-4.727865 -5.350895,-1.316794 -11.002091,0.261137 -15.111842,4.219536 -0.600278,0.578173 -1.144095,1.051223 -1.20848,1.051223 -0.06438,0 -1.416204,-1.450316 -3.004043,-3.222926 z M 15.379114,41.763054 c -1.565958,-1.747275 -2.870081,-3.236133 -2.898051,-3.308575 -0.113258,-0.293333 3.028861,-3.388553 5.25651,-5.178051 7.867709,-6.320232 17.487715,-9.505128 27.023057,-8.946528 8.645295,0.506461 16.163549,3.460496 23.219439,9.123263 1.82641,1.465805 5.18245,4.784979 5.05786,5.0023 -0.0508,0.08859 -1.2249,1.427661 -2.60913,2.975712 -1.38422,1.548051 -2.66551,2.982598 -2.84729,3.187883 l -0.33052,0.373246 -1.69108,-1.658536 c -0.93009,-0.912196 -2.17161,-2.040988 -2.75893,-2.508429 -3.5663,-2.838378 -8.141995,-5.145938 -12.280314,-6.193064 -8.471791,-2.143629 -17.09178,-0.770737 -24.612168,3.919943 -2.22512,1.387871 -4.921813,3.587711 -6.654923,5.428785 -0.496474,0.527402 -0.930713,0.958914 -0.964973,0.958914 -0.03426,0 -1.34353,-1.429588 -2.909487,-3.176863 z M 3.4090496,28.390435 C 1.8338976,26.62971 0.54513659,25.143361 0.54513659,25.087438 c 0,-0.329981 4.33739101,-4.569445 6.62069001,-6.471215 C 16.160595,11.124447 26.850989,6.6659618 38.293747,5.6341598 c 1.854428,-0.167215 7.002911,-0.169454 8.863181,-0.0039 6.228667,0.554471 11.871031,2.005367 17.643371,4.5368712 4.99655,2.19128 10.24745,5.56537 14.71258,9.453931 1.2904,1.123771 5.15985,4.961325 5.33777,5.293763 0.12802,0.239222 -0.003,0.405539 -2.66165,3.384145 -1.53796,1.722908 -2.86364,3.179281 -2.94596,3.236387 -0.11443,0.07939 -0.5464,-0.297581 -1.83544,-1.60178 -3.02649,-3.062082 -5.67662,-5.244202 -8.947,-7.366994 C 54.963501,13.80568 38.652988,12.415371 24.037907,18.779992 c -5.762711,2.509564 -11.273828,6.36187 -15.9166674,11.125855 -0.903644,0.927224 -1.689179,1.685861 -1.745633,1.685861 -0.05645,0 -1.391405,-1.440593 -2.966557,-3.201318 z"
     style="fill:#000000;stroke-width:0.10678532" />
</svg>
