<?xml version="1.0" encoding="UTF-8" standalone="no"?>
<svg
   xmlns:dc="http://purl.org/dc/elements/1.1/"
   xmlns:cc="http://creativecommons.org/ns#"
   xmlns:rdf="http://www.w3.org/1999/02/22-rdf-syntax-ns#"
   xmlns:svg="http://www.w3.org/2000/svg"
   xmlns="http://www.w3.org/2000/svg"
   xmlns:sodipodi="http://sodipodi.sourceforge.net/DTD/sodipodi-0.dtd"
   xmlns:inkscape="http://www.inkscape.org/namespaces/inkscape"
   inkscape:version="1.0 (4035a4fb49, 2020-05-01)"
   sodipodi:docname="zap.svg"
   viewBox="0 0 511.99999 511.99999"
   height="100"
   width="100"
   id="svg957"
   version="1.1">
  <metadata
     id="metadata963">
    <rdf:RDF>
      <cc:Work
         rdf:about="">
        <dc:format>image/svg+xml</dc:format>
        <dc:type
           rdf:resource="http://purl.org/dc/dcmitype/StillImage" />
        <dc:title></dc:title>
      </cc:Work>
    </rdf:RDF>
  </metadata>
  <defs
     id="defs961" />
  <sodipodi:namedview
     inkscape:current-layer="g965"
     inkscape:window-maximized="1"
     inkscape:window-y="24"
     inkscape:window-x="0"
     inkscape:cy="261.22313"
     inkscape:cx="173.41263"
     inkscape:zoom="0.75387155"
     showgrid="false"
     id="namedview959"
     inkscape:window-height="692"
     inkscape:window-width="1366"
     inkscape:pageshadow="2"
     inkscape:pageopacity="0"
     guidetolerance="10"
     gridtolerance="10"
     objecttolerance="10"
     borderopacity="1"
     bordercolor="#666666"
     pagecolor="#ffffff" />
  <g
     id="g965"
     inkscape:label="Image"
     inkscape:groupmode="layer">
    <path
       id="path969"
       d="M 234.85556,499.33706 C 178.52192,490.60349 121.25495,456.36936 86.773769,410.81391 75.535472,395.96623 61.106718,369.28643 53.644508,349.55555 33.676002,296.75666 36.108891,229.01853 59.807155,177.97093 c 3.873987,-8.34482 7.043611,-15.46465 7.043611,-15.82184 0,-0.35718 -11.991637,-9.12321 -26.648084,-19.48006 C 8.0789445,119.96909 3.6286315,112.88283 12.452492,98.482247 15.460311,93.573477 21.754685,90.068815 46.011688,79.796718 62.433037,72.842782 105.74813,54.246099 142.26744,38.470751 186.96317,19.163415 211.0166,9.7883063 215.85708,9.7883063 c 7.79943,0 13.31086,4.6516947 25.9549,21.9061357 l 6.55288,8.942266 15.19158,-0.630978 c 8.35539,-0.347051 24.06047,0.422905 34.90018,1.710984 142.12206,16.888305 235.34585,156.203316 196.02469,292.942226 -6.54678,22.76643 -23.90477,57.54375 -37.80193,75.73758 l -11.21607,14.6838 8.35917,10.78349 c 6.73689,8.69065 8.35921,12.39539 8.35921,19.08917 0,6.80002 -1.14516,9.32405 -6.31685,13.92295 -8.8796,7.89616 -17.40999,7.44172 -34.69196,-1.84822 l -13.88788,-7.46548 -7.39361,4.56295 c -15.83397,9.77184 -48.27927,24.3371 -64.7315,29.05906 -32.82841,9.42217 -66.06544,11.46099 -100.30433,6.15282 z m 208.22672,-44.54617 c -0.54149,-2.06071 -20.71152,-28.65896 -44.82231,-59.10723 -65.92953,-83.25895 -70.76607,-89.53653 -70.83135,-91.93501 -0.0332,-1.21781 8.28131,-4.36704 18.47657,-6.99831 13.7483,-3.54826 18.47985,-5.59196 18.31629,-7.91148 -0.12134,-1.72005 -17.95852,-25.31382 -39.63833,-52.43062 -21.67979,-27.1168 -38.93025,-50.0884 -38.33434,-51.04801 0.5959,-0.9596 7.16077,-3.72073 14.58856,-6.13584 7.42782,-2.41512 14.3033,-5.11931 15.27886,-6.00931 0.98446,-0.89811 -9.78963,-17.87243 -24.21245,-38.14615 C 277.61139,114.97854 254.71931,82.634248 241.03249,63.192735 227.34568,43.751222 215.56001,27.820621 214.84208,27.791404 214.12415,27.762292 192.03026,37.00078 165.74453,48.321618 139.4588,59.642459 97.436534,77.708014 72.361717,88.467298 47.286896,99.226587 26.771138,108.65321 26.771138,109.41535 c 0,0.76214 23.922211,18.29831 53.160471,38.96926 29.238271,20.67095 52.875581,38.5549 52.527361,39.74209 -0.3482,1.18719 -6.68548,5.07583 -14.08283,8.6414 -7.39734,3.56558 -13.42573,7.15557 -13.39641,7.97776 0.0293,0.82221 5.21463,5.1736 11.5229,9.66977 62.57598,44.6006 95.73442,69.18864 96.22219,71.35185 0.35773,1.5866 -5.87614,5.30823 -16.03186,9.57097 -9.49663,3.98612 -16.61723,8.16364 -16.61723,9.74902 0,1.52575 12.62508,9.86986 28.05574,18.54247 15.43066,8.67261 49.24784,28.06898 75.1493,43.10302 42.49643,24.66629 104.28807,60.31645 144.23814,83.21693 8.23975,4.72325 15.33379,8.58772 15.76459,8.58772 0.4308,0 0.34019,-1.68602 -0.20115,-3.74672 z"
       style="fill:#000000;stroke-width:1.9992" />
  </g>
</svg>
